G04*
G04 #@! TF.GenerationSoftware,Altium Limited,Altium Designer,21.6.4 (81)*
G04*
G04 Layer_Physical_Order=2*
G04 Layer_Color=16711680*
%FSLAX25Y25*%
%MOIN*%
G70*
G04*
G04 #@! TF.SameCoordinates,1C97AE3E-24CA-4656-ADB5-1DC68C47BFAE*
G04*
G04*
G04 #@! TF.FilePolarity,Positive*
G04*
G01*
G75*
%ADD35C,0.07874*%
%ADD36C,0.02953*%
%ADD37C,0.02000*%
%ADD38R,0.02756X0.01772*%
%ADD39R,0.08150X0.08150*%
%ADD40C,0.08150*%
%ADD41R,0.05906X0.05906*%
%ADD42C,0.05906*%
%ADD43R,0.05906X0.05906*%
%ADD44C,0.05000*%
G36*
X-86000Y82000D02*
X-97000Y71000D01*
X-109000D01*
X-113000Y75000D01*
Y121000D01*
X-95000Y139000D01*
Y151000D01*
X-86000D01*
Y82000D01*
D02*
G37*
G36*
X36000Y125000D02*
X30000Y119000D01*
X18325D01*
Y120700D01*
X18133Y121666D01*
X17585Y122485D01*
X13194Y126876D01*
X12878Y127350D01*
Y127886D01*
X12399D01*
X11730Y128333D01*
X10764Y128525D01*
X10500D01*
X9534Y128333D01*
X8865Y127886D01*
X8122D01*
Y126739D01*
X7975Y126000D01*
X8122Y125261D01*
Y124114D01*
X8865D01*
X8941Y124063D01*
X9093Y123837D01*
X13275Y119654D01*
Y82346D01*
X10954Y80025D01*
X975D01*
X-35000Y116000D01*
X-35000Y130000D01*
X-33000Y132000D01*
X36000D01*
Y125000D01*
D02*
G37*
%LPC*%
G36*
X-14547Y127953D02*
X-22453D01*
Y120047D01*
X-14547D01*
Y127953D01*
D02*
G37*
%LPD*%
D35*
X39000Y64500D02*
Y74500D01*
Y54500D02*
Y64500D01*
X70500D01*
X49000Y84500D02*
Y99500D01*
X39000Y74500D02*
X49000Y84500D01*
D36*
X10878Y125622D02*
X15800Y120700D01*
Y81300D02*
Y120700D01*
X12000Y77500D02*
X15800Y81300D01*
X10764Y126000D02*
X10878Y125886D01*
X10500Y126000D02*
X10764D01*
X10878Y125622D02*
Y125886D01*
X-25500Y77500D02*
X12000D01*
D37*
X70000Y107500D02*
X87000Y90500D01*
Y27587D02*
Y90500D01*
X78799Y19386D02*
X87000Y27587D01*
X78535Y19386D02*
X78799D01*
X60500Y117000D02*
X70000Y107500D01*
Y97500D02*
X81500Y86000D01*
X50500Y117000D02*
X70000Y97500D01*
X68535Y19386D02*
X68799D01*
X81500Y32087D01*
Y86000D01*
X60500Y117000D02*
Y126000D01*
X50500Y117000D02*
Y126000D01*
X-80500Y90200D02*
X-73700Y83400D01*
X-80500Y90200D02*
Y146000D01*
D38*
X78535Y19386D02*
D03*
X68535D02*
D03*
X48533D02*
D03*
X28535D02*
D03*
X60500Y126000D02*
D03*
X50500D02*
D03*
X30498D02*
D03*
X10500D02*
D03*
D39*
X29000Y54500D02*
D03*
Y99500D02*
D03*
D40*
X39000Y54500D02*
D03*
X49000D02*
D03*
X39000Y99500D02*
D03*
X49000D02*
D03*
D41*
X70500Y64500D02*
D03*
X70000Y107500D02*
D03*
D42*
X70500Y54500D02*
D03*
X-9000Y28000D02*
D03*
X-28500Y124000D02*
D03*
X70000Y97500D02*
D03*
X-90500Y146000D02*
D03*
X-100500D02*
D03*
X-110500D02*
D03*
D43*
X1000Y28000D02*
D03*
X-18500Y124000D02*
D03*
X-80500Y146000D02*
D03*
D44*
X7400Y85300D02*
D03*
X-25500Y77500D02*
D03*
X-106000Y78000D02*
D03*
X-73700Y83400D02*
D03*
M02*
