G04*
G04 #@! TF.GenerationSoftware,Altium Limited,Altium Designer,21.6.4 (81)*
G04*
G04 Layer_Physical_Order=1*
G04 Layer_Color=255*
%FSLAX25Y25*%
%MOIN*%
G70*
G04*
G04 #@! TF.SameCoordinates,1C97AE3E-24CA-4656-ADB5-1DC68C47BFAE*
G04*
G04*
G04 #@! TF.FilePolarity,Positive*
G04*
G01*
G75*
%ADD16R,0.07087X0.02362*%
%ADD17R,0.02756X0.03347*%
%ADD18R,0.03543X0.06496*%
G04:AMPARAMS|DCode=19|XSize=39.37mil|YSize=39.37mil|CornerRadius=9.84mil|HoleSize=0mil|Usage=FLASHONLY|Rotation=90.000|XOffset=0mil|YOffset=0mil|HoleType=Round|Shape=RoundedRectangle|*
%AMROUNDEDRECTD19*
21,1,0.03937,0.01968,0,0,90.0*
21,1,0.01968,0.03937,0,0,90.0*
1,1,0.01968,0.00984,0.00984*
1,1,0.01968,0.00984,-0.00984*
1,1,0.01968,-0.00984,-0.00984*
1,1,0.01968,-0.00984,0.00984*
%
%ADD19ROUNDEDRECTD19*%
%ADD20R,0.03937X0.05315*%
%ADD21R,0.05315X0.03937*%
%ADD35C,0.07874*%
%ADD36C,0.02953*%
%ADD37C,0.02000*%
%ADD38R,0.02756X0.01772*%
%ADD39R,0.08150X0.08150*%
%ADD40C,0.08150*%
%ADD41R,0.05906X0.05906*%
%ADD42C,0.05906*%
%ADD43R,0.05906X0.05906*%
%ADD44C,0.05000*%
G36*
X-67500Y110181D02*
X-75543D01*
Y110082D01*
X-76699D01*
X-78444Y111828D01*
Y113880D01*
X-76379D01*
X-76115Y113485D01*
X-75459Y113047D01*
X-74684Y112893D01*
X-72716D01*
X-71942Y113047D01*
X-71285Y113485D01*
X-70847Y114141D01*
X-70693Y114916D01*
Y116884D01*
X-70847Y117658D01*
X-71285Y118315D01*
X-71942Y118753D01*
X-72716Y118907D01*
X-74684D01*
X-75459Y118753D01*
X-76115Y118315D01*
X-76353Y117959D01*
X-77309D01*
X-77590Y118342D01*
Y125657D01*
X-78461D01*
Y142047D01*
X-76547D01*
Y149953D01*
X-84453D01*
Y142047D01*
X-82539D01*
Y125657D01*
X-83527D01*
Y125579D01*
X-85775D01*
X-86165Y125501D01*
X-86496Y125280D01*
X-86717Y124949D01*
X-86794Y124559D01*
Y119441D01*
X-86717Y119051D01*
X-86496Y118720D01*
X-86165Y118499D01*
X-85775Y118421D01*
X-83527D01*
Y118342D01*
X-82522D01*
Y115919D01*
Y112322D01*
X-82834Y112183D01*
X-83022Y112140D01*
X-83641Y112553D01*
X-84416Y112707D01*
X-86384D01*
X-87159Y112553D01*
X-87815Y112115D01*
X-88253Y111459D01*
X-88407Y110684D01*
Y108716D01*
X-88253Y107941D01*
X-87815Y107285D01*
X-87439Y107034D01*
Y105089D01*
X-90574D01*
Y106373D01*
X-90574D01*
X-90500Y106843D01*
X-89990D01*
Y114157D01*
X-95927D01*
Y114079D01*
X-98175D01*
X-98565Y114001D01*
X-98896Y113780D01*
X-99117Y113449D01*
X-99194Y113059D01*
Y107941D01*
X-99117Y107551D01*
X-98896Y107220D01*
X-98565Y106999D01*
X-98175Y106921D01*
X-95946D01*
X-95927Y106902D01*
Y106843D01*
X-95927D01*
X-95782Y106342D01*
X-95823Y106294D01*
X-97070D01*
Y106373D01*
X-101826D01*
Y105239D01*
X-105255D01*
X-106361Y106345D01*
Y127055D01*
X-99058Y134358D01*
X-98616Y135020D01*
X-98461Y135800D01*
Y142613D01*
X-98073Y142837D01*
X-97337Y143573D01*
X-96817Y144474D01*
X-96547Y145480D01*
Y146520D01*
X-96817Y147526D01*
X-97337Y148427D01*
X-98073Y149163D01*
X-98461Y149387D01*
Y151700D01*
X-98616Y152480D01*
X-99058Y153142D01*
X-101958Y156042D01*
X-102620Y156484D01*
X-103400Y156639D01*
X-117928D01*
X-118709Y156484D01*
X-119370Y156042D01*
X-119370Y156042D01*
X-120542Y154870D01*
X-120984Y154209D01*
X-121139Y153428D01*
Y54172D01*
X-120984Y53391D01*
X-120542Y52730D01*
X-119370Y51558D01*
X-119370Y51558D01*
X-118709Y51116D01*
X-117928Y50961D01*
X-101826D01*
Y49727D01*
X-98485D01*
X-98436Y49227D01*
X-98565Y49201D01*
X-98896Y48980D01*
X-99117Y48649D01*
X-99194Y48259D01*
Y43141D01*
X-99117Y42751D01*
X-98896Y42420D01*
X-98565Y42199D01*
X-98175Y42121D01*
X-95927D01*
Y42042D01*
X-89990D01*
Y49358D01*
X-90259D01*
X-90574Y49727D01*
Y50961D01*
X-87339D01*
Y49266D01*
X-87715Y49015D01*
X-88153Y48359D01*
X-88307Y47584D01*
Y45616D01*
X-88153Y44842D01*
X-87715Y44185D01*
X-87059Y43747D01*
X-86284Y43593D01*
X-84316D01*
X-83542Y43747D01*
X-82885Y44185D01*
X-82447Y44842D01*
X-82293Y45616D01*
Y47584D01*
X-82447Y48359D01*
X-82885Y49015D01*
X-83261Y49266D01*
Y50961D01*
X-75543D01*
Y50819D01*
X-67500D01*
Y37000D01*
X-128000D01*
Y162000D01*
X-67500D01*
Y110181D01*
D02*
G37*
G36*
X-75543Y95819D02*
X-67500D01*
Y65181D01*
X-72303D01*
X-72500Y65220D01*
X-72697Y65181D01*
X-75543D01*
Y65039D01*
X-76655D01*
X-78284Y66667D01*
Y68861D01*
X-76466D01*
X-76215Y68485D01*
X-75559Y68047D01*
X-74784Y67893D01*
X-72816D01*
X-72041Y68047D01*
X-71385Y68485D01*
X-70947Y69142D01*
X-70793Y69916D01*
Y71884D01*
X-70947Y72658D01*
X-71385Y73315D01*
X-72041Y73753D01*
X-72816Y73907D01*
X-74784D01*
X-75559Y73753D01*
X-76215Y73315D01*
X-76466Y72939D01*
X-78284D01*
Y73542D01*
X-77390D01*
Y80857D01*
X-78319D01*
Y81361D01*
X-76564D01*
X-76501Y81251D01*
X-75849Y80599D01*
X-75051Y80138D01*
X-74161Y79900D01*
X-73239D01*
X-72349Y80138D01*
X-71551Y80599D01*
X-70899Y81251D01*
X-70438Y82049D01*
X-70200Y82939D01*
Y83861D01*
X-70438Y84751D01*
X-70899Y85549D01*
X-71551Y86201D01*
X-72349Y86661D01*
X-73239Y86900D01*
X-74161D01*
X-75051Y86661D01*
X-75849Y86201D01*
X-76501Y85549D01*
X-76564Y85439D01*
X-79187D01*
X-79967Y85284D01*
X-80629Y84842D01*
X-80629Y84842D01*
X-81800Y83670D01*
X-82242Y83009D01*
X-82398Y82228D01*
Y80857D01*
X-83327D01*
Y80779D01*
X-85575D01*
X-85965Y80701D01*
X-86296Y80480D01*
X-86517Y80149D01*
X-86594Y79759D01*
Y74641D01*
X-86517Y74251D01*
X-86296Y73920D01*
X-85965Y73699D01*
X-85575Y73621D01*
X-83327D01*
Y73542D01*
X-82362D01*
Y70800D01*
Y66932D01*
X-82862Y66780D01*
X-82885Y66815D01*
X-83542Y67253D01*
X-84316Y67407D01*
X-86284D01*
X-87059Y67253D01*
X-87715Y66815D01*
X-88153Y66158D01*
X-88307Y65384D01*
Y63416D01*
X-88153Y62642D01*
X-87715Y61985D01*
X-87339Y61734D01*
Y60039D01*
X-90574D01*
Y61273D01*
X-90259Y61642D01*
X-89990D01*
Y68958D01*
X-95927D01*
Y68879D01*
X-98175D01*
X-98565Y68801D01*
X-98896Y68580D01*
X-99117Y68249D01*
X-99194Y67859D01*
Y62741D01*
X-99117Y62351D01*
X-98896Y62020D01*
X-98565Y61799D01*
X-98436Y61773D01*
X-98485Y61273D01*
X-101826D01*
Y60039D01*
X-112461D01*
Y95861D01*
X-101826D01*
Y94927D01*
X-97070D01*
Y95006D01*
X-95330D01*
Y94927D01*
X-94994D01*
Y94257D01*
X-95927D01*
Y94179D01*
X-98175D01*
X-98565Y94101D01*
X-98896Y93880D01*
X-99117Y93549D01*
X-99194Y93159D01*
Y88041D01*
X-99117Y87651D01*
X-98896Y87320D01*
X-98565Y87099D01*
X-98175Y87021D01*
X-95927D01*
Y86942D01*
X-89990D01*
Y94257D01*
X-90916D01*
Y94927D01*
X-90574D01*
Y95911D01*
X-87239D01*
Y93766D01*
X-87615Y93515D01*
X-88053Y92858D01*
X-88207Y92084D01*
Y90116D01*
X-88053Y89341D01*
X-87615Y88685D01*
X-86958Y88247D01*
X-86184Y88093D01*
X-84216D01*
X-83442Y88247D01*
X-82785Y88685D01*
X-82347Y89341D01*
X-82193Y90116D01*
Y92084D01*
X-82347Y92858D01*
X-82785Y93515D01*
X-83161Y93766D01*
Y95911D01*
X-75543D01*
Y95819D01*
D02*
G37*
G36*
X13500Y81000D02*
X7000Y74500D01*
X-14000D01*
Y80421D01*
X-13067D01*
X-12677Y80499D01*
X-12346Y80720D01*
X-12125Y81051D01*
X-12047Y81441D01*
Y86559D01*
X-12125Y86949D01*
X-12346Y87280D01*
X-12630Y87470D01*
X-12646Y87652D01*
X-12578Y87990D01*
X-12535Y87999D01*
X-12204Y88220D01*
X-11983Y88551D01*
X-11906Y88941D01*
Y94059D01*
X-11983Y94449D01*
X-12185Y94752D01*
X-12153Y94905D01*
X-12011Y95252D01*
X-7724D01*
Y97102D01*
X3842D01*
Y96173D01*
X3921D01*
Y93925D01*
X3999Y93535D01*
X4220Y93204D01*
X4551Y92983D01*
X4941Y92906D01*
X10059D01*
X10449Y92983D01*
X10780Y93204D01*
X11001Y93535D01*
X11079Y93925D01*
Y96173D01*
X11157D01*
Y97102D01*
X13500D01*
Y81000D01*
D02*
G37*
G36*
X78000Y41000D02*
X51500Y14500D01*
X38500D01*
X31000Y22000D01*
X27000D01*
X26272Y21272D01*
X26158D01*
Y21158D01*
X23525Y18525D01*
X-10954D01*
X-15617Y23188D01*
Y35342D01*
X-15173D01*
Y35421D01*
X-12925D01*
X-12535Y35499D01*
X-12204Y35720D01*
X-11983Y36051D01*
X-11906Y36441D01*
Y41559D01*
X-11983Y41949D01*
X-12204Y42280D01*
X-12521Y42492D01*
X-12535Y42575D01*
Y42925D01*
X-12521Y43008D01*
X-12204Y43220D01*
X-11983Y43551D01*
X-11906Y43941D01*
Y49059D01*
X-11983Y49449D01*
X-12185Y49752D01*
X-12153Y49905D01*
X-12011Y50252D01*
X-7724D01*
Y52461D01*
X-5039D01*
Y45000D01*
X-4884Y44220D01*
X-4442Y43558D01*
X-1039Y40155D01*
Y31953D01*
X-2953D01*
Y24047D01*
X4953D01*
Y31953D01*
X3039D01*
Y41000D01*
X2884Y41780D01*
X2442Y42442D01*
X-961Y45845D01*
Y52461D01*
X3842D01*
Y51531D01*
X11157D01*
Y52461D01*
X23925D01*
Y49425D01*
X34075D01*
Y51881D01*
X34575Y52015D01*
X34939Y51384D01*
X35884Y50439D01*
X37041Y49771D01*
X38332Y49425D01*
X39668D01*
X40959Y49771D01*
X42116Y50439D01*
X43061Y51384D01*
X43729Y52541D01*
X44075Y53832D01*
Y55168D01*
X43729Y56459D01*
X43061Y57616D01*
X42116Y58561D01*
X40959Y59229D01*
X39668Y59575D01*
X38332D01*
X37041Y59229D01*
X35884Y58561D01*
X34939Y57616D01*
X34575Y56985D01*
X34075Y57119D01*
Y59575D01*
X23925D01*
Y56539D01*
X11157D01*
Y57468D01*
X11079D01*
Y59716D01*
X11001Y60107D01*
X10780Y60438D01*
X10449Y60659D01*
X10059Y60736D01*
X4941D01*
X4551Y60659D01*
X4220Y60438D01*
X3999Y60107D01*
X3921Y59716D01*
Y57468D01*
X3842D01*
Y56539D01*
X-961D01*
Y58834D01*
X-585Y59085D01*
X-147Y59741D01*
X7Y60516D01*
Y62484D01*
X-147Y63258D01*
X-585Y63915D01*
X-1242Y64353D01*
X-2016Y64507D01*
X-3984D01*
X-4758Y64353D01*
X-5415Y63915D01*
X-5853Y63258D01*
X-6007Y62484D01*
Y60516D01*
X-5853Y59741D01*
X-5415Y59085D01*
X-5039Y58834D01*
Y56539D01*
X-7724D01*
Y58748D01*
X-8461D01*
Y60000D01*
X-8616Y60780D01*
X-9058Y61442D01*
X-9720Y61884D01*
X-10500Y62039D01*
X-26500D01*
X-27280Y61884D01*
X-27942Y61442D01*
X-29164Y60220D01*
X-33219D01*
X-33415Y60181D01*
X-36681D01*
X-37000Y60500D01*
Y70000D01*
X78000D01*
X78000Y41000D01*
D02*
G37*
%LPC*%
G36*
X74453Y68453D02*
X66547D01*
Y60547D01*
X74453D01*
Y68453D01*
D02*
G37*
G36*
X-9250Y30289D02*
X-10030Y30134D01*
X-10692Y29692D01*
X-11134Y29030D01*
X-11289Y28250D01*
X-11134Y27470D01*
X-10692Y26808D01*
X-10442Y26558D01*
X-9780Y26116D01*
X-9000Y25961D01*
X-8220Y26116D01*
X-7558Y26558D01*
X-7116Y27220D01*
X-6961Y28000D01*
X-7116Y28780D01*
X-7558Y29442D01*
X-7808Y29692D01*
X-8470Y30134D01*
X-9250Y30289D01*
D02*
G37*
%LPD*%
D16*
X-71000Y93000D02*
D03*
Y98000D02*
D03*
Y103000D02*
D03*
Y108000D02*
D03*
X-33400Y93000D02*
D03*
Y98000D02*
D03*
Y103000D02*
D03*
Y108000D02*
D03*
Y63000D02*
D03*
Y58000D02*
D03*
Y53000D02*
D03*
Y48000D02*
D03*
X-71000Y63000D02*
D03*
Y58000D02*
D03*
Y53000D02*
D03*
Y48000D02*
D03*
D17*
X-99448Y58600D02*
D03*
X-92952D02*
D03*
X-99448Y52400D02*
D03*
X-92952D02*
D03*
X-99448Y97600D02*
D03*
X-92952D02*
D03*
X-99448Y103700D02*
D03*
X-92952D02*
D03*
D18*
X-10496Y99500D02*
D03*
X-22504D02*
D03*
Y54500D02*
D03*
X-10496D02*
D03*
D19*
X-2500Y107500D02*
D03*
X-3000Y61500D02*
D03*
X-25500Y39000D02*
D03*
Y84000D02*
D03*
X-19000Y67500D02*
D03*
X-11000Y77000D02*
D03*
X-118000Y46000D02*
D03*
X-73800Y70900D02*
D03*
X-73700Y115900D02*
D03*
X-85300Y46600D02*
D03*
X-85200Y91100D02*
D03*
X-85300Y64400D02*
D03*
X-85400Y109700D02*
D03*
D20*
X-87842Y122000D02*
D03*
X-80558D02*
D03*
X-92958Y65300D02*
D03*
X-100242D02*
D03*
X-92958Y45700D02*
D03*
X-100242D02*
D03*
X-10858Y46500D02*
D03*
X-18142D02*
D03*
X-11000Y84000D02*
D03*
X-18283D02*
D03*
X-10858Y39000D02*
D03*
X-18142D02*
D03*
X-10858Y91500D02*
D03*
X-18142D02*
D03*
X-100242Y90600D02*
D03*
X-92958D02*
D03*
X-100242Y110500D02*
D03*
X-92958D02*
D03*
X-80358Y77200D02*
D03*
X-87642D02*
D03*
D21*
X7500Y61783D02*
D03*
Y54500D02*
D03*
Y91858D02*
D03*
Y99142D02*
D03*
D35*
X39053Y99627D02*
Y104302D01*
X68500Y109000D02*
X70000Y107500D01*
X39053Y104302D02*
X43750Y109000D01*
X68500D01*
X39000Y99575D02*
X39053Y99627D01*
D36*
X-18142Y22142D02*
Y39000D01*
X25150Y16000D02*
X28535Y19386D01*
X-12000Y16000D02*
X25150D01*
X-18142Y22142D02*
X-12000Y16000D01*
X-18142Y39000D02*
Y46500D01*
X-33400Y93000D02*
X-25500D01*
Y48000D02*
X-19110D01*
X-33400D02*
X-25500D01*
Y39000D02*
Y48000D01*
X-19110D02*
X-18142Y47032D01*
Y46500D02*
Y47032D01*
X-19455Y77500D02*
X-18283Y78672D01*
Y84000D01*
X-25500Y77500D02*
X-19455D01*
X-25500Y93000D02*
X-19110D01*
X-25500Y84000D02*
Y93000D01*
X-18213Y83382D02*
Y91429D01*
X-18142Y91500D01*
X-19110Y93000D02*
X-18142Y92032D01*
Y91500D02*
Y92032D01*
D37*
X-22504Y98772D02*
Y99500D01*
X-23276Y98000D02*
X-22504Y98772D01*
X-33400Y98000D02*
X-23276D01*
X-28500Y110537D02*
Y124000D01*
X-31037Y108000D02*
X-28500Y110537D01*
X-33400Y108000D02*
X-31037D01*
X-33400Y103000D02*
X-33366Y103034D01*
X-28466D02*
X-26000Y105500D01*
X-33366Y103034D02*
X-28466D01*
X-26000Y105500D02*
X-10496D01*
X-77543Y108043D02*
X-71043D01*
X-85400Y103050D02*
X-71050D01*
X-85200Y97950D02*
X-71050D01*
X-71043Y108043D02*
X-71000Y108000D01*
X-71050Y97950D02*
X-71000Y98000D01*
X-71050Y103050D02*
X-71000Y103000D01*
X-80483Y110983D02*
Y115919D01*
Y110983D02*
X-77543Y108043D01*
X-114500Y97900D02*
X-99748D01*
X-99448Y97600D01*
X-92955Y97597D02*
X-92952Y97600D01*
X-92955Y90603D02*
Y97597D01*
X-92958Y90600D02*
X-92955Y90603D01*
X-92952Y97600D02*
Y97700D01*
X-92902Y97950D02*
X-85200D01*
X-92952Y97900D02*
X-92902Y97950D01*
X-92952Y97700D02*
Y97900D01*
X-99448Y103578D02*
Y103700D01*
X-100500Y135800D02*
Y146000D01*
X-108400Y127900D02*
X-100500Y135800D01*
X-108400Y105500D02*
Y127900D01*
Y105500D02*
X-106100Y103200D01*
X-99826D01*
X-99448Y103578D01*
X-92574Y103050D02*
X-85400D01*
X-92952Y103428D02*
X-92574Y103050D01*
X-92952Y103428D02*
Y103700D01*
X-92955Y103703D02*
X-92952Y103700D01*
X-92955Y103703D02*
Y110497D01*
X-92958Y110500D02*
X-92955Y110497D01*
X-92952Y58378D02*
Y58600D01*
Y58378D02*
X-92574Y58000D01*
X-85400D01*
X-92955Y58603D02*
Y65297D01*
X-113328Y58000D02*
X-99826D01*
X-99448Y58378D02*
Y58600D01*
X-99826Y58000D02*
X-99448Y58378D01*
X-92955Y58603D02*
X-92952Y58600D01*
X-114500Y59172D02*
Y97900D01*
Y59172D02*
X-113328Y58000D01*
X-92958Y65300D02*
X-92955Y65297D01*
X-117928Y53000D02*
X-99826D01*
X-99448Y52400D02*
Y52622D01*
X-99826Y53000D02*
X-99448Y52622D01*
X-119100Y54172D02*
X-117928Y53000D01*
X-92955Y45703D02*
Y52397D01*
X-92952Y52400D01*
X-92958Y45700D02*
X-92955Y45703D01*
X-92574Y53000D02*
X-85500D01*
X-92952Y52622D02*
X-92574Y53000D01*
X-92952Y52400D02*
Y52622D01*
X-100500Y146000D02*
Y151700D01*
X-103400Y154600D02*
X-100500Y151700D01*
X-117928Y154600D02*
X-103400D01*
X-119100Y153428D02*
X-117928Y154600D01*
X-119100Y54172D02*
Y153428D01*
X1000Y28000D02*
Y41000D01*
X-3000Y45000D02*
Y54500D01*
Y45000D02*
X1000Y41000D01*
X-9250Y28250D02*
X-9000Y28000D01*
X7500Y54500D02*
X29000D01*
X-3000D02*
Y61500D01*
Y54500D02*
X7500D01*
X-10496D02*
X-3000D01*
X-10500Y54504D02*
Y60000D01*
Y54504D02*
X-10496Y54500D01*
X-26500Y60000D02*
X-10500D01*
X-28319Y58181D02*
X-26500Y60000D01*
X-33219Y58181D02*
X-28319D01*
X-33400Y58000D02*
X-33219Y58181D01*
X-22504Y54024D02*
Y54500D01*
X-23528Y53000D02*
X-22504Y54024D01*
X-33400Y53000D02*
X-23528D01*
X-18719Y123781D02*
X-18500Y124000D01*
X-18719Y119219D02*
Y123781D01*
Y119219D02*
X-10496Y110996D01*
Y105500D02*
Y110996D01*
X28642Y99142D02*
X29000Y99500D01*
X7500Y99142D02*
X28642D01*
X-2500D02*
X7500D01*
X-10138D02*
X-2500D01*
Y107500D01*
X-10496Y99500D02*
Y105500D01*
Y99500D02*
X-10138Y99142D01*
X-79187Y83400D02*
X-73700D01*
X-80358Y77200D02*
Y82228D01*
X-79187Y83400D01*
X-80483Y115919D02*
X-73720D01*
X-80708Y121850D02*
X-80483Y121625D01*
Y115919D02*
Y121625D01*
X-80500Y122058D02*
Y146000D01*
X-80323Y70800D02*
Y77165D01*
Y65823D02*
Y70800D01*
X-80223Y70900D01*
X-73800D01*
X-80358Y77200D02*
X-80323Y77165D01*
X-77500Y63000D02*
X-72319D01*
X-80323Y65823D02*
X-77500Y63000D01*
X-85500Y53000D02*
X-71000D01*
X-85300Y46600D02*
Y52800D01*
X-85500Y53000D02*
X-85300Y52800D01*
X-85400Y58000D02*
X-71000D01*
X-85400D02*
X-85300Y58100D01*
Y64400D01*
X-114500Y132300D02*
X-110500Y136300D01*
X-114500Y97900D02*
Y132300D01*
X-85200Y91100D02*
Y97950D01*
X-85400Y103050D02*
Y109700D01*
X-110500Y136300D02*
Y146000D01*
X-72319Y63000D02*
X-71000D01*
X-72500Y63181D02*
X-72319Y63000D01*
D38*
X78535Y19386D02*
D03*
X68535D02*
D03*
X48533D02*
D03*
X28535D02*
D03*
X60500Y126000D02*
D03*
X50500D02*
D03*
X30498D02*
D03*
X10500D02*
D03*
D39*
X29000Y54500D02*
D03*
Y99500D02*
D03*
D40*
X39000Y54500D02*
D03*
X49000D02*
D03*
X39000Y99500D02*
D03*
X49000D02*
D03*
D41*
X70500Y64500D02*
D03*
X70000Y107500D02*
D03*
D42*
X70500Y54500D02*
D03*
X-9000Y28000D02*
D03*
X-28500Y124000D02*
D03*
X70000Y97500D02*
D03*
X-90500Y146000D02*
D03*
X-100500D02*
D03*
X-110500D02*
D03*
D43*
X1000Y28000D02*
D03*
X-18500Y124000D02*
D03*
X-80500Y146000D02*
D03*
D44*
X7400Y85300D02*
D03*
X-25500Y77500D02*
D03*
X-106000Y78000D02*
D03*
X-73700Y83400D02*
D03*
M02*
