M48
;Layer_Color=9474304
;FILE_FORMAT=2:5
INCH,TZ
;TYPE=PLATED
T2F00S00C0.02800
T3F00S00C0.03543
T4F00S00C0.05433
%
T02
X-106000Y78000
X-73700Y83400
X-25500Y77500
X7400Y85300
T03
X-110500Y146000
X-100500
X-90500
X-80500
X-28500Y124000
X-18500
X-9000Y28000
X1000
X70500Y54500
Y64500
X70000Y97500
Y107500
T04
X29000Y54500
X39000
X49000
Y99500
X39000
X29000
M30
