G04*
G04 #@! TF.GenerationSoftware,Altium Limited,Altium Designer,21.6.4 (81)*
G04*
G04 Layer_Color=8388736*
%FSLAX25Y25*%
%MOIN*%
G70*
G04*
G04 #@! TF.SameCoordinates,1C97AE3E-24CA-4656-ADB5-1DC68C47BFAE*
G04*
G04*
G04 #@! TF.FilePolarity,Negative*
G04*
G01*
G75*
%ADD22R,0.07887X0.03162*%
%ADD23R,0.03556X0.04147*%
%ADD24R,0.04343X0.07296*%
G04:AMPARAMS|DCode=25|XSize=47.37mil|YSize=47.37mil|CornerRadius=13.84mil|HoleSize=0mil|Usage=FLASHONLY|Rotation=90.000|XOffset=0mil|YOffset=0mil|HoleType=Round|Shape=RoundedRectangle|*
%AMROUNDEDRECTD25*
21,1,0.04737,0.01968,0,0,90.0*
21,1,0.01968,0.04737,0,0,90.0*
1,1,0.02769,0.00984,0.00984*
1,1,0.02769,0.00984,-0.00984*
1,1,0.02769,-0.00984,-0.00984*
1,1,0.02769,-0.00984,0.00984*
%
%ADD25ROUNDEDRECTD25*%
%ADD26R,0.04737X0.06115*%
%ADD27R,0.06115X0.04737*%
%ADD28R,0.03556X0.02572*%
%ADD29R,0.08950X0.08950*%
%ADD30C,0.08950*%
%ADD31R,0.06706X0.06706*%
%ADD32C,0.06706*%
%ADD33R,0.06706X0.06706*%
%ADD34C,0.05800*%
D22*
X-71000Y93000D02*
D03*
Y98000D02*
D03*
Y103000D02*
D03*
Y108000D02*
D03*
X-33400Y93000D02*
D03*
Y98000D02*
D03*
Y103000D02*
D03*
Y108000D02*
D03*
Y63000D02*
D03*
Y58000D02*
D03*
Y53000D02*
D03*
Y48000D02*
D03*
X-71000Y63000D02*
D03*
Y58000D02*
D03*
Y53000D02*
D03*
Y48000D02*
D03*
D23*
X-99448Y58600D02*
D03*
X-92952D02*
D03*
X-99448Y52400D02*
D03*
X-92952D02*
D03*
X-99448Y97600D02*
D03*
X-92952D02*
D03*
X-99448Y103700D02*
D03*
X-92952D02*
D03*
D24*
X-10496Y99500D02*
D03*
X-22504D02*
D03*
Y54500D02*
D03*
X-10496D02*
D03*
D25*
X-2500Y107500D02*
D03*
X-3000Y61500D02*
D03*
X-25500Y39000D02*
D03*
Y84000D02*
D03*
X-19000Y67500D02*
D03*
X-11000Y77000D02*
D03*
X-118000Y46000D02*
D03*
X-73800Y70900D02*
D03*
X-73700Y115900D02*
D03*
X-85300Y46600D02*
D03*
X-85200Y91100D02*
D03*
X-85300Y64400D02*
D03*
X-85400Y109700D02*
D03*
D26*
X-87842Y122000D02*
D03*
X-80558D02*
D03*
X-92958Y65300D02*
D03*
X-100242D02*
D03*
X-92958Y45700D02*
D03*
X-100242D02*
D03*
X-10858Y46500D02*
D03*
X-18142D02*
D03*
X-11000Y84000D02*
D03*
X-18283D02*
D03*
X-10858Y39000D02*
D03*
X-18142D02*
D03*
X-10858Y91500D02*
D03*
X-18142D02*
D03*
X-100242Y90600D02*
D03*
X-92958D02*
D03*
X-100242Y110500D02*
D03*
X-92958D02*
D03*
X-80358Y77200D02*
D03*
X-87642D02*
D03*
D27*
X7500Y61783D02*
D03*
Y54500D02*
D03*
Y91858D02*
D03*
Y99142D02*
D03*
D28*
X78535Y19386D02*
D03*
X68535D02*
D03*
X48533D02*
D03*
X28535D02*
D03*
X60500Y126000D02*
D03*
X50500D02*
D03*
X30498D02*
D03*
X10500D02*
D03*
D29*
X29000Y54500D02*
D03*
Y99500D02*
D03*
D30*
X39000Y54500D02*
D03*
X49000D02*
D03*
X39000Y99500D02*
D03*
X49000D02*
D03*
D31*
X70500Y64500D02*
D03*
X70000Y107500D02*
D03*
D32*
X70500Y54500D02*
D03*
X-9000Y28000D02*
D03*
X-28500Y124000D02*
D03*
X70000Y97500D02*
D03*
X-90500Y146000D02*
D03*
X-100500D02*
D03*
X-110500D02*
D03*
D33*
X1000Y28000D02*
D03*
X-18500Y124000D02*
D03*
X-80500Y146000D02*
D03*
D34*
X7400Y85300D02*
D03*
X-25500Y77500D02*
D03*
X-106000Y78000D02*
D03*
X-73700Y83400D02*
D03*
M02*
