G04*
G04 #@! TF.GenerationSoftware,Altium Limited,Altium Designer,21.6.4 (81)*
G04*
G04 Layer_Color=32768*
%FSLAX25Y25*%
%MOIN*%
G70*
G04*
G04 #@! TF.SameCoordinates,1C97AE3E-24CA-4656-ADB5-1DC68C47BFAE*
G04*
G04*
G04 #@! TF.FilePolarity,Positive*
G04*
G01*
G75*
%ADD45C,0.00200*%
%ADD46C,0.00394*%
%ADD47C,0.00197*%
D45*
X9342Y12004D02*
X88870D01*
X9342D02*
Y45469D01*
X88870Y12004D02*
X90051D01*
Y45469D01*
X9342D02*
X90051D01*
X-75811Y111228D02*
X-29158D01*
X-75811Y90165D02*
Y111228D01*
X-29158Y90165D02*
Y111228D01*
X-75811Y90165D02*
X-29158D01*
X-8693Y118618D02*
X70835D01*
X-8693D02*
Y152083D01*
X70835Y118618D02*
X72016D01*
Y152083D01*
X-8693D02*
X72016D01*
X-75811Y45165D02*
X-29158D01*
Y66228D01*
X-75811Y45165D02*
Y66228D01*
X-29158D01*
D46*
X-97775Y58600D02*
X-94625D01*
X-96200Y57025D02*
Y60175D01*
X-97775Y52400D02*
X-94625D01*
X-96200Y50825D02*
Y53975D01*
X-16500Y97531D02*
Y101469D01*
X-18469Y99500D02*
X-14532D01*
X-84200Y120031D02*
Y123969D01*
X-86168Y122000D02*
X-82231D01*
X-96600Y63332D02*
Y67269D01*
X-98568Y65300D02*
X-94631D01*
X-97775Y97600D02*
X-94625D01*
X-96200Y96025D02*
Y99175D01*
X-97775Y103700D02*
X-94625D01*
X-96200Y102125D02*
Y105275D01*
X-96600Y43731D02*
Y47668D01*
X-98568Y45700D02*
X-94631D01*
X7500Y56173D02*
Y60110D01*
X5531Y58142D02*
X9469D01*
X-18469Y54500D02*
X-14532D01*
X-16500Y52531D02*
Y56468D01*
X-16468Y46500D02*
X-12531D01*
X-14500Y44532D02*
Y48469D01*
X-16610Y84000D02*
X-12673D01*
X-14642Y82032D02*
Y85969D01*
X-16468Y39000D02*
X-12531D01*
X-14500Y37031D02*
Y40968D01*
X-16468Y91500D02*
X-12531D01*
X-14500Y89531D02*
Y93468D01*
X7500Y93532D02*
Y97469D01*
X5531Y95500D02*
X9469D01*
X-98568Y90600D02*
X-94631D01*
X-96600Y88631D02*
Y92568D01*
X-98568Y110500D02*
X-94631D01*
X-96600Y108531D02*
Y112469D01*
X-85969Y77200D02*
X-82032D01*
X-84000Y75231D02*
Y79168D01*
D47*
X17583Y67689D02*
X60496D01*
Y48004D02*
Y67689D01*
X17583Y48004D02*
X60496D01*
X17583D02*
Y67689D01*
X-101318Y56435D02*
Y60765D01*
X-91082Y56435D02*
Y60765D01*
X-101318D02*
X-91082D01*
X-101318Y56435D02*
X-91082D01*
X-101318Y50235D02*
Y54565D01*
X-91082Y50235D02*
Y54565D01*
X-101318D02*
X-91082D01*
X-101318Y50235D02*
X-91082D01*
X17583Y112689D02*
X60496D01*
Y93004D02*
Y112689D01*
X17583Y93004D02*
X60496D01*
X17583D02*
Y112689D01*
X-24768Y95760D02*
X-8232D01*
X-24768Y103240D02*
X-8232D01*
Y95760D02*
Y103240D01*
X-24768Y95760D02*
Y103240D01*
X-90302Y125150D02*
X-78098D01*
X-90302Y118850D02*
X-78098D01*
X-90302D02*
Y125150D01*
X-78098Y118850D02*
Y125150D01*
X-102702Y62150D02*
X-90498D01*
X-102702Y68450D02*
X-90498D01*
Y62150D02*
Y68450D01*
X-102702Y62150D02*
Y68450D01*
X-101318Y95435D02*
Y99765D01*
X-91082Y95435D02*
Y99765D01*
X-101318D02*
X-91082D01*
X-101318Y95435D02*
X-91082D01*
X-101318Y101535D02*
Y105865D01*
X-91082Y101535D02*
Y105865D01*
X-101318D02*
X-91082D01*
X-101318Y101535D02*
X-91082D01*
X-102702Y42550D02*
X-90498D01*
X-102702Y48850D02*
X-90498D01*
Y42550D02*
Y48850D01*
X-102702Y42550D02*
Y48850D01*
X4350Y64244D02*
X10650D01*
X4350Y52039D02*
X10650D01*
Y64244D01*
X4350Y52039D02*
Y64244D01*
X-24768Y50760D02*
Y58240D01*
X-8232Y50760D02*
Y58240D01*
X-24768D02*
X-8232D01*
X-24768Y50760D02*
X-8232D01*
X-8398Y43350D02*
Y49650D01*
X-20602Y43350D02*
Y49650D01*
Y43350D02*
X-8398D01*
X-20602Y49650D02*
X-8398D01*
X-8539Y80850D02*
Y87150D01*
X-20744Y80850D02*
Y87150D01*
Y80850D02*
X-8539D01*
X-20744Y87150D02*
X-8539D01*
X-8398Y35850D02*
Y42150D01*
X-20602Y35850D02*
Y42150D01*
Y35850D02*
X-8398D01*
X-20602Y42150D02*
X-8398D01*
Y88350D02*
Y94650D01*
X-20602Y88350D02*
Y94650D01*
Y88350D02*
X-8398D01*
X-20602Y94650D02*
X-8398D01*
X4350Y89398D02*
X10650D01*
X4350Y101602D02*
X10650D01*
X4350Y89398D02*
Y101602D01*
X10650Y89398D02*
Y101602D01*
X-102702Y87450D02*
Y93750D01*
X-90498Y87450D02*
Y93750D01*
X-102702D02*
X-90498D01*
X-102702Y87450D02*
X-90498D01*
X-102702Y107350D02*
Y113650D01*
X-90498Y107350D02*
Y113650D01*
X-102702D02*
X-90498D01*
X-102702Y107350D02*
X-90498D01*
X-77898Y74050D02*
Y80350D01*
X-90102Y74050D02*
Y80350D01*
Y74050D02*
X-77898D01*
X-90102Y80350D02*
X-77898D01*
M02*
