G04*
G04 #@! TF.GenerationSoftware,Altium Limited,Altium Designer,20.1.11 (218)*
G04*
G04 Layer_Physical_Order=1*
G04 Layer_Color=255*
%FSLAX25Y25*%
%MOIN*%
G70*
G04*
G04 #@! TF.SameCoordinates,2A16CBDB-C64F-4E12-ACEB-A9EF2D748E26*
G04*
G04*
G04 #@! TF.FilePolarity,Positive*
G04*
G01*
G75*
%ADD14C,0.00700*%
%ADD36R,0.05512X0.04331*%
%ADD37R,0.04331X0.05512*%
%ADD38R,0.07480X0.09449*%
%ADD39R,0.03740X0.06890*%
%ADD40R,0.12598X0.06890*%
%ADD41R,0.01181X0.05512*%
%ADD42R,0.06004X0.02559*%
%ADD43R,0.01181X0.04724*%
%ADD44R,0.04724X0.01181*%
%ADD45R,0.05906X0.07874*%
%ADD46R,0.01772X0.03543*%
%ADD47R,0.03543X0.02756*%
%ADD48R,0.02756X0.03543*%
%ADD49R,0.07087X0.13386*%
%ADD50C,0.01500*%
%ADD51C,0.02000*%
%ADD52C,0.11200*%
%ADD53C,0.08900*%
%ADD54C,0.05906*%
%ADD55R,0.05906X0.05906*%
%ADD56R,0.05906X0.05906*%
%ADD57C,0.02756*%
%ADD58C,0.03937*%
G36*
X437123Y96570D02*
X436930Y96376D01*
X100876D01*
Y304123D01*
X437123D01*
Y96570D01*
D02*
G37*
%LPC*%
G36*
X146000Y292928D02*
Y290500D01*
X148428D01*
X148392Y290775D01*
X148093Y291497D01*
X147617Y292117D01*
X146997Y292593D01*
X146275Y292892D01*
X146000Y292928D01*
D02*
G37*
G36*
X145000D02*
X144725Y292892D01*
X144003Y292593D01*
X143383Y292117D01*
X142907Y291497D01*
X142608Y290775D01*
X142572Y290500D01*
X145000D01*
Y292928D01*
D02*
G37*
G36*
X148428Y289500D02*
X146000D01*
Y287072D01*
X146275Y287108D01*
X146997Y287407D01*
X147617Y287883D01*
X148093Y288503D01*
X148392Y289225D01*
X148428Y289500D01*
D02*
G37*
G36*
X145000D02*
X142572D01*
X142608Y289225D01*
X142907Y288503D01*
X143383Y287883D01*
X144003Y287407D01*
X144725Y287108D01*
X145000Y287072D01*
Y289500D01*
D02*
G37*
G36*
X246745Y286551D02*
Y283130D01*
X250166D01*
X250096Y283662D01*
X249698Y284624D01*
X249064Y285450D01*
X248238Y286083D01*
X247277Y286481D01*
X246745Y286551D01*
D02*
G37*
G36*
X233117D02*
Y283130D01*
X236538D01*
X236468Y283662D01*
X236070Y284624D01*
X235436Y285450D01*
X234611Y286083D01*
X233649Y286481D01*
X233117Y286551D01*
D02*
G37*
G36*
X219774D02*
Y283130D01*
X223195D01*
X223125Y283662D01*
X222726Y284624D01*
X222093Y285450D01*
X221267Y286083D01*
X220305Y286481D01*
X219774Y286551D01*
D02*
G37*
G36*
X206000D02*
Y283130D01*
X209421D01*
X209351Y283662D01*
X208953Y284624D01*
X208319Y285450D01*
X207493Y286083D01*
X206532Y286481D01*
X206000Y286551D01*
D02*
G37*
G36*
X245745D02*
X245213Y286481D01*
X244251Y286083D01*
X243426Y285450D01*
X242792Y284624D01*
X242394Y283662D01*
X242324Y283130D01*
X245745D01*
Y286551D01*
D02*
G37*
G36*
X232117D02*
X231585Y286481D01*
X230624Y286083D01*
X229798Y285450D01*
X229165Y284624D01*
X228766Y283662D01*
X228696Y283130D01*
X232117D01*
Y286551D01*
D02*
G37*
G36*
X218774D02*
X218242Y286481D01*
X217280Y286083D01*
X216454Y285450D01*
X215821Y284624D01*
X215423Y283662D01*
X215353Y283130D01*
X218774D01*
Y286551D01*
D02*
G37*
G36*
X205000D02*
X204468Y286481D01*
X203507Y286083D01*
X202681Y285450D01*
X202047Y284624D01*
X201649Y283662D01*
X201579Y283130D01*
X205000D01*
Y286551D01*
D02*
G37*
G36*
X260000Y286421D02*
Y283000D01*
X263421D01*
X263351Y283532D01*
X262953Y284493D01*
X262319Y285319D01*
X261493Y285953D01*
X260532Y286351D01*
X260000Y286421D01*
D02*
G37*
G36*
X188000D02*
Y283000D01*
X191421D01*
X191351Y283532D01*
X190953Y284493D01*
X190319Y285319D01*
X189493Y285953D01*
X188532Y286351D01*
X188000Y286421D01*
D02*
G37*
G36*
X259000D02*
X258468Y286351D01*
X257507Y285953D01*
X256681Y285319D01*
X256047Y284493D01*
X255649Y283532D01*
X255579Y283000D01*
X259000D01*
Y286421D01*
D02*
G37*
G36*
X187000D02*
X186468Y286351D01*
X185507Y285953D01*
X184681Y285319D01*
X184047Y284493D01*
X183649Y283532D01*
X183579Y283000D01*
X187000D01*
Y286421D01*
D02*
G37*
G36*
X304500Y285921D02*
Y282500D01*
X307921D01*
X307851Y283032D01*
X307453Y283993D01*
X306819Y284819D01*
X305993Y285453D01*
X305032Y285851D01*
X304500Y285921D01*
D02*
G37*
G36*
X292000D02*
Y282500D01*
X295421D01*
X295351Y283032D01*
X294953Y283993D01*
X294319Y284819D01*
X293493Y285453D01*
X292532Y285851D01*
X292000Y285921D01*
D02*
G37*
G36*
X279500D02*
Y282500D01*
X282921D01*
X282851Y283032D01*
X282453Y283993D01*
X281819Y284819D01*
X280993Y285453D01*
X280032Y285851D01*
X279500Y285921D01*
D02*
G37*
G36*
X303500D02*
X302968Y285851D01*
X302007Y285453D01*
X301181Y284819D01*
X300547Y283993D01*
X300149Y283032D01*
X300079Y282500D01*
X303500D01*
Y285921D01*
D02*
G37*
G36*
X291000D02*
X290468Y285851D01*
X289507Y285453D01*
X288681Y284819D01*
X288047Y283993D01*
X287649Y283032D01*
X287579Y282500D01*
X291000D01*
Y285921D01*
D02*
G37*
G36*
X278500D02*
X277968Y285851D01*
X277007Y285453D01*
X276181Y284819D01*
X275547Y283993D01*
X275149Y283032D01*
X275079Y282500D01*
X278500D01*
Y285921D01*
D02*
G37*
G36*
X236538Y282130D02*
X233117D01*
Y278709D01*
X233649Y278779D01*
X234611Y279178D01*
X235436Y279811D01*
X236070Y280637D01*
X236468Y281598D01*
X236538Y282130D01*
D02*
G37*
G36*
X223195D02*
X219774D01*
Y278709D01*
X220305Y278779D01*
X221267Y279178D01*
X222093Y279811D01*
X222726Y280637D01*
X223125Y281598D01*
X223195Y282130D01*
D02*
G37*
G36*
X250166D02*
X246745D01*
Y278709D01*
X247277Y278779D01*
X248238Y279178D01*
X249064Y279811D01*
X249698Y280637D01*
X250096Y281598D01*
X250166Y282130D01*
D02*
G37*
G36*
X209421D02*
X206000D01*
Y278709D01*
X206532Y278779D01*
X207493Y279178D01*
X208319Y279811D01*
X208953Y280637D01*
X209351Y281598D01*
X209421Y282130D01*
D02*
G37*
G36*
X245745D02*
X242324D01*
X242394Y281598D01*
X242792Y280637D01*
X243426Y279811D01*
X244251Y279178D01*
X245213Y278779D01*
X245745Y278709D01*
Y282130D01*
D02*
G37*
G36*
X205000D02*
X201579D01*
X201649Y281598D01*
X202047Y280637D01*
X202681Y279811D01*
X203507Y279178D01*
X204468Y278779D01*
X205000Y278709D01*
Y282130D01*
D02*
G37*
G36*
X232117D02*
X228696D01*
X228766Y281598D01*
X229165Y280637D01*
X229798Y279811D01*
X230624Y279178D01*
X231585Y278779D01*
X232117Y278709D01*
Y282130D01*
D02*
G37*
G36*
X218774D02*
X215353D01*
X215423Y281598D01*
X215821Y280637D01*
X216454Y279811D01*
X217280Y279178D01*
X218242Y278779D01*
X218774Y278709D01*
Y282130D01*
D02*
G37*
G36*
X263421Y282000D02*
X260000D01*
Y278579D01*
X260532Y278649D01*
X261493Y279047D01*
X262319Y279681D01*
X262953Y280507D01*
X263351Y281468D01*
X263421Y282000D01*
D02*
G37*
G36*
X191421D02*
X188000D01*
Y278579D01*
X188532Y278649D01*
X189493Y279047D01*
X190319Y279681D01*
X190953Y280507D01*
X191351Y281468D01*
X191421Y282000D01*
D02*
G37*
G36*
X187000D02*
X183579D01*
X183649Y281468D01*
X184047Y280507D01*
X184681Y279681D01*
X185507Y279047D01*
X186468Y278649D01*
X187000Y278579D01*
Y282000D01*
D02*
G37*
G36*
X259000D02*
X255579D01*
X255649Y281468D01*
X256047Y280507D01*
X256681Y279681D01*
X257507Y279047D01*
X258468Y278649D01*
X259000Y278579D01*
Y282000D01*
D02*
G37*
G36*
X307921Y281500D02*
X304500D01*
Y278079D01*
X305032Y278149D01*
X305993Y278547D01*
X306819Y279181D01*
X307453Y280007D01*
X307851Y280968D01*
X307921Y281500D01*
D02*
G37*
G36*
X295421D02*
X292000D01*
Y278079D01*
X292532Y278149D01*
X293493Y278547D01*
X294319Y279181D01*
X294953Y280007D01*
X295351Y280968D01*
X295421Y281500D01*
D02*
G37*
G36*
X282921D02*
X279500D01*
Y278079D01*
X280032Y278149D01*
X280993Y278547D01*
X281819Y279181D01*
X282453Y280007D01*
X282851Y280968D01*
X282921Y281500D01*
D02*
G37*
G36*
X303500D02*
X300079D01*
X300149Y280968D01*
X300547Y280007D01*
X301181Y279181D01*
X302007Y278547D01*
X302968Y278149D01*
X303500Y278079D01*
Y281500D01*
D02*
G37*
G36*
X291000D02*
X287579D01*
X287649Y280968D01*
X288047Y280007D01*
X288681Y279181D01*
X289507Y278547D01*
X290468Y278149D01*
X291000Y278079D01*
Y281500D01*
D02*
G37*
G36*
X278500D02*
X275079D01*
X275149Y280968D01*
X275547Y280007D01*
X276181Y279181D01*
X277007Y278547D01*
X277968Y278149D01*
X278500Y278079D01*
Y281500D01*
D02*
G37*
G36*
X320500Y291877D02*
X319973Y291772D01*
X319527Y291473D01*
X311527Y283473D01*
X311228Y283027D01*
X311123Y282500D01*
Y274070D01*
X310430Y273376D01*
X307953D01*
Y275953D01*
X300047D01*
Y268047D01*
X302216D01*
Y266239D01*
X295515Y259538D01*
X286754D01*
X286563Y260000D01*
X291762Y265199D01*
X292148Y265778D01*
X292284Y266461D01*
X292284Y266461D01*
Y268047D01*
X295453D01*
Y275953D01*
X287547D01*
Y268047D01*
X288716D01*
Y267200D01*
X281284Y259768D01*
X280784Y259975D01*
Y268047D01*
X282953D01*
Y275953D01*
X275047D01*
Y268047D01*
X277216D01*
Y259504D01*
X274457D01*
Y253595D01*
X271311D01*
X270628Y253460D01*
X270049Y253073D01*
X270049Y253073D01*
X260261Y243284D01*
X247784D01*
Y249457D01*
X248870D01*
Y258347D01*
X243130D01*
Y249457D01*
X244216D01*
Y241500D01*
Y233543D01*
X238701D01*
Y224654D01*
X244623D01*
Y220070D01*
X239930Y215376D01*
X198000D01*
X198000Y215376D01*
X197473Y215272D01*
X197027Y214973D01*
X195027Y212973D01*
X194728Y212527D01*
X194624Y212000D01*
Y211256D01*
X192835D01*
Y203744D01*
X195124D01*
Y202070D01*
X194430Y201376D01*
X192325D01*
Y202279D01*
X184321D01*
Y198310D01*
X184272Y197831D01*
X183938Y197831D01*
X178728D01*
Y196876D01*
X173570D01*
X172927Y197519D01*
X173009Y197626D01*
X173558Y198951D01*
X173745Y200374D01*
X173558Y201797D01*
X173009Y203122D01*
X172135Y204261D01*
X170997Y205135D01*
X169671Y205684D01*
X168248Y205871D01*
X166825Y205684D01*
X165499Y205135D01*
X164361Y204261D01*
X163488Y203122D01*
X162938Y201797D01*
X162751Y200374D01*
X162938Y198951D01*
X163488Y197626D01*
X164361Y196487D01*
X165499Y195613D01*
X166825Y195064D01*
X168248Y194877D01*
X169671Y195064D01*
X170957Y195597D01*
X172027Y194527D01*
X172473Y194228D01*
X173000Y194124D01*
X178728D01*
Y193075D01*
X184272D01*
X184321Y192720D01*
Y192405D01*
X183969Y191925D01*
X178728D01*
Y190924D01*
X173169D01*
X172643Y190819D01*
X172196Y190521D01*
X171034Y189358D01*
X170996Y189387D01*
X169671Y189936D01*
X168248Y190123D01*
X166825Y189936D01*
X165499Y189387D01*
X164361Y188513D01*
X163488Y187374D01*
X162938Y186049D01*
X162751Y184626D01*
X162938Y183203D01*
X163488Y181878D01*
X164361Y180739D01*
X165499Y179865D01*
X166825Y179316D01*
X168248Y179129D01*
X169671Y179316D01*
X170996Y179865D01*
X172135Y180739D01*
X173009Y181878D01*
X173558Y183203D01*
X173745Y184626D01*
X173558Y186049D01*
X173009Y187374D01*
X172980Y187411D01*
X173739Y188171D01*
X178728D01*
Y187169D01*
X183821D01*
X184272Y187169D01*
X184321Y186690D01*
Y185500D01*
X188323D01*
X192325D01*
Y187221D01*
X192325Y187279D01*
Y187721D01*
X192325Y187779D01*
Y192220D01*
X192325Y192280D01*
Y192720D01*
X192325Y192780D01*
Y197221D01*
X192325Y197280D01*
Y197721D01*
X192325Y197780D01*
Y198624D01*
X195000D01*
X195527Y198728D01*
X195973Y199027D01*
X197473Y200527D01*
X197772Y200973D01*
X197876Y201500D01*
Y203744D01*
X201406D01*
Y207500D01*
Y211256D01*
X197910D01*
X197703Y211756D01*
X198570Y212624D01*
X206194D01*
X206430Y212183D01*
X206260Y211928D01*
X206175Y211500D01*
X210825D01*
X210740Y211928D01*
X210570Y212183D01*
X210806Y212624D01*
X240500D01*
X241027Y212728D01*
X241473Y213027D01*
X246973Y218527D01*
X246973Y218527D01*
X247272Y218973D01*
X247376Y219500D01*
Y224654D01*
X253299D01*
Y226984D01*
X253799Y227177D01*
X270053Y210924D01*
X269734Y210535D01*
X269428Y210740D01*
X268500Y210925D01*
X267572Y210740D01*
X267497Y210690D01*
X267081Y210968D01*
X267128Y211204D01*
X266944Y212132D01*
X266418Y212918D01*
X265632Y213444D01*
X264704Y213628D01*
X263843Y213457D01*
X263648Y213481D01*
X263300Y213626D01*
X263240Y213928D01*
X262714Y214714D01*
X261928Y215240D01*
X261000Y215424D01*
X260072Y215240D01*
X259286Y214714D01*
X258760Y213928D01*
X258576Y213000D01*
X258758Y212081D01*
X258709Y212007D01*
X258604Y211481D01*
Y205000D01*
X251465D01*
X251382Y205416D01*
X251083Y205863D01*
X247673Y209273D01*
X247227Y209572D01*
X246700Y209677D01*
X218820D01*
X218820Y209677D01*
X218293Y209572D01*
X217847Y209273D01*
X211356Y202782D01*
X211057Y202336D01*
X211046Y202279D01*
X205675D01*
Y197721D01*
X205675D01*
Y197280D01*
X205675D01*
Y196072D01*
X205527Y195973D01*
X205527Y195973D01*
X200027Y190473D01*
X192787Y183233D01*
X192325Y183425D01*
Y184500D01*
X188823D01*
Y182720D01*
X191621D01*
X191812Y182258D01*
X191430Y181876D01*
X185500D01*
X184973Y181772D01*
X184527Y181473D01*
X182769Y179716D01*
X182381Y180034D01*
X182740Y180572D01*
X182825Y181000D01*
X181000D01*
Y179175D01*
X181428Y179260D01*
X181966Y179619D01*
X182284Y179231D01*
X178930Y175876D01*
X165070D01*
X154188Y186759D01*
X154305Y187349D01*
X155248Y187739D01*
X156387Y188613D01*
X157261Y189752D01*
X157810Y191077D01*
X157997Y192500D01*
X157810Y193923D01*
X157703Y194180D01*
X161262Y197738D01*
X161648Y198317D01*
X161784Y199000D01*
X161784Y199000D01*
Y207135D01*
X165861Y211212D01*
X166825Y210812D01*
X168248Y210625D01*
X169671Y210812D01*
X170996Y211362D01*
X172135Y212235D01*
X173009Y213373D01*
X173558Y214699D01*
X173745Y216122D01*
X173558Y217545D01*
X173158Y218509D01*
X204676Y250027D01*
X207457D01*
Y244118D01*
X216543D01*
Y250027D01*
X234075D01*
Y249457D01*
X239815D01*
Y258347D01*
X238729D01*
Y261546D01*
X254330D01*
X255013Y261682D01*
X255592Y262069D01*
X260762Y267238D01*
X261149Y267817D01*
X261284Y268500D01*
Y268547D01*
X263453D01*
Y276453D01*
X255547D01*
Y268547D01*
X256371D01*
X256562Y268085D01*
X253591Y265115D01*
X248284D01*
Y268678D01*
X250198D01*
Y276583D01*
X242292D01*
Y268678D01*
X244716D01*
Y265239D01*
X244591Y265115D01*
X236945D01*
X236498Y265026D01*
X234284Y267239D01*
Y268678D01*
X236570D01*
Y276583D01*
X228664D01*
Y268678D01*
X230716D01*
Y266500D01*
X230852Y265817D01*
X231238Y265238D01*
X235161Y261316D01*
Y258347D01*
X234075D01*
Y253595D01*
X216543D01*
Y256981D01*
X219136Y259573D01*
X219383Y259738D01*
X220262Y260617D01*
X220649Y261196D01*
X220784Y261879D01*
Y268678D01*
X223226D01*
Y276583D01*
X215321D01*
Y268678D01*
X217216D01*
Y262618D01*
X217025Y262427D01*
X216778Y262262D01*
X214020Y259504D01*
X209980D01*
X207284Y262200D01*
Y268678D01*
X209453D01*
Y276583D01*
X201547D01*
Y268678D01*
X203716D01*
Y261461D01*
X203852Y260778D01*
X204238Y260199D01*
X207457Y256981D01*
Y253595D01*
X203937D01*
X203937Y253595D01*
X203254Y253460D01*
X202675Y253073D01*
X202675Y253073D01*
X170635Y221032D01*
X169671Y221432D01*
X168248Y221619D01*
X166825Y221432D01*
X165499Y220883D01*
X164361Y220009D01*
X163488Y218871D01*
X162938Y217545D01*
X162751Y216122D01*
X162938Y214699D01*
X163338Y213735D01*
X158738Y209136D01*
X158443Y208693D01*
X157926Y208786D01*
X157810Y209671D01*
X157261Y210997D01*
X156387Y212135D01*
X155248Y213009D01*
X153923Y213558D01*
X152500Y213745D01*
X151077Y213558D01*
X150368Y213264D01*
X150011Y213621D01*
X150202Y214083D01*
X150622D01*
X151402Y214238D01*
X152064Y214680D01*
X188442Y251058D01*
X188884Y251720D01*
X189039Y252500D01*
Y268547D01*
X191453D01*
Y276453D01*
X183547D01*
Y268547D01*
X184961D01*
Y253345D01*
X149777Y218161D01*
X141806D01*
X141513Y218871D01*
X140639Y220009D01*
X139500Y220883D01*
X138175Y221432D01*
X136752Y221619D01*
X135329Y221432D01*
X134003Y220883D01*
X132865Y220009D01*
X131991Y218871D01*
X131442Y217545D01*
X131255Y216122D01*
X131442Y214699D01*
X131991Y213373D01*
X132865Y212235D01*
X134003Y211362D01*
X135329Y210812D01*
X136752Y210625D01*
X138175Y210812D01*
X139500Y211362D01*
X140639Y212235D01*
X141513Y213373D01*
X141806Y214083D01*
X143781D01*
X147484Y210380D01*
X147190Y209671D01*
X147003Y208248D01*
X147190Y206825D01*
X147739Y205500D01*
X148613Y204361D01*
X149751Y203487D01*
X151077Y202938D01*
X152500Y202751D01*
X153923Y202938D01*
X155248Y203487D01*
X156387Y204361D01*
X157261Y205500D01*
X157716Y206598D01*
X158216Y206499D01*
Y199739D01*
X155525Y197048D01*
X155248Y197261D01*
X153923Y197810D01*
X152500Y197997D01*
X151077Y197810D01*
X149751Y197261D01*
X148613Y196387D01*
X147739Y195248D01*
X147190Y193923D01*
X147003Y192500D01*
X147190Y191077D01*
X147739Y189752D01*
X148613Y188613D01*
X149751Y187739D01*
X151077Y187190D01*
X151124Y187184D01*
Y186500D01*
X151228Y185973D01*
X151527Y185527D01*
X163527Y173527D01*
X163973Y173228D01*
X164500Y173124D01*
X179500D01*
X180027Y173228D01*
X180473Y173527D01*
X186070Y179124D01*
X191429D01*
Y176500D01*
X194595D01*
Y176000D01*
X195095D01*
Y172244D01*
X203665D01*
Y179756D01*
X202376D01*
Y188930D01*
X205213Y191767D01*
X205675Y191575D01*
Y190500D01*
X209677D01*
Y189500D01*
X205675D01*
Y187721D01*
X205675D01*
Y187279D01*
X205675D01*
Y182720D01*
X213679D01*
Y184270D01*
X214063Y184527D01*
X215002Y185466D01*
X215301Y185913D01*
X215406Y186439D01*
Y187244D01*
X217047D01*
Y191000D01*
X218047D01*
Y187244D01*
X226618D01*
Y189623D01*
X227000D01*
X227527Y189728D01*
X227973Y190027D01*
X229073Y191127D01*
X229372Y191573D01*
X229476Y192100D01*
Y194030D01*
X230500Y195053D01*
X231000Y194846D01*
Y192173D01*
Y188236D01*
Y184299D01*
Y179392D01*
X221746D01*
X221219Y179287D01*
X220772Y178989D01*
X197027Y155243D01*
X196728Y154797D01*
X196624Y154270D01*
Y112453D01*
X194047D01*
Y104547D01*
X201953D01*
Y112453D01*
X199376D01*
Y153700D01*
X206162Y160485D01*
X206624Y160294D01*
Y112208D01*
X206007Y111953D01*
X205181Y111319D01*
X204547Y110493D01*
X204149Y109532D01*
X204013Y108500D01*
X204149Y107468D01*
X204547Y106507D01*
X205181Y105681D01*
X206007Y105047D01*
X206968Y104649D01*
X208000Y104513D01*
X209032Y104649D01*
X209993Y105047D01*
X210819Y105681D01*
X211453Y106507D01*
X211851Y107468D01*
X211987Y108500D01*
X211851Y109532D01*
X211453Y110493D01*
X210819Y111319D01*
X209993Y111953D01*
X209377Y112208D01*
Y161720D01*
X216162Y168505D01*
X216623Y168314D01*
Y112208D01*
X216007Y111953D01*
X215181Y111319D01*
X214547Y110493D01*
X214149Y109532D01*
X214013Y108500D01*
X214149Y107468D01*
X214547Y106507D01*
X215181Y105681D01*
X216007Y105047D01*
X216968Y104649D01*
X218000Y104513D01*
X219032Y104649D01*
X219993Y105047D01*
X220819Y105681D01*
X221453Y106507D01*
X221851Y107468D01*
X221987Y108500D01*
X221851Y109532D01*
X221453Y110493D01*
X220819Y111319D01*
X219993Y111953D01*
X219376Y112208D01*
Y166194D01*
X219817Y166430D01*
X220072Y166260D01*
X220500Y166175D01*
Y168500D01*
X221500D01*
Y166175D01*
X221744Y166224D01*
X222244Y165916D01*
Y161382D01*
X229756D01*
Y162860D01*
X231000D01*
Y162646D01*
X237724D01*
Y162860D01*
X261194D01*
X263867Y160186D01*
X263676Y159724D01*
X240646D01*
Y153000D01*
X244769D01*
Y151715D01*
X243430Y150376D01*
X232500D01*
X231973Y150272D01*
X231527Y149973D01*
X229027Y147473D01*
X228728Y147027D01*
X228624Y146500D01*
Y145331D01*
X227228D01*
Y140575D01*
X232772D01*
Y145331D01*
X231377D01*
Y145930D01*
X233070Y147624D01*
X244000D01*
X244527Y147728D01*
X244973Y148027D01*
X246716Y149770D01*
X247354Y149700D01*
X249027Y148027D01*
X249473Y147728D01*
X250000Y147624D01*
X254430D01*
X255624Y146430D01*
Y143224D01*
X252260D01*
Y133722D01*
X251527Y132989D01*
X251228Y132543D01*
X251123Y132016D01*
Y126665D01*
X248744D01*
Y126618D01*
X246376D01*
Y132374D01*
X246272Y132901D01*
X245973Y133347D01*
X245973Y133347D01*
X245598Y133722D01*
Y143224D01*
X236118D01*
Y138424D01*
X232772D01*
Y139425D01*
X227228D01*
Y134669D01*
X232772D01*
Y135671D01*
X236118D01*
Y131776D01*
X243623D01*
Y126618D01*
X241244D01*
Y120287D01*
Y118047D01*
X245000D01*
Y117547D01*
X245500D01*
Y114382D01*
X248756D01*
Y114429D01*
X252000D01*
Y117595D01*
X252500D01*
Y118095D01*
X256256D01*
Y120335D01*
Y126665D01*
X253876D01*
Y131446D01*
X254206Y131776D01*
X261740D01*
Y143224D01*
X258377D01*
Y147000D01*
X258377Y147000D01*
X258352Y147124D01*
X258762Y147624D01*
X264430D01*
X268027Y144027D01*
X268027Y144027D01*
X268473Y143728D01*
X269000Y143624D01*
X269047D01*
Y138705D01*
X276953D01*
Y140124D01*
X285518D01*
X285974Y140017D01*
Y132505D01*
X294544D01*
Y136261D01*
X295044D01*
Y136761D01*
X298210D01*
Y140017D01*
X296831D01*
Y144744D01*
X298071D01*
Y148000D01*
X294905D01*
Y149000D01*
X298071D01*
Y152256D01*
X298024D01*
Y155000D01*
X294858D01*
Y156000D01*
X298024D01*
Y158229D01*
X299066D01*
X299592Y158334D01*
X300039Y158633D01*
X323030Y181624D01*
X326231D01*
Y174957D01*
X327678D01*
Y170272D01*
X327669D01*
Y168811D01*
X327473Y168772D01*
X327027Y168473D01*
X319227Y160673D01*
X318928Y160227D01*
X318824Y159700D01*
Y129300D01*
X318928Y128773D01*
X319227Y128327D01*
X329624Y117930D01*
Y104000D01*
X329728Y103473D01*
X330027Y103027D01*
X331527Y101527D01*
X331973Y101228D01*
X332500Y101124D01*
X345500D01*
X346027Y101228D01*
X346473Y101527D01*
X348405Y103458D01*
X348703Y103905D01*
X348808Y104431D01*
X348808Y104431D01*
Y104792D01*
X349425Y105047D01*
X350251Y105681D01*
X350884Y106507D01*
X351283Y107468D01*
X351418Y108500D01*
X351283Y109532D01*
X350884Y110493D01*
X350251Y111319D01*
X349425Y111953D01*
X348463Y112351D01*
X347431Y112487D01*
X346400Y112351D01*
X345438Y111953D01*
X344612Y111319D01*
X343979Y110493D01*
X343580Y109532D01*
X343445Y108500D01*
X343580Y107468D01*
X343979Y106507D01*
X344612Y105681D01*
X345413Y105067D01*
X345503Y104964D01*
X345588Y104535D01*
X344930Y103876D01*
X333070D01*
X332377Y104570D01*
Y116524D01*
X332838Y116715D01*
X336055Y113498D01*
Y112453D01*
X333479D01*
Y104547D01*
X341384D01*
Y112453D01*
X338808D01*
Y114068D01*
X338808Y114069D01*
X338703Y114595D01*
X338405Y115042D01*
X331785Y121662D01*
X331976Y122124D01*
X343930D01*
X355547Y110506D01*
Y104547D01*
X363453D01*
Y111893D01*
X363953Y112101D01*
X365905Y110149D01*
X365649Y109532D01*
X365513Y108500D01*
X365649Y107468D01*
X366047Y106507D01*
X366681Y105681D01*
X367507Y105047D01*
X368468Y104649D01*
X369500Y104513D01*
X370532Y104649D01*
X371493Y105047D01*
X372319Y105681D01*
X372953Y106507D01*
X373351Y107468D01*
X373487Y108500D01*
X373351Y109532D01*
X372953Y110493D01*
X372319Y111319D01*
X371493Y111953D01*
X370532Y112351D01*
X369500Y112487D01*
X368468Y112351D01*
X367851Y112095D01*
X364473Y115473D01*
X364027Y115772D01*
X363500Y115876D01*
X356050D01*
X346053Y125873D01*
X345607Y126172D01*
X345080Y126276D01*
X331170D01*
X326347Y131100D01*
X326538Y131562D01*
X336240D01*
X336373Y131535D01*
X336373Y131535D01*
X336393D01*
X336902Y131027D01*
X337348Y130728D01*
X337875Y130623D01*
X337875Y130624D01*
X361500D01*
X362027Y130728D01*
X362473Y131027D01*
X363000Y131553D01*
X367027Y127527D01*
X367473Y127228D01*
X368000Y127123D01*
X368000Y127124D01*
X378000D01*
X378527Y127228D01*
X378973Y127527D01*
X381973Y130527D01*
X382272Y130973D01*
X382377Y131500D01*
Y138500D01*
X382333Y138721D01*
X382698Y139220D01*
X386733D01*
X393192Y132761D01*
X393639Y132463D01*
X394165Y132358D01*
X409935D01*
Y129978D01*
X422171D01*
Y137490D01*
X420577D01*
Y143124D01*
X422430D01*
X422924Y142630D01*
Y122370D01*
X418930Y118376D01*
X396000D01*
X395473Y118272D01*
X395027Y117973D01*
X390527Y113473D01*
X390228Y113027D01*
X390124Y112500D01*
Y112208D01*
X389507Y111953D01*
X388681Y111319D01*
X388047Y110493D01*
X387649Y109532D01*
X387513Y108500D01*
X387649Y107468D01*
X388047Y106507D01*
X388681Y105681D01*
X389507Y105047D01*
X390468Y104649D01*
X391500Y104513D01*
X392532Y104649D01*
X393493Y105047D01*
X394319Y105681D01*
X394953Y106507D01*
X395351Y107468D01*
X395487Y108500D01*
X395351Y109532D01*
X394953Y110493D01*
X394319Y111319D01*
X393557Y111904D01*
X393446Y112172D01*
X393391Y112445D01*
X395936Y114990D01*
X396325Y114671D01*
X396228Y114527D01*
X396124Y114000D01*
Y104070D01*
X395930Y103876D01*
X383806D01*
X383678Y104047D01*
X383927Y104547D01*
X385453D01*
Y112453D01*
X377547D01*
Y104547D01*
X380123D01*
Y104000D01*
X380228Y103473D01*
X380527Y103027D01*
X382027Y101527D01*
X382473Y101228D01*
X383000Y101124D01*
X396500D01*
X397027Y101228D01*
X397473Y101527D01*
X398473Y102527D01*
X398473Y102527D01*
X398772Y102973D01*
X398877Y103500D01*
Y113430D01*
X399570Y114124D01*
X406524D01*
X406715Y113662D01*
X405506Y112453D01*
X399547D01*
Y104547D01*
X407453D01*
Y110506D01*
X409570Y112624D01*
X411820D01*
X411919Y112124D01*
X411507Y111953D01*
X410681Y111319D01*
X410047Y110493D01*
X409649Y109532D01*
X409513Y108500D01*
X409649Y107468D01*
X410047Y106507D01*
X410681Y105681D01*
X411507Y105047D01*
X412468Y104649D01*
X413500Y104513D01*
X414532Y104649D01*
X415493Y105047D01*
X416319Y105681D01*
X416953Y106507D01*
X417351Y107468D01*
X417372Y107626D01*
X417503D01*
X418029Y107731D01*
X418476Y108029D01*
X429473Y119027D01*
X429473Y119027D01*
X429772Y119473D01*
X429877Y120000D01*
X429877Y120000D01*
Y159500D01*
X429877Y159500D01*
X429772Y160027D01*
X429473Y160473D01*
X421973Y167973D01*
X421527Y168272D01*
X421000Y168376D01*
X420383D01*
Y170087D01*
X420365D01*
Y174463D01*
X421975D01*
Y181974D01*
X409739D01*
Y181376D01*
X394900D01*
X394900Y181377D01*
X394373Y181272D01*
X393926Y180973D01*
X393926Y180973D01*
X386733Y173779D01*
X380675D01*
Y172876D01*
X380070D01*
X364773Y188173D01*
X364327Y188472D01*
X363800Y188576D01*
X320720D01*
X320193Y188472D01*
X319747Y188173D01*
X305950Y174376D01*
X304530D01*
X304323Y174876D01*
X311473Y182027D01*
X311772Y182473D01*
X311877Y183000D01*
X311877Y183000D01*
Y208430D01*
X328070Y224623D01*
X335020D01*
X335596Y224048D01*
Y223417D01*
X331472D01*
Y217852D01*
X327027Y213406D01*
X326728Y212960D01*
X326624Y212433D01*
Y209940D01*
X326286Y209714D01*
X325760Y208928D01*
X325575Y208000D01*
X325760Y207072D01*
X326062Y206621D01*
X325794Y206121D01*
X324076D01*
X323095Y207101D01*
X323175Y207500D01*
X322990Y208428D01*
X322464Y209214D01*
X321678Y209740D01*
X320750Y209925D01*
X319822Y209740D01*
X319036Y209214D01*
X318510Y208428D01*
X318325Y207500D01*
X318510Y206572D01*
X319036Y205786D01*
X319822Y205260D01*
X320750Y205076D01*
X321149Y205155D01*
X322532Y203771D01*
X322979Y203473D01*
X323505Y203368D01*
X331472D01*
Y198583D01*
X336622D01*
Y202339D01*
X337378D01*
Y198583D01*
X342528D01*
Y200624D01*
X344560D01*
X344786Y200286D01*
X345572Y199760D01*
X346500Y199575D01*
X347428Y199760D01*
X348214Y200286D01*
X348740Y201072D01*
X348924Y202000D01*
X348740Y202928D01*
X348214Y203714D01*
X347428Y204240D01*
X346500Y204425D01*
X345572Y204240D01*
X344786Y203714D01*
X344560Y203376D01*
X342528D01*
Y206095D01*
X343016Y206123D01*
X354047D01*
Y203000D01*
X361953D01*
Y206123D01*
X365408D01*
X365578Y205624D01*
X365181Y205319D01*
X364547Y204493D01*
X364149Y203532D01*
X364079Y203000D01*
X371921D01*
X371851Y203532D01*
X371453Y204493D01*
X370819Y205319D01*
X370422Y205624D01*
X370592Y206123D01*
X373000D01*
X373527Y206228D01*
X373973Y206527D01*
X376351Y208905D01*
X376968Y208649D01*
X378000Y208513D01*
X379032Y208649D01*
X379993Y209047D01*
X380819Y209681D01*
X381453Y210507D01*
X381851Y211468D01*
X381987Y212500D01*
X381851Y213532D01*
X381453Y214493D01*
X380819Y215319D01*
X379993Y215953D01*
X379032Y216351D01*
X378855Y216374D01*
X378380Y216496D01*
X378276Y217023D01*
X377977Y217469D01*
X377977Y217469D01*
X377010Y218436D01*
X377294Y218848D01*
X377473Y218728D01*
X378000Y218623D01*
X383930D01*
X386108Y216445D01*
X386054Y216172D01*
X385943Y215904D01*
X385181Y215319D01*
X384547Y214493D01*
X384149Y213532D01*
X384013Y212500D01*
X384149Y211468D01*
X384547Y210507D01*
X385181Y209681D01*
X386007Y209047D01*
X386968Y208649D01*
X388000Y208513D01*
X389032Y208649D01*
X389993Y209047D01*
X390819Y209681D01*
X391453Y210507D01*
X391851Y211468D01*
X391987Y212500D01*
X391851Y213532D01*
X391453Y214493D01*
X390819Y215319D01*
X389993Y215953D01*
X389376Y216208D01*
Y216500D01*
X389376Y216500D01*
X389272Y217027D01*
X388973Y217473D01*
X385473Y220973D01*
X385027Y221272D01*
X384500Y221376D01*
X378570D01*
X377601Y222346D01*
Y223382D01*
X378110D01*
Y224777D01*
X378153D01*
X378680Y224882D01*
X379127Y225180D01*
X382473Y228527D01*
X382772Y228973D01*
X382876Y229500D01*
Y237500D01*
X382772Y238027D01*
X382473Y238473D01*
X380973Y239973D01*
X380527Y240272D01*
X380000Y240376D01*
X362500D01*
X361973Y240272D01*
X361527Y239973D01*
X357430Y235876D01*
X352306D01*
X352070Y236317D01*
X352240Y236572D01*
X352425Y237500D01*
X352345Y237899D01*
X369473Y255027D01*
X369772Y255473D01*
X369877Y256000D01*
Y283500D01*
X369772Y284027D01*
X369473Y284473D01*
X369473Y284473D01*
X362473Y291473D01*
X362027Y291772D01*
X361500Y291877D01*
X320500D01*
X320500Y291877D01*
D02*
G37*
G36*
X397500Y269928D02*
Y267500D01*
X399928D01*
X399892Y267775D01*
X399593Y268497D01*
X399117Y269117D01*
X398497Y269593D01*
X397775Y269892D01*
X397500Y269928D01*
D02*
G37*
G36*
X396500D02*
X396225Y269892D01*
X395503Y269593D01*
X394883Y269117D01*
X394407Y268497D01*
X394108Y267775D01*
X394072Y267500D01*
X396500D01*
Y269928D01*
D02*
G37*
G36*
X399928Y266500D02*
X397500D01*
Y264072D01*
X397775Y264108D01*
X398497Y264407D01*
X399117Y264883D01*
X399593Y265503D01*
X399892Y266225D01*
X399928Y266500D01*
D02*
G37*
G36*
X396500D02*
X394072D01*
X394108Y266225D01*
X394407Y265503D01*
X394883Y264883D01*
X395503Y264407D01*
X396225Y264108D01*
X396500Y264072D01*
Y266500D01*
D02*
G37*
G36*
X257925Y258347D02*
X255555D01*
Y254402D01*
X257925D01*
Y258347D01*
D02*
G37*
G36*
X254555D02*
X252185D01*
Y254402D01*
X254555D01*
Y258347D01*
D02*
G37*
G36*
X257925Y253402D02*
X255555D01*
Y249457D01*
X257925D01*
Y253402D01*
D02*
G37*
G36*
X254555D02*
X252185D01*
Y249457D01*
X254555D01*
Y253402D01*
D02*
G37*
G36*
X150531Y248344D02*
X149238Y248217D01*
X147994Y247840D01*
X146847Y247227D01*
X145842Y246402D01*
X145017Y245397D01*
X144404Y244250D01*
X144027Y243006D01*
X143900Y241713D01*
X144027Y240419D01*
X144404Y239175D01*
X145017Y238028D01*
X145842Y237023D01*
X146847Y236198D01*
X147994Y235585D01*
X149238Y235208D01*
X150531Y235081D01*
X151825Y235208D01*
X153069Y235585D01*
X154216Y236198D01*
X155221Y237023D01*
X156046Y238028D01*
X156659Y239175D01*
X157036Y240419D01*
X157163Y241713D01*
X157036Y243006D01*
X156659Y244250D01*
X156046Y245397D01*
X155221Y246402D01*
X154216Y247227D01*
X153069Y247840D01*
X151825Y248217D01*
X150531Y248344D01*
D02*
G37*
G36*
X216543Y235882D02*
X212500D01*
Y228689D01*
X216543D01*
Y235882D01*
D02*
G37*
G36*
X211500D02*
X207457D01*
Y228689D01*
X211500D01*
Y235882D01*
D02*
G37*
G36*
X195500Y226428D02*
Y224000D01*
X197928D01*
X197892Y224275D01*
X197593Y224997D01*
X197117Y225617D01*
X196497Y226093D01*
X195775Y226392D01*
X195500Y226428D01*
D02*
G37*
G36*
X194500D02*
X194225Y226392D01*
X193503Y226093D01*
X192883Y225617D01*
X192407Y224997D01*
X192108Y224275D01*
X192072Y224000D01*
X194500D01*
Y226428D01*
D02*
G37*
G36*
X403000Y225928D02*
Y223500D01*
X405428D01*
X405392Y223775D01*
X405093Y224497D01*
X404617Y225117D01*
X403997Y225593D01*
X403275Y225892D01*
X403000Y225928D01*
D02*
G37*
G36*
X402000D02*
X401725Y225892D01*
X401003Y225593D01*
X400383Y225117D01*
X399907Y224497D01*
X399608Y223775D01*
X399572Y223500D01*
X402000D01*
Y225928D01*
D02*
G37*
G36*
X229000Y223928D02*
Y221500D01*
X231428D01*
X231392Y221775D01*
X231093Y222497D01*
X230617Y223117D01*
X229997Y223593D01*
X229275Y223892D01*
X229000Y223928D01*
D02*
G37*
G36*
X228000D02*
X227725Y223892D01*
X227003Y223593D01*
X226383Y223117D01*
X225907Y222497D01*
X225608Y221775D01*
X225572Y221500D01*
X228000D01*
Y223928D01*
D02*
G37*
G36*
X197928Y223000D02*
X195500D01*
Y220572D01*
X195775Y220608D01*
X196497Y220907D01*
X197117Y221383D01*
X197593Y222003D01*
X197892Y222725D01*
X197928Y223000D01*
D02*
G37*
G36*
X194500D02*
X192072D01*
X192108Y222725D01*
X192407Y222003D01*
X192883Y221383D01*
X193503Y220907D01*
X194225Y220608D01*
X194500Y220572D01*
Y223000D01*
D02*
G37*
G36*
X216543Y227689D02*
X212500D01*
Y220496D01*
X216543D01*
Y227689D01*
D02*
G37*
G36*
X211500D02*
X207457D01*
Y220496D01*
X211500D01*
Y227689D01*
D02*
G37*
G36*
X405428Y222500D02*
X403000D01*
Y220072D01*
X403275Y220108D01*
X403997Y220407D01*
X404617Y220883D01*
X405093Y221503D01*
X405392Y222225D01*
X405428Y222500D01*
D02*
G37*
G36*
X402000D02*
X399572D01*
X399608Y222225D01*
X399907Y221503D01*
X400383Y220883D01*
X401003Y220407D01*
X401725Y220108D01*
X402000Y220072D01*
Y222500D01*
D02*
G37*
G36*
X231428Y220500D02*
X229000D01*
Y218072D01*
X229275Y218108D01*
X229997Y218407D01*
X230617Y218883D01*
X231093Y219503D01*
X231392Y220225D01*
X231428Y220500D01*
D02*
G37*
G36*
X228000D02*
X225572D01*
X225608Y220225D01*
X225907Y219503D01*
X226383Y218883D01*
X227003Y218407D01*
X227725Y218108D01*
X228000Y218072D01*
Y220500D01*
D02*
G37*
G36*
X210825Y210500D02*
X209000D01*
Y208675D01*
X209428Y208760D01*
X210214Y209286D01*
X210740Y210072D01*
X210825Y210500D01*
D02*
G37*
G36*
X208000D02*
X206175D01*
X206260Y210072D01*
X206786Y209286D01*
X207572Y208760D01*
X208000Y208675D01*
Y210500D01*
D02*
G37*
G36*
X205071Y211256D02*
X202406D01*
Y208000D01*
X205071D01*
Y211256D01*
D02*
G37*
G36*
Y207000D02*
X202406D01*
Y203744D01*
X205071D01*
Y207000D01*
D02*
G37*
G36*
X388500Y206421D02*
Y203000D01*
X391921D01*
X391851Y203532D01*
X391453Y204493D01*
X390819Y205319D01*
X389993Y205953D01*
X389032Y206351D01*
X388500Y206421D01*
D02*
G37*
G36*
X387500D02*
X386968Y206351D01*
X386007Y205953D01*
X385181Y205319D01*
X384547Y204493D01*
X384149Y203532D01*
X384079Y203000D01*
X387500D01*
Y206421D01*
D02*
G37*
G36*
X378500D02*
Y203000D01*
X381921D01*
X381851Y203532D01*
X381453Y204493D01*
X380819Y205319D01*
X379993Y205953D01*
X379032Y206351D01*
X378500Y206421D01*
D02*
G37*
G36*
X377500D02*
X376968Y206351D01*
X376007Y205953D01*
X375181Y205319D01*
X374547Y204493D01*
X374149Y203532D01*
X374079Y203000D01*
X377500D01*
Y206421D01*
D02*
G37*
G36*
X137252Y205805D02*
Y200874D01*
X142183D01*
X142062Y201797D01*
X141513Y203122D01*
X140639Y204261D01*
X139500Y205135D01*
X138175Y205684D01*
X137252Y205805D01*
D02*
G37*
G36*
X136252D02*
X135329Y205684D01*
X134003Y205135D01*
X132865Y204261D01*
X131991Y203122D01*
X131442Y201797D01*
X131321Y200874D01*
X136252D01*
Y205805D01*
D02*
G37*
G36*
X391921Y202000D02*
X388500D01*
Y198579D01*
X389032Y198649D01*
X389993Y199047D01*
X390819Y199681D01*
X391453Y200507D01*
X391851Y201468D01*
X391921Y202000D01*
D02*
G37*
G36*
X387500D02*
X384079D01*
X384149Y201468D01*
X384547Y200507D01*
X385181Y199681D01*
X386007Y199047D01*
X386968Y198649D01*
X387500Y198579D01*
Y202000D01*
D02*
G37*
G36*
X381921D02*
X378500D01*
Y198579D01*
X379032Y198649D01*
X379993Y199047D01*
X380819Y199681D01*
X381453Y200507D01*
X381851Y201468D01*
X381921Y202000D01*
D02*
G37*
G36*
X377500D02*
X374079D01*
X374149Y201468D01*
X374547Y200507D01*
X375181Y199681D01*
X376007Y199047D01*
X376968Y198649D01*
X377500Y198579D01*
Y202000D01*
D02*
G37*
G36*
X371921D02*
X368500D01*
Y198579D01*
X369032Y198649D01*
X369993Y199047D01*
X370819Y199681D01*
X371453Y200507D01*
X371851Y201468D01*
X371921Y202000D01*
D02*
G37*
G36*
X367500D02*
X364079D01*
X364149Y201468D01*
X364547Y200507D01*
X365181Y199681D01*
X366007Y199047D01*
X366968Y198649D01*
X367500Y198579D01*
Y202000D01*
D02*
G37*
G36*
X361953D02*
X358500D01*
Y198547D01*
X361953D01*
Y202000D01*
D02*
G37*
G36*
X357500D02*
X354047D01*
Y198547D01*
X357500D01*
Y202000D01*
D02*
G37*
G36*
X323000Y197928D02*
Y195500D01*
X325428D01*
X325392Y195775D01*
X325093Y196497D01*
X324617Y197117D01*
X323997Y197593D01*
X323275Y197892D01*
X323000Y197928D01*
D02*
G37*
G36*
X322000D02*
X321725Y197892D01*
X321003Y197593D01*
X320383Y197117D01*
X319907Y196497D01*
X319608Y195775D01*
X319572Y195500D01*
X322000D01*
Y197928D01*
D02*
G37*
G36*
X142183Y199874D02*
X137252D01*
Y194943D01*
X138175Y195064D01*
X139500Y195613D01*
X140639Y196487D01*
X141513Y197626D01*
X142062Y198951D01*
X142183Y199874D01*
D02*
G37*
G36*
X136252D02*
X131321D01*
X131442Y198951D01*
X131991Y197626D01*
X132865Y196487D01*
X134003Y195613D01*
X135329Y195064D01*
X136252Y194943D01*
Y199874D01*
D02*
G37*
G36*
X325428Y194500D02*
X323000D01*
Y192072D01*
X323275Y192108D01*
X323997Y192407D01*
X324617Y192883D01*
X325093Y193503D01*
X325392Y194225D01*
X325428Y194500D01*
D02*
G37*
G36*
X322000D02*
X319572D01*
X319608Y194225D01*
X319907Y193503D01*
X320383Y192883D01*
X321003Y192407D01*
X321725Y192108D01*
X322000Y192072D01*
Y194500D01*
D02*
G37*
G36*
X137252Y190057D02*
Y185126D01*
X142183D01*
X142062Y186049D01*
X141513Y187374D01*
X140639Y188513D01*
X139500Y189387D01*
X138175Y189936D01*
X137252Y190057D01*
D02*
G37*
G36*
X136252D02*
X135329Y189936D01*
X134003Y189387D01*
X132865Y188513D01*
X131991Y187374D01*
X131442Y186049D01*
X131321Y185126D01*
X136252D01*
Y190057D01*
D02*
G37*
G36*
X187823Y184500D02*
X184321D01*
Y182720D01*
X187823D01*
Y184500D01*
D02*
G37*
G36*
X181000Y183825D02*
Y182000D01*
X182825D01*
X182740Y182428D01*
X182214Y183214D01*
X181428Y183740D01*
X181000Y183825D01*
D02*
G37*
G36*
X180000D02*
X179572Y183740D01*
X178786Y183214D01*
X178260Y182428D01*
X178175Y182000D01*
X180000D01*
Y183825D01*
D02*
G37*
G36*
X142183Y184126D02*
X137252D01*
Y179195D01*
X138175Y179316D01*
X139500Y179865D01*
X140639Y180739D01*
X141513Y181878D01*
X142062Y183203D01*
X142183Y184126D01*
D02*
G37*
G36*
X136252D02*
X131321D01*
X131442Y183203D01*
X131991Y181878D01*
X132865Y180739D01*
X134003Y179865D01*
X135329Y179316D01*
X136252Y179195D01*
Y184126D01*
D02*
G37*
G36*
X180000Y181000D02*
X178175D01*
X178260Y180572D01*
X178786Y179786D01*
X179572Y179260D01*
X180000Y179175D01*
Y181000D01*
D02*
G37*
G36*
X194095Y175500D02*
X191429D01*
Y172244D01*
X194095D01*
Y175500D01*
D02*
G37*
G36*
X309500Y159928D02*
Y157500D01*
X311928D01*
X311892Y157775D01*
X311593Y158497D01*
X311117Y159117D01*
X310497Y159593D01*
X309775Y159892D01*
X309500Y159928D01*
D02*
G37*
G36*
X308500D02*
X308225Y159892D01*
X307503Y159593D01*
X306883Y159117D01*
X306407Y158497D01*
X306108Y157775D01*
X306072Y157500D01*
X308500D01*
Y159928D01*
D02*
G37*
G36*
X311928Y156500D02*
X309500D01*
Y154072D01*
X309775Y154108D01*
X310497Y154407D01*
X311117Y154883D01*
X311593Y155503D01*
X311892Y156225D01*
X311928Y156500D01*
D02*
G37*
G36*
X308500D02*
X306072D01*
X306108Y156225D01*
X306407Y155503D01*
X306883Y154883D01*
X307503Y154407D01*
X308225Y154108D01*
X308500Y154072D01*
Y156500D01*
D02*
G37*
G36*
X150531Y165667D02*
X149238Y165540D01*
X147994Y165163D01*
X146847Y164550D01*
X145842Y163725D01*
X145017Y162720D01*
X144404Y161573D01*
X144027Y160329D01*
X143900Y159035D01*
X144027Y157742D01*
X144404Y156498D01*
X145017Y155351D01*
X145842Y154346D01*
X146847Y153521D01*
X147994Y152908D01*
X149238Y152531D01*
X150531Y152403D01*
X151825Y152531D01*
X153069Y152908D01*
X154216Y153521D01*
X155221Y154346D01*
X156046Y155351D01*
X156659Y156498D01*
X157036Y157742D01*
X157163Y159035D01*
X157036Y160329D01*
X156659Y161573D01*
X156046Y162720D01*
X155221Y163725D01*
X154216Y164550D01*
X153069Y165163D01*
X151825Y165540D01*
X150531Y165667D01*
D02*
G37*
G36*
X187500Y148928D02*
Y146500D01*
X189928D01*
X189892Y146775D01*
X189593Y147497D01*
X189117Y148117D01*
X188497Y148593D01*
X187775Y148892D01*
X187500Y148928D01*
D02*
G37*
G36*
X186500D02*
X186225Y148892D01*
X185503Y148593D01*
X184883Y148117D01*
X184407Y147497D01*
X184108Y146775D01*
X184072Y146500D01*
X186500D01*
Y148928D01*
D02*
G37*
G36*
X189928Y145500D02*
X187500D01*
Y143072D01*
X187775Y143108D01*
X188497Y143407D01*
X189117Y143883D01*
X189593Y144503D01*
X189892Y145225D01*
X189928Y145500D01*
D02*
G37*
G36*
X186500D02*
X184072D01*
X184108Y145225D01*
X184407Y144503D01*
X184883Y143883D01*
X185503Y143407D01*
X186225Y143108D01*
X186500Y143072D01*
Y145500D01*
D02*
G37*
G36*
X298210Y135761D02*
X295544D01*
Y132505D01*
X298210D01*
Y135761D01*
D02*
G37*
G36*
X306500Y128994D02*
X305725Y128892D01*
X305003Y128593D01*
X304383Y128117D01*
X303907Y127497D01*
X303608Y126775D01*
X303506Y126000D01*
X303608Y125225D01*
X303907Y124503D01*
X304383Y123883D01*
X305003Y123407D01*
X305725Y123108D01*
X306500Y123006D01*
X307275Y123108D01*
X307997Y123407D01*
X308617Y123883D01*
X309093Y124503D01*
X309392Y125225D01*
X309494Y126000D01*
X309392Y126775D01*
X309093Y127497D01*
X308617Y128117D01*
X307997Y128593D01*
X307275Y128892D01*
X306500Y128994D01*
D02*
G37*
G36*
X376000Y124428D02*
Y122000D01*
X378428D01*
X378392Y122275D01*
X378093Y122997D01*
X377617Y123617D01*
X376997Y124093D01*
X376275Y124392D01*
X376000Y124428D01*
D02*
G37*
G36*
X375000D02*
X374725Y124392D01*
X374003Y124093D01*
X373383Y123617D01*
X372907Y122997D01*
X372608Y122275D01*
X372572Y122000D01*
X375000D01*
Y124428D01*
D02*
G37*
G36*
X378428Y121000D02*
X376000D01*
Y118572D01*
X376275Y118608D01*
X376997Y118907D01*
X377617Y119383D01*
X378093Y120003D01*
X378392Y120725D01*
X378428Y121000D01*
D02*
G37*
G36*
X375000D02*
X372572D01*
X372608Y120725D01*
X372907Y120003D01*
X373383Y119383D01*
X374003Y118907D01*
X374725Y118608D01*
X375000Y118572D01*
Y121000D01*
D02*
G37*
G36*
X232500Y119928D02*
Y117500D01*
X234928D01*
X234892Y117775D01*
X234593Y118497D01*
X234117Y119117D01*
X233497Y119593D01*
X232775Y119892D01*
X232500Y119928D01*
D02*
G37*
G36*
X231500D02*
X231225Y119892D01*
X230503Y119593D01*
X229883Y119117D01*
X229407Y118497D01*
X229108Y117775D01*
X229072Y117500D01*
X231500D01*
Y119928D01*
D02*
G37*
G36*
X256256Y117095D02*
X253000D01*
Y114429D01*
X256256D01*
Y117095D01*
D02*
G37*
G36*
X244500Y117047D02*
X241244D01*
Y114382D01*
X244500D01*
Y117047D01*
D02*
G37*
G36*
X234928Y116500D02*
X232500D01*
Y114072D01*
X232775Y114108D01*
X233497Y114407D01*
X234117Y114883D01*
X234593Y115503D01*
X234892Y116225D01*
X234928Y116500D01*
D02*
G37*
G36*
X231500D02*
X229072D01*
X229108Y116225D01*
X229407Y115503D01*
X229883Y114883D01*
X230503Y114407D01*
X231225Y114108D01*
X231500Y114072D01*
Y116500D01*
D02*
G37*
G36*
X276953Y116295D02*
X273500D01*
Y111858D01*
X276953D01*
Y116295D01*
D02*
G37*
G36*
X272500D02*
X269047D01*
Y111858D01*
X272500D01*
Y116295D01*
D02*
G37*
G36*
X153000Y110928D02*
Y108500D01*
X155428D01*
X155392Y108775D01*
X155093Y109497D01*
X154617Y110117D01*
X153997Y110593D01*
X153275Y110892D01*
X153000Y110928D01*
D02*
G37*
G36*
X152000D02*
X151725Y110892D01*
X151003Y110593D01*
X150383Y110117D01*
X149907Y109497D01*
X149608Y108775D01*
X149572Y108500D01*
X152000D01*
Y110928D01*
D02*
G37*
G36*
X276953Y110858D02*
X273500D01*
Y106421D01*
X276953D01*
Y110858D01*
D02*
G37*
G36*
X272500D02*
X269047D01*
Y106421D01*
X272500D01*
Y110858D01*
D02*
G37*
G36*
X426500Y107928D02*
Y105500D01*
X428928D01*
X428892Y105775D01*
X428593Y106497D01*
X428117Y107117D01*
X427497Y107593D01*
X426775Y107892D01*
X426500Y107928D01*
D02*
G37*
G36*
X425500D02*
X425225Y107892D01*
X424503Y107593D01*
X423883Y107117D01*
X423407Y106497D01*
X423108Y105775D01*
X423072Y105500D01*
X425500D01*
Y107928D01*
D02*
G37*
G36*
X155428Y107500D02*
X153000D01*
Y105072D01*
X153275Y105108D01*
X153997Y105407D01*
X154617Y105883D01*
X155093Y106503D01*
X155392Y107225D01*
X155428Y107500D01*
D02*
G37*
G36*
X152000D02*
X149572D01*
X149608Y107225D01*
X149907Y106503D01*
X150383Y105883D01*
X151003Y105407D01*
X151725Y105108D01*
X152000Y105072D01*
Y107500D01*
D02*
G37*
G36*
X295453Y112453D02*
X287547D01*
Y104547D01*
X295453D01*
Y112453D01*
D02*
G37*
G36*
X321500Y112487D02*
X320468Y112351D01*
X319507Y111953D01*
X318681Y111319D01*
X318047Y110493D01*
X317649Y109532D01*
X317513Y108500D01*
X317649Y107468D01*
X318047Y106507D01*
X318681Y105681D01*
X319507Y105047D01*
X320468Y104649D01*
X321500Y104513D01*
X322532Y104649D01*
X323493Y105047D01*
X324319Y105681D01*
X324953Y106507D01*
X325351Y107468D01*
X325487Y108500D01*
X325351Y109532D01*
X324953Y110493D01*
X324319Y111319D01*
X323493Y111953D01*
X322532Y112351D01*
X321500Y112487D01*
D02*
G37*
G36*
X311500D02*
X310468Y112351D01*
X309507Y111953D01*
X308681Y111319D01*
X308047Y110493D01*
X307649Y109532D01*
X307513Y108500D01*
X307649Y107468D01*
X308047Y106507D01*
X308681Y105681D01*
X309507Y105047D01*
X310468Y104649D01*
X311500Y104513D01*
X312532Y104649D01*
X313493Y105047D01*
X314319Y105681D01*
X314953Y106507D01*
X315351Y107468D01*
X315487Y108500D01*
X315351Y109532D01*
X314953Y110493D01*
X314319Y111319D01*
X313493Y111953D01*
X312532Y112351D01*
X311500Y112487D01*
D02*
G37*
G36*
X301500D02*
X300468Y112351D01*
X299507Y111953D01*
X298681Y111319D01*
X298047Y110493D01*
X297649Y109532D01*
X297513Y108500D01*
X297649Y107468D01*
X298047Y106507D01*
X298681Y105681D01*
X299507Y105047D01*
X300468Y104649D01*
X301500Y104513D01*
X302532Y104649D01*
X303493Y105047D01*
X304319Y105681D01*
X304953Y106507D01*
X305351Y107468D01*
X305487Y108500D01*
X305351Y109532D01*
X304953Y110493D01*
X304319Y111319D01*
X303493Y111953D01*
X302532Y112351D01*
X301500Y112487D01*
D02*
G37*
G36*
X428928Y104500D02*
X426500D01*
Y102072D01*
X426775Y102108D01*
X427497Y102407D01*
X428117Y102883D01*
X428593Y103503D01*
X428892Y104225D01*
X428928Y104500D01*
D02*
G37*
G36*
X425500D02*
X423072D01*
X423108Y104225D01*
X423407Y103503D01*
X423883Y102883D01*
X424503Y102407D01*
X425225Y102108D01*
X425500Y102072D01*
Y104500D01*
D02*
G37*
%LPD*%
G36*
X367124Y282930D02*
Y256570D01*
X350399Y239845D01*
X350000Y239925D01*
X349072Y239740D01*
X348286Y239214D01*
X347760Y238428D01*
X347575Y237500D01*
X347760Y236572D01*
X347930Y236317D01*
X347694Y235876D01*
X346500D01*
X346500Y235876D01*
X345973Y235772D01*
X345527Y235473D01*
X338023Y227970D01*
X337725Y227523D01*
X337620Y226996D01*
Y226570D01*
X337158Y226378D01*
X336563Y226973D01*
X336117Y227272D01*
X335590Y227377D01*
X327500D01*
X326973Y227272D01*
X326527Y226973D01*
X309527Y209973D01*
X309228Y209527D01*
X309123Y209000D01*
Y183570D01*
X302306Y176753D01*
X287353D01*
X287161Y177215D01*
X289070Y179124D01*
X300980D01*
X301507Y179228D01*
X301953Y179527D01*
X305873Y183447D01*
X306172Y183893D01*
X306276Y184420D01*
Y211830D01*
X353252Y258805D01*
X353252Y258805D01*
X353550Y259251D01*
X353655Y259778D01*
X353655Y259778D01*
Y268047D01*
X356231D01*
Y275953D01*
X348325D01*
Y268047D01*
X350902D01*
Y260348D01*
X341676Y251123D01*
X341214Y251314D01*
Y268047D01*
X343791D01*
Y275953D01*
X335885D01*
Y268047D01*
X338461D01*
Y249888D01*
X329338Y240765D01*
X328876Y240956D01*
Y268047D01*
X331350D01*
Y275953D01*
X323444D01*
Y268047D01*
X326123D01*
Y239530D01*
X301127Y214533D01*
X300828Y214087D01*
X300724Y213560D01*
Y186670D01*
X299324Y185271D01*
X297118D01*
Y187500D01*
X293953D01*
Y188500D01*
X297118D01*
Y191244D01*
X297118D01*
Y194500D01*
X293953D01*
Y195000D01*
X293453D01*
Y198756D01*
X284882D01*
Y195112D01*
X283000D01*
Y195354D01*
X281394D01*
Y203890D01*
X281258Y204573D01*
X280872Y205152D01*
X255663Y230360D01*
X255084Y230747D01*
X254402Y230883D01*
X253299D01*
Y233543D01*
X247784D01*
Y239716D01*
X261000D01*
X261683Y239851D01*
X262262Y240238D01*
X272050Y250027D01*
X274457D01*
Y244118D01*
X283543D01*
Y255970D01*
X296254D01*
X296937Y256105D01*
X297516Y256492D01*
X305262Y264238D01*
X305262Y264238D01*
X305648Y264817D01*
X305784Y265500D01*
Y268047D01*
X307953D01*
Y270623D01*
X311000D01*
X311527Y270728D01*
X311973Y271027D01*
X313473Y272527D01*
X313772Y272973D01*
X313877Y273500D01*
Y281930D01*
X321070Y289124D01*
X360930D01*
X367124Y282930D01*
D02*
G37*
G36*
X232115Y205062D02*
X227080Y200027D01*
X226618Y200218D01*
Y201756D01*
X218047D01*
Y198000D01*
X217047D01*
Y201756D01*
X216856D01*
X216664Y202218D01*
X219970Y205523D01*
X231924D01*
X232115Y205062D01*
D02*
G37*
G36*
X240646Y198276D02*
X240860D01*
Y189764D01*
X240965Y189237D01*
X241263Y188791D01*
X244623Y185430D01*
Y165613D01*
X237724D01*
Y165827D01*
X234362D01*
Y166583D01*
X237724D01*
Y170520D01*
Y171732D01*
X234362D01*
Y172488D01*
X237724D01*
Y174457D01*
Y178234D01*
X238224Y178283D01*
X238268Y178064D01*
X238793Y177278D01*
X239580Y176752D01*
X240508Y176568D01*
X241436Y176752D01*
X242222Y177278D01*
X242748Y178064D01*
X242932Y178992D01*
X242748Y179920D01*
X242222Y180707D01*
X241528Y181171D01*
X241536Y181549D01*
X241581Y181691D01*
X241928Y181760D01*
X242714Y182286D01*
X243240Y183072D01*
X243425Y184000D01*
X243240Y184928D01*
X242714Y185714D01*
X241928Y186240D01*
X241000Y186425D01*
X240072Y186240D01*
X239286Y185714D01*
X238760Y184928D01*
X238576Y184000D01*
X238632Y183716D01*
X238315Y183329D01*
X237724D01*
Y188236D01*
Y192173D01*
Y195354D01*
X231508D01*
X231301Y195854D01*
X235708Y200261D01*
X240646D01*
Y198276D01*
D02*
G37*
G36*
X409739Y176539D02*
X409595Y176099D01*
X407324D01*
Y173721D01*
X406323D01*
Y176099D01*
X404052D01*
X404020Y176586D01*
Y177507D01*
X400764D01*
Y174342D01*
X399764D01*
Y177507D01*
X396508D01*
Y175376D01*
X395440D01*
X395214Y175714D01*
X394428Y176240D01*
X393899Y176345D01*
X393734Y176888D01*
X395470Y178624D01*
X409739D01*
Y176539D01*
D02*
G37*
G36*
X361946Y180607D02*
Y173779D01*
X359321D01*
Y169220D01*
X359321D01*
Y168876D01*
X359087Y168376D01*
X358256D01*
Y171886D01*
X350816D01*
Y173810D01*
X347060D01*
Y174310D01*
X346561D01*
Y177476D01*
X343305D01*
Y176122D01*
X341148D01*
Y173744D01*
X340148D01*
Y176122D01*
X338467D01*
Y181624D01*
X360930D01*
X361946Y180607D01*
D02*
G37*
G36*
X264482Y193428D02*
X259348Y188295D01*
X259072Y188240D01*
X258286Y187714D01*
X257760Y186928D01*
X257575Y186000D01*
X257760Y185072D01*
X258286Y184286D01*
X259072Y183760D01*
X260000Y183575D01*
X260928Y183760D01*
X261714Y184286D01*
X261816Y184437D01*
X262384Y184387D01*
X262786Y183786D01*
X263572Y183260D01*
X264500Y183075D01*
X265428Y183260D01*
X266194Y183772D01*
X266326Y183839D01*
X266674D01*
X266806Y183772D01*
X267572Y183260D01*
X268500Y183075D01*
X269428Y183260D01*
X270214Y183786D01*
X270647D01*
X270757Y183621D01*
X271544Y183096D01*
X272471Y182911D01*
X273399Y183096D01*
X273683Y183285D01*
X274124Y183049D01*
Y174570D01*
X268700Y169147D01*
X268700Y169147D01*
X265166Y165613D01*
X247376D01*
Y186000D01*
X247272Y186527D01*
X246973Y186973D01*
X243613Y190334D01*
Y198276D01*
X264482D01*
Y193428D01*
D02*
G37*
G36*
X373724Y159862D02*
Y144790D01*
X373500Y144603D01*
Y142000D01*
X372500D01*
Y144325D01*
X372072Y144240D01*
X371424Y143807D01*
X370924Y144004D01*
Y153453D01*
X370819Y153980D01*
X370521Y154426D01*
X368447Y156500D01*
X370601Y158655D01*
X371000Y158575D01*
X371928Y158760D01*
X372714Y159286D01*
X373223Y160048D01*
X373261Y160054D01*
X373724Y159862D01*
D02*
G37*
G36*
X276276Y166583D02*
X279638D01*
Y165827D01*
X276276D01*
Y162646D01*
X282698D01*
X283666Y161678D01*
X283711Y161015D01*
X280627Y157931D01*
X280328Y157484D01*
X280223Y156958D01*
Y155150D01*
X279850Y154776D01*
X273354D01*
Y159724D01*
X267235D01*
Y160142D01*
X267130Y160669D01*
X266832Y161115D01*
X266831Y161115D01*
X265546Y162401D01*
X265652Y162655D01*
X265784Y162869D01*
X266263Y162965D01*
X266709Y163263D01*
X270243Y166797D01*
X276276D01*
Y166583D01*
D02*
G37*
G36*
X378527Y170527D02*
X378973Y170228D01*
X379500Y170124D01*
X380675D01*
Y169220D01*
X380675D01*
Y168780D01*
X380675D01*
Y164220D01*
X380675D01*
Y163779D01*
X380675D01*
Y159280D01*
X380675Y159221D01*
Y158780D01*
X380675Y158721D01*
Y157000D01*
X388679D01*
Y158721D01*
X388679Y158780D01*
Y159221D01*
X388679Y159280D01*
Y159381D01*
X389068Y159650D01*
X396579D01*
Y161439D01*
X409722D01*
Y159544D01*
X414477D01*
Y161219D01*
X414527Y161228D01*
X414973Y161527D01*
X415165Y161719D01*
X415627Y161527D01*
Y159544D01*
X420383D01*
Y160384D01*
X423690D01*
X425724Y158350D01*
Y146376D01*
X425262Y146185D01*
X421190Y150256D01*
X420744Y150555D01*
X420577Y150588D01*
Y152540D01*
X415821D01*
Y151176D01*
X415321Y150909D01*
X415125Y151040D01*
X414672Y151130D01*
Y152540D01*
X409916D01*
Y151145D01*
X396756D01*
Y153118D01*
X389244D01*
Y152876D01*
X388679D01*
Y153720D01*
X388679Y153779D01*
Y154220D01*
X388679Y154279D01*
Y156000D01*
X380675D01*
Y154279D01*
X380675Y154220D01*
Y153779D01*
X380675Y153720D01*
Y149221D01*
X380675D01*
Y148779D01*
X380675D01*
Y144478D01*
X380175Y144271D01*
X377876Y146570D01*
Y170524D01*
X378338Y170715D01*
X378527Y170527D01*
D02*
G37*
G36*
X359321Y144220D02*
X359321D01*
Y143780D01*
X359321D01*
Y140033D01*
X358821Y139761D01*
X358500Y139825D01*
Y138000D01*
X360325D01*
X360240Y138428D01*
X360045Y138721D01*
X360312Y139220D01*
X361624D01*
Y134070D01*
X360930Y133376D01*
X338445D01*
X337937Y133885D01*
X337723Y134028D01*
Y137019D01*
X337728Y137516D01*
X340000D01*
Y139894D01*
X341000D01*
Y137516D01*
X343244D01*
Y135729D01*
X346500D01*
Y138894D01*
X347000D01*
Y139394D01*
X350756D01*
Y141729D01*
X358256D01*
Y145042D01*
X359321D01*
Y144220D01*
D02*
G37*
%LPC*%
G36*
X352278Y285987D02*
X351246Y285851D01*
X350285Y285453D01*
X349459Y284819D01*
X348826Y283993D01*
X348427Y283032D01*
X348291Y282000D01*
X348427Y280968D01*
X348826Y280007D01*
X349459Y279181D01*
X350285Y278547D01*
X351246Y278149D01*
X352278Y278013D01*
X353310Y278149D01*
X354272Y278547D01*
X355097Y279181D01*
X355731Y280007D01*
X356129Y280968D01*
X356265Y282000D01*
X356129Y283032D01*
X355731Y283993D01*
X355097Y284819D01*
X354272Y285453D01*
X353310Y285851D01*
X352278Y285987D01*
D02*
G37*
G36*
X339838D02*
X338806Y285851D01*
X337844Y285453D01*
X337019Y284819D01*
X336385Y283993D01*
X335987Y283032D01*
X335851Y282000D01*
X335987Y280968D01*
X336385Y280007D01*
X337019Y279181D01*
X337844Y278547D01*
X338806Y278149D01*
X339838Y278013D01*
X340870Y278149D01*
X341831Y278547D01*
X342657Y279181D01*
X343290Y280007D01*
X343689Y280968D01*
X343825Y282000D01*
X343689Y283032D01*
X343290Y283993D01*
X342657Y284819D01*
X341831Y285453D01*
X340870Y285851D01*
X339838Y285987D01*
D02*
G37*
G36*
X327397D02*
X326365Y285851D01*
X325404Y285453D01*
X324578Y284819D01*
X323944Y283993D01*
X323546Y283032D01*
X323410Y282000D01*
X323546Y280968D01*
X323944Y280007D01*
X324578Y279181D01*
X325404Y278547D01*
X326365Y278149D01*
X327397Y278013D01*
X328429Y278149D01*
X329391Y278547D01*
X330216Y279181D01*
X330850Y280007D01*
X331248Y280968D01*
X331384Y282000D01*
X331248Y283032D01*
X330850Y283993D01*
X330216Y284819D01*
X329391Y285453D01*
X328429Y285851D01*
X327397Y285987D01*
D02*
G37*
G36*
X308500Y243928D02*
Y241500D01*
X310928D01*
X310892Y241775D01*
X310593Y242497D01*
X310117Y243117D01*
X309497Y243593D01*
X308775Y243892D01*
X308500Y243928D01*
D02*
G37*
G36*
X307500D02*
X307225Y243892D01*
X306503Y243593D01*
X305883Y243117D01*
X305407Y242497D01*
X305108Y241775D01*
X305072Y241500D01*
X307500D01*
Y243928D01*
D02*
G37*
G36*
X310928Y240500D02*
X308500D01*
Y238072D01*
X308775Y238108D01*
X309497Y238407D01*
X310117Y238883D01*
X310593Y239503D01*
X310892Y240225D01*
X310928Y240500D01*
D02*
G37*
G36*
X307500D02*
X305072D01*
X305108Y240225D01*
X305407Y239503D01*
X305883Y238883D01*
X306503Y238407D01*
X307225Y238108D01*
X307500Y238072D01*
Y240500D01*
D02*
G37*
G36*
X283543Y235882D02*
X279500D01*
Y228689D01*
X283543D01*
Y235882D01*
D02*
G37*
G36*
X278500D02*
X274457D01*
Y228689D01*
X278500D01*
Y235882D01*
D02*
G37*
G36*
X291500Y224928D02*
Y222500D01*
X293928D01*
X293892Y222775D01*
X293593Y223497D01*
X293117Y224117D01*
X292497Y224593D01*
X291775Y224892D01*
X291500Y224928D01*
D02*
G37*
G36*
X290500D02*
X290225Y224892D01*
X289503Y224593D01*
X288883Y224117D01*
X288407Y223497D01*
X288108Y222775D01*
X288072Y222500D01*
X290500D01*
Y224928D01*
D02*
G37*
G36*
X283543Y227689D02*
X279500D01*
Y220496D01*
X283543D01*
Y227689D01*
D02*
G37*
G36*
X278500D02*
X274457D01*
Y220496D01*
X278500D01*
Y227689D01*
D02*
G37*
G36*
X293928Y221500D02*
X291500D01*
Y219072D01*
X291775Y219108D01*
X292497Y219407D01*
X293117Y219883D01*
X293593Y220503D01*
X293892Y221225D01*
X293928Y221500D01*
D02*
G37*
G36*
X290500D02*
X288072D01*
X288108Y221225D01*
X288407Y220503D01*
X288883Y219883D01*
X289503Y219407D01*
X290225Y219108D01*
X290500Y219072D01*
Y221500D01*
D02*
G37*
G36*
X297118Y198756D02*
X294453D01*
Y195500D01*
X297118D01*
Y198756D01*
D02*
G37*
G36*
X355500Y179325D02*
Y177500D01*
X357325D01*
X357240Y177928D01*
X356714Y178714D01*
X355928Y179240D01*
X355500Y179325D01*
D02*
G37*
G36*
X354500D02*
X354072Y179240D01*
X353286Y178714D01*
X352760Y177928D01*
X352675Y177500D01*
X354500D01*
Y179325D01*
D02*
G37*
G36*
X350816Y177476D02*
X347561D01*
Y174810D01*
X350816D01*
Y177476D01*
D02*
G37*
G36*
X357325Y176500D02*
X355500D01*
Y174675D01*
X355928Y174760D01*
X356714Y175286D01*
X357240Y176072D01*
X357325Y176500D01*
D02*
G37*
G36*
X354500D02*
X352675D01*
X352760Y176072D01*
X353286Y175286D01*
X354072Y174760D01*
X354500Y174675D01*
Y176500D01*
D02*
G37*
G36*
X254000Y177928D02*
Y175500D01*
X256428D01*
X256392Y175775D01*
X256093Y176497D01*
X255617Y177117D01*
X254997Y177593D01*
X254275Y177892D01*
X254000Y177928D01*
D02*
G37*
G36*
X253000D02*
X252725Y177892D01*
X252003Y177593D01*
X251383Y177117D01*
X250907Y176497D01*
X250608Y175775D01*
X250572Y175500D01*
X253000D01*
Y177928D01*
D02*
G37*
G36*
X256428Y174500D02*
X254000D01*
Y172072D01*
X254275Y172108D01*
X254997Y172407D01*
X255617Y172883D01*
X256093Y173503D01*
X256392Y174225D01*
X256428Y174500D01*
D02*
G37*
G36*
X253000D02*
X250572D01*
X250608Y174225D01*
X250907Y173503D01*
X251383Y172883D01*
X252003Y172407D01*
X252725Y172108D01*
X253000Y172072D01*
Y174500D01*
D02*
G37*
G36*
X403228Y158555D02*
Y156126D01*
X405657D01*
X405620Y156401D01*
X405321Y157123D01*
X404846Y157744D01*
X404225Y158219D01*
X403503Y158519D01*
X403228Y158555D01*
D02*
G37*
G36*
X402228D02*
X401954Y158519D01*
X401231Y158219D01*
X400611Y157744D01*
X400136Y157123D01*
X399836Y156401D01*
X399800Y156126D01*
X402228D01*
Y158555D01*
D02*
G37*
G36*
X405657Y155127D02*
X403228D01*
Y152698D01*
X403503Y152734D01*
X404225Y153033D01*
X404846Y153509D01*
X405321Y154129D01*
X405620Y154851D01*
X405657Y155127D01*
D02*
G37*
G36*
X402228D02*
X399800D01*
X399836Y154851D01*
X400136Y154129D01*
X400611Y153509D01*
X401231Y153033D01*
X401954Y152734D01*
X402228Y152698D01*
Y155127D01*
D02*
G37*
G36*
X357500Y139825D02*
X357072Y139740D01*
X356286Y139214D01*
X355760Y138428D01*
X355675Y138000D01*
X357500D01*
Y139825D01*
D02*
G37*
G36*
X350756Y138394D02*
X347500D01*
Y135729D01*
X350756D01*
Y138394D01*
D02*
G37*
G36*
X360325Y137000D02*
X358500D01*
Y135175D01*
X358928Y135260D01*
X359714Y135786D01*
X360240Y136572D01*
X360325Y137000D01*
D02*
G37*
G36*
X357500D02*
X355675D01*
X355760Y136572D01*
X356286Y135786D01*
X357072Y135260D01*
X357500Y135175D01*
Y137000D01*
D02*
G37*
%LPD*%
D14*
X322460Y183000D02*
X337000D01*
X336109Y182109D02*
X337000Y183000D01*
X361500D01*
X335302Y178713D02*
X336109Y179520D01*
Y182109D01*
X217547Y191000D02*
Y198000D01*
X217547Y198000D01*
X393500Y174000D02*
X406544D01*
X394500Y138500D02*
X406696D01*
X263862Y156390D02*
Y159638D01*
X263000Y160500D02*
X263862Y159638D01*
Y156390D02*
X263890Y156362D01*
X221000Y168500D02*
X221393Y168107D01*
X226000Y170453D02*
X229806D01*
X231435Y172082D01*
X234334D01*
X234362Y172110D01*
X224185Y168637D02*
X226000Y170453D01*
X221137Y168637D02*
X224185D01*
X221000Y168500D02*
X221137Y168637D01*
X348000Y226453D02*
X349559Y228012D01*
X353750D01*
X375453Y134500D02*
Y139547D01*
X373000Y142000D02*
X375453Y139547D01*
X337875Y132000D02*
X361500D01*
X363000Y133500D01*
X334557Y134727D02*
Y135318D01*
Y134727D02*
X336373Y132912D01*
X336963D01*
X337875Y132000D01*
X369547Y134500D02*
Y153453D01*
X299000Y168000D02*
X300500Y169500D01*
X294953Y168000D02*
X299000D01*
X285465Y163806D02*
X293806D01*
X294500Y164500D01*
X284142Y170142D02*
X287000Y173000D01*
X306520D01*
X320720Y187200D01*
X282638Y172138D02*
X285876Y175376D01*
X302876D02*
X310500Y183000D01*
X285876Y175376D02*
X302876D01*
X279638Y176047D02*
X284047D01*
X288500Y180500D02*
X300980D01*
X284047Y176047D02*
X288500Y180500D01*
X294500Y164500D02*
Y167547D01*
X294953Y168000D01*
X283094Y166177D02*
X285465Y163806D01*
X284614Y157992D02*
X286228Y159606D01*
X284885Y162406D02*
X297906D01*
X281600Y156958D02*
X285648Y161006D01*
X298486D01*
X286228Y159606D02*
X299066D01*
X284614Y155614D02*
Y157992D01*
X279666Y166177D02*
X283094D01*
X279638Y164236D02*
X283054D01*
X284885Y162406D01*
X279638Y166205D02*
X279666Y166177D01*
X297906Y162406D02*
X321300Y185800D01*
X281000Y152000D02*
X284614Y155614D01*
X299066Y159606D02*
X322460Y183000D01*
X281600Y154580D02*
Y156958D01*
X298486Y161006D02*
X321880Y184400D01*
X406544Y174000D02*
X406823Y173721D01*
X406696Y138500D02*
X406953Y138757D01*
X391500Y112500D02*
X396000Y117000D01*
X399000Y115500D02*
X420000D01*
X425700Y121200D01*
X397500Y114000D02*
X399000Y115500D01*
X396000Y117000D02*
X419500D01*
X397500Y103500D02*
Y114000D01*
X420520D02*
X427100Y120580D01*
X409000Y114000D02*
X420520D01*
X419500Y117000D02*
X424300Y121800D01*
X403500Y108500D02*
X409000Y114000D01*
X168248Y200252D02*
X173000Y195500D01*
X168248Y184626D02*
X169626D01*
X168248Y200374D02*
X169370Y199252D01*
X310500Y183000D02*
Y209000D01*
X295494Y181925D02*
X295519Y181900D01*
X300980Y180500D02*
X304900Y184420D01*
X295519Y181900D02*
X300400D01*
X279666Y181925D02*
X295494D01*
X300400Y181900D02*
X303500Y185000D01*
X327500Y226000D02*
X335590D01*
X336972Y219689D02*
X337000Y219661D01*
X336972Y219689D02*
Y224618D01*
X335590Y226000D02*
X336972Y224618D01*
X310500Y209000D02*
X327500Y226000D01*
X299894Y183894D02*
X302100Y186100D01*
Y213560D01*
X304900Y184420D02*
Y212400D01*
X303500Y185000D02*
Y212980D01*
X285323Y183894D02*
X299894D01*
X279638Y172110D02*
X279666Y172138D01*
X282638D01*
X246000Y164236D02*
X261764D01*
X234362D02*
X246000D01*
Y186000D01*
X242236Y189764D02*
Y201638D01*
Y189764D02*
X246000Y186000D01*
X225264Y164236D02*
X234362D01*
X363323Y156500D02*
X366500D01*
X371000Y161000D01*
X352363Y222363D02*
X359000Y229000D01*
X360000D01*
X349500Y214000D02*
X364775Y229275D01*
X369225D01*
X337000Y214000D02*
X349500D01*
X335003Y215997D02*
X337000Y214000D01*
X348000Y220547D02*
X349815Y222363D01*
X352363D01*
X196500Y206453D02*
X197547Y207500D01*
X340937Y202241D02*
Y202339D01*
Y202241D02*
X341178Y202000D01*
X346500D01*
X361000Y232000D02*
X361846Y232846D01*
X338997Y226996D02*
X346500Y234500D01*
X346000Y232000D02*
X361000D01*
X346500Y234500D02*
X358000D01*
X340937Y226937D02*
X346000Y232000D01*
X358000Y234500D02*
X362500Y239000D01*
X340937Y219661D02*
Y226937D01*
X338997Y219689D02*
Y226996D01*
X368500Y256000D02*
Y283500D01*
X350000Y237500D02*
X368500Y256000D01*
X362500Y239000D02*
X380000D01*
X339838Y249318D02*
Y272000D01*
X327500Y238960D02*
Y271897D01*
X304900Y212400D02*
X352278Y259778D01*
Y272000D01*
X302100Y213560D02*
X327500Y238960D01*
X303500Y212980D02*
X339838Y249318D01*
X361500Y290500D02*
X368500Y283500D01*
X320500Y290500D02*
X361500D01*
X312500Y282500D02*
X320500Y290500D01*
X312500Y273500D02*
Y282500D01*
X304000Y272000D02*
X311000D01*
X312500Y273500D01*
X333063Y202339D02*
Y204504D01*
X332822Y204745D02*
X333063Y204504D01*
X323505Y204745D02*
X332822D01*
X320750Y207500D02*
X323505Y204745D01*
X328000Y208000D02*
Y212433D01*
X333063Y217496D02*
Y219661D01*
X328000Y212433D02*
X333063Y217496D01*
X240508Y178992D02*
X240508D01*
X234362Y179984D02*
X239516D01*
X240508Y178992D01*
X241000Y183500D02*
Y184000D01*
X239453Y181953D02*
X241000Y183500D01*
X234362Y181953D02*
X239453D01*
X261949Y208449D02*
X264704Y211204D01*
X327292Y281894D02*
X327397Y282000D01*
X352000Y281722D02*
X352278Y282000D01*
X267500Y208500D02*
X268500D01*
X263918Y204918D02*
X267500Y208500D01*
X263918Y201666D02*
Y204918D01*
X263890Y201638D02*
X263918Y201666D01*
X261000Y212500D02*
Y213000D01*
X259981Y211481D02*
X261000Y212500D01*
X259981Y201666D02*
Y211481D01*
X259953Y201638D02*
X259981Y201666D01*
X261949D02*
Y208449D01*
X261921Y201638D02*
X261949Y201666D01*
X265858Y192858D02*
Y201638D01*
X260000Y187000D02*
X265858Y192858D01*
X260000Y186000D02*
Y187000D01*
X267827Y190827D02*
Y201638D01*
X264500Y187500D02*
X267827Y190827D01*
X264500Y185500D02*
Y187500D01*
X269795Y187795D02*
Y201638D01*
X268125Y186125D02*
X269795Y187795D01*
X268125Y186125D02*
X268500Y185750D01*
Y185500D02*
Y185750D01*
X272471Y185336D02*
Y190029D01*
X271764Y190736D02*
Y201638D01*
Y190736D02*
X272471Y190029D01*
X275500Y192519D02*
X276716Y193736D01*
X279610D01*
X269673Y168173D02*
X275500Y174000D01*
X261764Y164236D02*
X265858Y160142D01*
X265736Y164236D02*
X269673Y168173D01*
X261764Y164236D02*
X265736D01*
X279638Y193764D02*
Y194136D01*
X265858Y156362D02*
Y160142D01*
X275500Y174000D02*
Y192519D01*
X279610Y193736D02*
X279638Y193764D01*
X269673Y168173D02*
X279638D01*
X269673D02*
X269673D01*
X248114Y201610D02*
X248142Y201638D01*
X294453Y142000D02*
X294453Y142000D01*
X292000Y142000D02*
X294453D01*
X291500Y142500D02*
X292000Y142000D01*
X291500Y142500D02*
Y144500D01*
X289000Y148500D02*
X290815Y146685D01*
Y145185D02*
Y146685D01*
Y145185D02*
X291500Y144500D01*
X289139Y136261D02*
Y141500D01*
X415022Y140179D02*
Y149345D01*
X414598Y149769D02*
X415022Y149345D01*
X393184Y149769D02*
X414598D01*
X415022Y140179D02*
X415432Y139769D01*
X418199D01*
X340937Y219661D02*
X347114D01*
X348000Y220547D01*
X248114Y201666D02*
X248142Y201638D01*
X248114Y201666D02*
Y204559D01*
X245773Y206900D02*
X248114Y204559D01*
X219400Y206900D02*
X245773D01*
X214029Y201529D02*
X219400Y206900D01*
X212329Y201809D02*
X218820Y208300D01*
X246700D01*
X250110Y204890D01*
X211400Y200000D02*
X212329Y200929D01*
Y201809D01*
X214029Y186439D02*
Y201529D01*
X210177Y185500D02*
X213090D01*
X214029Y186439D01*
X209677Y185000D02*
X210177Y185500D01*
X279666Y193736D02*
X286783D01*
X288047Y195000D01*
X279638Y193764D02*
X279666Y193736D01*
X152500Y186500D02*
Y192500D01*
Y186500D02*
X164500Y174500D01*
X179500D01*
X185500Y180500D01*
X192000D02*
X201000Y189500D01*
X185500Y180500D02*
X192000D01*
X244177Y201666D02*
X244205Y201638D01*
X244177Y201666D02*
Y204559D01*
X338968Y219661D02*
X338997Y219689D01*
X380000Y239000D02*
X381500Y237500D01*
Y229500D02*
Y237500D01*
X376224Y226153D02*
X378153D01*
X381500Y229500D01*
X335003Y219634D02*
X335032Y219661D01*
X335003Y215997D02*
Y219634D01*
X361846Y232846D02*
X366776D01*
X369225Y229275D02*
X370000Y228500D01*
X369925Y226153D02*
X370000Y226228D01*
Y228500D01*
X335032Y207031D02*
X340500Y212500D01*
X358000D01*
X335032Y202339D02*
Y207031D01*
X373075Y232846D02*
X376224D01*
X369925D02*
X373075D01*
X366776D02*
X369925D01*
X338968Y202339D02*
Y205968D01*
X340500Y207500D01*
X373000D02*
X378000Y212500D01*
X340500Y207500D02*
X373000D01*
X388000Y212500D02*
Y216500D01*
X378000Y220000D02*
X384500D01*
X388000Y216500D01*
X376224Y221776D02*
X378000Y220000D01*
X376224Y221776D02*
Y226153D01*
X373075Y220425D02*
Y226153D01*
X377004Y213496D02*
X378000Y212500D01*
X377004Y213496D02*
Y216496D01*
X373075Y220425D02*
X377004Y216496D01*
X368000Y212500D02*
Y218626D01*
X369925Y220551D01*
Y226153D01*
X365500Y220000D02*
X366776Y221276D01*
Y226153D01*
X361000Y220000D02*
X365500D01*
X357500Y216500D02*
X361000Y220000D01*
X357500Y213000D02*
X358000Y212500D01*
X357500Y213000D02*
Y216500D01*
X223453Y198000D02*
X227000D01*
X234500Y205500D01*
X243236D01*
X327397Y272000D02*
X327500Y271897D01*
X285296Y183921D02*
X285323Y183894D01*
X279638Y183921D02*
X285296D01*
X279638Y181953D02*
X279666Y181925D01*
X279638Y191795D02*
X283246D01*
X284636Y190406D01*
X286232D01*
X288047Y188591D01*
Y188000D02*
Y188591D01*
X246000Y219500D02*
Y229098D01*
X198000Y214000D02*
X240500D01*
X246000Y219500D01*
X196000Y212000D02*
X198000Y214000D01*
X196000Y207500D02*
Y212000D01*
X228100Y194600D02*
X235138Y201638D01*
X228100Y192100D02*
Y194600D01*
X235138Y201638D02*
X242236D01*
X227000Y191000D02*
X228100Y192100D01*
X209677Y200000D02*
X211400D01*
X250110Y201638D02*
Y204890D01*
X243236Y205500D02*
X243616Y205120D01*
X243616D02*
X244177Y204559D01*
X243616Y205120D02*
X243616D01*
X223453Y191000D02*
X227000D01*
X168248Y200252D02*
Y200374D01*
Y184626D02*
X173169Y189547D01*
X188323Y190000D02*
X189823D01*
X181953D02*
X188323D01*
X173169Y189547D02*
X181500D01*
X188323Y195000D02*
X189823D01*
X181953D02*
X188323D01*
X181453Y195500D02*
X181500Y195453D01*
X173000Y195500D02*
X181453D01*
X195000Y200000D02*
X196500Y201500D01*
Y206453D01*
X201000Y177461D02*
Y189500D01*
X206500Y195000D01*
X181500Y195453D02*
X181953Y195000D01*
X181500Y189547D02*
X181953Y190000D01*
X189823Y200000D02*
X195000D01*
X206500Y195000D02*
X211177D01*
X198000Y108500D02*
Y154270D01*
X218000Y108500D02*
Y170283D01*
X221796Y174079D01*
X234362D01*
X208000Y108500D02*
Y162290D01*
X198000Y154270D02*
X221746Y178016D01*
X234362D01*
X208000Y162290D02*
X221757Y176047D01*
X234362D01*
X363323Y171500D02*
Y181177D01*
X361500Y183000D02*
X363323Y181177D01*
X362620Y184400D02*
X375100Y171920D01*
X321300Y185800D02*
X363200D01*
X321880Y184400D02*
X362620D01*
X320720Y187200D02*
X363800D01*
X363200Y185800D02*
X376500Y172500D01*
X363800Y187200D02*
X379500Y171500D01*
X363000Y133500D02*
X368000Y128500D01*
X378000D01*
X381000Y131500D01*
Y138500D01*
X375100Y144400D02*
X381000Y138500D01*
Y141500D02*
X384677D01*
X376500Y146000D02*
X381000Y141500D01*
X376500Y146000D02*
Y172500D01*
X384677Y141500D02*
X386400D01*
X375100Y144400D02*
Y171920D01*
X379500Y171500D02*
X384677D01*
X386400D01*
X279638Y170142D02*
X284142D01*
X280420Y153400D02*
X281600Y154580D01*
X269795Y156362D02*
X269823Y156334D01*
X270954Y152000D02*
X281000D01*
X269823Y153130D02*
Y156334D01*
Y153130D02*
X270954Y152000D01*
X272146Y153400D02*
X280420D01*
X271736Y153810D02*
Y156334D01*
Y153810D02*
X272146Y153400D01*
X271736Y156334D02*
X271764Y156362D01*
X289000Y148500D02*
Y148685D01*
X287185Y150500D02*
X288953Y148732D01*
X289000Y148685D01*
X265886Y152614D02*
X268000Y150500D01*
X287185D01*
X279638Y168173D02*
X288187D01*
X288953Y167408D01*
X271642Y145000D02*
X275142Y141500D01*
X257000Y149000D02*
X265000D01*
X269000Y145000D01*
X271642D01*
X275142Y141500D02*
X289000D01*
X288953Y148732D02*
Y155500D01*
X265886Y152614D02*
Y156334D01*
X265858Y156362D02*
X265886Y156334D01*
X254047Y151953D02*
X257000Y149000D01*
X254047Y151953D02*
Y156362D01*
X257000Y136516D02*
Y137500D01*
X252500Y132016D02*
X257000Y136516D01*
X252500Y123500D02*
Y132016D01*
X245000Y123453D02*
X245000Y123453D01*
X240858Y136516D02*
Y137500D01*
Y136516D02*
X245000Y132374D01*
Y123453D02*
Y132374D01*
X230000Y137047D02*
X240406D01*
X240858Y137500D01*
X257000D02*
Y147000D01*
X255000Y149000D02*
X257000Y147000D01*
X250000Y149000D02*
X255000D01*
X248142Y150858D02*
Y156362D01*
Y150858D02*
X250000Y149000D01*
X246145Y156334D02*
X246173Y156362D01*
X246145Y151145D02*
Y156334D01*
X244000Y149000D02*
X246145Y151145D01*
X232500Y149000D02*
X244000D01*
X230000Y146500D02*
X232500Y149000D01*
X230000Y142953D02*
Y146500D01*
X366500Y156500D02*
X369547Y153453D01*
X391500Y108500D02*
Y112500D01*
X424300Y121800D02*
Y143200D01*
X418468Y144500D02*
X423000D01*
X424300Y143200D01*
X418199Y149769D02*
X418685Y149283D01*
X425700Y121200D02*
Y143800D01*
X420217Y149283D02*
X425700Y143800D01*
X418685Y149283D02*
X420217D01*
X421000Y167000D02*
X428500Y159500D01*
Y120000D02*
Y159500D01*
X418321Y167000D02*
X421000D01*
X418561Y161760D02*
X424260D01*
X427100Y120580D02*
Y158920D01*
X424260Y161760D02*
X427100Y158920D01*
X417503Y109003D02*
X428500Y120000D01*
X413500Y108500D02*
X414003Y109003D01*
X417503D01*
X396500Y102500D02*
X397500Y103500D01*
X383000Y102500D02*
X396500D01*
X381500Y104000D02*
X383000Y102500D01*
X381500Y104000D02*
Y108500D01*
X418199Y144769D02*
X418468Y144500D01*
X418005Y162316D02*
X418561Y161760D01*
X418005Y167316D02*
X418321Y167000D01*
X363500Y114500D02*
X369500Y108500D01*
X345080Y124900D02*
X355480Y114500D01*
X363500D01*
X331000Y104000D02*
Y118500D01*
X320200Y129300D02*
X331000Y118500D01*
X320200Y129300D02*
Y159700D01*
X337431Y108500D02*
Y114069D01*
X321600Y129900D02*
Y153581D01*
Y129900D02*
X337431Y114069D01*
X330600Y124900D02*
X345080D01*
X330000Y123500D02*
X344500D01*
X359500Y108500D01*
X323000Y130500D02*
X330000Y123500D01*
X323000Y130500D02*
Y147905D01*
X324500Y131000D02*
X330600Y124900D01*
X324500Y131000D02*
Y144000D01*
X320200Y159700D02*
X328000Y167500D01*
X321600Y153581D02*
X330047Y162028D01*
X323000Y147905D02*
X326548Y151453D01*
X324500Y144000D02*
X326918Y146418D01*
X326548Y151453D02*
X329426D01*
X326918Y146418D02*
X329429D01*
X347431Y104431D02*
Y108500D01*
X345500Y102500D02*
X347431Y104431D01*
X332500Y102500D02*
X345500D01*
X331000Y104000D02*
X332500Y102500D01*
X328000Y167500D02*
X330047D01*
Y162028D02*
Y162422D01*
X336874Y161500D02*
X363323D01*
X330056Y172508D02*
X330064Y172500D01*
X332000D01*
X333000Y163500D02*
Y171500D01*
X332000Y172500D02*
X333000Y171500D01*
Y163500D02*
X334000Y162500D01*
X335874D02*
X335953Y162422D01*
X334000Y162500D02*
X335874D01*
X330056Y172508D02*
Y178053D01*
X329397Y178713D02*
X330056Y178053D01*
X335962Y172508D02*
Y178053D01*
X335302Y178713D02*
X335962Y178053D01*
X336453Y167000D02*
X362823D01*
X335953Y167500D02*
X336453Y167000D01*
X362823D02*
X363323Y166500D01*
X335953Y162422D02*
X336874Y161500D01*
X328652Y135318D02*
X329450Y136116D01*
Y141379D01*
X335356Y136116D02*
Y141379D01*
X334557Y135318D02*
X335356Y136116D01*
X329450Y141379D02*
X329572Y141500D01*
X331500D01*
X332178Y142178D01*
X335379Y151500D02*
X363323D01*
X333410Y151453D02*
X335331D01*
X332178Y150221D02*
X333410Y151453D01*
X332178Y142178D02*
Y150221D01*
X417987Y172314D02*
Y177395D01*
X418810Y178219D01*
X413100Y133734D02*
Y138962D01*
X412294Y139769D02*
X413100Y138962D01*
X418199Y134540D02*
X419005Y133734D01*
X418199Y134540D02*
Y139769D01*
X335331Y151453D02*
X335379Y151500D01*
X335335Y146418D02*
X363241D01*
X363323Y146500D01*
X393000Y149953D02*
X393184Y149769D01*
X393721Y144769D02*
X412294D01*
X393000Y144047D02*
X393721Y144769D01*
X386400Y141500D02*
X394165Y133734D01*
X413100D01*
X384677Y146500D02*
X388729D01*
X389367Y145863D01*
X391185D01*
X393000Y144047D01*
X384677Y151500D02*
X391453D01*
X393000Y149953D01*
X386400Y171500D02*
X394900Y180000D01*
X411123D01*
X412905Y178219D01*
X412081Y172314D02*
X412905Y173137D01*
Y178219D01*
X391008Y166905D02*
X392824Y168721D01*
X389135Y166905D02*
X391008D01*
X388729Y166500D02*
X389135Y166905D01*
X384677Y166500D02*
X388729D01*
X394229Y167316D02*
X412100D01*
X392824Y168721D02*
X394229Y167316D01*
X417801Y172500D02*
X417987Y172314D01*
X416500Y172500D02*
X417801D01*
X415250Y171250D02*
X416500Y172500D01*
X415250Y163750D02*
Y171250D01*
X414000Y162500D02*
X415250Y163750D01*
X412100Y162316D02*
X412284Y162500D01*
X414000D01*
X392824Y162815D02*
X412099D01*
X384677Y161500D02*
X391508D01*
X392824Y162815D01*
X363000Y133500D02*
Y141177D01*
X363323Y141500D01*
D36*
X348000Y220547D02*
D03*
Y226453D02*
D03*
X400264Y174342D02*
D03*
Y168436D02*
D03*
X347000Y138894D02*
D03*
Y144800D02*
D03*
X392824Y168721D02*
D03*
Y162815D02*
D03*
X354500Y144895D02*
D03*
Y150800D02*
D03*
X400305Y137926D02*
D03*
Y143831D02*
D03*
X347060Y174310D02*
D03*
Y168405D02*
D03*
X393000Y144047D02*
D03*
Y149953D02*
D03*
X354500Y168721D02*
D03*
Y162815D02*
D03*
X245000Y117547D02*
D03*
Y123453D02*
D03*
X252500Y117595D02*
D03*
Y123500D02*
D03*
X226000Y164547D02*
D03*
Y170453D02*
D03*
D37*
X369547Y134500D02*
D03*
X375453D02*
D03*
X412905Y178219D02*
D03*
X418810D02*
D03*
X328652Y135318D02*
D03*
X334557D02*
D03*
X413100Y133734D02*
D03*
X419005D02*
D03*
X329397Y178713D02*
D03*
X335302D02*
D03*
X200500Y176000D02*
D03*
X194595D02*
D03*
X196000Y207500D02*
D03*
X201905D02*
D03*
X289139Y136261D02*
D03*
X295044D02*
D03*
X223453Y191000D02*
D03*
X217547D02*
D03*
X288047Y195000D02*
D03*
X293953D02*
D03*
X289047Y168000D02*
D03*
X294953D02*
D03*
X294905Y148500D02*
D03*
X289000D02*
D03*
X217547Y198000D02*
D03*
X223453D02*
D03*
X293953Y188000D02*
D03*
X288047D02*
D03*
X288953Y155500D02*
D03*
X294858D02*
D03*
D38*
X240858Y137500D02*
D03*
X257000D02*
D03*
D39*
X255055Y253902D02*
D03*
X246000D02*
D03*
X236945D02*
D03*
D40*
X246000Y229098D02*
D03*
D41*
X333063Y219661D02*
D03*
X335032D02*
D03*
X337000D02*
D03*
X338968D02*
D03*
X340937D02*
D03*
Y202339D02*
D03*
X338968D02*
D03*
X337000D02*
D03*
X335032D02*
D03*
X333063D02*
D03*
D42*
X384677Y171500D02*
D03*
Y166500D02*
D03*
Y161500D02*
D03*
Y156500D02*
D03*
Y151500D02*
D03*
Y146500D02*
D03*
Y141500D02*
D03*
X363323D02*
D03*
Y146500D02*
D03*
Y151500D02*
D03*
Y156500D02*
D03*
Y161500D02*
D03*
Y166500D02*
D03*
Y171500D02*
D03*
X188323Y185000D02*
D03*
Y190000D02*
D03*
Y195000D02*
D03*
Y200000D02*
D03*
X209677D02*
D03*
Y195000D02*
D03*
Y190000D02*
D03*
Y185000D02*
D03*
D43*
X271764Y156362D02*
D03*
X269795D02*
D03*
X267827D02*
D03*
X265858D02*
D03*
X263890D02*
D03*
X261921D02*
D03*
X259953D02*
D03*
X257984D02*
D03*
X256016D02*
D03*
X254047D02*
D03*
X252079D02*
D03*
X250110D02*
D03*
X248142D02*
D03*
X246173D02*
D03*
X244205D02*
D03*
X242236D02*
D03*
X271764Y201638D02*
D03*
X269795D02*
D03*
X267827D02*
D03*
X265858D02*
D03*
X263890D02*
D03*
X261921D02*
D03*
X259953D02*
D03*
X257984D02*
D03*
X256016D02*
D03*
X254047D02*
D03*
X252079D02*
D03*
X250110D02*
D03*
X248142D02*
D03*
X246173D02*
D03*
X244205D02*
D03*
X242236D02*
D03*
D44*
X279638Y178016D02*
D03*
Y176047D02*
D03*
Y174079D02*
D03*
Y172110D02*
D03*
Y170142D02*
D03*
Y168173D02*
D03*
Y166205D02*
D03*
Y164236D02*
D03*
Y193764D02*
D03*
Y191795D02*
D03*
Y189827D02*
D03*
Y187858D02*
D03*
Y185890D02*
D03*
Y183921D02*
D03*
Y181953D02*
D03*
Y179984D02*
D03*
X234362Y193764D02*
D03*
Y191795D02*
D03*
Y189827D02*
D03*
Y187858D02*
D03*
Y185890D02*
D03*
Y183921D02*
D03*
Y181953D02*
D03*
Y179984D02*
D03*
Y178016D02*
D03*
Y176047D02*
D03*
Y174079D02*
D03*
Y172110D02*
D03*
Y170142D02*
D03*
Y168173D02*
D03*
Y166205D02*
D03*
Y164236D02*
D03*
D45*
X273000Y111358D02*
D03*
Y143642D02*
D03*
D46*
X376224Y232846D02*
D03*
X373075D02*
D03*
X369925D02*
D03*
X366776D02*
D03*
Y226153D02*
D03*
X369925D02*
D03*
X373075D02*
D03*
X376224D02*
D03*
D47*
X406823Y173721D02*
D03*
Y167815D02*
D03*
X340500Y139894D02*
D03*
Y145800D02*
D03*
X406953Y138757D02*
D03*
Y144662D02*
D03*
X340648Y173744D02*
D03*
Y167839D02*
D03*
X230000Y137047D02*
D03*
Y142953D02*
D03*
X181500Y195453D02*
D03*
Y189547D02*
D03*
D48*
X418005Y167316D02*
D03*
X412100D02*
D03*
X329429Y146418D02*
D03*
X335335D02*
D03*
X418005Y162316D02*
D03*
X412100D02*
D03*
X329426Y151453D02*
D03*
X335331D02*
D03*
X417987Y172314D02*
D03*
X412081D02*
D03*
X329450Y141379D02*
D03*
X335356D02*
D03*
X418199Y144769D02*
D03*
X412294D02*
D03*
X330047Y167500D02*
D03*
X335953D02*
D03*
X418199Y149769D02*
D03*
X412294D02*
D03*
X330047Y162422D02*
D03*
X335953D02*
D03*
X418199Y139769D02*
D03*
X412294D02*
D03*
X330056Y172508D02*
D03*
X335962D02*
D03*
X294453Y142000D02*
D03*
X288547D02*
D03*
D49*
X279000Y251811D02*
D03*
Y228189D02*
D03*
X212000Y251811D02*
D03*
Y228189D02*
D03*
D50*
X152500Y192500D02*
X153500D01*
X160000Y199000D02*
Y207874D01*
X168248Y216122D01*
X153500Y192500D02*
X160000Y199000D01*
X254402Y229098D02*
X279610Y203890D01*
X246000Y229098D02*
X254402D01*
X279610Y194164D02*
Y203890D01*
Y194164D02*
X279638Y194136D01*
X187000Y272000D02*
X187500Y272500D01*
X245330Y263330D02*
X246500Y264500D01*
X246245Y272630D02*
X246500Y272375D01*
Y264500D02*
Y272375D01*
X245330Y263330D02*
X254330D01*
X236945D02*
X245330D01*
X232500Y266500D02*
X236945Y262055D01*
X259500Y268500D02*
Y272500D01*
X254330Y263330D02*
X259500Y268500D01*
X236945Y262055D02*
Y263330D01*
Y253902D02*
Y262055D01*
X232500Y272513D02*
X232617Y272630D01*
X232500Y266500D02*
Y272513D01*
X218039Y261000D02*
X218121D01*
X219000Y272357D02*
X219273Y272630D01*
X219000Y261879D02*
Y272357D01*
X218121Y261000D02*
X219000Y261879D01*
X212000Y251811D02*
Y254961D01*
X218039Y261000D01*
X205500Y261461D02*
Y272630D01*
Y261461D02*
X212000Y254961D01*
X281793Y257754D02*
X290500Y266461D01*
X304000Y265500D02*
Y272000D01*
X279000Y251811D02*
Y254961D01*
X281793Y257754D01*
X296254D01*
X304000Y265500D01*
X279000Y254961D02*
Y272000D01*
X290500Y271000D02*
X291500Y272000D01*
X290500Y266461D02*
Y271000D01*
X246000Y241500D02*
Y253902D01*
Y229098D02*
Y241500D01*
X271311Y251811D02*
X279000D01*
X261000Y241500D02*
X271311Y251811D01*
X246000Y241500D02*
X261000D01*
X168248Y216122D02*
X203937Y251811D01*
X212000D01*
X235825D01*
X236945Y252931D01*
Y253902D01*
D51*
X144626Y216122D02*
X152500Y208248D01*
X136752Y216122D02*
X144626D01*
X150622D02*
X187000Y252500D01*
Y272000D01*
X144626Y216122D02*
X150622D01*
D52*
X150531Y241713D02*
D03*
Y159035D02*
D03*
D53*
X136752Y184626D02*
D03*
Y200374D02*
D03*
Y216122D02*
D03*
X152500Y192500D02*
D03*
Y208248D02*
D03*
X168248Y184626D02*
D03*
Y200374D02*
D03*
Y216122D02*
D03*
D54*
X259500Y282500D02*
D03*
X246245Y282630D02*
D03*
X304000Y282000D02*
D03*
X232617Y282630D02*
D03*
X291500Y282000D02*
D03*
X219273Y282630D02*
D03*
X187500Y282500D02*
D03*
X279000Y282000D02*
D03*
X205500Y282630D02*
D03*
X327397Y282000D02*
D03*
X339838D02*
D03*
X352278D02*
D03*
X218000Y108500D02*
D03*
X208000D02*
D03*
X413500D02*
D03*
X301500D02*
D03*
X311500D02*
D03*
X321500D02*
D03*
X391500D02*
D03*
X369500D02*
D03*
X347431D02*
D03*
X368000Y202500D02*
D03*
X378000D02*
D03*
X388000D02*
D03*
X358000Y212500D02*
D03*
X368000D02*
D03*
X378000D02*
D03*
X388000D02*
D03*
D55*
X259500Y272500D02*
D03*
X246245Y272630D02*
D03*
X304000Y272000D02*
D03*
X232617Y272630D02*
D03*
X291500Y272000D02*
D03*
X219273Y272630D02*
D03*
X187500Y272500D02*
D03*
X279000Y272000D02*
D03*
X205500Y272630D02*
D03*
X327397Y272000D02*
D03*
X339838D02*
D03*
X352278D02*
D03*
D56*
X198000Y108500D02*
D03*
X403500D02*
D03*
X291500D02*
D03*
X381500D02*
D03*
X359500D02*
D03*
X337431D02*
D03*
X358000Y202500D02*
D03*
D57*
X373000Y142000D02*
D03*
X300500Y169500D02*
D03*
X353750Y228012D02*
D03*
X355000Y177000D02*
D03*
X393500Y174000D02*
D03*
X394500Y138500D02*
D03*
X221000Y168500D02*
D03*
X208500Y211000D02*
D03*
X371000Y161000D02*
D03*
X360000Y229000D02*
D03*
X346500Y202000D02*
D03*
X350000Y237500D02*
D03*
X328000Y208000D02*
D03*
X320750Y207500D02*
D03*
X264704Y211204D02*
D03*
X268500Y208500D02*
D03*
X261000Y213000D02*
D03*
X240508Y178992D02*
D03*
X241000Y184000D02*
D03*
X272471Y185336D02*
D03*
X268500Y185500D02*
D03*
X260000Y186000D02*
D03*
X264500Y185500D02*
D03*
X180500Y181500D02*
D03*
X358000Y137500D02*
D03*
D58*
X402728Y155626D02*
D03*
X322500Y195000D02*
D03*
X309000Y157000D02*
D03*
X195000Y223500D02*
D03*
X426000Y105000D02*
D03*
X375500Y121500D02*
D03*
X253500Y175000D02*
D03*
X306500Y126000D02*
D03*
X232000Y117000D02*
D03*
X187000Y146000D02*
D03*
X152500Y108000D02*
D03*
X145500Y290000D02*
D03*
X228500Y221000D02*
D03*
X291000Y222000D02*
D03*
X308000Y241000D02*
D03*
X402500Y223000D02*
D03*
X397000Y267000D02*
D03*
M02*
