G04*
G04 #@! TF.GenerationSoftware,Altium Limited,Altium Designer,20.1.11 (218)*
G04*
G04 Layer_Color=16711935*
%FSLAX25Y25*%
%MOIN*%
G70*
G04*
G04 #@! TF.SameCoordinates,2A16CBDB-C64F-4E12-ACEB-A9EF2D748E26*
G04*
G04*
G04 #@! TF.FilePolarity,Positive*
G04*
G01*
G75*
%ADD11C,0.00394*%
%ADD13C,0.00787*%
%ADD59C,0.00100*%
D11*
X345146Y219169D02*
X350854D01*
X345146Y227831D02*
X350854D01*
X345146Y219169D02*
Y227831D01*
X350854Y219169D02*
Y227831D01*
X368169Y131646D02*
Y137354D01*
X376831Y131646D02*
Y137354D01*
X368169D02*
X376831D01*
X368169Y131646D02*
X376831D01*
X258795Y234610D02*
Y248390D01*
X233205Y234610D02*
X258795D01*
X233205D02*
Y248390D01*
X258795D01*
X249740D02*
X258795Y239335D01*
X331095Y207063D02*
X333063Y205095D01*
X331095D02*
X342905D01*
Y216905D01*
X331095D02*
X342905D01*
X331095Y205095D02*
Y216905D01*
X366323Y168528D02*
X371323Y173528D01*
X366323Y139472D02*
Y173528D01*
Y139472D02*
X381677D01*
Y173528D01*
X366323D02*
X381677D01*
X201677Y182854D02*
X206677Y187854D01*
Y182854D02*
Y202146D01*
X191323D02*
X206677D01*
X191323Y182854D02*
Y202146D01*
Y182854D02*
X206677D01*
X408694Y167422D02*
Y174115D01*
X404953Y167422D02*
Y174115D01*
X408694D01*
X404953Y167422D02*
X408694D01*
X338630Y139501D02*
Y146194D01*
X342370Y139501D02*
Y146194D01*
X338630Y139501D02*
X342370D01*
X338630Y146194D02*
X342370D01*
X411706Y165446D02*
X418399D01*
X411706Y169186D02*
X418399D01*
Y165446D02*
Y169186D01*
X411706Y165446D02*
Y169186D01*
X329035Y148288D02*
X335728D01*
X329035Y144548D02*
X335728D01*
X329035D02*
Y148288D01*
X335728Y144548D02*
Y148288D01*
X411706Y160446D02*
X418399D01*
X411706Y164186D02*
X418399D01*
Y160446D02*
Y164186D01*
X411706Y160446D02*
Y164186D01*
X329032Y153323D02*
X335725D01*
X329032Y149582D02*
X335725D01*
X329032D02*
Y153323D01*
X335725Y149582D02*
Y153323D01*
X411688Y170443D02*
X418381D01*
X411688Y174184D02*
X418381D01*
Y170443D02*
Y174184D01*
X411688Y170443D02*
Y174184D01*
X329057Y143249D02*
X335749D01*
X329057Y139508D02*
X335749D01*
X329057D02*
Y143249D01*
X335749Y139508D02*
Y143249D01*
X405083Y138363D02*
Y145056D01*
X408823Y138363D02*
Y145056D01*
X405083Y138363D02*
X408823D01*
X405083Y145056D02*
X408823D01*
X342518Y167445D02*
Y174138D01*
X338778Y167445D02*
Y174138D01*
X342518D01*
X338778Y167445D02*
X342518D01*
X411900Y142899D02*
X418593D01*
X411900Y146639D02*
X418593D01*
Y142899D02*
Y146639D01*
X411900Y142899D02*
Y146639D01*
X329654Y169370D02*
X336347D01*
X329654Y165630D02*
X336347D01*
X329654D02*
Y169370D01*
X336347Y165630D02*
Y169370D01*
X411900Y147899D02*
X418593D01*
X411900Y151639D02*
X418593D01*
Y147899D02*
Y151639D01*
X411900Y147899D02*
Y151639D01*
X329654Y164292D02*
X336347D01*
X329654Y160552D02*
X336347D01*
X329654D02*
Y164292D01*
X336347Y160552D02*
Y164292D01*
X411900Y137899D02*
X418593D01*
X411900Y141639D02*
X418593D01*
Y137899D02*
Y141639D01*
X411900Y137899D02*
Y141639D01*
X329662Y174378D02*
X336355D01*
X329662Y170638D02*
X336355D01*
X329662D02*
Y174378D01*
X336355Y170638D02*
Y174378D01*
X228130Y136653D02*
Y143347D01*
X231870Y136653D02*
Y143347D01*
X228130Y136653D02*
X231870D01*
X228130Y143347D02*
X231870D01*
X183370Y189154D02*
Y195846D01*
X179630Y189154D02*
Y195846D01*
X183370D01*
X179630Y189154D02*
X183370D01*
X288154Y140130D02*
X294847D01*
X288154Y143870D02*
X294847D01*
Y140130D02*
Y143870D01*
X288154Y140130D02*
Y143870D01*
X291992Y227008D02*
Y246496D01*
X285496Y252992D02*
X291992Y246496D01*
X272504Y252992D02*
X285496D01*
X266008Y246496D02*
X272504Y252992D01*
X266008Y227008D02*
Y246496D01*
Y227008D02*
X291992D01*
X224992D02*
Y246496D01*
X218496Y252992D02*
X224992Y246496D01*
X205504Y252992D02*
X218496D01*
X199008Y246496D02*
X205504Y252992D01*
X199008Y227008D02*
Y246496D01*
Y227008D02*
X224992D01*
X397410Y175720D02*
X403119D01*
X397410Y167058D02*
X403119D01*
Y175720D01*
X397410Y167058D02*
Y175720D01*
X344146Y137516D02*
X349854D01*
X344146Y146178D02*
X349854D01*
X344146Y137516D02*
Y146178D01*
X349854Y137516D02*
Y146178D01*
X389969Y170099D02*
X395678D01*
X389969Y161437D02*
X395678D01*
Y170099D01*
X389969Y161437D02*
Y170099D01*
X351646Y143517D02*
X357354D01*
X351646Y152178D02*
X357354D01*
X351646Y143517D02*
Y152178D01*
X357354Y143517D02*
Y152178D01*
X411526Y175364D02*
Y181073D01*
X420188Y175364D02*
Y181073D01*
X411526D02*
X420188D01*
X411526Y175364D02*
X420188D01*
X327274Y132463D02*
Y138172D01*
X335935Y132463D02*
Y138172D01*
X327274D02*
X335935D01*
X327274Y132463D02*
X335935D01*
X397451Y136548D02*
X403159D01*
X397451Y145209D02*
X403159D01*
X397451Y136548D02*
Y145209D01*
X403159Y136548D02*
Y145209D01*
X344206Y175688D02*
X349915D01*
X344206Y167027D02*
X349915D01*
Y175688D01*
X344206Y167027D02*
Y175688D01*
X390146Y142669D02*
X395854D01*
X390146Y151331D02*
X395854D01*
X390146Y142669D02*
Y151331D01*
X395854Y142669D02*
Y151331D01*
X351646Y170099D02*
X357354D01*
X351646Y161437D02*
X357354D01*
Y170099D01*
X351646Y161437D02*
Y170099D01*
X411722Y130880D02*
Y136589D01*
X420383Y130880D02*
Y136589D01*
X411722D02*
X420383D01*
X411722Y130880D02*
X420383D01*
X328019Y175859D02*
Y181567D01*
X336680Y175859D02*
Y181567D01*
X328019D02*
X336680D01*
X328019Y175859D02*
X336680D01*
X242146Y116169D02*
X247854D01*
X242146Y124831D02*
X247854D01*
X242146Y116169D02*
Y124831D01*
X247854Y116169D02*
Y124831D01*
X249646Y116217D02*
X255354D01*
X249646Y124878D02*
X255354D01*
X249646Y116217D02*
Y124878D01*
X255354Y116217D02*
Y124878D01*
X201878Y173146D02*
Y178854D01*
X193217Y173146D02*
Y178854D01*
Y173146D02*
X201878D01*
X193217Y178854D02*
X201878D01*
X194622Y204646D02*
Y210354D01*
X203284Y204646D02*
Y210354D01*
X194622D02*
X203284D01*
X194622Y204646D02*
X203284D01*
X223146Y163169D02*
X228854D01*
X223146Y171831D02*
X228854D01*
X223146Y163169D02*
Y171831D01*
X228854Y163169D02*
Y171831D01*
X287761Y133407D02*
Y139116D01*
X296422Y133407D02*
Y139116D01*
X287761D02*
X296422D01*
X287761Y133407D02*
X296422D01*
X224831Y188146D02*
Y193854D01*
X216169Y188146D02*
Y193854D01*
Y188146D02*
X224831D01*
X216169Y193854D02*
X224831D01*
X286669Y192146D02*
Y197854D01*
X295331Y192146D02*
Y197854D01*
X286669D02*
X295331D01*
X286669Y192146D02*
X295331D01*
X287669Y165146D02*
Y170854D01*
X296331Y165146D02*
Y170854D01*
X287669D02*
X296331D01*
X287669Y165146D02*
X296331D01*
X296283Y145646D02*
Y151354D01*
X287622Y145646D02*
Y151354D01*
Y145646D02*
X296283D01*
X287622Y151354D02*
X296283D01*
X216169Y195146D02*
Y200854D01*
X224831Y195146D02*
Y200854D01*
X216169D02*
X224831D01*
X216169Y195146D02*
X224831D01*
X295331Y185146D02*
Y190854D01*
X286669Y185146D02*
Y190854D01*
Y185146D02*
X295331D01*
X286669Y190854D02*
X295331D01*
X287575Y152646D02*
Y158354D01*
X296236Y152646D02*
Y158354D01*
X287575D02*
X296236D01*
X287575Y152646D02*
X296236D01*
D13*
X239087Y143799D02*
X258772D01*
Y131201D02*
Y143799D01*
X239087Y131201D02*
X258772D01*
X239087D02*
Y143799D01*
X365201Y226350D02*
X377799D01*
X365201D02*
Y232650D01*
X377799D01*
Y226350D02*
Y232650D01*
D59*
X103091Y154324D02*
Y246424D01*
Y120074D02*
X176291D01*
X103091D02*
Y280674D01*
X176291D01*
Y120074D02*
Y280674D01*
M02*
