G04*
G04 #@! TF.GenerationSoftware,Altium Limited,Altium Designer,20.1.11 (218)*
G04*
G04 Layer_Color=32768*
%FSLAX25Y25*%
%MOIN*%
G70*
G04*
G04 #@! TF.SameCoordinates,2A16CBDB-C64F-4E12-ACEB-A9EF2D748E26*
G04*
G04*
G04 #@! TF.FilePolarity,Positive*
G04*
G01*
G75*
%ADD11C,0.00394*%
%ADD12C,0.00600*%
%ADD14C,0.00700*%
%ADD60C,0.00197*%
D11*
X344850Y217988D02*
X351150D01*
X344850Y229012D02*
X351150D01*
X344850Y217988D02*
Y229012D01*
X351150Y217988D02*
Y229012D01*
X348000Y221532D02*
Y225468D01*
X346031Y223500D02*
X349969D01*
X366988Y131350D02*
Y137650D01*
X378012Y131350D02*
Y137650D01*
X366988D02*
X378012D01*
X366988Y131350D02*
X378012D01*
X370532Y134500D02*
X374468D01*
X372500Y132531D02*
Y136469D01*
X233181Y147736D02*
X264677D01*
Y127264D02*
Y147736D01*
X233181Y127264D02*
X264677D01*
X233181D02*
Y147736D01*
X363232Y222413D02*
X379768D01*
X363232D02*
Y237374D01*
X379768D01*
Y222413D02*
Y237374D01*
X404953Y170768D02*
X408694D01*
X406823Y168898D02*
Y172638D01*
X408989Y166044D02*
Y175493D01*
X404658Y166044D02*
Y175493D01*
X408989D01*
X404658Y166044D02*
X408989D01*
X338630Y142847D02*
X342370D01*
X340500Y140977D02*
Y144717D01*
X338335Y138123D02*
Y147572D01*
X342665Y138123D02*
Y147572D01*
X338335Y138123D02*
X342665D01*
X338335Y147572D02*
X342665D01*
X415052Y165446D02*
Y169186D01*
X413182Y167316D02*
X416922D01*
X410328Y165150D02*
X419777D01*
X410328Y169481D02*
X419777D01*
Y165150D02*
Y169481D01*
X410328Y165150D02*
Y169481D01*
X332382Y144548D02*
Y148288D01*
X330512Y146418D02*
X334252D01*
X327658Y148584D02*
X337106D01*
X327658Y144253D02*
X337106D01*
X327658D02*
Y148584D01*
X337106Y144253D02*
Y148584D01*
X415052Y160446D02*
Y164186D01*
X413182Y162316D02*
X416922D01*
X410328Y160150D02*
X419777D01*
X410328Y164481D02*
X419777D01*
Y160150D02*
Y164481D01*
X410328Y160150D02*
Y164481D01*
X332379Y149582D02*
Y153323D01*
X330508Y151453D02*
X334249D01*
X327654Y153618D02*
X337103D01*
X327654Y149287D02*
X337103D01*
X327654D02*
Y153618D01*
X337103Y149287D02*
Y153618D01*
X415034Y170443D02*
Y174184D01*
X413164Y172314D02*
X416904D01*
X410310Y170148D02*
X419759D01*
X410310Y174479D02*
X419759D01*
Y170148D02*
Y174479D01*
X410310Y170148D02*
Y174479D01*
X332403Y139508D02*
Y143249D01*
X330533Y141379D02*
X334273D01*
X327678Y143544D02*
X337127D01*
X327678Y139213D02*
X337127D01*
X327678D02*
Y143544D01*
X337127Y139213D02*
Y143544D01*
X405083Y141710D02*
X408823D01*
X406953Y139839D02*
Y143580D01*
X404788Y136985D02*
Y146434D01*
X409118Y136985D02*
Y146434D01*
X404788Y136985D02*
X409118D01*
X404788Y146434D02*
X409118D01*
X338778Y170792D02*
X342518D01*
X340648Y168921D02*
Y172662D01*
X342813Y166067D02*
Y175516D01*
X338483Y166067D02*
Y175516D01*
X342813D01*
X338483Y166067D02*
X342813D01*
X415246Y142899D02*
Y146639D01*
X413376Y144769D02*
X417116D01*
X410522Y142603D02*
X419971D01*
X410522Y146934D02*
X419971D01*
Y142603D02*
Y146934D01*
X410522Y142603D02*
Y146934D01*
X333000Y165630D02*
Y169370D01*
X331130Y167500D02*
X334870D01*
X328276Y169665D02*
X337724D01*
X328276Y165335D02*
X337724D01*
X328276D02*
Y169665D01*
X337724Y165335D02*
Y169665D01*
X415246Y147899D02*
Y151639D01*
X413376Y149769D02*
X417116D01*
X410522Y147603D02*
X419971D01*
X410522Y151934D02*
X419971D01*
Y147603D02*
Y151934D01*
X410522Y147603D02*
Y151934D01*
X333000Y160552D02*
Y164292D01*
X331130Y162422D02*
X334870D01*
X328276Y164587D02*
X337724D01*
X328276Y160256D02*
X337724D01*
X328276D02*
Y164587D01*
X337724Y160256D02*
Y164587D01*
X415246Y137899D02*
Y141639D01*
X413376Y139769D02*
X417116D01*
X410522Y137603D02*
X419971D01*
X410522Y141934D02*
X419971D01*
Y137603D02*
Y141934D01*
X410522Y137603D02*
Y141934D01*
X333009Y170638D02*
Y174378D01*
X331139Y172508D02*
X334879D01*
X328284Y174673D02*
X337733D01*
X328284Y170343D02*
X337733D01*
X328284D02*
Y174673D01*
X337733Y170343D02*
Y174673D01*
X228130Y140000D02*
X231870D01*
X230000Y138130D02*
Y141870D01*
X227835Y135276D02*
Y144724D01*
X232165Y135276D02*
Y144724D01*
X227835Y135276D02*
X232165D01*
X227835Y144724D02*
X232165D01*
X179630Y192500D02*
X183370D01*
X181500Y190630D02*
Y194370D01*
X183665Y187776D02*
Y197224D01*
X179335Y187776D02*
Y197224D01*
X183665D01*
X179335Y187776D02*
X183665D01*
X291500Y140130D02*
Y143870D01*
X289630Y142000D02*
X293370D01*
X286776Y139835D02*
X296224D01*
X286776Y144165D02*
X296224D01*
Y139835D02*
Y144165D01*
X286776Y139835D02*
Y144165D01*
X397114Y176901D02*
X403414D01*
X397114Y165877D02*
X403414D01*
Y176901D01*
X397114Y165877D02*
Y176901D01*
X400264Y169420D02*
Y173357D01*
X398296Y171389D02*
X402233D01*
X343850Y136335D02*
X350150D01*
X343850Y147359D02*
X350150D01*
X343850Y136335D02*
Y147359D01*
X350150Y136335D02*
Y147359D01*
X347000Y139879D02*
Y143816D01*
X345031Y141847D02*
X348969D01*
X389674Y171280D02*
X395973D01*
X389674Y160256D02*
X395973D01*
Y171280D01*
X389674Y160256D02*
Y171280D01*
X392824Y163800D02*
Y167737D01*
X390855Y165768D02*
X394792D01*
X351350Y142335D02*
X357650D01*
X351350Y153359D02*
X357650D01*
X351350Y142335D02*
Y153359D01*
X357650Y142335D02*
Y153359D01*
X354500Y145879D02*
Y149816D01*
X352532Y147847D02*
X356469D01*
X410345Y175069D02*
Y181368D01*
X421369Y175069D02*
Y181368D01*
X410345D02*
X421369D01*
X410345Y175069D02*
X421369D01*
X413889Y178219D02*
X417826D01*
X415857Y176250D02*
Y180187D01*
X326093Y132168D02*
Y138467D01*
X337116Y132168D02*
Y138467D01*
X326093D02*
X337116D01*
X326093Y132168D02*
X337116D01*
X329636Y135318D02*
X333573D01*
X331605Y133349D02*
Y137286D01*
X397155Y135367D02*
X403455D01*
X397155Y146390D02*
X403455D01*
X397155Y135367D02*
Y146390D01*
X403455Y135367D02*
Y146390D01*
X400305Y138910D02*
Y142847D01*
X398337Y140879D02*
X402274D01*
X343911Y176869D02*
X350210D01*
X343911Y165846D02*
X350210D01*
Y176869D01*
X343911Y165846D02*
Y176869D01*
X347060Y169389D02*
Y173326D01*
X345092Y171357D02*
X349029D01*
X389850Y141488D02*
X396150D01*
X389850Y152512D02*
X396150D01*
X389850Y141488D02*
Y152512D01*
X396150Y141488D02*
Y152512D01*
X393000Y145031D02*
Y148969D01*
X391032Y147000D02*
X394969D01*
X351350Y171280D02*
X357650D01*
X351350Y160256D02*
X357650D01*
Y171280D01*
X351350Y160256D02*
Y171280D01*
X354500Y163800D02*
Y167737D01*
X352532Y165768D02*
X356469D01*
X410541Y130585D02*
Y136884D01*
X421564Y130585D02*
Y136884D01*
X410541D02*
X421564D01*
X410541Y130585D02*
X421564D01*
X414084Y133734D02*
X418021D01*
X416053Y131766D02*
Y135703D01*
X326837Y175563D02*
Y181863D01*
X337861Y175563D02*
Y181863D01*
X326837D02*
X337861D01*
X326837Y175563D02*
X337861D01*
X330381Y178713D02*
X334318D01*
X332349Y176744D02*
Y180682D01*
X241850Y114988D02*
X248150D01*
X241850Y126012D02*
X248150D01*
X241850Y114988D02*
Y126012D01*
X248150Y114988D02*
Y126012D01*
X245000Y118532D02*
Y122468D01*
X243032Y120500D02*
X246969D01*
X249350Y115035D02*
X255650D01*
X249350Y126059D02*
X255650D01*
X249350Y115035D02*
Y126059D01*
X255650Y115035D02*
Y126059D01*
X252500Y118579D02*
Y122516D01*
X250532Y120547D02*
X254468D01*
X203059Y172850D02*
Y179150D01*
X192035Y172850D02*
Y179150D01*
Y172850D02*
X203059D01*
X192035Y179150D02*
X203059D01*
X195579Y176000D02*
X199516D01*
X197547Y174031D02*
Y177969D01*
X193441Y204350D02*
Y210650D01*
X204465Y204350D02*
Y210650D01*
X193441D02*
X204465D01*
X193441Y204350D02*
X204465D01*
X196984Y207500D02*
X200921D01*
X198953Y205532D02*
Y209469D01*
X222850Y161988D02*
X229150D01*
X222850Y173012D02*
X229150D01*
X222850Y161988D02*
Y173012D01*
X229150Y161988D02*
Y173012D01*
X226000Y165532D02*
Y169468D01*
X224031Y167500D02*
X227969D01*
X286580Y133112D02*
Y139411D01*
X297604Y133112D02*
Y139411D01*
X286580D02*
X297604D01*
X286580Y133112D02*
X297604D01*
X290123Y136261D02*
X294060D01*
X292092Y134293D02*
Y138230D01*
X226012Y187850D02*
Y194150D01*
X214988Y187850D02*
Y194150D01*
Y187850D02*
X226012D01*
X214988Y194150D02*
X226012D01*
X218531Y191000D02*
X222468D01*
X220500Y189032D02*
Y192968D01*
X285488Y191850D02*
Y198150D01*
X296512Y191850D02*
Y198150D01*
X285488D02*
X296512D01*
X285488Y191850D02*
X296512D01*
X289032Y195000D02*
X292969D01*
X291000Y193032D02*
Y196968D01*
X286488Y164850D02*
Y171150D01*
X297512Y164850D02*
Y171150D01*
X286488D02*
X297512D01*
X286488Y164850D02*
X297512D01*
X290032Y168000D02*
X293969D01*
X292000Y166032D02*
Y169968D01*
X297465Y145350D02*
Y151650D01*
X286441Y145350D02*
Y151650D01*
Y145350D02*
X297465D01*
X286441Y151650D02*
X297465D01*
X289984Y148500D02*
X293921D01*
X291953Y146531D02*
Y150469D01*
X214988Y194850D02*
Y201150D01*
X226012Y194850D02*
Y201150D01*
X214988D02*
X226012D01*
X214988Y194850D02*
X226012D01*
X218531Y198000D02*
X222468D01*
X220500Y196031D02*
Y199969D01*
X296512Y184850D02*
Y191150D01*
X285488Y184850D02*
Y191150D01*
Y184850D02*
X296512D01*
X285488Y191150D02*
X296512D01*
X289032Y188000D02*
X292969D01*
X291000Y186031D02*
Y189969D01*
X286394Y152350D02*
Y158650D01*
X297417Y152350D02*
Y158650D01*
X286394D02*
X297417D01*
X286394Y152350D02*
X297417D01*
X289937Y155500D02*
X293874D01*
X291905Y153532D02*
Y157468D01*
D12*
X177291Y119074D02*
Y281674D01*
D14*
X102800D02*
X177291D01*
X102248Y281122D02*
X102800Y281674D01*
X102248Y119122D02*
Y281122D01*
Y119122D02*
X102296Y119074D01*
X177291D01*
D60*
X260173Y224669D02*
Y258331D01*
X231827Y224669D02*
X260173D01*
X231827D02*
Y258331D01*
X260173D01*
X329913Y198598D02*
X344087D01*
Y223402D01*
X329913D02*
X344087D01*
X329913Y198598D02*
Y223402D01*
X359335Y138291D02*
Y174709D01*
Y138291D02*
X388665D01*
Y174709D01*
X359335D02*
X388665D01*
X213665Y181673D02*
Y203327D01*
X184335D02*
X213665D01*
X184335Y181673D02*
Y203327D01*
Y181673D02*
X213665D01*
X294354Y219528D02*
Y260472D01*
X263646Y219528D02*
X294354D01*
X263646D02*
Y260472D01*
X294354D01*
X227354Y219528D02*
Y260472D01*
X196646Y219528D02*
X227354D01*
X196646D02*
Y260472D01*
X227354D01*
M02*
