G04*
G04 #@! TF.GenerationSoftware,Altium Limited,Altium Designer,20.1.11 (218)*
G04*
G04 Layer_Color=8388736*
%FSLAX25Y25*%
%MOIN*%
G70*
G04*
G04 #@! TF.SameCoordinates,2A16CBDB-C64F-4E12-ACEB-A9EF2D748E26*
G04*
G04*
G04 #@! TF.FilePolarity,Negative*
G04*
G01*
G75*
%ADD15R,0.06312X0.05131*%
%ADD16R,0.05131X0.06312*%
%ADD17R,0.08280X0.10249*%
%ADD18R,0.04540X0.07690*%
%ADD19R,0.13398X0.07690*%
%ADD20R,0.01981X0.06312*%
%ADD21R,0.06804X0.03359*%
%ADD22R,0.01981X0.05524*%
%ADD23R,0.05524X0.01981*%
%ADD24R,0.06706X0.08674*%
%ADD25R,0.02572X0.04343*%
%ADD26R,0.04343X0.03556*%
%ADD27R,0.03556X0.04343*%
%ADD28R,0.07887X0.14186*%
%ADD29C,0.12000*%
%ADD30C,0.09700*%
%ADD31C,0.06706*%
%ADD32R,0.06706X0.06706*%
%ADD33R,0.06706X0.06706*%
%ADD34C,0.03556*%
%ADD35C,0.04737*%
D15*
X348000Y220547D02*
D03*
Y226453D02*
D03*
X400264Y174342D02*
D03*
Y168436D02*
D03*
X347000Y138894D02*
D03*
Y144800D02*
D03*
X392824Y168721D02*
D03*
Y162815D02*
D03*
X354500Y144895D02*
D03*
Y150800D02*
D03*
X400305Y137926D02*
D03*
Y143831D02*
D03*
X347060Y174310D02*
D03*
Y168405D02*
D03*
X393000Y144047D02*
D03*
Y149953D02*
D03*
X354500Y168721D02*
D03*
Y162815D02*
D03*
X245000Y117547D02*
D03*
Y123453D02*
D03*
X252500Y117595D02*
D03*
Y123500D02*
D03*
X226000Y164547D02*
D03*
Y170453D02*
D03*
D16*
X369547Y134500D02*
D03*
X375453D02*
D03*
X412905Y178219D02*
D03*
X418810D02*
D03*
X328652Y135318D02*
D03*
X334557D02*
D03*
X413100Y133734D02*
D03*
X419005D02*
D03*
X329397Y178713D02*
D03*
X335302D02*
D03*
X200500Y176000D02*
D03*
X194595D02*
D03*
X196000Y207500D02*
D03*
X201905D02*
D03*
X289139Y136261D02*
D03*
X295044D02*
D03*
X223453Y191000D02*
D03*
X217547D02*
D03*
X288047Y195000D02*
D03*
X293953D02*
D03*
X289047Y168000D02*
D03*
X294953D02*
D03*
X294905Y148500D02*
D03*
X289000D02*
D03*
X217547Y198000D02*
D03*
X223453D02*
D03*
X293953Y188000D02*
D03*
X288047D02*
D03*
X288953Y155500D02*
D03*
X294858D02*
D03*
D17*
X240858Y137500D02*
D03*
X257000D02*
D03*
D18*
X255055Y253902D02*
D03*
X246000D02*
D03*
X236945D02*
D03*
D19*
X246000Y229098D02*
D03*
D20*
X333063Y219661D02*
D03*
X335032D02*
D03*
X337000D02*
D03*
X338968D02*
D03*
X340937D02*
D03*
Y202339D02*
D03*
X338968D02*
D03*
X337000D02*
D03*
X335032D02*
D03*
X333063D02*
D03*
D21*
X384677Y171500D02*
D03*
Y166500D02*
D03*
Y161500D02*
D03*
Y156500D02*
D03*
Y151500D02*
D03*
Y146500D02*
D03*
Y141500D02*
D03*
X363323D02*
D03*
Y146500D02*
D03*
Y151500D02*
D03*
Y156500D02*
D03*
Y161500D02*
D03*
Y166500D02*
D03*
Y171500D02*
D03*
X188323Y185000D02*
D03*
Y190000D02*
D03*
Y195000D02*
D03*
Y200000D02*
D03*
X209677D02*
D03*
Y195000D02*
D03*
Y190000D02*
D03*
Y185000D02*
D03*
D22*
X271764Y156362D02*
D03*
X269795D02*
D03*
X267827D02*
D03*
X265858D02*
D03*
X263890D02*
D03*
X261921D02*
D03*
X259953D02*
D03*
X257984D02*
D03*
X256016D02*
D03*
X254047D02*
D03*
X252079D02*
D03*
X250110D02*
D03*
X248142D02*
D03*
X246173D02*
D03*
X244205D02*
D03*
X242236D02*
D03*
X271764Y201638D02*
D03*
X269795D02*
D03*
X267827D02*
D03*
X265858D02*
D03*
X263890D02*
D03*
X261921D02*
D03*
X259953D02*
D03*
X257984D02*
D03*
X256016D02*
D03*
X254047D02*
D03*
X252079D02*
D03*
X250110D02*
D03*
X248142D02*
D03*
X246173D02*
D03*
X244205D02*
D03*
X242236D02*
D03*
D23*
X279638Y178016D02*
D03*
Y176047D02*
D03*
Y174079D02*
D03*
Y172110D02*
D03*
Y170142D02*
D03*
Y168173D02*
D03*
Y166205D02*
D03*
Y164236D02*
D03*
Y193764D02*
D03*
Y191795D02*
D03*
Y189827D02*
D03*
Y187858D02*
D03*
Y185890D02*
D03*
Y183921D02*
D03*
Y181953D02*
D03*
Y179984D02*
D03*
X234362Y193764D02*
D03*
Y191795D02*
D03*
Y189827D02*
D03*
Y187858D02*
D03*
Y185890D02*
D03*
Y183921D02*
D03*
Y181953D02*
D03*
Y179984D02*
D03*
Y178016D02*
D03*
Y176047D02*
D03*
Y174079D02*
D03*
Y172110D02*
D03*
Y170142D02*
D03*
Y168173D02*
D03*
Y166205D02*
D03*
Y164236D02*
D03*
D24*
X273000Y111358D02*
D03*
Y143642D02*
D03*
D25*
X376224Y232846D02*
D03*
X373075D02*
D03*
X369925D02*
D03*
X366776D02*
D03*
Y226153D02*
D03*
X369925D02*
D03*
X373075D02*
D03*
X376224D02*
D03*
D26*
X406823Y173721D02*
D03*
Y167815D02*
D03*
X340500Y139894D02*
D03*
Y145800D02*
D03*
X406953Y138757D02*
D03*
Y144662D02*
D03*
X340648Y173744D02*
D03*
Y167839D02*
D03*
X230000Y137047D02*
D03*
Y142953D02*
D03*
X181500Y195453D02*
D03*
Y189547D02*
D03*
D27*
X418005Y167316D02*
D03*
X412100D02*
D03*
X329429Y146418D02*
D03*
X335335D02*
D03*
X418005Y162316D02*
D03*
X412100D02*
D03*
X329426Y151453D02*
D03*
X335331D02*
D03*
X417987Y172314D02*
D03*
X412081D02*
D03*
X329450Y141379D02*
D03*
X335356D02*
D03*
X418199Y144769D02*
D03*
X412294D02*
D03*
X330047Y167500D02*
D03*
X335953D02*
D03*
X418199Y149769D02*
D03*
X412294D02*
D03*
X330047Y162422D02*
D03*
X335953D02*
D03*
X418199Y139769D02*
D03*
X412294D02*
D03*
X330056Y172508D02*
D03*
X335962D02*
D03*
X294453Y142000D02*
D03*
X288547D02*
D03*
D28*
X279000Y251811D02*
D03*
Y228189D02*
D03*
X212000Y251811D02*
D03*
Y228189D02*
D03*
D29*
X150531Y241713D02*
D03*
Y159035D02*
D03*
D30*
X136752Y184626D02*
D03*
Y200374D02*
D03*
Y216122D02*
D03*
X152500Y192500D02*
D03*
Y208248D02*
D03*
X168248Y184626D02*
D03*
Y200374D02*
D03*
Y216122D02*
D03*
D31*
X259500Y282500D02*
D03*
X246245Y282630D02*
D03*
X304000Y282000D02*
D03*
X232617Y282630D02*
D03*
X291500Y282000D02*
D03*
X219273Y282630D02*
D03*
X187500Y282500D02*
D03*
X279000Y282000D02*
D03*
X205500Y282630D02*
D03*
X327397Y282000D02*
D03*
X339838D02*
D03*
X352278D02*
D03*
X218000Y108500D02*
D03*
X208000D02*
D03*
X413500D02*
D03*
X301500D02*
D03*
X311500D02*
D03*
X321500D02*
D03*
X391500D02*
D03*
X369500D02*
D03*
X347431D02*
D03*
X368000Y202500D02*
D03*
X378000D02*
D03*
X388000D02*
D03*
X358000Y212500D02*
D03*
X368000D02*
D03*
X378000D02*
D03*
X388000D02*
D03*
D32*
X259500Y272500D02*
D03*
X246245Y272630D02*
D03*
X304000Y272000D02*
D03*
X232617Y272630D02*
D03*
X291500Y272000D02*
D03*
X219273Y272630D02*
D03*
X187500Y272500D02*
D03*
X279000Y272000D02*
D03*
X205500Y272630D02*
D03*
X327397Y272000D02*
D03*
X339838D02*
D03*
X352278D02*
D03*
D33*
X198000Y108500D02*
D03*
X403500D02*
D03*
X291500D02*
D03*
X381500D02*
D03*
X359500D02*
D03*
X337431D02*
D03*
X358000Y202500D02*
D03*
D34*
X373000Y142000D02*
D03*
X300500Y169500D02*
D03*
X353750Y228012D02*
D03*
X355000Y177000D02*
D03*
X393500Y174000D02*
D03*
X394500Y138500D02*
D03*
X221000Y168500D02*
D03*
X208500Y211000D02*
D03*
X371000Y161000D02*
D03*
X360000Y229000D02*
D03*
X346500Y202000D02*
D03*
X350000Y237500D02*
D03*
X328000Y208000D02*
D03*
X320750Y207500D02*
D03*
X264704Y211204D02*
D03*
X268500Y208500D02*
D03*
X261000Y213000D02*
D03*
X240508Y178992D02*
D03*
X241000Y184000D02*
D03*
X272471Y185336D02*
D03*
X268500Y185500D02*
D03*
X260000Y186000D02*
D03*
X264500Y185500D02*
D03*
X180500Y181500D02*
D03*
X358000Y137500D02*
D03*
D35*
X402728Y155626D02*
D03*
X322500Y195000D02*
D03*
X309000Y157000D02*
D03*
X195000Y223500D02*
D03*
X426000Y105000D02*
D03*
X375500Y121500D02*
D03*
X253500Y175000D02*
D03*
X306500Y126000D02*
D03*
X232000Y117000D02*
D03*
X187000Y146000D02*
D03*
X152500Y108000D02*
D03*
X145500Y290000D02*
D03*
X228500Y221000D02*
D03*
X291000Y222000D02*
D03*
X308000Y241000D02*
D03*
X402500Y223000D02*
D03*
X397000Y267000D02*
D03*
M02*
