M48
;Layer_Color=9474304
;FILE_FORMAT=2:5
INCH,TZ
;TYPE=PLATED
T1F00S00C0.01575
T2F00S00C0.02756
T3F00S00C0.03543
T4F00S00C0.06900
T5F00S00C0.11200
%
T01
X358000Y137500
X373000Y142000
X394500Y138500
X393500Y174000
X371000Y161000
X355000Y177000
X346500Y202000
X328000Y208000
X320750Y207500
X353750Y228012
X360000Y229000
X350000Y237500
X268500Y208500
X264704Y211204
X261000Y213000
X260000Y186000
X264500Y185500
X268500
X272471Y185336
X241000Y184000
X240508Y178992
X221000Y168500
X180500Y181500
X208500Y211000
X300500Y169500
T02
X152500Y108000
X187000Y146000
X232000Y117000
X306500Y126000
X375500Y121500
X402728Y155626
X426000Y105000
X402500Y223000
X397000Y267000
X322500Y195000
X309000Y157000
X253500Y175000
X228500Y221000
X195000Y223500
X291000Y222000
X308000Y241000
X145500Y290000
T03
X198000Y108500
X208000
X218000
X291500
X301500
X311500
X321500
X337431
X347431
X359500
X369500
X381500
X391500
X403500
X413500
X388000Y202500
X378000
X368000
X358000
Y212500
X368000
X378000
X388000
X352278Y272000
Y282000
X339838
Y272000
X327397
Y282000
X304000
Y272000
X291500
Y282000
X279000
Y272000
X259500Y272500
Y282500
X246245Y282630
Y272630
X232617
Y282630
X219273
Y272630
X205500
Y282630
X187500Y282500
Y272500
T04
X168248Y184626
Y200374
Y216122
X152500Y208248
Y192500
X136752Y184626
Y200374
Y216122
T05
X150531Y159035
Y241713
M30
