G04*
G04 #@! TF.GenerationSoftware,Altium Limited,Altium Designer,20.1.11 (218)*
G04*
G04 Layer_Color=16711935*
%FSLAX25Y25*%
%MOIN*%
G70*
G04*
G04 #@! TF.SameCoordinates,C0BC10C8-0731-4CBC-98FA-3322C1096404*
G04*
G04*
G04 #@! TF.FilePolarity,Positive*
G04*
G01*
G75*
%ADD33C,0.00394*%
D33*
X177350Y167748D02*
X177087Y168732D01*
X176366Y169453D01*
X175382Y169717D01*
X174398Y169453D01*
X173677Y168732D01*
X173413Y167748D01*
X173677Y166764D01*
X174398Y166043D01*
X175382Y165779D01*
X176366Y166043D01*
X177087Y166764D01*
X177350Y167748D01*
X175563Y175638D02*
X183437D01*
X175563Y180362D02*
X183437D01*
Y175638D02*
Y180362D01*
X175563Y175638D02*
Y180362D01*
X144214Y140583D02*
X147363D01*
X144214Y134283D02*
X147363D01*
Y140583D01*
X144214Y134283D02*
Y140583D01*
X161763Y134480D02*
Y142354D01*
X157039Y134480D02*
Y142354D01*
X161763D01*
X157039Y134480D02*
X161763D01*
X205138Y167063D02*
Y174937D01*
X209862Y167063D02*
Y174937D01*
X205138Y167063D02*
X209862D01*
X205138Y174937D02*
X209862D01*
X205138Y139063D02*
Y146937D01*
X209862Y139063D02*
Y146937D01*
X205138Y139063D02*
X209862D01*
X205138Y146937D02*
X209862D01*
X205138Y153063D02*
Y160937D01*
X209862Y153063D02*
Y160937D01*
X205138Y153063D02*
X209862D01*
X205138Y160937D02*
X209862D01*
X171839Y132709D02*
Y171291D01*
X189161Y132709D02*
Y171291D01*
X171839D02*
X189161D01*
X171839Y132709D02*
X189161D01*
M02*
