G04*
G04 #@! TF.GenerationSoftware,Altium Limited,Altium Designer,20.1.11 (218)*
G04*
G04 Layer_Color=8388736*
%FSLAX25Y25*%
%MOIN*%
G70*
G04*
G04 #@! TF.SameCoordinates,C0BC10C8-0731-4CBC-98FA-3322C1096404*
G04*
G04*
G04 #@! TF.FilePolarity,Negative*
G04*
G01*
G75*
%ADD14R,0.04737X0.06115*%
%ADD15R,0.04147X0.03556*%
%ADD16R,0.06115X0.04737*%
%ADD17O,0.06509X0.02375*%
%ADD18R,0.06706X0.06706*%
%ADD19C,0.06706*%
%ADD20R,0.06706X0.06706*%
%ADD21C,0.03556*%
D14*
X183142Y178000D02*
D03*
X175858D02*
D03*
D15*
X145788Y140681D02*
D03*
Y134185D02*
D03*
D16*
X159401Y142059D02*
D03*
Y134776D02*
D03*
X207500Y167358D02*
D03*
Y174642D02*
D03*
Y139358D02*
D03*
Y146642D02*
D03*
Y153358D02*
D03*
Y160642D02*
D03*
D17*
X168984Y168634D02*
D03*
Y166075D02*
D03*
Y163516D02*
D03*
Y160957D02*
D03*
Y158398D02*
D03*
Y155839D02*
D03*
Y153279D02*
D03*
Y150721D02*
D03*
Y148161D02*
D03*
Y145602D02*
D03*
Y143043D02*
D03*
Y140484D02*
D03*
Y137925D02*
D03*
Y135366D02*
D03*
X192016Y168634D02*
D03*
Y166075D02*
D03*
Y163516D02*
D03*
Y160957D02*
D03*
Y158398D02*
D03*
Y155839D02*
D03*
Y153279D02*
D03*
Y150721D02*
D03*
Y148161D02*
D03*
Y145602D02*
D03*
Y143043D02*
D03*
Y140484D02*
D03*
Y137925D02*
D03*
Y135366D02*
D03*
D18*
X150000Y110000D02*
D03*
X170000Y210000D02*
D03*
X180000Y110000D02*
D03*
D19*
X160000D02*
D03*
X180000Y210000D02*
D03*
X230000Y190000D02*
D03*
Y200000D02*
D03*
X150000Y160000D02*
D03*
Y170000D02*
D03*
Y180000D02*
D03*
Y190000D02*
D03*
Y200000D02*
D03*
X230000Y150000D02*
D03*
Y160000D02*
D03*
Y110000D02*
D03*
Y120000D02*
D03*
X200000Y110000D02*
D03*
X190000D02*
D03*
D20*
X230000Y210000D02*
D03*
X150000D02*
D03*
X230000Y170000D02*
D03*
Y130000D02*
D03*
D21*
X166500Y128500D02*
D03*
X199000Y132500D02*
D03*
Y138000D02*
D03*
M02*
