G04*
G04 #@! TF.GenerationSoftware,Altium Limited,Altium Designer,20.1.11 (218)*
G04*
G04 Layer_Physical_Order=1*
G04 Layer_Color=255*
%FSLAX25Y25*%
%MOIN*%
G70*
G04*
G04 #@! TF.SameCoordinates,065DB7FD-4843-4C92-90AC-568386BA0B10*
G04*
G04*
G04 #@! TF.FilePolarity,Positive*
G04*
G01*
G75*
%ADD19R,0.12598X0.06890*%
%ADD20R,0.03740X0.06890*%
%ADD21R,0.03937X0.05315*%
%ADD22R,0.05315X0.03937*%
%ADD23C,0.03000*%
%ADD24R,0.05906X0.05906*%
%ADD25C,0.05906*%
%ADD26R,0.05906X0.05906*%
G36*
X245000Y130000D02*
X132500Y130000D01*
X132500Y195000D01*
X245000Y195000D01*
X245000Y130000D01*
D02*
G37*
%LPC*%
G36*
X239425Y189347D02*
X237055D01*
Y185402D01*
X239425D01*
Y189347D01*
D02*
G37*
G36*
X186925D02*
X184555D01*
Y185402D01*
X186925D01*
Y189347D01*
D02*
G37*
G36*
X236055D02*
X233685D01*
Y185402D01*
X236055D01*
Y189347D01*
D02*
G37*
G36*
X183555D02*
X181185D01*
Y185402D01*
X183555D01*
Y189347D01*
D02*
G37*
G36*
X168815D02*
X163075D01*
Y181191D01*
X158658D01*
Y181610D01*
X151342D01*
Y181191D01*
X146453D01*
Y183953D01*
X138547D01*
Y176047D01*
X146453D01*
Y176093D01*
X151342D01*
Y175673D01*
X158658D01*
Y176093D01*
X164142D01*
X165117Y176287D01*
X165944Y176839D01*
X167747Y178642D01*
X168300Y179469D01*
X168494Y180445D01*
Y180457D01*
X168815D01*
Y189347D01*
D02*
G37*
G36*
X239425Y184402D02*
X237055D01*
Y180457D01*
X239425D01*
Y184402D01*
D02*
G37*
G36*
X236055D02*
X233685D01*
Y180457D01*
X236055D01*
Y184402D01*
D02*
G37*
G36*
X186925D02*
X184555D01*
Y180457D01*
X186925D01*
Y184402D01*
D02*
G37*
G36*
X183555D02*
X181185D01*
Y180457D01*
X183555D01*
Y184402D01*
D02*
G37*
G36*
X221315Y189347D02*
X215575D01*
Y180457D01*
X215951D01*
Y178549D01*
X210658D01*
Y178969D01*
X203343D01*
Y178691D01*
X199657D01*
Y179110D01*
X192342D01*
Y178691D01*
X177549D01*
Y180457D01*
X177870D01*
Y189347D01*
X172130D01*
Y180457D01*
X172451D01*
Y176500D01*
Y164543D01*
X167701D01*
Y155654D01*
X169951D01*
Y143953D01*
X168547D01*
Y136047D01*
X176453D01*
Y143953D01*
X175049D01*
Y155654D01*
X182299D01*
Y164543D01*
X177549D01*
Y173593D01*
X192342D01*
Y173173D01*
X199657D01*
Y173593D01*
X203343D01*
Y173031D01*
X210658D01*
Y173451D01*
X217500D01*
X218476Y173645D01*
X219302Y174198D01*
X220302Y175198D01*
X220855Y176024D01*
X221049Y177000D01*
Y180457D01*
X221315D01*
Y189347D01*
D02*
G37*
G36*
X158658Y174327D02*
X155500D01*
Y171858D01*
X158658D01*
Y174327D01*
D02*
G37*
G36*
X154500D02*
X151342D01*
Y171858D01*
X154500D01*
Y174327D01*
D02*
G37*
G36*
X143000Y173921D02*
Y170500D01*
X146421D01*
X146351Y171032D01*
X145953Y171993D01*
X145319Y172819D01*
X144493Y173453D01*
X143532Y173851D01*
X143000Y173921D01*
D02*
G37*
G36*
X142000D02*
X141468Y173851D01*
X140507Y173453D01*
X139681Y172819D01*
X139047Y171993D01*
X138649Y171032D01*
X138579Y170500D01*
X142000D01*
Y173921D01*
D02*
G37*
G36*
X199657Y171827D02*
X196500D01*
Y169358D01*
X199657D01*
Y171827D01*
D02*
G37*
G36*
X195500D02*
X192342D01*
Y169358D01*
X195500D01*
Y171827D01*
D02*
G37*
G36*
X210658Y171685D02*
X207500D01*
Y169217D01*
X210658D01*
Y171685D01*
D02*
G37*
G36*
X206500D02*
X203343D01*
Y169217D01*
X206500D01*
Y171685D01*
D02*
G37*
G36*
X158658Y170858D02*
X155500D01*
Y168390D01*
X158658D01*
Y170858D01*
D02*
G37*
G36*
X154500D02*
X151342D01*
Y168390D01*
X154500D01*
Y170858D01*
D02*
G37*
G36*
X146421Y169500D02*
X143000D01*
Y166079D01*
X143532Y166149D01*
X144493Y166547D01*
X145319Y167181D01*
X145953Y168007D01*
X146351Y168968D01*
X146421Y169500D01*
D02*
G37*
G36*
X142000D02*
X138579D01*
X138649Y168968D01*
X139047Y168007D01*
X139681Y167181D01*
X140507Y166547D01*
X141468Y166149D01*
X142000Y166079D01*
Y169500D01*
D02*
G37*
G36*
X199657Y168358D02*
X196500D01*
Y165890D01*
X199657D01*
Y168358D01*
D02*
G37*
G36*
X195500D02*
X192342D01*
Y165890D01*
X195500D01*
Y168358D01*
D02*
G37*
G36*
X210658Y168217D02*
X207500D01*
Y165748D01*
X210658D01*
Y168217D01*
D02*
G37*
G36*
X206500D02*
X203343D01*
Y165748D01*
X206500D01*
Y168217D01*
D02*
G37*
G36*
X219327Y156158D02*
X216858D01*
Y153000D01*
X219327D01*
Y156158D01*
D02*
G37*
G36*
X215858D02*
X213390D01*
Y153000D01*
X215858D01*
Y156158D01*
D02*
G37*
G36*
X219327Y152000D02*
X216858D01*
Y148843D01*
X219327D01*
Y152000D01*
D02*
G37*
G36*
X215858D02*
X213390D01*
Y148843D01*
X215858D01*
Y152000D01*
D02*
G37*
G36*
X233000Y143921D02*
Y140500D01*
X236421D01*
X236351Y141032D01*
X235953Y141993D01*
X235319Y142819D01*
X234493Y143453D01*
X233532Y143851D01*
X233000Y143921D01*
D02*
G37*
G36*
X232000D02*
X231468Y143851D01*
X230507Y143453D01*
X229681Y142819D01*
X229047Y141993D01*
X228649Y141032D01*
X228579Y140500D01*
X232000D01*
Y143921D01*
D02*
G37*
G36*
X183000D02*
Y140500D01*
X186421D01*
X186351Y141032D01*
X185953Y141993D01*
X185319Y142819D01*
X184493Y143453D01*
X183532Y143851D01*
X183000Y143921D01*
D02*
G37*
G36*
X182000D02*
X181468Y143851D01*
X180507Y143453D01*
X179681Y142819D01*
X179047Y141993D01*
X178649Y141032D01*
X178579Y140500D01*
X182000D01*
Y143921D01*
D02*
G37*
G36*
X236421Y139500D02*
X233000D01*
Y136079D01*
X233532Y136149D01*
X234493Y136547D01*
X235319Y137181D01*
X235953Y138007D01*
X236351Y138968D01*
X236421Y139500D01*
D02*
G37*
G36*
X232000D02*
X228579D01*
X228649Y138968D01*
X229047Y138007D01*
X229681Y137181D01*
X230507Y136547D01*
X231468Y136149D01*
X232000Y136079D01*
Y139500D01*
D02*
G37*
G36*
X186421D02*
X183000D01*
Y136079D01*
X183532Y136149D01*
X184493Y136547D01*
X185319Y137181D01*
X185953Y138007D01*
X186351Y138968D01*
X186421Y139500D01*
D02*
G37*
G36*
X182000D02*
X178579D01*
X178649Y138968D01*
X179047Y138007D01*
X179681Y137181D01*
X180507Y136547D01*
X181468Y136149D01*
X182000Y136079D01*
Y139500D01*
D02*
G37*
G36*
X230370Y189347D02*
X224630D01*
Y180457D01*
X224951D01*
Y164543D01*
X220201D01*
Y155654D01*
X220673D01*
Y148843D01*
X221093D01*
Y143953D01*
X218547D01*
Y136047D01*
X226453D01*
Y143953D01*
X226191D01*
Y148843D01*
X226610D01*
Y151864D01*
X229302Y154556D01*
X229855Y155383D01*
X229909Y155654D01*
X234799D01*
Y164543D01*
X230049D01*
Y180457D01*
X230370D01*
Y189347D01*
D02*
G37*
%LPD*%
D19*
X227500Y160098D02*
D03*
X175000D02*
D03*
D20*
X218445Y184902D02*
D03*
X227500D02*
D03*
X236555D02*
D03*
X165945D02*
D03*
X175000D02*
D03*
X184055D02*
D03*
D21*
X223642Y152500D02*
D03*
X216358D02*
D03*
D22*
X207000Y176000D02*
D03*
Y168717D02*
D03*
X196000Y176142D02*
D03*
Y168858D02*
D03*
X155000Y178642D02*
D03*
Y171358D02*
D03*
D23*
X142500Y180000D02*
X143858Y178642D01*
X155000D01*
X164142D01*
X172500Y157598D02*
X175000Y160098D01*
X172500Y140000D02*
Y157598D01*
X223642Y141142D02*
Y152500D01*
X227500Y156358D01*
Y160098D01*
Y184902D01*
X164142Y178642D02*
X165945Y180445D01*
Y184902D01*
X218445D02*
X218500Y184846D01*
Y177000D02*
Y184846D01*
X217500Y176000D02*
X218500Y177000D01*
X207000Y176000D02*
X217500D01*
X206858Y176142D02*
X207000Y176000D01*
X196000Y176142D02*
X206858D01*
X175000Y176500D02*
Y184902D01*
Y160098D02*
Y176500D01*
X175358Y176142D01*
X196000D01*
D24*
X172500Y140000D02*
D03*
X222500D02*
D03*
D25*
X182500D02*
D03*
X232500D02*
D03*
X142500Y170000D02*
D03*
D26*
Y180000D02*
D03*
M02*
