G04*
G04 #@! TF.GenerationSoftware,Altium Limited,Altium Designer,21.6.1 (37)*
G04*
G04 Layer_Color=255*
%FSLAX25Y25*%
%MOIN*%
G70*
G04*
G04 #@! TF.SameCoordinates,B4AB2511-9BA3-4B12-947F-8A4498F88565*
G04*
G04*
G04 #@! TF.FilePolarity,Positive*
G04*
G01*
G75*
%ADD52C,0.05906*%
%ADD53R,0.05906X0.05906*%
%ADD54C,0.08268*%
%ADD55R,0.05906X0.05906*%
%ADD56C,0.23622*%
D52*
X343500Y383500D02*
D03*
X353500D02*
D03*
X284646Y214567D02*
D03*
X255000Y214500D02*
D03*
X265000Y224500D02*
D03*
X255000D02*
D03*
X265000Y234500D02*
D03*
X255000D02*
D03*
X265000Y244500D02*
D03*
X255000D02*
D03*
X265000Y254500D02*
D03*
X255000D02*
D03*
X265000Y264500D02*
D03*
X255000D02*
D03*
X265000Y274500D02*
D03*
X255000D02*
D03*
X265000Y284500D02*
D03*
X255000D02*
D03*
X265000Y294500D02*
D03*
X255000D02*
D03*
X265000Y304500D02*
D03*
X255000D02*
D03*
X265000Y314500D02*
D03*
X255000D02*
D03*
X265000Y324500D02*
D03*
X255000D02*
D03*
X265000Y334500D02*
D03*
X255000D02*
D03*
X265000Y344500D02*
D03*
X255000D02*
D03*
X265000Y354500D02*
D03*
X255000D02*
D03*
X265000Y364500D02*
D03*
X255000D02*
D03*
X265000Y374500D02*
D03*
X255000D02*
D03*
X265000Y384500D02*
D03*
X255000D02*
D03*
D53*
X363500Y383500D02*
D03*
X294646Y214567D02*
D03*
D54*
X504500Y268000D02*
D03*
Y288000D02*
D03*
Y308000D02*
D03*
X504000Y354000D02*
D03*
Y334000D02*
D03*
D55*
X265000Y214500D02*
D03*
D56*
X306299Y381496D02*
D03*
X467717Y195276D02*
D03*
M02*
