M48
;Layer_Color=9474304
;FILE_FORMAT=2:5
INCH,TZ
;TYPE=PLATED
T1F00S00C0.01181
T2F00S00C0.01378
T3F00S00C0.03543
T4F00S00C0.05118
T5F00S00C0.12598
%
T01
X281500Y309000
T02
X353150Y215748
X354331Y223622
X359055
Y228346
Y233071
X354331
Y228346
X349606
Y223622
Y233071
X355512Y238976
Y244094
Y248819
Y253543
X377165Y255118
X386614Y258268
X397638Y240551
X409055Y237402
X414961
X420472
X421713Y255178
X422441Y258661
X425984Y262598
X431102
Y267717
X436221
Y262598
X425984Y267717
X417717Y273622
X411417
X405118
X414173Y285827
Y290551
X419291
Y285827
Y295669
X414173
X415354Y301969
Y306693
X409449Y305512
X404331Y300394
X404339Y311409
X391732Y308661
X392051Y282132
X363386Y305906
Y310630
X358555Y310579
X353937Y310630
X353921Y305890
X358661Y305906
X322500Y300000
X315500Y299000
X315000Y285000
X330000
X322500Y270000
X330000Y255000
X315000
X335039Y234646
X361024Y211811
X380709Y219685
X453543Y240945
Y246063
Y251575
X458661Y250000
Y244882
X455118Y287402
Y292126
Y297244
Y301969
X449213
Y297244
Y292126
Y287402
X463500Y305000
X435433Y309842
X277559Y300000
X273500Y295791
X307500Y270000
X306000Y255500
X302362Y259055
X302000Y249000
X305512Y245669
X309842Y251575
X298425Y252362
X302362Y237529
X306299Y231470
X277000Y323500
X271000
X274029Y337500
X272835Y364173
X274803Y371654
X340551Y335313
X341339Y329254
X345669Y326378
X347244Y332283
X348425Y340158
X367779Y343307
X376772Y337795
X373622Y361024
X408661Y346850
X414961Y340945
Y334646
X418898Y337795
X407874Y325590
X438583Y322047
X453543Y331890
X458268
Y337008
X453543
Y341732
X458268
X459780Y355231
X441000Y359000
X427953Y382283
X423228
X418504
X413779
X363386Y315354
X358661
X353937
X340551Y318504
X469291Y378346
X473622
Y383071
X469291
Y387795
X473622
T03
X255000Y214500
X265000
Y224500
X255000
Y234500
X265000
Y244500
X255000
Y254500
X265000
Y264500
X255000
Y274500
X265000
Y284500
X255000
Y294500
X265000
Y304500
X255000
X284646Y214567
X294646
X265000Y314500
X255000
Y324500
X265000
Y334500
X255000
Y344500
X265000
Y354500
X255000
Y364500
X265000
Y374500
X255000
Y384500
X265000
X343500Y383500
X353500
X363500
T04
X504500Y268000
Y288000
Y308000
X504000Y334000
Y354000
T05
X467717Y195276
X306299Y381496
M30
