G04*
G04 #@! TF.GenerationSoftware,Altium Limited,Altium Designer,21.6.1 (37)*
G04*
G04 Layer_Color=32896*
%FSLAX25Y25*%
%MOIN*%
G70*
G04*
G04 #@! TF.SameCoordinates,B2079DFB-0366-4D49-8141-05D7A233A1B4*
G04*
G04*
G04 #@! TF.FilePolarity,Positive*
G04*
G01*
G75*
%ADD13C,0.01000*%
D13*
X302482Y188131D02*
X306480D01*
Y182133D01*
X302482D01*
X306480Y185132D02*
X304481D01*
X300482Y182133D02*
X298483D01*
X299483D01*
Y188131D01*
X300482D01*
X295484Y182133D02*
X293484D01*
X294484D01*
Y188131D01*
X295484D01*
X287487Y182133D02*
X289486D01*
X290486Y183133D01*
Y185132D01*
X289486Y186132D01*
X287487D01*
X286487Y185132D01*
Y184133D01*
X290486D01*
X284487Y182133D02*
Y186132D01*
X281488D01*
X280489Y185132D01*
Y182133D01*
X272491Y188131D02*
Y182133D01*
X270492Y184133D01*
X268493Y182133D01*
Y188131D01*
X265494Y186132D02*
X263494D01*
X262494Y185132D01*
Y182133D01*
X265494D01*
X266493Y183133D01*
X265494Y184133D01*
X262494D01*
X260495Y182133D02*
Y186132D01*
X257496D01*
X256497Y185132D01*
Y182133D01*
X252498Y180134D02*
X251498D01*
X250498Y181133D01*
Y186132D01*
X253497D01*
X254497Y185132D01*
Y183133D01*
X253497Y182133D01*
X250498D01*
M02*
