G04*
G04 #@! TF.GenerationSoftware,Altium Limited,Altium Designer,21.6.1 (37)*
G04*
G04 Layer_Physical_Order=2*
G04 Layer_Color=16711680*
%FSLAX25Y25*%
%MOIN*%
G70*
G04*
G04 #@! TF.SameCoordinates,B4AB2511-9BA3-4B12-947F-8A4498F88565*
G04*
G04*
G04 #@! TF.FilePolarity,Positive*
G04*
G01*
G75*
%ADD13C,0.01000*%
%ADD51C,0.01500*%
%ADD52C,0.05906*%
%ADD53R,0.05906X0.05906*%
%ADD54C,0.08268*%
%ADD55R,0.05906X0.05906*%
%ADD56C,0.23622*%
%ADD57C,0.02559*%
%ADD58C,0.02559*%
G36*
X437586Y374803D02*
X465932D01*
X465946Y374735D01*
X465981Y374650D01*
X465987Y374619D01*
X465987Y374619D01*
X465987Y374619D01*
X465990Y374612D01*
X466008Y374586D01*
X466098Y374367D01*
X466379Y374086D01*
X466627Y373984D01*
X466639Y373975D01*
X466654Y373972D01*
X466747Y373934D01*
X466831Y373917D01*
X466931D01*
X467029Y373898D01*
X508251D01*
X508311Y357657D01*
X507811Y357449D01*
X507152Y358108D01*
X505982Y358784D01*
X504676Y359134D01*
X504500D01*
Y354000D01*
Y348866D01*
X504676D01*
X505982Y349216D01*
X507152Y349892D01*
X507837Y350576D01*
X508337Y350370D01*
X508356Y345240D01*
X508356Y345240D01*
X508356Y345240D01*
X508356Y345231D01*
X508324Y345209D01*
X508323Y345208D01*
X508323Y345208D01*
X508074Y344958D01*
X507996Y344906D01*
X507904Y344887D01*
X447344D01*
X447246Y344868D01*
X447146D01*
X447062Y344851D01*
X446969Y344813D01*
X446954Y344810D01*
X446942Y344801D01*
X446694Y344699D01*
X446413Y344418D01*
X446311Y344170D01*
X446302Y344158D01*
X446299Y344143D01*
X446261Y344050D01*
X446244Y343966D01*
Y343866D01*
X446224Y343767D01*
Y317222D01*
X445763Y317030D01*
X440880Y321913D01*
X440907Y322047D01*
X440730Y322937D01*
X440226Y323691D01*
X439472Y324195D01*
X438583Y324371D01*
X437693Y324195D01*
X436939Y323691D01*
X436435Y322937D01*
X436259Y322047D01*
X436435Y321158D01*
X436939Y320404D01*
X437693Y319900D01*
X438583Y319723D01*
X438717Y319750D01*
X446591Y311876D01*
X446623Y311753D01*
X446560Y311234D01*
X446544Y311216D01*
X446428Y311109D01*
X446419Y311090D01*
X446404Y311075D01*
X446336Y310910D01*
X446302Y310859D01*
X446294Y310820D01*
X446261Y310748D01*
X446260Y310727D01*
X446252Y310707D01*
X446244Y310668D01*
X446244Y310568D01*
X446224Y310469D01*
Y270079D01*
X439129D01*
X438910Y270406D01*
X438579Y270627D01*
X438189Y270705D01*
X423622D01*
X423232Y270627D01*
X422901Y270406D01*
X422680Y270075D01*
X422603Y269685D01*
Y261118D01*
X422441Y260986D01*
X421552Y260809D01*
X420797Y260305D01*
X420694Y260149D01*
X420481Y260107D01*
X420085Y259842D01*
X397244D01*
Y278346D01*
X407480D01*
Y303523D01*
X407980Y303751D01*
X408559Y303364D01*
X409449Y303188D01*
X410338Y303364D01*
X411092Y303868D01*
X411596Y304622D01*
X411773Y305512D01*
X411746Y305646D01*
X414413Y308313D01*
X433713D01*
X433790Y308199D01*
X434544Y307695D01*
X435433Y307518D01*
X436322Y307695D01*
X437077Y308199D01*
X437580Y308953D01*
X437757Y309842D01*
X437580Y310732D01*
X437077Y311486D01*
X436322Y311990D01*
X435433Y312167D01*
X434544Y311990D01*
X433790Y311486D01*
X433713Y311372D01*
X413779D01*
X413194Y311256D01*
X412698Y310924D01*
X409583Y307809D01*
X409449Y307836D01*
X408559Y307659D01*
X407980Y307272D01*
X407480Y307500D01*
Y322951D01*
X407867Y323268D01*
X407874Y323266D01*
X408764Y323443D01*
X409517Y323947D01*
X410021Y324701D01*
X410198Y325590D01*
X410063Y326272D01*
X410382Y326772D01*
X412992D01*
Y342565D01*
X430315D01*
X430900Y342682D01*
X431396Y343013D01*
X440913Y352530D01*
X462219D01*
X462205Y357874D01*
X443627Y357997D01*
X443225Y358500D01*
X443324Y359000D01*
X443147Y359889D01*
X442643Y360643D01*
X441889Y361147D01*
X441000Y361324D01*
X440111Y361147D01*
X439357Y360643D01*
X438853Y359889D01*
X438676Y359000D01*
X438703Y358865D01*
X437873Y358036D01*
X408582Y358230D01*
Y384208D01*
X437586D01*
Y374803D01*
D02*
G37*
G36*
X519731Y340945D02*
X518898D01*
Y320866D01*
X496718D01*
Y300519D01*
X496587Y300323D01*
X496471Y299738D01*
Y277133D01*
X440945Y221608D01*
X398819D01*
Y237402D01*
X397304D01*
X397113Y237863D01*
X397521Y238272D01*
X398091D01*
X398929Y238619D01*
X399570Y239260D01*
X399917Y240098D01*
Y241005D01*
X399570Y241842D01*
X398929Y242484D01*
X398091Y242831D01*
X397184D01*
X396346Y242484D01*
X395705Y241842D01*
X395358Y241005D01*
Y240435D01*
X392325Y237402D01*
X350888D01*
X350804Y237418D01*
X350787Y237502D01*
Y254624D01*
X350804Y254708D01*
X350888Y254724D01*
X374886D01*
Y254665D01*
X375233Y253827D01*
X375874Y253186D01*
X376712Y252839D01*
X377619D01*
X378457Y253186D01*
X378889Y253619D01*
X405512D01*
Y250546D01*
X405185Y250327D01*
X404963Y249996D01*
X404886Y249606D01*
Y235827D01*
X404963Y235437D01*
X405185Y235106D01*
X405515Y234885D01*
X405905Y234807D01*
X438189D01*
X438579Y234885D01*
X438910Y235106D01*
X439126Y235429D01*
X447244D01*
Y310469D01*
X447252Y310508D01*
X447364Y310576D01*
X447754Y310631D01*
X447862Y310606D01*
X454549Y303919D01*
X455045Y303587D01*
X455630Y303471D01*
X461806D01*
X462209Y303067D01*
X463047Y302720D01*
X463953D01*
X464791Y303067D01*
X465433Y303709D01*
X465779Y304547D01*
Y305453D01*
X465433Y306291D01*
X464791Y306932D01*
X463953Y307279D01*
X463047D01*
X462209Y306932D01*
X461806Y306529D01*
X456263D01*
X447244Y315549D01*
Y343767D01*
X447261Y343851D01*
X447344Y343868D01*
X508003D01*
X508004Y343868D01*
X508005Y343868D01*
X508199Y343907D01*
X508393Y343945D01*
X508394Y343946D01*
X508395Y343946D01*
X508558Y344055D01*
X508724Y344166D01*
X508725Y344167D01*
X508726Y344168D01*
X509045Y344488D01*
X509379D01*
X509376Y345243D01*
X509376Y345243D01*
X509376Y345243D01*
X509270Y373901D01*
X509266Y374917D01*
X467029D01*
X466946Y374934D01*
X466932Y375002D01*
X466929Y375009D01*
Y396850D01*
X519731D01*
Y340945D01*
D02*
G37*
G36*
X368611Y295276D02*
X350787D01*
Y255744D01*
X350397Y255666D01*
X350066Y255445D01*
X349845Y255115D01*
X349768Y254724D01*
Y237402D01*
X349845Y237011D01*
X350066Y236681D01*
X350397Y236460D01*
X350787Y236382D01*
Y235114D01*
X361771D01*
Y221756D01*
X350787Y221698D01*
X300787D01*
Y208661D01*
X287402D01*
Y211733D01*
X287809Y212140D01*
X288329Y213041D01*
X288598Y214047D01*
Y215087D01*
X288329Y216093D01*
X287809Y216994D01*
X287402Y217401D01*
Y221698D01*
Y222108D01*
Y232971D01*
X333491D01*
X333748Y232713D01*
X334586Y232366D01*
X335493D01*
X336331Y232713D01*
X336972Y233354D01*
X337319Y234192D01*
Y235099D01*
X336972Y235937D01*
X336331Y236578D01*
X335493Y236925D01*
X334586D01*
X333748Y236578D01*
X333199Y236029D01*
X287402D01*
Y268129D01*
X316384Y296899D01*
X316791Y297067D01*
X317432Y297709D01*
X317595Y298101D01*
X344079Y324391D01*
X344509D01*
X345216Y324098D01*
X346123D01*
X346960Y324446D01*
X347602Y325087D01*
X347949Y325924D01*
Y326831D01*
X347602Y327669D01*
X347602Y327888D01*
X348425Y328705D01*
X368611D01*
Y295276D01*
D02*
G37*
G36*
X438189Y235827D02*
X405905D01*
Y249606D01*
X423622D01*
Y253863D01*
X423645Y253886D01*
X423993Y254724D01*
Y255631D01*
X423748Y256221D01*
X423732Y256729D01*
X424373Y257370D01*
X424720Y258208D01*
Y259115D01*
X424373Y259953D01*
X423732Y260594D01*
X423622Y260640D01*
Y269685D01*
X438189D01*
Y235827D01*
D02*
G37*
%LPC*%
G36*
X503500Y359134D02*
X503324D01*
X502018Y358784D01*
X500848Y358108D01*
X499892Y357152D01*
X499216Y355982D01*
X498866Y354676D01*
Y354500D01*
X503500D01*
Y359134D01*
D02*
G37*
G36*
Y353500D02*
X498866D01*
Y353324D01*
X499216Y352018D01*
X499892Y350848D01*
X500848Y349892D01*
X502018Y349216D01*
X503324Y348866D01*
X503500D01*
Y353500D01*
D02*
G37*
G36*
X504676Y339134D02*
X504500D01*
Y334500D01*
X509134D01*
Y334676D01*
X508784Y335982D01*
X508108Y337152D01*
X507152Y338108D01*
X505982Y338784D01*
X504676Y339134D01*
D02*
G37*
G36*
X503500D02*
X503324D01*
X502018Y338784D01*
X500848Y338108D01*
X499892Y337152D01*
X499216Y335982D01*
X498866Y334676D01*
Y334500D01*
X503500D01*
Y339134D01*
D02*
G37*
G36*
X509134Y333500D02*
X504500D01*
Y328866D01*
X504676D01*
X505982Y329216D01*
X507152Y329892D01*
X508108Y330848D01*
X508784Y332018D01*
X509134Y333324D01*
Y333500D01*
D02*
G37*
G36*
X503500D02*
X498866D01*
Y333324D01*
X499216Y332018D01*
X499892Y330848D01*
X500848Y329892D01*
X502018Y329216D01*
X503324Y328866D01*
X503500D01*
Y333500D01*
D02*
G37*
G36*
X298598Y218520D02*
X295146D01*
Y215067D01*
X298598D01*
Y218520D01*
D02*
G37*
G36*
X294146D02*
X290693D01*
Y215067D01*
X294146D01*
Y218520D01*
D02*
G37*
G36*
X298598Y214067D02*
X295146D01*
Y210614D01*
X298598D01*
Y214067D01*
D02*
G37*
G36*
X294146D02*
X290693D01*
Y210614D01*
X294146D01*
Y214067D01*
D02*
G37*
%LPD*%
D13*
X380709Y219685D02*
X441185D01*
X498000Y276500D01*
X372835Y215748D02*
X397638Y240551D01*
X438583Y322047D02*
X455630Y305000D01*
X463500D01*
X409449Y305512D02*
X413779Y309842D01*
X435433D01*
X362555Y337795D02*
X376772D01*
X255000Y314500D02*
X259489Y318989D01*
X277685D02*
X319720Y361024D01*
X259489Y318989D02*
X277685D01*
X319720Y361024D02*
X373622D01*
X266523Y349790D02*
X271169Y345144D01*
Y323669D02*
Y345144D01*
X273971Y337559D02*
Y362765D01*
X271000Y323500D02*
X271169Y323669D01*
X273971Y337559D02*
X274029Y337500D01*
X259872Y349790D02*
X266523D01*
X255162Y354500D02*
X259872Y349790D01*
X255000Y354500D02*
X255162D01*
X272835Y363901D02*
X273971Y362765D01*
X259703Y369797D02*
X267211D01*
X272835Y364173D01*
X276926Y323500D02*
X276926Y323425D01*
X276766Y369704D02*
X276926Y323500D01*
X255000Y384500D02*
X259619Y379912D01*
X274803Y371654D02*
X276766Y369704D01*
X266463Y379936D02*
X274803Y371654D01*
X259619Y379912D02*
X266463Y379936D01*
X276926Y323425D02*
X277000Y323500D01*
X312842Y340342D02*
X348240D01*
X281500Y309000D02*
X312842Y340342D01*
X260297Y259797D02*
X271882D01*
X341339Y329254D01*
X331770Y335313D02*
X340551D01*
X335827Y332283D02*
X347244D01*
X343021Y337128D02*
X361888D01*
X348240Y340342D02*
X348425Y340158D01*
X315902Y338342D02*
X341806D01*
X343021Y337128D01*
X288583Y292126D02*
X331770Y335313D01*
X277559Y300000D02*
X315902Y338342D01*
X292825Y289282D02*
X335827Y332283D01*
X361888Y337128D02*
X362555Y337795D01*
X309449Y343307D02*
X367779D01*
X273500Y307358D02*
X309449Y343307D01*
X407874Y325590D02*
Y339764D01*
X265000Y234500D02*
X334894D01*
X335039Y234646D01*
X372835Y215748D02*
X452248D01*
X353150D02*
X372835D01*
X361024Y211811D02*
X473811D01*
X510384Y248384D01*
X452248Y215748D02*
X504500Y268000D01*
X404335Y300398D02*
Y311404D01*
X391892Y282292D02*
Y308502D01*
X407874Y339764D02*
X412205Y344094D01*
X441452Y355231D02*
X459780D01*
X412205Y344094D02*
X430315D01*
X441452Y355231D01*
X428850Y346850D02*
X441000Y359000D01*
X408661Y346850D02*
X428850D01*
X377195Y255148D02*
X421683D01*
X386614Y258268D02*
X420973D01*
X498000Y276500D02*
Y299738D01*
X273500Y295791D02*
Y307358D01*
X260219Y289282D02*
X292825D01*
X268039Y292126D02*
X288583D01*
X265000Y294500D02*
X265665D01*
X268039Y292126D01*
X255000Y294500D02*
X260219Y289282D01*
X510384Y248384D02*
Y282116D01*
X498000Y299738D02*
X504500Y306238D01*
Y308000D01*
X255000Y254500D02*
X260297Y259797D01*
X255000Y374500D02*
X259703Y369797D01*
X504500Y288000D02*
X510384Y282116D01*
D51*
X272835Y363901D02*
Y364173D01*
X342675Y326175D02*
X345467D01*
X315500Y299000D02*
X342675Y326175D01*
X345467D02*
X345669Y326378D01*
X404335Y311404D02*
X404339Y311409D01*
X404331Y300394D02*
X404335Y300398D01*
X391892Y282292D02*
X392051Y282132D01*
X391732Y308661D02*
X391892Y308502D01*
X422238Y258459D02*
X422441Y258661D01*
X420973Y258268D02*
X421164Y258459D01*
X421683Y255148D02*
X421713Y255178D01*
X421164Y258459D02*
X422238D01*
X377165Y255118D02*
X377195Y255148D01*
D52*
X343500Y383500D02*
D03*
X353500D02*
D03*
X284646Y214567D02*
D03*
X255000Y214500D02*
D03*
X265000Y224500D02*
D03*
X255000D02*
D03*
X265000Y234500D02*
D03*
X255000D02*
D03*
X265000Y244500D02*
D03*
X255000D02*
D03*
X265000Y254500D02*
D03*
X255000D02*
D03*
X265000Y264500D02*
D03*
X255000D02*
D03*
X265000Y274500D02*
D03*
X255000D02*
D03*
X265000Y284500D02*
D03*
X255000D02*
D03*
X265000Y294500D02*
D03*
X255000D02*
D03*
X265000Y304500D02*
D03*
X255000D02*
D03*
X265000Y314500D02*
D03*
X255000D02*
D03*
X265000Y324500D02*
D03*
X255000D02*
D03*
X265000Y334500D02*
D03*
X255000D02*
D03*
X265000Y344500D02*
D03*
X255000D02*
D03*
X265000Y354500D02*
D03*
X255000D02*
D03*
X265000Y364500D02*
D03*
X255000D02*
D03*
X265000Y374500D02*
D03*
X255000D02*
D03*
X265000Y384500D02*
D03*
X255000D02*
D03*
D53*
X363500Y383500D02*
D03*
X294646Y214567D02*
D03*
D54*
X504500Y268000D02*
D03*
Y288000D02*
D03*
Y308000D02*
D03*
X504000Y354000D02*
D03*
Y334000D02*
D03*
D55*
X265000Y214500D02*
D03*
D56*
X306299Y381496D02*
D03*
X467717Y195276D02*
D03*
D57*
X380709Y219685D02*
D03*
X359055Y223622D02*
D03*
X354331D02*
D03*
X349606D02*
D03*
X438583Y322047D02*
D03*
X435433Y309842D02*
D03*
X376772Y337795D02*
D03*
X274029Y337500D02*
D03*
X345669Y326378D02*
D03*
X341339Y329254D02*
D03*
X340551Y335313D02*
D03*
X347244Y332283D02*
D03*
X348425Y340158D02*
D03*
X407874Y325590D02*
D03*
X453543Y341732D02*
D03*
Y337008D02*
D03*
X340551Y318504D02*
D03*
X458661Y250000D02*
D03*
Y244882D02*
D03*
X355512Y238976D02*
D03*
Y244094D02*
D03*
Y248819D02*
D03*
Y253543D02*
D03*
X453543Y246063D02*
D03*
Y240945D02*
D03*
Y251575D02*
D03*
X455118Y297244D02*
D03*
X449213Y301969D02*
D03*
Y297244D02*
D03*
Y292126D02*
D03*
X455118D02*
D03*
Y287402D02*
D03*
X449213D02*
D03*
X415354Y301969D02*
D03*
Y306693D02*
D03*
X335039Y234646D02*
D03*
X373622Y361024D02*
D03*
X367779Y343307D02*
D03*
X277559Y300000D02*
D03*
X272835Y364173D02*
D03*
X274803Y371654D02*
D03*
X277000Y323500D02*
D03*
X361024Y211811D02*
D03*
X353150Y215748D02*
D03*
X409449Y305512D02*
D03*
X455118Y301969D02*
D03*
X404339Y311409D02*
D03*
X391732Y308661D02*
D03*
X392051Y282132D02*
D03*
X458268Y341732D02*
D03*
Y337008D02*
D03*
Y331890D02*
D03*
X453543D02*
D03*
X413779Y382283D02*
D03*
X418504D02*
D03*
X423228D02*
D03*
X427953D02*
D03*
X414961Y340945D02*
D03*
Y334646D02*
D03*
X408661Y346850D02*
D03*
X419291Y285827D02*
D03*
Y290551D02*
D03*
Y295669D02*
D03*
X414173Y285827D02*
D03*
Y290551D02*
D03*
Y295669D02*
D03*
X404331Y300394D02*
D03*
X417717Y273622D02*
D03*
X411417D02*
D03*
X405118D02*
D03*
X421713Y255178D02*
D03*
X422441Y258661D02*
D03*
X436221Y267717D02*
D03*
X431102D02*
D03*
X425984Y262598D02*
D03*
X431102D02*
D03*
X436221D02*
D03*
X425984Y267717D02*
D03*
X420472Y237402D02*
D03*
X409055D02*
D03*
X414961D02*
D03*
X386614Y258268D02*
D03*
X397638Y240551D02*
D03*
X377165Y255118D02*
D03*
X359055Y233071D02*
D03*
X302362Y237529D02*
D03*
X306299Y231470D02*
D03*
X418898Y337795D02*
D03*
X353937Y315354D02*
D03*
X358661D02*
D03*
X363386D02*
D03*
Y310630D02*
D03*
Y305906D02*
D03*
X358661D02*
D03*
X353937Y310630D02*
D03*
X358555Y310579D02*
D03*
X353921Y305890D02*
D03*
X469291Y383071D02*
D03*
Y387795D02*
D03*
X473622D02*
D03*
Y378346D02*
D03*
X469291D02*
D03*
X473622Y383071D02*
D03*
X354331Y228346D02*
D03*
X273500Y295791D02*
D03*
X315500Y299000D02*
D03*
X281500Y309000D02*
D03*
X271000Y323500D02*
D03*
X354331Y233071D02*
D03*
X463500Y305000D02*
D03*
X441000Y359000D02*
D03*
X309842Y251575D02*
D03*
X306000Y255500D02*
D03*
X302362Y259055D02*
D03*
X305512Y245669D02*
D03*
X298425Y252362D02*
D03*
X459780Y355231D02*
D03*
X302000Y249000D02*
D03*
X349606Y228346D02*
D03*
Y233071D02*
D03*
X359055Y228346D02*
D03*
D58*
X330000Y285000D02*
D03*
Y255000D02*
D03*
X322500Y300000D02*
D03*
X315000Y285000D02*
D03*
X322500Y270000D02*
D03*
X315000Y255000D02*
D03*
X307500Y270000D02*
D03*
M02*
