G04*
G04 #@! TF.GenerationSoftware,Altium Limited,Altium Designer,21.6.1 (37)*
G04*
G04 Layer_Physical_Order=1*
G04 Layer_Color=255*
%FSLAX25Y25*%
%MOIN*%
G70*
G04*
G04 #@! TF.SameCoordinates,B2079DFB-0366-4D49-8141-05D7A233A1B4*
G04*
G04*
G04 #@! TF.FilePolarity,Positive*
G04*
G01*
G75*
%ADD13C,0.01000*%
%ADD15R,0.04016X0.02402*%
%ADD16R,0.05000X0.02402*%
%ADD17R,0.15000X0.15394*%
%ADD18R,0.00984X0.03347*%
%ADD19R,0.03347X0.00984*%
%ADD20R,0.16732X0.16732*%
G04:AMPARAMS|DCode=21|XSize=39.37mil|YSize=39.37mil|CornerRadius=9.84mil|HoleSize=0mil|Usage=FLASHONLY|Rotation=90.000|XOffset=0mil|YOffset=0mil|HoleType=Round|Shape=RoundedRectangle|*
%AMROUNDEDRECTD21*
21,1,0.03937,0.01968,0,0,90.0*
21,1,0.01968,0.03937,0,0,90.0*
1,1,0.01968,0.00984,0.00984*
1,1,0.01968,0.00984,-0.00984*
1,1,0.01968,-0.00984,-0.00984*
1,1,0.01968,-0.00984,0.00984*
%
%ADD21ROUNDEDRECTD21*%
%ADD22R,0.14567X0.12598*%
%ADD23R,0.01000X0.01000*%
%ADD24R,0.02756X0.03347*%
%ADD25R,0.04331X0.10827*%
%ADD26R,0.14173X0.07284*%
%ADD27R,0.03937X0.05315*%
%ADD28R,0.05315X0.03937*%
%ADD29R,0.03347X0.02756*%
%ADD50C,0.01500*%
%ADD51R,0.05906X0.05906*%
%ADD52C,0.05906*%
%ADD53C,0.08268*%
%ADD54R,0.05906X0.05906*%
%ADD55C,0.23622*%
%ADD56C,0.02559*%
G36*
X492000Y377000D02*
X472599D01*
X472500Y377020D01*
X467323D01*
Y389000D01*
X492000D01*
Y377000D01*
D02*
G37*
G36*
X451000Y361811D02*
X450988Y361811D01*
X438519Y361746D01*
Y348859D01*
X409949Y348784D01*
X409115Y349130D01*
X408391D01*
Y353589D01*
X419980D01*
X420566Y353705D01*
X421062Y354037D01*
X421160Y354135D01*
X421492Y354631D01*
X421608Y355217D01*
X421492Y355802D01*
X421160Y356298D01*
X420664Y356629D01*
X420079Y356746D01*
X419584Y356647D01*
X408391D01*
Y361203D01*
X412195D01*
X412271Y361090D01*
X412602Y360869D01*
X412992Y360791D01*
X427165D01*
X427556Y360869D01*
X427886Y361090D01*
X427962Y361203D01*
X430760D01*
X430832Y376000D01*
X451000D01*
Y361811D01*
D02*
G37*
G36*
X519000Y356020D02*
X509383D01*
X509317Y356007D01*
X509249Y356011D01*
X509123Y355968D01*
X508992Y355942D01*
X508937Y355905D01*
X508873Y355883D01*
X508773Y355795D01*
X508662Y355721D01*
X508624Y355665D01*
X508574Y355621D01*
X508325Y355297D01*
X508266Y355177D01*
X508192Y355066D01*
X508179Y355000D01*
X508149Y354940D01*
X508140Y354807D01*
X508114Y354676D01*
Y353458D01*
X507834Y352412D01*
X507292Y351474D01*
X506526Y350708D01*
X505588Y350166D01*
X504542Y349886D01*
X503458D01*
X502412Y350166D01*
X501474Y350708D01*
X500740Y351441D01*
X500594Y351539D01*
X500453Y351643D01*
X500430Y351649D01*
X500410Y351662D01*
X500237Y351696D01*
X500067Y351739D01*
X500043Y351735D01*
X500020Y351740D01*
X499643Y351968D01*
X499520Y352126D01*
Y365000D01*
X499500Y365099D01*
Y365500D01*
X499368Y365500D01*
X499221Y365721D01*
X498890Y365942D01*
X498500Y366020D01*
X473520D01*
Y375980D01*
X492000D01*
X492390Y376058D01*
X492721Y376279D01*
X492942Y376610D01*
X493020Y377000D01*
Y389000D01*
X492942Y389390D01*
X492721Y389721D01*
X492390Y389942D01*
X492000Y390020D01*
X474124D01*
X473622Y390120D01*
X473120Y390020D01*
X469794D01*
X469291Y390120D01*
X468789Y390020D01*
X467323D01*
X466933Y389942D01*
X466602Y389721D01*
X466381Y389390D01*
X466303Y389000D01*
Y377020D01*
X452020D01*
X451629Y376942D01*
X451510Y376862D01*
X451390Y376942D01*
X451000Y377020D01*
X430832D01*
X430638Y376981D01*
X430446Y376944D01*
X430444Y376942D01*
X430442Y376942D01*
X430278Y376833D01*
X430114Y376724D01*
X430113Y376722D01*
X430111Y376721D01*
X430001Y376557D01*
X429892Y376395D01*
X429891Y376392D01*
X429890Y376390D01*
X429851Y376197D01*
X429812Y376005D01*
X429762Y365562D01*
X428097Y365563D01*
X427886Y365878D01*
X427556Y366100D01*
X427165Y366177D01*
X416533D01*
X416341Y366639D01*
X419728Y370026D01*
X420079D01*
X420664Y370142D01*
X421160Y370474D01*
X421492Y370970D01*
X421608Y371555D01*
X421492Y372140D01*
X421160Y372637D01*
X420664Y372968D01*
X420079Y373084D01*
X419095D01*
X418509Y372968D01*
X418013Y372637D01*
X410955Y365579D01*
X368400Y365616D01*
Y387757D01*
X367923D01*
X367721Y388060D01*
X367390Y388281D01*
X367000Y388358D01*
X359901D01*
X359901Y388358D01*
X359901Y388358D01*
X359701Y388318D01*
X359511Y388281D01*
X359511Y388281D01*
X359510Y388281D01*
X359351Y388174D01*
X359180Y388060D01*
X359180Y388059D01*
X359180Y388059D01*
X358826Y387706D01*
X358826Y387706D01*
X358826Y387705D01*
X358704Y387523D01*
X358605Y387375D01*
X358605Y387375D01*
X358605Y387374D01*
X358565Y387172D01*
X358528Y386985D01*
X358528Y386984D01*
X358528Y386984D01*
X358548Y356294D01*
X358195Y355941D01*
X357874D01*
X357484Y355863D01*
X357153Y355642D01*
X356932Y355311D01*
X356854Y354921D01*
Y350127D01*
X356427Y349628D01*
X348241Y349635D01*
X348049Y350097D01*
X354581Y356629D01*
X354913Y357125D01*
X355029Y357710D01*
Y379855D01*
X355493Y380047D01*
X356319Y380681D01*
X356953Y381507D01*
X357351Y382468D01*
X357487Y383500D01*
X357351Y384532D01*
X356953Y385493D01*
X356319Y386319D01*
X355493Y386953D01*
X354532Y387351D01*
X353500Y387487D01*
X352468Y387351D01*
X351507Y386953D01*
X350681Y386319D01*
X350047Y385493D01*
X349649Y384532D01*
X349513Y383500D01*
X349649Y382468D01*
X350047Y381507D01*
X350681Y380681D01*
X351507Y380047D01*
X351971Y379855D01*
Y358344D01*
X335919Y342292D01*
X335587Y341796D01*
X335559Y341656D01*
X335341Y341500D01*
Y327738D01*
X335206Y327294D01*
Y327294D01*
X335207Y327293D01*
X335464Y326949D01*
X335562Y326607D01*
X335587Y326484D01*
X335645Y326397D01*
X335919Y325988D01*
X343551Y318356D01*
X344047Y318024D01*
X344632Y317908D01*
X346885D01*
Y317385D01*
X346530Y317032D01*
X331500Y317142D01*
Y323500D01*
X326466D01*
X326465Y323501D01*
X326075Y323579D01*
X322925D01*
X322535Y323501D01*
X322204Y323280D01*
X321983Y322949D01*
X321906Y322559D01*
Y317441D01*
X321483Y317000D01*
X310841D01*
X308197Y319744D01*
X308302Y320276D01*
Y322244D01*
X308165Y322935D01*
X307773Y323521D01*
X307187Y323913D01*
X307041Y323942D01*
Y324410D01*
X306925Y324995D01*
X306593Y325491D01*
X290158Y341927D01*
Y397000D01*
X369019D01*
X519000Y397000D01*
Y356020D01*
D02*
G37*
G36*
Y323020D02*
X499520D01*
Y350539D01*
X500020Y350720D01*
X500848Y349892D01*
X502018Y349216D01*
X503324Y348866D01*
X504676D01*
X505982Y349216D01*
X507152Y349892D01*
X508108Y350848D01*
X508784Y352018D01*
X509134Y353324D01*
Y354676D01*
X509383Y355000D01*
X519000D01*
Y323020D01*
D02*
G37*
G36*
X367000Y345451D02*
X366488Y345240D01*
X365847Y344598D01*
X365500Y343760D01*
Y342854D01*
X365847Y342016D01*
X365971Y341892D01*
Y340000D01*
X358285D01*
X357965Y340214D01*
X357575Y340291D01*
X354425D01*
X354035Y340214D01*
X353715Y340000D01*
X352120D01*
X351500Y340620D01*
Y343500D01*
X359575D01*
X359575Y346012D01*
X359573Y348430D01*
X359927Y348784D01*
X361024D01*
X361414Y348861D01*
X361745Y349082D01*
X361966Y349413D01*
X362043Y349803D01*
Y354921D01*
X361966Y355311D01*
X361745Y355642D01*
X361414Y355863D01*
X361024Y355941D01*
X359568D01*
X359547Y386985D01*
X359901Y387339D01*
X367000D01*
Y345451D01*
D02*
G37*
G36*
X425573Y343201D02*
X425555Y343110D01*
Y332480D01*
X425573Y332390D01*
X425211Y331890D01*
X412992D01*
Y343701D01*
X425211D01*
X425573Y343201D01*
D02*
G37*
G36*
X460500Y350146D02*
Y349369D01*
X460279Y349221D01*
X460058Y348890D01*
X459980Y348500D01*
Y329876D01*
X436595D01*
X435083Y331388D01*
X435050Y331428D01*
X434982Y332067D01*
X434997Y332090D01*
X435075Y332480D01*
Y343110D01*
X435057Y343201D01*
X435419Y343701D01*
X440124D01*
Y352500D01*
X457961D01*
X460500Y350146D01*
D02*
G37*
G36*
X451000Y311500D02*
X436999D01*
X436724Y311775D01*
X435886Y312122D01*
X434980D01*
X434142Y311775D01*
X433867Y311500D01*
X432516D01*
Y312106D01*
X432438Y312496D01*
X432217Y312827D01*
X431886Y313048D01*
X431496Y313126D01*
X417323D01*
X417035Y313069D01*
X416589Y313309D01*
X416535Y313350D01*
Y325373D01*
X417163Y326000D01*
X432467D01*
X436303Y322164D01*
Y321594D01*
X436650Y320756D01*
X437291Y320115D01*
X438129Y319768D01*
X439036D01*
X439874Y320115D01*
X440515Y320756D01*
X440862Y321594D01*
Y322501D01*
X440515Y323339D01*
X439874Y323980D01*
X439036Y324327D01*
X438466D01*
X437255Y325538D01*
X437446Y326000D01*
X451000D01*
Y311500D01*
D02*
G37*
G36*
X433501Y308551D02*
X434142Y307910D01*
X434252Y307864D01*
Y306477D01*
X434217Y306299D01*
Y295705D01*
X427756D01*
X427366Y295627D01*
X427035Y295406D01*
X426814Y295075D01*
X426736Y294685D01*
Y284055D01*
X426305Y283662D01*
X412992D01*
Y297289D01*
X420866D01*
X421451Y297406D01*
X421948Y297738D01*
X425491Y301281D01*
X425822Y301777D01*
X425939Y302362D01*
X425822Y302947D01*
X425491Y303444D01*
X424995Y303775D01*
X424409Y303892D01*
X423824Y303775D01*
X423328Y303444D01*
X420233Y300348D01*
X412992D01*
Y308661D01*
X416323D01*
X416381Y308370D01*
X416602Y308039D01*
X416933Y307818D01*
X417323Y307740D01*
X431496D01*
X431886Y307818D01*
X432217Y308039D01*
X432438Y308370D01*
X432496Y308661D01*
X433455D01*
X433501Y308551D01*
D02*
G37*
G36*
X472500Y365000D02*
X498500D01*
Y322000D01*
X519000D01*
Y301000D01*
X491665D01*
Y327000D01*
X461000Y327000D01*
Y348500D01*
X468989D01*
Y353500D01*
X463547Y358500D01*
X452000Y358500D01*
Y361712D01*
X452020Y361811D01*
Y376000D01*
X472500D01*
Y365000D01*
D02*
G37*
G36*
X346997Y302114D02*
Y301252D01*
X334500D01*
Y286500D01*
X343385D01*
X343385Y277201D01*
X339961D01*
X339570Y277123D01*
X339240Y276902D01*
X339019Y276571D01*
X338941Y276181D01*
Y265551D01*
X339019Y265161D01*
X339240Y264830D01*
X339570Y264609D01*
X339961Y264532D01*
X343385D01*
Y263421D01*
X340256D01*
X339866Y263344D01*
X339535Y263123D01*
X339314Y262792D01*
X339236Y262402D01*
Y251772D01*
X339314Y251381D01*
X339535Y251051D01*
X339866Y250830D01*
X340256Y250752D01*
X342617D01*
X342768Y250252D01*
X342586Y250130D01*
X342365Y249800D01*
X342287Y249410D01*
Y244291D01*
X342365Y243901D01*
X342586Y243570D01*
X342917Y243349D01*
X343307Y243272D01*
X343385D01*
Y242752D01*
X339961D01*
X339570Y242674D01*
X339486Y242618D01*
X336319D01*
Y242520D01*
X334154D01*
Y242618D01*
X330986D01*
X330902Y242674D01*
X330512Y242752D01*
X326969D01*
X326578Y242674D01*
X326248Y242453D01*
X326027Y242123D01*
X325949Y241732D01*
Y238583D01*
X326027Y238193D01*
X326248Y237862D01*
X326578Y237641D01*
X326824Y237592D01*
X326814Y236614D01*
X321796D01*
X298329Y260081D01*
X298142Y260207D01*
X297061Y261288D01*
X295913D01*
Y261461D01*
X292746D01*
X292662Y261517D01*
X292272Y261594D01*
X290702D01*
Y264906D01*
X292272D01*
X292662Y264983D01*
X292993Y265204D01*
X293214Y265535D01*
X293291Y265925D01*
Y269075D01*
X293214Y269465D01*
X292993Y269796D01*
X292662Y270017D01*
X292272Y270094D01*
X290702D01*
Y296766D01*
X305715Y296862D01*
X315050Y296765D01*
X315500Y296676D01*
X315906Y296757D01*
X318500Y296730D01*
Y302160D01*
X346941D01*
X346997Y302114D01*
D02*
G37*
G36*
X460500Y300109D02*
Y299369D01*
X460279Y299221D01*
X460058Y298890D01*
X459980Y298500D01*
Y283662D01*
X436687D01*
X436256Y284055D01*
Y294685D01*
X436178Y295075D01*
X435957Y295406D01*
X435626Y295627D01*
X435236Y295705D01*
Y306299D01*
X453824D01*
X460500Y300109D01*
D02*
G37*
G36*
X460131Y326500D02*
X460279Y326279D01*
X460610Y326058D01*
X461000Y325980D01*
X490525Y325980D01*
Y300267D01*
X490963D01*
X491275Y300058D01*
X491665Y299980D01*
X519000D01*
Y280000D01*
X461000D01*
Y298500D01*
X468989D01*
Y303500D01*
X463547Y308500D01*
X452000Y308500D01*
Y311402D01*
X452020Y311500D01*
Y326000D01*
X452287Y326500D01*
X460131D01*
D02*
G37*
G36*
X358000Y260000D02*
Y236221D01*
X343701D01*
Y237602D01*
X343894Y237641D01*
X344225Y237862D01*
X344446Y238193D01*
X344524Y238583D01*
Y241732D01*
X345960Y241733D01*
Y243272D01*
X346457D01*
X346847Y243349D01*
X347178Y243570D01*
X347399Y243901D01*
X347476Y244291D01*
Y249410D01*
X347399Y249800D01*
X347178Y250130D01*
X346996Y250252D01*
X347147Y250752D01*
X347736D01*
X348126Y250830D01*
X348457Y251051D01*
X348678Y251381D01*
X348756Y251772D01*
Y262402D01*
X348678Y262792D01*
X348457Y263123D01*
X348126Y263344D01*
X347736Y263421D01*
X346000D01*
Y264532D01*
X347441D01*
X347831Y264609D01*
X348162Y264830D01*
X348383Y265161D01*
X348461Y265551D01*
Y276181D01*
X348383Y276571D01*
X348162Y276902D01*
X347831Y277123D01*
X347441Y277201D01*
X346000D01*
Y283000D01*
X346921D01*
Y282925D01*
X346999Y282535D01*
X347220Y282204D01*
X347551Y281983D01*
X347941Y281906D01*
X348140D01*
X348308Y281406D01*
X348044Y281012D01*
X347928Y280427D01*
X348044Y279841D01*
X348376Y279345D01*
X348872Y279013D01*
X349457Y278897D01*
X350043Y279013D01*
X350205Y279122D01*
X350770Y279010D01*
X351355Y279126D01*
X351851Y279458D01*
X352183Y279954D01*
X352299Y280539D01*
X352183Y281125D01*
X351995Y281406D01*
X352256Y281906D01*
X353059D01*
X353449Y281983D01*
X353780Y282204D01*
X354001Y282535D01*
X354079Y282925D01*
Y283000D01*
X354838D01*
Y291003D01*
X352529D01*
Y292866D01*
X354715Y295052D01*
X355047Y295549D01*
X355163Y296134D01*
Y298965D01*
X355047Y299550D01*
X354913Y299750D01*
Y300656D01*
X358000D01*
Y260000D01*
D02*
G37*
G36*
X451500Y261500D02*
X439000D01*
Y260615D01*
X424016D01*
Y276000D01*
X451500Y276000D01*
Y261500D01*
D02*
G37*
G36*
X422835Y260941D02*
X421987D01*
X421150Y260594D01*
X420508Y259953D01*
X420161Y259115D01*
Y258208D01*
X420396Y257641D01*
X420422Y257110D01*
X420005Y256693D01*
X419130D01*
Y257677D01*
X419052Y258067D01*
X418831Y258398D01*
X418500Y258619D01*
X418110Y258697D01*
X403937D01*
X403547Y258619D01*
X403216Y258398D01*
X402995Y258067D01*
X402917Y257677D01*
Y256693D01*
X400000D01*
Y261856D01*
X410827D01*
X411412Y261973D01*
X411908Y262304D01*
X412499Y262895D01*
X412830Y263391D01*
X412947Y263976D01*
X412830Y264562D01*
X412499Y265058D01*
X412003Y265389D01*
X411417Y265506D01*
X410832Y265389D01*
X410336Y265058D01*
X410193Y264915D01*
X400000D01*
Y276378D01*
X422835D01*
Y260941D01*
D02*
G37*
G36*
X420652Y253150D02*
X421260Y252898D01*
X422166D01*
X422333Y252967D01*
X422830Y252632D01*
X422740Y243211D01*
X422688Y242949D01*
Y237753D01*
X422671Y235972D01*
X399164Y235999D01*
Y238853D01*
X399570Y239260D01*
X399917Y240098D01*
Y241005D01*
X399570Y241842D01*
X399164Y242249D01*
Y249704D01*
X399242Y249798D01*
X399664Y250055D01*
X400072Y249973D01*
X406919D01*
X410336Y246556D01*
X410832Y246225D01*
X411417Y246108D01*
X412003Y246225D01*
X412499Y246556D01*
X412830Y247053D01*
X412947Y247638D01*
X412830Y248223D01*
X412499Y248719D01*
X408634Y252584D01*
X408536Y252650D01*
X408687Y253150D01*
X420652Y253150D01*
D02*
G37*
G36*
X307978Y246107D02*
Y240338D01*
X307516Y240147D01*
X304581Y243081D01*
X304085Y243413D01*
X303500Y243529D01*
X295913D01*
Y244461D01*
X292746D01*
X292662Y244517D01*
X292272Y244594D01*
X291757D01*
Y247406D01*
X292272D01*
X292662Y247483D01*
X292993Y247704D01*
X293214Y248035D01*
X293291Y248425D01*
Y251575D01*
X293214Y251965D01*
X292993Y252296D01*
X292662Y252517D01*
X292272Y252594D01*
X291757D01*
Y256406D01*
X292272D01*
X292662Y256483D01*
X292746Y256539D01*
X295913D01*
Y257471D01*
X296614D01*
X307978Y246107D01*
D02*
G37*
G36*
X429263Y242449D02*
X429176Y242319D01*
X429099Y241929D01*
Y231299D01*
X429176Y230909D01*
X429397Y230578D01*
X429728Y230357D01*
X430118Y230280D01*
X433031D01*
Y216142D01*
X496063D01*
Y231972D01*
X502652Y231980D01*
X518000D01*
Y179921D01*
X392882Y179921D01*
Y217799D01*
X393367D01*
X394205Y218146D01*
X394846Y218788D01*
X395193Y219625D01*
Y220532D01*
X394846Y221370D01*
X394205Y222011D01*
X393367Y222358D01*
X392460D01*
X391622Y222011D01*
X391264Y221654D01*
X346500D01*
Y234686D01*
X346854Y235039D01*
X423707Y234952D01*
Y242949D01*
X429013D01*
X429263Y242449D01*
D02*
G37*
G36*
X461000Y278980D02*
X519000D01*
Y255000D01*
Y233000D01*
X463386D01*
Y248500D01*
X469489D01*
Y248839D01*
X471260D01*
Y252815D01*
X469489D01*
Y253500D01*
X464046Y258500D01*
X452500Y258500D01*
Y261402D01*
X452520Y261500D01*
Y276000D01*
X452500Y276098D01*
Y279000D01*
X460901D01*
X461000Y278980D01*
D02*
G37*
G36*
X307978Y235359D02*
Y226529D01*
X295413D01*
Y227461D01*
X292246D01*
X292162Y227517D01*
X291772Y227594D01*
X291757D01*
Y230906D01*
X292024D01*
X292414Y230983D01*
X292745Y231204D01*
X292966Y231535D01*
X293043Y231925D01*
Y235075D01*
X292966Y235465D01*
X292745Y235796D01*
X292414Y236017D01*
X292024Y236094D01*
X291757D01*
Y239406D01*
X292272D01*
X292662Y239483D01*
X292746Y239539D01*
X295913D01*
Y240471D01*
X302867D01*
X307978Y235359D01*
D02*
G37*
G36*
X297966Y209000D02*
X287854Y209000D01*
X287500Y209354D01*
X287504Y222186D01*
X288004Y222450D01*
X288228Y222406D01*
X291772D01*
X292162Y222483D01*
X292246Y222539D01*
X295413D01*
Y223471D01*
X297966D01*
Y209000D01*
D02*
G37*
G36*
X462205Y231628D02*
X493713D01*
Y217224D01*
X434252D01*
Y230217D01*
X437598D01*
X438364Y230534D01*
X438681Y231299D01*
Y241929D01*
X438364Y242694D01*
X437598Y243011D01*
X434252D01*
Y253283D01*
X462205D01*
X462205Y231628D01*
D02*
G37*
D13*
X389464Y332343D02*
X389500Y332605D01*
X363500Y298748D02*
X363476Y298965D01*
X351000Y293500D02*
X353634Y296134D01*
X351000Y288642D02*
Y293500D01*
X350500Y288142D02*
X351000Y288642D01*
X372556Y292657D02*
X372673D01*
X365445Y297799D02*
Y298965D01*
X367413Y297799D02*
X367421Y297791D01*
X365500Y292657D02*
X367158Y291000D01*
X365445Y297799D02*
X365500Y297744D01*
Y292657D02*
Y297744D01*
X367158Y284417D02*
Y291000D01*
X367422Y297791D02*
X372556Y292657D01*
X367421Y297791D02*
X367422D01*
X372673Y292657D02*
X374142Y291189D01*
X367413Y297799D02*
Y298965D01*
X376772Y328272D02*
Y337795D01*
X370693Y322193D02*
X376772Y328272D01*
X413398Y324398D02*
X416559Y327559D01*
X404476Y305512D02*
X409449D01*
X404331Y305658D02*
X404476Y305512D01*
X370169Y305658D02*
X404331D01*
X301876Y309594D02*
X346941D01*
X274029Y337441D02*
Y337500D01*
Y337441D02*
X301876Y309594D01*
X345669Y326378D02*
X345968Y326080D01*
X351658Y322201D02*
Y324321D01*
X346975Y326080D02*
X349689Y323366D01*
X346724Y329254D02*
X351658Y324321D01*
X345968Y326080D02*
X346975D01*
X341339Y329254D02*
X346724D01*
X337000Y327069D02*
Y341210D01*
Y327069D02*
X344632Y319437D01*
X346941D01*
X337000Y341210D02*
X353500Y357710D01*
X340551Y335313D02*
X348152D01*
X347244Y332283D02*
X347250D01*
X353634Y325900D01*
X348152Y335313D02*
X355602Y327862D01*
Y322193D02*
Y327862D01*
X348425Y340158D02*
X348724Y339859D01*
X350097D01*
X354827Y335130D01*
X353634Y322193D02*
Y325900D01*
X303150Y303689D02*
X312205D01*
X346941D01*
X335236Y240158D02*
X338484D01*
X331988D02*
X335236D01*
X335039Y234646D02*
X335236Y234842D01*
Y240158D01*
X394163Y318042D02*
X394652Y318531D01*
X401712Y325590D01*
X407874D01*
X393165Y317044D02*
X394163Y318042D01*
X387684Y311563D02*
X393165Y317044D01*
X401598Y312598D02*
X413398Y324398D01*
X292000Y314000D02*
X298374Y307626D01*
X265939Y340061D02*
X292000Y314000D01*
X367424Y326209D02*
X373622Y332406D01*
Y361024D01*
X273202Y281916D02*
Y285086D01*
Y281916D02*
X277559Y277559D01*
X272616Y284500D02*
X273202Y285086D01*
X265000Y284500D02*
X272616D01*
X273202Y295493D02*
X273500Y295791D01*
X273202Y285086D02*
Y295493D01*
X367500Y329558D02*
Y343307D01*
X365000Y329179D02*
Y344921D01*
X361508Y325687D02*
X365000Y329179D01*
Y344921D02*
X365354Y345276D01*
X277857Y297340D02*
Y299702D01*
X277559Y300000D02*
X277857Y299702D01*
Y297340D02*
X285039Y290158D01*
X277512Y300047D02*
X277559Y300000D01*
X264250Y300047D02*
X277512D01*
X259547Y295344D02*
X264250Y300047D01*
X259547Y289047D02*
Y295344D01*
X288846Y305775D02*
X290932Y303689D01*
X287285Y307336D02*
X288846Y305775D01*
X271125Y323496D02*
X287285Y307336D01*
X290932Y303689D02*
X303150D01*
X271000Y323500D02*
X271125Y323496D01*
X273133Y363875D02*
X275495D01*
X283858Y355512D01*
X272835Y364173D02*
X273133Y363875D01*
X274803Y371654D02*
X278346Y375197D01*
Y379528D01*
X305512Y321260D02*
Y324410D01*
Y317988D02*
Y321260D01*
X270921Y359000D02*
X305512Y324410D01*
X260500Y359000D02*
X270921D01*
X305512Y317988D02*
X309968Y313531D01*
X274000Y344500D02*
X306937Y311563D01*
X269500Y349000D02*
X274000Y344500D01*
X336169Y220079D02*
X392913D01*
X297248Y259000D02*
X336169Y220079D01*
X308000Y225000D02*
X321189Y211811D01*
X361024D01*
X329752Y215748D02*
X353150D01*
X303500Y242000D02*
X329752Y215748D01*
X391732Y312598D02*
X396665D01*
X401598D01*
X416559Y327559D02*
X433071D01*
X438583Y322047D01*
X402908Y330339D02*
X433969D01*
X435962Y328346D01*
X467023D01*
X386101Y313531D02*
X402908Y330339D01*
X404339Y311409D02*
X404431Y311500D01*
X413000D01*
X388728Y309594D02*
X391732Y312598D01*
X370169Y309594D02*
X388728D01*
X370169Y307626D02*
X390275D01*
X391310Y308661D01*
X391732D01*
X370169Y311563D02*
X387684D01*
X466297Y282132D02*
X466929Y281500D01*
X392051Y282132D02*
X466297D01*
X411319Y363779D02*
X419095Y371555D01*
X408587Y363779D02*
X411319D01*
X419095Y371555D02*
X420079D01*
X403780Y363779D02*
X407087D01*
X382500Y342500D02*
X403780Y363779D01*
X407071Y355118D02*
X409055D01*
X389642Y337689D02*
X407071Y355118D01*
X389642Y337000D02*
Y337689D01*
X389500Y332605D02*
Y332605D01*
Y335500D01*
X389464Y332343D02*
X389464Y332343D01*
X374590Y317469D02*
X389464Y332343D01*
X410555Y355118D02*
X419980D01*
X420079Y355217D01*
X404750Y342845D02*
X408661Y346756D01*
X404750Y342250D02*
Y342845D01*
X408661Y346756D02*
Y346850D01*
X378000Y315500D02*
X404750Y342250D01*
X410161Y298819D02*
X420866D01*
X424409Y302362D01*
X384102Y295327D02*
X385858Y293571D01*
X401726Y293858D02*
X406687Y298819D01*
X386000Y293858D02*
X401726D01*
X406687Y298819D02*
X408661D01*
X383413Y295327D02*
X384102D01*
X377020Y301720D02*
X383413Y295327D01*
X370169Y301720D02*
X377020D01*
X408661Y298819D02*
X410161D01*
X386000Y301142D02*
X386748Y300394D01*
X404331D01*
X410827Y263386D02*
X411417Y263976D01*
X401968Y263386D02*
X410827D01*
X374594Y282046D02*
X393254Y263386D01*
X400468D01*
X401572Y251503D02*
X407552D01*
X411417Y247638D01*
X367158Y284417D02*
X400072Y251503D01*
X363500Y281382D02*
X386614Y258268D01*
X359539Y273138D02*
X377362Y255315D01*
X397638Y240551D02*
Y240945D01*
X361508Y277075D02*
X397638Y240945D01*
X374142Y290500D02*
X374594Y290048D01*
Y282046D02*
Y290048D01*
X359539Y273138D02*
Y298965D01*
X361508Y277075D02*
Y298965D01*
X363500Y281382D02*
Y298748D01*
X363476Y298965D02*
Y298965D01*
X400468Y263386D02*
X401968D01*
X331890Y238976D02*
X332283Y239370D01*
X293748Y242000D02*
X303500D01*
X422130Y311500D02*
X424114Y313484D01*
X424409D01*
X354827Y335130D02*
X355417D01*
X414500Y311500D02*
X422130D01*
X351665Y317469D02*
X353937Y315354D01*
X358555Y310579D01*
X358661Y311811D01*
X268240Y221260D02*
X292126D01*
X265000Y224500D02*
X268240Y221260D01*
X328725Y315633D02*
X346941Y315500D01*
X328142Y316215D02*
X328725Y315633D01*
X328142Y316215D02*
Y320000D01*
X355417Y335130D02*
X357571Y332976D01*
X351658Y322201D02*
X351665Y322193D01*
X286000Y299000D02*
X315500D01*
X280500Y304500D02*
X286000Y299000D01*
X265000Y304500D02*
X280500D01*
X259500Y349000D02*
X269500D01*
X259500Y309000D02*
X281500D01*
X255000Y304500D02*
X259500Y309000D01*
X255000Y284500D02*
X259547Y289047D01*
X277000Y323078D02*
X277743Y322335D01*
Y322312D02*
Y322335D01*
X277000Y323078D02*
Y323500D01*
X277743Y322312D02*
X294299Y305756D01*
X309968Y313531D02*
X346941D01*
X306937Y311563D02*
X346941D01*
X345677Y305756D02*
X345776Y305658D01*
X294299Y305756D02*
X345677D01*
X345776Y305658D02*
X346941D01*
X298374Y307626D02*
X346941D01*
X265000Y344500D02*
X265939Y343561D01*
Y340061D02*
Y343561D01*
X370169Y319437D02*
X372937D01*
X382358Y328858D02*
Y337000D01*
X372937Y319437D02*
X382358Y328858D01*
X365445Y322193D02*
Y324229D01*
X367424Y326209D01*
X367424D01*
X363476Y325534D02*
X367500Y329558D01*
X359500Y327475D02*
X361500Y329475D01*
Y333752D01*
X357571Y322193D02*
Y332976D01*
X409055Y355118D02*
X410555D01*
X407087Y363779D02*
X408587D01*
X413000Y311500D02*
X414500D01*
X400072Y251503D02*
X401572D01*
X382500Y337142D02*
Y342500D01*
X382358Y337000D02*
X382500Y337142D01*
X363476Y322193D02*
Y325534D01*
X359500Y322466D02*
Y327475D01*
X361508Y322193D02*
Y325687D01*
X367413Y322193D02*
X370693D01*
X353500Y357710D02*
Y383500D01*
X370169Y313531D02*
X386101D01*
X370177Y303681D02*
X371646D01*
X371828Y303500D02*
X382953D01*
X385311Y301142D01*
X371646Y303681D02*
X371828Y303500D01*
X370169Y303689D02*
X370177Y303681D01*
X385311Y301142D02*
X386000D01*
X255000Y364500D02*
X260500Y359000D01*
X255000Y344500D02*
X259500Y349000D01*
X255000Y224500D02*
X255000D01*
X259453Y228953D01*
X255000Y234500D02*
X260000Y239500D01*
X255000Y244500D02*
X260547Y250047D01*
X268076D01*
X374142Y290500D02*
Y291189D01*
X287480Y263250D02*
Y267000D01*
Y259500D02*
Y263250D01*
X281279D02*
X287480D01*
X268076Y250047D02*
X281279Y263250D01*
X271165Y239500D02*
X277415Y245750D01*
X260000Y239500D02*
X271165D01*
X287252Y245750D02*
Y249500D01*
Y242000D02*
Y245750D01*
X277415D02*
X287252D01*
X293748Y259000D02*
X297248D01*
X286980Y228675D02*
Y233500D01*
Y225000D02*
Y228675D01*
X293248Y225000D02*
X308000D01*
X286703Y228953D02*
X286980Y228675D01*
X259453Y228953D02*
X286703D01*
X370169Y317469D02*
X374590D01*
X370169Y315500D02*
X378000D01*
X447772Y359000D02*
X447772Y359000D01*
X339500Y298142D02*
X340323Y298965D01*
X349697D01*
X339500Y290500D02*
X345554D01*
X353634Y296134D02*
Y298965D01*
X351665Y296611D02*
Y298965D01*
X345554Y290500D02*
X351665Y296611D01*
X349697Y298150D02*
Y298965D01*
X349689Y298142D02*
X349697Y298150D01*
X350170Y281139D02*
X350770Y280539D01*
X349457Y280427D02*
X350170Y281139D01*
D15*
X443713Y300500D02*
D03*
D03*
Y285500D02*
D03*
Y290500D02*
D03*
Y295500D02*
D03*
X469287Y309000D02*
D03*
D03*
Y324000D02*
D03*
Y319000D02*
D03*
Y314000D02*
D03*
X446457Y245827D02*
D03*
Y240827D02*
D03*
Y235827D02*
D03*
Y250827D02*
D03*
D03*
X443213Y351000D02*
D03*
D03*
Y336000D02*
D03*
Y341000D02*
D03*
Y346000D02*
D03*
X469287Y359000D02*
D03*
D03*
Y374000D02*
D03*
Y369000D02*
D03*
Y364000D02*
D03*
X469787Y264000D02*
D03*
Y269000D02*
D03*
Y274000D02*
D03*
Y259000D02*
D03*
D03*
D16*
X465228Y300500D02*
D03*
X465163Y290363D02*
D03*
Y285363D02*
D03*
Y295363D02*
D03*
X447772Y309000D02*
D03*
X447837Y319137D02*
D03*
Y324137D02*
D03*
Y314137D02*
D03*
X467907Y245690D02*
D03*
Y235689D02*
D03*
Y240689D02*
D03*
X467972Y250827D02*
D03*
X464728Y351000D02*
D03*
X464663Y340863D02*
D03*
Y335863D02*
D03*
Y345863D02*
D03*
X447772Y359000D02*
D03*
X447837Y369137D02*
D03*
Y374137D02*
D03*
Y364137D02*
D03*
X448337Y264137D02*
D03*
Y274137D02*
D03*
Y269137D02*
D03*
X448272Y259000D02*
D03*
D17*
X452000Y293000D02*
D03*
X461000Y316500D02*
D03*
X454744Y243327D02*
D03*
X451500Y343500D02*
D03*
X461000Y366500D02*
D03*
X461500Y266500D02*
D03*
D18*
X349697Y298965D02*
D03*
X351665D02*
D03*
X353634D02*
D03*
X355602D02*
D03*
X357571D02*
D03*
X359539D02*
D03*
X361508D02*
D03*
X363476D02*
D03*
X365445D02*
D03*
X367413D02*
D03*
Y322193D02*
D03*
X365445D02*
D03*
X363476D02*
D03*
X361508D02*
D03*
X359539D02*
D03*
X357571D02*
D03*
X355602D02*
D03*
X353634D02*
D03*
X351665D02*
D03*
X349697D02*
D03*
D19*
X370169Y301720D02*
D03*
Y303689D02*
D03*
Y305658D02*
D03*
Y307626D02*
D03*
Y309594D02*
D03*
Y311563D02*
D03*
Y313531D02*
D03*
Y315500D02*
D03*
Y317469D02*
D03*
Y319437D02*
D03*
X346941D02*
D03*
Y317469D02*
D03*
Y315500D02*
D03*
Y313531D02*
D03*
Y311563D02*
D03*
Y309594D02*
D03*
Y307626D02*
D03*
Y305658D02*
D03*
Y303689D02*
D03*
Y301720D02*
D03*
D20*
X358555Y310579D02*
D03*
D21*
X404331Y305512D02*
D03*
X362598Y270472D02*
D03*
X382283Y262992D02*
D03*
X285039Y290158D02*
D03*
X283858Y333858D02*
D03*
X288583Y316929D02*
D03*
X307087Y302362D02*
D03*
X278346Y379528D02*
D03*
X277559Y277559D02*
D03*
X374016Y354331D02*
D03*
X404500Y342500D02*
D03*
X395276Y316929D02*
D03*
X412992Y326772D02*
D03*
X283858Y355512D02*
D03*
X305512Y321260D02*
D03*
D22*
X424409Y318701D02*
D03*
Y302362D02*
D03*
X420079Y355217D02*
D03*
Y371555D02*
D03*
X411024Y264075D02*
D03*
Y247736D02*
D03*
D23*
X408661Y298819D02*
D03*
X410161D02*
D03*
X401968Y263386D02*
D03*
X400468D02*
D03*
X409055Y355118D02*
D03*
X410555D02*
D03*
X408587Y363779D02*
D03*
X407087D02*
D03*
X413000Y311500D02*
D03*
X414500D02*
D03*
X401572Y251503D02*
D03*
X400072D02*
D03*
D24*
X344980Y240158D02*
D03*
X338484D02*
D03*
X331988D02*
D03*
X325492D02*
D03*
X293248Y225000D02*
D03*
X286752D02*
D03*
X287004Y233500D02*
D03*
X293500D02*
D03*
X287252Y242000D02*
D03*
X293748D02*
D03*
Y250000D02*
D03*
X287252D02*
D03*
Y259000D02*
D03*
X293748D02*
D03*
Y267500D02*
D03*
X287252D02*
D03*
D25*
X437500Y289370D02*
D03*
X425492D02*
D03*
X427854Y236614D02*
D03*
X439862D02*
D03*
X436319Y337795D02*
D03*
X424311D02*
D03*
X350000Y257087D02*
D03*
X337992D02*
D03*
X337697Y270866D02*
D03*
X349705D02*
D03*
D26*
X483858Y382677D02*
D03*
X504528D02*
D03*
X505010Y226678D02*
D03*
X484341D02*
D03*
D27*
X355807Y352362D02*
D03*
X363090D02*
D03*
X382358Y337000D02*
D03*
X389642D02*
D03*
X374142Y290500D02*
D03*
X366858D02*
D03*
X341240Y246850D02*
D03*
X348524D02*
D03*
X328142Y320000D02*
D03*
X320858D02*
D03*
D28*
X386000Y301142D02*
D03*
Y293858D02*
D03*
X350500Y280858D02*
D03*
Y288142D02*
D03*
X339500Y298142D02*
D03*
Y290858D02*
D03*
D29*
X356000Y334252D02*
D03*
Y340748D02*
D03*
X361500Y333752D02*
D03*
Y340248D02*
D03*
D50*
X421713Y255178D02*
X464111D01*
X466203Y253086D01*
X435720Y309842D02*
X436562Y309000D01*
X435433Y309842D02*
X435720D01*
X436562Y309000D02*
X447772D01*
X447426Y258831D02*
X447483Y258888D01*
X422441Y258661D02*
X422610Y258831D01*
X447426D01*
X466518Y251336D02*
X467953D01*
X466203Y251652D02*
Y253086D01*
Y251652D02*
X466518Y251336D01*
X463500Y305000D02*
X465228Y303272D01*
Y300500D02*
Y303272D01*
X459982Y354447D02*
Y355029D01*
X459780Y355231D02*
X459982Y355029D01*
X463429Y351000D02*
X464728D01*
X459982Y354447D02*
X463429Y351000D01*
X441000Y359000D02*
X447772D01*
X447772Y359000D01*
X265000Y214500D02*
X283000D01*
D51*
X293000D02*
D03*
X363500Y383500D02*
D03*
D52*
X283000Y214500D02*
D03*
X255000D02*
D03*
X265000Y224500D02*
D03*
X255000D02*
D03*
X265000Y234500D02*
D03*
X255000D02*
D03*
X265000Y244500D02*
D03*
X255000D02*
D03*
X265000Y254500D02*
D03*
X255000D02*
D03*
X265000Y264500D02*
D03*
X255000D02*
D03*
X265000Y274500D02*
D03*
X255000D02*
D03*
X265000Y284500D02*
D03*
X255000D02*
D03*
X265000Y294500D02*
D03*
X255000D02*
D03*
X265000Y304500D02*
D03*
X255000D02*
D03*
X265000Y314500D02*
D03*
X255000D02*
D03*
X265000Y324500D02*
D03*
X255000D02*
D03*
X265000Y334500D02*
D03*
X255000D02*
D03*
X265000Y344500D02*
D03*
X255000D02*
D03*
X265000Y354500D02*
D03*
X255000D02*
D03*
X265000Y364500D02*
D03*
X255000D02*
D03*
X265000Y374500D02*
D03*
X255000D02*
D03*
X265000Y384500D02*
D03*
X255000D02*
D03*
X353500Y383500D02*
D03*
X343500D02*
D03*
D53*
X504500Y268000D02*
D03*
Y288000D02*
D03*
Y308000D02*
D03*
X504000Y354000D02*
D03*
Y334000D02*
D03*
D54*
X265000Y214500D02*
D03*
D55*
X306299Y381496D02*
D03*
X441732Y192913D02*
D03*
D56*
X376772Y337795D02*
D03*
X274029Y337500D02*
D03*
X345669Y326378D02*
D03*
X341339Y329254D02*
D03*
X340551Y335313D02*
D03*
X347244Y332283D02*
D03*
X348425Y340158D02*
D03*
X407874Y325590D02*
D03*
X453543Y341732D02*
D03*
Y337008D02*
D03*
X340551Y318504D02*
D03*
X458661Y250000D02*
D03*
Y244882D02*
D03*
X355512Y238976D02*
D03*
Y244094D02*
D03*
Y248819D02*
D03*
Y253543D02*
D03*
X453543Y246063D02*
D03*
Y240945D02*
D03*
Y251575D02*
D03*
X455118Y297244D02*
D03*
X449213Y301969D02*
D03*
Y297244D02*
D03*
Y292126D02*
D03*
X455118D02*
D03*
Y287402D02*
D03*
X449213D02*
D03*
X415354Y301969D02*
D03*
Y306693D02*
D03*
X335039Y234646D02*
D03*
X373622Y361024D02*
D03*
X367779Y343307D02*
D03*
X277559Y300000D02*
D03*
X272835Y364173D02*
D03*
X274803Y371654D02*
D03*
X277000Y323500D02*
D03*
X392913Y220079D02*
D03*
X361024Y211811D02*
D03*
X359055Y224016D02*
D03*
X354331D02*
D03*
X353150Y215748D02*
D03*
X409449Y305512D02*
D03*
X435433Y309842D02*
D03*
X455118Y301969D02*
D03*
X438583Y322047D02*
D03*
X404339Y311409D02*
D03*
X391732Y308661D02*
D03*
X392051Y282132D02*
D03*
X458268Y341732D02*
D03*
Y337008D02*
D03*
Y331890D02*
D03*
X453543D02*
D03*
X413779Y382283D02*
D03*
X418504D02*
D03*
X423228D02*
D03*
X427953D02*
D03*
X414961Y340945D02*
D03*
Y334646D02*
D03*
X408661Y346850D02*
D03*
X419291Y285827D02*
D03*
Y290551D02*
D03*
Y295669D02*
D03*
X414961Y285827D02*
D03*
Y290551D02*
D03*
Y295669D02*
D03*
X404331Y300394D02*
D03*
X417717Y273622D02*
D03*
X411417D02*
D03*
X405118D02*
D03*
X421713Y255178D02*
D03*
X422441Y258661D02*
D03*
X436221Y267717D02*
D03*
X431102D02*
D03*
X425984Y262598D02*
D03*
X431102D02*
D03*
X436221D02*
D03*
X425984Y267717D02*
D03*
X420472Y237402D02*
D03*
X409055D02*
D03*
X414961D02*
D03*
X386614Y258268D02*
D03*
X397638Y240551D02*
D03*
X377165Y255118D02*
D03*
X359055Y233071D02*
D03*
X302362Y237529D02*
D03*
X306299Y231470D02*
D03*
X418898Y337795D02*
D03*
X353937Y315354D02*
D03*
X358661D02*
D03*
X363386D02*
D03*
Y310630D02*
D03*
Y305906D02*
D03*
X358661D02*
D03*
X353937Y310630D02*
D03*
X358555Y310579D02*
D03*
X353921Y305890D02*
D03*
X469291Y383071D02*
D03*
Y387795D02*
D03*
X473622D02*
D03*
Y378346D02*
D03*
X469291D02*
D03*
X473622Y383071D02*
D03*
X354331Y228346D02*
D03*
X273500Y295791D02*
D03*
X315500Y299000D02*
D03*
X281500Y309000D02*
D03*
X271000Y323500D02*
D03*
X354331Y233071D02*
D03*
X463500Y305000D02*
D03*
X441000Y359000D02*
D03*
X309842Y251575D02*
D03*
X306000Y255500D02*
D03*
X302362Y259055D02*
D03*
X305512Y245669D02*
D03*
X298425Y252362D02*
D03*
X349606Y224016D02*
D03*
X459780Y355231D02*
D03*
X302000Y249000D02*
D03*
X349606Y228346D02*
D03*
Y233071D02*
D03*
X359055Y228346D02*
D03*
M02*
