G04*
G04 #@! TF.GenerationSoftware,Altium Limited,Altium Designer,21.6.1 (37)*
G04*
G04 Layer_Color=32896*
%FSLAX25Y25*%
%MOIN*%
G70*
G04*
G04 #@! TF.SameCoordinates,B4AB2511-9BA3-4B12-947F-8A4498F88565*
G04*
G04*
G04 #@! TF.FilePolarity,Positive*
G04*
G01*
G75*
%ADD13C,0.01000*%
D13*
X302088Y187738D02*
X306087D01*
Y181739D01*
X302088D01*
X306087Y184739D02*
X304087D01*
X300089Y181739D02*
X298089D01*
X299089D01*
Y187738D01*
X300089D01*
X295090Y181739D02*
X293091D01*
X294091D01*
Y187738D01*
X295090D01*
X287093Y181739D02*
X289092D01*
X290092Y182739D01*
Y184739D01*
X289092Y185738D01*
X287093D01*
X286093Y184739D01*
Y183739D01*
X290092D01*
X284094Y181739D02*
Y185738D01*
X281095D01*
X280095Y184739D01*
Y181739D01*
X272098Y187738D02*
Y181739D01*
X270098Y183739D01*
X268099Y181739D01*
Y187738D01*
X265100Y185738D02*
X263101D01*
X262101Y184739D01*
Y181739D01*
X265100D01*
X266100Y182739D01*
X265100Y183739D01*
X262101D01*
X260102Y181739D02*
Y185738D01*
X257102D01*
X256103Y184739D01*
Y181739D01*
X252104Y179740D02*
X251104D01*
X250105Y180740D01*
Y185738D01*
X253104D01*
X254103Y184739D01*
Y182739D01*
X253104Y181739D01*
X250105D01*
M02*
