G04*
G04 #@! TF.GenerationSoftware,Altium Limited,Altium Designer,21.6.1 (37)*
G04*
G04 Layer_Color=8421504*
%FSLAX25Y25*%
%MOIN*%
G70*
G04*
G04 #@! TF.SameCoordinates,B4AB2511-9BA3-4B12-947F-8A4498F88565*
G04*
G04*
G04 #@! TF.FilePolarity,Positive*
G04*
G01*
G75*
%ADD15R,0.04016X0.02402*%
%ADD16R,0.05000X0.02402*%
%ADD17R,0.15000X0.15394*%
%ADD18R,0.00984X0.03347*%
%ADD19R,0.03347X0.00984*%
%ADD20R,0.16732X0.16732*%
G04:AMPARAMS|DCode=21|XSize=39.37mil|YSize=39.37mil|CornerRadius=9.84mil|HoleSize=0mil|Usage=FLASHONLY|Rotation=90.000|XOffset=0mil|YOffset=0mil|HoleType=Round|Shape=RoundedRectangle|*
%AMROUNDEDRECTD21*
21,1,0.03937,0.01968,0,0,90.0*
21,1,0.01968,0.03937,0,0,90.0*
1,1,0.01968,0.00984,0.00984*
1,1,0.01968,0.00984,-0.00984*
1,1,0.01968,-0.00984,-0.00984*
1,1,0.01968,-0.00984,0.00984*
%
%ADD21ROUNDEDRECTD21*%
%ADD22R,0.14567X0.12598*%
%ADD23R,0.01000X0.01000*%
%ADD24R,0.02756X0.03347*%
%ADD25R,0.04331X0.10827*%
%ADD26R,0.14173X0.07284*%
%ADD27R,0.03937X0.05315*%
%ADD28R,0.05315X0.03937*%
%ADD29R,0.03347X0.02756*%
D15*
X443713Y300500D02*
D03*
D03*
Y285500D02*
D03*
Y290500D02*
D03*
Y295500D02*
D03*
X469287Y309000D02*
D03*
D03*
Y324000D02*
D03*
Y319000D02*
D03*
Y314000D02*
D03*
X446457Y245827D02*
D03*
Y240827D02*
D03*
Y235827D02*
D03*
Y250827D02*
D03*
D03*
X443213Y351000D02*
D03*
D03*
Y336000D02*
D03*
Y341000D02*
D03*
Y346000D02*
D03*
X469287Y359000D02*
D03*
D03*
Y374000D02*
D03*
Y369000D02*
D03*
Y364000D02*
D03*
X469787Y264000D02*
D03*
Y269000D02*
D03*
Y274000D02*
D03*
Y259000D02*
D03*
D03*
D16*
X465228Y300500D02*
D03*
X465163Y290363D02*
D03*
Y285363D02*
D03*
Y295363D02*
D03*
X447772Y309000D02*
D03*
X447837Y319137D02*
D03*
Y324137D02*
D03*
Y314137D02*
D03*
X467907Y245690D02*
D03*
Y235689D02*
D03*
Y240689D02*
D03*
X467972Y250827D02*
D03*
X464728Y351000D02*
D03*
X464663Y340863D02*
D03*
Y335863D02*
D03*
Y345863D02*
D03*
X447772Y359000D02*
D03*
X447837Y369137D02*
D03*
Y374137D02*
D03*
Y364137D02*
D03*
X448337Y264137D02*
D03*
Y274137D02*
D03*
Y269137D02*
D03*
X448272Y259000D02*
D03*
D17*
X452000Y293000D02*
D03*
X461000Y316500D02*
D03*
X454744Y243327D02*
D03*
X451500Y343500D02*
D03*
X461000Y366500D02*
D03*
X461500Y266500D02*
D03*
D18*
X349697Y298965D02*
D03*
X351665D02*
D03*
X353634D02*
D03*
X355602D02*
D03*
X357571D02*
D03*
X359539D02*
D03*
X361508D02*
D03*
X363476D02*
D03*
X365445D02*
D03*
X367413D02*
D03*
Y322193D02*
D03*
X365445D02*
D03*
X363476D02*
D03*
X361508D02*
D03*
X359539D02*
D03*
X357571D02*
D03*
X355602D02*
D03*
X353634D02*
D03*
X351665D02*
D03*
X349697D02*
D03*
D19*
X370169Y301720D02*
D03*
Y303689D02*
D03*
Y305658D02*
D03*
Y307626D02*
D03*
Y309594D02*
D03*
Y311563D02*
D03*
Y313531D02*
D03*
Y315500D02*
D03*
Y317469D02*
D03*
Y319437D02*
D03*
X346941D02*
D03*
Y317469D02*
D03*
Y315500D02*
D03*
Y313531D02*
D03*
Y311563D02*
D03*
Y309594D02*
D03*
Y307626D02*
D03*
Y305658D02*
D03*
Y303689D02*
D03*
Y301720D02*
D03*
D20*
X358555Y310579D02*
D03*
D21*
X404331Y305512D02*
D03*
X362598Y270472D02*
D03*
X382283Y262992D02*
D03*
X285039Y290158D02*
D03*
X283858Y333858D02*
D03*
X288583Y316929D02*
D03*
X307087Y302362D02*
D03*
X278346Y379528D02*
D03*
X277559Y277559D02*
D03*
X374016Y354331D02*
D03*
X404500Y342500D02*
D03*
X395276Y316929D02*
D03*
X412992Y326772D02*
D03*
X283858Y355512D02*
D03*
X305512Y321260D02*
D03*
D22*
X424409Y318701D02*
D03*
Y302362D02*
D03*
X420079Y355217D02*
D03*
Y371555D02*
D03*
X411024Y264075D02*
D03*
Y247736D02*
D03*
D23*
X408661Y298819D02*
D03*
X410161D02*
D03*
X401968Y263386D02*
D03*
X400468D02*
D03*
X409055Y355118D02*
D03*
X410555D02*
D03*
X408587Y363779D02*
D03*
X407087D02*
D03*
X413000Y311500D02*
D03*
X414500D02*
D03*
X401572Y251503D02*
D03*
X400072D02*
D03*
D24*
X344980Y240158D02*
D03*
X338484D02*
D03*
X331988D02*
D03*
X325492D02*
D03*
X293248Y225000D02*
D03*
X286752D02*
D03*
X287004Y233500D02*
D03*
X293500D02*
D03*
X287252Y242000D02*
D03*
X293748D02*
D03*
Y250000D02*
D03*
X287252D02*
D03*
Y259000D02*
D03*
X293748D02*
D03*
Y267500D02*
D03*
X287252D02*
D03*
D25*
X437500Y289370D02*
D03*
X425492D02*
D03*
X427854Y236614D02*
D03*
X439862D02*
D03*
X436319Y337795D02*
D03*
X424311D02*
D03*
X350000Y257087D02*
D03*
X337992D02*
D03*
X337697Y270866D02*
D03*
X349705D02*
D03*
D26*
X483858Y382677D02*
D03*
X504528D02*
D03*
X505010Y226678D02*
D03*
X484341D02*
D03*
D27*
X355807Y352362D02*
D03*
X363090D02*
D03*
X382358Y337000D02*
D03*
X389642D02*
D03*
X374142Y290500D02*
D03*
X366858D02*
D03*
X341240Y246850D02*
D03*
X348524D02*
D03*
X333071Y320079D02*
D03*
X325787D02*
D03*
D28*
X386000Y301142D02*
D03*
Y293858D02*
D03*
X350500Y280858D02*
D03*
Y288142D02*
D03*
X339500Y298142D02*
D03*
Y290858D02*
D03*
D29*
X356000Y334252D02*
D03*
Y340748D02*
D03*
X361500Y333752D02*
D03*
Y340248D02*
D03*
M02*
