G04*
G04 #@! TF.GenerationSoftware,Altium Limited,Altium Designer,21.6.1 (37)*
G04*
G04 Layer_Color=65535*
%FSLAX25Y25*%
%MOIN*%
G70*
G04*
G04 #@! TF.SameCoordinates,B4AB2511-9BA3-4B12-947F-8A4498F88565*
G04*
G04*
G04 #@! TF.FilePolarity,Positive*
G04*
G01*
G75*
%ADD10C,0.01575*%
%ADD11C,0.00984*%
%ADD12C,0.00787*%
%ADD13C,0.01000*%
%ADD14C,0.00650*%
G36*
X415547Y224454D02*
X416226D01*
Y224318D01*
X416634D01*
Y224182D01*
X417042D01*
Y224046D01*
X417314D01*
Y223910D01*
X417586D01*
Y223774D01*
X417858D01*
Y223638D01*
X417994D01*
Y223502D01*
X418130D01*
Y223366D01*
X418402D01*
Y223230D01*
X418538D01*
Y223094D01*
X418673D01*
Y222958D01*
Y222822D01*
X418809D01*
Y222686D01*
X418945D01*
Y222550D01*
X419081D01*
Y222414D01*
X419217D01*
Y222278D01*
X419625D01*
Y222143D01*
X419897D01*
Y222007D01*
X420169D01*
Y221871D01*
X420441D01*
Y221735D01*
X420577D01*
Y221599D01*
X420713D01*
Y221463D01*
X420849D01*
Y221327D01*
X420985D01*
Y221191D01*
X421120D01*
Y221055D01*
X421256D01*
Y220919D01*
X421392D01*
Y220783D01*
Y220647D01*
X421528D01*
Y220511D01*
Y220375D01*
X421664D01*
Y220239D01*
Y220104D01*
X421800D01*
Y219968D01*
Y219832D01*
Y219696D01*
Y219560D01*
Y219424D01*
X421936D01*
Y219288D01*
Y219152D01*
Y219016D01*
Y218880D01*
Y218744D01*
Y218608D01*
Y218472D01*
Y218336D01*
Y218200D01*
X421800D01*
Y218064D01*
Y217928D01*
Y217793D01*
X421664D01*
Y217656D01*
Y217521D01*
Y217385D01*
X421528D01*
Y217249D01*
Y217113D01*
Y216977D01*
X421664D01*
Y216841D01*
X423024D01*
Y216705D01*
X423839D01*
Y216569D01*
X424247D01*
Y216433D01*
X424791D01*
Y216297D01*
X425199D01*
Y216161D01*
X425470D01*
Y216025D01*
X426014D01*
Y215889D01*
X426558D01*
Y215753D01*
X426694D01*
Y215617D01*
Y215481D01*
Y215346D01*
Y215210D01*
X426558D01*
Y215074D01*
X426422D01*
Y214938D01*
Y214802D01*
X426286D01*
Y214666D01*
X426150D01*
Y214530D01*
X426014D01*
Y214394D01*
X425878D01*
Y214258D01*
Y214122D01*
X425742D01*
Y213986D01*
X425606D01*
Y213850D01*
X425470D01*
Y213714D01*
X425335D01*
Y213578D01*
X425199D01*
Y213442D01*
Y213306D01*
X425063D01*
Y213170D01*
X424927D01*
Y213035D01*
X424791D01*
Y212899D01*
X424655D01*
Y212763D01*
X424519D01*
Y212627D01*
Y212491D01*
X424383D01*
Y212355D01*
X424247D01*
Y212219D01*
X424111D01*
Y212083D01*
X423975D01*
Y211947D01*
X423839D01*
Y211811D01*
X423703D01*
Y211675D01*
X423567D01*
Y211539D01*
X423431D01*
Y211403D01*
X423295D01*
Y211267D01*
X423160D01*
Y211131D01*
X423024D01*
Y210995D01*
X422888D01*
Y210859D01*
X422752D01*
Y210723D01*
X422480D01*
Y210588D01*
X422344D01*
Y210452D01*
X422208D01*
Y210316D01*
X421936D01*
Y210180D01*
X421800D01*
Y210044D01*
X421528D01*
Y209908D01*
X421392D01*
Y209772D01*
X421120D01*
Y209636D01*
X420985D01*
Y209500D01*
X420713D01*
Y209364D01*
X420577D01*
Y209228D01*
X420305D01*
Y209092D01*
X420033D01*
Y208956D01*
Y208820D01*
X419897D01*
Y208684D01*
Y208548D01*
X419761D01*
Y208413D01*
Y208277D01*
Y208141D01*
Y208005D01*
Y207869D01*
X419625D01*
Y207733D01*
Y207597D01*
Y207461D01*
Y207325D01*
X419489D01*
Y207189D01*
Y207053D01*
X419353D01*
Y206917D01*
Y206781D01*
X419217D01*
Y206645D01*
Y206509D01*
X419081D01*
Y206373D01*
Y206237D01*
X418945D01*
Y206101D01*
X418809D01*
Y205965D01*
Y205830D01*
X418673D01*
Y205694D01*
Y205558D01*
X418538D01*
Y205422D01*
Y205286D01*
X418402D01*
Y205150D01*
X418266D01*
Y205014D01*
Y204878D01*
X418130D01*
Y204742D01*
X417994D01*
Y204606D01*
X417858D01*
Y204470D01*
Y204334D01*
Y204198D01*
Y204062D01*
X417994D01*
Y203926D01*
Y203790D01*
Y203655D01*
X418130D01*
Y203519D01*
X418266D01*
Y203383D01*
X418402D01*
Y203247D01*
X418673D01*
Y203111D01*
X418809D01*
Y202975D01*
X419081D01*
Y202839D01*
X419353D01*
Y202703D01*
X419761D01*
Y202567D01*
X420033D01*
Y202431D01*
X420577D01*
Y202295D01*
X421120D01*
Y202159D01*
X421800D01*
Y202023D01*
X422480D01*
Y202159D01*
X423567D01*
Y202295D01*
X424247D01*
Y202431D01*
X425063D01*
Y202567D01*
X425335D01*
Y202703D01*
X424927D01*
Y202839D01*
X424247D01*
Y202975D01*
X423839D01*
Y203111D01*
X423567D01*
Y203247D01*
X423295D01*
Y203383D01*
X423024D01*
Y203519D01*
X422888D01*
Y203655D01*
X422752D01*
Y203790D01*
X422616D01*
Y203926D01*
X422480D01*
Y204062D01*
X422344D01*
Y204198D01*
Y204334D01*
X422208D01*
Y204470D01*
Y204606D01*
X422072D01*
Y204742D01*
X421936D01*
Y204878D01*
Y205014D01*
Y205150D01*
X421800D01*
Y205286D01*
Y205422D01*
Y205558D01*
Y205694D01*
Y205830D01*
X421664D01*
Y205965D01*
Y206101D01*
Y206237D01*
Y206373D01*
Y206509D01*
Y206645D01*
Y206781D01*
Y206917D01*
Y207053D01*
Y207189D01*
Y207325D01*
Y207461D01*
Y207597D01*
Y207733D01*
X421800D01*
Y207869D01*
Y208005D01*
Y208141D01*
X421936D01*
Y208277D01*
Y208413D01*
X422072D01*
Y208548D01*
Y208684D01*
Y208820D01*
X422208D01*
Y208956D01*
Y209092D01*
X422344D01*
Y209228D01*
X422480D01*
Y209364D01*
X422616D01*
Y209500D01*
Y209636D01*
X422752D01*
Y209772D01*
X422888D01*
Y209908D01*
X423024D01*
Y210044D01*
X423160D01*
Y210180D01*
X423431D01*
Y210316D01*
X423567D01*
Y210452D01*
X423839D01*
Y210588D01*
X423975D01*
Y210723D01*
X424247D01*
Y210859D01*
Y210995D01*
Y211131D01*
X424383D01*
Y211267D01*
Y211403D01*
X424519D01*
Y211539D01*
X424655D01*
Y211675D01*
Y211811D01*
Y211947D01*
X424791D01*
Y212083D01*
X424927D01*
Y212219D01*
X425063D01*
Y212355D01*
Y212491D01*
X425199D01*
Y212627D01*
X425335D01*
Y212763D01*
Y212899D01*
X425470D01*
Y213035D01*
X425606D01*
Y213170D01*
X425742D01*
Y213306D01*
X425878D01*
Y213442D01*
X426014D01*
Y213578D01*
X426150D01*
Y213714D01*
X426286D01*
Y213850D01*
X426558D01*
Y213986D01*
X426830D01*
Y214122D01*
X426966D01*
Y214258D01*
X427238D01*
Y214394D01*
X427374D01*
Y214530D01*
Y214666D01*
X427510D01*
Y214802D01*
Y214938D01*
X427646D01*
Y215074D01*
X427781D01*
Y215210D01*
Y215346D01*
X427917D01*
Y215481D01*
X428053D01*
Y215617D01*
Y215753D01*
X428189D01*
Y215889D01*
X428325D01*
Y216025D01*
X428461D01*
Y216161D01*
X428597D01*
Y216297D01*
X428733D01*
Y216433D01*
X428869D01*
Y216569D01*
X429005D01*
Y216705D01*
X429277D01*
Y216841D01*
X429413D01*
Y216977D01*
X429685D01*
Y217113D01*
X429821D01*
Y217249D01*
X429957D01*
Y217385D01*
X430229D01*
Y217521D01*
X430636D01*
Y217656D01*
X431044D01*
Y217793D01*
X431316D01*
Y217928D01*
X431724D01*
Y218064D01*
X432540D01*
Y218200D01*
X434715D01*
Y218064D01*
X435258D01*
Y217928D01*
X435530D01*
Y217793D01*
X436074D01*
Y217656D01*
X436346D01*
Y217521D01*
X436482D01*
Y217385D01*
X436754D01*
Y217249D01*
X436890D01*
Y217113D01*
X437026D01*
Y216977D01*
X437297D01*
Y216841D01*
X437433D01*
Y216705D01*
X437569D01*
Y216569D01*
X437705D01*
Y216433D01*
X437841D01*
Y216297D01*
Y216161D01*
X438113D01*
Y216025D01*
X438385D01*
Y216161D01*
X438657D01*
Y216297D01*
X440696D01*
Y216161D01*
X441104D01*
Y216025D01*
X441648D01*
Y215889D01*
X441920D01*
Y215753D01*
X442191D01*
Y215617D01*
X442463D01*
Y215481D01*
X442735D01*
Y215346D01*
X442871D01*
Y215210D01*
X443007D01*
Y215074D01*
X443279D01*
Y214938D01*
X443415D01*
Y214802D01*
X443551D01*
Y214666D01*
X443687D01*
Y214530D01*
X443959D01*
Y214394D01*
X444095D01*
Y214258D01*
Y214122D01*
X444231D01*
Y213986D01*
X444367D01*
Y213850D01*
X444502D01*
Y213714D01*
X444638D01*
Y213578D01*
X444774D01*
Y213442D01*
Y213306D01*
X444910D01*
Y213170D01*
X445046D01*
Y213035D01*
X445182D01*
Y212899D01*
Y212763D01*
X445318D01*
Y212627D01*
Y212491D01*
X445454D01*
Y212355D01*
Y212219D01*
X445590D01*
Y212083D01*
Y211947D01*
Y211811D01*
X445726D01*
Y211675D01*
Y211539D01*
X445862D01*
Y211403D01*
Y211267D01*
Y211131D01*
Y210995D01*
X445998D01*
Y210859D01*
Y210723D01*
Y210588D01*
Y210452D01*
Y210316D01*
Y210180D01*
Y210044D01*
Y209908D01*
Y209772D01*
Y209636D01*
Y209500D01*
X446134D01*
Y209364D01*
X445998D01*
Y209228D01*
Y209092D01*
Y208956D01*
Y208820D01*
Y208684D01*
Y208548D01*
Y208413D01*
Y208277D01*
X445862D01*
Y208141D01*
Y208005D01*
X445998D01*
Y207869D01*
X446270D01*
Y207733D01*
X446406D01*
Y207597D01*
X446542D01*
Y207461D01*
X446677D01*
Y207325D01*
X446949D01*
Y207189D01*
X447085D01*
Y207053D01*
X447221D01*
Y206917D01*
Y206781D01*
X447357D01*
Y206645D01*
X447493D01*
Y206509D01*
X447629D01*
Y206373D01*
X447765D01*
Y206237D01*
X447901D01*
Y206101D01*
Y205965D01*
X448037D01*
Y205830D01*
X448173D01*
Y205694D01*
Y205558D01*
X448309D01*
Y205422D01*
X448445D01*
Y205286D01*
Y205150D01*
Y205014D01*
X448581D01*
Y204878D01*
Y204742D01*
X448717D01*
Y204606D01*
Y204470D01*
X448853D01*
Y204334D01*
Y204198D01*
Y204062D01*
X448988D01*
Y203926D01*
X449124D01*
Y203790D01*
Y203655D01*
Y203519D01*
X449260D01*
Y203383D01*
Y203247D01*
Y203111D01*
Y202975D01*
Y202839D01*
X449396D01*
Y202703D01*
Y202567D01*
Y202431D01*
Y202295D01*
Y202159D01*
Y202023D01*
Y201887D01*
Y201751D01*
Y201615D01*
Y201479D01*
Y201343D01*
Y201207D01*
Y201072D01*
Y200936D01*
Y200800D01*
Y200664D01*
Y200528D01*
Y200392D01*
Y200256D01*
X449260D01*
Y200120D01*
Y199984D01*
Y199848D01*
Y199712D01*
Y199576D01*
X449124D01*
Y199440D01*
Y199304D01*
X448988D01*
Y199168D01*
Y199032D01*
Y198897D01*
X448853D01*
Y198761D01*
Y198625D01*
X448717D01*
Y198489D01*
Y198353D01*
X448581D01*
Y198217D01*
Y198081D01*
X448445D01*
Y197945D01*
X448309D01*
Y197809D01*
X448173D01*
Y197673D01*
Y197537D01*
X448037D01*
Y197401D01*
X447901D01*
Y197265D01*
X447765D01*
Y197129D01*
X447629D01*
Y196993D01*
X447493D01*
Y196857D01*
X447357D01*
Y196721D01*
X447221D01*
Y196586D01*
X447085D01*
Y196450D01*
X446813D01*
Y196314D01*
X446677D01*
Y196178D01*
X446542D01*
Y196042D01*
X446406D01*
Y195906D01*
X446134D01*
Y195770D01*
X445998D01*
Y195634D01*
X445726D01*
Y195498D01*
X445454D01*
Y195362D01*
X445318D01*
Y195226D01*
X445182D01*
Y195090D01*
Y194954D01*
Y194818D01*
Y194682D01*
Y194546D01*
Y194410D01*
X445046D01*
Y194274D01*
Y194139D01*
Y194003D01*
X444910D01*
Y193867D01*
Y193731D01*
Y193595D01*
X444774D01*
Y193459D01*
Y193323D01*
X444638D01*
Y193187D01*
Y193051D01*
Y192915D01*
X444502D01*
Y192779D01*
X444367D01*
Y192643D01*
Y192507D01*
X444231D01*
Y192371D01*
X444095D01*
Y192235D01*
X443959D01*
Y192099D01*
X443823D01*
Y191964D01*
X443687D01*
Y191827D01*
X443551D01*
Y191692D01*
X443415D01*
Y191556D01*
X443279D01*
Y191420D01*
X443007D01*
Y191284D01*
X442735D01*
Y191148D01*
X442463D01*
Y191012D01*
X442056D01*
Y190876D01*
X441512D01*
Y190740D01*
X440288D01*
Y190876D01*
X439744D01*
Y191012D01*
X439337D01*
Y191148D01*
X439065D01*
Y191284D01*
X438793D01*
Y191420D01*
X438657D01*
Y191556D01*
X438385D01*
Y191692D01*
X438249D01*
Y191827D01*
X438113D01*
Y191964D01*
X437977D01*
Y192099D01*
X437841D01*
Y192235D01*
X437705D01*
Y192371D01*
X437569D01*
Y192507D01*
X437433D01*
Y192643D01*
X437297D01*
Y192779D01*
Y192915D01*
X437161D01*
Y193051D01*
X437026D01*
Y193187D01*
Y193323D01*
X436890D01*
Y193459D01*
Y193595D01*
X436754D01*
Y193731D01*
X436618D01*
Y193867D01*
X436482D01*
Y194003D01*
X436210D01*
Y194139D01*
X436074D01*
Y194274D01*
X435938D01*
Y194410D01*
X435666D01*
Y194546D01*
X435530D01*
Y194682D01*
X435394D01*
Y194818D01*
X435122D01*
Y194954D01*
X434851D01*
Y195090D01*
X434579D01*
Y195226D01*
X434307D01*
Y195362D01*
X434035D01*
Y195498D01*
X433763D01*
Y195634D01*
X433355D01*
Y195770D01*
X432947D01*
Y195634D01*
X432811D01*
Y195770D01*
X432676D01*
Y195906D01*
Y196042D01*
Y196178D01*
Y196314D01*
Y196450D01*
Y196586D01*
Y196721D01*
Y196857D01*
X432540D01*
Y196993D01*
Y197129D01*
Y197265D01*
Y197401D01*
Y197537D01*
X432268D01*
Y197673D01*
Y197809D01*
Y197945D01*
X432132D01*
Y198081D01*
Y198217D01*
Y198353D01*
X431996D01*
Y198489D01*
Y198625D01*
X431860D01*
Y198761D01*
X431724D01*
Y198897D01*
Y199032D01*
X431588D01*
Y199168D01*
Y199304D01*
X431452D01*
Y199440D01*
Y199576D01*
X431316D01*
Y199712D01*
X431180D01*
Y199848D01*
X431044D01*
Y199984D01*
X430908D01*
Y200120D01*
X430772D01*
Y200256D01*
X430636D01*
Y200392D01*
X430500D01*
Y200528D01*
X430365D01*
Y200664D01*
X430229D01*
Y200800D01*
X430093D01*
Y200936D01*
X429957D01*
Y201072D01*
X429821D01*
Y201207D01*
X429549D01*
Y201343D01*
X429413D01*
Y201479D01*
X429141D01*
Y201615D01*
X429005D01*
Y201751D01*
X428733D01*
Y201887D01*
X428461D01*
Y202023D01*
X428189D01*
Y202159D01*
X428053D01*
Y202295D01*
X427646D01*
Y202431D01*
X425470D01*
Y202295D01*
X425063D01*
Y202159D01*
X424655D01*
Y202023D01*
X423975D01*
Y201887D01*
X423024D01*
Y201751D01*
X421392D01*
Y201887D01*
X420713D01*
Y202023D01*
X420305D01*
Y202159D01*
X419897D01*
Y202295D01*
X419489D01*
Y202431D01*
X419217D01*
Y202567D01*
X418945D01*
Y202703D01*
X418673D01*
Y202839D01*
X418402D01*
Y202975D01*
X418130D01*
Y203111D01*
X417994D01*
Y203247D01*
X417858D01*
Y203383D01*
Y203519D01*
X417722D01*
Y203655D01*
Y203790D01*
X417586D01*
Y203926D01*
Y204062D01*
Y204198D01*
Y204334D01*
Y204470D01*
Y204606D01*
Y204742D01*
X417722D01*
Y204878D01*
Y205014D01*
X417858D01*
Y205150D01*
X417994D01*
Y205286D01*
X418130D01*
Y205422D01*
Y205558D01*
X418266D01*
Y205694D01*
Y205830D01*
X418402D01*
Y205965D01*
X418538D01*
Y206101D01*
Y206237D01*
X418673D01*
Y206373D01*
Y206509D01*
X418809D01*
Y206645D01*
Y206781D01*
X418945D01*
Y206917D01*
X419081D01*
Y207053D01*
Y207189D01*
X419217D01*
Y207325D01*
Y207461D01*
Y207597D01*
Y207733D01*
X419353D01*
Y207869D01*
Y208005D01*
Y208141D01*
X419489D01*
Y208277D01*
Y208413D01*
Y208548D01*
Y208684D01*
X419081D01*
Y208820D01*
Y208956D01*
X418945D01*
Y209092D01*
X418673D01*
Y208956D01*
X418402D01*
Y208820D01*
X417994D01*
Y208956D01*
Y209092D01*
X418130D01*
Y209228D01*
Y209364D01*
X418266D01*
Y209500D01*
Y209636D01*
X417994D01*
Y209500D01*
X417858D01*
Y209364D01*
X417722D01*
Y209500D01*
Y209636D01*
Y209772D01*
X417858D01*
Y209908D01*
X417994D01*
Y210044D01*
X418130D01*
Y210180D01*
Y210316D01*
X418266D01*
Y210452D01*
X418402D01*
Y210588D01*
X418538D01*
Y210723D01*
X418809D01*
Y210859D01*
X418945D01*
Y210995D01*
X419081D01*
Y211131D01*
Y211267D01*
Y211403D01*
X418945D01*
Y211267D01*
X418538D01*
Y211131D01*
X417858D01*
Y210995D01*
X417450D01*
Y211131D01*
X417586D01*
Y211267D01*
X417722D01*
Y211403D01*
X418130D01*
Y211539D01*
X418402D01*
Y211675D01*
X418809D01*
Y211811D01*
X419217D01*
Y211947D01*
X419625D01*
Y212083D01*
Y212219D01*
Y212355D01*
X419217D01*
Y212219D01*
X417450D01*
Y212083D01*
X416226D01*
Y211947D01*
X415819D01*
Y212083D01*
Y212219D01*
X415955D01*
Y212355D01*
X416090D01*
Y212491D01*
X416226D01*
Y212627D01*
X416362D01*
Y212763D01*
X416498D01*
Y212899D01*
X416770D01*
Y213035D01*
X416906D01*
Y213170D01*
X417042D01*
Y213306D01*
X417314D01*
Y213442D01*
X417586D01*
Y213578D01*
X417722D01*
Y213714D01*
X417994D01*
Y213850D01*
X418266D01*
Y213986D01*
X418538D01*
Y214122D01*
X418809D01*
Y214258D01*
X419081D01*
Y214394D01*
X419353D01*
Y214530D01*
X419761D01*
Y214666D01*
X420033D01*
Y214802D01*
X420441D01*
Y214938D01*
X420849D01*
Y215074D01*
X421392D01*
Y215210D01*
X421800D01*
Y215346D01*
X422208D01*
Y215481D01*
X422752D01*
Y215617D01*
X423431D01*
Y215753D01*
X424791D01*
Y215889D01*
X425063D01*
Y216025D01*
X424791D01*
Y216161D01*
X424111D01*
Y216297D01*
X423295D01*
Y216433D01*
X422616D01*
Y216569D01*
X421664D01*
Y216705D01*
X420577D01*
Y216841D01*
X420033D01*
Y216705D01*
X419625D01*
Y216841D01*
X418673D01*
Y216705D01*
X417722D01*
Y216569D01*
X417042D01*
Y216433D01*
X416634D01*
Y216297D01*
X416090D01*
Y216161D01*
X415819D01*
Y216025D01*
X415411D01*
Y215889D01*
X415275D01*
Y215753D01*
X415003D01*
Y215617D01*
X414731D01*
Y215481D01*
X414595D01*
Y215346D01*
X414459D01*
Y215210D01*
X414187D01*
Y215074D01*
X414051D01*
Y214938D01*
Y214802D01*
X413915D01*
Y214666D01*
X413779D01*
Y214530D01*
X413508D01*
Y214666D01*
X413644D01*
Y214802D01*
Y214938D01*
X411740D01*
Y214802D01*
X411061D01*
Y214666D01*
X410517D01*
Y214530D01*
X410109D01*
Y214394D01*
X409701D01*
Y214258D01*
X409158D01*
Y214122D01*
X409022D01*
Y213986D01*
X408886D01*
Y213850D01*
X408750D01*
Y213714D01*
X408478D01*
Y213578D01*
X408342D01*
Y213442D01*
X408206D01*
Y213306D01*
X408070D01*
Y213170D01*
X407934D01*
Y213035D01*
X407798D01*
Y212899D01*
X407662D01*
Y212763D01*
X407526D01*
Y212627D01*
X407390D01*
Y212491D01*
Y212355D01*
X407254D01*
Y212219D01*
Y212083D01*
X407118D01*
Y211947D01*
Y211811D01*
X406982D01*
Y211675D01*
X406847D01*
Y211811D01*
X406711D01*
Y211947D01*
X406575D01*
Y212083D01*
X406439D01*
Y212219D01*
X406303D01*
Y212355D01*
X406167D01*
Y212491D01*
X406031D01*
Y212627D01*
Y212763D01*
X405895D01*
Y212899D01*
X405759D01*
Y213035D01*
Y213170D01*
X405623D01*
Y213306D01*
Y213442D01*
X405487D01*
Y213578D01*
Y213714D01*
Y213850D01*
X405351D01*
Y213986D01*
Y214122D01*
Y214258D01*
Y214394D01*
Y214530D01*
Y214666D01*
X405215D01*
Y214802D01*
X405079D01*
Y214666D01*
Y214530D01*
X404943D01*
Y214394D01*
Y214258D01*
X404807D01*
Y214122D01*
Y213986D01*
X404671D01*
Y213850D01*
Y213714D01*
Y213578D01*
X404535D01*
Y213442D01*
Y213306D01*
Y213170D01*
Y213035D01*
X404399D01*
Y212899D01*
Y212763D01*
Y212627D01*
X404264D01*
Y212491D01*
Y212355D01*
Y212219D01*
X404128D01*
Y212083D01*
Y211947D01*
X403992D01*
Y211811D01*
Y211675D01*
X403856D01*
Y211539D01*
X403720D01*
Y211403D01*
X403584D01*
Y211267D01*
X403312D01*
Y211131D01*
X403040D01*
Y210995D01*
X402768D01*
Y210859D01*
X402496D01*
Y210723D01*
Y210588D01*
X403312D01*
Y210452D01*
X403584D01*
Y210316D01*
X403720D01*
Y210180D01*
Y210044D01*
Y209908D01*
Y209772D01*
Y209636D01*
Y209500D01*
X403584D01*
Y209364D01*
X403448D01*
Y209228D01*
X403176D01*
Y209092D01*
X403040D01*
Y208956D01*
X402224D01*
Y209092D01*
X402088D01*
Y209228D01*
X401953D01*
Y209364D01*
X401817D01*
Y209500D01*
Y209636D01*
X401681D01*
Y209772D01*
Y209908D01*
X401545D01*
Y209772D01*
X401409D01*
Y209636D01*
Y209500D01*
Y209364D01*
Y209228D01*
Y209092D01*
Y208956D01*
X401545D01*
Y208820D01*
Y208684D01*
X401681D01*
Y208548D01*
Y208413D01*
X401817D01*
Y208277D01*
Y208141D01*
X401953D01*
Y208005D01*
Y207869D01*
X402088D01*
Y207733D01*
Y207597D01*
X402224D01*
Y207461D01*
X402360D01*
Y207325D01*
Y207189D01*
X402496D01*
Y207053D01*
X402632D01*
Y206917D01*
X402768D01*
Y206781D01*
Y206645D01*
X402904D01*
Y206509D01*
X403040D01*
Y206373D01*
X403176D01*
Y206237D01*
X403312D01*
Y206101D01*
X403448D01*
Y205965D01*
X403584D01*
Y205830D01*
X403720D01*
Y205694D01*
Y205558D01*
X403856D01*
Y205422D01*
X403992D01*
Y205286D01*
X404128D01*
Y205150D01*
X404264D01*
Y205014D01*
X404399D01*
Y204878D01*
X404535D01*
Y204742D01*
Y204606D01*
X404671D01*
Y204470D01*
X404807D01*
Y204334D01*
X404943D01*
Y204198D01*
Y204062D01*
X405079D01*
Y203926D01*
X405215D01*
Y203790D01*
X405351D01*
Y203655D01*
X405487D01*
Y203519D01*
X405759D01*
Y203383D01*
X406031D01*
Y203247D01*
X406439D01*
Y203111D01*
X406982D01*
Y202975D01*
X407254D01*
Y202839D01*
X407662D01*
Y202703D01*
X408070D01*
Y202567D01*
X408342D01*
Y202431D01*
X408614D01*
Y202295D01*
X408886D01*
Y202159D01*
X409158D01*
Y202023D01*
X409429D01*
Y201887D01*
X409565D01*
Y201751D01*
X409701D01*
Y201615D01*
X409837D01*
Y201479D01*
X409973D01*
Y201343D01*
X410109D01*
Y201207D01*
Y201072D01*
X409973D01*
Y201207D01*
X409837D01*
Y201343D01*
X409565D01*
Y201207D01*
Y201072D01*
Y200936D01*
Y200800D01*
Y200664D01*
Y200528D01*
Y200392D01*
X409429D01*
Y200256D01*
Y200120D01*
Y199984D01*
Y199848D01*
Y199712D01*
Y199576D01*
Y199440D01*
Y199304D01*
Y199168D01*
Y199032D01*
Y198897D01*
Y198761D01*
X409565D01*
Y198625D01*
Y198489D01*
Y198353D01*
Y198217D01*
Y198081D01*
Y197945D01*
X409701D01*
Y197809D01*
Y197673D01*
X409837D01*
Y197537D01*
Y197401D01*
Y197265D01*
X409973D01*
Y197129D01*
Y196993D01*
X410109D01*
Y196857D01*
Y196721D01*
X410245D01*
Y196586D01*
Y196450D01*
X410381D01*
Y196314D01*
Y196178D01*
Y196042D01*
X410517D01*
Y195906D01*
Y195770D01*
X410653D01*
Y195634D01*
X410789D01*
Y195498D01*
Y195362D01*
X410925D01*
Y195226D01*
X411061D01*
Y195090D01*
Y194954D01*
X411197D01*
Y194818D01*
X411333D01*
Y194682D01*
Y194546D01*
X411469D01*
Y194410D01*
X411604D01*
Y194274D01*
X411740D01*
Y194139D01*
Y194003D01*
X411876D01*
Y193867D01*
X412012D01*
Y193731D01*
X412148D01*
Y193595D01*
X412284D01*
Y193459D01*
X412420D01*
Y193323D01*
X412556D01*
Y193187D01*
X412692D01*
Y193051D01*
X412828D01*
Y192915D01*
X412964D01*
Y192779D01*
X413100D01*
Y192643D01*
X413236D01*
Y192507D01*
X413372D01*
Y192371D01*
X413644D01*
Y192235D01*
X413779D01*
Y192099D01*
X413915D01*
Y191964D01*
X414051D01*
Y191827D01*
X414323D01*
Y191692D01*
X414595D01*
Y191556D01*
X414867D01*
Y191420D01*
X415139D01*
Y191284D01*
X415411D01*
Y191420D01*
Y191556D01*
Y191692D01*
X415275D01*
Y191827D01*
X415139D01*
Y191964D01*
Y192099D01*
Y192235D01*
Y192371D01*
X415003D01*
Y192507D01*
Y192643D01*
Y192779D01*
X414867D01*
Y192915D01*
Y193051D01*
Y193187D01*
X414731D01*
Y193323D01*
Y193459D01*
Y193595D01*
Y193731D01*
X414595D01*
Y193867D01*
Y194003D01*
Y194139D01*
Y194274D01*
X414459D01*
Y194410D01*
Y194546D01*
Y194682D01*
Y194818D01*
X414323D01*
Y194954D01*
Y195090D01*
Y195226D01*
Y195362D01*
Y195498D01*
Y195634D01*
Y195770D01*
X414187D01*
Y195906D01*
Y196042D01*
Y196178D01*
Y196314D01*
X414323D01*
Y196450D01*
X414187D01*
Y196586D01*
Y196721D01*
X414051D01*
Y196857D01*
Y196993D01*
X413915D01*
Y197129D01*
Y197265D01*
X413779D01*
Y197401D01*
Y197537D01*
X413644D01*
Y197673D01*
Y197809D01*
X413508D01*
Y197945D01*
X413372D01*
Y198081D01*
X413236D01*
Y198217D01*
Y198353D01*
X413100D01*
Y198489D01*
X412964D01*
Y198625D01*
X412828D01*
Y198761D01*
Y198897D01*
X412692D01*
Y199032D01*
X412556D01*
Y199168D01*
X412284D01*
Y199304D01*
X412148D01*
Y199440D01*
X412012D01*
Y199576D01*
X411740D01*
Y199712D01*
X411604D01*
Y199848D01*
X411197D01*
Y199984D01*
X410789D01*
Y199848D01*
X410381D01*
Y199712D01*
X410245D01*
Y199576D01*
X410109D01*
Y199440D01*
X409973D01*
Y199576D01*
Y199712D01*
Y199848D01*
Y199984D01*
X410245D01*
Y200120D01*
X411469D01*
Y199984D01*
X411740D01*
Y199848D01*
X411876D01*
Y199712D01*
X412148D01*
Y199576D01*
X412284D01*
Y199440D01*
X412556D01*
Y199304D01*
X412692D01*
Y199168D01*
X412828D01*
Y199032D01*
X412964D01*
Y198897D01*
X413100D01*
Y198761D01*
X413236D01*
Y198625D01*
X413372D01*
Y198489D01*
Y198353D01*
X413508D01*
Y198217D01*
X413644D01*
Y198081D01*
Y197945D01*
X413779D01*
Y197809D01*
X413915D01*
Y197673D01*
Y197537D01*
X414051D01*
Y197401D01*
X414187D01*
Y197265D01*
Y197129D01*
X414323D01*
Y196993D01*
Y196857D01*
X414459D01*
Y196721D01*
Y196586D01*
Y196450D01*
Y196314D01*
Y196178D01*
X414595D01*
Y196042D01*
Y195906D01*
Y195770D01*
Y195634D01*
Y195498D01*
Y195362D01*
Y195226D01*
Y195090D01*
X414731D01*
Y194954D01*
Y194818D01*
Y194682D01*
Y194546D01*
X414867D01*
Y194410D01*
Y194274D01*
Y194139D01*
Y194003D01*
Y193867D01*
X415003D01*
Y193731D01*
Y193595D01*
Y193459D01*
X415139D01*
Y193323D01*
Y193187D01*
Y193051D01*
X415275D01*
Y192915D01*
Y192779D01*
Y192643D01*
Y192507D01*
X415411D01*
Y192371D01*
Y192235D01*
Y192099D01*
X415547D01*
Y191964D01*
Y191827D01*
Y191692D01*
Y191556D01*
X415683D01*
Y191420D01*
Y191284D01*
Y191148D01*
Y191012D01*
X415819D01*
Y190876D01*
Y190740D01*
Y190604D01*
X415955D01*
Y190468D01*
Y190332D01*
Y190196D01*
Y190060D01*
X416090D01*
Y189924D01*
Y189788D01*
Y189653D01*
X416226D01*
Y189516D01*
Y189381D01*
Y189245D01*
Y189109D01*
Y188973D01*
Y188837D01*
Y188701D01*
Y188565D01*
Y188429D01*
Y188293D01*
Y188157D01*
Y188021D01*
Y187885D01*
Y187749D01*
Y187613D01*
Y187477D01*
Y187341D01*
Y187206D01*
Y187070D01*
Y186934D01*
Y186798D01*
Y186662D01*
Y186526D01*
Y186390D01*
X416090D01*
Y186254D01*
Y186118D01*
Y185982D01*
Y185846D01*
Y185710D01*
X415955D01*
Y185574D01*
Y185438D01*
Y185302D01*
Y185166D01*
X415819D01*
Y185030D01*
Y184895D01*
Y184759D01*
X415683D01*
Y184623D01*
Y184487D01*
X415547D01*
Y184351D01*
X415275D01*
Y184215D01*
X414867D01*
Y184079D01*
X414595D01*
Y183943D01*
X414459D01*
Y183807D01*
X414323D01*
Y183671D01*
X414187D01*
Y183535D01*
Y183399D01*
Y183263D01*
Y183127D01*
X414323D01*
Y182991D01*
Y182855D01*
X414459D01*
Y182719D01*
X414595D01*
Y182583D01*
X414867D01*
Y182719D01*
Y182855D01*
X414731D01*
Y182991D01*
X414867D01*
Y183127D01*
Y183263D01*
X415003D01*
Y183399D01*
Y183535D01*
X415139D01*
Y183671D01*
X415411D01*
Y183535D01*
X415275D01*
Y183399D01*
Y183263D01*
X415139D01*
Y183127D01*
Y182991D01*
Y182855D01*
Y182719D01*
Y182583D01*
Y182448D01*
X415275D01*
Y182312D01*
X415547D01*
Y182176D01*
X416498D01*
Y182312D01*
Y182448D01*
Y182583D01*
Y182719D01*
Y182855D01*
Y182991D01*
X416634D01*
Y183127D01*
X416906D01*
Y182991D01*
X416770D01*
Y182855D01*
Y182719D01*
Y182583D01*
Y182448D01*
Y182312D01*
Y182176D01*
X417042D01*
Y182040D01*
X417450D01*
Y182176D01*
X417722D01*
Y182312D01*
X417994D01*
Y182448D01*
X418130D01*
Y182583D01*
X418266D01*
Y182719D01*
X418402D01*
Y182855D01*
X418538D01*
Y182991D01*
X418673D01*
Y183127D01*
Y183263D01*
X418809D01*
Y183399D01*
X418945D01*
Y183535D01*
X419081D01*
Y183671D01*
Y183807D01*
X419217D01*
Y183943D01*
Y184079D01*
X419353D01*
Y184215D01*
Y184351D01*
X419489D01*
Y184487D01*
Y184623D01*
X419625D01*
Y184759D01*
Y184895D01*
X419761D01*
Y185030D01*
Y185166D01*
Y185302D01*
X419897D01*
Y185438D01*
Y185574D01*
Y185710D01*
X420033D01*
Y185846D01*
Y185982D01*
Y186118D01*
X420169D01*
Y186254D01*
Y186390D01*
Y186526D01*
X420305D01*
Y186662D01*
Y186798D01*
Y186934D01*
Y187070D01*
X420441D01*
Y187206D01*
Y187341D01*
Y187477D01*
Y187613D01*
X420577D01*
Y187749D01*
Y187885D01*
Y188021D01*
Y188157D01*
X420713D01*
Y188293D01*
Y188429D01*
Y188565D01*
Y188701D01*
Y188837D01*
X420849D01*
Y188973D01*
Y189109D01*
Y189245D01*
Y189381D01*
Y189516D01*
X420985D01*
Y189653D01*
Y189788D01*
Y189924D01*
Y190060D01*
Y190196D01*
X421120D01*
Y190332D01*
Y190468D01*
Y190604D01*
Y190740D01*
Y190876D01*
Y191012D01*
Y191148D01*
Y191284D01*
Y191420D01*
X421256D01*
Y191556D01*
Y191692D01*
Y191827D01*
Y191964D01*
Y192099D01*
Y192235D01*
Y192371D01*
X421392D01*
Y192507D01*
Y192643D01*
Y192779D01*
Y192915D01*
Y193051D01*
Y193187D01*
Y193323D01*
X421528D01*
Y193459D01*
Y193595D01*
Y193731D01*
Y193867D01*
Y194003D01*
X421936D01*
Y193867D01*
X421800D01*
Y193731D01*
Y193595D01*
Y193459D01*
Y193323D01*
Y193187D01*
Y193051D01*
X421664D01*
Y192915D01*
Y192779D01*
Y192643D01*
Y192507D01*
Y192371D01*
Y192235D01*
Y192099D01*
Y191964D01*
X421528D01*
Y191827D01*
Y191692D01*
Y191556D01*
Y191420D01*
Y191284D01*
Y191148D01*
Y191012D01*
X421392D01*
Y190876D01*
Y190740D01*
Y190604D01*
X421528D01*
Y190468D01*
X421800D01*
Y190604D01*
X422344D01*
Y190740D01*
X422888D01*
Y190876D01*
X423567D01*
Y191012D01*
X423975D01*
Y191148D01*
X424247D01*
Y191284D01*
X424655D01*
Y191420D01*
X425063D01*
Y191556D01*
X425199D01*
Y191692D01*
Y191827D01*
X425063D01*
Y191964D01*
Y192099D01*
X424927D01*
Y192235D01*
Y192371D01*
Y192507D01*
Y192643D01*
Y192779D01*
Y192915D01*
X424791D01*
Y193051D01*
Y193187D01*
Y193323D01*
Y193459D01*
Y193595D01*
Y193731D01*
X424655D01*
Y193867D01*
Y194003D01*
Y194139D01*
Y194274D01*
Y194410D01*
Y194546D01*
Y194682D01*
X424519D01*
Y194818D01*
Y194954D01*
Y195090D01*
X424655D01*
Y195226D01*
X424791D01*
Y195090D01*
X424927D01*
Y194954D01*
Y194818D01*
Y194682D01*
Y194546D01*
Y194410D01*
Y194274D01*
Y194139D01*
Y194003D01*
Y193867D01*
X425063D01*
Y193731D01*
Y193595D01*
Y193459D01*
Y193323D01*
Y193187D01*
X425199D01*
Y193051D01*
Y192915D01*
Y192779D01*
Y192643D01*
Y192507D01*
Y192371D01*
X425335D01*
Y192235D01*
Y192099D01*
Y191964D01*
Y191827D01*
X425470D01*
Y191692D01*
Y191556D01*
X425606D01*
Y191420D01*
Y191284D01*
X425742D01*
Y191148D01*
X425878D01*
Y191012D01*
X426014D01*
Y190876D01*
Y190740D01*
X426150D01*
Y190604D01*
X426286D01*
Y190468D01*
X426422D01*
Y190332D01*
X426694D01*
Y190196D01*
X426830D01*
Y190060D01*
X426966D01*
Y189924D01*
X427102D01*
Y189788D01*
X427374D01*
Y189653D01*
X427781D01*
Y189516D01*
X427917D01*
Y189381D01*
X428189D01*
Y189245D01*
X428461D01*
Y189109D01*
X428733D01*
Y188973D01*
X428869D01*
Y188837D01*
X429005D01*
Y188701D01*
X429141D01*
Y188565D01*
Y188429D01*
Y188293D01*
X429277D01*
Y188157D01*
Y188021D01*
Y187885D01*
Y187749D01*
Y187613D01*
Y187477D01*
Y187341D01*
Y187206D01*
X429141D01*
Y187070D01*
Y186934D01*
Y186798D01*
Y186662D01*
Y186526D01*
Y186390D01*
X429005D01*
Y186254D01*
Y186118D01*
Y185982D01*
Y185846D01*
Y185710D01*
Y185574D01*
Y185438D01*
Y185302D01*
X428869D01*
Y185166D01*
Y185030D01*
X428733D01*
Y184895D01*
Y184759D01*
X428597D01*
Y184623D01*
Y184487D01*
X428325D01*
Y184351D01*
X428053D01*
Y184215D01*
X427781D01*
Y184079D01*
X427646D01*
Y183943D01*
X427510D01*
Y183807D01*
X427374D01*
Y183671D01*
Y183535D01*
X427238D01*
Y183399D01*
Y183263D01*
Y183127D01*
X427374D01*
Y182991D01*
Y182855D01*
X427510D01*
Y182719D01*
X427646D01*
Y182855D01*
Y182991D01*
Y183127D01*
Y183263D01*
Y183399D01*
Y183535D01*
X427781D01*
Y183671D01*
Y183807D01*
X427917D01*
Y183943D01*
X428189D01*
Y183807D01*
Y183671D01*
X428053D01*
Y183535D01*
X427917D01*
Y183399D01*
Y183263D01*
Y183127D01*
Y182991D01*
Y182855D01*
Y182719D01*
Y182583D01*
X428053D01*
Y182448D01*
X428189D01*
Y182312D01*
X428733D01*
Y182176D01*
X429005D01*
Y182312D01*
Y182448D01*
Y182583D01*
Y182719D01*
Y182855D01*
Y182991D01*
Y183127D01*
Y183263D01*
X429141D01*
Y183399D01*
Y183535D01*
X429277D01*
Y183671D01*
X429413D01*
Y183807D01*
X429685D01*
Y183671D01*
Y183535D01*
X429549D01*
Y183399D01*
X429413D01*
Y183263D01*
Y183127D01*
X429277D01*
Y182991D01*
Y182855D01*
Y182719D01*
Y182583D01*
Y182448D01*
Y182312D01*
X429413D01*
Y182176D01*
X430229D01*
Y182312D01*
X430636D01*
Y182448D01*
X430908D01*
Y182583D01*
X431044D01*
Y182719D01*
X431180D01*
Y182855D01*
X431316D01*
Y182991D01*
X431452D01*
Y183127D01*
Y183263D01*
X431588D01*
Y183399D01*
X431724D01*
Y183535D01*
Y183671D01*
X431860D01*
Y183807D01*
Y183943D01*
X431996D01*
Y184079D01*
Y184215D01*
Y184351D01*
X432132D01*
Y184487D01*
Y184623D01*
Y184759D01*
X432268D01*
Y184895D01*
Y185030D01*
X432540D01*
Y185166D01*
Y185302D01*
X432676D01*
Y185438D01*
Y185574D01*
Y185710D01*
Y185846D01*
X432811D01*
Y185982D01*
Y186118D01*
Y186254D01*
X432947D01*
Y186390D01*
Y186526D01*
Y186662D01*
Y186798D01*
X433083D01*
Y186934D01*
Y187070D01*
Y187206D01*
Y187341D01*
X433219D01*
Y187477D01*
Y187613D01*
Y187749D01*
Y187885D01*
Y188021D01*
X433355D01*
Y188157D01*
Y188293D01*
Y188429D01*
Y188565D01*
Y188701D01*
Y188837D01*
Y188973D01*
Y189109D01*
Y189245D01*
Y189381D01*
X433219D01*
Y189516D01*
Y189653D01*
X433083D01*
Y189788D01*
Y189924D01*
X432947D01*
Y190060D01*
X432811D01*
Y190196D01*
Y190332D01*
X432676D01*
Y190468D01*
X432540D01*
Y190604D01*
Y190740D01*
Y190876D01*
X432268D01*
Y191012D01*
Y191148D01*
Y191284D01*
Y191420D01*
Y191556D01*
Y191692D01*
Y191827D01*
Y191964D01*
Y192099D01*
Y192235D01*
Y192371D01*
Y192507D01*
Y192643D01*
Y192779D01*
Y192915D01*
X432540D01*
Y193051D01*
Y193187D01*
Y193323D01*
Y193459D01*
Y193595D01*
Y193731D01*
Y193867D01*
Y194003D01*
X432676D01*
Y194139D01*
Y194274D01*
Y194410D01*
Y194546D01*
Y194682D01*
Y194818D01*
Y194954D01*
Y195090D01*
Y195226D01*
Y195362D01*
Y195498D01*
Y195634D01*
X432811D01*
Y195498D01*
Y195362D01*
X432947D01*
Y195226D01*
Y195090D01*
Y194954D01*
Y194818D01*
X432811D01*
Y194682D01*
Y194546D01*
Y194410D01*
Y194274D01*
Y194139D01*
Y194003D01*
Y193867D01*
Y193731D01*
Y193595D01*
Y193459D01*
Y193323D01*
Y193187D01*
X432676D01*
Y193051D01*
Y192915D01*
Y192779D01*
Y192643D01*
Y192507D01*
X432540D01*
Y192371D01*
Y192235D01*
Y192099D01*
Y191964D01*
Y191827D01*
Y191692D01*
Y191556D01*
Y191420D01*
Y191284D01*
Y191148D01*
X432676D01*
Y191012D01*
Y190876D01*
Y190740D01*
X432811D01*
Y190604D01*
X432947D01*
Y190468D01*
Y190332D01*
X433083D01*
Y190196D01*
X433219D01*
Y190060D01*
Y189924D01*
X433355D01*
Y189788D01*
X433491D01*
Y189653D01*
Y189516D01*
Y189381D01*
Y189245D01*
Y189109D01*
Y188973D01*
X433627D01*
Y188837D01*
Y188701D01*
Y188565D01*
Y188429D01*
X433491D01*
Y188293D01*
Y188157D01*
Y188021D01*
Y187885D01*
Y187749D01*
Y187613D01*
Y187477D01*
X433355D01*
Y187341D01*
Y187206D01*
Y187070D01*
Y186934D01*
X433219D01*
Y186798D01*
Y186662D01*
Y186526D01*
Y186390D01*
X433083D01*
Y186254D01*
Y186118D01*
Y185982D01*
X432947D01*
Y185846D01*
Y185710D01*
Y185574D01*
Y185438D01*
X432811D01*
Y185302D01*
Y185166D01*
X432676D01*
Y185030D01*
Y184895D01*
Y184759D01*
X432540D01*
Y184623D01*
Y184487D01*
Y184351D01*
X432404D01*
Y184215D01*
Y184079D01*
Y183943D01*
X432268D01*
Y183807D01*
Y183671D01*
Y183535D01*
X432132D01*
Y183399D01*
X431996D01*
Y183263D01*
Y183127D01*
X431860D01*
Y182991D01*
Y182855D01*
X431724D01*
Y182719D01*
X431588D01*
Y182583D01*
X431452D01*
Y182448D01*
X431316D01*
Y182312D01*
X431180D01*
Y182176D01*
X430908D01*
Y182040D01*
X430772D01*
Y181904D01*
X430229D01*
Y181768D01*
X429821D01*
Y181904D01*
X429277D01*
Y181768D01*
X429141D01*
Y181904D01*
X428325D01*
Y182040D01*
X428053D01*
Y182176D01*
X427781D01*
Y182312D01*
X427510D01*
Y182448D01*
X427238D01*
Y182583D01*
X427102D01*
Y182719D01*
X426966D01*
Y182855D01*
Y182991D01*
X426830D01*
Y183127D01*
Y183263D01*
Y183399D01*
Y183535D01*
X426966D01*
Y183671D01*
Y183807D01*
X427102D01*
Y183943D01*
X427238D01*
Y184079D01*
Y184215D01*
X427374D01*
Y184351D01*
X427646D01*
Y184487D01*
X427917D01*
Y184623D01*
X428053D01*
Y184759D01*
X428189D01*
Y184895D01*
X428325D01*
Y185030D01*
X428461D01*
Y185166D01*
X428597D01*
Y185302D01*
Y185438D01*
Y185574D01*
Y185710D01*
Y185846D01*
X428733D01*
Y185982D01*
Y186118D01*
Y186254D01*
Y186390D01*
Y186526D01*
Y186662D01*
X428869D01*
Y186798D01*
Y186934D01*
Y187070D01*
Y187206D01*
Y187341D01*
Y187477D01*
Y187613D01*
Y187749D01*
Y187885D01*
Y188021D01*
Y188157D01*
Y188293D01*
Y188429D01*
X428733D01*
Y188565D01*
Y188701D01*
X428461D01*
Y188837D01*
X428189D01*
Y188973D01*
X427917D01*
Y189109D01*
X427781D01*
Y189245D01*
X427646D01*
Y189381D01*
X427238D01*
Y189245D01*
Y189109D01*
Y188973D01*
Y188837D01*
X427102D01*
Y188701D01*
Y188565D01*
Y188429D01*
X426966D01*
Y188293D01*
Y188157D01*
Y188021D01*
Y187885D01*
X426830D01*
Y187749D01*
Y187613D01*
X426694D01*
Y187477D01*
Y187341D01*
Y187206D01*
X426558D01*
Y187070D01*
Y186934D01*
Y186798D01*
X426422D01*
Y186662D01*
Y186526D01*
Y186390D01*
X426286D01*
Y186254D01*
Y186118D01*
Y185982D01*
X426150D01*
Y185846D01*
Y185710D01*
Y185574D01*
X426014D01*
Y185438D01*
Y185302D01*
X425878D01*
Y185166D01*
X425742D01*
Y185030D01*
X425606D01*
Y184895D01*
X425470D01*
Y184759D01*
X425199D01*
Y184623D01*
X425063D01*
Y184487D01*
X424655D01*
Y184351D01*
X423839D01*
Y184215D01*
X422888D01*
Y184351D01*
X422616D01*
Y184487D01*
X422344D01*
Y184623D01*
X422072D01*
Y184759D01*
X421936D01*
Y184895D01*
X421800D01*
Y185030D01*
X421664D01*
Y185166D01*
X421528D01*
Y185302D01*
Y185438D01*
X421392D01*
Y185574D01*
Y185710D01*
Y185846D01*
Y185982D01*
Y186118D01*
X421528D01*
Y186254D01*
X421664D01*
Y186390D01*
Y186526D01*
X421800D01*
Y186662D01*
X422208D01*
Y186798D01*
X422344D01*
Y186934D01*
X422480D01*
Y187070D01*
X422616D01*
Y187206D01*
X422752D01*
Y187341D01*
X422888D01*
Y187477D01*
Y187613D01*
X423024D01*
Y187749D01*
Y187885D01*
Y188021D01*
Y188157D01*
X423160D01*
Y188293D01*
Y188429D01*
Y188565D01*
X423295D01*
Y188701D01*
Y188837D01*
Y188973D01*
Y189109D01*
Y189245D01*
X423431D01*
Y189381D01*
Y189516D01*
Y189653D01*
X423567D01*
Y189788D01*
Y189924D01*
Y190060D01*
Y190196D01*
X423703D01*
Y190332D01*
Y190468D01*
Y190604D01*
Y190740D01*
X423431D01*
Y190604D01*
X423160D01*
Y190468D01*
X422616D01*
Y190332D01*
X421664D01*
Y190196D01*
X421392D01*
Y190060D01*
X421256D01*
Y189924D01*
Y189788D01*
Y189653D01*
Y189516D01*
Y189381D01*
Y189245D01*
X421120D01*
Y189109D01*
Y188973D01*
Y188837D01*
Y188701D01*
Y188565D01*
Y188429D01*
Y188293D01*
X420985D01*
Y188157D01*
Y188021D01*
Y187885D01*
Y187749D01*
Y187613D01*
X420849D01*
Y187477D01*
Y187341D01*
Y187206D01*
X420713D01*
Y187070D01*
Y186934D01*
Y186798D01*
Y186662D01*
X420577D01*
Y186526D01*
Y186390D01*
X420441D01*
Y186254D01*
Y186118D01*
Y185982D01*
Y185846D01*
X420305D01*
Y185710D01*
Y185574D01*
Y185438D01*
Y185302D01*
X420169D01*
Y185166D01*
Y185030D01*
Y184895D01*
X420033D01*
Y184759D01*
Y184623D01*
X419897D01*
Y184487D01*
Y184351D01*
X419761D01*
Y184215D01*
Y184079D01*
X419625D01*
Y183943D01*
Y183807D01*
X419489D01*
Y183671D01*
Y183535D01*
X419353D01*
Y183399D01*
Y183263D01*
X419217D01*
Y183127D01*
X419081D01*
Y182991D01*
X418945D01*
Y182855D01*
X418809D01*
Y182719D01*
X418673D01*
Y182583D01*
X418538D01*
Y182448D01*
Y182312D01*
X418402D01*
Y182176D01*
X418266D01*
Y182040D01*
X418130D01*
Y181904D01*
X417722D01*
Y181768D01*
X416498D01*
Y181904D01*
X416362D01*
Y181768D01*
X415547D01*
Y181904D01*
X415275D01*
Y182040D01*
X415003D01*
Y182176D01*
X414595D01*
Y182312D01*
X414323D01*
Y182448D01*
X414187D01*
Y182583D01*
X414051D01*
Y182719D01*
Y182855D01*
Y182991D01*
X413508D01*
Y183127D01*
X412420D01*
Y183263D01*
X412012D01*
Y183399D01*
X411604D01*
Y183535D01*
X411469D01*
Y183671D01*
X411333D01*
Y183807D01*
X411197D01*
Y183943D01*
Y184079D01*
X411061D01*
Y184215D01*
Y184351D01*
Y184487D01*
X411197D01*
Y184623D01*
Y184759D01*
Y184895D01*
X411333D01*
Y185030D01*
X411469D01*
Y185166D01*
X411604D01*
Y185302D01*
X411876D01*
Y185438D01*
X412012D01*
Y185574D01*
Y185710D01*
X412148D01*
Y185846D01*
X412284D01*
Y185982D01*
Y186118D01*
Y186254D01*
X412420D01*
Y186390D01*
Y186526D01*
Y186662D01*
Y186798D01*
Y186934D01*
Y187070D01*
X412284D01*
Y187206D01*
Y187341D01*
Y187477D01*
Y187613D01*
Y187749D01*
Y187885D01*
Y188021D01*
Y188157D01*
Y188293D01*
Y188429D01*
Y188565D01*
X412148D01*
Y188701D01*
Y188837D01*
Y188973D01*
Y189109D01*
Y189245D01*
X412012D01*
Y189381D01*
Y189516D01*
Y189653D01*
Y189788D01*
X411876D01*
Y189924D01*
Y190060D01*
Y190196D01*
Y190332D01*
X411740D01*
Y190468D01*
Y190604D01*
Y190740D01*
X411604D01*
Y190876D01*
Y191012D01*
X411469D01*
Y191148D01*
Y191284D01*
X411333D01*
Y191420D01*
Y191556D01*
Y191692D01*
X411197D01*
Y191827D01*
Y191964D01*
X411061D01*
Y192099D01*
Y192235D01*
X410925D01*
Y192371D01*
Y192507D01*
Y192643D01*
X410789D01*
Y192779D01*
Y192915D01*
X410653D01*
Y193051D01*
Y193187D01*
X410517D01*
Y193323D01*
Y193459D01*
X410381D01*
Y193595D01*
Y193731D01*
Y193867D01*
X410245D01*
Y194003D01*
Y194139D01*
X410109D01*
Y194274D01*
Y194410D01*
Y194546D01*
X409973D01*
Y194682D01*
Y194818D01*
Y194954D01*
X409837D01*
Y195090D01*
Y195226D01*
Y195362D01*
X409701D01*
Y195498D01*
Y195634D01*
Y195770D01*
Y195906D01*
Y196042D01*
X409565D01*
Y196178D01*
Y196314D01*
Y196450D01*
Y196586D01*
X409429D01*
Y196721D01*
Y196857D01*
Y196993D01*
Y197129D01*
Y197265D01*
X409293D01*
Y197401D01*
Y197537D01*
Y197673D01*
Y197809D01*
Y197945D01*
Y198081D01*
X409158D01*
Y198217D01*
Y198353D01*
Y198489D01*
Y198625D01*
Y198761D01*
Y198897D01*
Y199032D01*
Y199168D01*
Y199304D01*
Y199440D01*
Y199576D01*
Y199712D01*
Y199848D01*
Y199984D01*
Y200120D01*
Y200256D01*
Y200392D01*
Y200528D01*
Y200664D01*
Y200800D01*
X409293D01*
Y200936D01*
Y201072D01*
Y201207D01*
Y201343D01*
Y201479D01*
Y201615D01*
X409158D01*
Y201751D01*
X409022D01*
Y201887D01*
X408750D01*
Y202023D01*
X408342D01*
Y202159D01*
X408070D01*
Y202295D01*
X407798D01*
Y202431D01*
X407390D01*
Y202567D01*
X406982D01*
Y202703D01*
X406575D01*
Y202839D01*
X406031D01*
Y202975D01*
X405759D01*
Y203111D01*
X405487D01*
Y203247D01*
X405351D01*
Y203383D01*
X405079D01*
Y203519D01*
X404943D01*
Y203655D01*
Y203790D01*
X404807D01*
Y203926D01*
X404671D01*
Y204062D01*
X404535D01*
Y204198D01*
X404399D01*
Y204334D01*
Y204470D01*
X404264D01*
Y204606D01*
X404128D01*
Y204742D01*
X403992D01*
Y204878D01*
X403856D01*
Y205014D01*
Y205150D01*
X403720D01*
Y205286D01*
X403584D01*
Y205422D01*
X403448D01*
Y205558D01*
X403312D01*
Y205694D01*
X403176D01*
Y205830D01*
X403040D01*
Y205965D01*
X402904D01*
Y206101D01*
X402768D01*
Y206237D01*
Y206373D01*
X402632D01*
Y206509D01*
X402496D01*
Y206645D01*
X402360D01*
Y206781D01*
X402224D01*
Y206917D01*
Y207053D01*
X402088D01*
Y207189D01*
X401953D01*
Y207325D01*
Y207461D01*
X401817D01*
Y207597D01*
X401681D01*
Y207733D01*
Y207869D01*
X401545D01*
Y208005D01*
Y208141D01*
X401409D01*
Y208277D01*
Y208413D01*
X401273D01*
Y208548D01*
Y208684D01*
X401137D01*
Y208820D01*
Y208956D01*
Y209092D01*
X401001D01*
Y209228D01*
Y209364D01*
Y209500D01*
Y209636D01*
X401137D01*
Y209772D01*
Y209908D01*
Y210044D01*
X401273D01*
Y210180D01*
X401409D01*
Y210316D01*
X401545D01*
Y210452D01*
X401681D01*
Y210588D01*
X401817D01*
Y210723D01*
X401953D01*
Y210859D01*
X402224D01*
Y210995D01*
X402496D01*
Y211131D01*
X402768D01*
Y211267D01*
X402904D01*
Y211403D01*
X403176D01*
Y211539D01*
X403448D01*
Y211675D01*
X403584D01*
Y211811D01*
X403720D01*
Y211947D01*
Y212083D01*
X403856D01*
Y212219D01*
Y212355D01*
Y212491D01*
Y212627D01*
X403992D01*
Y212763D01*
Y212899D01*
X404128D01*
Y213035D01*
Y213170D01*
Y213306D01*
X404264D01*
Y213442D01*
Y213578D01*
Y213714D01*
Y213850D01*
Y213986D01*
X404128D01*
Y214122D01*
Y214258D01*
X403992D01*
Y214394D01*
Y214530D01*
X403856D01*
Y214666D01*
Y214802D01*
X403720D01*
Y214938D01*
Y215074D01*
Y215210D01*
X403584D01*
Y215346D01*
Y215481D01*
Y215617D01*
X403448D01*
Y215753D01*
Y215889D01*
Y216025D01*
X403312D01*
Y216161D01*
Y216297D01*
Y216433D01*
Y216569D01*
Y216705D01*
X403176D01*
Y216841D01*
Y216977D01*
Y217113D01*
Y217249D01*
Y217385D01*
Y217521D01*
Y217656D01*
X403040D01*
Y217793D01*
Y217928D01*
Y218064D01*
Y218200D01*
Y218336D01*
Y218472D01*
Y218608D01*
Y218744D01*
Y218880D01*
Y219016D01*
Y219152D01*
X402904D01*
Y219288D01*
Y219424D01*
Y219560D01*
Y219696D01*
Y219832D01*
Y219968D01*
Y220104D01*
Y220239D01*
Y220375D01*
Y220511D01*
Y220647D01*
Y220783D01*
Y220919D01*
Y221055D01*
Y221191D01*
Y221327D01*
Y221463D01*
Y221599D01*
Y221735D01*
Y221871D01*
X403040D01*
Y222007D01*
X403176D01*
Y221871D01*
X403992D01*
Y221735D01*
X404399D01*
Y221599D01*
X404807D01*
Y221463D01*
X405079D01*
Y221327D01*
X405351D01*
Y221191D01*
X405759D01*
Y221055D01*
X406031D01*
Y220919D01*
X406303D01*
Y220783D01*
X406575D01*
Y220647D01*
X406847D01*
Y220511D01*
X407118D01*
Y220375D01*
X407254D01*
Y220239D01*
X407390D01*
Y220104D01*
X407662D01*
Y219968D01*
X407798D01*
Y219832D01*
X408070D01*
Y219696D01*
X408206D01*
Y219560D01*
X408478D01*
Y219424D01*
X408750D01*
Y219560D01*
X409293D01*
Y219696D01*
X409429D01*
Y219832D01*
X409293D01*
Y219968D01*
Y220104D01*
Y220239D01*
X409158D01*
Y220375D01*
Y220511D01*
Y220647D01*
Y220783D01*
Y220919D01*
Y221055D01*
Y221191D01*
Y221327D01*
X409293D01*
Y221463D01*
Y221599D01*
Y221735D01*
Y221871D01*
X409429D01*
Y222007D01*
Y222143D01*
Y222278D01*
X409565D01*
Y222414D01*
X409701D01*
Y222550D01*
Y222686D01*
X409837D01*
Y222822D01*
X409973D01*
Y222958D01*
X410109D01*
Y223094D01*
X410245D01*
Y223230D01*
X410381D01*
Y223366D01*
X410517D01*
Y223502D01*
X410925D01*
Y223638D01*
X411197D01*
Y223774D01*
X413100D01*
Y223910D01*
X413236D01*
Y224046D01*
X413508D01*
Y224182D01*
X413779D01*
Y224318D01*
X414187D01*
Y224454D01*
X415139D01*
Y224590D01*
X415547D01*
Y224454D01*
D02*
G37*
G36*
X412692Y212627D02*
X413100D01*
Y212491D01*
X413372D01*
Y212355D01*
X413644D01*
Y212219D01*
X413779D01*
Y212083D01*
X413915D01*
Y211947D01*
Y211811D01*
X414051D01*
Y211675D01*
X414187D01*
Y211539D01*
Y211403D01*
X414323D01*
Y211267D01*
Y211131D01*
Y210995D01*
Y210859D01*
Y210723D01*
Y210588D01*
Y210452D01*
Y210316D01*
Y210180D01*
Y210044D01*
X414187D01*
Y209908D01*
Y209772D01*
X414051D01*
Y209636D01*
X413915D01*
Y209500D01*
Y209364D01*
X413779D01*
Y209228D01*
X413644D01*
Y209092D01*
X413508D01*
Y208956D01*
X413372D01*
Y208820D01*
X413100D01*
Y208684D01*
X412964D01*
Y208548D01*
X412692D01*
Y208413D01*
X411333D01*
Y208548D01*
X411061D01*
Y208684D01*
X410789D01*
Y208820D01*
X410517D01*
Y208956D01*
X410381D01*
Y209092D01*
X410245D01*
Y209228D01*
X409973D01*
Y209364D01*
X409837D01*
Y209500D01*
X409701D01*
Y209636D01*
Y209772D01*
X409565D01*
Y209908D01*
X409293D01*
Y210044D01*
Y210180D01*
Y210316D01*
Y210452D01*
X409429D01*
Y210588D01*
Y210723D01*
Y210859D01*
X409565D01*
Y210995D01*
X409701D01*
Y211131D01*
Y211267D01*
X409837D01*
Y211403D01*
Y211539D01*
X409973D01*
Y211675D01*
X410109D01*
Y211811D01*
Y211947D01*
X410245D01*
Y212083D01*
X410381D01*
Y212219D01*
X410653D01*
Y212355D01*
X410789D01*
Y212491D01*
X411197D01*
Y212627D01*
X411469D01*
Y212763D01*
X412692D01*
Y212627D01*
D02*
G37*
G36*
X404671Y206509D02*
X405079D01*
Y206373D01*
X405215D01*
Y206237D01*
X405487D01*
Y206101D01*
X405759D01*
Y205965D01*
X405895D01*
Y205830D01*
X406167D01*
Y205694D01*
X406303D01*
Y205558D01*
X406439D01*
Y205422D01*
X406575D01*
Y205286D01*
X406711D01*
Y205150D01*
X406847D01*
Y205014D01*
Y204878D01*
Y204742D01*
X406982D01*
Y204606D01*
Y204470D01*
Y204334D01*
X406847D01*
Y204198D01*
X406711D01*
Y204062D01*
X406439D01*
Y204198D01*
X406167D01*
Y204334D01*
X406031D01*
Y204470D01*
X405895D01*
Y204606D01*
Y204742D01*
X405759D01*
Y204878D01*
X405623D01*
Y205014D01*
Y205150D01*
X405487D01*
Y205286D01*
Y205422D01*
X405351D01*
Y205558D01*
Y205694D01*
X405215D01*
Y205830D01*
X405079D01*
Y205965D01*
X404943D01*
Y206101D01*
X404807D01*
Y206237D01*
X404671D01*
Y206373D01*
X404128D01*
Y206509D01*
Y206645D01*
X404671D01*
Y206509D01*
D02*
G37*
G36*
X254858Y201722D02*
X254746D01*
Y201610D01*
Y201498D01*
Y201386D01*
X254633D01*
Y201273D01*
Y201161D01*
Y201049D01*
X254521D01*
Y200937D01*
Y200825D01*
X254409D01*
Y200713D01*
Y200601D01*
Y200489D01*
X254297D01*
Y200376D01*
Y200264D01*
X254185D01*
Y200152D01*
Y200040D01*
X254073D01*
Y199928D01*
Y199816D01*
X253961D01*
Y199704D01*
Y199592D01*
X253849D01*
Y199479D01*
Y199367D01*
X253736D01*
Y199255D01*
X253624D01*
Y199143D01*
Y199031D01*
X253512D01*
Y198919D01*
X253400D01*
Y198807D01*
X253288D01*
Y198694D01*
X253064D01*
Y198582D01*
X252727D01*
Y198470D01*
X251942D01*
Y198582D01*
X251606D01*
Y198694D01*
X251382D01*
Y198807D01*
X251270D01*
Y198919D01*
X251157D01*
Y199031D01*
X251045D01*
Y199143D01*
X250933D01*
Y199255D01*
Y199367D01*
X250821D01*
Y199479D01*
Y199592D01*
X250709D01*
Y199704D01*
Y199816D01*
Y199928D01*
Y200040D01*
Y200152D01*
Y200264D01*
Y200376D01*
Y200489D01*
Y200601D01*
Y200713D01*
X250821D01*
Y200825D01*
Y200937D01*
X250933D01*
Y201049D01*
Y201161D01*
X251045D01*
Y201273D01*
X251157D01*
Y201386D01*
X251270D01*
Y201498D01*
X251382D01*
Y201610D01*
X251718D01*
Y201722D01*
X252279D01*
Y201834D01*
X254858D01*
Y201722D01*
D02*
G37*
G36*
X321129Y198919D02*
X321577D01*
Y198807D01*
X321913D01*
Y198694D01*
X322138D01*
Y198582D01*
X322362D01*
Y198470D01*
X322474D01*
Y198358D01*
X322698D01*
Y198246D01*
X322811D01*
Y198134D01*
X322923D01*
Y198022D01*
X323147D01*
Y197909D01*
X323259D01*
Y197797D01*
Y197685D01*
X323371D01*
Y197573D01*
X323483D01*
Y197461D01*
X323595D01*
Y197349D01*
Y197237D01*
X323708D01*
Y197125D01*
Y197012D01*
X323820D01*
Y196900D01*
Y196788D01*
X323932D01*
Y196676D01*
Y196564D01*
X324044D01*
Y196452D01*
Y196340D01*
Y196228D01*
Y196115D01*
X324156D01*
Y196003D01*
Y195891D01*
Y195779D01*
Y195667D01*
Y195555D01*
Y195443D01*
Y195330D01*
Y195218D01*
Y195106D01*
Y194994D01*
Y194882D01*
Y194770D01*
Y194658D01*
Y194545D01*
Y194433D01*
Y194321D01*
Y194209D01*
X324044D01*
Y194097D01*
Y193985D01*
Y193873D01*
Y193761D01*
X323932D01*
Y193648D01*
Y193536D01*
Y193424D01*
X323820D01*
Y193312D01*
Y193200D01*
Y193088D01*
X323708D01*
Y192976D01*
Y192864D01*
X323595D01*
Y192751D01*
Y192639D01*
X323483D01*
Y192527D01*
Y192415D01*
X323371D01*
Y192303D01*
Y192191D01*
X323259D01*
Y192079D01*
X323147D01*
Y191966D01*
X323035D01*
Y191854D01*
Y191742D01*
X322923D01*
Y191630D01*
X322811D01*
Y191518D01*
X322698D01*
Y191406D01*
X322586D01*
Y191294D01*
X322474D01*
Y191182D01*
X322362D01*
Y191069D01*
X322138D01*
Y190957D01*
X322025D01*
Y190845D01*
X321801D01*
Y190733D01*
X321689D01*
Y190621D01*
X321465D01*
Y190509D01*
X321241D01*
Y190397D01*
X320904D01*
Y190284D01*
X320568D01*
Y190172D01*
X320119D01*
Y190060D01*
X318213D01*
Y190172D01*
X317764D01*
Y190284D01*
X317428D01*
Y190397D01*
X317092D01*
Y190509D01*
X316867D01*
Y190621D01*
X316755D01*
Y190733D01*
X316531D01*
Y190845D01*
X316419D01*
Y190957D01*
X316307D01*
Y191069D01*
X316083D01*
Y191182D01*
X315970D01*
Y191294D01*
Y191406D01*
X315858D01*
Y191518D01*
X315970D01*
Y191630D01*
Y191742D01*
X316083D01*
Y191854D01*
Y191966D01*
Y192079D01*
X316195D01*
Y192191D01*
Y192303D01*
Y192415D01*
X316307D01*
Y192527D01*
Y192639D01*
Y192751D01*
Y192864D01*
Y192976D01*
Y193088D01*
X316083D01*
Y192976D01*
X315970D01*
Y192864D01*
Y192751D01*
X315858D01*
Y192639D01*
Y192527D01*
X315746D01*
Y192415D01*
Y192303D01*
X315634D01*
Y192191D01*
X315522D01*
Y192079D01*
Y191966D01*
X315410D01*
Y191854D01*
X315298D01*
Y191742D01*
X315185D01*
Y191630D01*
X315073D01*
Y191518D01*
X314961D01*
Y191406D01*
X314849D01*
Y191294D01*
X314737D01*
Y191182D01*
X314625D01*
Y191069D01*
X314513D01*
Y190957D01*
X314288D01*
Y190845D01*
X314176D01*
Y190733D01*
X313952D01*
Y190621D01*
X313728D01*
Y190509D01*
X313503D01*
Y190397D01*
X313279D01*
Y190284D01*
X312943D01*
Y190172D01*
X312494D01*
Y190060D01*
X310476D01*
Y190172D01*
X310027D01*
Y190284D01*
X309691D01*
Y190397D01*
X309467D01*
Y190509D01*
X309242D01*
Y190621D01*
X309018D01*
Y190733D01*
X308906D01*
Y190845D01*
X308682D01*
Y190957D01*
X308570D01*
Y191069D01*
X308457D01*
Y191182D01*
X308345D01*
Y191294D01*
X308233D01*
Y191406D01*
X308121D01*
Y191518D01*
X308009D01*
Y191630D01*
Y191742D01*
X307897D01*
Y191854D01*
X307785D01*
Y191966D01*
Y192079D01*
X307673D01*
Y192191D01*
Y192303D01*
X307560D01*
Y192415D01*
Y192527D01*
Y192639D01*
X307448D01*
Y192751D01*
Y192864D01*
Y192976D01*
Y193088D01*
X307336D01*
Y193200D01*
Y193312D01*
Y193424D01*
Y193536D01*
Y193648D01*
Y193761D01*
Y193873D01*
Y193985D01*
Y194097D01*
Y194209D01*
Y194321D01*
Y194433D01*
Y194545D01*
Y194658D01*
Y194770D01*
Y194882D01*
X307448D01*
Y194994D01*
Y195106D01*
Y195218D01*
Y195330D01*
X307560D01*
Y195443D01*
Y195555D01*
Y195667D01*
X307673D01*
Y195779D01*
Y195891D01*
Y196003D01*
X307785D01*
Y196115D01*
Y196228D01*
X307897D01*
Y196340D01*
Y196452D01*
X308009D01*
Y196564D01*
Y196676D01*
X308121D01*
Y196788D01*
Y196900D01*
X308233D01*
Y197012D01*
X308345D01*
Y197125D01*
X308457D01*
Y197237D01*
Y197349D01*
X308570D01*
Y197461D01*
X308682D01*
Y197573D01*
X308794D01*
Y197685D01*
X308906D01*
Y197797D01*
X309018D01*
Y197909D01*
X309130D01*
Y198022D01*
X309354D01*
Y198134D01*
X309467D01*
Y198246D01*
X309579D01*
Y198358D01*
X309803D01*
Y198470D01*
X310027D01*
Y198582D01*
X310251D01*
Y198694D01*
X310476D01*
Y198807D01*
X310812D01*
Y198919D01*
X311261D01*
Y199031D01*
X313391D01*
Y198919D01*
X313840D01*
Y198807D01*
X314176D01*
Y198694D01*
X314401D01*
Y198582D01*
X314625D01*
Y198470D01*
X314849D01*
Y198358D01*
X314961D01*
Y198246D01*
X315185D01*
Y198134D01*
X315298D01*
Y198022D01*
X315410D01*
Y197909D01*
X315522D01*
Y197797D01*
X315634D01*
Y197685D01*
X315522D01*
Y197573D01*
Y197461D01*
Y197349D01*
X315410D01*
Y197237D01*
Y197125D01*
X315298D01*
Y197012D01*
Y196900D01*
Y196788D01*
Y196676D01*
Y196564D01*
X315185D01*
Y196452D01*
Y196340D01*
Y196228D01*
Y196115D01*
Y196003D01*
X315410D01*
Y196115D01*
X315522D01*
Y196228D01*
Y196340D01*
Y196452D01*
X315634D01*
Y196564D01*
X315746D01*
Y196676D01*
Y196788D01*
X315858D01*
Y196900D01*
Y197012D01*
X315970D01*
Y197125D01*
X316083D01*
Y197237D01*
X316195D01*
Y197349D01*
Y197461D01*
X316307D01*
Y197573D01*
X316419D01*
Y197685D01*
X316531D01*
Y197797D01*
X316643D01*
Y197909D01*
X316867D01*
Y198022D01*
X316980D01*
Y198134D01*
X317092D01*
Y198246D01*
X317316D01*
Y198358D01*
X317428D01*
Y198470D01*
X317652D01*
Y198582D01*
X317877D01*
Y198694D01*
X318213D01*
Y198807D01*
X318549D01*
Y198919D01*
X318998D01*
Y199031D01*
X321129D01*
Y198919D01*
D02*
G37*
G36*
X292310Y198807D02*
X292198D01*
Y198694D01*
Y198582D01*
X292086D01*
Y198470D01*
Y198358D01*
X291974D01*
Y198246D01*
X291862D01*
Y198134D01*
X291750D01*
Y198022D01*
X291637D01*
Y197909D01*
X291413D01*
Y197797D01*
X291189D01*
Y197685D01*
X287489D01*
Y197573D01*
Y197461D01*
Y197349D01*
X287376D01*
Y197237D01*
Y197125D01*
Y197012D01*
Y196900D01*
Y196788D01*
X287264D01*
Y196676D01*
Y196564D01*
Y196452D01*
Y196340D01*
X287152D01*
Y196228D01*
Y196115D01*
Y196003D01*
Y195891D01*
X287040D01*
Y195779D01*
Y195667D01*
Y195555D01*
Y195443D01*
X286928D01*
Y195330D01*
X287152D01*
Y195218D01*
X291413D01*
Y195106D01*
X291301D01*
Y194994D01*
Y194882D01*
X291189D01*
Y194770D01*
X291077D01*
Y194658D01*
Y194545D01*
X290965D01*
Y194433D01*
X290852D01*
Y194321D01*
X290740D01*
Y194209D01*
X290516D01*
Y194097D01*
X290180D01*
Y194209D01*
X289955D01*
Y194097D01*
X290068D01*
Y193985D01*
X286704D01*
Y193873D01*
Y193761D01*
X286591D01*
Y193648D01*
Y193536D01*
Y193424D01*
Y193312D01*
X286479D01*
Y193200D01*
Y193088D01*
Y192976D01*
Y192864D01*
Y192751D01*
X286367D01*
Y192639D01*
Y192527D01*
Y192415D01*
Y192303D01*
X286255D01*
Y192191D01*
Y192079D01*
Y191966D01*
Y191854D01*
X286143D01*
Y191742D01*
Y191630D01*
Y191518D01*
X286255D01*
Y191406D01*
X290628D01*
Y191294D01*
X290516D01*
Y191182D01*
Y191069D01*
X290404D01*
Y190957D01*
Y190845D01*
X290292D01*
Y190733D01*
X290180D01*
Y190621D01*
X290068D01*
Y190509D01*
X289955D01*
Y190397D01*
X289731D01*
Y190284D01*
X289507D01*
Y190172D01*
X284349D01*
Y190284D01*
X284461D01*
Y190397D01*
Y190509D01*
Y190621D01*
X284573D01*
Y190733D01*
Y190845D01*
Y190957D01*
Y191069D01*
Y191182D01*
X284685D01*
Y191294D01*
Y191406D01*
Y191518D01*
Y191630D01*
Y191742D01*
X284797D01*
Y191854D01*
Y191966D01*
Y192079D01*
Y192191D01*
X284909D01*
Y192303D01*
Y192415D01*
Y192527D01*
Y192639D01*
Y192751D01*
X285022D01*
Y192864D01*
Y192976D01*
Y193088D01*
Y193200D01*
X285134D01*
Y193312D01*
Y193424D01*
Y193536D01*
Y193648D01*
Y193761D01*
X285246D01*
Y193873D01*
Y193985D01*
Y194097D01*
Y194209D01*
Y194321D01*
X285358D01*
Y194433D01*
Y194545D01*
Y194658D01*
Y194770D01*
X285470D01*
Y194882D01*
Y194994D01*
Y195106D01*
Y195218D01*
Y195330D01*
X285582D01*
Y195443D01*
Y195555D01*
Y195667D01*
Y195779D01*
X285694D01*
Y195891D01*
Y196003D01*
Y196115D01*
Y196228D01*
Y196340D01*
X285806D01*
Y196452D01*
Y196564D01*
Y196676D01*
Y196788D01*
X285919D01*
Y196900D01*
Y197012D01*
Y197125D01*
Y197237D01*
Y197349D01*
X286031D01*
Y197461D01*
Y197573D01*
Y197685D01*
X286143D01*
Y197797D01*
Y197909D01*
Y198022D01*
X286255D01*
Y198134D01*
Y198246D01*
X286367D01*
Y198358D01*
X286479D01*
Y198470D01*
X286591D01*
Y198582D01*
X286704D01*
Y198694D01*
X286928D01*
Y198807D01*
X287264D01*
Y198919D01*
X292310D01*
Y198807D01*
D02*
G37*
G36*
X424247Y194682D02*
Y194546D01*
X424111D01*
Y194410D01*
X423703D01*
Y194274D01*
X423295D01*
Y194139D01*
X423024D01*
Y194003D01*
X422480D01*
Y193867D01*
X422208D01*
Y194003D01*
X422072D01*
Y194139D01*
X422480D01*
Y194274D01*
X423024D01*
Y194410D01*
X423295D01*
Y194546D01*
X423703D01*
Y194682D01*
X424111D01*
Y194818D01*
X424247D01*
Y194682D01*
D02*
G37*
G36*
X330884Y198807D02*
X331333D01*
Y198694D01*
X331557D01*
Y198582D01*
X331781D01*
Y198470D01*
X331893D01*
Y198358D01*
X332005D01*
Y198246D01*
X332118D01*
Y198134D01*
X332230D01*
Y198022D01*
X332342D01*
Y197909D01*
X332454D01*
Y197797D01*
Y197685D01*
X332566D01*
Y197573D01*
Y197461D01*
Y197349D01*
X332678D01*
Y197237D01*
Y197125D01*
Y197012D01*
Y196900D01*
Y196788D01*
Y196676D01*
Y196564D01*
Y196452D01*
Y196340D01*
Y196228D01*
Y196115D01*
Y196003D01*
Y195891D01*
Y195779D01*
X332566D01*
Y195667D01*
Y195555D01*
Y195443D01*
X332454D01*
Y195330D01*
Y195218D01*
X332342D01*
Y195106D01*
Y194994D01*
X332230D01*
Y194882D01*
X332118D01*
Y194770D01*
Y194658D01*
X332005D01*
Y194545D01*
X331893D01*
Y194433D01*
X331781D01*
Y194321D01*
X331669D01*
Y194209D01*
X331557D01*
Y194097D01*
X331333D01*
Y193985D01*
X331108D01*
Y193873D01*
X330884D01*
Y193761D01*
X330660D01*
Y193648D01*
X330211D01*
Y193536D01*
X326959D01*
Y193424D01*
X326847D01*
Y193312D01*
Y193200D01*
Y193088D01*
X326735D01*
Y192976D01*
Y192864D01*
Y192751D01*
Y192639D01*
Y192527D01*
X326623D01*
Y192415D01*
Y192303D01*
Y192191D01*
Y192079D01*
Y191966D01*
X326511D01*
Y191854D01*
Y191742D01*
Y191630D01*
X326399D01*
Y191518D01*
Y191406D01*
Y191294D01*
X326287D01*
Y191182D01*
Y191069D01*
X326174D01*
Y190957D01*
X326062D01*
Y190845D01*
Y190733D01*
X325950D01*
Y190621D01*
X325726D01*
Y190509D01*
X325614D01*
Y190397D01*
X325390D01*
Y190284D01*
X325053D01*
Y190172D01*
X324717D01*
Y190284D01*
Y190397D01*
X324829D01*
Y190509D01*
Y190621D01*
Y190733D01*
Y190845D01*
Y190957D01*
X324941D01*
Y191069D01*
Y191182D01*
Y191294D01*
Y191406D01*
X325053D01*
Y191518D01*
Y191630D01*
Y191742D01*
Y191854D01*
X325165D01*
Y191966D01*
Y192079D01*
Y192191D01*
Y192303D01*
Y192415D01*
X325277D01*
Y192527D01*
Y192639D01*
Y192751D01*
Y192864D01*
X325390D01*
Y192976D01*
Y193088D01*
Y193200D01*
Y193312D01*
Y193424D01*
X325502D01*
Y193536D01*
Y193648D01*
Y193761D01*
Y193873D01*
X325614D01*
Y193985D01*
Y194097D01*
Y194209D01*
Y194321D01*
X325726D01*
Y194433D01*
Y194545D01*
Y194658D01*
Y194770D01*
Y194882D01*
X325838D01*
Y194994D01*
Y195106D01*
Y195218D01*
Y195330D01*
X325950D01*
Y195443D01*
Y195555D01*
Y195667D01*
Y195779D01*
Y195891D01*
X326062D01*
Y196003D01*
Y196115D01*
Y196228D01*
Y196340D01*
X326174D01*
Y196452D01*
Y196564D01*
Y196676D01*
Y196788D01*
X326287D01*
Y196900D01*
Y197012D01*
Y197125D01*
Y197237D01*
Y197349D01*
X326399D01*
Y197461D01*
Y197573D01*
Y197685D01*
Y197797D01*
X326511D01*
Y197909D01*
Y198022D01*
Y198134D01*
X326623D01*
Y198246D01*
X326735D01*
Y198358D01*
X326847D01*
Y198470D01*
X326959D01*
Y198582D01*
X327071D01*
Y198694D01*
X327296D01*
Y198807D01*
X327632D01*
Y198919D01*
X330884D01*
Y198807D01*
D02*
G37*
G36*
X303748D02*
Y198694D01*
Y198582D01*
X303636D01*
Y198470D01*
Y198358D01*
Y198246D01*
Y198134D01*
X303523D01*
Y198022D01*
Y197909D01*
Y197797D01*
Y197685D01*
Y197573D01*
X303411D01*
Y197461D01*
Y197349D01*
Y197237D01*
Y197125D01*
Y197012D01*
X303299D01*
Y196900D01*
Y196788D01*
Y196676D01*
Y196564D01*
X303187D01*
Y196452D01*
Y196340D01*
Y196228D01*
Y196115D01*
Y196003D01*
X303075D01*
Y195891D01*
Y195779D01*
Y195667D01*
Y195555D01*
Y195443D01*
X302963D01*
Y195330D01*
Y195218D01*
Y195106D01*
Y194994D01*
X302851D01*
Y194882D01*
Y194770D01*
Y194658D01*
Y194545D01*
Y194433D01*
X302739D01*
Y194321D01*
Y194209D01*
Y194097D01*
Y193985D01*
X302626D01*
Y193873D01*
Y193761D01*
Y193648D01*
Y193536D01*
Y193424D01*
X302514D01*
Y193312D01*
Y193200D01*
Y193088D01*
Y192976D01*
X302402D01*
Y192864D01*
Y192751D01*
Y192639D01*
Y192527D01*
Y192415D01*
X302290D01*
Y192303D01*
Y192191D01*
Y192079D01*
Y191966D01*
Y191854D01*
X302178D01*
Y191742D01*
Y191630D01*
Y191518D01*
Y191406D01*
X305991D01*
Y191294D01*
Y191182D01*
X305878D01*
Y191069D01*
Y190957D01*
X305766D01*
Y190845D01*
X305654D01*
Y190733D01*
X305542D01*
Y190621D01*
X305430D01*
Y190509D01*
X305318D01*
Y190397D01*
X305093D01*
Y190284D01*
X304869D01*
Y190172D01*
X300384D01*
Y190284D01*
X300496D01*
Y190397D01*
Y190509D01*
Y190621D01*
Y190733D01*
Y190845D01*
X300608D01*
Y190957D01*
Y191069D01*
Y191182D01*
Y191294D01*
Y191406D01*
X300720D01*
Y191518D01*
Y191630D01*
Y191742D01*
Y191854D01*
X300832D01*
Y191966D01*
Y192079D01*
Y192191D01*
Y192303D01*
Y192415D01*
X300944D01*
Y192527D01*
Y192639D01*
Y192751D01*
Y192864D01*
X301057D01*
Y192976D01*
Y193088D01*
Y193200D01*
Y193312D01*
Y193424D01*
X301169D01*
Y193536D01*
Y193648D01*
Y193761D01*
Y193873D01*
X301281D01*
Y193985D01*
Y194097D01*
Y194209D01*
Y194321D01*
Y194433D01*
X301393D01*
Y194545D01*
Y194658D01*
Y194770D01*
Y194882D01*
X301505D01*
Y194994D01*
Y195106D01*
Y195218D01*
Y195330D01*
X301617D01*
Y195443D01*
Y195555D01*
Y195667D01*
Y195779D01*
Y195891D01*
X301729D01*
Y196003D01*
Y196115D01*
Y196228D01*
Y196340D01*
X301842D01*
Y196452D01*
Y196564D01*
Y196676D01*
Y196788D01*
X301954D01*
Y196900D01*
Y197012D01*
Y197125D01*
Y197237D01*
X302066D01*
Y197349D01*
Y197461D01*
Y197573D01*
Y197685D01*
Y197797D01*
X302178D01*
Y197909D01*
Y198022D01*
Y198134D01*
X302290D01*
Y198246D01*
X302402D01*
Y198358D01*
Y198470D01*
X302514D01*
Y198582D01*
X302739D01*
Y198694D01*
X302851D01*
Y198807D01*
X303187D01*
Y198919D01*
X303748D01*
Y198807D01*
D02*
G37*
G36*
X298141D02*
X298478D01*
Y198694D01*
X298814D01*
Y198582D01*
X299038D01*
Y198470D01*
X299150D01*
Y198358D01*
X299262D01*
Y198246D01*
X299375D01*
Y198134D01*
X299487D01*
Y198022D01*
X299599D01*
Y197909D01*
X299711D01*
Y197797D01*
X299823D01*
Y197685D01*
Y197573D01*
X299935D01*
Y197461D01*
Y197349D01*
Y197237D01*
X300047D01*
Y197125D01*
Y197012D01*
Y196900D01*
Y196788D01*
Y196676D01*
Y196564D01*
Y196452D01*
Y196340D01*
Y196228D01*
Y196115D01*
Y196003D01*
Y195891D01*
Y195779D01*
X299935D01*
Y195667D01*
Y195555D01*
Y195443D01*
X299823D01*
Y195330D01*
Y195218D01*
X299711D01*
Y195106D01*
Y194994D01*
X299599D01*
Y194882D01*
Y194770D01*
X299487D01*
Y194658D01*
X299375D01*
Y194545D01*
X299262D01*
Y194433D01*
X299150D01*
Y194321D01*
X299038D01*
Y194209D01*
X298926D01*
Y194097D01*
X298702D01*
Y193985D01*
X298590D01*
Y193873D01*
X298253D01*
Y193761D01*
X298029D01*
Y193648D01*
X297468D01*
Y193536D01*
Y193424D01*
Y193312D01*
Y193200D01*
X297581D01*
Y193088D01*
Y192976D01*
X297693D01*
Y192864D01*
Y192751D01*
X297805D01*
Y192639D01*
Y192527D01*
Y192415D01*
X297917D01*
Y192303D01*
Y192191D01*
X298029D01*
Y192079D01*
Y191966D01*
Y191854D01*
X298141D01*
Y191742D01*
Y191630D01*
Y191518D01*
X298253D01*
Y191406D01*
Y191294D01*
Y191182D01*
Y191069D01*
X298141D01*
Y190957D01*
Y190845D01*
Y190733D01*
X298029D01*
Y190621D01*
X297917D01*
Y190509D01*
X297805D01*
Y190397D01*
X297693D01*
Y190284D01*
X297356D01*
Y190172D01*
X297132D01*
Y190284D01*
Y190397D01*
X297020D01*
Y190509D01*
Y190621D01*
Y190733D01*
X296908D01*
Y190845D01*
Y190957D01*
X296796D01*
Y191069D01*
Y191182D01*
Y191294D01*
X296683D01*
Y191406D01*
Y191518D01*
Y191630D01*
X296571D01*
Y191742D01*
Y191854D01*
X296459D01*
Y191966D01*
Y192079D01*
Y192191D01*
X296347D01*
Y192303D01*
Y192415D01*
Y192527D01*
X296235D01*
Y192639D01*
Y192751D01*
Y192864D01*
X296123D01*
Y192976D01*
Y193088D01*
Y193200D01*
X296011D01*
Y193312D01*
Y193424D01*
X295899D01*
Y193536D01*
X294216D01*
Y193424D01*
Y193312D01*
Y193200D01*
X294104D01*
Y193088D01*
Y192976D01*
Y192864D01*
Y192751D01*
X293992D01*
Y192639D01*
Y192527D01*
Y192415D01*
Y192303D01*
Y192191D01*
X293880D01*
Y192079D01*
Y191966D01*
Y191854D01*
Y191742D01*
Y191630D01*
X293768D01*
Y191518D01*
Y191406D01*
Y191294D01*
Y191182D01*
X293656D01*
Y191069D01*
Y190957D01*
Y190845D01*
Y190733D01*
X293544D01*
Y190621D01*
X293432D01*
Y190509D01*
X293319D01*
Y190397D01*
X293207D01*
Y190284D01*
X292983D01*
Y190172D01*
X292086D01*
Y190284D01*
Y190397D01*
Y190509D01*
X292198D01*
Y190621D01*
Y190733D01*
Y190845D01*
Y190957D01*
Y191069D01*
X292310D01*
Y191182D01*
Y191294D01*
Y191406D01*
Y191518D01*
X292422D01*
Y191630D01*
Y191742D01*
Y191854D01*
Y191966D01*
Y192079D01*
X292534D01*
Y192191D01*
Y192303D01*
Y192415D01*
Y192527D01*
X292647D01*
Y192639D01*
Y192751D01*
Y192864D01*
Y192976D01*
Y193088D01*
X292759D01*
Y193200D01*
Y193312D01*
Y193424D01*
Y193536D01*
Y193648D01*
X292871D01*
Y193761D01*
Y193873D01*
Y193985D01*
Y194097D01*
X292983D01*
Y194209D01*
Y194321D01*
Y194433D01*
Y194545D01*
Y194658D01*
X293095D01*
Y194770D01*
Y194882D01*
Y194994D01*
Y195106D01*
X293207D01*
Y195218D01*
Y195330D01*
Y195443D01*
Y195555D01*
Y195667D01*
X293319D01*
Y195779D01*
Y195891D01*
Y196003D01*
Y196115D01*
X293432D01*
Y196228D01*
Y196340D01*
Y196452D01*
Y196564D01*
X293544D01*
Y196676D01*
Y196788D01*
Y196900D01*
Y197012D01*
Y197125D01*
X293656D01*
Y197237D01*
Y197349D01*
Y197461D01*
Y197573D01*
X293768D01*
Y197685D01*
Y197797D01*
Y197909D01*
Y198022D01*
X293880D01*
Y198134D01*
Y198246D01*
Y198358D01*
X293992D01*
Y198470D01*
Y198582D01*
X294104D01*
Y198694D01*
X294216D01*
Y198807D01*
X294441D01*
Y198919D01*
X298141D01*
Y198807D01*
D02*
G37*
G36*
X284909D02*
X284797D01*
Y198694D01*
Y198582D01*
X284685D01*
Y198470D01*
Y198358D01*
X284573D01*
Y198246D01*
X284461D01*
Y198134D01*
X284349D01*
Y198022D01*
X284237D01*
Y197909D01*
X284012D01*
Y197797D01*
X283788D01*
Y197685D01*
X281882D01*
Y197573D01*
Y197461D01*
Y197349D01*
Y197237D01*
Y197125D01*
X281770D01*
Y197012D01*
Y196900D01*
Y196788D01*
Y196676D01*
Y196564D01*
X281658D01*
Y196452D01*
Y196340D01*
Y196228D01*
Y196115D01*
X281545D01*
Y196003D01*
Y195891D01*
Y195779D01*
Y195667D01*
Y195555D01*
X281433D01*
Y195443D01*
Y195330D01*
Y195218D01*
Y195106D01*
X281321D01*
Y194994D01*
Y194882D01*
Y194770D01*
Y194658D01*
Y194545D01*
X281209D01*
Y194433D01*
Y194321D01*
Y194209D01*
Y194097D01*
X281097D01*
Y193985D01*
Y193873D01*
Y193761D01*
Y193648D01*
Y193536D01*
X280985D01*
Y193424D01*
Y193312D01*
Y193200D01*
Y193088D01*
X280873D01*
Y192976D01*
Y192864D01*
Y192751D01*
Y192639D01*
Y192527D01*
X280761D01*
Y192415D01*
Y192303D01*
Y192191D01*
Y192079D01*
X280648D01*
Y191966D01*
Y191854D01*
Y191742D01*
Y191630D01*
X280536D01*
Y191518D01*
Y191406D01*
Y191294D01*
Y191182D01*
X280424D01*
Y191069D01*
Y190957D01*
X280312D01*
Y190845D01*
X280200D01*
Y190733D01*
X280088D01*
Y190621D01*
X279976D01*
Y190509D01*
X279863D01*
Y190397D01*
X279639D01*
Y190284D01*
X279303D01*
Y190172D01*
X278854D01*
Y190284D01*
Y190397D01*
Y190509D01*
X278966D01*
Y190621D01*
Y190733D01*
Y190845D01*
Y190957D01*
Y191069D01*
X279079D01*
Y191182D01*
Y191294D01*
Y191406D01*
Y191518D01*
X279191D01*
Y191630D01*
Y191742D01*
Y191854D01*
Y191966D01*
Y192079D01*
X279303D01*
Y192191D01*
Y192303D01*
Y192415D01*
Y192527D01*
X279415D01*
Y192639D01*
Y192751D01*
Y192864D01*
Y192976D01*
Y193088D01*
X279527D01*
Y193200D01*
Y193312D01*
Y193424D01*
Y193536D01*
X279639D01*
Y193648D01*
Y193761D01*
Y193873D01*
Y193985D01*
Y194097D01*
X279751D01*
Y194209D01*
Y194321D01*
Y194433D01*
Y194545D01*
X279863D01*
Y194658D01*
Y194770D01*
Y194882D01*
Y194994D01*
Y195106D01*
X279976D01*
Y195218D01*
Y195330D01*
Y195443D01*
Y195555D01*
X280088D01*
Y195667D01*
Y195779D01*
Y195891D01*
Y196003D01*
Y196115D01*
X280200D01*
Y196228D01*
Y196340D01*
Y196452D01*
Y196564D01*
Y196676D01*
X280312D01*
Y196788D01*
Y196900D01*
Y197012D01*
Y197125D01*
X280424D01*
Y197237D01*
Y197349D01*
Y197461D01*
Y197573D01*
X279976D01*
Y197685D01*
X277845D01*
Y197797D01*
Y197909D01*
X277957D01*
Y198022D01*
Y198134D01*
X278069D01*
Y198246D01*
X278181D01*
Y198358D01*
X278294D01*
Y198470D01*
X278406D01*
Y198582D01*
X278518D01*
Y198694D01*
X278630D01*
Y198807D01*
X278966D01*
Y198919D01*
X284909D01*
Y198807D01*
D02*
G37*
G36*
X275042D02*
Y198694D01*
Y198582D01*
Y198470D01*
Y198358D01*
Y198246D01*
X275154D01*
Y198134D01*
Y198022D01*
Y197909D01*
Y197797D01*
Y197685D01*
Y197573D01*
X275266D01*
Y197461D01*
Y197349D01*
Y197237D01*
Y197125D01*
Y197012D01*
X275378D01*
Y196900D01*
Y196788D01*
Y196676D01*
Y196564D01*
Y196452D01*
Y196340D01*
X275490D01*
Y196228D01*
Y196115D01*
Y196003D01*
Y195891D01*
Y195779D01*
X275602D01*
Y195667D01*
Y195555D01*
Y195443D01*
Y195330D01*
Y195218D01*
Y195106D01*
X275714D01*
Y194994D01*
Y194882D01*
Y194770D01*
Y194658D01*
Y194545D01*
Y194433D01*
X275827D01*
Y194321D01*
Y194209D01*
Y194097D01*
Y193985D01*
Y193873D01*
Y193761D01*
X275939D01*
Y193648D01*
Y193536D01*
Y193424D01*
Y193312D01*
Y193200D01*
Y193088D01*
X276051D01*
Y192976D01*
Y192864D01*
Y192751D01*
Y192639D01*
Y192527D01*
Y192415D01*
X276163D01*
Y192303D01*
Y192191D01*
Y192079D01*
Y191966D01*
Y191854D01*
Y191742D01*
Y191630D01*
X276275D01*
Y191518D01*
Y191406D01*
Y191294D01*
Y191182D01*
X276163D01*
Y191069D01*
Y190957D01*
Y190845D01*
X276051D01*
Y190733D01*
X275939D01*
Y190621D01*
X275827D01*
Y190509D01*
X275714D01*
Y190397D01*
X275602D01*
Y190284D01*
X275378D01*
Y190172D01*
X274930D01*
Y190284D01*
Y190397D01*
Y190509D01*
Y190621D01*
Y190733D01*
Y190845D01*
X274817D01*
Y190957D01*
Y191069D01*
Y191182D01*
Y191294D01*
Y191406D01*
Y191518D01*
Y191630D01*
X274705D01*
Y191742D01*
Y191854D01*
X270444D01*
Y191742D01*
X270332D01*
Y191630D01*
X270220D01*
Y191518D01*
Y191406D01*
X270108D01*
Y191294D01*
Y191182D01*
X269996D01*
Y191069D01*
X269884D01*
Y190957D01*
Y190845D01*
X269772D01*
Y190733D01*
X269659D01*
Y190621D01*
Y190509D01*
X269547D01*
Y190397D01*
X269323D01*
Y190284D01*
X269099D01*
Y190172D01*
X267753D01*
Y190284D01*
X267865D01*
Y190397D01*
X267977D01*
Y190509D01*
Y190621D01*
X268089D01*
Y190733D01*
Y190845D01*
X268202D01*
Y190957D01*
X268314D01*
Y191069D01*
Y191182D01*
X268426D01*
Y191294D01*
X268538D01*
Y191406D01*
Y191518D01*
X268650D01*
Y191630D01*
Y191742D01*
X268762D01*
Y191854D01*
X268874D01*
Y191966D01*
Y192079D01*
X268987D01*
Y192191D01*
Y192303D01*
X269099D01*
Y192415D01*
X269211D01*
Y192527D01*
Y192639D01*
X269323D01*
Y192751D01*
X269435D01*
Y192864D01*
Y192976D01*
X269547D01*
Y193088D01*
Y193200D01*
X269659D01*
Y193312D01*
X269772D01*
Y193424D01*
Y193536D01*
X269884D01*
Y193648D01*
Y193761D01*
X269996D01*
Y193873D01*
X270108D01*
Y193985D01*
Y194097D01*
X270220D01*
Y194209D01*
X270332D01*
Y194321D01*
Y194433D01*
X270444D01*
Y194545D01*
Y194658D01*
X270556D01*
Y194770D01*
X270669D01*
Y194882D01*
Y194994D01*
X270781D01*
Y195106D01*
Y195218D01*
X270893D01*
Y195330D01*
X271005D01*
Y195443D01*
Y195555D01*
X271117D01*
Y195667D01*
X271229D01*
Y195779D01*
Y195891D01*
X271341D01*
Y196003D01*
Y196115D01*
X271453D01*
Y196228D01*
X271566D01*
Y196340D01*
Y196452D01*
X271678D01*
Y196564D01*
Y196676D01*
X271790D01*
Y196788D01*
X271902D01*
Y196900D01*
Y197012D01*
X272014D01*
Y197125D01*
X272126D01*
Y197237D01*
Y197349D01*
X272238D01*
Y197461D01*
Y197573D01*
X272351D01*
Y197685D01*
X272463D01*
Y197797D01*
Y197909D01*
X272575D01*
Y198022D01*
Y198134D01*
X272687D01*
Y198246D01*
X272799D01*
Y198358D01*
Y198470D01*
X272911D01*
Y198582D01*
X273023D01*
Y198694D01*
X273248D01*
Y198807D01*
X273472D01*
Y198919D01*
X275042D01*
Y198807D01*
D02*
G37*
G36*
X269547Y201834D02*
X270332D01*
Y201722D01*
X270220D01*
Y201610D01*
X270108D01*
Y201498D01*
Y201386D01*
X269996D01*
Y201273D01*
Y201161D01*
X269884D01*
Y201049D01*
X269772D01*
Y200937D01*
Y200825D01*
X269659D01*
Y200713D01*
Y200601D01*
X269547D01*
Y200489D01*
X269435D01*
Y200376D01*
Y200264D01*
X269323D01*
Y200152D01*
Y200040D01*
X269211D01*
Y199928D01*
X269099D01*
Y199816D01*
Y199704D01*
X268987D01*
Y199592D01*
X268874D01*
Y199479D01*
Y199367D01*
X268762D01*
Y199255D01*
Y199143D01*
X268650D01*
Y199031D01*
X268538D01*
Y198919D01*
Y198807D01*
X268426D01*
Y198694D01*
Y198582D01*
X268314D01*
Y198470D01*
X268202D01*
Y198358D01*
Y198246D01*
X268089D01*
Y198134D01*
Y198022D01*
X267977D01*
Y197909D01*
X267865D01*
Y197797D01*
Y197685D01*
X267753D01*
Y197573D01*
Y197461D01*
X267641D01*
Y197349D01*
X267529D01*
Y197237D01*
Y197125D01*
X267417D01*
Y197012D01*
X267304D01*
Y196900D01*
Y196788D01*
X267192D01*
Y196676D01*
Y196564D01*
X267080D01*
Y196452D01*
X266968D01*
Y196340D01*
Y196228D01*
X266856D01*
Y196115D01*
Y196003D01*
X266744D01*
Y195891D01*
X266632D01*
Y195779D01*
Y195667D01*
X266520D01*
Y195555D01*
Y195443D01*
X266407D01*
Y195330D01*
X266295D01*
Y195218D01*
Y195106D01*
X266183D01*
Y194994D01*
X266071D01*
Y194882D01*
Y194770D01*
X265959D01*
Y194658D01*
Y194545D01*
X265847D01*
Y194433D01*
X265735D01*
Y194321D01*
Y194209D01*
X265622D01*
Y194097D01*
Y193985D01*
X265510D01*
Y193873D01*
X265398D01*
Y193761D01*
Y193648D01*
X265286D01*
Y193536D01*
X265174D01*
Y193424D01*
Y193312D01*
X265062D01*
Y193200D01*
Y193088D01*
X264950D01*
Y192976D01*
X264838D01*
Y192864D01*
Y192751D01*
X264725D01*
Y192639D01*
Y192527D01*
X264613D01*
Y192415D01*
X264501D01*
Y192303D01*
Y192191D01*
X264389D01*
Y192079D01*
X264277D01*
Y191966D01*
Y191854D01*
X264165D01*
Y191742D01*
Y191630D01*
X264053D01*
Y191518D01*
X263941D01*
Y191406D01*
Y191294D01*
X263828D01*
Y191182D01*
X263716D01*
Y191069D01*
X263604D01*
Y190957D01*
X263492D01*
Y190845D01*
X263380D01*
Y190733D01*
X263268D01*
Y190621D01*
X263043D01*
Y190509D01*
X262819D01*
Y190397D01*
X262595D01*
Y190284D01*
X262146D01*
Y190172D01*
X260240D01*
Y190284D01*
Y190397D01*
X260352D01*
Y190509D01*
Y190621D01*
X260464D01*
Y190733D01*
X260577D01*
Y190845D01*
Y190957D01*
X260689D01*
Y191069D01*
Y191182D01*
X260801D01*
Y191294D01*
X260913D01*
Y191406D01*
Y191518D01*
X261025D01*
Y191630D01*
X261137D01*
Y191742D01*
Y191854D01*
X261249D01*
Y191966D01*
Y192079D01*
X261362D01*
Y192191D01*
X261474D01*
Y192303D01*
Y192415D01*
X261586D01*
Y192527D01*
Y192639D01*
X261698D01*
Y192751D01*
X261810D01*
Y192864D01*
Y192976D01*
X261922D01*
Y193088D01*
Y193200D01*
X262034D01*
Y193312D01*
X262146D01*
Y193424D01*
Y193536D01*
X262259D01*
Y193648D01*
Y193761D01*
X262371D01*
Y193873D01*
X262483D01*
Y193985D01*
Y194097D01*
X262595D01*
Y194209D01*
X262707D01*
Y194321D01*
Y194433D01*
X262819D01*
Y194545D01*
Y194658D01*
X262931D01*
Y194770D01*
X263043D01*
Y194882D01*
Y194994D01*
X263156D01*
Y195106D01*
Y195218D01*
X263268D01*
Y195330D01*
X263380D01*
Y195443D01*
Y195555D01*
X263492D01*
Y195667D01*
Y195779D01*
X263604D01*
Y195891D01*
X263716D01*
Y196003D01*
Y196115D01*
X263828D01*
Y196228D01*
X263941D01*
Y196340D01*
Y196452D01*
X264053D01*
Y196564D01*
Y196676D01*
X264165D01*
Y196788D01*
X264277D01*
Y196900D01*
Y197012D01*
X264389D01*
Y197125D01*
X264501D01*
Y197237D01*
Y197349D01*
X264613D01*
Y197461D01*
Y197573D01*
X264725D01*
Y197685D01*
X264838D01*
Y197797D01*
Y197909D01*
X264950D01*
Y198022D01*
X265062D01*
Y198134D01*
Y198246D01*
X265174D01*
Y198358D01*
Y198470D01*
X265286D01*
Y198582D01*
X265398D01*
Y198694D01*
Y198807D01*
X265510D01*
Y198919D01*
Y199031D01*
X265622D01*
Y199143D01*
X265735D01*
Y199255D01*
Y199367D01*
X265847D01*
Y199479D01*
X265959D01*
Y199592D01*
Y199704D01*
X266071D01*
Y199816D01*
Y199928D01*
X266183D01*
Y200040D01*
X266295D01*
Y200152D01*
Y200264D01*
X266407D01*
Y200376D01*
X266520D01*
Y200489D01*
Y200601D01*
X266632D01*
Y200713D01*
Y200825D01*
X266744D01*
Y200937D01*
X266856D01*
Y201049D01*
X266968D01*
Y201161D01*
X267080D01*
Y201273D01*
X267192D01*
Y201386D01*
X267417D01*
Y201498D01*
X267529D01*
Y201610D01*
X267865D01*
Y201722D01*
X268089D01*
Y201834D01*
X269435D01*
Y201946D01*
X269547D01*
Y201834D01*
D02*
G37*
G36*
X262371D02*
X262707D01*
Y201722D01*
Y201610D01*
X262595D01*
Y201498D01*
X262483D01*
Y201386D01*
Y201273D01*
X262371D01*
Y201161D01*
X262259D01*
Y201049D01*
Y200937D01*
X262146D01*
Y200825D01*
Y200713D01*
X262034D01*
Y200601D01*
X261922D01*
Y200489D01*
Y200376D01*
X261810D01*
Y200264D01*
Y200152D01*
X261698D01*
Y200040D01*
X261586D01*
Y199928D01*
Y199816D01*
X261474D01*
Y199704D01*
Y199592D01*
X261362D01*
Y199479D01*
X261249D01*
Y199367D01*
Y199255D01*
X261137D01*
Y199143D01*
Y199031D01*
X261025D01*
Y198919D01*
X260913D01*
Y198807D01*
Y198694D01*
X260801D01*
Y198582D01*
X260689D01*
Y198470D01*
Y198358D01*
X260577D01*
Y198246D01*
Y198134D01*
X260464D01*
Y198022D01*
X260352D01*
Y197909D01*
Y197797D01*
X260240D01*
Y197685D01*
Y197573D01*
X260128D01*
Y197461D01*
X260016D01*
Y197349D01*
Y197237D01*
X259904D01*
Y197125D01*
Y197012D01*
X259792D01*
Y196900D01*
X259680D01*
Y196788D01*
Y196676D01*
X259567D01*
Y196564D01*
X259455D01*
Y196452D01*
Y196340D01*
X259343D01*
Y196228D01*
Y196115D01*
X259231D01*
Y196003D01*
X259119D01*
Y195891D01*
Y195779D01*
X259007D01*
Y195667D01*
Y195555D01*
X258894D01*
Y195443D01*
X258782D01*
Y195330D01*
Y195218D01*
X258670D01*
Y195106D01*
Y194994D01*
X258558D01*
Y194882D01*
X258446D01*
Y194770D01*
Y194658D01*
X258334D01*
Y194545D01*
X258222D01*
Y194433D01*
Y194321D01*
X258110D01*
Y194209D01*
Y194097D01*
X257997D01*
Y193985D01*
X257885D01*
Y193873D01*
Y193761D01*
X257773D01*
Y193648D01*
Y193536D01*
X257661D01*
Y193424D01*
X257549D01*
Y193312D01*
Y193200D01*
X257437D01*
Y193088D01*
X257325D01*
Y192976D01*
Y192864D01*
X257212D01*
Y192751D01*
Y192639D01*
X257100D01*
Y192527D01*
X256988D01*
Y192415D01*
Y192303D01*
X256876D01*
Y192191D01*
Y192079D01*
X256764D01*
Y191966D01*
X256652D01*
Y191854D01*
Y191742D01*
X256540D01*
Y191630D01*
X256428D01*
Y191518D01*
Y191406D01*
X256315D01*
Y191294D01*
X256203D01*
Y191182D01*
X256091D01*
Y191069D01*
Y190957D01*
X255979D01*
Y190845D01*
X255755D01*
Y190733D01*
X255643D01*
Y190621D01*
X255531D01*
Y190509D01*
X255306D01*
Y190397D01*
X254970D01*
Y190284D01*
X254521D01*
Y190172D01*
X252727D01*
Y190284D01*
Y190397D01*
Y190509D01*
X252839D01*
Y190621D01*
X252952D01*
Y190733D01*
Y190845D01*
X253064D01*
Y190957D01*
X253176D01*
Y191069D01*
Y191182D01*
X253288D01*
Y191294D01*
Y191406D01*
X253400D01*
Y191518D01*
X253512D01*
Y191630D01*
Y191742D01*
X253624D01*
Y191854D01*
Y191966D01*
X253736D01*
Y192079D01*
X253849D01*
Y192191D01*
Y192303D01*
X253961D01*
Y192415D01*
Y192527D01*
X254073D01*
Y192639D01*
X254185D01*
Y192751D01*
Y192864D01*
X254297D01*
Y192976D01*
X254409D01*
Y193088D01*
Y193200D01*
X254521D01*
Y193312D01*
Y193424D01*
X254633D01*
Y193536D01*
X254746D01*
Y193648D01*
Y193761D01*
X254858D01*
Y193873D01*
Y193985D01*
X254970D01*
Y194097D01*
X255082D01*
Y194209D01*
Y194321D01*
X255194D01*
Y194433D01*
Y194545D01*
X255306D01*
Y194658D01*
X255418D01*
Y194770D01*
Y194882D01*
X255531D01*
Y194994D01*
X255643D01*
Y195106D01*
Y195218D01*
X255755D01*
Y195330D01*
Y195443D01*
X255867D01*
Y195555D01*
X255979D01*
Y195667D01*
Y195779D01*
X256091D01*
Y195891D01*
Y196003D01*
X256203D01*
Y196115D01*
X256315D01*
Y196228D01*
Y196340D01*
X256428D01*
Y196452D01*
Y196564D01*
X256540D01*
Y196676D01*
X256652D01*
Y196788D01*
Y196900D01*
X256764D01*
Y197012D01*
X256876D01*
Y197125D01*
Y197237D01*
X256988D01*
Y197349D01*
Y197461D01*
X257100D01*
Y197573D01*
X257212D01*
Y197685D01*
Y197797D01*
X257325D01*
Y197909D01*
Y198022D01*
X257437D01*
Y198134D01*
X257549D01*
Y198246D01*
Y198358D01*
X257661D01*
Y198470D01*
Y198582D01*
X257773D01*
Y198694D01*
X257885D01*
Y198807D01*
Y198919D01*
X257997D01*
Y199031D01*
X258110D01*
Y199143D01*
Y199255D01*
X258222D01*
Y199367D01*
Y199479D01*
X258334D01*
Y199592D01*
X258446D01*
Y199704D01*
Y199816D01*
X258558D01*
Y199928D01*
Y200040D01*
X258670D01*
Y200152D01*
X258782D01*
Y200264D01*
Y200376D01*
X258894D01*
Y200489D01*
Y200601D01*
X259007D01*
Y200713D01*
X259119D01*
Y200825D01*
X259231D01*
Y200937D01*
Y201049D01*
X259343D01*
Y201161D01*
X259567D01*
Y201273D01*
X259680D01*
Y201386D01*
X259792D01*
Y201498D01*
X260016D01*
Y201610D01*
X260240D01*
Y201722D01*
X260577D01*
Y201834D01*
X261922D01*
Y201946D01*
X262371D01*
Y201834D01*
D02*
G37*
G36*
X417314Y188565D02*
Y188429D01*
Y188293D01*
Y188157D01*
Y188021D01*
X417178D01*
Y188157D01*
X417042D01*
Y188293D01*
Y188429D01*
Y188565D01*
X417178D01*
Y188701D01*
X417314D01*
Y188565D01*
D02*
G37*
G36*
X418673Y187885D02*
X418809D01*
Y187749D01*
Y187613D01*
X418538D01*
Y187749D01*
Y187885D01*
Y188021D01*
X418673D01*
Y187885D01*
D02*
G37*
%LPC*%
G36*
X412420Y223502D02*
X411469D01*
Y223366D01*
X411061D01*
Y223230D01*
X410789D01*
Y223094D01*
X410517D01*
Y222958D01*
X410381D01*
Y222822D01*
X410245D01*
Y222686D01*
X410109D01*
Y222550D01*
Y222414D01*
X409973D01*
Y222278D01*
X409837D01*
Y222143D01*
Y222007D01*
X409701D01*
Y221871D01*
Y221735D01*
Y221599D01*
Y221463D01*
X409565D01*
Y221327D01*
Y221191D01*
Y221055D01*
Y220919D01*
Y220783D01*
Y220647D01*
Y220511D01*
Y220375D01*
Y220239D01*
Y220104D01*
X409701D01*
Y219968D01*
Y219832D01*
Y219696D01*
X409837D01*
Y219560D01*
X409973D01*
Y219696D01*
X410517D01*
Y219560D01*
X411197D01*
Y219424D01*
X411469D01*
Y219560D01*
Y219696D01*
Y219832D01*
Y219968D01*
Y220104D01*
X411333D01*
Y220239D01*
Y220375D01*
Y220511D01*
Y220647D01*
Y220783D01*
Y220919D01*
Y221055D01*
X411469D01*
Y221191D01*
Y221327D01*
Y221463D01*
Y221599D01*
Y221735D01*
X411604D01*
Y221871D01*
Y222007D01*
Y222143D01*
X411740D01*
Y222278D01*
Y222414D01*
X411876D01*
Y222550D01*
Y222686D01*
X412012D01*
Y222822D01*
Y222958D01*
X412148D01*
Y223094D01*
X412284D01*
Y223230D01*
X412420D01*
Y223366D01*
Y223502D01*
D02*
G37*
G36*
X415819Y224182D02*
X414459D01*
Y224046D01*
X414051D01*
Y223910D01*
X413644D01*
Y223774D01*
X413508D01*
Y223638D01*
X413236D01*
Y223502D01*
X412964D01*
Y223366D01*
X412828D01*
Y223230D01*
X412692D01*
Y223094D01*
X412556D01*
Y222958D01*
X412420D01*
Y222822D01*
X412284D01*
Y222686D01*
X412148D01*
Y222550D01*
Y222414D01*
Y222278D01*
X412012D01*
Y222143D01*
Y222007D01*
X411876D01*
Y221871D01*
Y221735D01*
Y221599D01*
Y221463D01*
X411740D01*
Y221327D01*
Y221191D01*
Y221055D01*
Y220919D01*
Y220783D01*
Y220647D01*
Y220511D01*
Y220375D01*
Y220239D01*
Y220104D01*
Y219968D01*
Y219832D01*
Y219696D01*
Y219560D01*
X411876D01*
Y219424D01*
Y219288D01*
X412012D01*
Y219152D01*
X412420D01*
Y219016D01*
X412692D01*
Y218880D01*
X412964D01*
Y218744D01*
X413236D01*
Y218608D01*
X413508D01*
Y218472D01*
X413644D01*
Y218336D01*
X413779D01*
Y218200D01*
X413915D01*
Y218064D01*
X414187D01*
Y218200D01*
Y218336D01*
Y218472D01*
Y218608D01*
Y218744D01*
Y218880D01*
Y219016D01*
Y219152D01*
Y219288D01*
Y219424D01*
Y219560D01*
Y219696D01*
X414323D01*
Y219832D01*
Y219968D01*
X414459D01*
Y220104D01*
Y220239D01*
Y220375D01*
X414595D01*
Y220511D01*
Y220647D01*
X414731D01*
Y220783D01*
Y220919D01*
X414867D01*
Y221055D01*
X415003D01*
Y221191D01*
Y221327D01*
X415139D01*
Y221463D01*
X415275D01*
Y221599D01*
X415411D01*
Y221735D01*
X415683D01*
Y221871D01*
X415955D01*
Y222007D01*
X416090D01*
Y222143D01*
X416362D01*
Y222278D01*
X416770D01*
Y222414D01*
X417450D01*
Y222550D01*
X418538D01*
Y222686D01*
Y222822D01*
X418402D01*
Y222958D01*
X418130D01*
Y223094D01*
X417994D01*
Y223230D01*
X417858D01*
Y223366D01*
X417586D01*
Y223502D01*
X417450D01*
Y223638D01*
X417178D01*
Y223774D01*
X416770D01*
Y223910D01*
X416362D01*
Y224046D01*
X415819D01*
Y224182D01*
D02*
G37*
G36*
X418673Y222278D02*
X417858D01*
Y222143D01*
X417042D01*
Y222007D01*
X416634D01*
Y221871D01*
X416226D01*
Y221735D01*
X415955D01*
Y221599D01*
X415819D01*
Y221463D01*
X415683D01*
Y221327D01*
X415411D01*
Y221191D01*
Y221055D01*
X415275D01*
Y220919D01*
X415139D01*
Y220783D01*
X415003D01*
Y220647D01*
Y220511D01*
X414867D01*
Y220375D01*
Y220239D01*
Y220104D01*
X414731D01*
Y219968D01*
X414595D01*
Y219832D01*
Y219696D01*
Y219560D01*
Y219424D01*
Y219288D01*
X414459D01*
Y219152D01*
Y219016D01*
Y218880D01*
Y218744D01*
Y218608D01*
Y218472D01*
Y218336D01*
Y218200D01*
Y218064D01*
Y217928D01*
Y217793D01*
X414595D01*
Y217656D01*
Y217521D01*
X414867D01*
Y217385D01*
Y217249D01*
Y217113D01*
X414731D01*
Y217249D01*
X414595D01*
Y217385D01*
X414459D01*
Y217521D01*
X414323D01*
Y217656D01*
X414187D01*
Y217793D01*
X413915D01*
Y217928D01*
X413779D01*
Y218064D01*
X413508D01*
Y218200D01*
X413236D01*
Y218336D01*
X413100D01*
Y218472D01*
X412828D01*
Y218608D01*
X412692D01*
Y218744D01*
X412284D01*
Y218880D01*
X412148D01*
Y219016D01*
X411604D01*
Y219152D01*
X411061D01*
Y219288D01*
X410109D01*
Y219424D01*
X409837D01*
Y219288D01*
X409158D01*
Y219152D01*
X408342D01*
Y219016D01*
X407934D01*
Y218880D01*
X407662D01*
Y218744D01*
X407390D01*
Y218608D01*
X407254D01*
Y218472D01*
X407118D01*
Y218336D01*
X406847D01*
Y218200D01*
X406711D01*
Y218064D01*
X406575D01*
Y217928D01*
Y217793D01*
X406439D01*
Y217656D01*
X406303D01*
Y217521D01*
Y217385D01*
X406439D01*
Y217521D01*
X406711D01*
Y217656D01*
X406847D01*
Y217793D01*
X406982D01*
Y217928D01*
X407254D01*
Y218064D01*
X407526D01*
Y218200D01*
X407798D01*
Y218336D01*
X408342D01*
Y218472D01*
X409429D01*
Y218336D01*
Y218200D01*
X408478D01*
Y218064D01*
X407934D01*
Y217928D01*
X407526D01*
Y217793D01*
X407254D01*
Y217656D01*
X406982D01*
Y217521D01*
X406847D01*
Y217385D01*
X406575D01*
Y217249D01*
X406439D01*
Y217113D01*
X406303D01*
Y216977D01*
X406167D01*
Y216841D01*
Y216705D01*
X406031D01*
Y216569D01*
Y216433D01*
X405895D01*
Y216297D01*
X405759D01*
Y216161D01*
Y216025D01*
Y215889D01*
Y215753D01*
X405623D01*
Y215617D01*
Y215481D01*
Y215346D01*
Y215210D01*
Y215074D01*
Y214938D01*
Y214802D01*
Y214666D01*
Y214530D01*
Y214394D01*
Y214258D01*
Y214122D01*
X405759D01*
Y213986D01*
Y213850D01*
Y213714D01*
Y213578D01*
X405895D01*
Y213442D01*
Y213306D01*
X406031D01*
Y213170D01*
Y213035D01*
X406167D01*
Y212899D01*
X406303D01*
Y213035D01*
Y213170D01*
Y213306D01*
Y213442D01*
Y213578D01*
Y213714D01*
Y213850D01*
Y213986D01*
Y214122D01*
X406439D01*
Y214258D01*
Y214394D01*
Y214530D01*
X406575D01*
Y214666D01*
Y214802D01*
X406711D01*
Y214938D01*
Y215074D01*
X406847D01*
Y215210D01*
Y215346D01*
X406982D01*
Y215481D01*
X407118D01*
Y215617D01*
Y215753D01*
X407254D01*
Y215889D01*
X407390D01*
Y216025D01*
X407526D01*
Y216161D01*
X407798D01*
Y216297D01*
X407934D01*
Y216161D01*
Y216025D01*
X407798D01*
Y215889D01*
X407662D01*
Y215753D01*
X407526D01*
Y215617D01*
X407390D01*
Y215481D01*
X407254D01*
Y215346D01*
Y215210D01*
X407118D01*
Y215074D01*
X406982D01*
Y214938D01*
Y214802D01*
X406847D01*
Y214666D01*
Y214530D01*
Y214394D01*
Y214258D01*
X406711D01*
Y214122D01*
Y213986D01*
Y213850D01*
X406575D01*
Y213714D01*
Y213578D01*
Y213442D01*
Y213306D01*
Y213170D01*
Y213035D01*
Y212899D01*
Y212763D01*
Y212627D01*
Y212491D01*
X406711D01*
Y212355D01*
Y212219D01*
X406982D01*
Y212355D01*
Y212491D01*
X407118D01*
Y212627D01*
Y212763D01*
X407254D01*
Y212899D01*
X407390D01*
Y213035D01*
X407526D01*
Y213170D01*
X407662D01*
Y213306D01*
X407798D01*
Y213442D01*
X407934D01*
Y213578D01*
X408070D01*
Y213714D01*
X408206D01*
Y213850D01*
X408342D01*
Y213986D01*
X408614D01*
Y214122D01*
X408750D01*
Y214258D01*
X408886D01*
Y214394D01*
X409158D01*
Y214530D01*
X409429D01*
Y214666D01*
X409565D01*
Y214802D01*
Y214938D01*
X409701D01*
Y215074D01*
Y215210D01*
X409837D01*
Y215346D01*
X409973D01*
Y215481D01*
X410109D01*
Y215617D01*
X410245D01*
Y215753D01*
X410381D01*
Y215889D01*
X410653D01*
Y216025D01*
X410789D01*
Y216161D01*
X411061D01*
Y216297D01*
X411333D01*
Y216433D01*
X411740D01*
Y216569D01*
X412148D01*
Y216705D01*
X413236D01*
Y216569D01*
Y216433D01*
X412420D01*
Y216297D01*
X411876D01*
Y216161D01*
X411469D01*
Y216025D01*
X411197D01*
Y215889D01*
X410925D01*
Y215753D01*
X410789D01*
Y215617D01*
X410517D01*
Y215481D01*
X410381D01*
Y215346D01*
X410245D01*
Y215210D01*
X410109D01*
Y215074D01*
X409973D01*
Y214938D01*
X409837D01*
Y214802D01*
Y214666D01*
X410109D01*
Y214802D01*
X410381D01*
Y214938D01*
X410789D01*
Y215074D01*
X411469D01*
Y215210D01*
X414051D01*
Y215346D01*
Y215481D01*
X414187D01*
Y215617D01*
X414459D01*
Y215753D01*
X414595D01*
Y215889D01*
X414867D01*
Y216025D01*
X415003D01*
Y216161D01*
X415275D01*
Y216297D01*
X415547D01*
Y216433D01*
X415955D01*
Y216569D01*
X416362D01*
Y216705D01*
X416906D01*
Y216841D01*
X417042D01*
Y216977D01*
Y217113D01*
Y217249D01*
X416906D01*
Y217385D01*
Y217521D01*
Y217656D01*
Y217793D01*
Y217928D01*
Y218064D01*
Y218200D01*
Y218336D01*
X417042D01*
Y218472D01*
Y218608D01*
Y218744D01*
X417178D01*
Y218880D01*
X417314D01*
Y219016D01*
Y219152D01*
X417450D01*
Y219288D01*
X417586D01*
Y219424D01*
X417858D01*
Y219560D01*
X417994D01*
Y219696D01*
X418266D01*
Y219832D01*
X418809D01*
Y219968D01*
X419217D01*
Y219832D01*
X419625D01*
Y219696D01*
X419761D01*
Y219560D01*
X419897D01*
Y219424D01*
X420033D01*
Y219288D01*
Y219152D01*
Y219016D01*
Y218880D01*
Y218744D01*
Y218608D01*
Y218472D01*
Y218336D01*
X419897D01*
Y218200D01*
Y218064D01*
X419761D01*
Y217928D01*
X419625D01*
Y217793D01*
X419489D01*
Y217656D01*
X419217D01*
Y217521D01*
X418266D01*
Y217656D01*
Y217793D01*
X418130D01*
Y217928D01*
Y218064D01*
X418266D01*
Y218200D01*
Y218336D01*
X418538D01*
Y218200D01*
Y218064D01*
X418402D01*
Y217928D01*
X418538D01*
Y217793D01*
X418673D01*
Y217656D01*
X418809D01*
Y217793D01*
X419217D01*
Y217928D01*
X419353D01*
Y218064D01*
X419489D01*
Y218200D01*
X419625D01*
Y218336D01*
Y218472D01*
X419761D01*
Y218608D01*
Y218744D01*
Y218880D01*
Y219016D01*
Y219152D01*
X419625D01*
Y219288D01*
Y219424D01*
X419489D01*
Y219560D01*
X418402D01*
Y219424D01*
X418130D01*
Y219288D01*
X417858D01*
Y219152D01*
X417722D01*
Y219016D01*
Y218880D01*
X417586D01*
Y218744D01*
X417450D01*
Y218608D01*
Y218472D01*
X417314D01*
Y218336D01*
Y218200D01*
X417178D01*
Y218064D01*
Y217928D01*
Y217793D01*
Y217656D01*
Y217521D01*
Y217385D01*
X417314D01*
Y217249D01*
Y217113D01*
Y216977D01*
X417586D01*
Y216841D01*
X417722D01*
Y216977D01*
X418402D01*
Y217113D01*
X420849D01*
Y216977D01*
X421120D01*
Y217113D01*
X421256D01*
Y217249D01*
Y217385D01*
Y217521D01*
Y217656D01*
X421392D01*
Y217793D01*
Y217928D01*
Y218064D01*
X421528D01*
Y218200D01*
Y218336D01*
Y218472D01*
Y218608D01*
Y218744D01*
Y218880D01*
Y219016D01*
Y219152D01*
Y219288D01*
Y219424D01*
Y219560D01*
Y219696D01*
Y219832D01*
X421392D01*
Y219968D01*
Y220104D01*
Y220239D01*
X421256D01*
Y220375D01*
Y220511D01*
X421120D01*
Y220647D01*
X420985D01*
Y220783D01*
X420849D01*
Y220919D01*
X420713D01*
Y221055D01*
X420577D01*
Y221191D01*
Y221327D01*
X420305D01*
Y221463D01*
X420169D01*
Y221599D01*
X420033D01*
Y221735D01*
X419625D01*
Y221871D01*
X419489D01*
Y222007D01*
X419081D01*
Y222143D01*
X418673D01*
Y222278D01*
D02*
G37*
G36*
X403720Y221599D02*
X403448D01*
Y221463D01*
Y221327D01*
Y221191D01*
X403584D01*
Y221055D01*
Y220919D01*
X403720D01*
Y220783D01*
Y220647D01*
X403856D01*
Y220511D01*
Y220375D01*
X403992D01*
Y220239D01*
Y220104D01*
X404128D01*
Y219968D01*
Y219832D01*
Y219696D01*
X404264D01*
Y219560D01*
Y219424D01*
Y219288D01*
X404399D01*
Y219152D01*
Y219016D01*
Y218880D01*
X404535D01*
Y218744D01*
Y218608D01*
X404671D01*
Y218472D01*
Y218336D01*
Y218200D01*
X404807D01*
Y218064D01*
Y217928D01*
Y217793D01*
X404943D01*
Y217656D01*
Y217521D01*
Y217385D01*
X405079D01*
Y217249D01*
Y217113D01*
X405215D01*
Y216977D01*
Y216841D01*
Y216705D01*
Y216569D01*
Y216433D01*
X405351D01*
Y216297D01*
Y216161D01*
X405487D01*
Y216297D01*
X405623D01*
Y216433D01*
Y216569D01*
X405759D01*
Y216705D01*
Y216841D01*
Y216977D01*
X405895D01*
Y217113D01*
Y217249D01*
Y217385D01*
X406031D01*
Y217521D01*
Y217656D01*
Y217793D01*
X406167D01*
Y217928D01*
Y218064D01*
X406303D01*
Y218200D01*
X406439D01*
Y218336D01*
X406711D01*
Y218472D01*
X406847D01*
Y218608D01*
Y218744D01*
X407118D01*
Y218880D01*
X407254D01*
Y219016D01*
X407526D01*
Y219152D01*
X407798D01*
Y219288D01*
X408070D01*
Y219424D01*
X407934D01*
Y219560D01*
X407662D01*
Y219696D01*
X407390D01*
Y219832D01*
X407254D01*
Y219968D01*
X406982D01*
Y220104D01*
X406847D01*
Y220239D01*
X406575D01*
Y220375D01*
X406303D01*
Y220511D01*
X406031D01*
Y220647D01*
X405759D01*
Y220783D01*
X405487D01*
Y220919D01*
X405215D01*
Y221055D01*
X404943D01*
Y221191D01*
X404535D01*
Y221327D01*
X404128D01*
Y221463D01*
X403720D01*
Y221599D01*
D02*
G37*
G36*
X403448Y220647D02*
X403312D01*
Y220511D01*
Y220375D01*
Y220239D01*
Y220104D01*
Y219968D01*
Y219832D01*
Y219696D01*
Y219560D01*
Y219424D01*
Y219288D01*
Y219152D01*
X403448D01*
Y219016D01*
Y218880D01*
Y218744D01*
Y218608D01*
Y218472D01*
Y218336D01*
Y218200D01*
Y218064D01*
Y217928D01*
Y217793D01*
Y217656D01*
Y217521D01*
Y217385D01*
X403584D01*
Y217249D01*
Y217113D01*
Y216977D01*
Y216841D01*
Y216705D01*
Y216569D01*
Y216433D01*
X403720D01*
Y216297D01*
Y216161D01*
Y216025D01*
X403856D01*
Y215889D01*
Y215753D01*
Y215617D01*
Y215481D01*
X403992D01*
Y215346D01*
Y215210D01*
X404128D01*
Y215074D01*
Y214938D01*
Y214802D01*
X404264D01*
Y214666D01*
Y214530D01*
X404399D01*
Y214394D01*
Y214258D01*
X404671D01*
Y214394D01*
Y214530D01*
X404807D01*
Y214666D01*
Y214802D01*
X404943D01*
Y214938D01*
X405079D01*
Y215074D01*
X405215D01*
Y215210D01*
Y215346D01*
Y215481D01*
Y215617D01*
Y215753D01*
Y215889D01*
Y216025D01*
X405079D01*
Y216161D01*
X404943D01*
Y216297D01*
Y216433D01*
Y216569D01*
X404807D01*
Y216705D01*
Y216841D01*
Y216977D01*
Y217113D01*
X404671D01*
Y217249D01*
Y217385D01*
Y217521D01*
X404535D01*
Y217656D01*
Y217793D01*
Y217928D01*
X404399D01*
Y218064D01*
Y218200D01*
Y218336D01*
X404264D01*
Y218472D01*
Y218608D01*
Y218744D01*
X404128D01*
Y218880D01*
Y219016D01*
X403992D01*
Y219152D01*
Y219288D01*
Y219424D01*
X403856D01*
Y219560D01*
Y219696D01*
X403720D01*
Y219832D01*
Y219968D01*
Y220104D01*
X403584D01*
Y220239D01*
Y220375D01*
X403448D01*
Y220511D01*
Y220647D01*
D02*
G37*
G36*
X402360Y210452D02*
X401953D01*
Y210316D01*
X401817D01*
Y210180D01*
Y210044D01*
X401953D01*
Y209908D01*
X402088D01*
Y209772D01*
X402768D01*
Y209636D01*
X402904D01*
Y209772D01*
X403040D01*
Y209636D01*
X403176D01*
Y209772D01*
X403312D01*
Y209908D01*
Y210044D01*
X403040D01*
Y210180D01*
X402904D01*
Y210316D01*
X402360D01*
Y210452D01*
D02*
G37*
G36*
X402904Y209500D02*
X402496D01*
Y209364D01*
X402904D01*
Y209500D01*
D02*
G37*
G36*
X425878Y215617D02*
X424927D01*
Y215481D01*
X423975D01*
Y215346D01*
X423160D01*
Y215210D01*
X422616D01*
Y215074D01*
X422072D01*
Y214938D01*
X421664D01*
Y214802D01*
X421256D01*
Y214666D01*
X420713D01*
Y214530D01*
X420305D01*
Y214394D01*
X420033D01*
Y214258D01*
X419625D01*
Y214122D01*
X419353D01*
Y213986D01*
X419081D01*
Y213850D01*
X418673D01*
Y213714D01*
X418538D01*
Y213578D01*
X418266D01*
Y213442D01*
X417994D01*
Y213306D01*
X417722D01*
Y213170D01*
X417586D01*
Y213035D01*
X417314D01*
Y212899D01*
X417178D01*
Y212763D01*
X416906D01*
Y212627D01*
X416770D01*
Y212491D01*
X418809D01*
Y212627D01*
X419081D01*
Y212491D01*
X419625D01*
Y212355D01*
X420033D01*
Y212219D01*
Y212083D01*
X419897D01*
Y211947D01*
X419761D01*
Y211811D01*
X419625D01*
Y211675D01*
X419217D01*
Y211539D01*
X419081D01*
Y211403D01*
X419489D01*
Y211267D01*
Y211131D01*
Y210995D01*
X419353D01*
Y210859D01*
X419081D01*
Y210723D01*
Y210588D01*
X418945D01*
Y210452D01*
X418809D01*
Y210316D01*
X418538D01*
Y210180D01*
X418402D01*
Y210044D01*
Y209908D01*
X418538D01*
Y209772D01*
X418673D01*
Y209636D01*
X418538D01*
Y209500D01*
Y209364D01*
Y209228D01*
X418945D01*
Y209364D01*
X419353D01*
Y209228D01*
Y209092D01*
Y208956D01*
X419625D01*
Y209092D01*
X419761D01*
Y209228D01*
X419897D01*
Y209364D01*
X420033D01*
Y209500D01*
X420305D01*
Y209636D01*
X420577D01*
Y209772D01*
X420713D01*
Y209908D01*
X420985D01*
Y210044D01*
X421120D01*
Y210180D01*
X421392D01*
Y210316D01*
X421528D01*
Y210452D01*
X421664D01*
Y210588D01*
X421936D01*
Y210723D01*
X422072D01*
Y210859D01*
X422208D01*
Y210995D01*
X422480D01*
Y211131D01*
X422616D01*
Y211267D01*
X422752D01*
Y211403D01*
X422888D01*
Y211539D01*
X423024D01*
Y211675D01*
X423160D01*
Y211811D01*
X423295D01*
Y211947D01*
X423431D01*
Y212083D01*
Y212219D01*
X423567D01*
Y212355D01*
X423703D01*
Y212491D01*
X423839D01*
Y212627D01*
X423975D01*
Y212763D01*
X424111D01*
Y212899D01*
X424247D01*
Y213035D01*
X424383D01*
Y213170D01*
X424519D01*
Y213306D01*
X424655D01*
Y213442D01*
X424791D01*
Y213578D01*
Y213714D01*
X424927D01*
Y213850D01*
X425063D01*
Y213986D01*
X425199D01*
Y214122D01*
X425335D01*
Y214258D01*
X425470D01*
Y214394D01*
Y214530D01*
X425606D01*
Y214666D01*
X425742D01*
Y214802D01*
X425878D01*
Y214938D01*
X426014D01*
Y215074D01*
Y215210D01*
X426150D01*
Y215346D01*
X426286D01*
Y215481D01*
X425878D01*
Y215617D01*
D02*
G37*
G36*
X434035Y217928D02*
X433491D01*
Y217793D01*
X432132D01*
Y217656D01*
X431588D01*
Y217521D01*
X431316D01*
Y217385D01*
X430908D01*
Y217249D01*
X430500D01*
Y217113D01*
X430229D01*
Y216977D01*
X429957D01*
Y216841D01*
X429821D01*
Y216705D01*
X429685D01*
Y216569D01*
X429413D01*
Y216433D01*
X429277D01*
Y216297D01*
X429141D01*
Y216161D01*
X429005D01*
Y216025D01*
X428869D01*
Y215889D01*
X428733D01*
Y215753D01*
X428597D01*
Y215617D01*
X428461D01*
Y215481D01*
X428325D01*
Y215346D01*
Y215210D01*
X428189D01*
Y215074D01*
X428053D01*
Y214938D01*
Y214802D01*
X427917D01*
Y214666D01*
X427781D01*
Y214530D01*
Y214394D01*
X427646D01*
Y214258D01*
X427510D01*
Y214122D01*
X427374D01*
Y213986D01*
Y213850D01*
X427238D01*
Y213714D01*
Y213578D01*
X427102D01*
Y213442D01*
Y213306D01*
Y213170D01*
X426966D01*
Y213035D01*
Y212899D01*
Y212763D01*
X426830D01*
Y212627D01*
Y212491D01*
Y212355D01*
X426694D01*
Y212219D01*
Y212083D01*
Y211947D01*
Y211811D01*
Y211675D01*
X426558D01*
Y211539D01*
Y211403D01*
Y211267D01*
Y211131D01*
Y210995D01*
Y210859D01*
Y210723D01*
Y210588D01*
Y210452D01*
Y210316D01*
Y210180D01*
Y210044D01*
Y209908D01*
Y209772D01*
Y209636D01*
Y209500D01*
X426694D01*
Y209364D01*
Y209228D01*
Y209092D01*
Y208956D01*
X426830D01*
Y208820D01*
Y208684D01*
X426966D01*
Y208548D01*
Y208413D01*
Y208277D01*
X427102D01*
Y208141D01*
Y208005D01*
X427238D01*
Y207869D01*
X427374D01*
Y207733D01*
Y207597D01*
X427510D01*
Y207461D01*
X427646D01*
Y207325D01*
X427781D01*
Y207189D01*
Y207053D01*
X427917D01*
Y206917D01*
X428053D01*
Y206781D01*
Y206645D01*
X428189D01*
Y206509D01*
X428325D01*
Y206373D01*
X428461D01*
Y206237D01*
X428597D01*
Y206101D01*
X428733D01*
Y205965D01*
X428869D01*
Y205830D01*
X429005D01*
Y205694D01*
X429141D01*
Y205558D01*
X429277D01*
Y205422D01*
Y205286D01*
X429413D01*
Y205150D01*
X429549D01*
Y205014D01*
X429685D01*
Y204878D01*
Y204742D01*
X429821D01*
Y204606D01*
X429957D01*
Y204470D01*
Y204334D01*
X430093D01*
Y204198D01*
Y204062D01*
X430229D01*
Y203926D01*
Y203790D01*
X430365D01*
Y203655D01*
Y203519D01*
Y203383D01*
X430500D01*
Y203247D01*
Y203111D01*
Y202975D01*
Y202839D01*
Y202703D01*
Y202567D01*
Y202431D01*
Y202295D01*
Y202159D01*
Y202023D01*
Y201887D01*
Y201751D01*
Y201615D01*
Y201479D01*
X430365D01*
Y201343D01*
Y201207D01*
Y201072D01*
Y200936D01*
X430500D01*
Y200800D01*
X430636D01*
Y200664D01*
X430908D01*
Y200528D01*
X431044D01*
Y200392D01*
X431180D01*
Y200256D01*
X431316D01*
Y200120D01*
Y199984D01*
X431452D01*
Y199848D01*
X431588D01*
Y199712D01*
Y199576D01*
X431996D01*
Y199712D01*
X432132D01*
Y199848D01*
X432268D01*
Y199984D01*
X432540D01*
Y200120D01*
X432676D01*
Y200256D01*
X432947D01*
Y200392D01*
X433083D01*
Y200528D01*
X433219D01*
Y200664D01*
X433355D01*
Y200800D01*
X433491D01*
Y200936D01*
X433627D01*
Y201072D01*
X433763D01*
Y201207D01*
X433899D01*
Y201343D01*
X434035D01*
Y201479D01*
X434171D01*
Y201615D01*
X434307D01*
Y201751D01*
X434443D01*
Y201887D01*
X434579D01*
Y202023D01*
Y202159D01*
X434715D01*
Y202295D01*
X434851D01*
Y202431D01*
X434986D01*
Y202567D01*
X435122D01*
Y202703D01*
X435258D01*
Y202839D01*
Y202975D01*
X435394D01*
Y203111D01*
X435530D01*
Y203247D01*
X435666D01*
Y203383D01*
Y203519D01*
X435802D01*
Y203655D01*
Y203790D01*
X435938D01*
Y203926D01*
Y204062D01*
X436074D01*
Y204198D01*
Y204334D01*
X436210D01*
Y204470D01*
Y204606D01*
X436346D01*
Y204742D01*
Y204878D01*
X436482D01*
Y205014D01*
X436618D01*
Y205150D01*
Y205286D01*
X436754D01*
Y205422D01*
Y205558D01*
X436890D01*
Y205694D01*
X437026D01*
Y205830D01*
Y205965D01*
X437161D01*
Y206101D01*
Y206237D01*
X437297D01*
Y206373D01*
X437433D01*
Y206509D01*
X437569D01*
Y206645D01*
X437705D01*
Y206781D01*
X437841D01*
Y206917D01*
Y207053D01*
X437977D01*
Y207189D01*
X438249D01*
Y207325D01*
X438385D01*
Y207461D01*
Y207597D01*
Y207733D01*
Y207869D01*
X438249D01*
Y208005D01*
Y208141D01*
Y208277D01*
Y208413D01*
Y208548D01*
Y208684D01*
Y208820D01*
Y208956D01*
X438385D01*
Y209092D01*
Y209228D01*
Y209364D01*
Y209500D01*
X438521D01*
Y209636D01*
Y209772D01*
Y209908D01*
X438657D01*
Y210044D01*
Y210180D01*
X438793D01*
Y210316D01*
Y210452D01*
X438929D01*
Y210588D01*
X439065D01*
Y210723D01*
Y210859D01*
X439201D01*
Y210995D01*
X439337D01*
Y211131D01*
X439473D01*
Y211267D01*
X439608D01*
Y211403D01*
X439744D01*
Y211539D01*
X440016D01*
Y211675D01*
X440424D01*
Y211539D01*
X440288D01*
Y211403D01*
X440016D01*
Y211267D01*
X439744D01*
Y211131D01*
X439608D01*
Y210995D01*
X439473D01*
Y210859D01*
X439337D01*
Y210723D01*
Y210588D01*
X439201D01*
Y210452D01*
X439065D01*
Y210316D01*
Y210180D01*
X438929D01*
Y210044D01*
Y209908D01*
X438793D01*
Y209772D01*
Y209636D01*
X438657D01*
Y209500D01*
Y209364D01*
Y209228D01*
X438521D01*
Y209092D01*
Y208956D01*
Y208820D01*
Y208684D01*
Y208548D01*
Y208413D01*
Y208277D01*
Y208141D01*
Y208005D01*
Y207869D01*
Y207733D01*
X438929D01*
Y207869D01*
X439065D01*
Y208005D01*
X439201D01*
Y208141D01*
X439473D01*
Y208277D01*
X439744D01*
Y208413D01*
X440016D01*
Y208548D01*
X440424D01*
Y208684D01*
X440832D01*
Y208820D01*
X441240D01*
Y208956D01*
X441920D01*
Y209092D01*
X443687D01*
Y208956D01*
X444231D01*
Y208820D01*
X444638D01*
Y208684D01*
X444910D01*
Y208548D01*
X445182D01*
Y208413D01*
X445454D01*
Y208277D01*
X445726D01*
Y208413D01*
X445862D01*
Y208548D01*
Y208684D01*
Y208820D01*
Y208956D01*
Y209092D01*
Y209228D01*
Y209364D01*
Y209500D01*
Y209636D01*
Y209772D01*
Y209908D01*
Y210044D01*
Y210180D01*
Y210316D01*
Y210452D01*
X445726D01*
Y210588D01*
Y210723D01*
Y210859D01*
Y210995D01*
Y211131D01*
Y211267D01*
X445590D01*
Y211403D01*
Y211539D01*
X445454D01*
Y211675D01*
Y211811D01*
Y211947D01*
X445318D01*
Y212083D01*
Y212219D01*
X445182D01*
Y212355D01*
Y212491D01*
X445046D01*
Y212627D01*
Y212763D01*
X444910D01*
Y212899D01*
Y213035D01*
X444774D01*
Y213170D01*
X444638D01*
Y213306D01*
X444502D01*
Y213442D01*
X444367D01*
Y213578D01*
Y213714D01*
X444231D01*
Y213850D01*
X444095D01*
Y213986D01*
X443959D01*
Y214122D01*
X443823D01*
Y214258D01*
X443687D01*
Y214394D01*
X443415D01*
Y214530D01*
X443279D01*
Y214666D01*
X443143D01*
Y214802D01*
X443007D01*
Y214938D01*
X442735D01*
Y215074D01*
X442599D01*
Y215210D01*
X442327D01*
Y215346D01*
X442191D01*
Y215481D01*
X441784D01*
Y215617D01*
X441376D01*
Y215753D01*
X440968D01*
Y215889D01*
X438385D01*
Y215753D01*
X437841D01*
Y215617D01*
X437433D01*
Y215481D01*
X437026D01*
Y215346D01*
X436754D01*
Y215210D01*
X436482D01*
Y215074D01*
X436346D01*
Y214938D01*
X436074D01*
Y214802D01*
X435802D01*
Y214666D01*
X435666D01*
Y214530D01*
X435530D01*
Y214394D01*
X435258D01*
Y214258D01*
X435122D01*
Y214122D01*
X434986D01*
Y213986D01*
X434851D01*
Y213850D01*
X434579D01*
Y213714D01*
X434443D01*
Y213578D01*
Y213442D01*
X434307D01*
Y213306D01*
X434171D01*
Y213170D01*
Y213035D01*
X434035D01*
Y212899D01*
X433899D01*
Y212763D01*
Y212627D01*
X433763D01*
Y212491D01*
X433627D01*
Y212355D01*
Y212219D01*
X433491D01*
Y212083D01*
X433355D01*
Y211947D01*
Y211811D01*
X433219D01*
Y211675D01*
Y211539D01*
X433083D01*
Y211403D01*
Y211267D01*
X432947D01*
Y211131D01*
Y210995D01*
X432811D01*
Y210859D01*
Y210723D01*
Y210588D01*
X432676D01*
Y210452D01*
Y210316D01*
Y210180D01*
X432540D01*
Y210044D01*
Y209908D01*
Y209772D01*
Y209636D01*
Y209500D01*
X432404D01*
Y209364D01*
Y209228D01*
Y209092D01*
Y208956D01*
Y208820D01*
Y208684D01*
Y208548D01*
Y208413D01*
Y208277D01*
Y208141D01*
Y208005D01*
Y207869D01*
Y207733D01*
Y207597D01*
Y207461D01*
Y207325D01*
X432540D01*
Y207189D01*
Y207053D01*
Y206917D01*
Y206781D01*
Y206645D01*
Y206509D01*
Y206373D01*
Y206237D01*
X432676D01*
Y206101D01*
Y205965D01*
Y205830D01*
Y205694D01*
Y205558D01*
Y205422D01*
X432811D01*
Y205286D01*
Y205150D01*
Y205014D01*
Y204878D01*
Y204742D01*
Y204606D01*
X432947D01*
Y204470D01*
Y204334D01*
Y204198D01*
Y204062D01*
Y203926D01*
Y203790D01*
Y203655D01*
Y203519D01*
Y203383D01*
Y203247D01*
Y203111D01*
X432811D01*
Y202975D01*
Y202839D01*
Y202703D01*
Y202567D01*
Y202431D01*
X432676D01*
Y202295D01*
Y202159D01*
Y202023D01*
X432540D01*
Y201887D01*
Y201751D01*
X432404D01*
Y201615D01*
Y201479D01*
X432268D01*
Y201343D01*
Y201207D01*
X432132D01*
Y201072D01*
X431996D01*
Y200936D01*
Y200800D01*
X431860D01*
Y200664D01*
X431724D01*
Y200528D01*
X431588D01*
Y200392D01*
X431316D01*
Y200528D01*
Y200664D01*
X431452D01*
Y200800D01*
X431588D01*
Y200936D01*
X431724D01*
Y201072D01*
Y201207D01*
X431860D01*
Y201343D01*
X431996D01*
Y201479D01*
Y201615D01*
X432132D01*
Y201751D01*
Y201887D01*
X432268D01*
Y202023D01*
Y202159D01*
Y202295D01*
X432540D01*
Y202431D01*
Y202567D01*
Y202703D01*
X432676D01*
Y202839D01*
Y202975D01*
Y203111D01*
Y203247D01*
Y203383D01*
Y203519D01*
Y203655D01*
Y203790D01*
Y203926D01*
Y204062D01*
Y204198D01*
Y204334D01*
Y204470D01*
Y204606D01*
Y204742D01*
Y204878D01*
X432540D01*
Y205014D01*
Y205150D01*
Y205286D01*
Y205422D01*
Y205558D01*
Y205694D01*
X432268D01*
Y205830D01*
Y205965D01*
Y206101D01*
Y206237D01*
Y206373D01*
Y206509D01*
Y206645D01*
Y206781D01*
Y206917D01*
X432132D01*
Y207053D01*
Y207189D01*
Y207325D01*
Y207461D01*
Y207597D01*
Y207733D01*
Y207869D01*
Y208005D01*
Y208141D01*
Y208277D01*
Y208413D01*
Y208548D01*
Y208684D01*
Y208820D01*
Y208956D01*
X431996D01*
Y209092D01*
X431860D01*
Y209228D01*
X431724D01*
Y209364D01*
X431588D01*
Y209500D01*
Y209636D01*
X431452D01*
Y209772D01*
Y209908D01*
Y210044D01*
X431316D01*
Y210180D01*
Y210316D01*
Y210452D01*
Y210588D01*
Y210723D01*
Y210859D01*
Y210995D01*
Y211131D01*
Y211267D01*
Y211403D01*
Y211539D01*
X431452D01*
Y211675D01*
Y211811D01*
Y211947D01*
X431588D01*
Y212083D01*
Y212219D01*
X431724D01*
Y212355D01*
Y212491D01*
Y212627D01*
X431860D01*
Y212763D01*
X431996D01*
Y212899D01*
X432132D01*
Y213035D01*
X432268D01*
Y213170D01*
X432540D01*
Y213306D01*
X432676D01*
Y213170D01*
Y213035D01*
X432540D01*
Y212899D01*
X432404D01*
Y212763D01*
X432268D01*
Y212627D01*
X432132D01*
Y212491D01*
X431996D01*
Y212355D01*
Y212219D01*
X431860D01*
Y212083D01*
Y211947D01*
Y211811D01*
X431724D01*
Y211675D01*
Y211539D01*
Y211403D01*
Y211267D01*
Y211131D01*
X431588D01*
Y210995D01*
Y210859D01*
Y210723D01*
Y210588D01*
Y210452D01*
Y210316D01*
X431724D01*
Y210180D01*
Y210044D01*
Y209908D01*
Y209772D01*
X431860D01*
Y209636D01*
Y209500D01*
Y209364D01*
X431996D01*
Y209228D01*
X432132D01*
Y209364D01*
Y209500D01*
Y209636D01*
Y209772D01*
Y209908D01*
X432268D01*
Y210044D01*
Y210180D01*
Y210316D01*
X432540D01*
Y210452D01*
Y210588D01*
Y210723D01*
X432676D01*
Y210859D01*
Y210995D01*
Y211131D01*
X432811D01*
Y211267D01*
Y211403D01*
X432947D01*
Y211539D01*
Y211675D01*
X433083D01*
Y211811D01*
Y211947D01*
X433219D01*
Y212083D01*
Y212219D01*
X433355D01*
Y212355D01*
X433491D01*
Y212491D01*
Y212627D01*
X433627D01*
Y212763D01*
Y212899D01*
X433763D01*
Y213035D01*
X433899D01*
Y213170D01*
Y213306D01*
X434035D01*
Y213442D01*
X434171D01*
Y213578D01*
X434307D01*
Y213714D01*
Y213850D01*
X434443D01*
Y213986D01*
X434579D01*
Y214122D01*
X434715D01*
Y214258D01*
X434986D01*
Y214394D01*
X435122D01*
Y214530D01*
X435258D01*
Y214666D01*
X435394D01*
Y214802D01*
X435666D01*
Y214938D01*
X435802D01*
Y215074D01*
X436074D01*
Y215210D01*
X436210D01*
Y215346D01*
X436482D01*
Y215481D01*
X436754D01*
Y215617D01*
X437026D01*
Y215753D01*
X437433D01*
Y215889D01*
X437705D01*
Y216025D01*
X437841D01*
Y216161D01*
X437705D01*
Y216297D01*
X437433D01*
Y216433D01*
X437297D01*
Y216569D01*
X437161D01*
Y216705D01*
X437026D01*
Y216841D01*
X436890D01*
Y216977D01*
X436618D01*
Y217113D01*
X436482D01*
Y217249D01*
X436210D01*
Y217385D01*
X435802D01*
Y217521D01*
X435530D01*
Y217656D01*
X435122D01*
Y217793D01*
X434035D01*
Y217928D01*
D02*
G37*
G36*
X423975Y210180D02*
X423703D01*
Y210044D01*
X423567D01*
Y209908D01*
X423431D01*
Y209772D01*
X423295D01*
Y209636D01*
X423160D01*
Y209500D01*
X423024D01*
Y209364D01*
X422888D01*
Y209228D01*
X422752D01*
Y209092D01*
Y208956D01*
X422616D01*
Y208820D01*
X422480D01*
Y208684D01*
Y208548D01*
X422344D01*
Y208413D01*
Y208277D01*
X422208D01*
Y208141D01*
Y208005D01*
Y207869D01*
X422072D01*
Y207733D01*
Y207597D01*
Y207461D01*
Y207325D01*
Y207189D01*
Y207053D01*
Y206917D01*
X421936D01*
Y206781D01*
Y206645D01*
X422072D01*
Y206509D01*
Y206373D01*
Y206237D01*
Y206101D01*
Y205965D01*
Y205830D01*
Y205694D01*
Y205558D01*
X422208D01*
Y205422D01*
Y205286D01*
Y205150D01*
X422344D01*
Y205014D01*
Y204878D01*
Y204742D01*
X422480D01*
Y204606D01*
X422616D01*
Y204470D01*
Y204334D01*
X422752D01*
Y204198D01*
X422888D01*
Y204062D01*
X423024D01*
Y203926D01*
X423160D01*
Y203790D01*
X423295D01*
Y203655D01*
X423567D01*
Y203519D01*
X423839D01*
Y203383D01*
X424111D01*
Y203247D01*
X424655D01*
Y203111D01*
X425063D01*
Y202975D01*
X425335D01*
Y202839D01*
X426966D01*
Y202703D01*
X427238D01*
Y202839D01*
Y202975D01*
X427102D01*
Y203111D01*
X426830D01*
Y203247D01*
X426694D01*
Y203383D01*
X426422D01*
Y203519D01*
X426286D01*
Y203655D01*
X426150D01*
Y203790D01*
X425878D01*
Y203926D01*
X425742D01*
Y204062D01*
X425606D01*
Y204198D01*
X425470D01*
Y204334D01*
X425335D01*
Y204470D01*
X425199D01*
Y204606D01*
X425063D01*
Y204742D01*
X424927D01*
Y204878D01*
Y205014D01*
X424791D01*
Y205150D01*
X424655D01*
Y205286D01*
X424519D01*
Y205422D01*
Y205558D01*
X424383D01*
Y205694D01*
Y205830D01*
X424247D01*
Y205965D01*
Y206101D01*
Y206237D01*
X424111D01*
Y206373D01*
Y206509D01*
X423975D01*
Y206645D01*
Y206781D01*
Y206917D01*
Y207053D01*
X423839D01*
Y207189D01*
Y207325D01*
Y207461D01*
Y207597D01*
Y207733D01*
Y207869D01*
Y208005D01*
Y208141D01*
Y208277D01*
Y208413D01*
Y208548D01*
Y208684D01*
Y208820D01*
Y208956D01*
Y209092D01*
Y209228D01*
Y209364D01*
Y209500D01*
Y209636D01*
Y209772D01*
X423975D01*
Y209908D01*
Y210044D01*
Y210180D01*
D02*
G37*
G36*
X426830Y213714D02*
X426694D01*
Y213578D01*
X426558D01*
Y213442D01*
X426422D01*
Y213306D01*
X426150D01*
Y213170D01*
X426014D01*
Y213035D01*
Y212899D01*
X425878D01*
Y212763D01*
X425742D01*
Y212627D01*
X425606D01*
Y212491D01*
X425470D01*
Y212355D01*
Y212219D01*
X425335D01*
Y212083D01*
X425199D01*
Y211947D01*
X425063D01*
Y211811D01*
Y211675D01*
X424927D01*
Y211539D01*
Y211403D01*
Y211267D01*
X424791D01*
Y211131D01*
X424655D01*
Y210995D01*
Y210859D01*
X424519D01*
Y210723D01*
Y210588D01*
X424383D01*
Y210452D01*
Y210316D01*
X424247D01*
Y210180D01*
Y210044D01*
Y209908D01*
Y209772D01*
Y209636D01*
X424111D01*
Y209500D01*
Y209364D01*
Y209228D01*
Y209092D01*
Y208956D01*
Y208820D01*
Y208684D01*
Y208548D01*
Y208413D01*
Y208277D01*
Y208141D01*
Y208005D01*
Y207869D01*
Y207733D01*
Y207597D01*
Y207461D01*
Y207325D01*
X424247D01*
Y207189D01*
Y207053D01*
Y206917D01*
Y206781D01*
X424383D01*
Y206645D01*
Y206509D01*
Y206373D01*
X424519D01*
Y206237D01*
Y206101D01*
Y205965D01*
X424655D01*
Y205830D01*
Y205694D01*
X424791D01*
Y205558D01*
X424927D01*
Y205422D01*
Y205286D01*
X425063D01*
Y205150D01*
X425199D01*
Y205014D01*
X425335D01*
Y204878D01*
X425470D01*
Y204742D01*
X425606D01*
Y204606D01*
X425742D01*
Y204470D01*
Y204334D01*
X426014D01*
Y204198D01*
X426150D01*
Y204062D01*
X426286D01*
Y203926D01*
X426422D01*
Y203790D01*
X426694D01*
Y203655D01*
X426830D01*
Y203519D01*
X426966D01*
Y203383D01*
X427102D01*
Y203247D01*
X427238D01*
Y203111D01*
X427510D01*
Y202975D01*
X427646D01*
Y202839D01*
X427781D01*
Y202703D01*
X427917D01*
Y202567D01*
X428189D01*
Y202431D01*
X428461D01*
Y202295D01*
X428733D01*
Y202159D01*
X429005D01*
Y202023D01*
X429141D01*
Y201887D01*
X429413D01*
Y201751D01*
X429549D01*
Y201615D01*
X429685D01*
Y201479D01*
X429821D01*
Y201343D01*
X430093D01*
Y201479D01*
Y201615D01*
X430229D01*
Y201751D01*
Y201887D01*
Y202023D01*
Y202159D01*
Y202295D01*
Y202431D01*
Y202567D01*
Y202703D01*
Y202839D01*
Y202975D01*
Y203111D01*
X430093D01*
Y203247D01*
Y203383D01*
Y203519D01*
X429957D01*
Y203655D01*
Y203790D01*
Y203926D01*
X429821D01*
Y204062D01*
Y204198D01*
X429685D01*
Y204334D01*
X429549D01*
Y204470D01*
Y204606D01*
X429413D01*
Y204742D01*
X429277D01*
Y204878D01*
Y205014D01*
X429141D01*
Y205150D01*
X429005D01*
Y205286D01*
X428869D01*
Y205422D01*
X428733D01*
Y205558D01*
Y205694D01*
X428597D01*
Y205830D01*
X428461D01*
Y205965D01*
X428325D01*
Y206101D01*
X428189D01*
Y206237D01*
X428053D01*
Y206373D01*
X427917D01*
Y206509D01*
X427781D01*
Y206645D01*
X427646D01*
Y206781D01*
Y206917D01*
X427510D01*
Y207053D01*
X427374D01*
Y207189D01*
X427238D01*
Y207325D01*
Y207461D01*
X427102D01*
Y207597D01*
X426966D01*
Y207733D01*
Y207869D01*
X426830D01*
Y208005D01*
Y208141D01*
X426694D01*
Y208277D01*
Y208413D01*
X426558D01*
Y208548D01*
Y208684D01*
X426422D01*
Y208820D01*
Y208956D01*
Y209092D01*
X426286D01*
Y209228D01*
Y209364D01*
Y209500D01*
Y209636D01*
Y209772D01*
Y209908D01*
Y210044D01*
X426150D01*
Y210180D01*
Y210316D01*
Y210452D01*
Y210588D01*
Y210723D01*
Y210859D01*
Y210995D01*
X426286D01*
Y211131D01*
Y211267D01*
Y211403D01*
Y211539D01*
Y211675D01*
Y211811D01*
Y211947D01*
X426422D01*
Y212083D01*
Y212219D01*
Y212355D01*
Y212491D01*
Y212627D01*
X426558D01*
Y212763D01*
Y212899D01*
Y213035D01*
X426694D01*
Y213170D01*
Y213306D01*
X426830D01*
Y213442D01*
Y213578D01*
Y213714D01*
D02*
G37*
G36*
X443415Y208820D02*
X442327D01*
Y208684D01*
X441240D01*
Y208548D01*
X440832D01*
Y208413D01*
X440424D01*
Y208277D01*
X440016D01*
Y208141D01*
X439744D01*
Y208005D01*
X439473D01*
Y207869D01*
X439337D01*
Y207733D01*
X439065D01*
Y207597D01*
X438793D01*
Y207461D01*
X438657D01*
Y207325D01*
X438521D01*
Y207189D01*
X438385D01*
Y207053D01*
X438249D01*
Y206917D01*
X438113D01*
Y206781D01*
X437977D01*
Y206645D01*
X437841D01*
Y206509D01*
X437705D01*
Y206373D01*
X437569D01*
Y206237D01*
Y206101D01*
X437433D01*
Y205965D01*
X437297D01*
Y205830D01*
Y205694D01*
X437161D01*
Y205558D01*
X437026D01*
Y205422D01*
Y205286D01*
X436890D01*
Y205150D01*
Y205014D01*
X436754D01*
Y204878D01*
X436618D01*
Y204742D01*
Y204606D01*
X436482D01*
Y204470D01*
Y204334D01*
X436346D01*
Y204198D01*
Y204062D01*
X436210D01*
Y203926D01*
Y203790D01*
X436074D01*
Y203655D01*
Y203519D01*
X435938D01*
Y203383D01*
Y203247D01*
X435802D01*
Y203111D01*
X435666D01*
Y202975D01*
Y202839D01*
X435530D01*
Y202703D01*
X435394D01*
Y202567D01*
X435258D01*
Y202431D01*
X435122D01*
Y202295D01*
Y202159D01*
X434986D01*
Y202023D01*
X434851D01*
Y201887D01*
X434715D01*
Y201751D01*
X434579D01*
Y201615D01*
X434443D01*
Y201479D01*
Y201343D01*
X434307D01*
Y201207D01*
X434171D01*
Y201072D01*
X434035D01*
Y200936D01*
X433899D01*
Y200800D01*
X433763D01*
Y200664D01*
X433627D01*
Y200528D01*
X433355D01*
Y200392D01*
X433219D01*
Y200256D01*
X433083D01*
Y200120D01*
X432947D01*
Y199984D01*
X432811D01*
Y199848D01*
X432676D01*
Y199712D01*
X432404D01*
Y199576D01*
X432268D01*
Y199440D01*
X431996D01*
Y199304D01*
Y199168D01*
Y199032D01*
Y198897D01*
X432132D01*
Y198761D01*
Y198625D01*
X432268D01*
Y198489D01*
Y198353D01*
X433083D01*
Y198489D01*
X433491D01*
Y198625D01*
X433899D01*
Y198761D01*
X434171D01*
Y198897D01*
X434579D01*
Y199032D01*
X434715D01*
Y199168D01*
X434986D01*
Y199304D01*
X435258D01*
Y199440D01*
X435530D01*
Y199576D01*
X435802D01*
Y199712D01*
X436074D01*
Y199848D01*
X436346D01*
Y199984D01*
X436618D01*
Y200120D01*
X437026D01*
Y200256D01*
X437433D01*
Y200392D01*
X437977D01*
Y200528D01*
X438521D01*
Y200664D01*
X440560D01*
Y200800D01*
Y200936D01*
Y201072D01*
X440424D01*
Y201207D01*
Y201343D01*
X440560D01*
Y201479D01*
Y201615D01*
Y201751D01*
Y201887D01*
Y202023D01*
Y202159D01*
X440696D01*
Y202295D01*
Y202431D01*
Y202567D01*
X440832D01*
Y202703D01*
Y202839D01*
X440968D01*
Y202975D01*
Y203111D01*
X441104D01*
Y203247D01*
X441240D01*
Y203111D01*
Y202975D01*
X441104D01*
Y202839D01*
Y202703D01*
X440968D01*
Y202567D01*
Y202431D01*
X440832D01*
Y202295D01*
Y202159D01*
Y202023D01*
X440696D01*
Y201887D01*
Y201751D01*
Y201615D01*
Y201479D01*
Y201343D01*
Y201207D01*
Y201072D01*
Y200936D01*
Y200800D01*
Y200664D01*
X440832D01*
Y200528D01*
X441376D01*
Y200392D01*
X441784D01*
Y200256D01*
X442056D01*
Y200120D01*
X442327D01*
Y199984D01*
X442599D01*
Y199848D01*
X442735D01*
Y199712D01*
X443007D01*
Y199576D01*
X443143D01*
Y199440D01*
X443279D01*
Y199304D01*
X443415D01*
Y199168D01*
X443551D01*
Y199032D01*
X443823D01*
Y198897D01*
Y198761D01*
X443959D01*
Y198625D01*
X444095D01*
Y198489D01*
X444231D01*
Y198353D01*
Y198217D01*
X444367D01*
Y198081D01*
X444502D01*
Y197945D01*
Y197809D01*
X444638D01*
Y197673D01*
X444774D01*
Y197537D01*
Y197401D01*
X444910D01*
Y197265D01*
Y197129D01*
Y196993D01*
X445046D01*
Y196857D01*
Y196721D01*
Y196586D01*
Y196450D01*
X445182D01*
Y196314D01*
Y196178D01*
Y196042D01*
Y195906D01*
Y195770D01*
Y195634D01*
X445590D01*
Y195770D01*
X445726D01*
Y195906D01*
X445862D01*
Y196042D01*
X445998D01*
Y196178D01*
X446270D01*
Y196314D01*
X446406D01*
Y196450D01*
X446542D01*
Y196586D01*
X446813D01*
Y196721D01*
X446949D01*
Y196857D01*
X447085D01*
Y196993D01*
X447221D01*
Y197129D01*
X447357D01*
Y197265D01*
X447493D01*
Y197401D01*
X447629D01*
Y197537D01*
X447765D01*
Y197673D01*
X447901D01*
Y197809D01*
X448037D01*
Y197945D01*
X448173D01*
Y198081D01*
Y198217D01*
X448309D01*
Y198353D01*
X448445D01*
Y198489D01*
Y198625D01*
X448581D01*
Y198761D01*
Y198897D01*
X448717D01*
Y199032D01*
Y199168D01*
X448853D01*
Y199304D01*
Y199440D01*
Y199576D01*
X448988D01*
Y199712D01*
Y199848D01*
Y199984D01*
Y200120D01*
X449124D01*
Y200256D01*
Y200392D01*
Y200528D01*
Y200664D01*
Y200800D01*
X449260D01*
Y200936D01*
Y201072D01*
Y201207D01*
Y201343D01*
Y201479D01*
Y201615D01*
Y201751D01*
Y201887D01*
Y202023D01*
Y202159D01*
X449124D01*
Y202295D01*
Y202431D01*
Y202567D01*
Y202703D01*
Y202839D01*
Y202975D01*
Y203111D01*
X448988D01*
Y203247D01*
Y203383D01*
Y203519D01*
Y203655D01*
X448853D01*
Y203790D01*
Y203926D01*
X448717D01*
Y204062D01*
Y204198D01*
X448581D01*
Y204334D01*
Y204470D01*
X448445D01*
Y204606D01*
Y204742D01*
X448309D01*
Y204878D01*
Y205014D01*
X448173D01*
Y205150D01*
Y205286D01*
Y205422D01*
X448037D01*
Y205558D01*
X447901D01*
Y205694D01*
Y205830D01*
X447765D01*
Y205965D01*
X447629D01*
Y206101D01*
X447493D01*
Y206237D01*
Y206373D01*
X447357D01*
Y206509D01*
X447221D01*
Y206645D01*
X447085D01*
Y206781D01*
X446949D01*
Y206917D01*
X446813D01*
Y207053D01*
X446677D01*
Y207189D01*
X446542D01*
Y207325D01*
X446270D01*
Y207461D01*
X446134D01*
Y207597D01*
X445998D01*
Y207733D01*
X445862D01*
Y207869D01*
X445726D01*
Y208005D01*
X445454D01*
Y208141D01*
X445182D01*
Y208277D01*
X444910D01*
Y208413D01*
X444502D01*
Y208548D01*
X444095D01*
Y208684D01*
X443415D01*
Y208820D01*
D02*
G37*
G36*
X440832Y200392D02*
X438793D01*
Y200256D01*
X437977D01*
Y200120D01*
X437569D01*
Y199984D01*
X437161D01*
Y199848D01*
X436754D01*
Y199712D01*
X436346D01*
Y199576D01*
X436074D01*
Y199440D01*
X435802D01*
Y199304D01*
X435530D01*
Y199168D01*
X435394D01*
Y199032D01*
X435122D01*
Y198897D01*
X434851D01*
Y198761D01*
X434579D01*
Y198625D01*
X434307D01*
Y198489D01*
X433899D01*
Y198353D01*
X433491D01*
Y198217D01*
X433083D01*
Y198081D01*
X432540D01*
Y197945D01*
Y197809D01*
Y197673D01*
X432676D01*
Y197537D01*
Y197401D01*
Y197265D01*
Y197129D01*
X432811D01*
Y196993D01*
Y196857D01*
Y196721D01*
Y196586D01*
Y196450D01*
Y196314D01*
Y196178D01*
X432947D01*
Y196042D01*
X433491D01*
Y195906D01*
X433899D01*
Y195770D01*
X434171D01*
Y195634D01*
X434443D01*
Y195498D01*
X434715D01*
Y195362D01*
X434851D01*
Y195226D01*
X435122D01*
Y195090D01*
X435394D01*
Y194954D01*
X435666D01*
Y194818D01*
X435802D01*
Y194682D01*
X435938D01*
Y194546D01*
X436210D01*
Y194410D01*
X436346D01*
Y194274D01*
Y194139D01*
X436754D01*
Y194274D01*
Y194410D01*
Y194546D01*
Y194682D01*
Y194818D01*
Y194954D01*
X436890D01*
Y195090D01*
Y195226D01*
Y195362D01*
X437026D01*
Y195498D01*
Y195634D01*
X437161D01*
Y195770D01*
Y195906D01*
X437297D01*
Y196042D01*
X437433D01*
Y196178D01*
X437569D01*
Y196314D01*
Y196450D01*
X437841D01*
Y196586D01*
X437977D01*
Y196721D01*
X438249D01*
Y196857D01*
X438521D01*
Y196993D01*
X439065D01*
Y197129D01*
X440016D01*
Y196993D01*
X440424D01*
Y196857D01*
X440832D01*
Y196721D01*
X440968D01*
Y196586D01*
X441240D01*
Y196450D01*
X441376D01*
Y196314D01*
X441512D01*
Y196178D01*
X441648D01*
Y196042D01*
X441784D01*
Y195906D01*
Y195770D01*
Y195634D01*
X441920D01*
Y195498D01*
Y195362D01*
Y195226D01*
Y195090D01*
Y194954D01*
Y194818D01*
Y194682D01*
Y194546D01*
Y194410D01*
Y194274D01*
Y194139D01*
X441784D01*
Y194003D01*
Y193867D01*
X441648D01*
Y194003D01*
Y194139D01*
Y194274D01*
Y194410D01*
X441784D01*
Y194546D01*
Y194682D01*
Y194818D01*
Y194954D01*
Y195090D01*
Y195226D01*
Y195362D01*
Y195498D01*
X441648D01*
Y195634D01*
Y195770D01*
X441512D01*
Y195906D01*
Y196042D01*
X441376D01*
Y196178D01*
X441240D01*
Y196314D01*
X440968D01*
Y196450D01*
X440832D01*
Y196586D01*
X440424D01*
Y196721D01*
X440016D01*
Y196857D01*
X439065D01*
Y196721D01*
X438521D01*
Y196586D01*
X438249D01*
Y196450D01*
X437977D01*
Y196314D01*
X437841D01*
Y196178D01*
X437705D01*
Y196042D01*
X437569D01*
Y195906D01*
X437433D01*
Y195770D01*
X437297D01*
Y195634D01*
Y195498D01*
X437161D01*
Y195362D01*
Y195226D01*
Y195090D01*
X437026D01*
Y194954D01*
Y194818D01*
Y194682D01*
X436890D01*
Y194546D01*
Y194410D01*
Y194274D01*
Y194139D01*
Y194003D01*
Y193867D01*
X437026D01*
Y193731D01*
Y193595D01*
X437161D01*
Y193459D01*
Y193323D01*
X437297D01*
Y193187D01*
X437433D01*
Y193051D01*
Y192915D01*
X437569D01*
Y192779D01*
X437705D01*
Y192643D01*
Y192507D01*
X437841D01*
Y192371D01*
X437977D01*
Y192235D01*
X438249D01*
Y192099D01*
X438385D01*
Y191964D01*
X438521D01*
Y191827D01*
X438793D01*
Y191692D01*
X438929D01*
Y191556D01*
X439201D01*
Y191420D01*
X439473D01*
Y191284D01*
X439880D01*
Y191148D01*
X440560D01*
Y191012D01*
X440968D01*
Y191148D01*
X441920D01*
Y191284D01*
X442327D01*
Y191420D01*
X442599D01*
Y191556D01*
X442871D01*
Y191692D01*
X443143D01*
Y191827D01*
X443279D01*
Y191964D01*
X443415D01*
Y192099D01*
X443551D01*
Y192235D01*
X443687D01*
Y192371D01*
X443823D01*
Y192507D01*
X443959D01*
Y192643D01*
X444095D01*
Y192779D01*
X444231D01*
Y192915D01*
X444367D01*
Y193051D01*
Y193187D01*
X444502D01*
Y193323D01*
Y193459D01*
Y193595D01*
X444638D01*
Y193731D01*
Y193867D01*
X444774D01*
Y194003D01*
Y194139D01*
Y194274D01*
X444910D01*
Y194410D01*
Y194546D01*
Y194682D01*
Y194818D01*
Y194954D01*
X445046D01*
Y195090D01*
Y195226D01*
Y195362D01*
Y195498D01*
Y195634D01*
Y195770D01*
Y195906D01*
Y196042D01*
X444910D01*
Y196178D01*
Y196314D01*
Y196450D01*
Y196586D01*
Y196721D01*
Y196857D01*
X444774D01*
Y196993D01*
Y197129D01*
Y197265D01*
X444638D01*
Y197401D01*
Y197537D01*
X444502D01*
Y197673D01*
X444367D01*
Y197809D01*
Y197945D01*
X444231D01*
Y198081D01*
X444095D01*
Y198217D01*
X443959D01*
Y198353D01*
Y198489D01*
X443823D01*
Y198625D01*
X443687D01*
Y198761D01*
X443551D01*
Y198897D01*
X443415D01*
Y199032D01*
X443279D01*
Y199168D01*
X443143D01*
Y199304D01*
X443007D01*
Y199440D01*
X442735D01*
Y199576D01*
X442463D01*
Y199712D01*
X442191D01*
Y199848D01*
X441920D01*
Y199984D01*
X441784D01*
Y200120D01*
X441240D01*
Y200256D01*
X440832D01*
Y200392D01*
D02*
G37*
G36*
X415819Y189924D02*
X415683D01*
Y189788D01*
Y189653D01*
Y189516D01*
X415819D01*
Y189381D01*
Y189245D01*
Y189109D01*
Y188973D01*
Y188837D01*
X416090D01*
Y188973D01*
Y189109D01*
X415955D01*
Y189245D01*
Y189381D01*
Y189516D01*
Y189653D01*
Y189788D01*
X415819D01*
Y189924D01*
D02*
G37*
G36*
X425335Y191284D02*
X425063D01*
Y191148D01*
X424927D01*
Y191012D01*
X424519D01*
Y190876D01*
X424111D01*
Y190740D01*
X423975D01*
Y190604D01*
Y190468D01*
Y190332D01*
Y190196D01*
Y190060D01*
Y189924D01*
Y189788D01*
X423839D01*
Y189653D01*
Y189516D01*
Y189381D01*
X423703D01*
Y189245D01*
Y189109D01*
Y188973D01*
Y188837D01*
X423567D01*
Y188701D01*
Y188565D01*
Y188429D01*
Y188293D01*
X423431D01*
Y188157D01*
Y188021D01*
Y187885D01*
Y187749D01*
X423295D01*
Y187613D01*
Y187477D01*
Y187341D01*
X423160D01*
Y187206D01*
Y187070D01*
X423024D01*
Y186934D01*
X422888D01*
Y186798D01*
X422752D01*
Y186662D01*
X422480D01*
Y186526D01*
X422344D01*
Y186390D01*
X422072D01*
Y186254D01*
X421936D01*
Y186118D01*
X421800D01*
Y185982D01*
Y185846D01*
Y185710D01*
Y185574D01*
Y185438D01*
X421936D01*
Y185302D01*
X422072D01*
Y185438D01*
Y185574D01*
Y185710D01*
X422208D01*
Y185846D01*
Y185982D01*
X422344D01*
Y186118D01*
X422480D01*
Y186254D01*
X422616D01*
Y186390D01*
X422752D01*
Y186254D01*
Y186118D01*
X422616D01*
Y185982D01*
X422480D01*
Y185846D01*
X422344D01*
Y185710D01*
Y185574D01*
Y185438D01*
Y185302D01*
Y185166D01*
Y185030D01*
X422480D01*
Y184895D01*
Y184759D01*
X422888D01*
Y184623D01*
X423295D01*
Y184487D01*
X423431D01*
Y184623D01*
X423567D01*
Y184759D01*
X423431D01*
Y184895D01*
Y185030D01*
Y185166D01*
Y185302D01*
Y185438D01*
X423567D01*
Y185574D01*
X423703D01*
Y185710D01*
Y185846D01*
X423839D01*
Y185982D01*
X423975D01*
Y186118D01*
X424247D01*
Y185982D01*
Y185846D01*
X424111D01*
Y185710D01*
X423975D01*
Y185574D01*
X423839D01*
Y185438D01*
X423703D01*
Y185302D01*
Y185166D01*
Y185030D01*
Y184895D01*
X423839D01*
Y184759D01*
X424655D01*
Y184895D01*
X424927D01*
Y185030D01*
X425199D01*
Y185166D01*
X425335D01*
Y185302D01*
X425470D01*
Y185438D01*
X425606D01*
Y185574D01*
Y185710D01*
X425742D01*
Y185846D01*
Y185982D01*
X425878D01*
Y186118D01*
Y186254D01*
Y186390D01*
X426014D01*
Y186526D01*
Y186662D01*
Y186798D01*
X426150D01*
Y186934D01*
Y187070D01*
X426286D01*
Y187206D01*
Y187341D01*
Y187477D01*
X426422D01*
Y187613D01*
Y187749D01*
Y187885D01*
X426558D01*
Y188021D01*
Y188157D01*
Y188293D01*
X426694D01*
Y188429D01*
Y188565D01*
Y188701D01*
X426830D01*
Y188837D01*
Y188973D01*
Y189109D01*
Y189245D01*
X426966D01*
Y189381D01*
Y189516D01*
Y189653D01*
X426830D01*
Y189788D01*
X426694D01*
Y189924D01*
X426422D01*
Y190060D01*
X426286D01*
Y190196D01*
X426150D01*
Y190332D01*
X426014D01*
Y190468D01*
X425878D01*
Y190604D01*
X425742D01*
Y190740D01*
X425606D01*
Y190876D01*
Y191012D01*
X425470D01*
Y191148D01*
X425335D01*
Y191284D01*
D02*
G37*
G36*
X409973Y196450D02*
X409837D01*
Y196314D01*
Y196178D01*
X409973D01*
Y196042D01*
Y195906D01*
Y195770D01*
Y195634D01*
X410109D01*
Y195498D01*
Y195362D01*
Y195226D01*
X410245D01*
Y195090D01*
Y194954D01*
Y194818D01*
X410381D01*
Y194682D01*
Y194546D01*
Y194410D01*
X410517D01*
Y194274D01*
Y194139D01*
X410653D01*
Y194003D01*
Y193867D01*
Y193731D01*
X410789D01*
Y193595D01*
Y193459D01*
X410925D01*
Y193323D01*
Y193187D01*
X411061D01*
Y193051D01*
Y192915D01*
X411197D01*
Y192779D01*
Y192643D01*
Y192507D01*
X411333D01*
Y192371D01*
Y192235D01*
X411469D01*
Y192099D01*
Y191964D01*
X411604D01*
Y191827D01*
Y191692D01*
Y191556D01*
X411740D01*
Y191420D01*
Y191284D01*
X411876D01*
Y191148D01*
Y191012D01*
X412012D01*
Y190876D01*
Y190740D01*
Y190604D01*
X412148D01*
Y190468D01*
Y190332D01*
Y190196D01*
X412284D01*
Y190060D01*
Y189924D01*
Y189788D01*
Y189653D01*
X412420D01*
Y189516D01*
Y189381D01*
Y189245D01*
Y189109D01*
X412556D01*
Y188973D01*
Y188837D01*
Y188701D01*
Y188565D01*
Y188429D01*
Y188293D01*
Y188157D01*
X412692D01*
Y188021D01*
Y187885D01*
Y187749D01*
Y187613D01*
Y187477D01*
Y187341D01*
Y187206D01*
Y187070D01*
Y186934D01*
Y186798D01*
Y186662D01*
Y186526D01*
Y186390D01*
Y186254D01*
Y186118D01*
Y185982D01*
X412556D01*
Y185846D01*
Y185710D01*
Y185574D01*
X412420D01*
Y185438D01*
X412284D01*
Y185302D01*
Y185166D01*
X412012D01*
Y185030D01*
X411740D01*
Y184895D01*
X411604D01*
Y184759D01*
Y184623D01*
X411469D01*
Y184487D01*
Y184351D01*
Y184215D01*
Y184079D01*
X411604D01*
Y183943D01*
X411740D01*
Y184079D01*
Y184215D01*
Y184351D01*
X411876D01*
Y184487D01*
Y184623D01*
Y184759D01*
X412148D01*
Y184623D01*
Y184487D01*
X412012D01*
Y184351D01*
Y184215D01*
Y184079D01*
Y183943D01*
Y183807D01*
X412148D01*
Y183671D01*
X412284D01*
Y183535D01*
X412828D01*
Y183671D01*
Y183807D01*
Y183943D01*
Y184079D01*
Y184215D01*
Y184351D01*
Y184487D01*
X412964D01*
Y184623D01*
X413236D01*
Y184487D01*
Y184351D01*
X413100D01*
Y184215D01*
Y184079D01*
X412964D01*
Y183943D01*
Y183807D01*
X413100D01*
Y183671D01*
Y183535D01*
X413236D01*
Y183399D01*
X413915D01*
Y183535D01*
Y183671D01*
Y183807D01*
X414051D01*
Y183943D01*
X414187D01*
Y184079D01*
X414323D01*
Y184215D01*
X414459D01*
Y184351D01*
X414595D01*
Y184487D01*
X415003D01*
Y184623D01*
X415275D01*
Y184759D01*
X415411D01*
Y184895D01*
X415547D01*
Y185030D01*
Y185166D01*
X415683D01*
Y185302D01*
Y185438D01*
Y185574D01*
Y185710D01*
X415819D01*
Y185846D01*
Y185982D01*
Y186118D01*
Y186254D01*
Y186390D01*
Y186526D01*
Y186662D01*
X415955D01*
Y186798D01*
Y186934D01*
Y187070D01*
Y187206D01*
Y187341D01*
Y187477D01*
Y187613D01*
Y187749D01*
X415819D01*
Y187885D01*
Y188021D01*
Y188157D01*
Y188293D01*
Y188429D01*
X415683D01*
Y188565D01*
Y188701D01*
Y188837D01*
Y188973D01*
Y189109D01*
X415547D01*
Y189245D01*
Y189381D01*
Y189516D01*
Y189653D01*
Y189788D01*
Y189924D01*
Y190060D01*
Y190196D01*
Y190332D01*
Y190468D01*
Y190604D01*
Y190740D01*
Y190876D01*
X415411D01*
Y191012D01*
X415003D01*
Y191148D01*
X414731D01*
Y191284D01*
X414459D01*
Y191420D01*
X414187D01*
Y191556D01*
X413915D01*
Y191692D01*
X413779D01*
Y191827D01*
X413508D01*
Y191964D01*
X413372D01*
Y192099D01*
X413236D01*
Y192235D01*
X413100D01*
Y192371D01*
X412964D01*
Y192507D01*
X412828D01*
Y192643D01*
X412692D01*
Y192779D01*
X412420D01*
Y192915D01*
X412284D01*
Y193051D01*
X412148D01*
Y193187D01*
X412012D01*
Y193323D01*
Y193459D01*
X411876D01*
Y193595D01*
X411740D01*
Y193731D01*
X411604D01*
Y193867D01*
X411469D01*
Y194003D01*
X411333D01*
Y194139D01*
Y194274D01*
X411197D01*
Y194410D01*
X411061D01*
Y194546D01*
X410925D01*
Y194682D01*
Y194818D01*
X410789D01*
Y194954D01*
X410653D01*
Y195090D01*
Y195226D01*
X410517D01*
Y195362D01*
Y195498D01*
X410381D01*
Y195634D01*
X410245D01*
Y195770D01*
Y195906D01*
Y196042D01*
X410109D01*
Y196178D01*
Y196314D01*
X409973D01*
Y196450D01*
D02*
G37*
%LPD*%
G36*
X422344Y212627D02*
X422208D01*
Y212491D01*
X422072D01*
Y212355D01*
X421936D01*
Y212491D01*
Y212627D01*
X422072D01*
Y212763D01*
X422344D01*
Y212627D01*
D02*
G37*
G36*
X421256Y212219D02*
X421120D01*
Y212083D01*
X420849D01*
Y211947D01*
X420577D01*
Y212083D01*
X420713D01*
Y212219D01*
X420985D01*
Y212355D01*
X421256D01*
Y212219D01*
D02*
G37*
G36*
X443551Y204198D02*
X443959D01*
Y204062D01*
X444367D01*
Y203926D01*
X444502D01*
Y203790D01*
X444774D01*
Y203655D01*
X444910D01*
Y203519D01*
X445046D01*
Y203383D01*
X445182D01*
Y203247D01*
X445318D01*
Y203111D01*
Y202975D01*
X445454D01*
Y202839D01*
Y202703D01*
X445590D01*
Y202567D01*
Y202431D01*
Y202295D01*
Y202159D01*
X445726D01*
Y202023D01*
Y201887D01*
Y201751D01*
Y201615D01*
Y201479D01*
Y201343D01*
Y201207D01*
Y201072D01*
Y200936D01*
Y200800D01*
X445590D01*
Y200664D01*
Y200528D01*
Y200392D01*
X445454D01*
Y200256D01*
X445318D01*
Y200120D01*
X445182D01*
Y200256D01*
Y200392D01*
X445318D01*
Y200528D01*
Y200664D01*
X445454D01*
Y200800D01*
Y200936D01*
X445590D01*
Y201072D01*
Y201207D01*
Y201343D01*
Y201479D01*
Y201615D01*
Y201751D01*
Y201887D01*
X445454D01*
Y202023D01*
Y202159D01*
Y202295D01*
Y202431D01*
X445318D01*
Y202567D01*
Y202703D01*
Y202839D01*
X445182D01*
Y202975D01*
X445046D01*
Y203111D01*
Y203247D01*
X444910D01*
Y203383D01*
X444774D01*
Y203519D01*
X444502D01*
Y203655D01*
X444231D01*
Y203790D01*
X443959D01*
Y203926D01*
X443551D01*
Y204062D01*
X442735D01*
Y203926D01*
X442191D01*
Y203790D01*
X441920D01*
Y203655D01*
X441784D01*
Y203519D01*
X441648D01*
Y203383D01*
X441376D01*
Y203247D01*
X441240D01*
Y203383D01*
Y203519D01*
X441376D01*
Y203655D01*
X441512D01*
Y203790D01*
X441648D01*
Y203926D01*
X441920D01*
Y204062D01*
X442191D01*
Y204198D01*
X442599D01*
Y204334D01*
X443551D01*
Y204198D01*
D02*
G37*
G36*
X441648Y193731D02*
Y193595D01*
X441512D01*
Y193459D01*
X441376D01*
Y193323D01*
X441240D01*
Y193459D01*
Y193595D01*
X441376D01*
Y193731D01*
X441512D01*
Y193867D01*
X441648D01*
Y193731D01*
D02*
G37*
G36*
X413100Y188565D02*
X413236D01*
Y188429D01*
Y188293D01*
X412964D01*
Y188429D01*
Y188565D01*
Y188701D01*
X413100D01*
Y188565D01*
D02*
G37*
G36*
X414459Y188157D02*
X414595D01*
Y188021D01*
X414459D01*
Y187885D01*
X414323D01*
Y188021D01*
Y188157D01*
Y188293D01*
X414459D01*
Y188157D01*
D02*
G37*
%LPC*%
G36*
X411197Y212083D02*
X410789D01*
Y211947D01*
X410517D01*
Y211811D01*
Y211675D01*
X410381D01*
Y211539D01*
Y211403D01*
X410245D01*
Y211267D01*
Y211131D01*
Y210995D01*
Y210859D01*
Y210723D01*
X410381D01*
Y210588D01*
X410925D01*
Y210723D01*
X411061D01*
Y210859D01*
Y210995D01*
X411197D01*
Y211131D01*
Y211267D01*
X411333D01*
Y211403D01*
Y211539D01*
Y211675D01*
Y211811D01*
Y211947D01*
X411197D01*
Y212083D01*
D02*
G37*
G36*
X412284Y212491D02*
X411740D01*
Y212355D01*
X411469D01*
Y212219D01*
Y212083D01*
X411604D01*
Y211947D01*
Y211811D01*
X411740D01*
Y211675D01*
Y211539D01*
Y211403D01*
X411604D01*
Y211267D01*
Y211131D01*
Y210995D01*
Y210859D01*
X411469D01*
Y210723D01*
Y210588D01*
Y210452D01*
Y210316D01*
X411197D01*
Y210180D01*
X410381D01*
Y210316D01*
X410109D01*
Y210452D01*
X409973D01*
Y210588D01*
Y210723D01*
X409837D01*
Y210588D01*
X409701D01*
Y210452D01*
Y210316D01*
Y210180D01*
Y210044D01*
X409837D01*
Y209908D01*
X409973D01*
Y209772D01*
Y209636D01*
X410109D01*
Y209500D01*
X410381D01*
Y209364D01*
X410517D01*
Y209228D01*
X410653D01*
Y209092D01*
X410925D01*
Y208956D01*
X411197D01*
Y208820D01*
X411604D01*
Y208684D01*
X412556D01*
Y208820D01*
X412828D01*
Y208956D01*
X413100D01*
Y209092D01*
X413236D01*
Y209228D01*
X413372D01*
Y209364D01*
Y209500D01*
X413508D01*
Y209636D01*
X413644D01*
Y209772D01*
X413779D01*
Y209908D01*
Y210044D01*
X413915D01*
Y210180D01*
Y210316D01*
X414051D01*
Y210452D01*
Y210588D01*
Y210723D01*
Y210859D01*
Y210995D01*
Y211131D01*
Y211267D01*
X413915D01*
Y211403D01*
Y211539D01*
X413779D01*
Y211675D01*
Y211811D01*
X413644D01*
Y211947D01*
X413372D01*
Y212083D01*
X413236D01*
Y212219D01*
X412964D01*
Y212355D01*
X412284D01*
Y212491D01*
D02*
G37*
G36*
X405623Y205830D02*
X405351D01*
Y205694D01*
X405487D01*
Y205558D01*
X405623D01*
Y205422D01*
Y205286D01*
X405759D01*
Y205150D01*
X405895D01*
Y205014D01*
X406031D01*
Y204878D01*
X406167D01*
Y204742D01*
Y204606D01*
X406303D01*
Y204470D01*
X406711D01*
Y204606D01*
Y204742D01*
Y204878D01*
X406575D01*
Y205014D01*
X406439D01*
Y205150D01*
X406303D01*
Y205286D01*
X406167D01*
Y205422D01*
X406031D01*
Y205558D01*
X405895D01*
Y205694D01*
X405623D01*
Y205830D01*
D02*
G37*
G36*
X320568Y197797D02*
X319334D01*
Y197685D01*
X318886D01*
Y197573D01*
X318661D01*
Y197461D01*
X318437D01*
Y197349D01*
X318213D01*
Y197237D01*
X317989D01*
Y197125D01*
X317877D01*
Y197012D01*
X317764D01*
Y196900D01*
X317652D01*
Y196788D01*
X317540D01*
Y196676D01*
X317428D01*
Y196564D01*
X317316D01*
Y196452D01*
X317204D01*
Y196340D01*
Y196228D01*
X317092D01*
Y196115D01*
Y196003D01*
X316980D01*
Y195891D01*
X316867D01*
Y195779D01*
Y195667D01*
Y195555D01*
X316755D01*
Y195443D01*
Y195330D01*
X316643D01*
Y195218D01*
Y195106D01*
Y194994D01*
Y194882D01*
X316531D01*
Y194770D01*
Y194658D01*
Y194545D01*
Y194433D01*
Y194321D01*
Y194209D01*
Y194097D01*
Y193985D01*
Y193873D01*
Y193761D01*
Y193648D01*
Y193536D01*
Y193424D01*
Y193312D01*
X316643D01*
Y193200D01*
Y193088D01*
Y192976D01*
Y192864D01*
X316755D01*
Y192751D01*
Y192639D01*
X316867D01*
Y192527D01*
Y192415D01*
X316980D01*
Y192303D01*
X317092D01*
Y192191D01*
X317204D01*
Y192079D01*
X317316D01*
Y191966D01*
X317428D01*
Y191854D01*
X317540D01*
Y191742D01*
X317764D01*
Y191630D01*
X317989D01*
Y191518D01*
X318213D01*
Y191406D01*
X318661D01*
Y191294D01*
X319783D01*
Y191406D01*
X320231D01*
Y191518D01*
X320456D01*
Y191630D01*
X320680D01*
Y191742D01*
X320904D01*
Y191854D01*
X321129D01*
Y191966D01*
X321241D01*
Y192079D01*
X321353D01*
Y192191D01*
X321465D01*
Y192303D01*
X321577D01*
Y192415D01*
X321689D01*
Y192527D01*
X321801D01*
Y192639D01*
X321913D01*
Y192751D01*
X322025D01*
Y192864D01*
Y192976D01*
X322138D01*
Y193088D01*
Y193200D01*
X322250D01*
Y193312D01*
Y193424D01*
X322362D01*
Y193536D01*
Y193648D01*
X322474D01*
Y193761D01*
Y193873D01*
Y193985D01*
Y194097D01*
X322586D01*
Y194209D01*
Y194321D01*
Y194433D01*
Y194545D01*
Y194658D01*
Y194770D01*
Y194882D01*
Y194994D01*
Y195106D01*
Y195218D01*
Y195330D01*
Y195443D01*
Y195555D01*
Y195667D01*
Y195779D01*
Y195891D01*
Y196003D01*
Y196115D01*
X322474D01*
Y196228D01*
Y196340D01*
X322362D01*
Y196452D01*
Y196564D01*
X322250D01*
Y196676D01*
X322138D01*
Y196788D01*
Y196900D01*
X322025D01*
Y197012D01*
X321913D01*
Y197125D01*
X321801D01*
Y197237D01*
X321577D01*
Y197349D01*
X321465D01*
Y197461D01*
X321241D01*
Y197573D01*
X321016D01*
Y197685D01*
X320568D01*
Y197797D01*
D02*
G37*
G36*
X312943D02*
X311597D01*
Y197685D01*
X311261D01*
Y197573D01*
X310924D01*
Y197461D01*
X310700D01*
Y197349D01*
X310476D01*
Y197237D01*
X310364D01*
Y197125D01*
X310251D01*
Y197012D01*
X310139D01*
Y196900D01*
X309915D01*
Y196788D01*
Y196676D01*
X309803D01*
Y196564D01*
X309691D01*
Y196452D01*
X309579D01*
Y196340D01*
X309467D01*
Y196228D01*
Y196115D01*
X309354D01*
Y196003D01*
Y195891D01*
X309242D01*
Y195779D01*
Y195667D01*
X309130D01*
Y195555D01*
Y195443D01*
X309018D01*
Y195330D01*
Y195218D01*
Y195106D01*
X308906D01*
Y194994D01*
Y194882D01*
Y194770D01*
Y194658D01*
Y194545D01*
Y194433D01*
X308794D01*
Y194321D01*
Y194209D01*
Y194097D01*
Y193985D01*
Y193873D01*
Y193761D01*
Y193648D01*
Y193536D01*
X308906D01*
Y193424D01*
Y193312D01*
Y193200D01*
Y193088D01*
X309018D01*
Y192976D01*
Y192864D01*
Y192751D01*
X309130D01*
Y192639D01*
Y192527D01*
X309242D01*
Y192415D01*
X309354D01*
Y192303D01*
X309467D01*
Y192191D01*
X309579D01*
Y192079D01*
X309691D01*
Y191966D01*
X309803D01*
Y191854D01*
X309915D01*
Y191742D01*
X310027D01*
Y191630D01*
X310251D01*
Y191518D01*
X310588D01*
Y191406D01*
X310924D01*
Y191294D01*
X312158D01*
Y191406D01*
X312606D01*
Y191518D01*
X312831D01*
Y191630D01*
X313055D01*
Y191742D01*
X313279D01*
Y191854D01*
X313391D01*
Y191966D01*
X313615D01*
Y192079D01*
X313728D01*
Y192191D01*
X313840D01*
Y192303D01*
X313952D01*
Y192415D01*
X314064D01*
Y192527D01*
X314176D01*
Y192639D01*
Y192751D01*
X314288D01*
Y192864D01*
X314401D01*
Y192976D01*
Y193088D01*
X314513D01*
Y193200D01*
Y193312D01*
X314625D01*
Y193424D01*
Y193536D01*
X314737D01*
Y193648D01*
Y193761D01*
Y193873D01*
X314849D01*
Y193985D01*
Y194097D01*
Y194209D01*
Y194321D01*
X314961D01*
Y194433D01*
Y194545D01*
Y194658D01*
Y194770D01*
Y194882D01*
Y194994D01*
Y195106D01*
Y195218D01*
Y195330D01*
Y195443D01*
Y195555D01*
Y195667D01*
Y195779D01*
Y195891D01*
X314849D01*
Y196003D01*
Y196115D01*
Y196228D01*
X314737D01*
Y196340D01*
Y196452D01*
X314625D01*
Y196564D01*
Y196676D01*
X314513D01*
Y196788D01*
X314401D01*
Y196900D01*
X314288D01*
Y197012D01*
X314176D01*
Y197125D01*
X314064D01*
Y197237D01*
X313952D01*
Y197349D01*
X313728D01*
Y197461D01*
X313615D01*
Y197573D01*
X313279D01*
Y197685D01*
X312943D01*
Y197797D01*
D02*
G37*
G36*
X330323Y197685D02*
X327744D01*
Y197573D01*
Y197461D01*
Y197349D01*
Y197237D01*
X327632D01*
Y197125D01*
Y197012D01*
Y196900D01*
Y196788D01*
Y196676D01*
X327520D01*
Y196564D01*
Y196452D01*
Y196340D01*
Y196228D01*
Y196115D01*
X327408D01*
Y196003D01*
Y195891D01*
Y195779D01*
Y195667D01*
X327296D01*
Y195555D01*
Y195443D01*
Y195330D01*
Y195218D01*
Y195106D01*
X327184D01*
Y194994D01*
Y194882D01*
Y194770D01*
X329875D01*
Y194882D01*
X330211D01*
Y194994D01*
X330435D01*
Y195106D01*
X330548D01*
Y195218D01*
X330660D01*
Y195330D01*
X330772D01*
Y195443D01*
X330884D01*
Y195555D01*
X330996D01*
Y195667D01*
Y195779D01*
X331108D01*
Y195891D01*
Y196003D01*
Y196115D01*
X331220D01*
Y196228D01*
Y196340D01*
Y196452D01*
Y196564D01*
Y196676D01*
Y196788D01*
X331108D01*
Y196900D01*
Y197012D01*
X330996D01*
Y197125D01*
Y197237D01*
X330884D01*
Y197349D01*
X330772D01*
Y197461D01*
X330548D01*
Y197573D01*
X330323D01*
Y197685D01*
D02*
G37*
G36*
X297581D02*
X295114D01*
Y197573D01*
Y197461D01*
Y197349D01*
Y197237D01*
X295001D01*
Y197125D01*
Y197012D01*
Y196900D01*
Y196788D01*
Y196676D01*
X294889D01*
Y196564D01*
Y196452D01*
Y196340D01*
Y196228D01*
X294777D01*
Y196115D01*
Y196003D01*
Y195891D01*
Y195779D01*
Y195667D01*
X294665D01*
Y195555D01*
Y195443D01*
Y195330D01*
Y195218D01*
X294553D01*
Y195106D01*
Y194994D01*
Y194882D01*
Y194770D01*
X297244D01*
Y194882D01*
X297581D01*
Y194994D01*
X297805D01*
Y195106D01*
X297917D01*
Y195218D01*
X298141D01*
Y195330D01*
Y195443D01*
X298253D01*
Y195555D01*
X298365D01*
Y195667D01*
Y195779D01*
X298478D01*
Y195891D01*
Y196003D01*
Y196115D01*
X298590D01*
Y196228D01*
Y196340D01*
Y196452D01*
Y196564D01*
Y196676D01*
X298478D01*
Y196788D01*
Y196900D01*
Y197012D01*
X298365D01*
Y197125D01*
X298253D01*
Y197237D01*
X298141D01*
Y197349D01*
X298029D01*
Y197461D01*
X297917D01*
Y197573D01*
X297581D01*
Y197685D01*
D02*
G37*
G36*
X273920Y197573D02*
X273696D01*
Y197461D01*
Y197349D01*
X273584D01*
Y197237D01*
Y197125D01*
X273472D01*
Y197012D01*
X273360D01*
Y196900D01*
Y196788D01*
X273248D01*
Y196676D01*
Y196564D01*
X273135D01*
Y196452D01*
X273023D01*
Y196340D01*
Y196228D01*
X272911D01*
Y196115D01*
Y196003D01*
X272799D01*
Y195891D01*
Y195779D01*
X272687D01*
Y195667D01*
X272575D01*
Y195555D01*
Y195443D01*
X272463D01*
Y195330D01*
Y195218D01*
X272351D01*
Y195106D01*
X272238D01*
Y194994D01*
Y194882D01*
X272126D01*
Y194770D01*
Y194658D01*
X272014D01*
Y194545D01*
X271902D01*
Y194433D01*
Y194321D01*
X271790D01*
Y194209D01*
Y194097D01*
X271678D01*
Y193985D01*
X271566D01*
Y193873D01*
Y193761D01*
X271453D01*
Y193648D01*
Y193536D01*
X271341D01*
Y193424D01*
X271229D01*
Y193312D01*
Y193200D01*
Y193088D01*
X274593D01*
Y193200D01*
Y193312D01*
Y193424D01*
X274481D01*
Y193536D01*
Y193648D01*
Y193761D01*
Y193873D01*
Y193985D01*
Y194097D01*
Y194209D01*
X274369D01*
Y194321D01*
Y194433D01*
Y194545D01*
Y194658D01*
Y194770D01*
Y194882D01*
X274257D01*
Y194994D01*
Y195106D01*
Y195218D01*
Y195330D01*
Y195443D01*
Y195555D01*
X274145D01*
Y195667D01*
Y195779D01*
Y195891D01*
Y196003D01*
Y196115D01*
Y196228D01*
Y196340D01*
X274032D01*
Y196452D01*
Y196564D01*
Y196676D01*
Y196788D01*
Y196900D01*
Y197012D01*
X273920D01*
Y197125D01*
Y197237D01*
Y197349D01*
Y197461D01*
Y197573D01*
D02*
G37*
%LPD*%
D10*
X462985Y281799D02*
X462276Y282509D01*
X461566Y281799D01*
X462276Y281089D01*
X462985Y281799D01*
X451434Y327701D02*
X450724Y328411D01*
X450015Y327701D01*
X450724Y326991D01*
X451434Y327701D01*
X465729Y232126D02*
X465020Y232836D01*
X464310Y232126D01*
X465020Y231416D01*
X465729Y232126D01*
X462485Y332299D02*
X461776Y333009D01*
X461066Y332299D01*
X461776Y331590D01*
X462485Y332299D01*
X451434Y377701D02*
X450724Y378411D01*
X450015Y377701D01*
X450724Y376991D01*
X451434Y377701D01*
X451934Y277701D02*
X451224Y278411D01*
X450515Y277701D01*
X451224Y276991D01*
X451934Y277701D01*
D11*
X347236Y297291D02*
X346498Y297717D01*
Y296865D01*
X347236Y297291D01*
D12*
X368500Y378500D02*
Y388500D01*
X338500Y378500D02*
X368500D01*
X338500D02*
Y388500D01*
X368500D01*
X279646Y209567D02*
Y219567D01*
X299646D01*
Y209567D02*
Y219567D01*
X279646Y209567D02*
X299646D01*
X341339Y238878D02*
X342126D01*
X341339Y241437D02*
X342126D01*
X328346Y238878D02*
X329134D01*
X328346Y241437D02*
X329134D01*
X429134Y284350D02*
X433858D01*
X429134Y294390D02*
X433858D01*
X431496Y241634D02*
X436221D01*
X431496Y231594D02*
X436221D01*
X427953Y332776D02*
X432677D01*
X427953Y342815D02*
X432677D01*
X341634Y252067D02*
X346358D01*
X341634Y262106D02*
X346358D01*
X341339Y275886D02*
X346063D01*
X341339Y265846D02*
X346063D01*
X488000Y256000D02*
X519500D01*
Y318000D01*
X488000D02*
X519500D01*
X488000Y256000D02*
Y318000D01*
X250000Y389500D02*
X270000D01*
X250000Y209500D02*
X270000D01*
X250000D02*
Y389500D01*
X270000Y209500D02*
Y389500D01*
X480807Y387500D02*
Y391191D01*
X485679Y396063D01*
X480807Y374163D02*
X485679Y369291D01*
X480807Y374163D02*
Y377854D01*
X485679Y396063D02*
X507579D01*
Y387500D02*
Y396063D01*
Y369291D02*
Y377854D01*
X485679Y369291D02*
X507579D01*
X359252Y354626D02*
X359646D01*
X359252Y350098D02*
X359646D01*
X385803Y339264D02*
X386197D01*
X385803Y334736D02*
X386197D01*
X486162Y213293D02*
X508061D01*
Y221855D01*
Y231501D02*
Y240064D01*
X486162D02*
X508061D01*
X481289Y218165D02*
Y221855D01*
Y218165D02*
X486162Y213293D01*
X481289Y235192D02*
X486162Y240064D01*
X481289Y231501D02*
Y235192D01*
X487000Y322000D02*
X487500D01*
X487000D02*
Y364500D01*
X519000D01*
Y322000D02*
Y364500D01*
X487500Y322000D02*
X519000D01*
X388264Y297303D02*
Y297697D01*
X383736Y297303D02*
Y297697D01*
X370303Y288236D02*
X370697D01*
X370303Y292764D02*
X370697D01*
X344685Y249114D02*
X345079D01*
X344685Y244587D02*
X345079D01*
X289606Y223721D02*
X290394D01*
X289606Y226279D02*
X290394D01*
X289858Y234780D02*
X290646D01*
X289858Y232221D02*
X290646D01*
X290106Y243280D02*
X290894D01*
X290106Y240721D02*
X290894D01*
X290106Y248721D02*
X290894D01*
X290106Y251279D02*
X290894D01*
X290106Y260279D02*
X290894D01*
X290106Y257720D02*
X290894D01*
X290106Y266220D02*
X290894D01*
X290106Y268779D02*
X290894D01*
X329232Y317815D02*
X329626D01*
X329232Y322342D02*
X329626D01*
X354720Y337106D02*
Y337894D01*
X357279Y337106D02*
Y337894D01*
X360221Y336606D02*
Y337394D01*
X362779Y336606D02*
Y337394D01*
X348236Y284303D02*
Y284697D01*
X352764Y284303D02*
Y284697D01*
X341764Y294303D02*
Y294697D01*
X337236Y294303D02*
Y294697D01*
D13*
X477264Y371457D02*
X480413D01*
X478839Y369882D02*
Y373031D01*
X479321Y213883D02*
Y217033D01*
X477746Y215458D02*
X480896D01*
X340432Y191157D02*
X336433D01*
X340432Y195156D01*
Y196156D01*
X339432Y197155D01*
X337433D01*
X336433Y196156D01*
X342431D02*
X343431Y197155D01*
X345430D01*
X346430Y196156D01*
Y192157D01*
X345430Y191157D01*
X343431D01*
X342431Y192157D01*
Y196156D01*
X352428Y191157D02*
X348429D01*
X352428Y195156D01*
Y196156D01*
X351428Y197155D01*
X349429D01*
X348429Y196156D01*
X354427Y191157D02*
X356427D01*
X355427D01*
Y197155D01*
X354427Y196156D01*
X359426Y194157D02*
X363424D01*
X365424Y196156D02*
X366423Y197155D01*
X368423D01*
X369422Y196156D01*
Y192157D01*
X368423Y191157D01*
X366423D01*
X365424Y192157D01*
Y196156D01*
X371422D02*
X372421Y197155D01*
X374421D01*
X375420Y196156D01*
Y195156D01*
X374421Y194157D01*
X375420Y193157D01*
Y192157D01*
X374421Y191157D01*
X372421D01*
X371422Y192157D01*
Y193157D01*
X372421Y194157D01*
X371422Y195156D01*
Y196156D01*
X372421Y194157D02*
X374421D01*
X377420D02*
X381418D01*
X383418Y196156D02*
X384418Y197155D01*
X386417D01*
X387417Y196156D01*
Y192157D01*
X386417Y191157D01*
X384418D01*
X383418Y192157D01*
Y196156D01*
X389416D02*
X390416Y197155D01*
X392415D01*
X393415Y196156D01*
Y195156D01*
X392415Y194157D01*
X393415Y193157D01*
Y192157D01*
X392415Y191157D01*
X390416D01*
X389416Y192157D01*
Y193157D01*
X390416Y194157D01*
X389416Y195156D01*
Y196156D01*
X390416Y194157D02*
X392415D01*
X248638Y187344D02*
X252637D01*
X250637D01*
Y181346D01*
X257635D02*
X255635D01*
X254636Y182345D01*
Y184345D01*
X255635Y185345D01*
X257635D01*
X258635Y184345D01*
Y183345D01*
X254636D01*
X260634Y181346D02*
X263633D01*
X264633Y182345D01*
X263633Y183345D01*
X261634D01*
X260634Y184345D01*
X261634Y185345D01*
X264633D01*
X267632Y186344D02*
Y185345D01*
X266632D01*
X268631D01*
X267632D01*
Y182345D01*
X268631Y181346D01*
X277628D02*
Y187344D01*
X280627D01*
X281627Y186344D01*
Y184345D01*
X280627Y183345D01*
X277628D01*
X279628D02*
X281627Y181346D01*
X283627D02*
X285626D01*
X284626D01*
Y185345D01*
X283627D01*
X290624Y179347D02*
X291624D01*
X292624Y180346D01*
Y185345D01*
X289625D01*
X288625Y184345D01*
Y182345D01*
X289625Y181346D01*
X292624D01*
X300621D02*
Y187344D01*
X303620D01*
X304620Y186344D01*
Y184345D01*
X303620Y183345D01*
X300621D01*
X307619Y181346D02*
X309618D01*
X310618Y182345D01*
Y184345D01*
X309618Y185345D01*
X307619D01*
X306619Y184345D01*
Y182345D01*
X307619Y181346D01*
X312617Y185345D02*
Y182345D01*
X313617Y181346D01*
X314616Y182345D01*
X315616Y181346D01*
X316616Y182345D01*
Y185345D01*
X321614Y181346D02*
X319615D01*
X318615Y182345D01*
Y184345D01*
X319615Y185345D01*
X321614D01*
X322614Y184345D01*
Y183345D01*
X318615D01*
X324613Y185345D02*
Y181346D01*
Y183345D01*
X325613Y184345D01*
X326613Y185345D01*
X327612D01*
X336609Y187344D02*
Y181346D01*
X339608D01*
X340608Y182345D01*
Y183345D01*
X339608Y184345D01*
X336609D01*
X339608D01*
X340608Y185345D01*
Y186344D01*
X339608Y187344D01*
X336609D01*
X343607Y181346D02*
X345606D01*
X346606Y182345D01*
Y184345D01*
X345606Y185345D01*
X343607D01*
X342607Y184345D01*
Y182345D01*
X343607Y181346D01*
X349605Y185345D02*
X351605D01*
X352604Y184345D01*
Y181346D01*
X349605D01*
X348605Y182345D01*
X349605Y183345D01*
X352604D01*
X354604Y185345D02*
Y181346D01*
Y183345D01*
X355603Y184345D01*
X356603Y185345D01*
X357603D01*
X364600Y187344D02*
Y181346D01*
X361601D01*
X360602Y182345D01*
Y184345D01*
X361601Y185345D01*
X364600D01*
X372598Y181346D02*
Y187344D01*
X375597D01*
X376596Y186344D01*
Y184345D01*
X375597Y183345D01*
X372598D01*
X374597D02*
X376596Y181346D01*
X381595D02*
X379595D01*
X378596Y182345D01*
Y184345D01*
X379595Y185345D01*
X381595D01*
X382594Y184345D01*
Y183345D01*
X378596D01*
X384594Y185345D02*
X386593Y181346D01*
X388593Y185345D01*
X390592Y181346D02*
Y182345D01*
X391592D01*
Y181346D01*
X390592D01*
X395590D02*
X397590D01*
X396590D01*
Y187344D01*
X395590Y186344D01*
D14*
X293006Y206941D02*
X292456Y207491D01*
X291357D01*
X290807Y206941D01*
Y204743D01*
X291357Y204193D01*
X292456D01*
X293006Y204743D01*
Y205842D01*
X291906D01*
X294105Y204193D02*
Y207491D01*
X296304Y204193D01*
Y207491D01*
X297403D02*
Y204193D01*
X299052D01*
X299602Y204743D01*
Y206941D01*
X299052Y207491D01*
X297403D01*
X283557D02*
X281358D01*
Y205842D01*
X282458Y206392D01*
X283007D01*
X283557Y205842D01*
Y204743D01*
X283007Y204193D01*
X281908D01*
X281358Y204743D01*
X284656Y207491D02*
Y205292D01*
X285756Y204193D01*
X286855Y205292D01*
Y207491D01*
X482429Y353242D02*
X481879Y352692D01*
Y351593D01*
X482429Y351043D01*
X484627D01*
X485177Y351593D01*
Y352692D01*
X484627Y353242D01*
X483528D01*
Y352143D01*
X485177Y354341D02*
X481879D01*
X485177Y356540D01*
X481879D01*
Y357640D02*
X485177D01*
Y359289D01*
X484627Y359838D01*
X482429D01*
X481879Y359289D01*
Y357640D01*
X481879Y325453D02*
X484078D01*
X485177Y326552D01*
X484078Y327652D01*
X481879D01*
Y328751D02*
X485177D01*
Y330400D01*
X484627Y330950D01*
X484078D01*
X483528Y330400D01*
Y328751D01*
Y330400D01*
X482978Y330950D01*
X482429D01*
X481879Y330400D01*
Y328751D01*
X485177Y332049D02*
X482978D01*
X481879Y333148D01*
X482978Y334248D01*
X485177D01*
X483528D01*
Y332049D01*
X481879Y335347D02*
Y337546D01*
Y336446D01*
X485177D01*
X481879Y338645D02*
Y340844D01*
Y339745D01*
X485177D01*
X485964Y266004D02*
X483766D01*
X482666Y267103D01*
X483766Y268203D01*
X485964D01*
X484315D01*
Y266004D01*
X482666Y286083D02*
X485964D01*
Y287732D01*
X485415Y288281D01*
X484865D01*
X484315Y287732D01*
Y286083D01*
Y287732D01*
X483766Y288281D01*
X483216D01*
X482666Y287732D01*
Y286083D01*
X483216Y308360D02*
X482666Y307810D01*
Y306711D01*
X483216Y306161D01*
X485415D01*
X485964Y306711D01*
Y307810D01*
X485415Y308360D01*
X256500Y206699D02*
Y204500D01*
X254301Y206699D01*
X253751D01*
X253202Y206149D01*
Y205050D01*
X253751Y204500D01*
X266500D02*
Y205599D01*
Y205050D01*
X263202D01*
X263752Y204500D01*
X264181Y391339D02*
X263631Y391888D01*
Y392988D01*
X264181Y393537D01*
X264730D01*
X265280Y392988D01*
Y392438D01*
Y392988D01*
X265830Y393537D01*
X266379D01*
X266929Y392988D01*
Y391888D01*
X266379Y391339D01*
X263631Y396835D02*
Y394637D01*
X265280D01*
X264730Y395736D01*
Y396286D01*
X265280Y396835D01*
X266379D01*
X266929Y396286D01*
Y395186D01*
X266379Y394637D01*
X253944Y391339D02*
X253395Y391888D01*
Y392988D01*
X253944Y393537D01*
X254494D01*
X255044Y392988D01*
Y392438D01*
Y392988D01*
X255593Y393537D01*
X256143D01*
X256693Y392988D01*
Y391888D01*
X256143Y391339D01*
X253395Y396835D02*
X253944Y395736D01*
X255044Y394637D01*
X256143D01*
X256693Y395186D01*
Y396286D01*
X256143Y396835D01*
X255593D01*
X255044Y396286D01*
Y394637D01*
X328391Y261729D02*
X327841Y262279D01*
X326742D01*
X326192Y261729D01*
Y259530D01*
X326742Y258981D01*
X327841D01*
X328391Y259530D01*
X329490Y258981D02*
X330590D01*
X330040D01*
Y262279D01*
X329490Y261729D01*
X334438Y262279D02*
X332239D01*
Y260630D01*
X333338Y261180D01*
X333888D01*
X334438Y260630D01*
Y259530D01*
X333888Y258981D01*
X332789D01*
X332239Y259530D01*
X272426Y386688D02*
X274625D01*
X273526D01*
Y383390D01*
X275724D02*
Y386688D01*
X277373D01*
X277923Y386139D01*
Y385039D01*
X277373Y384490D01*
X275724D01*
X279023Y386688D02*
X280122D01*
X279572D01*
Y383390D01*
X279023D01*
X280122D01*
X281771D02*
Y386688D01*
X283970Y383390D01*
Y386688D01*
X285069D02*
Y383390D01*
Y385039D01*
X287268D01*
Y386688D01*
Y383390D01*
X290566Y386139D02*
X290016Y386688D01*
X288917D01*
X288367Y386139D01*
Y383940D01*
X288917Y383390D01*
X290016D01*
X290566Y383940D01*
X399072Y339051D02*
X401270D01*
X400171D01*
Y335753D01*
X402370D02*
Y339051D01*
X404019D01*
X404568Y338501D01*
Y337402D01*
X404019Y336852D01*
X402370D01*
X407867Y336302D02*
Y338501D01*
X407317Y339051D01*
X406217D01*
X405668Y338501D01*
Y336302D01*
X406217Y335753D01*
X407317D01*
X406767Y336852D02*
X407867Y335753D01*
X407317D02*
X407867Y336302D01*
X411165Y339051D02*
X410065Y338501D01*
X408966Y337402D01*
Y336302D01*
X409516Y335753D01*
X410615D01*
X411165Y336302D01*
Y336852D01*
X410615Y337402D01*
X408966D01*
X389229Y323696D02*
X391428D01*
X390328D01*
Y320398D01*
X392527D02*
Y323696D01*
X394176D01*
X394726Y323147D01*
Y322047D01*
X394176Y321498D01*
X392527D01*
X398024Y320948D02*
Y323147D01*
X397474Y323696D01*
X396375D01*
X395825Y323147D01*
Y320948D01*
X396375Y320398D01*
X397474D01*
X396925Y321498D02*
X398024Y320398D01*
X397474D02*
X398024Y320948D01*
X401322Y323696D02*
X399123D01*
Y322047D01*
X400223Y322597D01*
X400772D01*
X401322Y322047D01*
Y320948D01*
X400772Y320398D01*
X399673D01*
X399123Y320948D01*
X388835Y306767D02*
X391034D01*
X389935D01*
Y303469D01*
X392133D02*
Y306767D01*
X393782D01*
X394332Y306218D01*
Y305118D01*
X393782Y304568D01*
X392133D01*
X397630Y304019D02*
Y306218D01*
X397081Y306767D01*
X395981D01*
X395432Y306218D01*
Y304019D01*
X395981Y303469D01*
X397081D01*
X396531Y304568D02*
X397630Y303469D01*
X397081D02*
X397630Y304019D01*
X400379Y303469D02*
Y306767D01*
X398730Y305118D01*
X400928D01*
X407131Y333145D02*
X409329D01*
X408230D01*
Y329847D01*
X410429D02*
Y333145D01*
X412078D01*
X412628Y332595D01*
Y331496D01*
X412078Y330946D01*
X410429D01*
X415926Y330397D02*
Y332595D01*
X415376Y333145D01*
X414277D01*
X413727Y332595D01*
Y330397D01*
X414277Y329847D01*
X415376D01*
X414826Y330946D02*
X415926Y329847D01*
X415376D02*
X415926Y330397D01*
X417025Y332595D02*
X417575Y333145D01*
X418674D01*
X419224Y332595D01*
Y332046D01*
X418674Y331496D01*
X418124D01*
X418674D01*
X419224Y330946D01*
Y330397D01*
X418674Y329847D01*
X417575D01*
X417025Y330397D01*
X376237Y269759D02*
X378436D01*
X377336D01*
Y266461D01*
X379535D02*
Y269759D01*
X381184D01*
X381734Y269210D01*
Y268110D01*
X381184Y267561D01*
X379535D01*
X385032Y267011D02*
Y269210D01*
X384482Y269759D01*
X383383D01*
X382833Y269210D01*
Y267011D01*
X383383Y266461D01*
X384482D01*
X383932Y267561D02*
X385032Y266461D01*
X384482D02*
X385032Y267011D01*
X388330Y266461D02*
X386131D01*
X388330Y268660D01*
Y269210D01*
X387780Y269759D01*
X386681D01*
X386131Y269210D01*
X357101Y276622D02*
X359300D01*
X358201D01*
Y273323D01*
X360400D02*
Y276622D01*
X362049D01*
X362598Y276072D01*
Y274972D01*
X362049Y274423D01*
X360400D01*
X365897Y273873D02*
Y276072D01*
X365347Y276622D01*
X364247D01*
X363698Y276072D01*
Y273873D01*
X364247Y273323D01*
X365347D01*
X364797Y274423D02*
X365897Y273323D01*
X365347D02*
X365897Y273873D01*
X366996Y273323D02*
X368095D01*
X367546D01*
Y276622D01*
X366996Y276072D01*
X298410Y309129D02*
X300609D01*
X299510D01*
Y305831D01*
X301709D02*
Y309129D01*
X303358D01*
X303907Y308580D01*
Y307480D01*
X303358Y306931D01*
X301709D01*
X305007Y309129D02*
X306106D01*
X305556D01*
Y305831D01*
X305007D01*
X306106D01*
X307755D02*
Y309129D01*
X309954Y305831D01*
Y309129D01*
X311053D02*
Y305831D01*
X313252D01*
X316550Y308580D02*
X316001Y309129D01*
X314901D01*
X314352Y308580D01*
Y306381D01*
X314901Y305831D01*
X316001D01*
X316550Y306381D01*
X279907Y323696D02*
X282105D01*
X281006D01*
Y320398D01*
X283205D02*
Y323696D01*
X284854D01*
X285403Y323147D01*
Y322047D01*
X284854Y321498D01*
X283205D01*
X286503Y323696D02*
X287602D01*
X287052D01*
Y320398D01*
X286503D01*
X287602D01*
X289251D02*
Y323696D01*
X291450Y320398D01*
Y323696D01*
X292549D02*
Y320398D01*
X294748D01*
X295848Y323696D02*
Y320398D01*
X297497D01*
X298046Y320948D01*
Y321498D01*
X297497Y322047D01*
X295848D01*
X297497D01*
X298046Y322597D01*
Y323147D01*
X297497Y323696D01*
X295848D01*
X275182Y340626D02*
X277381D01*
X276281D01*
Y337327D01*
X278480D02*
Y340626D01*
X280129D01*
X280679Y340076D01*
Y338976D01*
X280129Y338427D01*
X278480D01*
X281778Y340626D02*
X282878D01*
X282328D01*
Y337327D01*
X281778D01*
X282878D01*
X284527D02*
Y340626D01*
X286726Y337327D01*
Y340626D01*
X287825D02*
Y337327D01*
X290024D01*
X291123D02*
Y339526D01*
X292222Y340626D01*
X293322Y339526D01*
Y337327D01*
Y338976D01*
X291123D01*
X275576Y362279D02*
X277775D01*
X276675D01*
Y358981D01*
X278874D02*
Y362279D01*
X280523D01*
X281073Y361729D01*
Y360630D01*
X280523Y360080D01*
X278874D01*
X282172Y362279D02*
X283272D01*
X282722D01*
Y358981D01*
X282172D01*
X283272D01*
X284921D02*
Y362279D01*
X287119Y358981D01*
Y362279D01*
X288219D02*
Y358981D01*
Y360630D01*
X290417D01*
Y362279D01*
Y358981D01*
X291517Y362279D02*
Y358981D01*
X293166D01*
X293716Y359530D01*
Y360080D01*
X293166Y360630D01*
X291517D01*
X293166D01*
X293716Y361180D01*
Y361729D01*
X293166Y362279D01*
X291517D01*
X296442Y328814D02*
X298641D01*
X297541D01*
Y325516D01*
X299740D02*
Y328814D01*
X301389D01*
X301939Y328265D01*
Y327165D01*
X301389Y326616D01*
X299740D01*
X303038Y328814D02*
X304138D01*
X303588D01*
Y325516D01*
X303038D01*
X304138D01*
X305787D02*
Y328814D01*
X307985Y325516D01*
Y328814D01*
X309085D02*
Y325516D01*
Y327165D01*
X311284D01*
Y328814D01*
Y325516D01*
X312383D02*
Y327715D01*
X313482Y328814D01*
X314582Y327715D01*
Y325516D01*
Y327165D01*
X312383D01*
X279661Y296925D02*
X281860D01*
X280761D01*
Y293626D01*
X282960D02*
Y296925D01*
X284609D01*
X285158Y296375D01*
Y295276D01*
X284609Y294726D01*
X282960D01*
X286258Y296925D02*
X287357D01*
X286807D01*
Y293626D01*
X286258D01*
X287357D01*
X291205Y296375D02*
X290655Y296925D01*
X289556D01*
X289006Y296375D01*
Y294176D01*
X289556Y293626D01*
X290655D01*
X291205Y294176D01*
X368244Y350862D02*
X370443D01*
X369343D01*
Y347564D01*
X371542D02*
Y350862D01*
X373191D01*
X373741Y350312D01*
Y349213D01*
X373191Y348663D01*
X371542D01*
X374840Y350862D02*
X375940D01*
X375390D01*
Y347564D01*
X374840D01*
X375940D01*
X377589Y350862D02*
Y347564D01*
X379238D01*
X379787Y348113D01*
Y348663D01*
X379238Y349213D01*
X377589D01*
X379238D01*
X379787Y349762D01*
Y350312D01*
X379238Y350862D01*
X377589D01*
X272181Y283932D02*
X274380D01*
X273280D01*
Y280634D01*
X275479D02*
Y283932D01*
X277128D01*
X277678Y283383D01*
Y282283D01*
X277128Y281734D01*
X275479D01*
X278777Y283932D02*
X279877D01*
X279327D01*
Y280634D01*
X278777D01*
X279877D01*
X281526D02*
Y282833D01*
X282625Y283932D01*
X283724Y282833D01*
Y280634D01*
Y282283D01*
X281526D01*
X487409Y250319D02*
Y253618D01*
X489058D01*
X489608Y253068D01*
Y251969D01*
X489058Y251419D01*
X487409D01*
X492906Y253618D02*
X490707D01*
Y251969D01*
X491807Y252518D01*
X492356D01*
X492906Y251969D01*
Y250869D01*
X492356Y250319D01*
X491257D01*
X490707Y250869D01*
X512212Y366461D02*
Y369759D01*
X513861D01*
X514411Y369210D01*
Y368110D01*
X513861Y367561D01*
X512212D01*
X517159Y366461D02*
Y369759D01*
X515510Y368110D01*
X517709D01*
X272055Y216068D02*
Y219366D01*
X273704D01*
X274254Y218816D01*
Y217717D01*
X273704Y217167D01*
X272055D01*
X275353Y218816D02*
X275903Y219366D01*
X277002D01*
X277552Y218816D01*
Y218266D01*
X277002Y217717D01*
X276452D01*
X277002D01*
X277552Y217167D01*
Y216617D01*
X277002Y216068D01*
X275903D01*
X275353Y216617D01*
X271267Y391658D02*
Y394956D01*
X272916D01*
X273466Y394407D01*
Y393307D01*
X272916Y392757D01*
X271267D01*
X276764Y391658D02*
X274565D01*
X276764Y393857D01*
Y394407D01*
X276215Y394956D01*
X275115D01*
X274565Y394407D01*
X427997Y330233D02*
X427448Y330783D01*
X426348D01*
X425799Y330233D01*
Y328034D01*
X426348Y327485D01*
X427448D01*
X427997Y328034D01*
X429097Y327485D02*
X430196D01*
X429646D01*
Y330783D01*
X429097Y330233D01*
X433494Y327485D02*
Y330783D01*
X431845Y329134D01*
X434044D01*
X279141Y248351D02*
Y251649D01*
X280790D01*
X281340Y251099D01*
Y250000D01*
X280790Y249450D01*
X279141D01*
X280241D02*
X281340Y248351D01*
X282439Y251649D02*
X284638D01*
Y251099D01*
X282439Y248901D01*
Y248351D01*
X397252Y266068D02*
Y269366D01*
X398901D01*
X399450Y268816D01*
Y267717D01*
X398901Y267167D01*
X397252D01*
X398351D02*
X399450Y266068D01*
X400550Y268816D02*
X401099Y269366D01*
X402199D01*
X402748Y268816D01*
Y268266D01*
X402199Y267717D01*
X401649D01*
X402199D01*
X402748Y267167D01*
Y266617D01*
X402199Y266068D01*
X401099D01*
X400550Y266617D01*
X279141Y240477D02*
Y243775D01*
X280790D01*
X281340Y243225D01*
Y242126D01*
X280790Y241576D01*
X279141D01*
X280241D02*
X281340Y240477D01*
X284638Y243775D02*
X283539Y243225D01*
X282439Y242126D01*
Y241027D01*
X282989Y240477D01*
X284088D01*
X284638Y241027D01*
Y241576D01*
X284088Y242126D01*
X282439D01*
X278748Y223154D02*
Y226452D01*
X280397D01*
X280946Y225903D01*
Y224803D01*
X280397Y224254D01*
X278748D01*
X279847D02*
X280946Y223154D01*
X282046Y225903D02*
X282595Y226452D01*
X283695D01*
X284244Y225903D01*
Y225353D01*
X283695Y224803D01*
X284244Y224254D01*
Y223704D01*
X283695Y223154D01*
X282595D01*
X282046Y223704D01*
Y224254D01*
X282595Y224803D01*
X282046Y225353D01*
Y225903D01*
X282595Y224803D02*
X283695D01*
X338397Y233784D02*
Y237082D01*
X340046D01*
X340596Y236532D01*
Y235433D01*
X340046Y234883D01*
X338397D01*
X339496D02*
X340596Y233784D01*
X341695D02*
X342794D01*
X342245D01*
Y237082D01*
X341695Y236532D01*
X346642Y233784D02*
X344444D01*
X346642Y235983D01*
Y236532D01*
X346093Y237082D01*
X344993D01*
X344444Y236532D01*
X405913Y374335D02*
Y377633D01*
X407562D01*
X408112Y377084D01*
Y375984D01*
X407562Y375435D01*
X405913D01*
X407012D02*
X408112Y374335D01*
X411410Y377633D02*
X409211D01*
Y375984D01*
X410311Y376534D01*
X410860D01*
X411410Y375984D01*
Y374885D01*
X410860Y374335D01*
X409761D01*
X409211Y374885D01*
X324224Y233784D02*
Y237082D01*
X325873D01*
X326423Y236532D01*
Y235433D01*
X325873Y234883D01*
X324224D01*
X325323D02*
X326423Y233784D01*
X327522D02*
X328621D01*
X328072D01*
Y237082D01*
X327522Y236532D01*
X330270D02*
X330820Y237082D01*
X331920D01*
X332469Y236532D01*
Y235983D01*
X331920Y235433D01*
X331370D01*
X331920D01*
X332469Y234883D01*
Y234334D01*
X331920Y233784D01*
X330820D01*
X330270Y234334D01*
X276192Y257406D02*
Y260704D01*
X277841D01*
X278391Y260155D01*
Y259055D01*
X277841Y258505D01*
X276192D01*
X277292D02*
X278391Y257406D01*
X279490D02*
X280590D01*
X280040D01*
Y260704D01*
X279490Y260155D01*
X282239D02*
X282789Y260704D01*
X283888D01*
X284438Y260155D01*
Y257956D01*
X283888Y257406D01*
X282789D01*
X282239Y257956D01*
Y260155D01*
X279141Y231816D02*
Y235114D01*
X280790D01*
X281340Y234564D01*
Y233465D01*
X280790Y232915D01*
X279141D01*
X280241D02*
X281340Y231816D01*
X282439Y232365D02*
X282989Y231816D01*
X284088D01*
X284638Y232365D01*
Y234564D01*
X284088Y235114D01*
X282989D01*
X282439Y234564D01*
Y234014D01*
X282989Y233465D01*
X284638D01*
X277529Y266068D02*
Y269366D01*
X279179D01*
X279728Y268816D01*
Y267717D01*
X279179Y267167D01*
X277529D01*
X278629D02*
X279728Y266068D01*
X280827D02*
X281927D01*
X281377D01*
Y269366D01*
X280827Y268816D01*
X283576Y266068D02*
X284675D01*
X284126D01*
Y269366D01*
X283576Y268816D01*
X410244Y317642D02*
Y320940D01*
X411893D01*
X412442Y320391D01*
Y319291D01*
X411893Y318742D01*
X410244D01*
X411343D02*
X412442Y317642D01*
X415191D02*
Y320940D01*
X413542Y319291D01*
X415741D01*
X443151Y330397D02*
Y332595D01*
X442601Y333145D01*
X441502D01*
X440952Y332595D01*
Y330397D01*
X441502Y329847D01*
X442601D01*
X442052Y330946D02*
X443151Y329847D01*
X442601D02*
X443151Y330397D01*
X446449Y333145D02*
X444250D01*
Y331496D01*
X445350Y332046D01*
X445899D01*
X446449Y331496D01*
Y330397D01*
X445899Y329847D01*
X444800D01*
X444250Y330397D01*
X453450Y354901D02*
Y357099D01*
X452901Y357649D01*
X451801D01*
X451252Y357099D01*
Y354901D01*
X451801Y354351D01*
X452901D01*
X452351Y355450D02*
X453450Y354351D01*
X452901D02*
X453450Y354901D01*
X456748Y357649D02*
X455649Y357099D01*
X454550Y356000D01*
Y354901D01*
X455099Y354351D01*
X456199D01*
X456748Y354901D01*
Y355450D01*
X456199Y356000D01*
X454550D01*
X437246Y299688D02*
Y301887D01*
X436696Y302436D01*
X435597D01*
X435047Y301887D01*
Y299688D01*
X435597Y299138D01*
X436696D01*
X436146Y300238D02*
X437246Y299138D01*
X436696D02*
X437246Y299688D01*
X438345Y301887D02*
X438895Y302436D01*
X439994D01*
X440544Y301887D01*
Y301337D01*
X439994Y300787D01*
X439444D01*
X439994D01*
X440544Y300238D01*
Y299688D01*
X439994Y299138D01*
X438895D01*
X438345Y299688D01*
X453950Y304401D02*
Y306599D01*
X453401Y307149D01*
X452301D01*
X451752Y306599D01*
Y304401D01*
X452301Y303851D01*
X453401D01*
X452851Y304950D02*
X453950Y303851D01*
X453401D02*
X453950Y304401D01*
X456699Y303851D02*
Y307149D01*
X455050Y305500D01*
X457248D01*
X454450Y254901D02*
Y257099D01*
X453901Y257649D01*
X452801D01*
X452252Y257099D01*
Y254901D01*
X452801Y254351D01*
X453901D01*
X453351Y255450D02*
X454450Y254351D01*
X453901D02*
X454450Y254901D01*
X457748Y254351D02*
X455550D01*
X457748Y256550D01*
Y257099D01*
X457199Y257649D01*
X456099D01*
X455550Y257099D01*
X381950Y343599D02*
X381401Y344149D01*
X380301D01*
X379751Y343599D01*
Y341401D01*
X380301Y340851D01*
X381401D01*
X381950Y341401D01*
X385248Y344149D02*
X384149Y343599D01*
X383050Y342500D01*
Y341401D01*
X383599Y340851D01*
X384699D01*
X385248Y341401D01*
Y341950D01*
X384699Y342500D01*
X383050D01*
X433309Y229052D02*
X432759Y229602D01*
X431660D01*
X431110Y229052D01*
Y226853D01*
X431660Y226304D01*
X432759D01*
X433309Y226853D01*
X434408Y229602D02*
X436607D01*
Y229052D01*
X434408Y226853D01*
Y226304D01*
X430946Y281808D02*
X430397Y282358D01*
X429297D01*
X428748Y281808D01*
Y279609D01*
X429297Y279060D01*
X430397D01*
X430946Y279609D01*
X432046Y281808D02*
X432595Y282358D01*
X433695D01*
X434244Y281808D01*
Y281258D01*
X433695Y280709D01*
X434244Y280159D01*
Y279609D01*
X433695Y279060D01*
X432595D01*
X432046Y279609D01*
Y280159D01*
X432595Y280709D01*
X432046Y281258D01*
Y281808D01*
X432595Y280709D02*
X433695D01*
X378978Y302674D02*
X378428Y303224D01*
X377329D01*
X376779Y302674D01*
Y300475D01*
X377329Y299926D01*
X378428D01*
X378978Y300475D01*
X382276Y303224D02*
X380077D01*
Y301575D01*
X381177Y302125D01*
X381726D01*
X382276Y301575D01*
Y300475D01*
X381726Y299926D01*
X380627D01*
X380077Y300475D01*
X367138Y286010D02*
X366588Y286560D01*
X365489D01*
X364939Y286010D01*
Y283811D01*
X365489Y283262D01*
X366588D01*
X367138Y283811D01*
X369887Y283262D02*
Y286560D01*
X368237Y284911D01*
X370436D01*
X476029Y241257D02*
X475479Y241807D01*
X474380D01*
X473830Y241257D01*
Y239058D01*
X474380Y238508D01*
X475479D01*
X476029Y239058D01*
X477128Y238508D02*
X478228D01*
X477678D01*
Y241807D01*
X477128Y241257D01*
X479877D02*
X480426Y241807D01*
X481526D01*
X482075Y241257D01*
Y240707D01*
X481526Y240158D01*
X480976D01*
X481526D01*
X482075Y239608D01*
Y239058D01*
X481526Y238508D01*
X480426D01*
X479877Y239058D01*
X472092Y395194D02*
X471542Y395744D01*
X470443D01*
X469893Y395194D01*
Y392995D01*
X470443Y392445D01*
X471542D01*
X472092Y392995D01*
X473191Y392445D02*
X474291D01*
X473741D01*
Y395744D01*
X473191Y395194D01*
X478138Y392445D02*
X475940D01*
X478138Y394644D01*
Y395194D01*
X477589Y395744D01*
X476489D01*
X475940Y395194D01*
X353313Y343233D02*
Y346531D01*
X354962D01*
X355512Y345981D01*
Y344882D01*
X354962Y344332D01*
X353313D01*
X354412D02*
X355512Y343233D01*
X356611D02*
X357711D01*
X357161D01*
Y346531D01*
X356611Y345981D01*
X359456Y343233D02*
Y346531D01*
X361105D01*
X361655Y345981D01*
Y344882D01*
X361105Y344332D01*
X359456D01*
X360556D02*
X361655Y343233D01*
X364953D02*
X362754D01*
X364953Y345432D01*
Y345981D01*
X364404Y346531D01*
X363304D01*
X362754Y345981D01*
X451575Y230397D02*
Y232595D01*
X451025Y233145D01*
X449926D01*
X449376Y232595D01*
Y230397D01*
X449926Y229847D01*
X451025D01*
X450475Y230946D02*
X451575Y229847D01*
X451025D02*
X451575Y230397D01*
X452674Y229847D02*
X453774D01*
X453224D01*
Y233145D01*
X452674Y232595D01*
X338352Y390477D02*
Y393775D01*
X340002D01*
X340551Y393225D01*
Y392126D01*
X340002Y391576D01*
X338352D01*
X341651Y390477D02*
X342750D01*
X342200D01*
Y393775D01*
X341651Y393225D01*
X325639Y326769D02*
X325090Y327318D01*
X323990D01*
X323441Y326769D01*
Y324570D01*
X323990Y324020D01*
X325090D01*
X325639Y324570D01*
X326739Y326769D02*
X327288Y327318D01*
X328388D01*
X328937Y326769D01*
Y326219D01*
X328388Y325669D01*
X327838D01*
X328388D01*
X328937Y325120D01*
Y324570D01*
X328388Y324020D01*
X327288D01*
X326739Y324570D01*
X344964Y325271D02*
Y322523D01*
X345513Y321973D01*
X346613D01*
X347162Y322523D01*
Y325271D01*
X343151Y285351D02*
X342601Y285901D01*
X341502D01*
X340952Y285351D01*
Y283153D01*
X341502Y282603D01*
X342601D01*
X343151Y283153D01*
X346449Y282603D02*
X344250D01*
X346449Y284802D01*
Y285351D01*
X345900Y285901D01*
X344800D01*
X344250Y285351D01*
X333272Y248737D02*
X332722Y249287D01*
X331622D01*
X331073Y248737D01*
Y246538D01*
X331622Y245989D01*
X332722D01*
X333272Y246538D01*
X334371Y245989D02*
X335470D01*
X334921D01*
Y249287D01*
X334371Y248737D01*
X337119Y245989D02*
X338219D01*
X337669D01*
Y249287D01*
X337119Y248737D01*
X355698Y359080D02*
X355149Y359629D01*
X354049D01*
X353500Y359080D01*
Y356881D01*
X354049Y356331D01*
X355149D01*
X355698Y356881D01*
X356798D02*
X357347Y356331D01*
X358447D01*
X358997Y356881D01*
Y359080D01*
X358447Y359629D01*
X357347D01*
X356798Y359080D01*
Y358530D01*
X357347Y357980D01*
X358997D01*
X328391Y275903D02*
X327841Y276452D01*
X326742D01*
X326192Y275903D01*
Y273704D01*
X326742Y273154D01*
X327841D01*
X328391Y273704D01*
X329490Y273154D02*
X330590D01*
X330040D01*
Y276452D01*
X329490Y275903D01*
X332239D02*
X332789Y276452D01*
X333888D01*
X334438Y275903D01*
Y273704D01*
X333888Y273154D01*
X332789D01*
X332239Y273704D01*
Y275903D01*
X333071Y299131D02*
X332521Y299681D01*
X331422D01*
X330872Y299131D01*
Y296932D01*
X331422Y296382D01*
X332521D01*
X333071Y296932D01*
X334170Y296382D02*
X335270D01*
X334720D01*
Y299681D01*
X334170Y299131D01*
M02*
