G04*
G04 #@! TF.GenerationSoftware,Altium Limited,Altium Designer,21.6.1 (37)*
G04*
G04 Layer_Color=16711935*
%FSLAX25Y25*%
%MOIN*%
G70*
G04*
G04 #@! TF.SameCoordinates,18844971-8FF4-41C5-970B-CDA0927229B8*
G04*
G04*
G04 #@! TF.FilePolarity,Positive*
G04*
G01*
G75*
%ADD59C,0.00394*%
D59*
X346744Y298768D02*
Y322390D01*
X370366D01*
Y298768D02*
Y322390D01*
X346744Y298768D02*
X370366D01*
X346744Y300736D02*
X348713Y298768D01*
X344882Y238583D02*
Y241732D01*
X338583Y238583D02*
Y241732D01*
Y238583D02*
X344882D01*
X338583Y241732D02*
X344882D01*
X331890Y238583D02*
Y241732D01*
X325590Y238583D02*
Y241732D01*
Y238583D02*
X331890D01*
X325590Y241732D02*
X331890D01*
X425000Y284252D02*
X437992D01*
X425000Y294488D02*
X437992D01*
Y284252D02*
Y294488D01*
X425000Y284252D02*
Y294488D01*
X427362Y241732D02*
X440354D01*
X427362Y231496D02*
X440354D01*
X427362D02*
Y241732D01*
X440354Y231496D02*
Y241732D01*
X423819Y332677D02*
X436811D01*
X423819Y342913D02*
X436811D01*
Y332677D02*
Y342913D01*
X423819Y332677D02*
Y342913D01*
X337500Y251969D02*
X350492D01*
X337500Y262205D02*
X350492D01*
Y251969D02*
Y262205D01*
X337500Y251969D02*
Y262205D01*
X337205Y275984D02*
X350197D01*
X337205Y265748D02*
X350197D01*
X337205D02*
Y275984D01*
X350197Y265748D02*
Y275984D01*
X480807Y391191D02*
X485679Y396063D01*
X507579D01*
Y369291D02*
Y396063D01*
X485679Y369291D02*
X507579D01*
X480807Y374163D02*
X485679Y369291D01*
X480807Y374163D02*
Y391191D01*
X355512Y354724D02*
X363386D01*
X355512Y350000D02*
X363386D01*
X355512D02*
Y354724D01*
X363386Y350000D02*
Y354724D01*
X382063Y334638D02*
Y339362D01*
X389937Y334638D02*
Y339362D01*
X382063D02*
X389937D01*
X382063Y334638D02*
X389937D01*
X481289Y218165D02*
Y235192D01*
Y218165D02*
X486162Y213293D01*
X508061D01*
Y240064D01*
X486162D02*
X508061D01*
X481289Y235192D02*
X486162Y240064D01*
X388362Y293563D02*
Y301437D01*
X383638Y293563D02*
Y301437D01*
X388362D01*
X383638Y293563D02*
X388362D01*
X374437Y288138D02*
Y292862D01*
X366563Y288138D02*
Y292862D01*
Y288138D02*
X374437D01*
X366563Y292862D02*
X374437D01*
X340945Y249213D02*
X348819D01*
X340945Y244488D02*
X348819D01*
X340945D02*
Y249213D01*
X348819Y244488D02*
Y249213D01*
X293150Y223425D02*
Y226575D01*
X286850Y223425D02*
Y226575D01*
Y223425D02*
X293150D01*
X286850Y226575D02*
X293150D01*
X287102Y231925D02*
Y235075D01*
X293402Y231925D02*
Y235075D01*
X287102D02*
X293402D01*
X287102Y231925D02*
X293402D01*
X287350Y243575D02*
X293650D01*
X287350Y240425D02*
X293650D01*
X287350D02*
Y243575D01*
X293650Y240425D02*
Y243575D01*
X287350Y248425D02*
X293650D01*
X287350Y251575D02*
X293650D01*
Y248425D02*
Y251575D01*
X287350Y248425D02*
Y251575D01*
X287350Y260575D02*
X293650D01*
X287350Y257425D02*
X293650D01*
X287350D02*
Y260575D01*
X293650Y257425D02*
Y260575D01*
X287350Y265925D02*
X293650D01*
X287350Y269075D02*
X293650D01*
Y265925D02*
Y269075D01*
X287350Y265925D02*
Y269075D01*
X325492Y317717D02*
X333366D01*
X325492Y322441D02*
X333366D01*
Y317717D02*
Y322441D01*
X325492Y317717D02*
Y322441D01*
X354425Y334350D02*
X357575D01*
X354425Y340650D02*
X357575D01*
X354425Y334350D02*
Y340650D01*
X357575Y334350D02*
Y340650D01*
X359925Y333850D02*
X363075D01*
X359925Y340150D02*
X363075D01*
X359925Y333850D02*
Y340150D01*
X363075Y333850D02*
Y340150D01*
X348138Y280563D02*
Y288437D01*
X352862Y280563D02*
Y288437D01*
X348138Y280563D02*
X352862D01*
X348138Y288437D02*
X352862D01*
X341862Y290563D02*
Y298437D01*
X337138Y290563D02*
Y298437D01*
X341862D01*
X337138Y290563D02*
X341862D01*
M02*
