G04*
G04 #@! TF.GenerationSoftware,Altium Limited,Altium Designer,20.1.11 (218)*
G04*
G04 Layer_Color=65535*
%FSLAX25Y25*%
%MOIN*%
G70*
G04*
G04 #@! TF.SameCoordinates,771CE6F3-DBCC-4900-95A1-F469B71700FF*
G04*
G04*
G04 #@! TF.FilePolarity,Positive*
G04*
G01*
G75*
%ADD10C,0.00984*%
%ADD11C,0.00787*%
%ADD12C,0.00700*%
D10*
X159579Y132413D02*
X158841Y132840D01*
Y131987D01*
X159579Y132413D01*
D11*
X142067Y126516D02*
Y128484D01*
X137933Y126516D02*
Y128484D01*
X157905Y125031D02*
Y128969D01*
X146095Y125031D02*
Y128969D01*
X157905D01*
X146095Y125031D02*
X157905D01*
X167264Y124803D02*
Y125197D01*
X162736Y124803D02*
Y125197D01*
X122500Y120000D02*
X132500D01*
X122500D02*
Y140000D01*
X132500D01*
Y120000D02*
Y140000D01*
X172500Y110000D02*
X182500D01*
X172500D02*
Y140000D01*
X182500D01*
Y110000D02*
Y140000D01*
D12*
X118200Y134366D02*
X120533D01*
X119366Y135533D02*
Y133200D01*
X183371Y121420D02*
Y120254D01*
X183955Y119671D01*
X186287D01*
X186870Y120254D01*
Y121420D01*
X186287Y122003D01*
X183955D01*
X183371Y121420D01*
Y123170D02*
X186287D01*
X186870Y123753D01*
Y124919D01*
X186287Y125502D01*
X183371D01*
Y126668D02*
Y129001D01*
Y127835D01*
X186870D01*
X183301Y113033D02*
Y110700D01*
X185051D01*
X184467Y111866D01*
Y112449D01*
X185051Y113033D01*
X186217D01*
X186800Y112449D01*
Y111283D01*
X186217Y110700D01*
X183301Y114199D02*
X185634D01*
X186800Y115365D01*
X185634Y116531D01*
X183301D01*
X183884Y133033D02*
X183301Y132449D01*
Y131283D01*
X183884Y130700D01*
X186217D01*
X186800Y131283D01*
Y132449D01*
X186217Y133033D01*
X185051D01*
Y131866D01*
X186800Y134199D02*
X183301D01*
X186800Y136531D01*
X183301D01*
Y137698D02*
X186800D01*
Y139447D01*
X186217Y140030D01*
X183884D01*
X183301Y139447D01*
Y137698D01*
X118200Y124249D02*
X120533D01*
X137800Y136000D02*
Y139499D01*
X139549D01*
X140133Y138916D01*
Y137749D01*
X139549Y137166D01*
X137800D01*
X138966D02*
X140133Y136000D01*
X141299D02*
X142465D01*
X141882D01*
Y139499D01*
X141299Y138916D01*
X165000Y136166D02*
X164417Y136749D01*
X163251D01*
X162667Y136166D01*
Y133834D01*
X163251Y133251D01*
X164417D01*
X165000Y133834D01*
X166166Y133251D02*
X167333D01*
X166749D01*
Y136749D01*
X166166Y136166D01*
X150167Y116749D02*
Y113834D01*
X150751Y113251D01*
X151917D01*
X152500Y113834D01*
Y116749D01*
X153666Y113251D02*
X154833D01*
X154249D01*
Y116749D01*
X153666Y116166D01*
M02*
