G04*
G04 #@! TF.GenerationSoftware,Altium Limited,Altium Designer,21.0.9 (235)*
G04*
G04 Layer_Physical_Order=4*
G04 Layer_Color=16711680*
%FSLAX25Y25*%
%MOIN*%
G70*
G04*
G04 #@! TF.SameCoordinates,BF8AA8E3-E573-41D7-9BE7-E27BED457F28*
G04*
G04*
G04 #@! TF.FilePolarity,Positive*
G04*
G01*
G75*
%ADD15C,0.01000*%
%ADD90R,0.06496X0.06496*%
%ADD91C,0.06496*%
%ADD92C,0.05906*%
%ADD93R,0.05906X0.05906*%
%ADD94C,0.23622*%
%ADD95R,0.07874X0.07874*%
%ADD96C,0.07874*%
%ADD97C,0.04724*%
%ADD98R,0.04724X0.04724*%
%ADD99C,0.12598*%
%ADD100C,0.16535*%
G04:AMPARAMS|DCode=101|XSize=66.93mil|YSize=78.74mil|CornerRadius=16.73mil|HoleSize=0mil|Usage=FLASHONLY|Rotation=270.000|XOffset=0mil|YOffset=0mil|HoleType=Round|Shape=RoundedRectangle|*
%AMROUNDEDRECTD101*
21,1,0.06693,0.04528,0,0,270.0*
21,1,0.03347,0.07874,0,0,270.0*
1,1,0.03346,-0.02264,-0.01673*
1,1,0.03346,-0.02264,0.01673*
1,1,0.03346,0.02264,0.01673*
1,1,0.03346,0.02264,-0.01673*
%
%ADD101ROUNDEDRECTD101*%
%ADD102O,0.07874X0.06693*%
%ADD103C,0.02500*%
%ADD104R,0.12992X0.07087*%
%ADD105R,0.07087X0.12992*%
%ADD106R,0.01000X0.01000*%
%ADD107R,0.01000X0.01000*%
%ADD108C,0.08000*%
G36*
X467500Y501885D02*
Y492179D01*
X467000Y492140D01*
X466896Y492800D01*
X466272Y494718D01*
X465357Y496514D01*
X464172Y498146D01*
X462746Y499572D01*
X461114Y500757D01*
X459318Y501672D01*
X459059Y501756D01*
X459138Y502250D01*
X467176D01*
X467500Y501885D01*
D02*
G37*
G36*
X449741Y501756D02*
X449482Y501672D01*
X447686Y500757D01*
X446054Y499572D01*
X444628Y498146D01*
X443443Y496514D01*
X442528Y494718D01*
X441904Y492800D01*
X441589Y490808D01*
Y488792D01*
X441904Y486800D01*
X442528Y484882D01*
X443443Y483086D01*
X444628Y481454D01*
X446054Y480028D01*
X447686Y478843D01*
X449482Y477928D01*
X451400Y477304D01*
X453392Y476989D01*
X455408D01*
X457400Y477304D01*
X459318Y477928D01*
X461114Y478843D01*
X462746Y480028D01*
X464172Y481454D01*
X465357Y483086D01*
X466272Y484882D01*
X466896Y486800D01*
X467000Y487460D01*
X467500Y487421D01*
Y112500D01*
X101500D01*
X101000Y113000D01*
X101000Y502250D01*
X449662D01*
X449741Y501756D01*
D02*
G37*
%LPC*%
G36*
X433180Y494760D02*
X431742D01*
X430332Y494479D01*
X429003Y493929D01*
X427808Y493130D01*
X426791Y492114D01*
X426782Y492100D01*
X420679D01*
X420670Y492114D01*
X419653Y493130D01*
X418458Y493929D01*
X417129Y494479D01*
X415719Y494760D01*
X414281D01*
X412871Y494479D01*
X411543Y493929D01*
X410347Y493130D01*
X409330Y492114D01*
X409321Y492100D01*
X403218D01*
X403209Y492114D01*
X402192Y493130D01*
X400997Y493929D01*
X399669Y494479D01*
X398258Y494760D01*
X396820D01*
X395410Y494479D01*
X394082Y493929D01*
X392886Y493130D01*
X391870Y492114D01*
X391071Y490918D01*
X390521Y489590D01*
X390240Y488179D01*
Y486742D01*
X390521Y485331D01*
X391071Y484003D01*
X391870Y482808D01*
X392886Y481791D01*
X392900Y481782D01*
Y475678D01*
X392886Y475670D01*
X391870Y474653D01*
X391861Y474640D01*
X371268D01*
X370889Y474741D01*
Y475259D01*
X371413Y475399D01*
X372539Y476049D01*
X373459Y476969D01*
X374108Y478094D01*
X374445Y479350D01*
Y480650D01*
X374108Y481906D01*
X373459Y483031D01*
X372539Y483951D01*
X371413Y484601D01*
X370158Y484937D01*
X368858D01*
X367763Y484644D01*
X362470D01*
Y489596D01*
X355990D01*
X352793Y492793D01*
X352429Y493036D01*
X352000Y493122D01*
X352000Y493122D01*
X340000D01*
X339892Y493100D01*
X339608D01*
X339500Y493122D01*
X315693D01*
X315693Y493122D01*
X315264Y493036D01*
X314900Y492793D01*
X312175Y490069D01*
X312022Y490132D01*
X311127D01*
X310300Y489790D01*
X309667Y489157D01*
X309325Y488330D01*
Y487435D01*
X309290Y487382D01*
X308719D01*
X307892Y487040D01*
X307259Y486407D01*
X306917Y485580D01*
Y484685D01*
X307259Y483858D01*
X307892Y483225D01*
X308719Y482882D01*
X309614D01*
X310098Y483082D01*
X310276Y482964D01*
X310705Y482878D01*
X310705Y482878D01*
X325000D01*
Y482500D01*
X328000D01*
Y482878D01*
X332130D01*
Y475004D01*
X336173D01*
Y482500D01*
Y489996D01*
X332130D01*
Y485122D01*
X328000D01*
Y485500D01*
X325000D01*
Y485122D01*
X311563D01*
X311560Y485132D01*
X311956Y485632D01*
X312022D01*
X312849Y485975D01*
X313482Y486608D01*
X313825Y487435D01*
Y488330D01*
X313761Y488483D01*
X316157Y490878D01*
X339500D01*
X339608Y490900D01*
X339892D01*
X340000Y490878D01*
X351535D01*
X354162Y488252D01*
Y485543D01*
X354162Y485543D01*
X354184Y485435D01*
Y484518D01*
X353845Y483701D01*
X353687Y482500D01*
Y480461D01*
X353687Y480461D01*
X353845Y479260D01*
X354184Y478443D01*
Y475404D01*
X358482D01*
X358784Y475364D01*
X358784Y475364D01*
X367734D01*
X368127Y475259D01*
Y474741D01*
X367602Y474601D01*
X366476Y473951D01*
X365557Y473031D01*
X364907Y471906D01*
X364571Y470650D01*
Y469350D01*
X364907Y468094D01*
X365557Y466969D01*
X366476Y466049D01*
X367124Y465676D01*
X367256Y465022D01*
X367192Y464937D01*
X364571D01*
Y455063D01*
X374445D01*
Y464860D01*
X374445Y464937D01*
X374630Y465360D01*
X391861D01*
X391870Y465347D01*
X392886Y464330D01*
X394082Y463531D01*
X395410Y462981D01*
X396820Y462701D01*
X398258D01*
X399669Y462981D01*
X400997Y463531D01*
X402192Y464330D01*
X403209Y465347D01*
X404008Y466542D01*
X404558Y467871D01*
X404839Y469281D01*
Y470719D01*
X404558Y472129D01*
X404008Y473457D01*
X403209Y474653D01*
X402192Y475670D01*
X402179Y475678D01*
Y481782D01*
X402192Y481791D01*
X403209Y482808D01*
X403218Y482821D01*
X409321D01*
X409330Y482808D01*
X410347Y481791D01*
X411543Y480992D01*
X412871Y480442D01*
X414281Y480161D01*
X415719D01*
X417129Y480442D01*
X418458Y480992D01*
X419653Y481791D01*
X420670Y482808D01*
X420679Y482821D01*
X426782D01*
X426791Y482808D01*
X427808Y481791D01*
X427821Y481782D01*
Y475678D01*
X427808Y475670D01*
X426791Y474653D01*
X425992Y473457D01*
X425442Y472129D01*
X425161Y470719D01*
Y469281D01*
X425442Y467871D01*
X425992Y466542D01*
X426791Y465347D01*
X427808Y464330D01*
X427821Y464322D01*
Y458218D01*
X427808Y458209D01*
X426791Y457192D01*
X426782Y457179D01*
X420679D01*
X420670Y457192D01*
X419653Y458209D01*
X418458Y459008D01*
X417129Y459558D01*
X415719Y459839D01*
X414281D01*
X412871Y459558D01*
X411543Y459008D01*
X410347Y458209D01*
X409330Y457192D01*
X409321Y457179D01*
X403218D01*
X403209Y457192D01*
X402192Y458209D01*
X400997Y459008D01*
X399669Y459558D01*
X398258Y459839D01*
X396820D01*
X395410Y459558D01*
X394082Y459008D01*
X392886Y458209D01*
X391870Y457192D01*
X391071Y455997D01*
X390521Y454669D01*
X390240Y453258D01*
Y451821D01*
X390521Y450410D01*
X391071Y449082D01*
X391870Y447886D01*
X392886Y446870D01*
X394082Y446071D01*
X395410Y445521D01*
X396820Y445240D01*
X398258D01*
X399669Y445521D01*
X400997Y446071D01*
X402192Y446870D01*
X403209Y447886D01*
X403218Y447900D01*
X409321D01*
X409330Y447886D01*
X410347Y446870D01*
X411543Y446071D01*
X412871Y445521D01*
X414281Y445240D01*
X415719D01*
X417129Y445521D01*
X418458Y446071D01*
X419653Y446870D01*
X420670Y447886D01*
X420679Y447900D01*
X426782D01*
X426791Y447886D01*
X427360Y447317D01*
Y425760D01*
X427063Y424650D01*
Y423350D01*
X427399Y422094D01*
X428049Y420969D01*
X428969Y420049D01*
X430094Y419399D01*
X430619Y419259D01*
Y418741D01*
X430094Y418601D01*
X428969Y417951D01*
X428049Y417031D01*
X427399Y415906D01*
X427063Y414650D01*
Y413350D01*
X427399Y412094D01*
X428049Y410969D01*
X428969Y410049D01*
X429616Y409676D01*
X429748Y409022D01*
X429684Y408937D01*
X427063D01*
Y399063D01*
X436937D01*
Y408937D01*
X434316D01*
X434252Y409022D01*
X434384Y409676D01*
X435031Y410049D01*
X435951Y410969D01*
X436601Y412094D01*
X436937Y413350D01*
Y414650D01*
X436601Y415906D01*
X435951Y417031D01*
X435031Y417951D01*
X433906Y418601D01*
X433381Y418741D01*
Y419259D01*
X433906Y419399D01*
X435031Y420049D01*
X435951Y420969D01*
X436601Y422094D01*
X436937Y423350D01*
Y424650D01*
X436640Y425760D01*
Y446553D01*
X437114Y446870D01*
X438130Y447886D01*
X438929Y449082D01*
X439479Y450410D01*
X439760Y451821D01*
Y453258D01*
X439479Y454669D01*
X438929Y455997D01*
X438130Y457192D01*
X437114Y458209D01*
X437100Y458218D01*
Y464322D01*
X437114Y464330D01*
X438130Y465347D01*
X438929Y466542D01*
X439479Y467871D01*
X439760Y469281D01*
Y470719D01*
X439479Y472129D01*
X438929Y473457D01*
X438130Y474653D01*
X437114Y475670D01*
X437100Y475678D01*
Y481782D01*
X437114Y481791D01*
X438130Y482808D01*
X438929Y484003D01*
X439479Y485331D01*
X439760Y486742D01*
Y488179D01*
X439479Y489590D01*
X438929Y490918D01*
X438130Y492114D01*
X437114Y493130D01*
X435918Y493929D01*
X434590Y494479D01*
X433180Y494760D01*
D02*
G37*
G36*
X133666Y498058D02*
X123823D01*
X123433Y497981D01*
X123102Y497760D01*
X122881Y497429D01*
X122803Y497039D01*
Y489165D01*
X122881Y488774D01*
X123102Y488444D01*
X123433Y488223D01*
X123823Y488145D01*
X133666D01*
X134056Y488223D01*
X134387Y488444D01*
X134608Y488774D01*
X134685Y489165D01*
Y497039D01*
X134608Y497429D01*
X134387Y497760D01*
X134056Y497981D01*
X133666Y498058D01*
D02*
G37*
G36*
X341216Y489996D02*
X337173D01*
Y483000D01*
X341216D01*
Y489996D01*
D02*
G37*
G36*
X241708Y501211D02*
X239692D01*
X237700Y500896D01*
X235782Y500272D01*
X233986Y499357D01*
X232354Y498172D01*
X230928Y496746D01*
X229743Y495114D01*
X228828Y493318D01*
X228204Y491400D01*
X227889Y489408D01*
Y487392D01*
X228204Y485400D01*
X228828Y483482D01*
X229743Y481686D01*
X230928Y480054D01*
X232354Y478628D01*
X233986Y477443D01*
X235782Y476528D01*
X237700Y475904D01*
X239692Y475589D01*
X241708D01*
X243700Y475904D01*
X245618Y476528D01*
X247414Y477443D01*
X249046Y478628D01*
X250472Y480054D01*
X251657Y481686D01*
X252572Y483482D01*
X253196Y485400D01*
X253511Y487392D01*
Y489408D01*
X253196Y491400D01*
X252572Y493318D01*
X251657Y495114D01*
X250472Y496746D01*
X249046Y498172D01*
X247414Y499357D01*
X245618Y500272D01*
X243700Y500896D01*
X241708Y501211D01*
D02*
G37*
G36*
X341216Y482000D02*
X337173D01*
Y475004D01*
X341216D01*
Y482000D01*
D02*
G37*
G36*
X319400Y474428D02*
Y472700D01*
X321128D01*
X320808Y473475D01*
X320175Y474108D01*
X319400Y474428D01*
D02*
G37*
G36*
X318400D02*
X317625Y474108D01*
X316992Y473475D01*
X316672Y472700D01*
X318400D01*
Y474428D01*
D02*
G37*
G36*
X145673Y481130D02*
X112209D01*
X111819Y481052D01*
X111488Y480831D01*
X111267Y480500D01*
X111189Y480110D01*
Y472236D01*
X111267Y471846D01*
X111488Y471515D01*
X111819Y471294D01*
X112209Y471217D01*
X145673D01*
X146063Y471294D01*
X146394Y471515D01*
X146615Y471846D01*
X146693Y472236D01*
Y480110D01*
X146615Y480500D01*
X146394Y480831D01*
X146063Y481052D01*
X145673Y481130D01*
D02*
G37*
G36*
X321128Y471700D02*
X319400D01*
Y469972D01*
X320175Y470293D01*
X320808Y470926D01*
X321128Y471700D01*
D02*
G37*
G36*
X318400D02*
X316672D01*
X316992Y470926D01*
X317625Y470293D01*
X318400Y469972D01*
Y471700D01*
D02*
G37*
G36*
X162500Y466928D02*
Y465200D01*
X164228D01*
X163908Y465975D01*
X163275Y466608D01*
X162500Y466928D01*
D02*
G37*
G36*
X161500D02*
X160725Y466608D01*
X160092Y465975D01*
X159772Y465200D01*
X161500D01*
Y466928D01*
D02*
G37*
G36*
X231873Y471525D02*
X230978D01*
X230151Y471182D01*
X229518Y470549D01*
X229175Y469722D01*
Y468827D01*
X229518Y468000D01*
X230151Y467367D01*
X230978Y467025D01*
X231650D01*
Y466353D01*
X231993Y465525D01*
X232626Y464892D01*
X233452Y464550D01*
X234348D01*
X235174Y464892D01*
X235807Y465525D01*
X236150Y466353D01*
Y467247D01*
X235807Y468075D01*
X235174Y468708D01*
X234348Y469050D01*
X233675D01*
Y469722D01*
X233333Y470549D01*
X232700Y471182D01*
X231873Y471525D01*
D02*
G37*
G36*
X164228Y464200D02*
X162500D01*
Y462472D01*
X163275Y462792D01*
X163908Y463425D01*
X164228Y464200D01*
D02*
G37*
G36*
X161500D02*
X159772D01*
X160092Y463425D01*
X160725Y462792D01*
X161500Y462472D01*
Y464200D01*
D02*
G37*
G36*
X415913Y479268D02*
X414087D01*
X412297Y478911D01*
X410610Y478213D01*
X409092Y477199D01*
X407801Y475908D01*
X406787Y474390D01*
X406088Y472703D01*
X405732Y470913D01*
Y469087D01*
X406088Y467297D01*
X406787Y465610D01*
X407801Y464092D01*
X409092Y462801D01*
X410610Y461787D01*
X412297Y461089D01*
X414087Y460732D01*
X415913D01*
X417703Y461089D01*
X419390Y461787D01*
X420908Y462801D01*
X422199Y464092D01*
X423213Y465610D01*
X423912Y467297D01*
X424268Y469087D01*
Y470913D01*
X423912Y472703D01*
X423213Y474390D01*
X422199Y475908D01*
X420908Y477199D01*
X419390Y478213D01*
X417703Y478911D01*
X415913Y479268D01*
D02*
G37*
G36*
X296008Y482811D02*
X293992D01*
X292000Y482496D01*
X290082Y481872D01*
X288286Y480957D01*
X286654Y479772D01*
X285228Y478346D01*
X284043Y476714D01*
X283128Y474918D01*
X282504Y473000D01*
X282189Y471008D01*
Y468992D01*
X282504Y467000D01*
X283128Y465082D01*
X284043Y463286D01*
X285228Y461654D01*
X286654Y460228D01*
X288286Y459043D01*
X290082Y458128D01*
X292000Y457504D01*
X293992Y457189D01*
X296008D01*
X298000Y457504D01*
X299918Y458128D01*
X301714Y459043D01*
X303346Y460228D01*
X304772Y461654D01*
X305957Y463286D01*
X306872Y465082D01*
X307496Y467000D01*
X307811Y468992D01*
Y471008D01*
X307496Y473000D01*
X306872Y474918D01*
X305957Y476714D01*
X304772Y478346D01*
X303346Y479772D01*
X301714Y480957D01*
X299918Y481872D01*
X298000Y482496D01*
X296008Y482811D01*
D02*
G37*
G36*
X311948Y459050D02*
X311052D01*
X310226Y458708D01*
X309593Y458075D01*
X309250Y457247D01*
Y456353D01*
X309593Y455525D01*
X310226Y454892D01*
X311052Y454550D01*
X311948D01*
X312774Y454892D01*
X313407Y455525D01*
X313750Y456353D01*
Y457247D01*
X313407Y458075D01*
X312774Y458708D01*
X311948Y459050D01*
D02*
G37*
G36*
X267448Y456950D02*
X266552D01*
X265725Y456607D01*
X265092Y455974D01*
X264750Y455148D01*
Y454252D01*
X265092Y453426D01*
X265725Y452793D01*
X266552Y452450D01*
X267448D01*
X268274Y452793D01*
X268907Y453426D01*
X269250Y454252D01*
Y455148D01*
X268907Y455974D01*
X268274Y456607D01*
X267448Y456950D01*
D02*
G37*
G36*
X109100Y448628D02*
Y446900D01*
X110828D01*
X110508Y447675D01*
X109874Y448308D01*
X109100Y448628D01*
D02*
G37*
G36*
X108100D02*
X107325Y448308D01*
X106693Y447675D01*
X106372Y446900D01*
X108100D01*
Y448628D01*
D02*
G37*
G36*
X217553Y449354D02*
X216658D01*
X215831Y449011D01*
X215198Y448378D01*
X214855Y447551D01*
Y446656D01*
X215198Y445829D01*
X215831Y445196D01*
X216658Y444854D01*
X217553D01*
X218380Y445196D01*
X219013Y445829D01*
X219355Y446656D01*
Y447551D01*
X219013Y448378D01*
X218380Y449011D01*
X217553Y449354D01*
D02*
G37*
G36*
X110828Y445900D02*
X109100D01*
Y444172D01*
X109874Y444492D01*
X110508Y445125D01*
X110828Y445900D01*
D02*
G37*
G36*
X108100D02*
X106372D01*
X106693Y445125D01*
X107325Y444492D01*
X108100Y444172D01*
Y445900D01*
D02*
G37*
G36*
X138247Y448214D02*
X137351D01*
X136524Y447872D01*
X135891Y447239D01*
X135549Y446412D01*
Y445517D01*
X135891Y444690D01*
X136524Y444057D01*
X137351Y443715D01*
X138247D01*
X139074Y444057D01*
X139706Y444690D01*
X140049Y445517D01*
Y446412D01*
X139706Y447239D01*
X139074Y447872D01*
X138247Y448214D01*
D02*
G37*
G36*
X130112Y447621D02*
X129217D01*
X128390Y447278D01*
X127757Y446645D01*
X127415Y445818D01*
Y444923D01*
X127757Y444096D01*
X128390Y443463D01*
X129217Y443121D01*
X130112D01*
X130939Y443463D01*
X131572Y444096D01*
X131915Y444923D01*
Y445818D01*
X131572Y446645D01*
X130939Y447278D01*
X130112Y447621D01*
D02*
G37*
G36*
X149948Y444750D02*
X149052D01*
X148225Y444408D01*
X147592Y443775D01*
X147250Y442947D01*
Y442053D01*
X147592Y441225D01*
X148225Y440592D01*
X149052Y440250D01*
X149948D01*
X150775Y440592D01*
X151408Y441225D01*
X151750Y442053D01*
Y442947D01*
X151408Y443775D01*
X150775Y444408D01*
X149948Y444750D01*
D02*
G37*
G36*
X303463Y442092D02*
X302568D01*
X301741Y441750D01*
X301108Y441117D01*
X300765Y440290D01*
Y439395D01*
X301108Y438568D01*
X301741Y437935D01*
X302568Y437592D01*
X303463D01*
X304290Y437935D01*
X304923Y438568D01*
X305265Y439395D01*
Y440290D01*
X304923Y441117D01*
X304290Y441750D01*
X303463Y442092D01*
D02*
G37*
G36*
X161066Y440569D02*
X160171D01*
X159344Y440226D01*
X158711Y439593D01*
X158369Y438766D01*
Y437871D01*
X158711Y437044D01*
X159344Y436411D01*
X160171Y436069D01*
X161066D01*
X161893Y436411D01*
X162526Y437044D01*
X162869Y437871D01*
Y438766D01*
X162526Y439593D01*
X161893Y440226D01*
X161066Y440569D01*
D02*
G37*
G36*
X193148Y439850D02*
X192252D01*
X191426Y439507D01*
X190793Y438874D01*
X190450Y438048D01*
Y437152D01*
X190793Y436326D01*
X191426Y435693D01*
X192252Y435350D01*
X193148D01*
X193974Y435693D01*
X194607Y436326D01*
X194950Y437152D01*
Y438048D01*
X194607Y438874D01*
X193974Y439507D01*
X193148Y439850D01*
D02*
G37*
G36*
X258248Y434750D02*
X257352D01*
X256525Y434408D01*
X255892Y433775D01*
X255550Y432947D01*
Y432053D01*
X255892Y431225D01*
X256525Y430592D01*
X257352Y430250D01*
X258248D01*
X259074Y430592D01*
X259707Y431225D01*
X260050Y432053D01*
Y432947D01*
X259707Y433775D01*
X259074Y434408D01*
X258248Y434750D01*
D02*
G37*
G36*
X140248Y432450D02*
X139352D01*
X138525Y432107D01*
X137892Y431474D01*
X137550Y430648D01*
Y430042D01*
X137050Y429835D01*
X136698Y430187D01*
X135871Y430530D01*
X134976D01*
X134149Y430187D01*
X133516Y429554D01*
X133190Y428767D01*
X132748Y428950D01*
X131852D01*
X131026Y428608D01*
X130393Y427975D01*
X130050Y427147D01*
Y426253D01*
X130393Y425425D01*
X131026Y424792D01*
X131852Y424450D01*
X132748D01*
X133574Y424792D01*
X134207Y425425D01*
X134534Y426213D01*
X134976Y426030D01*
X135871D01*
X136698Y426372D01*
X137331Y427005D01*
X137673Y427832D01*
Y428438D01*
X138173Y428645D01*
X138525Y428293D01*
X139352Y427950D01*
X140248D01*
X141075Y428293D01*
X141708Y428926D01*
X142050Y429752D01*
Y430648D01*
X141708Y431474D01*
X141075Y432107D01*
X140248Y432450D01*
D02*
G37*
G36*
X120264Y435555D02*
X115736D01*
X115038Y435463D01*
X114388Y435193D01*
X113830Y434765D01*
X113401Y434206D01*
X113132Y433556D01*
X113040Y432858D01*
Y429512D01*
X113132Y428814D01*
X113401Y428164D01*
X113830Y427605D01*
X114388Y427177D01*
X115038Y426907D01*
X115736Y426816D01*
X120264D01*
X120962Y426907D01*
X121612Y427177D01*
X122170Y427605D01*
X122599Y428164D01*
X122868Y428814D01*
X122960Y429512D01*
Y432858D01*
X122868Y433556D01*
X122599Y434206D01*
X122170Y434765D01*
X121612Y435193D01*
X120962Y435463D01*
X120264Y435555D01*
D02*
G37*
G36*
X254958Y429700D02*
X254063D01*
X253236Y429357D01*
X252603Y428724D01*
X252261Y427898D01*
Y427002D01*
X252603Y426175D01*
X253236Y425542D01*
X254063Y425200D01*
X254958D01*
X255785Y425542D01*
X256418Y426175D01*
X256761Y427002D01*
Y427898D01*
X256418Y428724D01*
X255785Y429357D01*
X254958Y429700D01*
D02*
G37*
G36*
X373548Y427450D02*
X372652D01*
X371826Y427107D01*
X371193Y426475D01*
X370850Y425647D01*
Y424753D01*
X371193Y423925D01*
X371826Y423292D01*
X372652Y422950D01*
X373548D01*
X374375Y423292D01*
X375008Y423925D01*
X375350Y424753D01*
Y425647D01*
X375008Y426475D01*
X374375Y427107D01*
X373548Y427450D01*
D02*
G37*
G36*
X224485Y426606D02*
X223590D01*
X222763Y426264D01*
X222130Y425631D01*
X221788Y424804D01*
Y423909D01*
X222130Y423082D01*
X222763Y422449D01*
X223590Y422106D01*
X224485D01*
X225312Y422449D01*
X225945Y423082D01*
X226288Y423909D01*
Y424804D01*
X225945Y425631D01*
X225312Y426264D01*
X224485Y426606D01*
D02*
G37*
G36*
X142300Y423228D02*
Y421500D01*
X144028D01*
X143708Y422274D01*
X143075Y422907D01*
X142300Y423228D01*
D02*
G37*
G36*
X141300D02*
X140525Y422907D01*
X139892Y422274D01*
X139572Y421500D01*
X141300D01*
Y423228D01*
D02*
G37*
G36*
X203500Y422828D02*
Y421100D01*
X205228D01*
X204907Y421875D01*
X204275Y422507D01*
X203500Y422828D01*
D02*
G37*
G36*
X202500D02*
X201726Y422507D01*
X201093Y421875D01*
X200772Y421100D01*
X202500D01*
Y422828D01*
D02*
G37*
G36*
X272000Y422628D02*
Y420900D01*
X273728D01*
X273408Y421674D01*
X272775Y422307D01*
X272000Y422628D01*
D02*
G37*
G36*
X271000D02*
X270226Y422307D01*
X269592Y421674D01*
X269272Y420900D01*
X271000D01*
Y422628D01*
D02*
G37*
G36*
X144028Y420500D02*
X142300D01*
Y418772D01*
X143075Y419093D01*
X143708Y419726D01*
X144028Y420500D01*
D02*
G37*
G36*
X141300D02*
X139572D01*
X139892Y419726D01*
X140525Y419093D01*
X141300Y418772D01*
Y420500D01*
D02*
G37*
G36*
X205228Y420100D02*
X203500D01*
Y418372D01*
X204275Y418692D01*
X204907Y419325D01*
X205228Y420100D01*
D02*
G37*
G36*
X202500D02*
X200772D01*
X201093Y419325D01*
X201726Y418692D01*
X202500Y418372D01*
Y420100D01*
D02*
G37*
G36*
X273728Y419900D02*
X272000D01*
Y418172D01*
X272775Y418493D01*
X273408Y419126D01*
X273728Y419900D01*
D02*
G37*
G36*
X271000D02*
X269272D01*
X269592Y419126D01*
X270226Y418493D01*
X271000Y418172D01*
Y419900D01*
D02*
G37*
G36*
X247948Y421950D02*
X247052D01*
X246226Y421607D01*
X245592Y420974D01*
X245250Y420148D01*
Y419252D01*
X245592Y418426D01*
X245825Y418193D01*
X245542Y417769D01*
X245298Y417870D01*
X244402D01*
X243576Y417528D01*
X242943Y416895D01*
X242600Y416068D01*
Y415173D01*
X242888Y414478D01*
X242753Y414319D01*
X242494Y414141D01*
X241748Y414450D01*
X240852D01*
X240025Y414108D01*
X239392Y413475D01*
X239050Y412647D01*
Y411753D01*
X239264Y411236D01*
X238881Y410853D01*
X238648Y410950D01*
X237752D01*
X236926Y410607D01*
X236293Y409974D01*
X235950Y409148D01*
Y408252D01*
X236293Y407425D01*
X236926Y406792D01*
X237752Y406450D01*
X238648D01*
X239475Y406792D01*
X240107Y407425D01*
X240450Y408252D01*
Y409148D01*
X240236Y409664D01*
X240619Y410047D01*
X240852Y409950D01*
X241748D01*
X242575Y410292D01*
X243208Y410925D01*
X243550Y411753D01*
Y412647D01*
X243262Y413343D01*
X243397Y413502D01*
X243656Y413680D01*
X244402Y413370D01*
X245298D01*
X246125Y413713D01*
X246758Y414346D01*
X247100Y415173D01*
Y416068D01*
X246758Y416895D01*
X246525Y417127D01*
X246808Y417551D01*
X247052Y417450D01*
X247948D01*
X248775Y417793D01*
X249408Y418426D01*
X249750Y419252D01*
Y420148D01*
X249408Y420974D01*
X248775Y421607D01*
X247948Y421950D01*
D02*
G37*
G36*
X171200Y419128D02*
Y417400D01*
X172928D01*
X172608Y418175D01*
X171975Y418808D01*
X171200Y419128D01*
D02*
G37*
G36*
X170200D02*
X169425Y418808D01*
X168792Y418175D01*
X168472Y417400D01*
X170200D01*
Y419128D01*
D02*
G37*
G36*
X118591Y425727D02*
X117409D01*
X116275Y425577D01*
X115217Y425139D01*
X114310Y424442D01*
X113613Y423534D01*
X113175Y422477D01*
X113025Y421343D01*
X113175Y420208D01*
X113613Y419150D01*
X114310Y418243D01*
X115217Y417546D01*
X116275Y417108D01*
X117409Y416959D01*
X118591D01*
X119725Y417108D01*
X120782Y417546D01*
X121690Y418243D01*
X122387Y419150D01*
X122825Y420208D01*
X122975Y421343D01*
X122825Y422477D01*
X122387Y423534D01*
X121690Y424442D01*
X120782Y425139D01*
X119725Y425577D01*
X118591Y425727D01*
D02*
G37*
G36*
X172928Y416400D02*
X171200D01*
Y414672D01*
X171975Y414993D01*
X172608Y415625D01*
X172928Y416400D01*
D02*
G37*
G36*
X170200D02*
X168472D01*
X168792Y415625D01*
X169425Y414993D01*
X170200Y414672D01*
Y416400D01*
D02*
G37*
G36*
X262537Y417902D02*
X261642D01*
X260815Y417559D01*
X260182Y416926D01*
X259840Y416099D01*
Y415204D01*
X260182Y414377D01*
X260815Y413744D01*
X261642Y413402D01*
X262537D01*
X263364Y413744D01*
X263997Y414377D01*
X264340Y415204D01*
Y416099D01*
X263997Y416926D01*
X263364Y417559D01*
X262537Y417902D01*
D02*
G37*
G36*
X382000Y414628D02*
Y412900D01*
X383728D01*
X383407Y413674D01*
X382774Y414307D01*
X382000Y414628D01*
D02*
G37*
G36*
X381000D02*
X380225Y414307D01*
X379592Y413674D01*
X379272Y412900D01*
X381000D01*
Y414628D01*
D02*
G37*
G36*
X204100Y414528D02*
Y412800D01*
X205828D01*
X205507Y413575D01*
X204874Y414208D01*
X204100Y414528D01*
D02*
G37*
G36*
X203100D02*
X202326Y414208D01*
X201693Y413575D01*
X201372Y412800D01*
X203100D01*
Y414528D01*
D02*
G37*
G36*
X383728Y411900D02*
X382000D01*
Y410172D01*
X382774Y410493D01*
X383407Y411126D01*
X383728Y411900D01*
D02*
G37*
G36*
X381000D02*
X379272D01*
X379592Y411126D01*
X380225Y410493D01*
X381000Y410172D01*
Y411900D01*
D02*
G37*
G36*
X205828Y411800D02*
X204100D01*
Y410072D01*
X204874Y410393D01*
X205507Y411025D01*
X205828Y411800D01*
D02*
G37*
G36*
X203100D02*
X201372D01*
X201693Y411025D01*
X202326Y410393D01*
X203100Y410072D01*
Y411800D01*
D02*
G37*
G36*
X270875Y413678D02*
X269980D01*
X269153Y413335D01*
X268520Y412702D01*
X268178Y411875D01*
Y410980D01*
X268520Y410153D01*
X268560Y410113D01*
X268277Y409689D01*
X267648Y409950D01*
X266752D01*
X265926Y409608D01*
X265293Y408975D01*
X264950Y408148D01*
Y407939D01*
X264450Y407732D01*
X264275Y407907D01*
X263448Y408250D01*
X262552D01*
X261725Y407907D01*
X261092Y407274D01*
X260750Y406448D01*
Y405552D01*
X261092Y404726D01*
X261725Y404093D01*
X262552Y403750D01*
X263448D01*
X264275Y404093D01*
X264908Y404726D01*
X265250Y405552D01*
Y405761D01*
X265750Y405968D01*
X265926Y405793D01*
X266752Y405450D01*
X267648D01*
X268475Y405793D01*
X269108Y406426D01*
X269450Y407252D01*
Y408148D01*
X269108Y408975D01*
X269068Y409014D01*
X269351Y409438D01*
X269980Y409178D01*
X270875D01*
X271702Y409520D01*
X272335Y410153D01*
X272678Y410980D01*
Y411875D01*
X272335Y412702D01*
X271702Y413335D01*
X270875Y413678D01*
D02*
G37*
G36*
X118591Y415884D02*
X117409D01*
X116275Y415735D01*
X115217Y415297D01*
X114310Y414600D01*
X113613Y413692D01*
X113175Y412635D01*
X113025Y411500D01*
X113175Y410365D01*
X113613Y409308D01*
X114310Y408400D01*
X115217Y407703D01*
X116275Y407265D01*
X117409Y407116D01*
X118591D01*
X119725Y407265D01*
X120782Y407703D01*
X121690Y408400D01*
X122387Y409308D01*
X122825Y410365D01*
X122975Y411500D01*
X122825Y412635D01*
X122387Y413692D01*
X121690Y414600D01*
X120782Y415297D01*
X119725Y415735D01*
X118591Y415884D01*
D02*
G37*
G36*
X143100Y407828D02*
Y406100D01*
X144828D01*
X144508Y406875D01*
X143875Y407508D01*
X143100Y407828D01*
D02*
G37*
G36*
X142100D02*
X141325Y407508D01*
X140692Y406875D01*
X140372Y406100D01*
X142100D01*
Y407828D01*
D02*
G37*
G36*
X204948Y408250D02*
X204052D01*
X203225Y407907D01*
X202592Y407274D01*
X202250Y406448D01*
Y405552D01*
X202592Y404726D01*
X203225Y404093D01*
X204052Y403750D01*
X204948D01*
X205774Y404093D01*
X206407Y404726D01*
X206750Y405552D01*
Y406448D01*
X206407Y407274D01*
X205774Y407907D01*
X204948Y408250D01*
D02*
G37*
G36*
X144828Y405100D02*
X143100D01*
Y403372D01*
X143875Y403692D01*
X144508Y404325D01*
X144828Y405100D01*
D02*
G37*
G36*
X142100D02*
X140372D01*
X140692Y404325D01*
X141325Y403692D01*
X142100Y403372D01*
Y405100D01*
D02*
G37*
G36*
X118591Y406041D02*
X118500D01*
Y402157D01*
X122909D01*
X122825Y402792D01*
X122387Y403850D01*
X121690Y404757D01*
X120782Y405454D01*
X119725Y405892D01*
X118591Y406041D01*
D02*
G37*
G36*
X117500D02*
X117409D01*
X116275Y405892D01*
X115217Y405454D01*
X114310Y404757D01*
X113613Y403850D01*
X113175Y402792D01*
X113091Y402157D01*
X117500D01*
Y406041D01*
D02*
G37*
G36*
X358500Y426811D02*
X356484D01*
X354492Y426496D01*
X352574Y425872D01*
X350778Y424957D01*
X349146Y423772D01*
X347720Y422346D01*
X346535Y420714D01*
X345620Y418918D01*
X344997Y417000D01*
X344681Y415008D01*
Y412992D01*
X344997Y411000D01*
X345620Y409082D01*
X346535Y407286D01*
X347720Y405654D01*
X349146Y404228D01*
X350778Y403043D01*
X352574Y402128D01*
X354492Y401504D01*
X356484Y401189D01*
X358500D01*
X360492Y401504D01*
X362410Y402128D01*
X364207Y403043D01*
X365838Y404228D01*
X367264Y405654D01*
X368449Y407286D01*
X369365Y409082D01*
X369988Y411000D01*
X370303Y412992D01*
Y415008D01*
X369988Y417000D01*
X369365Y418918D01*
X368449Y420714D01*
X367264Y422346D01*
X365838Y423772D01*
X364207Y424957D01*
X362410Y425872D01*
X360492Y426496D01*
X358500Y426811D01*
D02*
G37*
G36*
X211448Y404250D02*
X210552D01*
X209725Y403907D01*
X209092Y403274D01*
X208750Y402448D01*
Y401552D01*
X209092Y400726D01*
X209725Y400093D01*
X210552Y399750D01*
X211448D01*
X212275Y400093D01*
X212908Y400726D01*
X213250Y401552D01*
Y402448D01*
X212908Y403274D01*
X212275Y403907D01*
X211448Y404250D01*
D02*
G37*
G36*
X122909Y401158D02*
X118500D01*
Y397273D01*
X118591D01*
X119725Y397423D01*
X120782Y397861D01*
X121690Y398557D01*
X122387Y399465D01*
X122825Y400523D01*
X122909Y401158D01*
D02*
G37*
G36*
X117500D02*
X113091D01*
X113175Y400523D01*
X113613Y399465D01*
X114310Y398557D01*
X115217Y397861D01*
X116275Y397423D01*
X117409Y397273D01*
X117500D01*
Y401158D01*
D02*
G37*
G36*
X221239Y398561D02*
Y396833D01*
X222967D01*
X222646Y397607D01*
X222013Y398240D01*
X221239Y398561D01*
D02*
G37*
G36*
X220239D02*
X219464Y398240D01*
X218831Y397607D01*
X218510Y396833D01*
X220239D01*
Y398561D01*
D02*
G37*
G36*
X222967Y395833D02*
X221239D01*
Y394105D01*
X222013Y394425D01*
X222646Y395058D01*
X222967Y395833D01*
D02*
G37*
G36*
X220239D02*
X218510D01*
X218831Y395058D01*
X219464Y394425D01*
X220239Y394105D01*
Y395833D01*
D02*
G37*
G36*
X305048Y394350D02*
X304152D01*
X303326Y394007D01*
X302693Y393374D01*
X302350Y392548D01*
Y391652D01*
X302693Y390826D01*
X303326Y390193D01*
X304152Y389850D01*
X305048D01*
X305874Y390193D01*
X306507Y390826D01*
X306850Y391652D01*
Y392548D01*
X306507Y393374D01*
X305874Y394007D01*
X305048Y394350D01*
D02*
G37*
G36*
X196748Y394150D02*
X195852D01*
X195026Y393808D01*
X194393Y393175D01*
X194050Y392348D01*
Y391452D01*
X194393Y390626D01*
X195026Y389992D01*
X195852Y389650D01*
X196748D01*
X197574Y389992D01*
X198207Y390626D01*
X198550Y391452D01*
Y392348D01*
X198207Y393175D01*
X197574Y393808D01*
X196748Y394150D01*
D02*
G37*
G36*
X150400Y386128D02*
Y384400D01*
X152128D01*
X151807Y385174D01*
X151174Y385807D01*
X150400Y386128D01*
D02*
G37*
G36*
X149400D02*
X148626Y385807D01*
X147993Y385174D01*
X147672Y384400D01*
X149400D01*
Y386128D01*
D02*
G37*
G36*
X433180Y384760D02*
X431742D01*
X430332Y384479D01*
X429003Y383929D01*
X427808Y383130D01*
X426791Y382114D01*
X426782Y382100D01*
X420679D01*
X420670Y382114D01*
X419653Y383130D01*
X418458Y383929D01*
X417129Y384479D01*
X415719Y384760D01*
X414281D01*
X412871Y384479D01*
X411543Y383929D01*
X410347Y383130D01*
X409330Y382114D01*
X409321Y382100D01*
X403218D01*
X403209Y382114D01*
X402192Y383130D01*
X400997Y383929D01*
X399669Y384479D01*
X398258Y384760D01*
X396820D01*
X395410Y384479D01*
X394082Y383929D01*
X392886Y383130D01*
X391870Y382114D01*
X391071Y380918D01*
X390521Y379590D01*
X390240Y378180D01*
Y376742D01*
X390521Y375331D01*
X391071Y374003D01*
X391870Y372808D01*
X392886Y371791D01*
X392900Y371782D01*
Y365679D01*
X392886Y365670D01*
X391870Y364653D01*
X391861Y364640D01*
X379260D01*
X378881Y364741D01*
Y365259D01*
X379406Y365399D01*
X380531Y366049D01*
X381451Y366969D01*
X382101Y368094D01*
X382437Y369350D01*
Y370650D01*
X382101Y371906D01*
X381451Y373031D01*
X380531Y373951D01*
X379406Y374601D01*
X378150Y374937D01*
X376850D01*
X375740Y374640D01*
X374813D01*
X374783Y374644D01*
X374783Y374644D01*
X362470D01*
Y379596D01*
X354184D01*
Y374518D01*
X353845Y373701D01*
X353687Y372500D01*
Y370461D01*
X353687Y370461D01*
X353845Y369260D01*
X354184Y368443D01*
Y366990D01*
X351207Y364014D01*
X350964Y363650D01*
X350878Y363221D01*
X350881Y363210D01*
X350879Y363200D01*
Y356100D01*
Y354600D01*
X350900Y354492D01*
Y354108D01*
X350879Y354000D01*
Y346465D01*
X347535Y343122D01*
X326554D01*
X326455Y343621D01*
X326969Y343835D01*
X327602Y344468D01*
X327665Y344621D01*
X329742D01*
X329742Y344621D01*
X330171Y344706D01*
X330535Y344949D01*
X336793Y351207D01*
X336793Y351207D01*
X337036Y351571D01*
X337122Y352000D01*
X337122Y352000D01*
Y360000D01*
X337394Y360500D01*
X337500D01*
Y363500D01*
X337122D01*
Y365004D01*
X341216D01*
Y372000D01*
X336673D01*
X332130D01*
Y365004D01*
X334878D01*
Y363500D01*
X334500D01*
Y360500D01*
X334606D01*
X334878Y360000D01*
Y352465D01*
X329278Y346864D01*
X327665D01*
X327602Y347017D01*
X326969Y347650D01*
X326142Y347992D01*
X325505D01*
X325470Y348045D01*
Y348940D01*
X325127Y349767D01*
X324494Y350400D01*
X323667Y350742D01*
X322772D01*
X321945Y350400D01*
X321312Y349767D01*
X320970Y348940D01*
Y348045D01*
X321312Y347218D01*
X321823Y346707D01*
Y344603D01*
X321823Y344603D01*
X321909Y344174D01*
X322152Y343810D01*
X324755Y341207D01*
X324755Y341207D01*
X325119Y340964D01*
X325548Y340879D01*
X348000D01*
X348000Y340878D01*
X348429Y340964D01*
X348793Y341207D01*
X352793Y345207D01*
X352793Y345207D01*
X353036Y345571D01*
X353121Y346000D01*
Y354000D01*
X353100Y354108D01*
Y354492D01*
X353121Y354600D01*
Y356100D01*
Y362756D01*
X355770Y365404D01*
X358482D01*
X358784Y365364D01*
X358784Y365364D01*
X374758D01*
X374787Y365360D01*
X374787Y365360D01*
X375740D01*
X376119Y365259D01*
Y364741D01*
X375594Y364601D01*
X374469Y363951D01*
X373549Y363031D01*
X372899Y361906D01*
X372563Y360650D01*
Y359350D01*
X372899Y358094D01*
X373549Y356969D01*
X374469Y356049D01*
X375116Y355676D01*
X375248Y355022D01*
X375184Y354937D01*
X372563D01*
Y345063D01*
X382437D01*
Y354860D01*
X382437Y354937D01*
X382622Y355360D01*
X391861D01*
X391870Y355347D01*
X392886Y354330D01*
X394082Y353532D01*
X395410Y352981D01*
X396820Y352701D01*
X398258D01*
X399669Y352981D01*
X400997Y353532D01*
X402192Y354330D01*
X403209Y355347D01*
X404008Y356542D01*
X404558Y357871D01*
X404839Y359281D01*
Y360719D01*
X404558Y362129D01*
X404008Y363457D01*
X403209Y364653D01*
X402192Y365670D01*
X402179Y365679D01*
Y371782D01*
X402192Y371791D01*
X403209Y372808D01*
X403218Y372821D01*
X409321D01*
X409330Y372808D01*
X410347Y371791D01*
X411543Y370992D01*
X412871Y370442D01*
X414281Y370161D01*
X415719D01*
X417129Y370442D01*
X418458Y370992D01*
X419653Y371791D01*
X420670Y372808D01*
X420679Y372821D01*
X426782D01*
X426791Y372808D01*
X427808Y371791D01*
X427821Y371782D01*
Y365679D01*
X427808Y365670D01*
X426791Y364653D01*
X425992Y363457D01*
X425442Y362129D01*
X425161Y360719D01*
Y359281D01*
X425442Y357871D01*
X425992Y356542D01*
X426791Y355347D01*
X427808Y354330D01*
X427821Y354322D01*
Y348218D01*
X427808Y348209D01*
X426791Y347192D01*
X426782Y347179D01*
X420679D01*
X420670Y347192D01*
X419653Y348209D01*
X418458Y349008D01*
X417129Y349558D01*
X415719Y349839D01*
X414281D01*
X412871Y349558D01*
X411543Y349008D01*
X410347Y348209D01*
X409330Y347192D01*
X409321Y347179D01*
X403218D01*
X403209Y347192D01*
X402192Y348209D01*
X400997Y349008D01*
X399669Y349558D01*
X398258Y349839D01*
X396820D01*
X395410Y349558D01*
X394082Y349008D01*
X392886Y348209D01*
X391870Y347192D01*
X391071Y345997D01*
X390521Y344669D01*
X390240Y343258D01*
Y341821D01*
X390521Y340410D01*
X391071Y339082D01*
X391870Y337886D01*
X392886Y336870D01*
X394082Y336071D01*
X395410Y335521D01*
X396820Y335240D01*
X398258D01*
X399669Y335521D01*
X400997Y336071D01*
X402192Y336870D01*
X403209Y337886D01*
X403218Y337900D01*
X409321D01*
X409330Y337886D01*
X410347Y336870D01*
X411543Y336071D01*
X412871Y335521D01*
X414281Y335240D01*
X415719D01*
X417129Y335521D01*
X418458Y336071D01*
X419653Y336870D01*
X420670Y337886D01*
X420679Y337900D01*
X426782D01*
X426791Y337886D01*
X427808Y336870D01*
X427868Y336829D01*
Y315760D01*
X427571Y314650D01*
Y313350D01*
X427907Y312094D01*
X428557Y310969D01*
X429476Y310049D01*
X430602Y309399D01*
X431127Y309259D01*
Y308741D01*
X430602Y308601D01*
X429476Y307951D01*
X428557Y307031D01*
X427907Y305906D01*
X427571Y304650D01*
Y303350D01*
X427907Y302094D01*
X428557Y300969D01*
X429476Y300049D01*
X430123Y299676D01*
X430256Y299022D01*
X430192Y298937D01*
X427571D01*
Y289063D01*
X437445D01*
Y298937D01*
X434824D01*
X434760Y299022D01*
X434892Y299676D01*
X435539Y300049D01*
X436458Y300969D01*
X437108Y302094D01*
X437445Y303350D01*
Y304650D01*
X437108Y305906D01*
X436458Y307031D01*
X435539Y307951D01*
X434413Y308601D01*
X433889Y308741D01*
Y309259D01*
X434413Y309399D01*
X435539Y310049D01*
X436458Y310969D01*
X437108Y312094D01*
X437445Y313350D01*
Y314650D01*
X437148Y315760D01*
Y336904D01*
X438130Y337886D01*
X438929Y339082D01*
X439479Y340410D01*
X439760Y341821D01*
Y343258D01*
X439479Y344669D01*
X438929Y345997D01*
X438130Y347192D01*
X437114Y348209D01*
X437100Y348218D01*
Y354322D01*
X437114Y354330D01*
X438130Y355347D01*
X438929Y356542D01*
X439479Y357871D01*
X439760Y359281D01*
Y360719D01*
X439479Y362129D01*
X438929Y363457D01*
X438130Y364653D01*
X437114Y365670D01*
X437100Y365679D01*
Y371782D01*
X437114Y371791D01*
X438130Y372808D01*
X438929Y374003D01*
X439479Y375331D01*
X439760Y376742D01*
Y378180D01*
X439479Y379590D01*
X438929Y380918D01*
X438130Y382114D01*
X437114Y383130D01*
X435918Y383929D01*
X434590Y384479D01*
X433180Y384760D01*
D02*
G37*
G36*
X152128Y383400D02*
X150400D01*
Y381672D01*
X151174Y381993D01*
X151807Y382626D01*
X152128Y383400D01*
D02*
G37*
G36*
X149400D02*
X147672D01*
X147993Y382626D01*
X148626Y381993D01*
X149400Y381672D01*
Y383400D01*
D02*
G37*
G36*
X267830Y383522D02*
X266935D01*
X266108Y383179D01*
X265475Y382547D01*
X265133Y381720D01*
Y380824D01*
X265475Y379997D01*
X266108Y379365D01*
X266935Y379022D01*
X267830D01*
X268657Y379365D01*
X269290Y379997D01*
X269633Y380824D01*
Y381720D01*
X269290Y382547D01*
X268657Y383179D01*
X267830Y383522D01*
D02*
G37*
G36*
X210848Y383350D02*
X209952D01*
X209125Y383008D01*
X208492Y382375D01*
X208150Y381548D01*
Y380652D01*
X208492Y379825D01*
X209125Y379192D01*
X209952Y378850D01*
X210848D01*
X211674Y379192D01*
X212308Y379825D01*
X212650Y380652D01*
Y381548D01*
X212308Y382375D01*
X211674Y383008D01*
X210848Y383350D01*
D02*
G37*
G36*
X113020Y379953D02*
X113000D01*
Y376500D01*
X116453D01*
Y376520D01*
X116183Y377526D01*
X115663Y378427D01*
X114927Y379163D01*
X114026Y379683D01*
X113020Y379953D01*
D02*
G37*
G36*
X112000D02*
X111980D01*
X110974Y379683D01*
X110073Y379163D01*
X109337Y378427D01*
X108817Y377526D01*
X108547Y376520D01*
Y376500D01*
X112000D01*
Y379953D01*
D02*
G37*
G36*
X210100Y376828D02*
Y375100D01*
X211828D01*
X211508Y375874D01*
X210875Y376507D01*
X210100Y376828D01*
D02*
G37*
G36*
X209100D02*
X208326Y376507D01*
X207693Y375874D01*
X207372Y375100D01*
X209100D01*
Y376828D01*
D02*
G37*
G36*
X341216Y379996D02*
X337173D01*
Y373000D01*
X341216D01*
Y379996D01*
D02*
G37*
G36*
X336173D02*
X332130D01*
Y373000D01*
X336173D01*
Y379996D01*
D02*
G37*
G36*
X319448Y377050D02*
X318552D01*
X317725Y376708D01*
X317092Y376075D01*
X316750Y375248D01*
Y374352D01*
X317092Y373526D01*
X317725Y372892D01*
X318552Y372550D01*
X319448D01*
X320274Y372892D01*
X320907Y373526D01*
X321250Y374352D01*
Y375248D01*
X320907Y376075D01*
X320274Y376708D01*
X319448Y377050D01*
D02*
G37*
G36*
X211828Y374100D02*
X210100D01*
Y372372D01*
X210875Y372692D01*
X211508Y373325D01*
X211828Y374100D01*
D02*
G37*
G36*
X209100D02*
X207372D01*
X207693Y373325D01*
X208326Y372692D01*
X209100Y372372D01*
Y374100D01*
D02*
G37*
G36*
X238048Y376750D02*
X237152D01*
X236326Y376408D01*
X235693Y375775D01*
X235350Y374948D01*
Y374052D01*
X235693Y373225D01*
X236326Y372592D01*
X237152Y372250D01*
X238048D01*
X238875Y372592D01*
X239508Y373225D01*
X239850Y374052D01*
Y374948D01*
X239508Y375775D01*
X238875Y376408D01*
X238048Y376750D01*
D02*
G37*
G36*
X116453Y375500D02*
X113000D01*
Y372047D01*
X113020D01*
X114026Y372317D01*
X114927Y372837D01*
X115663Y373573D01*
X116183Y374474D01*
X116453Y375480D01*
Y375500D01*
D02*
G37*
G36*
X112000D02*
X108547D01*
Y375480D01*
X108817Y374474D01*
X109337Y373573D01*
X110073Y372837D01*
X110974Y372317D01*
X111980Y372047D01*
X112000D01*
Y375500D01*
D02*
G37*
G36*
X205862Y369130D02*
Y367402D01*
X207590D01*
X207269Y368176D01*
X206636Y368809D01*
X205862Y369130D01*
D02*
G37*
G36*
X204862D02*
X204087Y368809D01*
X203454Y368176D01*
X203133Y367402D01*
X204862D01*
Y369130D01*
D02*
G37*
G36*
X207590Y366402D02*
X205862D01*
Y364673D01*
X206636Y364994D01*
X207269Y365627D01*
X207590Y366402D01*
D02*
G37*
G36*
X204862D02*
X203133D01*
X203454Y365627D01*
X204087Y364994D01*
X204862Y364673D01*
Y366402D01*
D02*
G37*
G36*
X113020Y369953D02*
X111980D01*
X110974Y369683D01*
X110073Y369163D01*
X109337Y368427D01*
X108817Y367526D01*
X108547Y366520D01*
Y365480D01*
X108817Y364474D01*
X109337Y363573D01*
X110073Y362837D01*
X110974Y362317D01*
X111980Y362047D01*
X113020D01*
X114026Y362317D01*
X114927Y362837D01*
X115663Y363573D01*
X116183Y364474D01*
X116453Y365480D01*
Y366520D01*
X116183Y367526D01*
X115663Y368427D01*
X114927Y369163D01*
X114026Y369683D01*
X113020Y369953D01*
D02*
G37*
G36*
X327200Y359528D02*
Y357800D01*
X328928D01*
X328608Y358575D01*
X327975Y359208D01*
X327200Y359528D01*
D02*
G37*
G36*
X326200D02*
X325426Y359208D01*
X324793Y358575D01*
X324472Y357800D01*
X326200D01*
Y359528D01*
D02*
G37*
G36*
X328928Y356800D02*
X327200D01*
Y355072D01*
X327975Y355393D01*
X328608Y356026D01*
X328928Y356800D01*
D02*
G37*
G36*
X326200D02*
X324472D01*
X324793Y356026D01*
X325426Y355393D01*
X326200Y355072D01*
Y356800D01*
D02*
G37*
G36*
X234648Y355050D02*
X233752D01*
X232926Y354708D01*
X232450Y354232D01*
X231975Y354708D01*
X231148Y355050D01*
X230252D01*
X229426Y354708D01*
X228793Y354075D01*
X228450Y353248D01*
Y352352D01*
X228793Y351525D01*
X229426Y350892D01*
X230252Y350550D01*
X231148D01*
X231975Y350892D01*
X232450Y351368D01*
X232926Y350892D01*
X233752Y350550D01*
X234648D01*
X235474Y350892D01*
X236107Y351525D01*
X236450Y352352D01*
Y353248D01*
X236107Y354075D01*
X235474Y354708D01*
X234648Y355050D01*
D02*
G37*
G36*
X179448Y355550D02*
X178552D01*
X177726Y355207D01*
X177093Y354574D01*
X176750Y353748D01*
Y353125D01*
X176730Y353098D01*
X176260Y352828D01*
X175635Y353087D01*
X174740D01*
X173913Y352745D01*
X173280Y352112D01*
X172938Y351285D01*
Y350389D01*
X172995Y350250D01*
X172661Y349750D01*
X172302D01*
X171476Y349408D01*
X170843Y348775D01*
X170593Y348173D01*
X170333Y347740D01*
X169438D01*
X168611Y347397D01*
X167978Y346764D01*
X167635Y345937D01*
Y345042D01*
X167898Y344407D01*
X167516Y344024D01*
X167225Y344145D01*
X166330D01*
X165503Y343802D01*
X164870Y343169D01*
X164527Y342342D01*
Y341447D01*
X164870Y340620D01*
X165503Y339987D01*
X166330Y339645D01*
X167225D01*
X168052Y339987D01*
X168685Y340620D01*
X169027Y341447D01*
Y342342D01*
X168764Y342977D01*
X169147Y343360D01*
X169438Y343239D01*
X170333D01*
X171160Y343582D01*
X171792Y344215D01*
X172042Y344817D01*
X172302Y345250D01*
X173198D01*
X174024Y345592D01*
X174657Y346226D01*
X175000Y347052D01*
Y347948D01*
X174942Y348087D01*
X175276Y348587D01*
X175635D01*
X176462Y348930D01*
X177095Y349563D01*
X177438Y350389D01*
Y351012D01*
X177458Y351039D01*
X177928Y351309D01*
X178552Y351050D01*
X179448D01*
X180274Y351393D01*
X180907Y352026D01*
X181250Y352852D01*
Y353748D01*
X180907Y354574D01*
X180274Y355207D01*
X179448Y355550D01*
D02*
G37*
G36*
X113020Y359953D02*
X111980D01*
X110974Y359683D01*
X110073Y359163D01*
X109337Y358427D01*
X108817Y357526D01*
X108547Y356520D01*
Y355480D01*
X108817Y354474D01*
X109337Y353573D01*
X110073Y352837D01*
X110974Y352317D01*
X111980Y352047D01*
X113020D01*
X114026Y352317D01*
X114927Y352837D01*
X115663Y353573D01*
X116183Y354474D01*
X116453Y355480D01*
Y356520D01*
X116183Y357526D01*
X115663Y358427D01*
X114927Y359163D01*
X114026Y359683D01*
X113020Y359953D01*
D02*
G37*
G36*
X415913Y369268D02*
X414087D01*
X412297Y368912D01*
X410610Y368213D01*
X409092Y367199D01*
X407801Y365908D01*
X406787Y364390D01*
X406088Y362703D01*
X405732Y360913D01*
Y359087D01*
X406088Y357297D01*
X406787Y355610D01*
X407801Y354092D01*
X409092Y352801D01*
X410610Y351787D01*
X412297Y351089D01*
X414087Y350732D01*
X415913D01*
X417703Y351089D01*
X419390Y351787D01*
X420908Y352801D01*
X422199Y354092D01*
X423213Y355610D01*
X423912Y357297D01*
X424268Y359087D01*
Y360913D01*
X423912Y362703D01*
X423213Y364390D01*
X422199Y365908D01*
X420908Y367199D01*
X419390Y368213D01*
X417703Y368912D01*
X415913Y369268D01*
D02*
G37*
G36*
X154248Y352550D02*
X153352D01*
X152525Y352207D01*
X151892Y351574D01*
X151550Y350748D01*
Y349852D01*
X151892Y349026D01*
X152525Y348393D01*
X153352Y348050D01*
X154248D01*
X155075Y348393D01*
X155708Y349026D01*
X156050Y349852D01*
Y350748D01*
X155708Y351574D01*
X155075Y352207D01*
X154248Y352550D01*
D02*
G37*
G36*
X304000Y372811D02*
X301984D01*
X299992Y372496D01*
X298074Y371872D01*
X296278Y370957D01*
X294646Y369772D01*
X293220Y368346D01*
X292035Y366714D01*
X291120Y364918D01*
X290497Y363000D01*
X290181Y361008D01*
Y358992D01*
X290497Y357000D01*
X291120Y355082D01*
X292035Y353286D01*
X293220Y351654D01*
X294646Y350228D01*
X296278Y349043D01*
X298074Y348128D01*
X299992Y347504D01*
X301984Y347189D01*
X304000D01*
X305992Y347504D01*
X307910Y348128D01*
X309707Y349043D01*
X311338Y350228D01*
X312764Y351654D01*
X313949Y353286D01*
X314865Y355082D01*
X315488Y357000D01*
X315803Y358992D01*
Y361008D01*
X315488Y363000D01*
X314865Y364918D01*
X313949Y366714D01*
X312764Y368346D01*
X311338Y369772D01*
X309707Y370957D01*
X307910Y371872D01*
X305992Y372496D01*
X304000Y372811D01*
D02*
G37*
G36*
X161048Y348756D02*
X160152D01*
X159326Y348413D01*
X158693Y347780D01*
X158350Y346954D01*
Y346058D01*
X158693Y345231D01*
X159326Y344598D01*
X160152Y344256D01*
X161048D01*
X161874Y344598D01*
X162507Y345231D01*
X162850Y346058D01*
Y346954D01*
X162507Y347780D01*
X161874Y348413D01*
X161048Y348756D01*
D02*
G37*
G36*
X182648Y350750D02*
X181752D01*
X180926Y350408D01*
X180292Y349775D01*
X179950Y348948D01*
Y348052D01*
X180292Y347225D01*
X180697Y346821D01*
X180807Y346398D01*
X180678Y346187D01*
X180191Y345700D01*
X179848Y344873D01*
Y343978D01*
X180191Y343151D01*
X180823Y342518D01*
X181650Y342175D01*
X182545D01*
X183372Y342518D01*
X184005Y343151D01*
X184348Y343978D01*
Y344873D01*
X184005Y345700D01*
X183601Y346104D01*
X183491Y346527D01*
X183620Y346738D01*
X184107Y347225D01*
X184450Y348052D01*
Y348948D01*
X184107Y349775D01*
X183475Y350408D01*
X182648Y350750D01*
D02*
G37*
G36*
X113020Y349953D02*
X111980D01*
X110974Y349683D01*
X110073Y349163D01*
X109337Y348427D01*
X108817Y347526D01*
X108547Y346520D01*
Y345480D01*
X108817Y344474D01*
X109337Y343573D01*
X110073Y342837D01*
X110974Y342317D01*
X111980Y342047D01*
X113020D01*
X114026Y342317D01*
X114927Y342837D01*
X115663Y343573D01*
X116183Y344474D01*
X116453Y345480D01*
Y346520D01*
X116183Y347526D01*
X115663Y348427D01*
X114927Y349163D01*
X114026Y349683D01*
X113020Y349953D01*
D02*
G37*
G36*
X201498Y343163D02*
X200603D01*
X199776Y342821D01*
X199143Y342188D01*
X198801Y341361D01*
Y340466D01*
X199143Y339639D01*
X199776Y339006D01*
X200603Y338663D01*
X201498D01*
X202325Y339006D01*
X202958Y339639D01*
X203301Y340466D01*
Y341361D01*
X202958Y342188D01*
X202325Y342821D01*
X201498Y343163D01*
D02*
G37*
G36*
X138848Y345550D02*
X137952D01*
X137126Y345208D01*
X136493Y344574D01*
X136150Y343748D01*
Y342852D01*
X136344Y342384D01*
X136334Y342346D01*
X135994Y341922D01*
X135324D01*
X134497Y341579D01*
X133864Y340946D01*
X133522Y340119D01*
Y339224D01*
X133864Y338397D01*
X134497Y337764D01*
X135324Y337422D01*
X136219D01*
X137046Y337764D01*
X137679Y338397D01*
X138022Y339224D01*
Y340119D01*
X137828Y340588D01*
X137838Y340626D01*
X138177Y341050D01*
X138848D01*
X139674Y341392D01*
X140307Y342025D01*
X140650Y342852D01*
Y343748D01*
X140307Y344574D01*
X139674Y345208D01*
X138848Y345550D01*
D02*
G37*
G36*
X158298Y340750D02*
X157402D01*
X156576Y340407D01*
X155942Y339774D01*
X155600Y338948D01*
Y338052D01*
X155942Y337226D01*
X156576Y336593D01*
X157402Y336250D01*
X158298D01*
X159125Y336593D01*
X159757Y337226D01*
X160100Y338052D01*
Y338948D01*
X159757Y339774D01*
X159125Y340407D01*
X158298Y340750D01*
D02*
G37*
G36*
X180971Y336328D02*
Y334600D01*
X182699D01*
X182378Y335374D01*
X181745Y336007D01*
X180971Y336328D01*
D02*
G37*
G36*
X179971D02*
X179196Y336007D01*
X178563Y335374D01*
X178243Y334600D01*
X179971D01*
Y336328D01*
D02*
G37*
G36*
X306688Y338568D02*
X305793D01*
X304966Y338225D01*
X304333Y337592D01*
X303991Y336765D01*
Y335870D01*
X304333Y335043D01*
X304966Y334410D01*
X305793Y334068D01*
X306688D01*
X307515Y334410D01*
X308148Y335043D01*
X308491Y335870D01*
Y336765D01*
X308148Y337592D01*
X307515Y338225D01*
X306688Y338568D01*
D02*
G37*
G36*
X205698Y338550D02*
X204802D01*
X203976Y338208D01*
X203343Y337575D01*
X203000Y336748D01*
Y335852D01*
X203343Y335026D01*
X203976Y334392D01*
X204802Y334050D01*
X205698D01*
X206524Y334392D01*
X207157Y335026D01*
X207500Y335852D01*
Y336748D01*
X207157Y337575D01*
X206524Y338208D01*
X205698Y338550D01*
D02*
G37*
G36*
X164548Y337950D02*
X163652D01*
X162826Y337608D01*
X162192Y336975D01*
X161850Y336148D01*
Y335252D01*
X162192Y334425D01*
X162826Y333792D01*
X163652Y333450D01*
X164548D01*
X165375Y333792D01*
X166007Y334425D01*
X166350Y335252D01*
Y336148D01*
X166007Y336975D01*
X165375Y337608D01*
X164548Y337950D01*
D02*
G37*
G36*
X113020Y339953D02*
X111980D01*
X110974Y339683D01*
X110073Y339163D01*
X109337Y338427D01*
X108817Y337526D01*
X108547Y336520D01*
Y335480D01*
X108817Y334474D01*
X109337Y333573D01*
X110073Y332837D01*
X110974Y332317D01*
X111980Y332047D01*
X113020D01*
X114026Y332317D01*
X114927Y332837D01*
X115663Y333573D01*
X116183Y334474D01*
X116453Y335480D01*
Y336520D01*
X116183Y337526D01*
X115663Y338427D01*
X114927Y339163D01*
X114026Y339683D01*
X113020Y339953D01*
D02*
G37*
G36*
X182699Y333600D02*
X180971D01*
Y331872D01*
X181745Y332192D01*
X182378Y332825D01*
X182699Y333600D01*
D02*
G37*
G36*
X179971D02*
X178243D01*
X178563Y332825D01*
X179196Y332192D01*
X179971Y331872D01*
Y333600D01*
D02*
G37*
G36*
X246148Y332350D02*
X245252D01*
X244426Y332008D01*
X243793Y331375D01*
X243450Y330548D01*
Y329652D01*
X243793Y328825D01*
X244426Y328192D01*
X245252Y327850D01*
X246148D01*
X246974Y328192D01*
X247607Y328825D01*
X247950Y329652D01*
Y330548D01*
X247607Y331375D01*
X246974Y332008D01*
X246148Y332350D01*
D02*
G37*
G36*
X138982Y332200D02*
X138087D01*
X137260Y331857D01*
X136627Y331224D01*
X136285Y330398D01*
Y329502D01*
X136627Y328676D01*
X137260Y328043D01*
X138087Y327700D01*
X138982D01*
X139809Y328043D01*
X140442Y328676D01*
X140785Y329502D01*
Y330398D01*
X140442Y331224D01*
X139809Y331857D01*
X138982Y332200D01*
D02*
G37*
G36*
X210948Y330950D02*
X210052D01*
X209226Y330608D01*
X208593Y329975D01*
X208250Y329148D01*
Y328252D01*
X208593Y327426D01*
X209226Y326793D01*
X210052Y326450D01*
X210948D01*
X211774Y326793D01*
X212407Y327426D01*
X212750Y328252D01*
Y329148D01*
X212407Y329975D01*
X211774Y330608D01*
X210948Y330950D01*
D02*
G37*
G36*
X131128Y330078D02*
X130233D01*
X129406Y329735D01*
X128773Y329102D01*
X128430Y328275D01*
Y327380D01*
X128773Y326553D01*
X129406Y325920D01*
X130233Y325578D01*
X131128D01*
X131955Y325920D01*
X132588Y326553D01*
X132930Y327380D01*
Y328275D01*
X132588Y329102D01*
X131955Y329735D01*
X131128Y330078D01*
D02*
G37*
G36*
X375848Y329850D02*
X374952D01*
X374126Y329507D01*
X373493Y328874D01*
X373150Y328048D01*
Y327152D01*
X373493Y326325D01*
X374126Y325693D01*
X374952Y325350D01*
X375848D01*
X376675Y325693D01*
X377308Y326325D01*
X377650Y327152D01*
Y328048D01*
X377308Y328874D01*
X376675Y329507D01*
X375848Y329850D01*
D02*
G37*
G36*
X124348Y328550D02*
X123452D01*
X122626Y328207D01*
X121993Y327574D01*
X121650Y326748D01*
Y325852D01*
X121993Y325026D01*
X122626Y324393D01*
X123452Y324050D01*
X124348D01*
X125174Y324393D01*
X125807Y325026D01*
X126150Y325852D01*
Y326748D01*
X125807Y327574D01*
X125174Y328207D01*
X124348Y328550D01*
D02*
G37*
G36*
X113020Y329953D02*
X111980D01*
X110974Y329683D01*
X110073Y329163D01*
X109337Y328427D01*
X108817Y327526D01*
X108547Y326520D01*
Y325480D01*
X108817Y324474D01*
X109337Y323573D01*
X110073Y322837D01*
X110974Y322317D01*
X111980Y322047D01*
X113020D01*
X114026Y322317D01*
X114927Y322837D01*
X115663Y323573D01*
X116183Y324474D01*
X116453Y325480D01*
Y326520D01*
X116183Y327526D01*
X115663Y328427D01*
X114927Y329163D01*
X114026Y329683D01*
X113020Y329953D01*
D02*
G37*
G36*
X151498Y324465D02*
X150602D01*
X149776Y324122D01*
X149143Y323489D01*
X148800Y322662D01*
Y321767D01*
X149143Y320940D01*
X149776Y320307D01*
X150602Y319965D01*
X151498D01*
X152324Y320307D01*
X152957Y320940D01*
X153300Y321767D01*
Y322662D01*
X152957Y323489D01*
X152324Y324122D01*
X151498Y324465D01*
D02*
G37*
G36*
X182848Y329150D02*
X181952D01*
X181125Y328807D01*
X180492Y328174D01*
X180150Y327348D01*
Y326452D01*
X180492Y325625D01*
X181125Y324992D01*
X181711Y324750D01*
X181612Y324250D01*
X181052D01*
X180226Y323907D01*
X179593Y323274D01*
X179250Y322448D01*
Y321552D01*
X179593Y320725D01*
X180226Y320093D01*
X181052Y319750D01*
X181948D01*
X182774Y320093D01*
X183407Y320725D01*
X183750Y321552D01*
Y322448D01*
X183407Y323274D01*
X182774Y323907D01*
X182189Y324150D01*
X182288Y324650D01*
X182848D01*
X183675Y324992D01*
X184308Y325625D01*
X184650Y326452D01*
Y327348D01*
X184308Y328174D01*
X183675Y328807D01*
X182848Y329150D01*
D02*
G37*
G36*
X258548Y319150D02*
X257652D01*
X256825Y318808D01*
X256192Y318175D01*
X255850Y317348D01*
Y316452D01*
X256192Y315626D01*
X256825Y314992D01*
X257652Y314650D01*
X258548D01*
X259374Y314992D01*
X260008Y315626D01*
X260350Y316452D01*
Y317348D01*
X260008Y318175D01*
X259374Y318808D01*
X258548Y319150D01*
D02*
G37*
G36*
X186477Y318863D02*
X185582D01*
X184755Y318520D01*
X184122Y317887D01*
X183780Y317060D01*
Y316165D01*
X184122Y315338D01*
X184755Y314705D01*
X185582Y314363D01*
X186477D01*
X187304Y314705D01*
X187937Y315338D01*
X188280Y316165D01*
Y317060D01*
X187937Y317887D01*
X187304Y318520D01*
X186477Y318863D01*
D02*
G37*
G36*
X243900Y314028D02*
Y312300D01*
X245628D01*
X245307Y313074D01*
X244674Y313707D01*
X243900Y314028D01*
D02*
G37*
G36*
X242900D02*
X242126Y313707D01*
X241493Y313074D01*
X241172Y312300D01*
X242900D01*
Y314028D01*
D02*
G37*
G36*
X116453Y319953D02*
X108547D01*
Y312047D01*
X116453D01*
Y319953D01*
D02*
G37*
G36*
X104500Y313628D02*
Y311900D01*
X106228D01*
X105907Y312674D01*
X105274Y313307D01*
X104500Y313628D01*
D02*
G37*
G36*
X103500D02*
X102726Y313307D01*
X102093Y312674D01*
X101772Y311900D01*
X103500D01*
Y313628D01*
D02*
G37*
G36*
X223548Y314750D02*
X222652D01*
X221826Y314407D01*
X221193Y313774D01*
X220850Y312948D01*
Y312052D01*
X221193Y311226D01*
X221826Y310593D01*
X222652Y310250D01*
X223548D01*
X224375Y310593D01*
X225008Y311226D01*
X225350Y312052D01*
Y312948D01*
X225008Y313774D01*
X224375Y314407D01*
X223548Y314750D01*
D02*
G37*
G36*
X235448Y314650D02*
X234552D01*
X233726Y314307D01*
X233092Y313674D01*
X232750Y312848D01*
Y311952D01*
X233092Y311125D01*
X233726Y310492D01*
X234552Y310150D01*
X235448D01*
X236275Y310492D01*
X236908Y311125D01*
X237250Y311952D01*
Y312848D01*
X236908Y313674D01*
X236275Y314307D01*
X235448Y314650D01*
D02*
G37*
G36*
X211448Y314450D02*
X210552D01*
X209725Y314107D01*
X209092Y313474D01*
X208750Y312648D01*
Y311752D01*
X209092Y310926D01*
X209725Y310293D01*
X210552Y309950D01*
X211448D01*
X212275Y310293D01*
X212908Y310926D01*
X213250Y311752D01*
Y312648D01*
X212908Y313474D01*
X212275Y314107D01*
X211448Y314450D01*
D02*
G37*
G36*
X245628Y311300D02*
X243900D01*
Y309572D01*
X244674Y309893D01*
X245307Y310525D01*
X245628Y311300D01*
D02*
G37*
G36*
X242900D02*
X241172D01*
X241493Y310525D01*
X242126Y309893D01*
X242900Y309572D01*
Y311300D01*
D02*
G37*
G36*
X106228Y310900D02*
X104500D01*
Y309172D01*
X105274Y309492D01*
X105907Y310125D01*
X106228Y310900D01*
D02*
G37*
G36*
X103500D02*
X101772D01*
X102093Y310125D01*
X102726Y309492D01*
X103500Y309172D01*
Y310900D01*
D02*
G37*
G36*
X187948Y312250D02*
X187052D01*
X186225Y311908D01*
X185592Y311275D01*
X185250Y310448D01*
Y309552D01*
X185592Y308726D01*
X186225Y308092D01*
X186115Y307597D01*
X185793Y307275D01*
X185450Y306448D01*
Y305968D01*
X184950Y305634D01*
X184670Y305750D01*
X183775D01*
X182948Y305408D01*
X182315Y304774D01*
X181972Y303948D01*
Y303052D01*
X182315Y302225D01*
X182948Y301592D01*
X183775Y301250D01*
X184670D01*
X185497Y301592D01*
X186130Y302225D01*
X186472Y303052D01*
Y303532D01*
X186972Y303866D01*
X187252Y303750D01*
X188148D01*
X188974Y304093D01*
X189608Y304726D01*
X189950Y305552D01*
Y306448D01*
X189608Y307275D01*
X188974Y307908D01*
X189085Y308403D01*
X189408Y308726D01*
X189750Y309552D01*
Y310448D01*
X189408Y311275D01*
X188775Y311908D01*
X187948Y312250D01*
D02*
G37*
G36*
X210098Y309500D02*
X209202D01*
X208376Y309157D01*
X207743Y308524D01*
X207400Y307698D01*
Y306802D01*
X207743Y305976D01*
X208376Y305343D01*
X209202Y305000D01*
X210098D01*
X210925Y305343D01*
X211558Y305976D01*
X211900Y306802D01*
Y307698D01*
X211558Y308524D01*
X210925Y309157D01*
X210098Y309500D01*
D02*
G37*
G36*
X215598Y308472D02*
X214702D01*
X213876Y308129D01*
X213243Y307496D01*
X212900Y306669D01*
Y305774D01*
X213243Y304947D01*
X213876Y304314D01*
X214702Y303972D01*
X215598D01*
X216424Y304314D01*
X217057Y304947D01*
X217400Y305774D01*
Y306669D01*
X217057Y307496D01*
X216424Y308129D01*
X215598Y308472D01*
D02*
G37*
G36*
X139248Y308250D02*
X138352D01*
X137525Y307908D01*
X136892Y307275D01*
X136550Y306448D01*
Y305552D01*
X136892Y304726D01*
X137525Y304093D01*
X138352Y303750D01*
X139248D01*
X140075Y304093D01*
X140708Y304726D01*
X141050Y305552D01*
Y306448D01*
X140708Y307275D01*
X140075Y307908D01*
X139248Y308250D01*
D02*
G37*
G36*
X383600Y303928D02*
Y302200D01*
X385328D01*
X385008Y302975D01*
X384374Y303608D01*
X383600Y303928D01*
D02*
G37*
G36*
X382600D02*
X381825Y303608D01*
X381192Y302975D01*
X380872Y302200D01*
X382600D01*
Y303928D01*
D02*
G37*
G36*
X245348Y305150D02*
X244452D01*
X243625Y304807D01*
X242992Y304174D01*
X242650Y303348D01*
Y302452D01*
X242992Y301625D01*
X243625Y300992D01*
X244452Y300650D01*
X245348D01*
X246175Y300992D01*
X246808Y301625D01*
X247150Y302452D01*
Y303348D01*
X246808Y304174D01*
X246175Y304807D01*
X245348Y305150D01*
D02*
G37*
G36*
X138665Y301694D02*
Y299965D01*
X140394D01*
X140073Y300740D01*
X139440Y301373D01*
X138665Y301694D01*
D02*
G37*
G36*
X137665D02*
X136891Y301373D01*
X136258Y300740D01*
X135937Y299965D01*
X137665D01*
Y301694D01*
D02*
G37*
G36*
X385328Y301200D02*
X383600D01*
Y299472D01*
X384374Y299793D01*
X385008Y300426D01*
X385328Y301200D01*
D02*
G37*
G36*
X382600D02*
X380872D01*
X381192Y300426D01*
X381825Y299793D01*
X382600Y299472D01*
Y301200D01*
D02*
G37*
G36*
X189395Y302236D02*
X188500D01*
X187673Y301894D01*
X187040Y301261D01*
X186697Y300434D01*
Y299539D01*
X186864Y299136D01*
X186482Y298753D01*
X186248Y298850D01*
X185352D01*
X184526Y298507D01*
X183893Y297874D01*
X183550Y297048D01*
Y296152D01*
X183652Y295906D01*
X183544Y295774D01*
X183249Y295573D01*
X182518Y295875D01*
X181623D01*
X180796Y295533D01*
X180163Y294900D01*
X179821Y294073D01*
Y293178D01*
X180163Y292351D01*
X180796Y291718D01*
X181623Y291375D01*
X182518D01*
X183345Y291718D01*
X183978Y292351D01*
X184321Y293178D01*
Y294073D01*
X184219Y294320D01*
X184327Y294452D01*
X184622Y294653D01*
X185352Y294350D01*
X186248D01*
X187074Y294692D01*
X187707Y295325D01*
X188050Y296152D01*
Y297048D01*
X187883Y297450D01*
X188266Y297833D01*
X188500Y297736D01*
X189395D01*
X190222Y298079D01*
X190855Y298712D01*
X191198Y299539D01*
Y300434D01*
X190855Y301261D01*
X190222Y301894D01*
X189395Y302236D01*
D02*
G37*
G36*
X235448Y302250D02*
X234552D01*
X233726Y301907D01*
X233092Y301274D01*
X232750Y300448D01*
Y299552D01*
X233092Y298726D01*
X233726Y298093D01*
X234552Y297750D01*
X235448D01*
X236275Y298093D01*
X236908Y298726D01*
X237250Y299552D01*
Y300448D01*
X236908Y301274D01*
X236275Y301907D01*
X235448Y302250D01*
D02*
G37*
G36*
X140394Y298965D02*
X138665D01*
Y297237D01*
X139440Y297558D01*
X140073Y298191D01*
X140394Y298965D01*
D02*
G37*
G36*
X137665D02*
X135937D01*
X136258Y298191D01*
X136891Y297558D01*
X137665Y297237D01*
Y298965D01*
D02*
G37*
G36*
X223448Y298750D02*
X222552D01*
X221726Y298408D01*
X221093Y297775D01*
X220750Y296948D01*
Y296052D01*
X221093Y295226D01*
X221726Y294592D01*
X222552Y294250D01*
X223448D01*
X224274Y294592D01*
X224907Y295226D01*
X225250Y296052D01*
Y296948D01*
X224907Y297775D01*
X224274Y298408D01*
X223448Y298750D01*
D02*
G37*
G36*
X359008Y316811D02*
X356992D01*
X355000Y316496D01*
X353082Y315872D01*
X351286Y314957D01*
X349654Y313772D01*
X348228Y312346D01*
X347043Y310714D01*
X346128Y308918D01*
X345504Y307000D01*
X345189Y305008D01*
Y302992D01*
X345504Y301000D01*
X346128Y299082D01*
X347043Y297286D01*
X348228Y295654D01*
X349654Y294228D01*
X351286Y293043D01*
X353082Y292128D01*
X355000Y291504D01*
X356992Y291189D01*
X359008D01*
X361000Y291504D01*
X362918Y292128D01*
X364714Y293043D01*
X366346Y294228D01*
X367772Y295654D01*
X368957Y297286D01*
X369872Y299082D01*
X370496Y301000D01*
X370811Y302992D01*
Y305008D01*
X370496Y307000D01*
X369872Y308918D01*
X368957Y310714D01*
X367772Y312346D01*
X366346Y313772D01*
X364714Y314957D01*
X362918Y315872D01*
X361000Y316496D01*
X359008Y316811D01*
D02*
G37*
G36*
X210998Y295350D02*
X210102D01*
X209276Y295007D01*
X208643Y294374D01*
X208300Y293548D01*
Y292652D01*
X208643Y291826D01*
X209276Y291193D01*
X210102Y290850D01*
X210998D01*
X211824Y291193D01*
X212457Y291826D01*
X212800Y292652D01*
Y293548D01*
X212457Y294374D01*
X211824Y295007D01*
X210998Y295350D01*
D02*
G37*
G36*
X199323Y291950D02*
X198428D01*
X197601Y291607D01*
X196968Y290974D01*
X196626Y290148D01*
Y289252D01*
X196968Y288425D01*
X197601Y287792D01*
X198428Y287450D01*
X199323D01*
X200150Y287792D01*
X200783Y288425D01*
X201126Y289252D01*
Y290148D01*
X200783Y290974D01*
X200150Y291607D01*
X199323Y291950D01*
D02*
G37*
G36*
X310580Y291790D02*
X309685D01*
X308858Y291447D01*
X308225Y290814D01*
X307882Y289987D01*
Y289092D01*
X308225Y288265D01*
X308858Y287632D01*
X309685Y287290D01*
X310580D01*
X311407Y287632D01*
X312040Y288265D01*
X312382Y289092D01*
Y289987D01*
X312040Y290814D01*
X311407Y291447D01*
X310580Y291790D01*
D02*
G37*
G36*
X211007Y286276D02*
Y284548D01*
X212735D01*
X212414Y285322D01*
X211781Y285955D01*
X211007Y286276D01*
D02*
G37*
G36*
X210007D02*
X209232Y285955D01*
X208599Y285322D01*
X208278Y284548D01*
X210007D01*
Y286276D01*
D02*
G37*
G36*
X212735Y283548D02*
X211007D01*
Y281820D01*
X211781Y282140D01*
X212414Y282773D01*
X212735Y283548D01*
D02*
G37*
G36*
X210007D02*
X208278D01*
X208599Y282773D01*
X209232Y282140D01*
X210007Y281820D01*
Y283548D01*
D02*
G37*
G36*
X149700Y281028D02*
Y279300D01*
X151428D01*
X151108Y280075D01*
X150475Y280708D01*
X149700Y281028D01*
D02*
G37*
G36*
X148700D02*
X147925Y280708D01*
X147292Y280075D01*
X146972Y279300D01*
X148700D01*
Y281028D01*
D02*
G37*
G36*
X151428Y278300D02*
X149700D01*
Y276572D01*
X150475Y276892D01*
X151108Y277525D01*
X151428Y278300D01*
D02*
G37*
G36*
X148700D02*
X146972D01*
X147292Y277525D01*
X147925Y276892D01*
X148700Y276572D01*
Y278300D01*
D02*
G37*
G36*
X241083Y277206D02*
X240188D01*
X239361Y276863D01*
X238885Y276388D01*
X238410Y276863D01*
X237583Y277206D01*
X236688D01*
X235861Y276863D01*
X235228Y276230D01*
X234885Y275403D01*
Y274508D01*
X235228Y273681D01*
X235861Y273048D01*
X236688Y272706D01*
X237583D01*
X238410Y273048D01*
X238885Y273524D01*
X239361Y273048D01*
X240188Y272706D01*
X241083D01*
X241910Y273048D01*
X242543Y273681D01*
X242885Y274508D01*
Y275403D01*
X242543Y276230D01*
X241910Y276863D01*
X241083Y277206D01*
D02*
G37*
G36*
X433180Y274760D02*
X431742D01*
X430332Y274479D01*
X429003Y273929D01*
X427808Y273130D01*
X426791Y272114D01*
X426782Y272100D01*
X420679D01*
X420670Y272114D01*
X419653Y273130D01*
X418458Y273929D01*
X417129Y274479D01*
X415719Y274760D01*
X414281D01*
X412871Y274479D01*
X411543Y273929D01*
X410347Y273130D01*
X409330Y272114D01*
X409321Y272100D01*
X403218D01*
X403209Y272114D01*
X402192Y273130D01*
X400997Y273929D01*
X399669Y274479D01*
X398258Y274760D01*
X396820D01*
X395410Y274479D01*
X394082Y273929D01*
X392886Y273130D01*
X391870Y272114D01*
X391071Y270918D01*
X390521Y269590D01*
X390240Y268179D01*
Y266742D01*
X390521Y265332D01*
X391071Y264003D01*
X391870Y262808D01*
X392886Y261791D01*
X392900Y261782D01*
Y255679D01*
X392886Y255670D01*
X391870Y254653D01*
X391861Y254640D01*
X371268D01*
X370889Y254741D01*
Y255259D01*
X371413Y255399D01*
X372539Y256049D01*
X373459Y256969D01*
X374108Y258094D01*
X374445Y259350D01*
Y260650D01*
X374108Y261906D01*
X373459Y263031D01*
X372539Y263951D01*
X371413Y264601D01*
X370158Y264937D01*
X368858D01*
X367763Y264644D01*
X359970D01*
Y269596D01*
X353905D01*
Y271217D01*
X353820Y271646D01*
X353576Y272010D01*
X353576Y272010D01*
X351793Y273793D01*
X351429Y274036D01*
X351000Y274122D01*
X351000Y274121D01*
X333000D01*
X332892Y274100D01*
X332608D01*
X332500Y274121D01*
X318541D01*
X317748Y274450D01*
X316852D01*
X316025Y274108D01*
X315392Y273475D01*
X315050Y272648D01*
Y271752D01*
X315392Y270925D01*
X315868Y270450D01*
X315392Y269974D01*
X315050Y269148D01*
Y268252D01*
X315392Y267425D01*
X316025Y266792D01*
X316852Y266450D01*
X317748D01*
X317900Y266513D01*
X319207Y265207D01*
X319207Y265207D01*
X319571Y264964D01*
X320000Y264878D01*
X320000Y264879D01*
X325000D01*
X325100Y264500D01*
X328100D01*
Y264879D01*
X329630D01*
Y263000D01*
X333673D01*
Y269996D01*
X329630D01*
Y267122D01*
X328100D01*
Y267500D01*
X325100D01*
X325000Y267122D01*
X320465D01*
X319487Y268099D01*
X319550Y268252D01*
Y269148D01*
X319208Y269974D01*
X318732Y270450D01*
X319208Y270925D01*
X319550Y271752D01*
Y271879D01*
X332500D01*
X332608Y271900D01*
X332892D01*
X333000Y271879D01*
X350535D01*
X351662Y270752D01*
Y265543D01*
X351662Y265543D01*
X351683Y265435D01*
Y262478D01*
X351345Y261662D01*
X351187Y260461D01*
X351345Y259260D01*
X351683Y258443D01*
Y255404D01*
X355982D01*
X356283Y255364D01*
X356283Y255364D01*
X367734D01*
X368127Y255259D01*
Y254741D01*
X367602Y254601D01*
X366476Y253951D01*
X365557Y253031D01*
X364907Y251906D01*
X364571Y250650D01*
Y249350D01*
X364907Y248094D01*
X365557Y246969D01*
X366476Y246049D01*
X367124Y245676D01*
X367256Y245022D01*
X367192Y244937D01*
X364571D01*
Y235063D01*
X374445D01*
Y244860D01*
X374445Y244937D01*
X374630Y245360D01*
X391861D01*
X391870Y245347D01*
X392886Y244330D01*
X394082Y243531D01*
X395410Y242981D01*
X396820Y242701D01*
X398258D01*
X399669Y242981D01*
X400997Y243531D01*
X402192Y244330D01*
X403209Y245347D01*
X404008Y246543D01*
X404558Y247871D01*
X404839Y249281D01*
Y250719D01*
X404558Y252129D01*
X404008Y253457D01*
X403209Y254653D01*
X402192Y255670D01*
X402179Y255679D01*
Y261782D01*
X402192Y261791D01*
X403209Y262808D01*
X403218Y262821D01*
X409321D01*
X409330Y262808D01*
X410347Y261791D01*
X411543Y260992D01*
X412871Y260442D01*
X414281Y260161D01*
X415719D01*
X417129Y260442D01*
X418458Y260992D01*
X419653Y261791D01*
X420670Y262808D01*
X420679Y262821D01*
X426782D01*
X426791Y262808D01*
X427808Y261791D01*
X427821Y261782D01*
Y255679D01*
X427808Y255670D01*
X426791Y254653D01*
X425992Y253457D01*
X425442Y252129D01*
X425161Y250719D01*
Y249281D01*
X425442Y247871D01*
X425992Y246543D01*
X426791Y245347D01*
X427808Y244330D01*
X427821Y244321D01*
Y238218D01*
X427808Y238209D01*
X426791Y237192D01*
X426782Y237179D01*
X420679D01*
X420670Y237192D01*
X419653Y238209D01*
X418458Y239008D01*
X417129Y239558D01*
X415719Y239839D01*
X414281D01*
X412871Y239558D01*
X411543Y239008D01*
X410347Y238209D01*
X409330Y237192D01*
X409321Y237179D01*
X403218D01*
X403209Y237192D01*
X402192Y238209D01*
X400997Y239008D01*
X399669Y239558D01*
X398258Y239839D01*
X396820D01*
X395410Y239558D01*
X394082Y239008D01*
X392886Y238209D01*
X391870Y237192D01*
X391071Y235997D01*
X390521Y234668D01*
X390240Y233258D01*
Y231821D01*
X390521Y230410D01*
X391071Y229082D01*
X391870Y227886D01*
X392886Y226870D01*
X394082Y226071D01*
X395410Y225521D01*
X396820Y225240D01*
X398258D01*
X399669Y225521D01*
X400997Y226071D01*
X402192Y226870D01*
X403209Y227886D01*
X403218Y227900D01*
X409321D01*
X409330Y227886D01*
X410347Y226870D01*
X411543Y226071D01*
X412871Y225521D01*
X414281Y225240D01*
X415719D01*
X417129Y225521D01*
X418458Y226071D01*
X419653Y226870D01*
X420670Y227886D01*
X420679Y227900D01*
X426782D01*
X426791Y227886D01*
X427808Y226870D01*
X427868Y226829D01*
Y207760D01*
X427571Y206650D01*
Y205350D01*
X427907Y204094D01*
X428557Y202969D01*
X429476Y202049D01*
X430602Y201399D01*
X431127Y201259D01*
Y200741D01*
X430602Y200601D01*
X429476Y199951D01*
X428557Y199031D01*
X427907Y197906D01*
X427571Y196650D01*
Y195350D01*
X427907Y194094D01*
X428557Y192969D01*
X429476Y192049D01*
X430123Y191676D01*
X430256Y191022D01*
X430192Y190937D01*
X427571D01*
Y181063D01*
X437445D01*
Y190937D01*
X434824D01*
X434760Y191022D01*
X434892Y191676D01*
X435539Y192049D01*
X436458Y192969D01*
X437108Y194094D01*
X437445Y195350D01*
Y196650D01*
X437108Y197906D01*
X436458Y199031D01*
X435539Y199951D01*
X434413Y200601D01*
X433889Y200741D01*
Y201259D01*
X434413Y201399D01*
X435539Y202049D01*
X436458Y202969D01*
X437108Y204094D01*
X437445Y205350D01*
Y206650D01*
X437148Y207760D01*
Y226904D01*
X438130Y227886D01*
X438929Y229082D01*
X439479Y230410D01*
X439760Y231821D01*
Y233258D01*
X439479Y234668D01*
X438929Y235997D01*
X438130Y237192D01*
X437114Y238209D01*
X437100Y238218D01*
Y244321D01*
X437114Y244330D01*
X438130Y245347D01*
X438929Y246543D01*
X439479Y247871D01*
X439760Y249281D01*
Y250719D01*
X439479Y252129D01*
X438929Y253457D01*
X438130Y254653D01*
X437114Y255670D01*
X437100Y255679D01*
Y261782D01*
X437114Y261791D01*
X438130Y262808D01*
X438929Y264003D01*
X439479Y265332D01*
X439760Y266742D01*
Y268179D01*
X439479Y269590D01*
X438929Y270918D01*
X438130Y272114D01*
X437114Y273130D01*
X435918Y273929D01*
X434590Y274479D01*
X433180Y274760D01*
D02*
G37*
G36*
X250198Y267650D02*
X249302D01*
X248476Y267307D01*
X247843Y266674D01*
X247500Y265848D01*
Y264952D01*
X247843Y264125D01*
X248476Y263492D01*
X249302Y263150D01*
X250198D01*
X251025Y263492D01*
X251658Y264125D01*
X252000Y264952D01*
Y265848D01*
X251658Y266674D01*
X251025Y267307D01*
X250198Y267650D01*
D02*
G37*
G36*
X338717Y269996D02*
X334673D01*
Y263000D01*
X338717D01*
Y269996D01*
D02*
G37*
G36*
X179548Y266950D02*
X178652D01*
X177825Y266607D01*
X177192Y265974D01*
X176850Y265148D01*
Y264252D01*
X177192Y263425D01*
X177825Y262792D01*
X178652Y262450D01*
X179548D01*
X180375Y262792D01*
X181008Y263425D01*
X181350Y264252D01*
Y265148D01*
X181008Y265974D01*
X180375Y266607D01*
X179548Y266950D01*
D02*
G37*
G36*
X311824Y266446D02*
X310929D01*
X310102Y266104D01*
X309469Y265471D01*
X309126Y264644D01*
Y263749D01*
X309469Y262922D01*
X310102Y262288D01*
X310929Y261946D01*
X311824D01*
X312650Y262288D01*
X313283Y262922D01*
X313626Y263749D01*
Y264644D01*
X313283Y265471D01*
X312650Y266104D01*
X311824Y266446D01*
D02*
G37*
G36*
X138100Y262728D02*
Y261000D01*
X139828D01*
X139507Y261774D01*
X138874Y262407D01*
X138100Y262728D01*
D02*
G37*
G36*
X137100D02*
X136326Y262407D01*
X135693Y261774D01*
X135372Y261000D01*
X137100D01*
Y262728D01*
D02*
G37*
G36*
X227748Y260850D02*
X226852D01*
X226026Y260507D01*
X225550Y260032D01*
X225075Y260507D01*
X224248Y260850D01*
X223352D01*
X222526Y260507D01*
X221892Y259875D01*
X221550Y259048D01*
Y258152D01*
X221892Y257326D01*
X222526Y256693D01*
X223352Y256350D01*
X224248D01*
X225075Y256693D01*
X225550Y257168D01*
X226026Y256693D01*
X226852Y256350D01*
X227748D01*
X228574Y256693D01*
X229207Y257326D01*
X229550Y258152D01*
Y259048D01*
X229207Y259875D01*
X228574Y260507D01*
X227748Y260850D01*
D02*
G37*
G36*
X150700Y260728D02*
Y259000D01*
X152428D01*
X152108Y259774D01*
X151474Y260407D01*
X150700Y260728D01*
D02*
G37*
G36*
X149700D02*
X148925Y260407D01*
X148293Y259774D01*
X147972Y259000D01*
X149700D01*
Y260728D01*
D02*
G37*
G36*
X139828Y260000D02*
X138100D01*
Y258272D01*
X138874Y258593D01*
X139507Y259226D01*
X139828Y260000D01*
D02*
G37*
G36*
X137100D02*
X135372D01*
X135693Y259226D01*
X136326Y258593D01*
X137100Y258272D01*
Y260000D01*
D02*
G37*
G36*
X144148Y261650D02*
X143252D01*
X142426Y261308D01*
X141793Y260675D01*
X141450Y259848D01*
Y258952D01*
X141793Y258125D01*
X142426Y257492D01*
X143252Y257150D01*
X144148D01*
X144975Y257492D01*
X145607Y258125D01*
X145950Y258952D01*
Y259848D01*
X145607Y260675D01*
X144975Y261308D01*
X144148Y261650D01*
D02*
G37*
G36*
X162498Y261550D02*
X161602D01*
X160775Y261208D01*
X160143Y260575D01*
X159800Y259748D01*
Y258852D01*
X160143Y258026D01*
X160775Y257393D01*
X161602Y257050D01*
X162498D01*
X163324Y257393D01*
X163958Y258026D01*
X164300Y258852D01*
Y259748D01*
X163958Y260575D01*
X163324Y261208D01*
X162498Y261550D01*
D02*
G37*
G36*
X152428Y258000D02*
X150700D01*
Y256272D01*
X151474Y256592D01*
X152108Y257225D01*
X152428Y258000D01*
D02*
G37*
G36*
X149700D02*
X147972D01*
X148293Y257225D01*
X148925Y256592D01*
X149700Y256272D01*
Y258000D01*
D02*
G37*
G36*
X338717Y262000D02*
X334673D01*
Y255004D01*
X338717D01*
Y262000D01*
D02*
G37*
G36*
X333673D02*
X329630D01*
Y255004D01*
X333673D01*
Y262000D01*
D02*
G37*
G36*
X158148Y258650D02*
X157252D01*
X156425Y258308D01*
X155792Y257675D01*
X155450Y256848D01*
Y255952D01*
X155792Y255125D01*
X156425Y254492D01*
X157252Y254150D01*
X158148D01*
X158975Y254492D01*
X159608Y255125D01*
X159950Y255952D01*
Y256848D01*
X159608Y257675D01*
X158975Y258308D01*
X158148Y258650D01*
D02*
G37*
G36*
X222884Y255526D02*
Y253798D01*
X224612D01*
X224291Y254573D01*
X223658Y255205D01*
X222884Y255526D01*
D02*
G37*
G36*
X221884D02*
X221109Y255205D01*
X220476Y254573D01*
X220156Y253798D01*
X221884D01*
Y255526D01*
D02*
G37*
G36*
X217678Y257062D02*
X216783D01*
X215956Y256719D01*
X215323Y256086D01*
X214981Y255259D01*
Y254364D01*
X215323Y253537D01*
X215956Y252904D01*
X216783Y252562D01*
X217678D01*
X218505Y252904D01*
X219138Y253537D01*
X219481Y254364D01*
Y255259D01*
X219138Y256086D01*
X218505Y256719D01*
X217678Y257062D01*
D02*
G37*
G36*
X224612Y252798D02*
X222884D01*
Y251070D01*
X223658Y251391D01*
X224291Y252024D01*
X224612Y252798D01*
D02*
G37*
G36*
X221884D02*
X220156D01*
X220476Y252024D01*
X221109Y251391D01*
X221884Y251070D01*
Y252798D01*
D02*
G37*
G36*
X137548Y253650D02*
X136652D01*
X135826Y253308D01*
X135193Y252675D01*
X134850Y251848D01*
Y250952D01*
X135193Y250126D01*
X135826Y249493D01*
X136652Y249150D01*
X137548D01*
X138374Y249493D01*
X139007Y250126D01*
X139350Y250952D01*
Y251848D01*
X139007Y252675D01*
X138374Y253308D01*
X137548Y253650D01*
D02*
G37*
G36*
X319551Y248708D02*
Y246979D01*
X321279D01*
X320958Y247754D01*
X320325Y248387D01*
X319551Y248708D01*
D02*
G37*
G36*
X318551D02*
X317776Y248387D01*
X317143Y247754D01*
X316823Y246979D01*
X318551D01*
Y248708D01*
D02*
G37*
G36*
X134248Y249550D02*
X133352D01*
X132526Y249207D01*
X131893Y248574D01*
X131550Y247748D01*
Y246852D01*
X131893Y246025D01*
X132526Y245392D01*
X133352Y245050D01*
X134248D01*
X135074Y245392D01*
X135707Y246025D01*
X136050Y246852D01*
Y247748D01*
X135707Y248574D01*
X135074Y249207D01*
X134248Y249550D01*
D02*
G37*
G36*
X118748Y252933D02*
X110252D01*
Y244437D01*
X118748D01*
Y252933D01*
D02*
G37*
G36*
X321279Y245979D02*
X319551D01*
Y244251D01*
X320325Y244572D01*
X320958Y245205D01*
X321279Y245979D01*
D02*
G37*
G36*
X318551D02*
X316823D01*
X317143Y245205D01*
X317776Y244572D01*
X318551Y244251D01*
Y245979D01*
D02*
G37*
G36*
X415913Y259268D02*
X414087D01*
X412297Y258911D01*
X410610Y258213D01*
X409092Y257199D01*
X407801Y255908D01*
X406787Y254390D01*
X406088Y252703D01*
X405732Y250913D01*
Y249087D01*
X406088Y247297D01*
X406787Y245610D01*
X407801Y244092D01*
X409092Y242801D01*
X410610Y241787D01*
X412297Y241089D01*
X414087Y240732D01*
X415913D01*
X417703Y241089D01*
X419390Y241787D01*
X420908Y242801D01*
X422199Y244092D01*
X423213Y245610D01*
X423912Y247297D01*
X424268Y249087D01*
Y250913D01*
X423912Y252703D01*
X423213Y254390D01*
X422199Y255908D01*
X420908Y257199D01*
X419390Y258213D01*
X417703Y258911D01*
X415913Y259268D01*
D02*
G37*
G36*
X182582Y247950D02*
X181687D01*
X180860Y247607D01*
X180227Y246974D01*
X179884Y246147D01*
Y245252D01*
X180227Y244425D01*
X180860Y243792D01*
X181687Y243450D01*
X182582D01*
X183409Y243792D01*
X183969Y244353D01*
X183997Y244347D01*
X184630Y243714D01*
X185457Y243372D01*
X186352D01*
X186434Y243406D01*
X186788Y243052D01*
X186744Y242948D01*
Y242052D01*
X187087Y241226D01*
X187720Y240593D01*
X188547Y240250D01*
X189442D01*
X190269Y240593D01*
X190902Y241226D01*
X191244Y242052D01*
Y242948D01*
X190902Y243775D01*
X190269Y244408D01*
X189442Y244750D01*
X188547D01*
X188465Y244716D01*
X188111Y245070D01*
X188155Y245174D01*
Y246069D01*
X187812Y246896D01*
X187179Y247529D01*
X186352Y247872D01*
X185457D01*
X184630Y247529D01*
X184070Y246969D01*
X184042Y246974D01*
X183409Y247607D01*
X182582Y247950D01*
D02*
G37*
G36*
X258848Y244150D02*
X257952D01*
X257125Y243808D01*
X256492Y243175D01*
X256150Y242348D01*
Y241452D01*
X256492Y240626D01*
X257125Y239992D01*
X257952Y239650D01*
X258848D01*
X259675Y239992D01*
X260308Y240626D01*
X260650Y241452D01*
Y242348D01*
X260308Y243175D01*
X259675Y243808D01*
X258848Y244150D01*
D02*
G37*
G36*
X155600Y239028D02*
Y237300D01*
X157328D01*
X157008Y238074D01*
X156375Y238707D01*
X155600Y239028D01*
D02*
G37*
G36*
X154600D02*
X153825Y238707D01*
X153192Y238074D01*
X152872Y237300D01*
X154600D01*
Y239028D01*
D02*
G37*
G36*
X296008Y262811D02*
X293992D01*
X292000Y262496D01*
X290082Y261872D01*
X288286Y260957D01*
X286654Y259772D01*
X285228Y258346D01*
X284043Y256714D01*
X283128Y254918D01*
X282504Y253000D01*
X282189Y251008D01*
Y248992D01*
X282504Y247000D01*
X283128Y245082D01*
X284043Y243286D01*
X285228Y241654D01*
X286654Y240228D01*
X288286Y239043D01*
X290082Y238128D01*
X292000Y237504D01*
X293992Y237189D01*
X296008D01*
X298000Y237504D01*
X299918Y238128D01*
X301714Y239043D01*
X303346Y240228D01*
X304772Y241654D01*
X305957Y243286D01*
X306872Y245082D01*
X307496Y247000D01*
X307811Y248992D01*
Y251008D01*
X307496Y253000D01*
X306872Y254918D01*
X305957Y256714D01*
X304772Y258346D01*
X303346Y259772D01*
X301714Y260957D01*
X299918Y261872D01*
X298000Y262496D01*
X296008Y262811D01*
D02*
G37*
G36*
X210648Y239885D02*
X209752D01*
X208926Y239542D01*
X208293Y238909D01*
X207950Y238083D01*
Y237187D01*
X208293Y236360D01*
X208926Y235728D01*
X209752Y235385D01*
X210648D01*
X211474Y235728D01*
X212107Y236360D01*
X212450Y237187D01*
Y238083D01*
X212107Y238909D01*
X211474Y239542D01*
X210648Y239885D01*
D02*
G37*
G36*
X115059Y243091D02*
X113941D01*
X112860Y242801D01*
X111892Y242242D01*
X111101Y241451D01*
X110541Y240482D01*
X110252Y239402D01*
Y238283D01*
X110541Y237203D01*
X111101Y236234D01*
X111892Y235443D01*
X112860Y234884D01*
X113941Y234594D01*
X115059D01*
X116140Y234884D01*
X117108Y235443D01*
X117899Y236234D01*
X118458Y237203D01*
X118748Y238283D01*
Y239402D01*
X118458Y240482D01*
X117899Y241451D01*
X117108Y242242D01*
X116140Y242801D01*
X115059Y243091D01*
D02*
G37*
G36*
X157328Y236300D02*
X155600D01*
Y234572D01*
X156375Y234893D01*
X157008Y235525D01*
X157328Y236300D01*
D02*
G37*
G36*
X154600D02*
X152872D01*
X153192Y235525D01*
X153825Y234893D01*
X154600Y234572D01*
Y236300D01*
D02*
G37*
G36*
X276897Y236928D02*
X276002D01*
X275175Y236586D01*
X274542Y235953D01*
X274200Y235126D01*
Y234231D01*
X274542Y233404D01*
X275175Y232771D01*
X276002Y232428D01*
X276897D01*
X277724Y232771D01*
X278357Y233404D01*
X278699Y234231D01*
Y235126D01*
X278357Y235953D01*
X277724Y236586D01*
X276897Y236928D01*
D02*
G37*
G36*
X192692Y235450D02*
X191797D01*
X190970Y235107D01*
X190337Y234474D01*
X189995Y233648D01*
Y232752D01*
X190337Y231926D01*
X190970Y231293D01*
X191797Y230950D01*
X192692D01*
X193519Y231293D01*
X194152Y231926D01*
X194494Y232752D01*
Y233648D01*
X194152Y234474D01*
X193519Y235107D01*
X192692Y235450D01*
D02*
G37*
G36*
X199500Y231428D02*
Y229700D01*
X201228D01*
X200907Y230474D01*
X200274Y231107D01*
X199500Y231428D01*
D02*
G37*
G36*
X198500D02*
X197725Y231107D01*
X197092Y230474D01*
X196772Y229700D01*
X198500D01*
Y231428D01*
D02*
G37*
G36*
X310248Y233885D02*
X309352D01*
X308525Y233542D01*
X307892Y232909D01*
X307550Y232083D01*
Y231187D01*
X307892Y230360D01*
X308525Y229728D01*
X309352Y229385D01*
X310248D01*
X311074Y229728D01*
X311707Y230360D01*
X312050Y231187D01*
Y232083D01*
X311707Y232909D01*
X311074Y233542D01*
X310248Y233885D01*
D02*
G37*
G36*
X151765Y233072D02*
X150870D01*
X150043Y232730D01*
X149410Y232097D01*
X149068Y231270D01*
Y230375D01*
X149410Y229548D01*
X150043Y228915D01*
X150870Y228572D01*
X151765D01*
X152592Y228915D01*
X153225Y229548D01*
X153568Y230375D01*
Y231270D01*
X153225Y232097D01*
X152592Y232730D01*
X151765Y233072D01*
D02*
G37*
G36*
X269755Y229231D02*
Y227503D01*
X271483D01*
X271162Y228278D01*
X270529Y228911D01*
X269755Y229231D01*
D02*
G37*
G36*
X268755D02*
X267980Y228911D01*
X267347Y228278D01*
X267026Y227503D01*
X268755D01*
Y229231D01*
D02*
G37*
G36*
X201228Y228700D02*
X199500D01*
Y226972D01*
X200274Y227292D01*
X200907Y227925D01*
X201228Y228700D01*
D02*
G37*
G36*
X198500D02*
X196772D01*
X197092Y227925D01*
X197725Y227292D01*
X198500Y226972D01*
Y228700D01*
D02*
G37*
G36*
X271483Y226503D02*
X269755D01*
Y224775D01*
X270529Y225096D01*
X271162Y225729D01*
X271483Y226503D01*
D02*
G37*
G36*
X268755D02*
X267026D01*
X267347Y225729D01*
X267980Y225096D01*
X268755Y224775D01*
Y226503D01*
D02*
G37*
G36*
X115059Y233248D02*
X113941D01*
X112860Y232959D01*
X111892Y232399D01*
X111101Y231608D01*
X110541Y230640D01*
X110252Y229559D01*
Y228441D01*
X110541Y227360D01*
X111101Y226392D01*
X111892Y225601D01*
X112860Y225042D01*
X113941Y224752D01*
X115059D01*
X116140Y225042D01*
X117108Y225601D01*
X117899Y226392D01*
X118458Y227360D01*
X118748Y228441D01*
Y229559D01*
X118458Y230640D01*
X117899Y231608D01*
X117108Y232399D01*
X116140Y232959D01*
X115059Y233248D01*
D02*
G37*
G36*
X294514Y226251D02*
Y224522D01*
X296243D01*
X295922Y225297D01*
X295289Y225930D01*
X294514Y226251D01*
D02*
G37*
G36*
X293514D02*
X292740Y225930D01*
X292107Y225297D01*
X291786Y224522D01*
X293514D01*
Y226251D01*
D02*
G37*
G36*
X148148Y229550D02*
X147252D01*
X146425Y229207D01*
X145792Y228574D01*
X145450Y227748D01*
Y226852D01*
X145792Y226026D01*
X146425Y225393D01*
X147252Y225050D01*
X148148D01*
X148593Y225235D01*
X148976Y224852D01*
X148850Y224548D01*
Y223652D01*
X149193Y222826D01*
X149826Y222193D01*
X150652Y221850D01*
X151548D01*
X152374Y222193D01*
X153007Y222826D01*
X153350Y223652D01*
Y224548D01*
X153007Y225375D01*
X152374Y226008D01*
X151548Y226350D01*
X150652D01*
X150207Y226165D01*
X149824Y226548D01*
X149950Y226852D01*
Y227748D01*
X149608Y228574D01*
X148975Y229207D01*
X148148Y229550D01*
D02*
G37*
G36*
X296243Y223522D02*
X294514D01*
Y221794D01*
X295289Y222115D01*
X295922Y222748D01*
X296243Y223522D01*
D02*
G37*
G36*
X293514D02*
X291786D01*
X292107Y222748D01*
X292740Y222115D01*
X293514Y221794D01*
Y223522D01*
D02*
G37*
G36*
X271148Y223850D02*
X270252D01*
X269426Y223507D01*
X268793Y222874D01*
X268450Y222048D01*
Y221152D01*
X268793Y220325D01*
X269426Y219692D01*
X270252Y219350D01*
X271148D01*
X271974Y219692D01*
X272607Y220325D01*
X272950Y221152D01*
Y222048D01*
X272607Y222874D01*
X271974Y223507D01*
X271148Y223850D01*
D02*
G37*
G36*
X268900Y219328D02*
Y217600D01*
X270628D01*
X270307Y218374D01*
X269674Y219007D01*
X268900Y219328D01*
D02*
G37*
G36*
X267900D02*
X267126Y219007D01*
X266493Y218374D01*
X266172Y217600D01*
X267900D01*
Y219328D01*
D02*
G37*
G36*
X147861Y222956D02*
X146966D01*
X146139Y222614D01*
X145506Y221981D01*
X145163Y221154D01*
Y220259D01*
X145506Y219432D01*
X146139Y218799D01*
X146966Y218456D01*
X147861D01*
X148506Y218723D01*
X148892Y218350D01*
X148850Y218248D01*
Y217352D01*
X149072Y216817D01*
X148727Y216548D01*
X148655Y216515D01*
X147848Y216850D01*
X146952D01*
X146125Y216508D01*
X145492Y215875D01*
X145150Y215048D01*
Y214152D01*
X145492Y213326D01*
X146125Y212692D01*
X146952Y212350D01*
X147848D01*
X148674Y212692D01*
X149308Y213326D01*
X149650Y214152D01*
Y215048D01*
X149428Y215582D01*
X149773Y215852D01*
X149845Y215885D01*
X150652Y215550D01*
X151548D01*
X152374Y215893D01*
X153007Y216526D01*
X153350Y217352D01*
Y218248D01*
X153007Y219075D01*
X152374Y219707D01*
X151548Y220050D01*
X150652D01*
X150007Y219783D01*
X149621Y220156D01*
X149663Y220259D01*
Y221154D01*
X149321Y221981D01*
X148688Y222614D01*
X147861Y222956D01*
D02*
G37*
G36*
X115059Y223406D02*
X113941D01*
X112860Y223116D01*
X111892Y222557D01*
X111101Y221766D01*
X110541Y220797D01*
X110252Y219717D01*
Y218598D01*
X110541Y217518D01*
X111101Y216549D01*
X111892Y215758D01*
X112860Y215199D01*
X113941Y214910D01*
X115059D01*
X116140Y215199D01*
X117108Y215758D01*
X117899Y216549D01*
X118458Y217518D01*
X118748Y218598D01*
Y219717D01*
X118458Y220797D01*
X117899Y221766D01*
X117108Y222557D01*
X116140Y223116D01*
X115059Y223406D01*
D02*
G37*
G36*
X270628Y216600D02*
X268900D01*
Y214872D01*
X269674Y215193D01*
X270307Y215826D01*
X270628Y216600D01*
D02*
G37*
G36*
X267900D02*
X266172D01*
X266493Y215826D01*
X267126Y215193D01*
X267900Y214872D01*
Y216600D01*
D02*
G37*
G36*
X195942Y224745D02*
X195047D01*
X194220Y224402D01*
X193587Y223769D01*
X193245Y222942D01*
Y222047D01*
X193587Y221220D01*
X194220Y220587D01*
X194860Y220322D01*
X194904Y219976D01*
X194901Y219783D01*
X194292Y219175D01*
X193950Y218348D01*
Y217452D01*
X194292Y216625D01*
X194925Y215992D01*
X195752Y215650D01*
X196224D01*
X196558Y215150D01*
X196350Y214648D01*
Y213752D01*
X196693Y212926D01*
X197326Y212293D01*
X198152Y211950D01*
X199048D01*
X199343Y212073D01*
X199592Y211874D01*
X199750Y211700D01*
Y210852D01*
X200093Y210026D01*
X200726Y209392D01*
X201552Y209050D01*
X202448D01*
X203274Y209392D01*
X203907Y210026D01*
X204250Y210852D01*
Y211748D01*
X203907Y212575D01*
X203274Y213208D01*
X202448Y213550D01*
X201552D01*
X201257Y213427D01*
X201008Y213626D01*
X200850Y213800D01*
Y214648D01*
X200507Y215475D01*
X199874Y216108D01*
X199048Y216450D01*
X198576D01*
X198242Y216950D01*
X198450Y217452D01*
Y218348D01*
X198108Y219175D01*
X197475Y219808D01*
X196834Y220073D01*
X196790Y220419D01*
X196794Y220612D01*
X197402Y221220D01*
X197745Y222047D01*
Y222942D01*
X197402Y223769D01*
X196769Y224402D01*
X195942Y224745D01*
D02*
G37*
G36*
X115059Y213563D02*
X113941D01*
X112860Y213274D01*
X111892Y212714D01*
X111101Y211923D01*
X110541Y210955D01*
X110252Y209874D01*
Y208756D01*
X110541Y207675D01*
X111101Y206707D01*
X111892Y205916D01*
X112860Y205356D01*
X113941Y205067D01*
X115059D01*
X116140Y205356D01*
X117108Y205916D01*
X117899Y206707D01*
X118458Y207675D01*
X118748Y208756D01*
Y209874D01*
X118458Y210955D01*
X117899Y211923D01*
X117108Y212714D01*
X116140Y213274D01*
X115059Y213563D01*
D02*
G37*
G36*
X172045Y212650D02*
X171150D01*
X170323Y212308D01*
X169690Y211674D01*
X169347Y210848D01*
Y209952D01*
X169690Y209125D01*
X170323Y208492D01*
X171150Y208150D01*
X171983D01*
X172185Y207961D01*
X172352Y207736D01*
X172150Y207248D01*
Y206352D01*
X172493Y205525D01*
X173126Y204892D01*
X173952Y204550D01*
X174848D01*
X175674Y204892D01*
X176307Y205525D01*
X176650Y206352D01*
Y207248D01*
X176307Y208074D01*
X175674Y208707D01*
X174848Y209050D01*
X174015D01*
X173812Y209239D01*
X173645Y209464D01*
X173847Y209952D01*
Y210848D01*
X173505Y211674D01*
X172872Y212308D01*
X172045Y212650D01*
D02*
G37*
G36*
X273225Y206759D02*
X272330D01*
X271503Y206416D01*
X270870Y205783D01*
X270527Y204956D01*
Y204061D01*
X270870Y203234D01*
X271503Y202601D01*
X272330Y202259D01*
X273225D01*
X274052Y202601D01*
X274685Y203234D01*
X275027Y204061D01*
Y204956D01*
X274685Y205783D01*
X274052Y206416D01*
X273225Y206759D01*
D02*
G37*
G36*
X383500Y200328D02*
Y198600D01*
X385228D01*
X384908Y199374D01*
X384275Y200008D01*
X383500Y200328D01*
D02*
G37*
G36*
X382500D02*
X381726Y200008D01*
X381093Y199374D01*
X380772Y198600D01*
X382500D01*
Y200328D01*
D02*
G37*
G36*
X229700Y199228D02*
Y197500D01*
X231428D01*
X231107Y198275D01*
X230474Y198907D01*
X229700Y199228D01*
D02*
G37*
G36*
X228700D02*
X227925Y198907D01*
X227292Y198275D01*
X226972Y197500D01*
X228700D01*
Y199228D01*
D02*
G37*
G36*
X208713Y198605D02*
Y196876D01*
X210441D01*
X210120Y197651D01*
X209487Y198284D01*
X208713Y198605D01*
D02*
G37*
G36*
X207713D02*
X206938Y198284D01*
X206305Y197651D01*
X205984Y196876D01*
X207713D01*
Y198605D01*
D02*
G37*
G36*
X245548Y201350D02*
X244652D01*
X243826Y201008D01*
X243193Y200375D01*
X242850Y199548D01*
Y198652D01*
X243193Y197826D01*
X243826Y197193D01*
X244652Y196850D01*
X245548D01*
X246375Y197193D01*
X247007Y197826D01*
X247350Y198652D01*
Y199548D01*
X247007Y200375D01*
X246375Y201008D01*
X245548Y201350D01*
D02*
G37*
G36*
X269900Y197728D02*
Y196000D01*
X271628D01*
X271307Y196774D01*
X270674Y197407D01*
X269900Y197728D01*
D02*
G37*
G36*
X268900D02*
X268126Y197407D01*
X267493Y196774D01*
X267172Y196000D01*
X268900D01*
Y197728D01*
D02*
G37*
G36*
X385228Y197600D02*
X383500D01*
Y195872D01*
X384275Y196193D01*
X384908Y196826D01*
X385228Y197600D01*
D02*
G37*
G36*
X382500D02*
X380772D01*
X381093Y196826D01*
X381726Y196193D01*
X382500Y195872D01*
Y197600D01*
D02*
G37*
G36*
X213748Y200250D02*
X212852D01*
X212025Y199908D01*
X211392Y199275D01*
X211050Y198448D01*
Y197552D01*
X211392Y196725D01*
X212025Y196092D01*
X212852Y195750D01*
X213748D01*
X214575Y196092D01*
X215208Y196725D01*
X215550Y197552D01*
Y198448D01*
X215208Y199275D01*
X214575Y199908D01*
X213748Y200250D01*
D02*
G37*
G36*
X115059Y203720D02*
X113941D01*
X112860Y203431D01*
X111892Y202872D01*
X111101Y202081D01*
X110541Y201112D01*
X110252Y200032D01*
Y198913D01*
X110541Y197833D01*
X111101Y196864D01*
X111892Y196073D01*
X112860Y195514D01*
X113941Y195224D01*
X115059D01*
X116140Y195514D01*
X117108Y196073D01*
X117899Y196864D01*
X118458Y197833D01*
X118748Y198913D01*
Y200032D01*
X118458Y201112D01*
X117899Y202081D01*
X117108Y202872D01*
X116140Y203431D01*
X115059Y203720D01*
D02*
G37*
G36*
X231428Y196500D02*
X229700D01*
Y194772D01*
X230474Y195092D01*
X231107Y195726D01*
X231428Y196500D01*
D02*
G37*
G36*
X228700D02*
X226972D01*
X227292Y195726D01*
X227925Y195092D01*
X228700Y194772D01*
Y196500D01*
D02*
G37*
G36*
X177798Y202550D02*
X176902D01*
X176075Y202207D01*
X175443Y201574D01*
X175100Y200748D01*
Y199852D01*
X175443Y199025D01*
X176075Y198392D01*
X176902Y198050D01*
X177798D01*
X177808Y198055D01*
X177863Y198015D01*
X178141Y197651D01*
X177850Y196948D01*
Y196052D01*
X178192Y195226D01*
X178825Y194592D01*
X179652Y194250D01*
X180548D01*
X181375Y194592D01*
X182008Y195226D01*
X182350Y196052D01*
Y196948D01*
X182008Y197775D01*
X181375Y198407D01*
X180548Y198750D01*
X179652D01*
X179641Y198746D01*
X179587Y198785D01*
X179308Y199149D01*
X179600Y199852D01*
Y200748D01*
X179258Y201574D01*
X178624Y202207D01*
X177798Y202550D01*
D02*
G37*
G36*
X210441Y195876D02*
X208713D01*
Y194148D01*
X209487Y194469D01*
X210120Y195102D01*
X210441Y195876D01*
D02*
G37*
G36*
X207713D02*
X205984D01*
X206305Y195102D01*
X206938Y194469D01*
X207713Y194148D01*
Y195876D01*
D02*
G37*
G36*
X323659Y201841D02*
X322764D01*
X321937Y201498D01*
X321304Y200865D01*
X320961Y200038D01*
Y199143D01*
X321304Y198316D01*
X321779Y197841D01*
X321304Y197365D01*
X320961Y196538D01*
Y195643D01*
X321304Y194816D01*
X321937Y194183D01*
X322764Y193841D01*
X323659D01*
X324486Y194183D01*
X325119Y194816D01*
X325462Y195643D01*
Y196538D01*
X325119Y197365D01*
X324643Y197841D01*
X325119Y198316D01*
X325462Y199143D01*
Y200038D01*
X325119Y200865D01*
X324486Y201498D01*
X323659Y201841D01*
D02*
G37*
G36*
X271628Y195000D02*
X269900D01*
Y193272D01*
X270674Y193593D01*
X271307Y194226D01*
X271628Y195000D01*
D02*
G37*
G36*
X268900D02*
X267172D01*
X267493Y194226D01*
X268126Y193593D01*
X268900Y193272D01*
Y195000D01*
D02*
G37*
G36*
X309948Y193950D02*
X309052D01*
X308225Y193607D01*
X307593Y192974D01*
X307250Y192148D01*
Y191252D01*
X307593Y190426D01*
X308225Y189793D01*
X309052Y189450D01*
X309948D01*
X310774Y189793D01*
X311407Y190426D01*
X311750Y191252D01*
Y192148D01*
X311407Y192974D01*
X310774Y193607D01*
X309948Y193950D01*
D02*
G37*
G36*
X359008Y208811D02*
X356992D01*
X355000Y208496D01*
X353082Y207872D01*
X351286Y206957D01*
X349654Y205772D01*
X348228Y204346D01*
X347043Y202714D01*
X346128Y200918D01*
X345504Y199000D01*
X345189Y197008D01*
Y194992D01*
X345504Y193000D01*
X346128Y191082D01*
X347043Y189286D01*
X348228Y187654D01*
X349654Y186228D01*
X351286Y185043D01*
X353082Y184128D01*
X355000Y183504D01*
X356992Y183189D01*
X359008D01*
X361000Y183504D01*
X362918Y184128D01*
X364714Y185043D01*
X366346Y186228D01*
X367772Y187654D01*
X368957Y189286D01*
X369872Y191082D01*
X370496Y193000D01*
X370811Y194992D01*
Y197008D01*
X370496Y199000D01*
X369872Y200918D01*
X368957Y202714D01*
X367772Y204346D01*
X366346Y205772D01*
X364714Y206957D01*
X362918Y207872D01*
X361000Y208496D01*
X359008Y208811D01*
D02*
G37*
G36*
X377260Y187520D02*
X376365D01*
X375538Y187177D01*
X374905Y186544D01*
X374563Y185717D01*
Y184822D01*
X374905Y183995D01*
X375538Y183362D01*
X376365Y183019D01*
X377260D01*
X378087Y183362D01*
X378720Y183995D01*
X379063Y184822D01*
Y185717D01*
X378720Y186544D01*
X378087Y187177D01*
X377260Y187520D01*
D02*
G37*
G36*
X170500Y184728D02*
Y183000D01*
X172228D01*
X171907Y183774D01*
X171274Y184407D01*
X170500Y184728D01*
D02*
G37*
G36*
X169500D02*
X168726Y184407D01*
X168093Y183774D01*
X167772Y183000D01*
X169500D01*
Y184728D01*
D02*
G37*
G36*
X229548Y190700D02*
X228652D01*
X227825Y190357D01*
X227192Y189725D01*
X226850Y188898D01*
Y188002D01*
X227192Y187176D01*
X227668Y186700D01*
X227192Y186224D01*
X226850Y185398D01*
Y184502D01*
X227192Y183676D01*
X227825Y183043D01*
X228652Y182700D01*
X229548D01*
X230375Y183043D01*
X231008Y183676D01*
X231350Y184502D01*
Y185398D01*
X231008Y186224D01*
X230532Y186700D01*
X231008Y187176D01*
X231350Y188002D01*
Y188898D01*
X231008Y189725D01*
X230375Y190357D01*
X229548Y190700D01*
D02*
G37*
G36*
X172228Y182000D02*
X170500D01*
Y180272D01*
X171274Y180593D01*
X171907Y181226D01*
X172228Y182000D01*
D02*
G37*
G36*
X169500D02*
X167772D01*
X168093Y181226D01*
X168726Y180593D01*
X169500Y180272D01*
Y182000D01*
D02*
G37*
G36*
X152300Y180528D02*
Y178800D01*
X154028D01*
X153708Y179575D01*
X153075Y180208D01*
X152300Y180528D01*
D02*
G37*
G36*
X151300D02*
X150525Y180208D01*
X149892Y179575D01*
X149572Y178800D01*
X151300D01*
Y180528D01*
D02*
G37*
G36*
X253748Y181750D02*
X252852D01*
X252026Y181407D01*
X251393Y180774D01*
X251050Y179948D01*
Y179052D01*
X251393Y178226D01*
X252026Y177593D01*
X252852Y177250D01*
X253748D01*
X254574Y177593D01*
X255207Y178226D01*
X255550Y179052D01*
Y179948D01*
X255207Y180774D01*
X254574Y181407D01*
X253748Y181750D01*
D02*
G37*
G36*
X154028Y177800D02*
X152300D01*
Y176072D01*
X153075Y176392D01*
X153708Y177025D01*
X154028Y177800D01*
D02*
G37*
G36*
X151300D02*
X149572D01*
X149892Y177025D01*
X150525Y176392D01*
X151300Y176072D01*
Y177800D01*
D02*
G37*
G36*
X321700Y176928D02*
X320925Y176608D01*
X320292Y175975D01*
X319972Y175200D01*
X321700D01*
Y176928D01*
D02*
G37*
G36*
X229548Y181950D02*
X228652D01*
X227825Y181607D01*
X227192Y180974D01*
X226850Y180148D01*
Y179252D01*
X227192Y178426D01*
X227668Y177950D01*
X227192Y177474D01*
X226850Y176648D01*
Y175752D01*
X227192Y174925D01*
X227825Y174293D01*
X228652Y173950D01*
X229548D01*
X230375Y174293D01*
X231008Y174925D01*
X231350Y175752D01*
Y176648D01*
X231008Y177474D01*
X230532Y177950D01*
X231008Y178426D01*
X231350Y179252D01*
Y180148D01*
X231008Y180974D01*
X230375Y181607D01*
X229548Y181950D01*
D02*
G37*
G36*
X321700Y174200D02*
X319972D01*
X320013Y174100D01*
X317207Y171293D01*
X316964Y170929D01*
X316878Y170500D01*
X316964Y170071D01*
X317207Y169707D01*
X317571Y169464D01*
X318000Y169378D01*
X318429Y169464D01*
X318793Y169707D01*
X321600Y172513D01*
X321700Y172472D01*
Y174200D01*
D02*
G37*
G36*
X322700Y176928D02*
Y174700D01*
Y172472D01*
X323475Y172792D01*
X324108Y173425D01*
X324171Y173578D01*
X329100D01*
Y173200D01*
X332100D01*
Y173578D01*
X334374D01*
X334468Y173351D01*
X335101Y172718D01*
X335928Y172375D01*
X336823D01*
X337650Y172718D01*
X338283Y173351D01*
X338625Y174178D01*
Y175073D01*
X338283Y175900D01*
X337650Y176533D01*
X336823Y176875D01*
X335928D01*
X335101Y176533D01*
X334468Y175900D01*
X334436Y175822D01*
X332100D01*
Y176200D01*
X329100D01*
Y175822D01*
X324171D01*
X324108Y175975D01*
X323475Y176608D01*
X322700Y176928D01*
D02*
G37*
G36*
X263448Y175750D02*
X262552D01*
X261725Y175408D01*
X261092Y174775D01*
X260750Y173948D01*
Y173052D01*
X261092Y172225D01*
X261725Y171592D01*
X262552Y171250D01*
X263448D01*
X264275Y171592D01*
X264908Y172225D01*
X265250Y173052D01*
Y173948D01*
X264908Y174775D01*
X264275Y175408D01*
X263448Y175750D01*
D02*
G37*
G36*
X308048Y175650D02*
X307152D01*
X306326Y175308D01*
X305693Y174674D01*
X305350Y173848D01*
Y172952D01*
X305693Y172125D01*
X306326Y171493D01*
X307152Y171150D01*
X308048D01*
X308875Y171493D01*
X309507Y172125D01*
X309850Y172952D01*
Y173848D01*
X309507Y174674D01*
X308875Y175308D01*
X308048Y175650D01*
D02*
G37*
G36*
X188180Y169760D02*
X187961D01*
Y162961D01*
X194760D01*
Y163180D01*
X194479Y164590D01*
X193929Y165918D01*
X193130Y167114D01*
X192114Y168130D01*
X190918Y168929D01*
X189590Y169479D01*
X188180Y169760D01*
D02*
G37*
G36*
X186961D02*
X186742D01*
X185331Y169479D01*
X184003Y168929D01*
X182808Y168130D01*
X181791Y167114D01*
X180992Y165918D01*
X180442Y164590D01*
X180161Y163180D01*
Y162961D01*
X186961D01*
Y169760D01*
D02*
G37*
G36*
X170719D02*
X170500D01*
Y162961D01*
X177299D01*
Y163180D01*
X177019Y164590D01*
X176469Y165918D01*
X175670Y167114D01*
X174653Y168130D01*
X173458Y168929D01*
X172129Y169479D01*
X170719Y169760D01*
D02*
G37*
G36*
X169500D02*
X169281D01*
X167871Y169479D01*
X166542Y168929D01*
X165347Y168130D01*
X164330Y167114D01*
X163531Y165918D01*
X162981Y164590D01*
X162701Y163180D01*
Y162961D01*
X169500D01*
Y169760D01*
D02*
G37*
G36*
X153258D02*
X153039D01*
Y162961D01*
X159839D01*
Y163180D01*
X159558Y164590D01*
X159008Y165918D01*
X158209Y167114D01*
X157192Y168130D01*
X155997Y168929D01*
X154668Y169479D01*
X153258Y169760D01*
D02*
G37*
G36*
X152039D02*
X151821D01*
X150410Y169479D01*
X149082Y168929D01*
X147886Y168130D01*
X146870Y167114D01*
X146071Y165918D01*
X145521Y164590D01*
X145240Y163180D01*
Y162961D01*
X152039D01*
Y169760D01*
D02*
G37*
G36*
X330048Y166450D02*
X329152D01*
X328326Y166107D01*
X327693Y165474D01*
X327350Y164648D01*
Y163752D01*
X327413Y163600D01*
X326807Y162993D01*
X326564Y162629D01*
X326478Y162200D01*
X326479Y162200D01*
Y148520D01*
X290000D01*
X289610Y148442D01*
X289279Y148221D01*
X289058Y147890D01*
X288980Y147500D01*
Y130000D01*
X289058Y129610D01*
X289279Y129279D01*
X289610Y129058D01*
X290000Y128980D01*
X415000D01*
X415390Y129058D01*
X415721Y129279D01*
X415942Y129610D01*
X416020Y130000D01*
Y147500D01*
X415942Y147890D01*
X415721Y148221D01*
X415390Y148442D01*
X415000Y148520D01*
X328721D01*
Y161638D01*
X329129Y161960D01*
X329152Y161950D01*
X330048D01*
X330874Y162293D01*
X331507Y162926D01*
X331850Y163752D01*
Y164648D01*
X331507Y165474D01*
X330874Y166107D01*
X330048Y166450D01*
D02*
G37*
G36*
X258179Y169760D02*
X256742D01*
X255331Y169479D01*
X254003Y168929D01*
X252808Y168130D01*
X251791Y167114D01*
X250992Y165918D01*
X250442Y164590D01*
X250161Y163180D01*
Y161742D01*
X250442Y160331D01*
X250992Y159003D01*
X251791Y157808D01*
X252808Y156791D01*
X254003Y155992D01*
X255331Y155442D01*
X256742Y155161D01*
X258179D01*
X259590Y155442D01*
X260918Y155992D01*
X262114Y156791D01*
X263130Y157808D01*
X263929Y159003D01*
X264479Y160331D01*
X264760Y161742D01*
Y163180D01*
X264479Y164590D01*
X263929Y165918D01*
X263130Y167114D01*
X262114Y168130D01*
X260918Y168929D01*
X259590Y169479D01*
X258179Y169760D01*
D02*
G37*
G36*
X240719D02*
X239281D01*
X237871Y169479D01*
X236543Y168929D01*
X235347Y168130D01*
X234330Y167114D01*
X233531Y165918D01*
X232981Y164590D01*
X232701Y163180D01*
Y161742D01*
X232981Y160331D01*
X233531Y159003D01*
X234330Y157808D01*
X235347Y156791D01*
X236543Y155992D01*
X237871Y155442D01*
X239281Y155161D01*
X240719D01*
X242129Y155442D01*
X243458Y155992D01*
X244653Y156791D01*
X245670Y157808D01*
X246468Y159003D01*
X247019Y160331D01*
X247299Y161742D01*
Y163180D01*
X247019Y164590D01*
X246468Y165918D01*
X245670Y167114D01*
X244653Y168130D01*
X243458Y168929D01*
X242129Y169479D01*
X240719Y169760D01*
D02*
G37*
G36*
X223258D02*
X221820D01*
X220410Y169479D01*
X219082Y168929D01*
X217886Y168130D01*
X216870Y167114D01*
X216071Y165918D01*
X215521Y164590D01*
X215240Y163180D01*
Y161742D01*
X215521Y160331D01*
X216071Y159003D01*
X216870Y157808D01*
X217886Y156791D01*
X219082Y155992D01*
X220410Y155442D01*
X221820Y155161D01*
X223258D01*
X224669Y155442D01*
X225997Y155992D01*
X227192Y156791D01*
X228209Y157808D01*
X229008Y159003D01*
X229558Y160331D01*
X229839Y161742D01*
Y163180D01*
X229558Y164590D01*
X229008Y165918D01*
X228209Y167114D01*
X227192Y168130D01*
X225997Y168929D01*
X224669Y169479D01*
X223258Y169760D01*
D02*
G37*
G36*
X194760Y161961D02*
X187961D01*
Y155161D01*
X188180D01*
X189590Y155442D01*
X190918Y155992D01*
X192114Y156791D01*
X193130Y157808D01*
X193929Y159003D01*
X194479Y160331D01*
X194760Y161742D01*
Y161961D01*
D02*
G37*
G36*
X186961D02*
X180161D01*
Y161742D01*
X180442Y160331D01*
X180992Y159003D01*
X181791Y157808D01*
X182808Y156791D01*
X184003Y155992D01*
X185331Y155442D01*
X186742Y155161D01*
X186961D01*
Y161961D01*
D02*
G37*
G36*
X177299D02*
X170500D01*
Y155161D01*
X170719D01*
X172129Y155442D01*
X173458Y155992D01*
X174653Y156791D01*
X175670Y157808D01*
X176469Y159003D01*
X177019Y160331D01*
X177299Y161742D01*
Y161961D01*
D02*
G37*
G36*
X169500D02*
X162701D01*
Y161742D01*
X162981Y160331D01*
X163531Y159003D01*
X164330Y157808D01*
X165347Y156791D01*
X166542Y155992D01*
X167871Y155442D01*
X169281Y155161D01*
X169500D01*
Y161961D01*
D02*
G37*
G36*
X159839D02*
X153039D01*
Y155161D01*
X153258D01*
X154668Y155442D01*
X155997Y155992D01*
X157192Y156791D01*
X158209Y157808D01*
X159008Y159003D01*
X159558Y160331D01*
X159839Y161742D01*
Y161961D01*
D02*
G37*
G36*
X152039D02*
X145240D01*
Y161742D01*
X145521Y160331D01*
X146071Y159003D01*
X146870Y157808D01*
X147886Y156791D01*
X149082Y155992D01*
X150410Y155442D01*
X151821Y155161D01*
X152039D01*
Y161961D01*
D02*
G37*
G36*
X305862Y158362D02*
X299138D01*
Y151638D01*
X305862D01*
Y158362D01*
D02*
G37*
G36*
X410862Y158047D02*
X404138D01*
Y151323D01*
X410862D01*
Y158047D01*
D02*
G37*
G36*
X358362D02*
X351638D01*
Y151323D01*
X358362D01*
Y158047D01*
D02*
G37*
G36*
X188180Y152299D02*
X187961D01*
Y145500D01*
X194760D01*
Y145719D01*
X194479Y147129D01*
X193929Y148458D01*
X193130Y149653D01*
X192114Y150670D01*
X190918Y151469D01*
X189590Y152019D01*
X188180Y152299D01*
D02*
G37*
G36*
X186961D02*
X186742D01*
X185331Y152019D01*
X184003Y151469D01*
X182808Y150670D01*
X181791Y149653D01*
X180992Y148458D01*
X180442Y147129D01*
X180161Y145719D01*
Y145500D01*
X186961D01*
Y152299D01*
D02*
G37*
G36*
X153258D02*
X153039D01*
Y145500D01*
X159839D01*
Y145719D01*
X159558Y147129D01*
X159008Y148458D01*
X158209Y149653D01*
X157192Y150670D01*
X155997Y151469D01*
X154668Y152019D01*
X153258Y152299D01*
D02*
G37*
G36*
X152039D02*
X151821D01*
X150410Y152019D01*
X149082Y151469D01*
X147886Y150670D01*
X146870Y149653D01*
X146071Y148458D01*
X145521Y147129D01*
X145240Y145719D01*
Y145500D01*
X152039D01*
Y152299D01*
D02*
G37*
G36*
X258179D02*
X256742D01*
X255331Y152019D01*
X254003Y151469D01*
X252808Y150670D01*
X251791Y149653D01*
X250992Y148458D01*
X250442Y147129D01*
X250161Y145719D01*
Y144281D01*
X250442Y142871D01*
X250992Y141542D01*
X251791Y140347D01*
X252808Y139330D01*
X254003Y138531D01*
X255331Y137981D01*
X256742Y137701D01*
X258179D01*
X259590Y137981D01*
X260918Y138531D01*
X262114Y139330D01*
X263130Y140347D01*
X263929Y141542D01*
X264479Y142871D01*
X264760Y144281D01*
Y145719D01*
X264479Y147129D01*
X263929Y148458D01*
X263130Y149653D01*
X262114Y150670D01*
X260918Y151469D01*
X259590Y152019D01*
X258179Y152299D01*
D02*
G37*
G36*
X223258D02*
X221820D01*
X220410Y152019D01*
X219082Y151469D01*
X217886Y150670D01*
X216870Y149653D01*
X216071Y148458D01*
X215521Y147129D01*
X215240Y145719D01*
Y144281D01*
X215521Y142871D01*
X216071Y141542D01*
X216870Y140347D01*
X217886Y139330D01*
X219082Y138531D01*
X220410Y137981D01*
X221820Y137701D01*
X223258D01*
X224669Y137981D01*
X225997Y138531D01*
X227192Y139330D01*
X228209Y140347D01*
X229008Y141542D01*
X229558Y142871D01*
X229839Y144281D01*
Y145719D01*
X229558Y147129D01*
X229008Y148458D01*
X228209Y149653D01*
X227192Y150670D01*
X225997Y151469D01*
X224669Y152019D01*
X223258Y152299D01*
D02*
G37*
G36*
X194760Y144500D02*
X187961D01*
Y137701D01*
X188180D01*
X189590Y137981D01*
X190918Y138531D01*
X192114Y139330D01*
X193130Y140347D01*
X193929Y141542D01*
X194479Y142871D01*
X194760Y144281D01*
Y144500D01*
D02*
G37*
G36*
X186961D02*
X180161D01*
Y144281D01*
X180442Y142871D01*
X180992Y141542D01*
X181791Y140347D01*
X182808Y139330D01*
X184003Y138531D01*
X185331Y137981D01*
X186742Y137701D01*
X186961D01*
Y144500D01*
D02*
G37*
G36*
X159839D02*
X153039D01*
Y137701D01*
X153258D01*
X154668Y137981D01*
X155997Y138531D01*
X157192Y139330D01*
X158209Y140347D01*
X159008Y141542D01*
X159558Y142871D01*
X159839Y144281D01*
Y144500D01*
D02*
G37*
G36*
X152039D02*
X145240D01*
Y144281D01*
X145521Y142871D01*
X146071Y141542D01*
X146870Y140347D01*
X147886Y139330D01*
X149082Y138531D01*
X150410Y137981D01*
X151821Y137701D01*
X152039D01*
Y144500D01*
D02*
G37*
G36*
X240913Y154268D02*
X239087D01*
X237297Y153912D01*
X235610Y153213D01*
X234092Y152199D01*
X232801Y150908D01*
X231787Y149390D01*
X231088Y147703D01*
X230732Y145913D01*
Y144087D01*
X231088Y142297D01*
X231787Y140610D01*
X232801Y139092D01*
X234092Y137801D01*
X235610Y136787D01*
X237297Y136088D01*
X239087Y135732D01*
X240913D01*
X242703Y136088D01*
X244390Y136787D01*
X245908Y137801D01*
X247199Y139092D01*
X248213Y140610D01*
X248911Y142297D01*
X249268Y144087D01*
Y145913D01*
X248911Y147703D01*
X248213Y149390D01*
X247199Y150908D01*
X245908Y152199D01*
X244390Y153213D01*
X242703Y153912D01*
X240913Y154268D01*
D02*
G37*
G36*
X170913D02*
X169087D01*
X167297Y153912D01*
X165610Y153213D01*
X164092Y152199D01*
X162801Y150908D01*
X161787Y149390D01*
X161088Y147703D01*
X160732Y145913D01*
Y144087D01*
X161088Y142297D01*
X161787Y140610D01*
X162801Y139092D01*
X164092Y137801D01*
X165610Y136787D01*
X167297Y136088D01*
X169087Y135732D01*
X170913D01*
X172703Y136088D01*
X174390Y136787D01*
X175908Y137801D01*
X177199Y139092D01*
X178213Y140610D01*
X178912Y142297D01*
X179268Y144087D01*
Y145913D01*
X178912Y147703D01*
X178213Y149390D01*
X177199Y150908D01*
X175908Y152199D01*
X174390Y153213D01*
X172703Y153912D01*
X170913Y154268D01*
D02*
G37*
G36*
X188180Y134839D02*
X187961D01*
Y128039D01*
X194760D01*
Y128258D01*
X194479Y129668D01*
X193929Y130997D01*
X193130Y132192D01*
X192114Y133209D01*
X190918Y134008D01*
X189590Y134558D01*
X188180Y134839D01*
D02*
G37*
G36*
X186961D02*
X186742D01*
X185331Y134558D01*
X184003Y134008D01*
X182808Y133209D01*
X181791Y132192D01*
X180992Y130997D01*
X180442Y129668D01*
X180161Y128258D01*
Y128039D01*
X186961D01*
Y134839D01*
D02*
G37*
G36*
X170719D02*
X170500D01*
Y128039D01*
X177299D01*
Y128258D01*
X177019Y129668D01*
X176469Y130997D01*
X175670Y132192D01*
X174653Y133209D01*
X173458Y134008D01*
X172129Y134558D01*
X170719Y134839D01*
D02*
G37*
G36*
X169500D02*
X169281D01*
X167871Y134558D01*
X166542Y134008D01*
X165347Y133209D01*
X164330Y132192D01*
X163531Y130997D01*
X162981Y129668D01*
X162701Y128258D01*
Y128039D01*
X169500D01*
Y134839D01*
D02*
G37*
G36*
X153258D02*
X153039D01*
Y128039D01*
X159839D01*
Y128258D01*
X159558Y129668D01*
X159008Y130997D01*
X158209Y132192D01*
X157192Y133209D01*
X155997Y134008D01*
X154668Y134558D01*
X153258Y134839D01*
D02*
G37*
G36*
X152039D02*
X151821D01*
X150410Y134558D01*
X149082Y134008D01*
X147886Y133209D01*
X146870Y132192D01*
X146071Y130997D01*
X145521Y129668D01*
X145240Y128258D01*
Y128039D01*
X152039D01*
Y134839D01*
D02*
G37*
G36*
X258179D02*
X256742D01*
X255331Y134558D01*
X254003Y134008D01*
X252808Y133209D01*
X251791Y132192D01*
X250992Y130997D01*
X250442Y129668D01*
X250161Y128258D01*
Y126821D01*
X250442Y125410D01*
X250992Y124082D01*
X251791Y122886D01*
X252808Y121870D01*
X254003Y121071D01*
X255331Y120521D01*
X256742Y120240D01*
X258179D01*
X259590Y120521D01*
X260918Y121071D01*
X262114Y121870D01*
X263130Y122886D01*
X263929Y124082D01*
X264479Y125410D01*
X264760Y126821D01*
Y128258D01*
X264479Y129668D01*
X263929Y130997D01*
X263130Y132192D01*
X262114Y133209D01*
X260918Y134008D01*
X259590Y134558D01*
X258179Y134839D01*
D02*
G37*
G36*
X240719D02*
X239281D01*
X237871Y134558D01*
X236543Y134008D01*
X235347Y133209D01*
X234330Y132192D01*
X233531Y130997D01*
X232981Y129668D01*
X232701Y128258D01*
Y126821D01*
X232981Y125410D01*
X233531Y124082D01*
X234330Y122886D01*
X235347Y121870D01*
X236543Y121071D01*
X237871Y120521D01*
X239281Y120240D01*
X240719D01*
X242129Y120521D01*
X243458Y121071D01*
X244653Y121870D01*
X245670Y122886D01*
X246468Y124082D01*
X247019Y125410D01*
X247299Y126821D01*
Y128258D01*
X247019Y129668D01*
X246468Y130997D01*
X245670Y132192D01*
X244653Y133209D01*
X243458Y134008D01*
X242129Y134558D01*
X240719Y134839D01*
D02*
G37*
G36*
X223258D02*
X221820D01*
X220410Y134558D01*
X219082Y134008D01*
X217886Y133209D01*
X216870Y132192D01*
X216071Y130997D01*
X215521Y129668D01*
X215240Y128258D01*
Y126821D01*
X215521Y125410D01*
X216071Y124082D01*
X216870Y122886D01*
X217886Y121870D01*
X219082Y121071D01*
X220410Y120521D01*
X221820Y120240D01*
X223258D01*
X224669Y120521D01*
X225997Y121071D01*
X227192Y121870D01*
X228209Y122886D01*
X229008Y124082D01*
X229558Y125410D01*
X229839Y126821D01*
Y128258D01*
X229558Y129668D01*
X229008Y130997D01*
X228209Y132192D01*
X227192Y133209D01*
X225997Y134008D01*
X224669Y134558D01*
X223258Y134839D01*
D02*
G37*
G36*
X194760Y127039D02*
X187961D01*
Y120240D01*
X188180D01*
X189590Y120521D01*
X190918Y121071D01*
X192114Y121870D01*
X193130Y122886D01*
X193929Y124082D01*
X194479Y125410D01*
X194760Y126821D01*
Y127039D01*
D02*
G37*
G36*
X186961D02*
X180161D01*
Y126821D01*
X180442Y125410D01*
X180992Y124082D01*
X181791Y122886D01*
X182808Y121870D01*
X184003Y121071D01*
X185331Y120521D01*
X186742Y120240D01*
X186961D01*
Y127039D01*
D02*
G37*
G36*
X177299D02*
X170500D01*
Y120240D01*
X170719D01*
X172129Y120521D01*
X173458Y121071D01*
X174653Y121870D01*
X175670Y122886D01*
X176469Y124082D01*
X177019Y125410D01*
X177299Y126821D01*
Y127039D01*
D02*
G37*
G36*
X169500D02*
X162701D01*
Y126821D01*
X162981Y125410D01*
X163531Y124082D01*
X164330Y122886D01*
X165347Y121870D01*
X166542Y121071D01*
X167871Y120521D01*
X169281Y120240D01*
X169500D01*
Y127039D01*
D02*
G37*
G36*
X159839D02*
X153039D01*
Y120240D01*
X153258D01*
X154668Y120521D01*
X155997Y121071D01*
X157192Y121870D01*
X158209Y122886D01*
X159008Y124082D01*
X159558Y125410D01*
X159839Y126821D01*
Y127039D01*
D02*
G37*
G36*
X152039D02*
X145240D01*
Y126821D01*
X145521Y125410D01*
X146071Y124082D01*
X146870Y122886D01*
X147886Y121870D01*
X149082Y121071D01*
X150410Y120521D01*
X151821Y120240D01*
X152039D01*
Y127039D01*
D02*
G37*
G36*
X337496Y123716D02*
X330500D01*
Y119673D01*
X337496D01*
Y123716D01*
D02*
G37*
G36*
X329500D02*
X322504D01*
Y119673D01*
X329500D01*
Y123716D01*
D02*
G37*
G36*
X116908Y142511D02*
X114892D01*
X112900Y142196D01*
X110982Y141572D01*
X109186Y140657D01*
X107554Y139472D01*
X106128Y138046D01*
X104943Y136414D01*
X104028Y134618D01*
X103404Y132700D01*
X103089Y130708D01*
Y128692D01*
X103404Y126700D01*
X104028Y124782D01*
X104943Y122986D01*
X106128Y121354D01*
X107554Y119928D01*
X109186Y118743D01*
X110982Y117828D01*
X112900Y117204D01*
X114892Y116889D01*
X116908D01*
X118900Y117204D01*
X120818Y117828D01*
X122614Y118743D01*
X124246Y119928D01*
X125672Y121354D01*
X126857Y122986D01*
X127772Y124782D01*
X128396Y126700D01*
X128711Y128692D01*
Y130708D01*
X128396Y132700D01*
X127772Y134618D01*
X126857Y136414D01*
X125672Y138046D01*
X124246Y139472D01*
X122614Y140657D01*
X120818Y141572D01*
X118900Y142196D01*
X116908Y142511D01*
D02*
G37*
G36*
X337496Y118673D02*
X330500D01*
Y114630D01*
X337496D01*
Y118673D01*
D02*
G37*
G36*
X329500D02*
X322504D01*
Y114630D01*
X329500D01*
Y118673D01*
D02*
G37*
%LPD*%
G36*
X415000Y130000D02*
X290000D01*
Y147500D01*
X326479D01*
Y146000D01*
X326100D01*
Y145370D01*
X322504D01*
Y141327D01*
X329500D01*
Y145370D01*
X329100D01*
Y146000D01*
X328721D01*
Y147500D01*
X415000D01*
Y130000D01*
D02*
G37*
%LPC*%
G36*
X337496Y145370D02*
X330500D01*
Y141327D01*
X337496D01*
Y145370D01*
D02*
G37*
G36*
Y140327D02*
X330500D01*
Y136284D01*
X337496D01*
Y140327D01*
D02*
G37*
G36*
X329500D02*
X322504D01*
Y136284D01*
X329500D01*
Y140327D01*
D02*
G37*
G36*
X303000Y138662D02*
Y135815D01*
X305847D01*
X305633Y136613D01*
X305190Y137379D01*
X304564Y138005D01*
X303798Y138448D01*
X303000Y138662D01*
D02*
G37*
G36*
X302000D02*
X301202Y138448D01*
X300436Y138005D01*
X299810Y137379D01*
X299367Y136613D01*
X299153Y135815D01*
X302000D01*
Y138662D01*
D02*
G37*
G36*
X408000Y138347D02*
Y135500D01*
X410847D01*
X410633Y136298D01*
X410190Y137064D01*
X409564Y137690D01*
X408798Y138133D01*
X408000Y138347D01*
D02*
G37*
G36*
X355500D02*
Y135500D01*
X358347D01*
X358133Y136298D01*
X357690Y137064D01*
X357064Y137690D01*
X356298Y138133D01*
X355500Y138347D01*
D02*
G37*
G36*
X407000D02*
X406202Y138133D01*
X405436Y137690D01*
X404810Y137064D01*
X404367Y136298D01*
X404153Y135500D01*
X407000D01*
Y138347D01*
D02*
G37*
G36*
X354500D02*
X353702Y138133D01*
X352936Y137690D01*
X352310Y137064D01*
X351867Y136298D01*
X351653Y135500D01*
X354500D01*
Y138347D01*
D02*
G37*
G36*
X305847Y134815D02*
X303000D01*
Y131968D01*
X303798Y132182D01*
X304564Y132624D01*
X305190Y133250D01*
X305633Y134017D01*
X305847Y134815D01*
D02*
G37*
G36*
X302000D02*
X299153D01*
X299367Y134017D01*
X299810Y133250D01*
X300436Y132624D01*
X301202Y132182D01*
X302000Y131968D01*
Y134815D01*
D02*
G37*
G36*
X410847Y134500D02*
X408000D01*
Y131653D01*
X408798Y131867D01*
X409564Y132310D01*
X410190Y132936D01*
X410633Y133702D01*
X410847Y134500D01*
D02*
G37*
G36*
X358347D02*
X355500D01*
Y131653D01*
X356298Y131867D01*
X357064Y132310D01*
X357690Y132936D01*
X358133Y133702D01*
X358347Y134500D01*
D02*
G37*
G36*
X354500D02*
X351653D01*
X351867Y133702D01*
X352310Y132936D01*
X352936Y132310D01*
X353702Y131867D01*
X354500Y131653D01*
Y134500D01*
D02*
G37*
G36*
X407000D02*
X404153D01*
X404367Y133702D01*
X404810Y132936D01*
X405436Y132310D01*
X406202Y131867D01*
X407000Y131653D01*
Y134500D01*
D02*
G37*
%LPD*%
D15*
X325000Y484000D02*
X326500D01*
X352000Y354600D02*
Y356100D01*
X331000Y273000D02*
X332500D01*
X336000Y360500D02*
Y362000D01*
X327600Y144500D02*
Y146000D01*
X325100Y266000D02*
X326600D01*
X338000Y492000D02*
X339500D01*
X330600Y174700D02*
X332100D01*
X336300D02*
X336375Y174625D01*
X332100Y174700D02*
X336300D01*
X327600Y146000D02*
Y162200D01*
X329600Y164200D01*
X322200Y174700D02*
X330100D01*
X327300Y143527D02*
X330000Y140827D01*
X358327Y369547D02*
Y370461D01*
X355283Y485543D02*
Y488717D01*
X352000Y492000D02*
X355283Y488717D01*
Y485543D02*
X358327Y482500D01*
X340000Y492000D02*
X352000D01*
Y356100D02*
Y363200D01*
Y346000D02*
Y354000D01*
Y363221D02*
X358327Y369547D01*
X326500Y484000D02*
X337000D01*
X326000D02*
X326500D01*
X318000Y170500D02*
X322200Y174700D01*
X315693Y492000D02*
X338000D01*
X311575Y487882D02*
X315693Y492000D01*
X327047Y119173D02*
X330000D01*
Y140827D02*
X331000Y141827D01*
X326600Y266000D02*
X331130D01*
X320000D02*
X325000D01*
X317300Y268700D02*
X320000Y266000D01*
X331130D02*
X334173Y262957D01*
Y262500D02*
Y262957D01*
X355827Y260461D02*
Y262500D01*
X352783Y265543D02*
Y271217D01*
X333000Y273000D02*
X351000D01*
X352783Y271217D01*
Y265543D02*
X355827Y262500D01*
X318506Y273000D02*
X331000D01*
X317300Y272200D02*
X317706D01*
X318506Y273000D01*
X310705Y484000D02*
X325000D01*
X336073Y483100D02*
X336100D01*
X336073D02*
X336673Y482500D01*
X336100Y483100D02*
X337000Y484000D01*
X325548Y342000D02*
X348000D01*
X352000Y346000D01*
X322945Y348217D02*
X323220Y348492D01*
X322945Y344603D02*
Y348217D01*
Y344603D02*
X325548Y342000D01*
X336000Y352000D02*
Y360000D01*
Y362000D02*
Y371827D01*
X329742Y345742D02*
X336000Y352000D01*
X325695Y345742D02*
X329742D01*
X336000Y371827D02*
X336673Y372500D01*
X309167Y485132D02*
X309573D01*
X310705Y484000D01*
X325695Y345742D02*
Y346017D01*
D90*
X114500Y248685D02*
D03*
D91*
Y238843D02*
D03*
Y229000D02*
D03*
Y219158D02*
D03*
Y209315D02*
D03*
Y199472D02*
D03*
D92*
X112500Y336000D02*
D03*
Y326000D02*
D03*
Y346000D02*
D03*
Y356000D02*
D03*
Y366000D02*
D03*
Y376000D02*
D03*
D93*
Y316000D02*
D03*
D94*
X115900Y129700D02*
D03*
X295000Y470000D02*
D03*
X357492Y414000D02*
D03*
X302992Y360000D02*
D03*
X358000Y304000D02*
D03*
X295000Y250000D02*
D03*
X358000Y196000D02*
D03*
X240700Y488400D02*
D03*
X454400Y489800D02*
D03*
D95*
X369508Y460000D02*
D03*
X432000Y404000D02*
D03*
X377500Y350000D02*
D03*
X432508Y294000D02*
D03*
X369508Y240000D02*
D03*
X432508Y186000D02*
D03*
D96*
X369508Y470000D02*
D03*
Y480000D02*
D03*
X432000Y414000D02*
D03*
Y424000D02*
D03*
X377500Y370000D02*
D03*
Y360000D02*
D03*
X432508Y304000D02*
D03*
Y314000D02*
D03*
X369508Y260000D02*
D03*
Y250000D02*
D03*
X432508Y196000D02*
D03*
Y206000D02*
D03*
D97*
X302500Y135315D02*
D03*
X355000Y135000D02*
D03*
X407500D02*
D03*
D98*
X302500Y155000D02*
D03*
X355000Y154685D02*
D03*
X407500D02*
D03*
D99*
X222539Y162461D02*
D03*
X240000D02*
D03*
X257461D02*
D03*
Y145000D02*
D03*
Y127539D02*
D03*
X240000D02*
D03*
X222539D02*
D03*
Y145000D02*
D03*
X415000Y452539D02*
D03*
X432461D02*
D03*
Y470000D02*
D03*
Y487461D02*
D03*
X415000D02*
D03*
X397539D02*
D03*
Y470000D02*
D03*
Y452539D02*
D03*
Y342539D02*
D03*
Y360000D02*
D03*
Y377461D02*
D03*
X415000D02*
D03*
X432461D02*
D03*
Y360000D02*
D03*
Y342539D02*
D03*
X415000D02*
D03*
X397539Y232539D02*
D03*
Y250000D02*
D03*
Y267461D02*
D03*
X415000D02*
D03*
X432461D02*
D03*
Y250000D02*
D03*
Y232539D02*
D03*
X415000D02*
D03*
X152539Y145000D02*
D03*
Y127539D02*
D03*
X170000D02*
D03*
X187461D02*
D03*
Y145000D02*
D03*
Y162461D02*
D03*
X170000D02*
D03*
X152539D02*
D03*
D100*
X240000Y145000D02*
D03*
X415000Y470000D02*
D03*
Y360000D02*
D03*
Y250000D02*
D03*
X170000Y145000D02*
D03*
D101*
X118000Y431185D02*
D03*
D102*
Y421343D02*
D03*
Y411500D02*
D03*
Y401657D02*
D03*
D103*
X104000Y311400D02*
D03*
X268400Y217100D02*
D03*
X151800Y178300D02*
D03*
X336375Y174625D02*
D03*
X329600Y164200D02*
D03*
X309167Y485132D02*
D03*
X138800Y306000D02*
D03*
X258400Y241900D02*
D03*
X258100Y316900D02*
D03*
X186030Y316613D02*
D03*
X182400Y326900D02*
D03*
X210500Y328700D02*
D03*
X211000Y402000D02*
D03*
X180471Y334100D02*
D03*
X270700Y221600D02*
D03*
X199000Y229200D02*
D03*
X192245Y233200D02*
D03*
X195494Y222495D02*
D03*
X198600Y214200D02*
D03*
X202000Y211300D02*
D03*
X276449Y234678D02*
D03*
X170700Y416900D02*
D03*
X243400Y311800D02*
D03*
X209650Y307250D02*
D03*
X210507Y284048D02*
D03*
X149200Y278800D02*
D03*
X137600Y260500D02*
D03*
X150200Y258500D02*
D03*
X143700Y259400D02*
D03*
X153800Y350300D02*
D03*
X322200Y174700D02*
D03*
X138165Y299465D02*
D03*
X181500Y322000D02*
D03*
X222384Y253298D02*
D03*
X208213Y196376D02*
D03*
X269400Y195500D02*
D03*
X269254Y227003D02*
D03*
X229200Y197000D02*
D03*
X220739Y396333D02*
D03*
X271500Y420400D02*
D03*
X155100Y236800D02*
D03*
X209600Y374600D02*
D03*
X205362Y366902D02*
D03*
X170000Y182500D02*
D03*
X203600Y412300D02*
D03*
X203000Y420600D02*
D03*
X141800Y421000D02*
D03*
X142600Y405600D02*
D03*
X149900Y383900D02*
D03*
X162000Y464700D02*
D03*
X108600Y446400D02*
D03*
X294015Y224022D02*
D03*
X184222Y303500D02*
D03*
X177350Y200300D02*
D03*
X188947Y299986D02*
D03*
X187700Y306000D02*
D03*
X187500Y310000D02*
D03*
X185905Y245622D02*
D03*
X162050Y259300D02*
D03*
X182134Y245700D02*
D03*
X179100Y264700D02*
D03*
X182071Y293625D02*
D03*
X185800Y296600D02*
D03*
X180100Y196500D02*
D03*
X188995Y242500D02*
D03*
X196200Y217900D02*
D03*
X272777Y204509D02*
D03*
X323212Y196091D02*
D03*
Y199591D02*
D03*
X325695Y345742D02*
D03*
X311575Y487882D02*
D03*
X229100Y188450D02*
D03*
X309500Y191700D02*
D03*
X229100Y184950D02*
D03*
Y179700D02*
D03*
Y176200D02*
D03*
X317300Y268700D02*
D03*
Y272200D02*
D03*
X323220Y348492D02*
D03*
X223800Y258600D02*
D03*
X227300D02*
D03*
X381500Y412400D02*
D03*
X240635Y274956D02*
D03*
X237135D02*
D03*
X245100Y199100D02*
D03*
X234200Y352800D02*
D03*
X230700D02*
D03*
X231425Y469275D02*
D03*
X233900Y466800D02*
D03*
X309800Y231635D02*
D03*
X217105Y447104D02*
D03*
X217231Y254812D02*
D03*
X310132Y289540D02*
D03*
X306241Y336318D02*
D03*
X304600Y392100D02*
D03*
X196300Y391900D02*
D03*
X198876Y289700D02*
D03*
X303015Y439842D02*
D03*
X383100Y301700D02*
D03*
X318900Y472200D02*
D03*
X326700Y357300D02*
D03*
X319051Y246479D02*
D03*
X383000Y198100D02*
D03*
X307600Y173400D02*
D03*
X263000Y173500D02*
D03*
X267383Y381272D02*
D03*
X210400Y381100D02*
D03*
X375400Y327600D02*
D03*
X245700Y330100D02*
D03*
X376813Y185269D02*
D03*
X253300Y179500D02*
D03*
X311376Y264196D02*
D03*
X237600Y374500D02*
D03*
X319000Y374800D02*
D03*
X373100Y425200D02*
D03*
X267200Y407700D02*
D03*
X270428Y411428D02*
D03*
X311500Y456800D02*
D03*
X267000Y454700D02*
D03*
X249750Y265400D02*
D03*
X205250Y336300D02*
D03*
X179000Y353300D02*
D03*
X160600Y346506D02*
D03*
X182200Y348500D02*
D03*
X151050Y322215D02*
D03*
X172750Y347500D02*
D03*
X182098Y344425D02*
D03*
X157850Y338500D02*
D03*
X175188Y350837D02*
D03*
X166777Y341895D02*
D03*
X130680Y327828D02*
D03*
X169885Y345490D02*
D03*
X164100Y335700D02*
D03*
X138400Y343300D02*
D03*
X135772Y339672D02*
D03*
X138535Y329950D02*
D03*
X244900Y302900D02*
D03*
X215150Y306222D02*
D03*
X235000Y300000D02*
D03*
X223000Y296500D02*
D03*
X210550Y293100D02*
D03*
X213300Y198000D02*
D03*
X211000Y312200D02*
D03*
X210200Y237635D02*
D03*
X174400Y206800D02*
D03*
X171597Y210400D02*
D03*
X224038Y424356D02*
D03*
X254511Y427450D02*
D03*
X139800Y430200D02*
D03*
X135423Y428280D02*
D03*
X132300Y426700D02*
D03*
X149500Y442500D02*
D03*
X137799Y445964D02*
D03*
X257800Y432500D02*
D03*
X262090Y415652D02*
D03*
X244850Y415620D02*
D03*
X247500Y419700D02*
D03*
X238200Y408700D02*
D03*
X241300Y412200D02*
D03*
X235000Y312400D02*
D03*
X223100Y312500D02*
D03*
X137100Y251400D02*
D03*
X133800Y247300D02*
D03*
X192700Y437600D02*
D03*
X201051Y340913D02*
D03*
X151100Y224100D02*
D03*
X151318Y230822D02*
D03*
X160619Y438319D02*
D03*
X123900Y326300D02*
D03*
X147400Y214600D02*
D03*
X151100Y217800D02*
D03*
X147413Y220706D02*
D03*
X147700Y227300D02*
D03*
X129665Y445371D02*
D03*
X157700Y256400D02*
D03*
X204500Y406000D02*
D03*
X263000D02*
D03*
D104*
X330000Y119173D02*
D03*
Y140827D02*
D03*
D105*
X336673Y482500D02*
D03*
X358327D02*
D03*
Y372500D02*
D03*
X336673D02*
D03*
X334173Y262500D02*
D03*
X355827D02*
D03*
D106*
X326500Y484000D02*
D03*
X325000D02*
D03*
X332500Y273000D02*
D03*
X331000D02*
D03*
X325100Y266000D02*
D03*
X326600D02*
D03*
X339500Y492000D02*
D03*
X338000D02*
D03*
X330600Y174700D02*
D03*
X332100D02*
D03*
D107*
X352000Y356100D02*
D03*
Y354600D02*
D03*
X336000Y360500D02*
D03*
Y362000D02*
D03*
X327600Y144500D02*
D03*
Y146000D02*
D03*
D108*
X358784Y480004D02*
X369504D01*
X369508Y480000D01*
X358327Y480461D02*
Y482500D01*
Y480461D02*
X358784Y480004D01*
X397539Y487461D02*
X415000D01*
X432461D01*
Y470000D02*
Y487461D01*
Y452539D02*
Y470000D01*
X415000Y452539D02*
X432461D01*
X397539D02*
X415000D01*
X397539Y470000D02*
Y487461D01*
X358327Y370461D02*
X358784Y370004D01*
X374787Y370000D02*
X377500D01*
X374783Y370004D02*
X374787Y370000D01*
X358784Y370004D02*
X374783D01*
X358327Y370461D02*
Y372500D01*
X369508Y250000D02*
X397539D01*
Y267461D01*
Y232539D02*
X415000D01*
X432461D01*
Y250000D01*
Y267461D01*
X415000D02*
X432461D01*
X397539D02*
X415000D01*
X397539Y342539D02*
X415000D01*
X432461D01*
Y360000D01*
Y377461D01*
X415000D02*
X432461D01*
X397539D02*
X415000D01*
X397539Y360000D02*
Y377461D01*
X377500Y360000D02*
X397539D01*
X432508Y206000D02*
Y232492D01*
X432461Y232539D02*
X432508Y232492D01*
X356283Y260004D02*
X369504D01*
X355827Y260461D02*
X356283Y260004D01*
X369504D02*
X369508Y260000D01*
X432508Y314000D02*
Y342492D01*
X432461Y342539D02*
X432508Y342492D01*
X432000Y452079D02*
X432461Y452539D01*
X432000Y424000D02*
Y452079D01*
X369508Y470000D02*
X397539D01*
M02*
