G04*
G04 #@! TF.GenerationSoftware,Altium Limited,Altium Designer,21.0.9 (235)*
G04*
G04 Layer_Color=16711935*
%FSLAX25Y25*%
%MOIN*%
G70*
G04*
G04 #@! TF.SameCoordinates,6E1B8195-657B-4EBF-9371-98382CE2CE48*
G04*
G04*
G04 #@! TF.FilePolarity,Negative*
G04*
G01*
G75*
%ADD73C,0.13398*%
%ADD74C,0.17335*%
%ADD75C,0.24422*%
%ADD76R,0.07296X0.07296*%
%ADD77C,0.07296*%
%ADD78C,0.06706*%
%ADD79R,0.06706X0.06706*%
%ADD80R,0.08674X0.08674*%
%ADD81C,0.08674*%
%ADD82C,0.05524*%
%ADD83R,0.05524X0.05524*%
G04:AMPARAMS|DCode=84|XSize=74.93mil|YSize=86.74mil|CornerRadius=20.73mil|HoleSize=0mil|Usage=FLASHONLY|Rotation=270.000|XOffset=0mil|YOffset=0mil|HoleType=Round|Shape=RoundedRectangle|*
%AMROUNDEDRECTD84*
21,1,0.07493,0.04528,0,0,270.0*
21,1,0.03347,0.08674,0,0,270.0*
1,1,0.04146,-0.02264,-0.01673*
1,1,0.04146,-0.02264,0.01673*
1,1,0.04146,0.02264,0.01673*
1,1,0.04146,0.02264,-0.01673*
%
%ADD84ROUNDEDRECTD84*%
%ADD85O,0.08674X0.07493*%
%ADD86C,0.03300*%
%ADD106R,0.01000X0.01000*%
%ADD107R,0.01000X0.01000*%
%ADD109R,0.13792X0.07887*%
%ADD110R,0.07887X0.13792*%
D73*
X397539Y452539D02*
D03*
Y470000D02*
D03*
Y487461D02*
D03*
X415000D02*
D03*
X432461D02*
D03*
Y470000D02*
D03*
Y452539D02*
D03*
X415000D02*
D03*
X222539Y162461D02*
D03*
X240000D02*
D03*
X257461D02*
D03*
Y145000D02*
D03*
Y127539D02*
D03*
X240000D02*
D03*
X222539D02*
D03*
Y145000D02*
D03*
X397539Y342539D02*
D03*
Y360000D02*
D03*
Y377461D02*
D03*
X415000D02*
D03*
X432461D02*
D03*
Y360000D02*
D03*
Y342539D02*
D03*
X415000D02*
D03*
X397539Y232539D02*
D03*
Y250000D02*
D03*
Y267461D02*
D03*
X415000D02*
D03*
X432461D02*
D03*
Y250000D02*
D03*
Y232539D02*
D03*
X415000D02*
D03*
X152539Y145000D02*
D03*
Y127539D02*
D03*
X170000D02*
D03*
X187461D02*
D03*
Y145000D02*
D03*
Y162461D02*
D03*
X170000D02*
D03*
X152539D02*
D03*
D74*
X415000Y470000D02*
D03*
X240000Y145000D02*
D03*
X415000Y360000D02*
D03*
Y250000D02*
D03*
X170000Y145000D02*
D03*
D75*
X446000Y160000D02*
D03*
X126000D02*
D03*
X295000Y470000D02*
D03*
X357492Y414000D02*
D03*
X302992Y360000D02*
D03*
X358000Y304000D02*
D03*
X295000Y250000D02*
D03*
X358000Y196000D02*
D03*
X198000Y478000D02*
D03*
D76*
X114500Y248685D02*
D03*
D77*
Y238843D02*
D03*
Y229000D02*
D03*
Y219158D02*
D03*
Y209315D02*
D03*
Y199472D02*
D03*
D78*
X112500Y336000D02*
D03*
Y326000D02*
D03*
Y346000D02*
D03*
Y356000D02*
D03*
Y366000D02*
D03*
Y376000D02*
D03*
D79*
Y316000D02*
D03*
D80*
X369508Y460000D02*
D03*
X432000Y404000D02*
D03*
X377500Y350000D02*
D03*
X432508Y294000D02*
D03*
X369508Y240000D02*
D03*
X432508Y186000D02*
D03*
D81*
X369508Y470000D02*
D03*
Y480000D02*
D03*
X432000Y414000D02*
D03*
Y424000D02*
D03*
X377500Y370000D02*
D03*
Y360000D02*
D03*
X432508Y304000D02*
D03*
Y314000D02*
D03*
X369508Y260000D02*
D03*
Y250000D02*
D03*
X432508Y196000D02*
D03*
Y206000D02*
D03*
D82*
X302500Y135315D02*
D03*
X355000Y135000D02*
D03*
X407500D02*
D03*
D83*
X302500Y155000D02*
D03*
X355000Y154685D02*
D03*
X407500D02*
D03*
D84*
X118000Y431185D02*
D03*
D85*
Y421343D02*
D03*
Y411500D02*
D03*
Y401657D02*
D03*
D86*
X203600Y412300D02*
D03*
X104000Y311400D02*
D03*
X268400Y217100D02*
D03*
X151800Y178300D02*
D03*
X336375Y174625D02*
D03*
X329600Y164200D02*
D03*
X309167Y485132D02*
D03*
X138800Y306000D02*
D03*
X258400Y241900D02*
D03*
X258100Y316900D02*
D03*
X186030Y316613D02*
D03*
X182400Y326900D02*
D03*
X210500Y328700D02*
D03*
X211000Y402000D02*
D03*
X180471Y334100D02*
D03*
X270700Y221600D02*
D03*
X199000Y229200D02*
D03*
X192245Y233200D02*
D03*
X195494Y222495D02*
D03*
X198600Y214200D02*
D03*
X202000Y211300D02*
D03*
X276449Y234678D02*
D03*
X170700Y416900D02*
D03*
X243400Y311800D02*
D03*
X209650Y307250D02*
D03*
X210507Y284048D02*
D03*
X149200Y278800D02*
D03*
X137600Y260500D02*
D03*
X150200Y258500D02*
D03*
X143700Y259400D02*
D03*
X153800Y350300D02*
D03*
X322200Y174700D02*
D03*
X138165Y299465D02*
D03*
X181500Y322000D02*
D03*
X222384Y253298D02*
D03*
X208213Y196376D02*
D03*
X269400Y195500D02*
D03*
X269254Y227003D02*
D03*
X229200Y197000D02*
D03*
X220739Y396333D02*
D03*
X271500Y420400D02*
D03*
X155100Y236800D02*
D03*
X209600Y374600D02*
D03*
X205362Y366902D02*
D03*
X170000Y182500D02*
D03*
X203000Y420600D02*
D03*
X141800Y421000D02*
D03*
X142600Y405600D02*
D03*
X149900Y383900D02*
D03*
X162000Y464700D02*
D03*
X108600Y446400D02*
D03*
X294015Y224022D02*
D03*
X184222Y303500D02*
D03*
X177350Y200300D02*
D03*
X188947Y299986D02*
D03*
X187700Y306000D02*
D03*
X187500Y310000D02*
D03*
X185905Y245622D02*
D03*
X162050Y259300D02*
D03*
X182134Y245700D02*
D03*
X179100Y264700D02*
D03*
X182071Y293625D02*
D03*
X185800Y296600D02*
D03*
X180100Y196500D02*
D03*
X188995Y242500D02*
D03*
X196200Y217900D02*
D03*
X272777Y204509D02*
D03*
X323212Y196091D02*
D03*
Y199591D02*
D03*
X325695Y345742D02*
D03*
X311575Y487882D02*
D03*
X229100Y188450D02*
D03*
X309500Y191700D02*
D03*
X229100Y184950D02*
D03*
Y179700D02*
D03*
Y176200D02*
D03*
X317300Y268700D02*
D03*
Y272200D02*
D03*
X323220Y348492D02*
D03*
X223800Y258600D02*
D03*
X227300D02*
D03*
X381500Y412400D02*
D03*
X240635Y274956D02*
D03*
X237135D02*
D03*
X245100Y199100D02*
D03*
X234200Y352800D02*
D03*
X230700D02*
D03*
X231425Y469275D02*
D03*
X233900Y466800D02*
D03*
X309800Y231635D02*
D03*
X217105Y447104D02*
D03*
X217231Y254812D02*
D03*
X310132Y289540D02*
D03*
X306241Y336318D02*
D03*
X304600Y392100D02*
D03*
X196300Y391900D02*
D03*
X198876Y289700D02*
D03*
X303015Y439842D02*
D03*
X383100Y301700D02*
D03*
X318900Y472200D02*
D03*
X326700Y357300D02*
D03*
X319051Y246479D02*
D03*
X383000Y198100D02*
D03*
X307600Y173400D02*
D03*
X263000Y173500D02*
D03*
X267383Y381272D02*
D03*
X210400Y381100D02*
D03*
X375400Y327600D02*
D03*
X245700Y330100D02*
D03*
X376813Y185269D02*
D03*
X253300Y179500D02*
D03*
X311376Y264196D02*
D03*
X237600Y374500D02*
D03*
X319000Y374800D02*
D03*
X373100Y425200D02*
D03*
X267200Y407700D02*
D03*
X270428Y411428D02*
D03*
X311500Y456800D02*
D03*
X267000Y454700D02*
D03*
X249750Y265400D02*
D03*
X205250Y336300D02*
D03*
X179000Y353300D02*
D03*
X160600Y346506D02*
D03*
X182200Y348500D02*
D03*
X151050Y322215D02*
D03*
X172750Y347500D02*
D03*
X182098Y344425D02*
D03*
X157850Y338500D02*
D03*
X175188Y350837D02*
D03*
X166777Y341895D02*
D03*
X130680Y327828D02*
D03*
X169885Y345490D02*
D03*
X164100Y335700D02*
D03*
X138400Y343300D02*
D03*
X135772Y339672D02*
D03*
X138535Y329950D02*
D03*
X244900Y302900D02*
D03*
X215150Y306222D02*
D03*
X235000Y300000D02*
D03*
X223000Y296500D02*
D03*
X210550Y293100D02*
D03*
X213300Y198000D02*
D03*
X211000Y312200D02*
D03*
X210200Y237635D02*
D03*
X174400Y206800D02*
D03*
X171597Y210400D02*
D03*
X224038Y424356D02*
D03*
X254511Y427450D02*
D03*
X139800Y430200D02*
D03*
X135423Y428280D02*
D03*
X132300Y426700D02*
D03*
X149500Y442500D02*
D03*
X137799Y445964D02*
D03*
X257800Y432500D02*
D03*
X262090Y415652D02*
D03*
X244850Y415620D02*
D03*
X247500Y419700D02*
D03*
X238200Y408700D02*
D03*
X241300Y412200D02*
D03*
X235000Y312400D02*
D03*
X223100Y312500D02*
D03*
X137100Y251400D02*
D03*
X133800Y247300D02*
D03*
X192700Y437600D02*
D03*
X201051Y340913D02*
D03*
X151100Y224100D02*
D03*
X151318Y230822D02*
D03*
X160619Y438319D02*
D03*
X123900Y326300D02*
D03*
X147400Y214600D02*
D03*
X151100Y217800D02*
D03*
X147413Y220706D02*
D03*
X147700Y227300D02*
D03*
X129665Y445371D02*
D03*
X157700Y256400D02*
D03*
X204500Y406000D02*
D03*
X263000D02*
D03*
D106*
X326500Y484000D02*
D03*
X325000D02*
D03*
X332500Y273000D02*
D03*
X331000D02*
D03*
X325100Y266000D02*
D03*
X326600D02*
D03*
X339500Y492000D02*
D03*
X338000D02*
D03*
X330600Y174700D02*
D03*
X332100D02*
D03*
D107*
X352000Y356100D02*
D03*
Y354600D02*
D03*
X336000Y360500D02*
D03*
Y362000D02*
D03*
X327600Y144500D02*
D03*
Y146000D02*
D03*
D109*
X330000Y119173D02*
D03*
Y140827D02*
D03*
D110*
X336673Y482500D02*
D03*
X358327D02*
D03*
Y372500D02*
D03*
X336673D02*
D03*
X334173Y262500D02*
D03*
X355827D02*
D03*
M02*
