M48
;Layer_Color=9474304
;FILE_FORMAT=2:5
INCH,TZ
;TYPE=PLATED
T1F00S00C0.01400
T2F00S00C0.03150
T3F00S00C0.03543
T4F00S00C0.03937
T5F00S00C0.04331
T6F00S00C0.04882
T7F00S00C0.07283
T8F00S00C0.12598
T9F00S00C0.15748
;TYPE=NON_PLATED
T10F00S00C0.16535
%
T01
X329600Y164200
X336375Y174625
X322200Y174700
X323212Y196091
Y199591
X319051Y246479
X317300Y268700
Y272200
X383100Y301700
X383000Y198100
X376813Y185269
X309500Y191700
X307600Y173400
X263000Y173500
X253300Y179500
X229100Y179700
Y176200
Y184950
Y188450
X229200Y197000
X213300Y198000
X208213Y196376
X202000Y211300
X198600Y214200
X196200Y217900
X195494Y222495
X199000Y229200
X192245Y233200
X188995Y242500
X185905Y245622
X182134Y245700
X179100Y264700
X162050Y259300
X157700Y256400
X171597Y210400
X174400Y206800
X177350Y200300
X180100Y196500
X170000Y182500
X245100Y199100
X269400Y195500
X272777Y204509
X268400Y217100
X270700Y221600
X269254Y227003
X276449Y234678
X258400Y241900
X249750Y265400
X240635Y274956
X237135
X227300Y258600
X223800
X222384Y253298
X217231Y254812
X210200Y237635
X210507Y284048
X210550Y293100
X209650Y307250
X211000Y312200
X215150Y306222
X223000Y296500
X235000Y300000
Y312400
X243400Y311800
X244900Y302900
X188947Y299986
X185800Y296600
X182071Y293625
X184222Y303500
X187700Y306000
X187500Y310000
X198876Y289700
X310132Y289540
X311376Y264196
X309800Y231635
X294015Y224022
X151100Y224100
Y217800
X147413Y220706
X147400Y214600
X147700Y227300
X151318Y230822
X155100Y236800
X150200Y258500
X143700Y259400
X137600Y260500
X137100Y251400
X133800Y247300
X149200Y278800
X138165Y299465
X138800Y306000
X104000Y311400
X151800Y178300
X151050Y322215
X138535Y329950
X130680Y327828
X123900Y326300
X135772Y339672
X138400Y343300
X153800Y350300
X149900Y383900
X142600Y405600
X141800Y421000
X139800Y430200
X135423Y428280
X132300Y426700
X129665Y445371
X137799Y445964
X149500Y442500
X108600Y446400
X160619Y438319
X162000Y464700
X170700Y416900
X203000Y420600
X203600Y412300
X204500Y406000
X211000Y402000
X220739Y396333
X210400Y381100
X209600Y374600
X205362Y366902
X201051Y340913
X205250Y336300
X210500Y328700
X223100Y312500
X258100Y316900
X245700Y330100
X234200Y352800
X230700
X237600Y374500
X238200Y408700
X241300Y412200
X244850Y415620
X247500Y419700
X254511Y427450
X257800Y432500
X262090Y415652
X263000Y406000
X267200Y407700
X270428Y411428
X271500Y420400
X267000Y454700
X233900Y466800
X217105Y447104
X224038Y424356
X192700Y437600
X196300Y391900
X179000Y353300
X175188Y350837
X172750Y347500
X169885Y345490
X166777Y341895
X164100Y335700
X157850Y338500
X160600Y346506
X182098Y344425
X182200Y348500
X180471Y334100
X182400Y326900
X181500Y322000
X186030Y316613
X306241Y336318
X304600Y392100
X267383Y381272
X303015Y439842
X311500Y456800
X319000Y374800
X326700Y357300
X323220Y348492
X325695Y345742
X375400Y327600
X381500Y412400
X373100Y425200
X318900Y472200
X309167Y485132
X311575Y487882
X231425Y469275
T02
X302500Y135315
Y155000
X355000Y154685
Y135000
X407500
Y154685
T03
X112500Y316000
Y326000
Y336000
Y346000
Y356000
Y366000
Y376000
T04
X118000Y401657
Y411500
Y421343
Y431185
T05
X114500Y199472
Y209315
Y219158
Y229000
Y238843
Y248685
T06
X369508Y240000
Y250000
Y260000
X432508Y294000
Y304000
Y206000
Y196000
Y186000
Y314000
X432000Y404000
Y414000
Y424000
X369508Y460000
X377500Y370000
Y360000
Y350000
X369508Y470000
Y480000
T07
X152539Y127539
Y145000
X170000Y127539
X187461
Y145000
X222539
Y127539
X240000
X257461
Y145000
X397539Y232539
Y250000
Y267461
X415000
X432461
Y250000
Y232539
X415000
X257461Y162461
X240000
X222539
X187461
X170000
X152539
X397539Y342539
Y360000
Y377461
X415000
X432461
Y360000
Y342539
X415000
Y452539
X397539
X432461
Y470000
Y487461
X415000
X397539
Y470000
T08
X446000Y160000
X126000
X198000Y478000
T09
X358000Y196000
Y304000
X295000Y250000
X302992Y360000
X357492Y414000
X295000Y470000
T10
X170000Y145000
X240000
X415000Y250000
Y360000
Y470000
M30
