G04*
G04 #@! TF.GenerationSoftware,Altium Limited,Altium Designer,21.0.9 (235)*
G04*
G04 Layer_Color=16711935*
%FSLAX25Y25*%
%MOIN*%
G70*
G04*
G04 #@! TF.SameCoordinates,BF8AA8E3-E573-41D7-9BE7-E27BED457F28*
G04*
G04*
G04 #@! TF.FilePolarity,Positive*
G04*
G01*
G75*
%ADD16C,0.00500*%
%ADD111C,0.00000*%
%ADD112C,0.00394*%
%ADD113C,0.00100*%
D16*
X348012Y460000D02*
X365846D01*
X282992Y448996D02*
X347992D01*
Y491004D01*
X282992D02*
X347992D01*
X282992Y448996D02*
Y491004D01*
X348012Y470000D02*
X365846D01*
X348012Y480000D02*
X365846D01*
X410504Y404000D02*
X428339D01*
X345484Y392996D02*
X410484D01*
Y435004D01*
X345484D02*
X410484D01*
X345484Y392996D02*
Y435004D01*
X410504Y414000D02*
X428339D01*
X410504Y424000D02*
X428339D01*
X356004Y370000D02*
X373839D01*
X356004Y360000D02*
X373839D01*
X290984Y338996D02*
Y381004D01*
X355984D01*
Y338996D02*
Y381004D01*
X290984Y338996D02*
X355984D01*
X356004Y350000D02*
X373839D01*
X411012Y294000D02*
X428847D01*
X345992Y282996D02*
X410992D01*
Y325004D01*
X345992D02*
X410992D01*
X345992Y282996D02*
Y325004D01*
X411012Y304000D02*
X428847D01*
X411012Y314000D02*
X428847D01*
X348012Y260000D02*
X365846D01*
X348012Y250000D02*
X365846D01*
X282992Y228996D02*
Y271004D01*
X347992D01*
Y228996D02*
Y271004D01*
X282992Y228996D02*
X347992D01*
X348012Y240000D02*
X365846D01*
X411012Y186000D02*
X428847D01*
X345992Y174996D02*
X410992D01*
Y217004D01*
X345992D02*
X410992D01*
X345992Y174996D02*
Y217004D01*
X411012Y196000D02*
X428847D01*
X411012Y206000D02*
X428847D01*
X142307Y304842D02*
X155693D01*
X142307Y285157D02*
X155693D01*
D111*
X231700Y234800D02*
X232051Y233951D01*
X232900Y233600D01*
X233749Y233951D01*
X234100Y234800D01*
D112*
X322677Y145158D02*
X322653Y146155D01*
X322579Y147151D01*
X322455Y148141D01*
X322283Y149124D01*
X322063Y150098D01*
X321795Y151059D01*
X321479Y152006D01*
X321117Y152937D01*
X320710Y153848D01*
X320258Y154738D01*
X319762Y155604D01*
X319225Y156445D01*
X318646Y157258D01*
X318028Y158042D01*
X317372Y158794D01*
X316679Y159513D01*
X315952Y160196D01*
X315191Y160843D01*
X314400Y161452D01*
X313580Y162020D01*
X312732Y162548D01*
X311860Y163032D01*
X310964Y163473D01*
X310048Y163870D01*
X309114Y164220D01*
X308163Y164524D01*
X307198Y164780D01*
X306222Y164988D01*
X305237Y165148D01*
X304245Y165259D01*
X303249Y165321D01*
X302250Y165333D01*
X301253Y165296D01*
X300259Y165210D01*
X299270Y165074D01*
X298289Y164890D01*
X297318Y164658D01*
X296360Y164378D01*
X295417Y164050D01*
X294491Y163677D01*
X293585Y163258D01*
X292701Y162795D01*
X291841Y162289D01*
X291006Y161741D01*
X290200Y161152D01*
X289424Y160525D01*
X288681Y159859D01*
X287970Y159158D01*
X287296Y158422D01*
X286658Y157654D01*
X286060Y156855D01*
X285501Y156028D01*
X284985Y155174D01*
X284511Y154296D01*
X284081Y153395D01*
X283696Y152474D01*
X283357Y151535D01*
X283065Y150580D01*
X282821Y149613D01*
X282625Y148634D01*
X282477Y147647D01*
X282378Y146653D01*
X282329Y145657D01*
Y144658D01*
X282378Y143661D01*
X282477Y142668D01*
X282625Y141681D01*
X282821Y140702D01*
X283065Y139735D01*
X283357Y138780D01*
X283696Y137841D01*
X284081Y136920D01*
X284511Y136020D01*
X284985Y135141D01*
X285501Y134287D01*
X286060Y133460D01*
X286658Y132661D01*
X287296Y131893D01*
X287970Y131157D01*
X288681Y130456D01*
X289424Y129790D01*
X290200Y129163D01*
X291006Y128574D01*
X291841Y128026D01*
X292701Y127520D01*
X293585Y127057D01*
X294491Y126638D01*
X295417Y126264D01*
X296360Y125937D01*
X297318Y125657D01*
X298289Y125425D01*
X299270Y125241D01*
X300258Y125105D01*
X301253Y125019D01*
X302250Y124982D01*
X303249Y124994D01*
X304245Y125056D01*
X305237Y125167D01*
X306222Y125327D01*
X307198Y125535D01*
X308163Y125791D01*
X309114Y126095D01*
X310048Y126445D01*
X310964Y126842D01*
X311860Y127283D01*
X312732Y127767D01*
X313580Y128295D01*
X314400Y128863D01*
X315191Y129472D01*
X315952Y130119D01*
X316679Y130802D01*
X317372Y131521D01*
X318028Y132273D01*
X318646Y133057D01*
X319225Y133870D01*
X319762Y134711D01*
X320258Y135577D01*
X320710Y136467D01*
X321117Y137378D01*
X321479Y138309D01*
X321795Y139256D01*
X322063Y140217D01*
X322283Y141191D01*
X322455Y142174D01*
X322579Y143164D01*
X322653Y144160D01*
X322677Y145158D01*
X375177Y144843D02*
X375152Y145840D01*
X375079Y146836D01*
X374955Y147826D01*
X374783Y148810D01*
X374563Y149783D01*
X374295Y150744D01*
X373979Y151691D01*
X373617Y152622D01*
X373210Y153533D01*
X372758Y154423D01*
X372262Y155289D01*
X371725Y156130D01*
X371146Y156943D01*
X370528Y157727D01*
X369871Y158479D01*
X369179Y159198D01*
X368452Y159881D01*
X367691Y160528D01*
X366900Y161137D01*
X366080Y161705D01*
X365232Y162233D01*
X364360Y162717D01*
X363464Y163158D01*
X362548Y163555D01*
X361614Y163905D01*
X360663Y164209D01*
X359698Y164465D01*
X358722Y164673D01*
X357737Y164833D01*
X356745Y164944D01*
X355749Y165006D01*
X354750Y165018D01*
X353753Y164981D01*
X352759Y164895D01*
X351770Y164759D01*
X350789Y164575D01*
X349818Y164343D01*
X348860Y164063D01*
X347917Y163736D01*
X346991Y163362D01*
X346085Y162943D01*
X345201Y162480D01*
X344341Y161974D01*
X343507Y161426D01*
X342700Y160837D01*
X341924Y160210D01*
X341180Y159544D01*
X340470Y158843D01*
X339796Y158107D01*
X339158Y157339D01*
X338560Y156540D01*
X338001Y155713D01*
X337485Y154859D01*
X337011Y153981D01*
X336581Y153080D01*
X336196Y152159D01*
X335857Y151220D01*
X335565Y150265D01*
X335321Y149298D01*
X335125Y148319D01*
X334977Y147332D01*
X334878Y146338D01*
X334829Y145342D01*
Y144343D01*
X334878Y143347D01*
X334977Y142353D01*
X335125Y141366D01*
X335321Y140387D01*
X335565Y139420D01*
X335857Y138465D01*
X336196Y137526D01*
X336581Y136605D01*
X337011Y135705D01*
X337485Y134826D01*
X338001Y133972D01*
X338560Y133145D01*
X339158Y132346D01*
X339796Y131578D01*
X340470Y130842D01*
X341180Y130141D01*
X341924Y129475D01*
X342700Y128848D01*
X343506Y128259D01*
X344341Y127711D01*
X345201Y127205D01*
X346085Y126742D01*
X346991Y126323D01*
X347917Y125950D01*
X348860Y125622D01*
X349818Y125342D01*
X350789Y125110D01*
X351770Y124926D01*
X352759Y124790D01*
X353753Y124704D01*
X354750Y124667D01*
X355749Y124679D01*
X356745Y124741D01*
X357737Y124852D01*
X358722Y125012D01*
X359698Y125220D01*
X360663Y125476D01*
X361614Y125780D01*
X362548Y126130D01*
X363464Y126527D01*
X364360Y126968D01*
X365232Y127452D01*
X366080Y127980D01*
X366900Y128548D01*
X367691Y129157D01*
X368452Y129804D01*
X369179Y130487D01*
X369871Y131206D01*
X370528Y131958D01*
X371146Y132742D01*
X371725Y133555D01*
X372262Y134396D01*
X372758Y135262D01*
X373210Y136152D01*
X373617Y137064D01*
X373979Y137994D01*
X374295Y138941D01*
X374563Y139902D01*
X374783Y140876D01*
X374955Y141859D01*
X375079Y142849D01*
X375152Y143845D01*
X375177Y144843D01*
X427677D02*
X427653Y145840D01*
X427578Y146836D01*
X427455Y147826D01*
X427283Y148810D01*
X427063Y149783D01*
X426795Y150744D01*
X426479Y151691D01*
X426117Y152622D01*
X425710Y153533D01*
X425258Y154423D01*
X424762Y155289D01*
X424225Y156130D01*
X423646Y156943D01*
X423028Y157727D01*
X422371Y158479D01*
X421679Y159198D01*
X420952Y159881D01*
X420191Y160528D01*
X419400Y161137D01*
X418580Y161705D01*
X417732Y162233D01*
X416860Y162717D01*
X415964Y163158D01*
X415048Y163555D01*
X414114Y163905D01*
X413163Y164209D01*
X412198Y164465D01*
X411222Y164673D01*
X410237Y164833D01*
X409245Y164944D01*
X408249Y165006D01*
X407250Y165018D01*
X406253Y164981D01*
X405259Y164895D01*
X404270Y164759D01*
X403289Y164575D01*
X402318Y164343D01*
X401360Y164063D01*
X400417Y163736D01*
X399491Y163362D01*
X398585Y162943D01*
X397701Y162480D01*
X396841Y161974D01*
X396006Y161426D01*
X395200Y160837D01*
X394424Y160210D01*
X393681Y159544D01*
X392970Y158843D01*
X392296Y158107D01*
X391658Y157339D01*
X391060Y156540D01*
X390501Y155713D01*
X389985Y154859D01*
X389511Y153981D01*
X389081Y153080D01*
X388696Y152159D01*
X388357Y151220D01*
X388065Y150265D01*
X387821Y149298D01*
X387625Y148319D01*
X387477Y147332D01*
X387378Y146338D01*
X387329Y145342D01*
Y144343D01*
X387378Y143347D01*
X387477Y142353D01*
X387625Y141366D01*
X387821Y140387D01*
X388065Y139420D01*
X388357Y138465D01*
X388696Y137526D01*
X389081Y136605D01*
X389511Y135705D01*
X389985Y134826D01*
X390501Y133972D01*
X391060Y133145D01*
X391658Y132346D01*
X392296Y131578D01*
X392970Y130842D01*
X393681Y130141D01*
X394424Y129475D01*
X395200Y128848D01*
X396006Y128259D01*
X396841Y127711D01*
X397701Y127205D01*
X398585Y126742D01*
X399491Y126323D01*
X400417Y125950D01*
X401360Y125622D01*
X402318Y125342D01*
X403289Y125110D01*
X404270Y124926D01*
X405259Y124790D01*
X406253Y124704D01*
X407250Y124667D01*
X408249Y124679D01*
X409245Y124741D01*
X410237Y124852D01*
X411222Y125012D01*
X412198Y125220D01*
X413163Y125476D01*
X414114Y125780D01*
X415048Y126130D01*
X415964Y126527D01*
X416860Y126968D01*
X417732Y127452D01*
X418580Y127980D01*
X419400Y128548D01*
X420191Y129157D01*
X420952Y129804D01*
X421679Y130487D01*
X422371Y131206D01*
X423028Y131958D01*
X423646Y132742D01*
X424225Y133555D01*
X424762Y134396D01*
X425258Y135262D01*
X425710Y136152D01*
X426117Y137064D01*
X426479Y137994D01*
X426795Y138941D01*
X427063Y139902D01*
X427283Y140876D01*
X427455Y141859D01*
X427578Y142849D01*
X427653Y143845D01*
X427677Y144843D01*
X105248Y258331D02*
X127886D01*
Y189827D02*
Y258331D01*
X105248Y189827D02*
X127886D01*
X105248D02*
Y258331D01*
X261425Y400650D02*
X264575D01*
X261425Y394350D02*
X264575D01*
Y400650D01*
X261425Y394350D02*
Y400650D01*
X203602Y389425D02*
Y392575D01*
X209902Y389425D02*
Y392575D01*
X203602D02*
X209902D01*
X203602Y389425D02*
X209902D01*
X202125Y383650D02*
X205275D01*
X202125Y377350D02*
Y383650D01*
Y377350D02*
X205275D01*
Y383650D01*
X194138Y415563D02*
X198862D01*
X194138Y423437D02*
X198862D01*
X194138Y415563D02*
Y423437D01*
X198862Y415563D02*
Y423437D01*
X159538Y459137D02*
X164262D01*
X159538Y451263D02*
X164262D01*
Y459137D01*
X159538Y451263D02*
Y459137D01*
X128125Y319050D02*
X131275D01*
X128125Y312750D02*
X131275D01*
Y319050D01*
X128125Y312750D02*
Y319050D01*
X120638Y312863D02*
X125362D01*
X120638Y320737D02*
X125362D01*
X120638Y312863D02*
Y320737D01*
X125362Y312863D02*
Y320737D01*
X181559Y275403D02*
X189827D01*
X181559Y270088D02*
X189827D01*
X181559D02*
Y275403D01*
X189827Y270088D02*
Y275403D01*
X377575Y301701D02*
Y308000D01*
X374425Y301701D02*
X377575D01*
X374425D02*
Y308000D01*
X377575D01*
X318025Y363650D02*
X321175D01*
X318025Y357350D02*
Y363650D01*
Y357350D02*
X321175D01*
Y363650D01*
X376875Y412750D02*
Y419050D01*
X373725Y412750D02*
X376875D01*
X373725D02*
Y419050D01*
X376875D01*
X336004Y117500D02*
Y142500D01*
X323996D02*
X336004D01*
X323996Y117500D02*
Y142500D01*
Y117500D02*
X336004D01*
X335000Y476496D02*
X360000D01*
Y488504D01*
X335000D02*
X360000D01*
X335000Y476496D02*
Y488504D01*
X197563Y358638D02*
Y363362D01*
X205437Y358638D02*
Y363362D01*
X197563D02*
X205437D01*
X197563Y358638D02*
X205437D01*
X310425Y465850D02*
Y472150D01*
X313575D01*
Y465850D02*
Y472150D01*
X310425Y465850D02*
X313575D01*
X374425Y192000D02*
Y198299D01*
X377575D01*
Y192000D02*
Y198299D01*
X374425Y192000D02*
X377575D01*
X312875Y246650D02*
Y252950D01*
X309725Y246650D02*
X312875D01*
X309725D02*
Y252950D01*
X312875D01*
X220263Y244338D02*
Y249062D01*
X228137Y244338D02*
Y249062D01*
X220263D02*
X228137D01*
X220263Y244338D02*
X228137D01*
X159989Y217957D02*
X161958Y215989D01*
X159989D02*
X183611D01*
Y239611D01*
X159989D02*
X183611D01*
X159989Y215989D02*
Y239611D01*
X293550Y212809D02*
X299850D01*
Y201391D02*
Y212809D01*
X293550Y201391D02*
X299850D01*
X293550D02*
Y212809D01*
Y209068D02*
X297290Y212809D01*
X236575Y316850D02*
Y323150D01*
X233425Y316850D02*
Y323150D01*
X236575D01*
X233425Y316850D02*
X236575D01*
X224575D02*
Y323150D01*
X221425Y316850D02*
Y323150D01*
X224575D01*
X221425Y316850D02*
X224575D01*
X209425D02*
X212575D01*
X209425Y323150D02*
X212575D01*
X209425Y316850D02*
Y323150D01*
X212575Y316850D02*
Y323150D01*
X251250Y233625D02*
X257550D01*
X251250Y236775D02*
X257550D01*
Y233625D02*
Y236775D01*
X251250Y233625D02*
Y236775D01*
X335000Y366496D02*
Y378504D01*
X360000D01*
Y366496D02*
Y378504D01*
X335000Y366496D02*
X360000D01*
X332500Y256496D02*
X357500D01*
Y268504D01*
X332500D02*
X357500D01*
X332500Y256496D02*
Y268504D01*
X251998Y220525D02*
Y223675D01*
X258298Y220525D02*
Y223675D01*
X251998D02*
X258298D01*
X251998Y220525D02*
X258298D01*
X283925Y204050D02*
Y210350D01*
X287075Y204050D02*
Y210350D01*
X283925Y204050D02*
X287075D01*
X283925Y210350D02*
X287075D01*
X258298Y215225D02*
Y218375D01*
X251998Y215225D02*
Y218375D01*
Y215225D02*
X258298D01*
X251998Y218375D02*
X258298D01*
X180050Y253425D02*
Y256575D01*
X173750Y253425D02*
Y256575D01*
Y253425D02*
X180050D01*
X173750Y256575D02*
X180050D01*
Y248325D02*
Y251475D01*
X173750Y248325D02*
Y251475D01*
Y248325D02*
X180050D01*
X173750Y251475D02*
X180050D01*
X167225Y247650D02*
Y253950D01*
X170375Y247650D02*
Y253950D01*
X167225Y247650D02*
X170375D01*
X167225Y253950D02*
X170375D01*
X251463Y231362D02*
X259337D01*
X251463Y226638D02*
X259337D01*
X251463D02*
Y231362D01*
X259337Y226638D02*
Y231362D01*
X276838Y204163D02*
X281562D01*
X276838Y212037D02*
X281562D01*
X276838Y204163D02*
Y212037D01*
X281562Y204163D02*
Y212037D01*
X301437Y215438D02*
Y220162D01*
X293563Y215438D02*
Y220162D01*
Y215438D02*
X301437D01*
X293563Y220162D02*
X301437D01*
X169637Y188738D02*
Y193462D01*
X161763Y188738D02*
Y193462D01*
Y188738D02*
X169637D01*
X161763Y193462D02*
X169637D01*
X156918Y184104D02*
Y197096D01*
X146682Y184104D02*
Y197096D01*
X156918D01*
X146682Y184104D02*
X156918D01*
X193863Y240238D02*
X201737D01*
X193863Y244962D02*
X201737D01*
Y240238D02*
Y244962D01*
X193863Y240238D02*
Y244962D01*
X194463Y193038D02*
Y197762D01*
X202337Y193038D02*
Y197762D01*
X194463D02*
X202337D01*
X194463Y193038D02*
X202337D01*
X189837Y202638D02*
Y207362D01*
X181963Y202638D02*
Y207362D01*
Y202638D02*
X189837D01*
X181963Y207362D02*
X189837D01*
X167438Y275363D02*
X172162D01*
X167438Y283237D02*
X172162D01*
X167438Y275363D02*
Y283237D01*
X172162Y275363D02*
Y283237D01*
X238638Y317063D02*
Y324937D01*
X243362Y317063D02*
Y324937D01*
X238638Y317063D02*
X243362D01*
X238638Y324937D02*
X243362D01*
X160038Y197163D02*
Y205037D01*
X164762Y197163D02*
Y205037D01*
X160038Y197163D02*
X164762D01*
X160038Y205037D02*
X164762D01*
X226638Y324795D02*
X231362D01*
X226638Y316921D02*
X231362D01*
Y324795D01*
X226638Y316921D02*
Y324795D01*
X149537Y234138D02*
Y238862D01*
X141663Y234138D02*
Y238862D01*
Y234138D02*
X149537D01*
X141663Y238862D02*
X149537D01*
X214638Y324937D02*
X219362D01*
X214638Y317063D02*
X219362D01*
Y324937D01*
X214638Y317063D02*
Y324937D01*
X147763Y201638D02*
Y206362D01*
X155637Y201638D02*
Y206362D01*
X147763D02*
X155637D01*
X147763Y201638D02*
X155637D01*
X192338Y297563D02*
Y305437D01*
X197062Y297563D02*
Y305437D01*
X192338Y297563D02*
X197062D01*
X192338Y305437D02*
X197062D01*
X313950Y171175D02*
X320250D01*
Y168025D02*
Y171175D01*
X313950Y168025D02*
X320250D01*
X313950D02*
Y171175D01*
X220315Y164685D02*
X259685D01*
Y125315D02*
Y164685D01*
X220315Y125315D02*
X259685D01*
X220315D02*
Y164685D01*
X145748Y408114D02*
X150748Y403114D01*
X145748D02*
X165039D01*
Y418469D01*
X145748D02*
X165039D01*
X145748Y403114D02*
Y418469D01*
X224150Y402925D02*
Y406075D01*
X217850Y402925D02*
Y406075D01*
Y402925D02*
X224150D01*
X217850Y406075D02*
X224150D01*
X207350Y211275D02*
X213650D01*
X207350Y208125D02*
X213650D01*
X207350D02*
Y211275D01*
X213650Y208125D02*
Y211275D01*
X139738Y265863D02*
X144462D01*
X139738Y273737D02*
X144462D01*
X139738Y265863D02*
Y273737D01*
X144462Y265863D02*
Y273737D01*
X134538Y319637D02*
X139262D01*
X134538Y311763D02*
X139262D01*
Y319637D01*
X134538Y311763D02*
Y319637D01*
X149138Y376937D02*
X153862D01*
X149138Y369063D02*
X153862D01*
Y376937D01*
X149138Y369063D02*
Y376937D01*
X141638Y369063D02*
X146362D01*
X141638Y376937D02*
X146362D01*
X141638Y369063D02*
Y376937D01*
X146362Y369063D02*
Y376937D01*
X196638Y324937D02*
X201362D01*
X196638Y317063D02*
X201362D01*
Y324937D01*
X196638Y317063D02*
Y324937D01*
X158638Y305937D02*
X163362D01*
X158638Y298063D02*
X163362D01*
Y305937D01*
X158638Y298063D02*
Y305937D01*
X158638Y284063D02*
X163362D01*
X158638Y291937D02*
X163362D01*
X158638Y284063D02*
Y291937D01*
X163362Y284063D02*
Y291937D01*
X149794Y263394D02*
X161606D01*
Y275205D01*
X149794D02*
X161606D01*
X149794Y263394D02*
Y275205D01*
X182063Y414638D02*
Y419362D01*
X189937Y414638D02*
Y419362D01*
X182063D02*
X189937D01*
X182063Y414638D02*
X189937D01*
X234445Y422492D02*
X237004Y425051D01*
X234445Y405366D02*
Y425051D01*
Y405366D02*
X251768D01*
Y425051D01*
X234445D02*
X251768D01*
X190634Y401681D02*
X199689Y392626D01*
X174098Y401681D02*
X199689D01*
X174098Y387902D02*
Y401681D01*
Y387902D02*
X199689D01*
Y401681D01*
X151850Y431075D02*
X158150D01*
X151850Y427925D02*
X158150D01*
X151850D02*
Y431075D01*
X158150Y427925D02*
Y431075D01*
X205563Y200938D02*
X213437D01*
X205563Y205662D02*
X213437D01*
Y200938D02*
Y205662D01*
X205563Y200938D02*
Y205662D01*
X252205Y197262D02*
X260079D01*
X252205Y192538D02*
X260079D01*
X252205D02*
Y197262D01*
X260079Y192538D02*
Y197262D01*
X205763Y224538D02*
X213637D01*
X205763Y229262D02*
X213637D01*
Y224538D02*
Y229262D01*
X205763Y224538D02*
Y229262D01*
X216063Y415138D02*
X223937D01*
X216063Y419862D02*
X223937D01*
Y415138D02*
Y419862D01*
X216063Y415138D02*
Y419862D01*
Y412862D02*
X223937D01*
X216063Y408138D02*
X223937D01*
X216063D02*
Y412862D01*
X223937Y408138D02*
Y412862D01*
X129638Y297363D02*
Y305237D01*
X134362Y297363D02*
Y305237D01*
X129638Y297363D02*
X134362D01*
X129638Y305237D02*
X134362D01*
X182063Y421638D02*
X189937D01*
X182063Y426362D02*
X189937D01*
Y421638D02*
Y426362D01*
X182063Y421638D02*
Y426362D01*
X172362Y403205D02*
Y411079D01*
X167638Y403205D02*
Y411079D01*
X172362D01*
X167638Y403205D02*
X172362D01*
X199438Y297563D02*
Y305437D01*
X204162Y297563D02*
Y305437D01*
X199438Y297563D02*
X204162D01*
X199438Y305437D02*
X204162D01*
X197563Y351138D02*
X205437D01*
X197563Y355862D02*
X205437D01*
Y351138D02*
Y355862D01*
X197563Y351138D02*
Y355862D01*
X395315Y450315D02*
X434685D01*
Y489685D01*
X395315D02*
X434685D01*
X395315Y450315D02*
Y489685D01*
Y340315D02*
Y379685D01*
X434685D01*
Y340315D02*
Y379685D01*
X395315Y340315D02*
X434685D01*
X395315Y230315D02*
Y269685D01*
X434685D01*
Y230315D02*
Y269685D01*
X395315Y230315D02*
X434685D01*
X258250Y204825D02*
Y207975D01*
X251950Y204825D02*
Y207975D01*
Y204825D02*
X258250D01*
X251950Y207975D02*
X258250D01*
Y210125D02*
Y213275D01*
X251950Y210125D02*
Y213275D01*
Y210125D02*
X258250D01*
X251950Y213275D02*
X258250D01*
X207450Y218425D02*
Y221575D01*
X213750Y218425D02*
Y221575D01*
X207450D02*
X213750D01*
X207450Y218425D02*
X213750D01*
X207350Y213225D02*
Y216375D01*
X213650Y213225D02*
Y216375D01*
X207350D02*
X213650D01*
X207350Y213225D02*
X213650D01*
X207825Y248550D02*
X210975D01*
X207825Y242250D02*
X210975D01*
Y248550D01*
X207825Y242250D02*
Y248550D01*
X213125Y248350D02*
X216275D01*
X213125Y242050D02*
X216275D01*
Y248350D01*
X213125Y242050D02*
Y248350D01*
X213850Y231625D02*
Y234775D01*
X207550Y231625D02*
Y234775D01*
Y231625D02*
X213850D01*
X207550Y234775D02*
X213850D01*
X164325Y264250D02*
X167475D01*
X164325Y270550D02*
X167475D01*
X164325Y264250D02*
Y270550D01*
X167475Y264250D02*
Y270550D01*
X251998Y199525D02*
Y202675D01*
X258298Y199525D02*
Y202675D01*
X251998D02*
X258298D01*
X251998Y199525D02*
X258298D01*
X246425Y394350D02*
X249575D01*
X246425Y400650D02*
X249575D01*
X246425Y394350D02*
Y400650D01*
X249575Y394350D02*
Y400650D01*
X241425Y400650D02*
X244575D01*
X241425Y394350D02*
X244575D01*
Y400650D01*
X241425Y394350D02*
Y400650D01*
X236425D02*
X239575D01*
X236425Y394350D02*
X239575D01*
Y400650D01*
X236425Y394350D02*
Y400650D01*
X251425D02*
X254575D01*
X251425Y394350D02*
X254575D01*
Y400650D01*
X251425Y394350D02*
Y400650D01*
X231425D02*
X234575D01*
X231425Y394350D02*
X234575D01*
Y400650D01*
X231425Y394350D02*
Y400650D01*
X256425D02*
X259575D01*
X256425Y394350D02*
X259575D01*
Y400650D01*
X256425Y394350D02*
Y400650D01*
X150315Y125315D02*
Y164685D01*
Y125315D02*
X189685D01*
Y164685D01*
X150315D02*
X189685D01*
D113*
X225000Y200400D02*
Y234800D01*
X240800D01*
Y200400D02*
Y234800D01*
X225000Y200400D02*
X240800D01*
Y233600D02*
X245100D01*
Y231600D02*
Y233600D01*
X240800Y231600D02*
X245100D01*
X240800D02*
Y233600D01*
Y228600D02*
X245100D01*
Y226600D02*
Y228600D01*
X240800Y226600D02*
X245100D01*
X240800D02*
Y228600D01*
Y223600D02*
X245100D01*
Y221600D02*
Y223600D01*
X240800Y221600D02*
X245100D01*
X240800D02*
Y223600D01*
Y218600D02*
X245100D01*
Y216600D02*
Y218600D01*
X240800Y216600D02*
X245100D01*
X240800D02*
Y218600D01*
Y213600D02*
X245100D01*
Y211600D02*
Y213600D01*
X240800Y211600D02*
X245100D01*
X240800D02*
Y213600D01*
Y208600D02*
X245100D01*
Y206600D02*
Y208600D01*
X240800Y206600D02*
X245100D01*
X240800D02*
Y208600D01*
Y203600D02*
X245100D01*
Y201600D02*
Y203600D01*
X240800Y201600D02*
X245100D01*
X240800D02*
Y203600D01*
X220700Y201600D02*
X225000D01*
X220700D02*
Y203600D01*
X225000D01*
Y201600D02*
Y203600D01*
X220700Y206600D02*
X225000D01*
X220700D02*
Y208600D01*
X225000D01*
Y206600D02*
Y208600D01*
X220700Y211600D02*
X225000D01*
X220700D02*
Y213600D01*
X225000D01*
Y211600D02*
Y213600D01*
X220700Y216600D02*
X225000D01*
X220700D02*
Y218600D01*
X225000D01*
Y216600D02*
Y218600D01*
X220700Y221600D02*
X225000D01*
X220700D02*
Y223600D01*
X225000D01*
Y221600D02*
Y223600D01*
X220700Y226600D02*
X225000D01*
X220700D02*
Y228600D01*
X225000D01*
Y226600D02*
Y228600D01*
X220700Y231600D02*
X225000D01*
X220700D02*
Y233600D01*
X225000D01*
Y231600D02*
Y233600D01*
M02*
