G04*
G04 #@! TF.GenerationSoftware,Altium Limited,Altium Designer,21.0.9 (235)*
G04*
G04 Layer_Physical_Order=1*
G04 Layer_Color=255*
%FSLAX25Y25*%
%MOIN*%
G70*
G04*
G04 #@! TF.SameCoordinates,BF8AA8E3-E573-41D7-9BE7-E27BED457F28*
G04*
G04*
G04 #@! TF.FilePolarity,Positive*
G04*
G01*
G75*
%ADD15C,0.01000*%
%ADD18R,0.05512X0.08268*%
%ADD19R,0.03347X0.02756*%
%ADD20R,0.02756X0.03347*%
%ADD21R,0.03740X0.03543*%
%ADD22R,0.05315X0.03937*%
G04:AMPARAMS|DCode=23|XSize=39.37mil|YSize=39.37mil|CornerRadius=9.84mil|HoleSize=0mil|Usage=FLASHONLY|Rotation=90.000|XOffset=0mil|YOffset=0mil|HoleType=Round|Shape=RoundedRectangle|*
%AMROUNDEDRECTD23*
21,1,0.03937,0.01968,0,0,90.0*
21,1,0.01968,0.03937,0,0,90.0*
1,1,0.01968,0.00984,0.00984*
1,1,0.01968,0.00984,-0.00984*
1,1,0.01968,-0.00984,-0.00984*
1,1,0.01968,-0.00984,0.00984*
%
%ADD23ROUNDEDRECTD23*%
%ADD24R,0.04331X0.04724*%
%ADD25R,0.03937X0.05315*%
%ADD26R,0.07800X0.02200*%
%ADD27R,0.16732X0.16732*%
%ADD28R,0.03347X0.00984*%
%ADD29R,0.00984X0.03347*%
%ADD30R,0.04724X0.02362*%
%ADD31R,0.10827X0.04331*%
%ADD32R,0.04724X0.01181*%
%ADD33R,0.01181X0.04724*%
%ADD34R,0.03543X0.03740*%
%ADD35R,0.02756X0.06102*%
%ADD36R,0.02362X0.01181*%
%ADD37R,0.01181X0.02362*%
%ADD38R,0.05807X0.01772*%
%ADD39R,0.12598X0.06890*%
%ADD40R,0.03740X0.06890*%
%ADD41R,0.03937X0.06102*%
%ADD42R,0.05709X0.03937*%
%ADD43R,0.03150X0.05906*%
%ADD44R,0.05118X0.05906*%
%ADD45R,0.02756X0.06890*%
%ADD46R,0.05906X0.05906*%
%ADD47R,0.03150X0.05512*%
%ADD48R,0.09449X0.07480*%
%ADD87C,0.01500*%
%ADD88C,0.02000*%
%ADD89C,0.03000*%
%ADD90R,0.06496X0.06496*%
%ADD91C,0.06496*%
%ADD92C,0.05906*%
%ADD93R,0.05906X0.05906*%
%ADD94C,0.23622*%
%ADD95R,0.07874X0.07874*%
%ADD96C,0.07874*%
%ADD97C,0.04724*%
%ADD98R,0.04724X0.04724*%
%ADD99C,0.12598*%
%ADD100C,0.16535*%
G04:AMPARAMS|DCode=101|XSize=66.93mil|YSize=78.74mil|CornerRadius=16.73mil|HoleSize=0mil|Usage=FLASHONLY|Rotation=270.000|XOffset=0mil|YOffset=0mil|HoleType=Round|Shape=RoundedRectangle|*
%AMROUNDEDRECTD101*
21,1,0.06693,0.04528,0,0,270.0*
21,1,0.03347,0.07874,0,0,270.0*
1,1,0.03346,-0.02264,-0.01673*
1,1,0.03346,-0.02264,0.01673*
1,1,0.03346,0.02264,0.01673*
1,1,0.03346,0.02264,-0.01673*
%
%ADD101ROUNDEDRECTD101*%
%ADD102O,0.07874X0.06693*%
%ADD103C,0.02500*%
G36*
X307500Y486647D02*
X307259Y486407D01*
X306917Y485580D01*
Y484685D01*
X307259Y483858D01*
X307500Y483617D01*
Y474604D01*
X307000Y474525D01*
X306872Y474918D01*
X305957Y476714D01*
X304772Y478346D01*
X303346Y479772D01*
X301714Y480957D01*
X299918Y481872D01*
X298000Y482496D01*
X296008Y482811D01*
X293992D01*
X292000Y482496D01*
X290082Y481872D01*
X288286Y480957D01*
X286654Y479772D01*
X285228Y478346D01*
X284043Y476714D01*
X283128Y474918D01*
X282504Y473000D01*
X282189Y471008D01*
Y468992D01*
X282504Y467000D01*
X283128Y465082D01*
X284043Y463286D01*
X285228Y461654D01*
X286654Y460228D01*
X288286Y459043D01*
X290082Y458128D01*
X292000Y457504D01*
X293992Y457189D01*
X296008D01*
X298000Y457504D01*
X299918Y458128D01*
X301714Y459043D01*
X303346Y460228D01*
X304772Y461654D01*
X305957Y463286D01*
X306872Y465082D01*
X307000Y465475D01*
X307500Y465396D01*
X307500Y441552D01*
X304487D01*
X304290Y441750D01*
X303463Y442092D01*
X302568D01*
X301741Y441750D01*
X301108Y441117D01*
X300765Y440290D01*
Y439395D01*
X301108Y438568D01*
X301741Y437935D01*
X302568Y437592D01*
X303463D01*
X304290Y437935D01*
X304645Y438290D01*
X307500D01*
Y392944D01*
X307000Y392636D01*
X306764Y392754D01*
X306507Y393374D01*
X305874Y394007D01*
X305048Y394350D01*
X304152D01*
X303326Y394007D01*
X302693Y393374D01*
X302350Y392548D01*
Y391652D01*
X302693Y390826D01*
X303326Y390193D01*
X304152Y389850D01*
X304949D01*
X305952Y388846D01*
X306482Y388493D01*
X307106Y388369D01*
X307500D01*
Y372431D01*
X307096Y372137D01*
X305992Y372496D01*
X304000Y372811D01*
X301984D01*
X299992Y372496D01*
X298074Y371872D01*
X296278Y370957D01*
X294646Y369772D01*
X293220Y368346D01*
X292035Y366714D01*
X291120Y364918D01*
X290497Y363000D01*
X290181Y361008D01*
Y358992D01*
X290497Y357000D01*
X291120Y355082D01*
X292035Y353286D01*
X293220Y351654D01*
X294646Y350228D01*
X296278Y349043D01*
X298074Y348128D01*
X299992Y347504D01*
X301984Y347189D01*
X304000D01*
X305992Y347504D01*
X307096Y347863D01*
X307500Y347569D01*
X307500Y338682D01*
X307084Y338404D01*
X306688Y338568D01*
X305793D01*
X304966Y338225D01*
X304333Y337592D01*
X303991Y336765D01*
Y335870D01*
X304333Y335043D01*
X304705Y334671D01*
Y333664D01*
X304829Y333039D01*
X305183Y332510D01*
X307500Y330193D01*
Y254604D01*
X307000Y254525D01*
X306872Y254918D01*
X305957Y256714D01*
X304772Y258346D01*
X303346Y259772D01*
X301714Y260957D01*
X299918Y261872D01*
X298000Y262496D01*
X296008Y262811D01*
X293992D01*
X292000Y262496D01*
X290082Y261872D01*
X288286Y260957D01*
X286654Y259772D01*
X285228Y258346D01*
X284043Y256714D01*
X283128Y254918D01*
X282504Y253000D01*
X282189Y251008D01*
Y248992D01*
X282504Y247000D01*
X283128Y245082D01*
X284043Y243286D01*
X285228Y241654D01*
X286654Y240228D01*
X288286Y239043D01*
X290082Y238128D01*
X292000Y237504D01*
X293992Y237189D01*
X296008D01*
X298000Y237504D01*
X299918Y238128D01*
X301714Y239043D01*
X303346Y240228D01*
X304772Y241654D01*
X305957Y243286D01*
X306872Y245082D01*
X307000Y245475D01*
X307500Y245396D01*
X307500Y199962D01*
X299500D01*
X298821Y200641D01*
Y201579D01*
X304584D01*
Y205141D01*
X298659D01*
Y204481D01*
X297759D01*
X297759Y204481D01*
X297330Y204396D01*
X297027Y204194D01*
X296763Y204128D01*
X296700Y204120D01*
X296637Y204128D01*
X296373Y204194D01*
X296070Y204396D01*
X295641Y204481D01*
X295641Y204481D01*
X295094D01*
X294741Y204835D01*
Y205141D01*
X294741Y205641D01*
Y206504D01*
X295181Y206660D01*
X295610Y206745D01*
X295974Y206988D01*
X297759Y208773D01*
X298259Y208659D01*
X298329Y208659D01*
X301121D01*
Y210840D01*
X301621D01*
Y211340D01*
X304983D01*
Y213021D01*
X302263D01*
Y214142D01*
X304110D01*
Y217300D01*
X301142D01*
X298173D01*
Y215089D01*
X297673Y214882D01*
X296427Y216129D01*
Y221058D01*
X294980D01*
Y221987D01*
X295289Y222115D01*
X295922Y222748D01*
X296265Y223575D01*
Y224470D01*
X295922Y225297D01*
X295289Y225930D01*
X294462Y226272D01*
X293567D01*
X292740Y225930D01*
X292107Y225297D01*
X291764Y224470D01*
Y223575D01*
X292107Y222748D01*
X292737Y222118D01*
Y221058D01*
X291290D01*
Y214543D01*
X294841D01*
X295978Y213405D01*
Y210165D01*
X295241Y209427D01*
X294741Y209634D01*
Y212621D01*
X288816D01*
Y211766D01*
X287773D01*
Y212426D01*
X283227D01*
Y210458D01*
X282767Y210258D01*
X282457Y210508D01*
Y214310D01*
X275942D01*
Y209173D01*
X280582D01*
X282228Y207527D01*
X282021Y207027D01*
X275942D01*
Y205630D01*
X274748D01*
X274685Y205783D01*
X274052Y206416D01*
X273225Y206759D01*
X272330D01*
X271503Y206416D01*
X270870Y205783D01*
X270527Y204956D01*
Y204061D01*
X270870Y203234D01*
X271503Y202601D01*
X272330Y202259D01*
X273225D01*
X274052Y202601D01*
X274685Y203234D01*
X274748Y203387D01*
X275942D01*
Y201890D01*
X282457D01*
Y202830D01*
X283227D01*
Y201974D01*
X287773D01*
X287773Y205930D01*
X288253Y205978D01*
X288463D01*
X288816Y205625D01*
Y205319D01*
X288816Y204819D01*
Y201579D01*
X294579D01*
Y199348D01*
X294578Y199348D01*
X294664Y198919D01*
X294907Y198555D01*
X297414Y196048D01*
X297414Y196048D01*
X297778Y195805D01*
X298207Y195719D01*
X298207Y195719D01*
X307500D01*
Y192751D01*
X307250Y192148D01*
Y191252D01*
X307500Y190649D01*
Y185000D01*
X231350D01*
Y185398D01*
X231008Y186224D01*
X230532Y186700D01*
X231008Y187176D01*
X231350Y188002D01*
Y188898D01*
X231008Y189725D01*
X230375Y190357D01*
X229548Y190700D01*
X228652D01*
X227825Y190357D01*
X227192Y189725D01*
X227129Y189572D01*
X220997D01*
X220746Y189622D01*
X220746Y189622D01*
X209406D01*
X204610Y194418D01*
Y197719D01*
X204922Y197869D01*
X205110Y197892D01*
X206026Y196977D01*
X205963Y196824D01*
Y195929D01*
X206305Y195102D01*
X206938Y194469D01*
X207765Y194126D01*
X208660D01*
X209487Y194469D01*
X210120Y195102D01*
X210463Y195929D01*
Y196824D01*
X210120Y197651D01*
X209487Y198284D01*
X208660Y198626D01*
X207765D01*
X207612Y198563D01*
X206980Y199195D01*
Y200043D01*
X208427D01*
Y206083D01*
X208427Y206411D01*
X208884Y206661D01*
X210573Y204971D01*
Y200043D01*
X211453D01*
X211661Y199542D01*
X211392Y199275D01*
X211050Y198448D01*
Y197552D01*
X211392Y196725D01*
X212025Y196092D01*
X212852Y195750D01*
X213748D01*
X214575Y196092D01*
X215208Y196725D01*
X215550Y197552D01*
Y198448D01*
X215208Y199275D01*
X214939Y199542D01*
X215147Y200043D01*
X215710D01*
Y206378D01*
X215710Y206557D01*
X216077Y206878D01*
X218700D01*
Y205900D01*
X221978D01*
Y204300D01*
X218700D01*
Y200900D01*
X227578D01*
X227700Y200900D01*
X228079Y200606D01*
Y198971D01*
X227925Y198907D01*
X227292Y198275D01*
X226950Y197448D01*
Y196552D01*
X227292Y195726D01*
X227925Y195092D01*
X228752Y194750D01*
X229648D01*
X230474Y195092D01*
X231107Y195726D01*
X231450Y196552D01*
Y197448D01*
X231107Y198275D01*
X230474Y198907D01*
X230322Y198971D01*
Y206535D01*
X237600Y213814D01*
X238100Y213607D01*
Y210900D01*
X247100D01*
Y211379D01*
X249874D01*
Y209427D01*
X250730D01*
Y208673D01*
X249874D01*
Y204127D01*
X253830D01*
Y208673D01*
X252974D01*
Y209427D01*
X253830D01*
Y213973D01*
X249874D01*
Y213621D01*
X247100D01*
Y214300D01*
X238793D01*
X238586Y214800D01*
X239686Y215900D01*
X247100D01*
Y219300D01*
X238100D01*
Y217486D01*
X228407Y207793D01*
X227792Y207773D01*
X227700Y207845D01*
Y209300D01*
X218700D01*
Y209121D01*
X216149D01*
X215726Y209544D01*
X215726Y211973D01*
X216182Y212078D01*
X218700D01*
Y210900D01*
X227700D01*
Y214300D01*
X221408D01*
X221300Y214321D01*
X215813D01*
X215726Y214408D01*
Y217073D01*
X214920D01*
Y217727D01*
X215826D01*
Y222273D01*
X211870D01*
Y217727D01*
X212677D01*
Y217073D01*
X211770D01*
Y212527D01*
X213990D01*
X214065Y212473D01*
X214033Y212258D01*
X213807Y211973D01*
X211770D01*
Y207654D01*
X211270Y207447D01*
X209397Y209320D01*
X209230Y209432D01*
Y211973D01*
X205274D01*
Y207427D01*
X208022D01*
X208130Y207405D01*
X208139D01*
X208530Y207015D01*
X208280Y206557D01*
X207988Y206557D01*
X203290D01*
Y200043D01*
X204737D01*
Y199105D01*
X204626Y198714D01*
X204251Y198658D01*
X200682D01*
X200573Y198679D01*
X200522Y199160D01*
Y204152D01*
X200522Y204152D01*
X200436Y204581D01*
X200193Y204945D01*
X200193Y204945D01*
X195459Y209679D01*
X195667Y210178D01*
X200029D01*
X200093Y210026D01*
X200726Y209392D01*
X201552Y209050D01*
X202448D01*
X203274Y209392D01*
X203907Y210026D01*
X204250Y210852D01*
Y211748D01*
X203907Y212575D01*
X203866Y212616D01*
X204057Y213078D01*
X205274D01*
Y212527D01*
X209230D01*
Y217073D01*
X205274D01*
Y215321D01*
X200571D01*
X200507Y215475D01*
X199874Y216108D01*
X199048Y216450D01*
X198576D01*
X198242Y216950D01*
X198450Y217452D01*
Y218348D01*
X198108Y219175D01*
X197475Y219808D01*
X196834Y220073D01*
X196790Y220419D01*
X196794Y220612D01*
X197402Y221220D01*
X197745Y222047D01*
Y222942D01*
X197402Y223769D01*
X196769Y224402D01*
X195942Y224745D01*
X195047D01*
X194894Y224681D01*
X193255Y226321D01*
X193255Y226321D01*
X191444Y228131D01*
X191690Y228592D01*
X191839Y228563D01*
X194708D01*
X194708Y228563D01*
X195137Y228648D01*
X195501Y228891D01*
X196250Y229641D01*
X196750Y229433D01*
Y228752D01*
X197092Y227925D01*
X197725Y227292D01*
X198552Y226950D01*
X199448D01*
X199601Y227013D01*
X200507Y226107D01*
X200507Y226107D01*
X200871Y225864D01*
X201300Y225778D01*
X201300Y225779D01*
X203490D01*
Y223642D01*
X204937D01*
Y221589D01*
X204937Y221589D01*
X205022Y221160D01*
X205265Y220796D01*
X205374Y220687D01*
Y217727D01*
X209330D01*
Y222273D01*
X207180D01*
Y223642D01*
X208627D01*
Y230011D01*
X209084Y230260D01*
X210773Y228571D01*
Y223642D01*
X215910D01*
Y230157D01*
X212474D01*
X212246Y230448D01*
X212459Y230927D01*
X215926D01*
Y231779D01*
X218700D01*
Y230900D01*
X221078D01*
Y229300D01*
X218700D01*
Y225900D01*
X227700D01*
Y229300D01*
X223322D01*
Y230900D01*
X227700D01*
Y234300D01*
X218700D01*
Y234021D01*
X215926D01*
Y235473D01*
X211970D01*
Y231254D01*
X211470Y231047D01*
X209697Y232820D01*
X209430Y232998D01*
Y233887D01*
X210706Y235163D01*
X210706Y235163D01*
X210933Y235503D01*
X211474Y235728D01*
X212107Y236360D01*
X212450Y237187D01*
Y238083D01*
X212107Y238909D01*
X211474Y239542D01*
X211157Y239674D01*
X211256Y240174D01*
X211673D01*
Y240679D01*
X212427D01*
Y239974D01*
X216973D01*
Y240679D01*
X227250D01*
X229379Y238550D01*
Y226765D01*
X226935Y224322D01*
X223943D01*
X223943Y224322D01*
X223834Y224300D01*
X218700D01*
Y220900D01*
X227700D01*
Y222138D01*
X227829Y222164D01*
X228193Y222407D01*
X231293Y225507D01*
X231293Y225507D01*
X231536Y225871D01*
X231622Y226300D01*
Y239014D01*
X231622Y239014D01*
X231536Y239443D01*
X231293Y239807D01*
X231293Y239807D01*
X228558Y242543D01*
X228588Y242752D01*
X228735Y243042D01*
X230810D01*
Y246200D01*
X227842D01*
X224873D01*
Y243422D01*
X224873Y243042D01*
X224423Y242921D01*
X216973D01*
Y243930D01*
X212427D01*
Y242921D01*
X211673D01*
Y244130D01*
X209011D01*
X208819Y244592D01*
X209020Y244793D01*
X209020Y244793D01*
X209263Y245156D01*
X209348Y245586D01*
Y246670D01*
X211673D01*
Y248249D01*
X211947Y248468D01*
X212427Y248256D01*
Y246470D01*
X215387D01*
X215950Y245907D01*
X215950Y245907D01*
X216314Y245664D01*
X216743Y245578D01*
X216743Y245579D01*
X217990D01*
Y243443D01*
X223127D01*
Y249957D01*
X221680D01*
Y250613D01*
X221936Y251048D01*
X222831D01*
X223658Y251391D01*
X224291Y252024D01*
X224634Y252851D01*
Y253746D01*
X224291Y254573D01*
X223658Y255205D01*
X222831Y255548D01*
X221936D01*
X221109Y255205D01*
X220476Y254573D01*
X220134Y253746D01*
Y252851D01*
X220197Y252697D01*
X219765Y252266D01*
X219522Y251902D01*
X219437Y251472D01*
X219437Y251472D01*
Y249957D01*
X217990D01*
Y247821D01*
X217208D01*
X216973Y248056D01*
Y250426D01*
X214324D01*
X214133Y250888D01*
X216093Y252848D01*
X216783Y252562D01*
X217678D01*
X218505Y252904D01*
X219138Y253537D01*
X219481Y254364D01*
Y255259D01*
X219138Y256086D01*
X218505Y256719D01*
X217678Y257062D01*
X216783D01*
X215956Y256719D01*
X215567Y256330D01*
X215030Y256223D01*
X214500Y255870D01*
X210273Y251642D01*
X210053Y251313D01*
X209366Y250626D01*
X207127D01*
Y247879D01*
X207105Y247770D01*
X207105Y247770D01*
Y246050D01*
X205253Y244198D01*
X205010Y243834D01*
X204925Y243405D01*
X204925Y243405D01*
Y241488D01*
X204472Y241035D01*
X204010Y241226D01*
Y245858D01*
X200203D01*
X200056Y246210D01*
X200045Y246364D01*
X215959Y262279D01*
X222750D01*
X223429Y261600D01*
Y260850D01*
X223352D01*
X222526Y260507D01*
X221892Y259875D01*
X221550Y259048D01*
Y258152D01*
X221892Y257326D01*
X222526Y256693D01*
X223352Y256350D01*
X224248D01*
X225075Y256693D01*
X225550Y257168D01*
X226026Y256693D01*
X226852Y256350D01*
X227748D01*
X228574Y256693D01*
X229207Y257326D01*
X229550Y258152D01*
Y259048D01*
X229207Y259875D01*
X228574Y260507D01*
X227748Y260850D01*
X227672D01*
Y262893D01*
X227672Y262893D01*
X227586Y263322D01*
X227343Y263686D01*
X227343Y263686D01*
X224836Y266193D01*
X224472Y266436D01*
X224043Y266522D01*
X224043Y266522D01*
X214666D01*
X214666Y266522D01*
X214237Y266436D01*
X213873Y266193D01*
X196007Y248327D01*
X195764Y247963D01*
X195678Y247534D01*
X195678Y247534D01*
Y246360D01*
X195627Y245879D01*
X195518Y245858D01*
X191590D01*
Y243421D01*
X191090Y243321D01*
X190902Y243775D01*
X190269Y244408D01*
X189442Y244750D01*
X188547D01*
X188465Y244716D01*
X188111Y245070D01*
X188155Y245174D01*
Y246069D01*
X187812Y246896D01*
X187179Y247529D01*
X186352Y247872D01*
X185457D01*
X184630Y247529D01*
X184070Y246969D01*
X184042Y246974D01*
X183409Y247607D01*
X182582Y247950D01*
X182526D01*
Y249400D01*
X180148D01*
X177770D01*
Y248813D01*
X174406Y245449D01*
X173906Y245656D01*
Y247627D01*
X175630D01*
Y252173D01*
X174774D01*
Y252727D01*
X175630D01*
Y257273D01*
X171674D01*
Y256843D01*
X171473Y256426D01*
X169300D01*
Y254048D01*
X168300D01*
Y256426D01*
X166127D01*
Y254415D01*
X165983Y254311D01*
X165627Y254193D01*
X165202Y254477D01*
X164584Y254599D01*
X163459D01*
Y257527D01*
X163958Y258026D01*
X164300Y258852D01*
Y259748D01*
X163958Y260575D01*
X163324Y261208D01*
X162912Y261379D01*
X163011Y261878D01*
X164453D01*
X164453Y261878D01*
X164882Y261964D01*
X165197Y262174D01*
X168173D01*
Y263404D01*
X169642D01*
X169723Y262998D01*
X170074Y262474D01*
X170598Y262123D01*
X171216Y262000D01*
X173184D01*
X173802Y262123D01*
X174326Y262474D01*
X174677Y262998D01*
X174800Y263616D01*
Y263679D01*
X177088D01*
X177192Y263425D01*
X177825Y262792D01*
X178652Y262450D01*
X179548D01*
X180375Y262792D01*
X181008Y263425D01*
X181350Y264252D01*
Y265148D01*
X181008Y265974D01*
X180375Y266607D01*
X179548Y266950D01*
X178652D01*
X177825Y266607D01*
X177192Y265974D01*
X177171Y265921D01*
X174732D01*
X174677Y266202D01*
X174326Y266726D01*
X173802Y267077D01*
X173184Y267199D01*
X171216D01*
X170598Y267077D01*
X170074Y266726D01*
X169723Y266202D01*
X169613Y265648D01*
X168173D01*
Y266130D01*
X163627D01*
Y264122D01*
X162684D01*
X162206Y264172D01*
Y266141D01*
Y270304D01*
X162303Y270323D01*
X162667Y270566D01*
X162765Y270664D01*
X163227Y270473D01*
Y268270D01*
X165400D01*
Y270648D01*
X165900D01*
Y271148D01*
X168573D01*
Y271508D01*
X168679Y271666D01*
X168764Y272095D01*
X168764Y272095D01*
Y272690D01*
X169300D01*
Y275658D01*
Y278627D01*
X167035D01*
X166844Y279089D01*
X168129Y280373D01*
X173057D01*
Y285510D01*
X166542D01*
Y281959D01*
X164387Y279804D01*
X151219D01*
X151108Y280075D01*
X150475Y280708D01*
X149648Y281050D01*
X148752D01*
X147925Y280708D01*
X147292Y280075D01*
X146950Y279248D01*
Y278352D01*
X147292Y277525D01*
X147925Y276892D01*
X148752Y276550D01*
X149648D01*
X150475Y276892D01*
X151108Y277525D01*
X151122Y277561D01*
X163730D01*
Y274802D01*
X162668Y273739D01*
X162206Y273930D01*
Y274428D01*
X159259D01*
Y276205D01*
X158168D01*
Y274024D01*
X157168D01*
Y276205D01*
X156078D01*
Y275805D01*
X152541D01*
Y274828D01*
X151476D01*
Y273237D01*
X150976D01*
Y272737D01*
X148794D01*
Y271646D01*
X149195D01*
Y268329D01*
X148935Y268277D01*
X148571Y268034D01*
X145858Y265320D01*
X145648Y265350D01*
X145358Y265497D01*
Y268727D01*
X138842D01*
Y264487D01*
X137073Y262717D01*
X136326Y262407D01*
X135693Y261774D01*
X135350Y260948D01*
Y260052D01*
X135693Y259226D01*
X136326Y258593D01*
X137152Y258250D01*
X138048D01*
X138874Y258593D01*
X139507Y259226D01*
X139850Y260052D01*
Y260948D01*
X139507Y261774D01*
X139405Y261877D01*
X141118Y263590D01*
X145358Y263590D01*
X145478Y263140D01*
Y262651D01*
X144380Y261554D01*
X144148Y261650D01*
X143252D01*
X142426Y261308D01*
X141793Y260675D01*
X141450Y259848D01*
Y258952D01*
X141793Y258125D01*
X142426Y257492D01*
X142901Y257295D01*
X142951Y257046D01*
X143194Y256682D01*
X143549Y256327D01*
X143500Y256084D01*
Y254116D01*
X143623Y253498D01*
X143974Y252974D01*
X144052Y252921D01*
X143857Y252450D01*
X143750Y252472D01*
X143750Y252471D01*
X139092D01*
X139007Y252675D01*
X138374Y253308D01*
X137548Y253650D01*
X136652D01*
X135826Y253308D01*
X135193Y252675D01*
X134850Y251848D01*
Y250952D01*
X135193Y250126D01*
X135826Y249493D01*
X136652Y249150D01*
X137548D01*
X138374Y249493D01*
X139007Y250126D01*
X139050Y250229D01*
X143285D01*
X144653Y248861D01*
Y247482D01*
X144776Y246864D01*
X145072Y246422D01*
X144980Y246116D01*
X144853Y245921D01*
X136206D01*
X135872Y246422D01*
X136050Y246852D01*
Y247748D01*
X135707Y248574D01*
X135074Y249207D01*
X134248Y249550D01*
X133352D01*
X132526Y249207D01*
X131893Y248574D01*
X131550Y247748D01*
Y246852D01*
X131893Y246025D01*
X132526Y245392D01*
X132691Y245324D01*
X132764Y244957D01*
X133007Y244593D01*
X133593Y244007D01*
X133593Y244007D01*
X133957Y243764D01*
X134386Y243678D01*
X151396D01*
X155081Y239994D01*
X155081Y239994D01*
X155444Y239751D01*
X155874Y239665D01*
X155874Y239665D01*
X161820D01*
Y239414D01*
X161850Y239266D01*
Y238150D01*
X160686D01*
Y236658D01*
X159686D01*
Y238150D01*
X157513D01*
Y238150D01*
X157013Y238062D01*
X157008Y238074D01*
X156375Y238707D01*
X155548Y239050D01*
X154652D01*
X154516Y238994D01*
X152459Y241051D01*
X152095Y241294D01*
X151666Y241379D01*
X151666Y241379D01*
X146818D01*
X146388Y241294D01*
X146025Y241051D01*
X146025Y241051D01*
X145329Y240355D01*
X145086Y239991D01*
X145027Y239693D01*
X144527Y239743D01*
Y239757D01*
X139390D01*
Y233243D01*
X144527D01*
Y235379D01*
X145427D01*
X145427Y235378D01*
X145856Y235464D01*
X146173Y235676D01*
X146469Y235604D01*
X146673Y235519D01*
Y233243D01*
X149975D01*
X150074Y232743D01*
X150043Y232730D01*
X149410Y232097D01*
X149379Y232021D01*
X139565D01*
X122108Y249478D01*
X121744Y249721D01*
X121315Y249807D01*
X121315Y249807D01*
X118748D01*
Y252933D01*
X110252D01*
Y244437D01*
X118748D01*
Y247564D01*
X120850D01*
X138307Y230107D01*
X138307Y230107D01*
X138671Y229864D01*
X139100Y229779D01*
X146497D01*
X146597Y229278D01*
X146425Y229207D01*
X145792Y228574D01*
X145729Y228421D01*
X138665D01*
X127451Y239636D01*
X127087Y239879D01*
X126657Y239964D01*
X126657Y239964D01*
X118597D01*
X118458Y240482D01*
X117899Y241451D01*
X117108Y242242D01*
X116140Y242801D01*
X115059Y243091D01*
X113941D01*
X112860Y242801D01*
X111892Y242242D01*
X111101Y241451D01*
X110541Y240482D01*
X110252Y239402D01*
Y238283D01*
X110541Y237203D01*
X111101Y236234D01*
X111892Y235443D01*
X112860Y234884D01*
X113941Y234594D01*
X115059D01*
X116140Y234884D01*
X117108Y235443D01*
X117899Y236234D01*
X118458Y237203D01*
X118597Y237721D01*
X126193D01*
X137407Y226507D01*
X137407Y226507D01*
X137771Y226264D01*
X138200Y226178D01*
X138200Y226179D01*
X145729D01*
X145792Y226026D01*
X146097Y225722D01*
X145889Y225221D01*
X136255D01*
X131684Y229793D01*
X131320Y230036D01*
X130891Y230122D01*
X130891Y230121D01*
X118597D01*
X118458Y230640D01*
X117899Y231608D01*
X117108Y232399D01*
X116140Y232959D01*
X115059Y233248D01*
X113941D01*
X112860Y232959D01*
X111892Y232399D01*
X111101Y231608D01*
X110541Y230640D01*
X110252Y229559D01*
Y228441D01*
X110541Y227360D01*
X111101Y226392D01*
X111892Y225601D01*
X112860Y225042D01*
X113941Y224752D01*
X115059D01*
X116140Y225042D01*
X117108Y225601D01*
X117899Y226392D01*
X118458Y227360D01*
X118597Y227878D01*
X130426D01*
X134998Y223307D01*
X134998Y223307D01*
X135362Y223064D01*
X135791Y222978D01*
X135791Y222978D01*
X145812D01*
X146003Y222479D01*
X145506Y221981D01*
X145442Y221828D01*
X117837D01*
X117108Y222557D01*
X116140Y223116D01*
X115059Y223406D01*
X113941D01*
X112860Y223116D01*
X111892Y222557D01*
X111101Y221766D01*
X110541Y220797D01*
X110252Y219717D01*
Y218598D01*
X110541Y217518D01*
X111101Y216549D01*
X111892Y215758D01*
X112860Y215199D01*
X113941Y214910D01*
X115059D01*
X116140Y215199D01*
X117108Y215758D01*
X117899Y216549D01*
X118458Y217518D01*
X118748Y218598D01*
Y219585D01*
X145102D01*
X145209Y219422D01*
X144939Y218921D01*
X137583D01*
X137583Y218922D01*
X137154Y218836D01*
X136790Y218593D01*
X136790Y218593D01*
X128634Y210437D01*
X118597D01*
X118458Y210955D01*
X117899Y211923D01*
X117108Y212714D01*
X116140Y213274D01*
X115059Y213563D01*
X113941D01*
X112860Y213274D01*
X111892Y212714D01*
X111101Y211923D01*
X110541Y210955D01*
X110252Y209874D01*
Y208756D01*
X110541Y207675D01*
X111101Y206707D01*
X111892Y205916D01*
X112860Y205356D01*
X113941Y205067D01*
X115059D01*
X116140Y205356D01*
X117108Y205916D01*
X117899Y206707D01*
X118458Y207675D01*
X118597Y208193D01*
X129098D01*
X129098Y208193D01*
X129527Y208279D01*
X129891Y208522D01*
X138048Y216679D01*
X145589D01*
X145797Y216178D01*
X145492Y215875D01*
X145429Y215722D01*
X140100D01*
X140100Y215722D01*
X139671Y215636D01*
X139307Y215393D01*
X124508Y200594D01*
X118597D01*
X118458Y201112D01*
X117899Y202081D01*
X117108Y202872D01*
X116140Y203431D01*
X115059Y203720D01*
X113941D01*
X112860Y203431D01*
X111892Y202872D01*
X111101Y202081D01*
X110541Y201112D01*
X110252Y200032D01*
Y198913D01*
X110541Y197833D01*
X111101Y196864D01*
X111892Y196073D01*
X112860Y195514D01*
X113941Y195224D01*
X115059D01*
X116140Y195514D01*
X117108Y196073D01*
X117899Y196864D01*
X118458Y197833D01*
X118597Y198351D01*
X124972D01*
X124972Y198351D01*
X125402Y198436D01*
X125766Y198679D01*
X140565Y213478D01*
X145429D01*
X145492Y213326D01*
X146125Y212692D01*
X146952Y212350D01*
X147848D01*
X148674Y212692D01*
X149308Y213326D01*
X149371Y213478D01*
X152123D01*
X152123Y213478D01*
X152552Y213564D01*
X152916Y213807D01*
X157451Y218341D01*
X157913Y218150D01*
Y217850D01*
X160038D01*
X160186Y217820D01*
X160225Y217828D01*
X161850D01*
Y216334D01*
X161820Y216186D01*
Y216134D01*
X158382D01*
X158382Y216134D01*
X157953Y216049D01*
X157589Y215806D01*
X157589Y215806D01*
X149041Y207258D01*
X145490D01*
Y200743D01*
X150627D01*
Y205671D01*
X152316Y207361D01*
X152773Y207111D01*
Y200743D01*
X157910D01*
Y205671D01*
X158681Y206442D01*
X159142Y206250D01*
Y202173D01*
X165440D01*
X165647Y201673D01*
X164550Y200575D01*
X164407Y200363D01*
X164071Y200027D01*
X159142D01*
Y197725D01*
X157813D01*
Y199369D01*
X145787D01*
Y193839D01*
X157813D01*
Y195482D01*
X159142D01*
Y194890D01*
X160937D01*
Y194358D01*
X159490D01*
Y187843D01*
X162405D01*
Y185084D01*
X162405Y185084D01*
X162336Y185000D01*
X157813D01*
Y187361D01*
X145787D01*
Y185000D01*
X100399D01*
X100046Y185354D01*
X101000Y502250D01*
X101249Y502500D01*
X307500Y502500D01*
Y486647D01*
D02*
G37*
G36*
X445983Y499500D02*
X444628Y498146D01*
X443443Y496514D01*
X442528Y494718D01*
X441904Y492800D01*
X441589Y490808D01*
Y488792D01*
X441904Y486800D01*
X442528Y484882D01*
X443443Y483086D01*
X444628Y481454D01*
X446054Y480028D01*
X447686Y478843D01*
X449482Y477928D01*
X451400Y477304D01*
X453392Y476989D01*
X455408D01*
X457400Y477304D01*
X459318Y477928D01*
X461114Y478843D01*
X462746Y480028D01*
X464172Y481454D01*
X465357Y483086D01*
X465514Y483393D01*
X466000Y483277D01*
Y114000D01*
X102000D01*
Y180000D01*
X149665D01*
X149862Y179500D01*
X149550Y178748D01*
Y177852D01*
X149892Y177025D01*
X150525Y176392D01*
X151352Y176050D01*
X152248D01*
X153075Y176392D01*
X153708Y177025D01*
X154050Y177852D01*
Y178748D01*
X153738Y179500D01*
X153935Y180000D01*
X167025D01*
X172936Y174089D01*
X173300Y173846D01*
X173729Y173760D01*
X173729Y173760D01*
X209653D01*
X216642Y166772D01*
X216071Y165918D01*
X215521Y164590D01*
X215240Y163180D01*
Y162961D01*
X222039D01*
Y169760D01*
X221820D01*
X220410Y169479D01*
X219082Y168929D01*
X218228Y168358D01*
X211258Y175328D01*
X211465Y175828D01*
X226850D01*
Y175752D01*
X227192Y174925D01*
X227825Y174293D01*
X228652Y173950D01*
X229548D01*
X230375Y174293D01*
X231008Y174925D01*
X231350Y175752D01*
Y176648D01*
X231008Y177474D01*
X230532Y177950D01*
X231008Y178426D01*
X231350Y179252D01*
Y180000D01*
X251015D01*
X251050Y179947D01*
Y179052D01*
X251393Y178226D01*
X252026Y177593D01*
X252852Y177250D01*
X253748D01*
X254574Y177593D01*
X255207Y178226D01*
X255550Y179052D01*
Y179947D01*
X255585Y180000D01*
X312693D01*
X313846Y178847D01*
X314376Y178493D01*
X315000Y178369D01*
X322543D01*
X322874Y177874D01*
X323398Y177523D01*
X324016Y177401D01*
X325984D01*
X326602Y177523D01*
X327126Y177874D01*
X327457Y178369D01*
X426508D01*
X427132Y178493D01*
X427661Y178847D01*
X429878Y181063D01*
X437445D01*
Y190937D01*
X434824D01*
X434760Y191022D01*
X434892Y191676D01*
X435539Y192049D01*
X436458Y192969D01*
X437108Y194094D01*
X437445Y195350D01*
Y195500D01*
X432508D01*
X427571D01*
Y195350D01*
X427907Y194094D01*
X428557Y192969D01*
X429476Y192049D01*
X430123Y191676D01*
X430256Y191022D01*
X430192Y190937D01*
X427571D01*
Y183370D01*
X425832Y181631D01*
X327457D01*
X327126Y182126D01*
X326602Y182477D01*
X325984Y182599D01*
X324016D01*
X323398Y182477D01*
X322874Y182126D01*
X322543Y181631D01*
X320000D01*
Y195719D01*
X320961D01*
Y195643D01*
X321304Y194816D01*
X321937Y194183D01*
X322764Y193841D01*
X323659D01*
X324486Y194183D01*
X325119Y194816D01*
X325462Y195643D01*
Y196538D01*
X325119Y197365D01*
X324643Y197841D01*
X325119Y198316D01*
X325462Y199143D01*
Y200038D01*
X325119Y200865D01*
X324486Y201498D01*
X323659Y201841D01*
X322764D01*
X321937Y201498D01*
X321304Y200865D01*
X320961Y200038D01*
Y199962D01*
X320000D01*
Y218369D01*
X322543D01*
X322874Y217874D01*
X323398Y217523D01*
X324016Y217401D01*
X325984D01*
X326602Y217523D01*
X327126Y217874D01*
X327457Y218369D01*
X349508D01*
X350132Y218493D01*
X350661Y218847D01*
X366878Y235063D01*
X374445D01*
Y244937D01*
X371824D01*
X371760Y245022D01*
X371892Y245676D01*
X372539Y246049D01*
X373459Y246969D01*
X374108Y248094D01*
X374445Y249350D01*
Y250650D01*
X374108Y251906D01*
X373459Y253031D01*
X372539Y253951D01*
X371413Y254601D01*
X370889Y254741D01*
Y255259D01*
X371413Y255399D01*
X372539Y256049D01*
X373459Y256969D01*
X374108Y258094D01*
X374445Y259350D01*
Y260650D01*
X374108Y261906D01*
X373459Y263031D01*
X372539Y263951D01*
X371413Y264601D01*
X370158Y264937D01*
X368858D01*
X367602Y264601D01*
X366476Y263951D01*
X365557Y263031D01*
X364907Y261906D01*
X364571Y260650D01*
Y259350D01*
X364907Y258094D01*
X365557Y256969D01*
X366476Y256049D01*
X367602Y255399D01*
X368127Y255259D01*
Y254741D01*
X367602Y254601D01*
X366476Y253951D01*
X365557Y253031D01*
X364907Y251906D01*
X364571Y250650D01*
Y249350D01*
X364907Y248094D01*
X365557Y246969D01*
X366476Y246049D01*
X367124Y245676D01*
X367256Y245022D01*
X367192Y244937D01*
X364571D01*
Y237370D01*
X348832Y221631D01*
X327457D01*
X327126Y222126D01*
X326602Y222477D01*
X325984Y222600D01*
X324016D01*
X323398Y222477D01*
X322874Y222126D01*
X322543Y221631D01*
X320000D01*
Y244437D01*
X320325Y244572D01*
X320958Y245205D01*
X321301Y246032D01*
Y246927D01*
X320958Y247754D01*
X320325Y248387D01*
X320000Y248522D01*
Y278369D01*
X322543D01*
X322874Y277874D01*
X323398Y277523D01*
X324016Y277400D01*
X325984D01*
X326602Y277523D01*
X327126Y277874D01*
X327457Y278369D01*
X418508D01*
X419132Y278493D01*
X419661Y278847D01*
X429878Y289063D01*
X437445D01*
Y298937D01*
X434824D01*
X434760Y299022D01*
X434892Y299676D01*
X435539Y300049D01*
X436458Y300969D01*
X437108Y302094D01*
X437445Y303350D01*
Y303500D01*
X432508D01*
X427571D01*
Y303350D01*
X427907Y302094D01*
X428557Y300969D01*
X429476Y300049D01*
X430123Y299676D01*
X430256Y299022D01*
X430192Y298937D01*
X427571D01*
Y291370D01*
X417832Y281631D01*
X327457D01*
X327126Y282126D01*
X326602Y282477D01*
X325984Y282599D01*
X324016D01*
X323398Y282477D01*
X322874Y282126D01*
X322543Y281631D01*
X320000D01*
Y328369D01*
X322543D01*
X322874Y327874D01*
X323398Y327523D01*
X324016Y327400D01*
X325984D01*
X326602Y327523D01*
X327126Y327874D01*
X327457Y328369D01*
X357500D01*
X358124Y328493D01*
X358653Y328847D01*
X374870Y345063D01*
X382437D01*
Y354937D01*
X379816D01*
X379752Y355022D01*
X379884Y355676D01*
X380531Y356049D01*
X381451Y356969D01*
X382101Y358094D01*
X382437Y359350D01*
Y360650D01*
X382101Y361906D01*
X381451Y363031D01*
X380531Y363951D01*
X379406Y364601D01*
X378881Y364741D01*
Y365259D01*
X379406Y365399D01*
X380531Y366049D01*
X381451Y366969D01*
X382101Y368094D01*
X382437Y369350D01*
Y370650D01*
X382101Y371906D01*
X381451Y373031D01*
X380531Y373951D01*
X379406Y374601D01*
X378150Y374937D01*
X376850D01*
X375594Y374601D01*
X374469Y373951D01*
X373549Y373031D01*
X372899Y371906D01*
X372563Y370650D01*
Y369350D01*
X372899Y368094D01*
X373549Y366969D01*
X374469Y366049D01*
X375594Y365399D01*
X376119Y365259D01*
Y364741D01*
X375594Y364601D01*
X374469Y363951D01*
X373549Y363031D01*
X372899Y361906D01*
X372563Y360650D01*
Y359350D01*
X372899Y358094D01*
X373549Y356969D01*
X374469Y356049D01*
X375116Y355676D01*
X375248Y355022D01*
X375184Y354937D01*
X372563D01*
Y347370D01*
X356824Y331631D01*
X327457D01*
X327126Y332126D01*
X326602Y332477D01*
X325984Y332599D01*
X324016D01*
X323398Y332477D01*
X322874Y332126D01*
X322543Y331631D01*
X320000D01*
Y354979D01*
X322070D01*
Y356178D01*
X324729D01*
X324793Y356026D01*
X325426Y355393D01*
X326252Y355050D01*
X327148D01*
X327975Y355393D01*
X328608Y356026D01*
X328950Y356852D01*
Y357748D01*
X328608Y358575D01*
X327975Y359208D01*
X327148Y359550D01*
X326252D01*
X325426Y359208D01*
X324793Y358575D01*
X324729Y358421D01*
X322070D01*
Y359722D01*
X320000D01*
Y361278D01*
X322070D01*
Y366021D01*
X320722D01*
Y373340D01*
X320907Y373526D01*
X321250Y374352D01*
Y375248D01*
X320907Y376075D01*
X320274Y376708D01*
X320000Y376821D01*
Y388369D01*
X322543D01*
X322874Y387874D01*
X323398Y387523D01*
X324016Y387401D01*
X325984D01*
X326602Y387523D01*
X327126Y387874D01*
X327457Y388369D01*
X418000D01*
X418624Y388493D01*
X419153Y388846D01*
X429370Y399063D01*
X436937D01*
Y408937D01*
X434316D01*
X434252Y409022D01*
X434384Y409676D01*
X435031Y410049D01*
X435951Y410969D01*
X436601Y412094D01*
X436937Y413350D01*
Y413500D01*
X432000D01*
X427063D01*
Y413350D01*
X427399Y412094D01*
X428049Y410969D01*
X428969Y410049D01*
X429616Y409676D01*
X429748Y409022D01*
X429684Y408937D01*
X427063D01*
Y401370D01*
X417324Y391631D01*
X327457D01*
X327126Y392126D01*
X326602Y392477D01*
X325984Y392600D01*
X324016D01*
X323398Y392477D01*
X322874Y392126D01*
X322543Y391631D01*
X320000D01*
Y438369D01*
X322543D01*
X322874Y437874D01*
X323398Y437523D01*
X324016Y437400D01*
X325984D01*
X326602Y437523D01*
X327126Y437874D01*
X327457Y438369D01*
X349508D01*
X350132Y438493D01*
X350661Y438846D01*
X366878Y455063D01*
X374445D01*
Y464937D01*
X371824D01*
X371760Y465022D01*
X371892Y465676D01*
X372539Y466049D01*
X373459Y466969D01*
X374108Y468094D01*
X374445Y469350D01*
Y470650D01*
X374108Y471906D01*
X373459Y473031D01*
X372539Y473951D01*
X371413Y474601D01*
X370889Y474741D01*
Y475259D01*
X371413Y475399D01*
X372539Y476049D01*
X373459Y476969D01*
X374108Y478094D01*
X374445Y479350D01*
Y480650D01*
X374108Y481906D01*
X373459Y483031D01*
X372539Y483951D01*
X371413Y484601D01*
X370158Y484937D01*
X368858D01*
X367602Y484601D01*
X366476Y483951D01*
X365557Y483031D01*
X364907Y481906D01*
X364571Y480650D01*
Y479350D01*
X364907Y478094D01*
X365557Y476969D01*
X366476Y476049D01*
X367602Y475399D01*
X368127Y475259D01*
Y474741D01*
X367602Y474601D01*
X366476Y473951D01*
X365557Y473031D01*
X364907Y471906D01*
X364571Y470650D01*
Y469350D01*
X364907Y468094D01*
X365557Y466969D01*
X366476Y466049D01*
X367124Y465676D01*
X367256Y465022D01*
X367192Y464937D01*
X364571D01*
Y457370D01*
X348832Y441631D01*
X327457D01*
X327126Y442126D01*
X326602Y442477D01*
X325984Y442599D01*
X324016D01*
X323398Y442477D01*
X322874Y442126D01*
X322543Y441631D01*
X320000D01*
Y470220D01*
X320175Y470293D01*
X320808Y470926D01*
X321150Y471753D01*
Y472647D01*
X320808Y473475D01*
X320175Y474108D01*
X320000Y474180D01*
Y500000D01*
X445881D01*
X445983Y499500D01*
D02*
G37*
G36*
X203059Y176504D02*
X202851Y176004D01*
X174194D01*
X170659Y179538D01*
X170850Y180000D01*
X199562D01*
X203059Y176504D01*
D02*
G37*
%LPC*%
G36*
X156116Y499608D02*
X150979D01*
Y492306D01*
X156116D01*
Y499608D01*
D02*
G37*
G36*
X133666Y498058D02*
X123823D01*
X123433Y497981D01*
X123102Y497760D01*
X122881Y497429D01*
X122803Y497039D01*
Y489165D01*
X122881Y488774D01*
X123102Y488444D01*
X123433Y488223D01*
X123823Y488145D01*
X133666D01*
X134056Y488223D01*
X134387Y488444D01*
X134608Y488774D01*
X134685Y489165D01*
Y497039D01*
X134608Y497429D01*
X134387Y497760D01*
X134056Y497981D01*
X133666Y498058D01*
D02*
G37*
G36*
X241708Y501211D02*
X239692D01*
X237700Y500896D01*
X235782Y500272D01*
X233986Y499357D01*
X232354Y498172D01*
X230928Y496746D01*
X229743Y495114D01*
X228828Y493318D01*
X228204Y491400D01*
X227889Y489408D01*
Y487392D01*
X228204Y485400D01*
X228828Y483482D01*
X229743Y481686D01*
X230928Y480054D01*
X232354Y478628D01*
X233986Y477443D01*
X235782Y476528D01*
X237700Y475904D01*
X239692Y475589D01*
X241708D01*
X243700Y475904D01*
X245618Y476528D01*
X247414Y477443D01*
X249046Y478628D01*
X250472Y480054D01*
X251657Y481686D01*
X252572Y483482D01*
X253196Y485400D01*
X253511Y487392D01*
Y489408D01*
X253196Y491400D01*
X252572Y493318D01*
X251657Y495114D01*
X250472Y496746D01*
X249046Y498172D01*
X247414Y499357D01*
X245618Y500272D01*
X243700Y500896D01*
X241708Y501211D01*
D02*
G37*
G36*
X145673Y481130D02*
X112209D01*
X111819Y481052D01*
X111488Y480831D01*
X111267Y480500D01*
X111189Y480110D01*
Y472236D01*
X111267Y471846D01*
X111488Y471515D01*
X111819Y471294D01*
X112209Y471217D01*
X145673D01*
X146063Y471294D01*
X146394Y471515D01*
X146615Y471846D01*
X146693Y472236D01*
Y480110D01*
X146615Y480500D01*
X146394Y480831D01*
X146063Y481052D01*
X145673Y481130D01*
D02*
G37*
G36*
X231873Y471525D02*
X230978D01*
X230151Y471182D01*
X229518Y470549D01*
X229175Y469722D01*
Y468827D01*
X229518Y468000D01*
X230151Y467367D01*
X230978Y467025D01*
X231650D01*
Y466353D01*
X231993Y465525D01*
X232626Y464892D01*
X233452Y464550D01*
X234348D01*
X235174Y464892D01*
X235807Y465525D01*
X236150Y466353D01*
Y467247D01*
X235807Y468075D01*
X235174Y468708D01*
X234348Y469050D01*
X233675D01*
Y469722D01*
X233333Y470549D01*
X232700Y471182D01*
X231873Y471525D01*
D02*
G37*
G36*
X157297Y489765D02*
X152947D01*
Y484638D01*
X152708Y484280D01*
X152622Y483850D01*
X152622Y483850D01*
Y457482D01*
X150191D01*
Y450376D01*
X157297D01*
Y455896D01*
X158076Y456675D01*
X158642D01*
Y456273D01*
X165157D01*
Y461410D01*
X163122D01*
Y462729D01*
X163275Y462792D01*
X163908Y463425D01*
X164250Y464253D01*
Y465147D01*
X163908Y465975D01*
X163275Y466608D01*
X162448Y466950D01*
X161552D01*
X160725Y466608D01*
X160092Y465975D01*
X159750Y465147D01*
Y464253D01*
X160092Y463425D01*
X160725Y462792D01*
X160878Y462729D01*
Y461410D01*
X158642D01*
Y458918D01*
X157611D01*
X157611Y458918D01*
X157182Y458832D01*
X156818Y458589D01*
X156818Y458589D01*
X155711Y457482D01*
X154866D01*
Y483053D01*
X157297D01*
Y489765D01*
D02*
G37*
G36*
X267448Y456950D02*
X266552D01*
X265725Y456607D01*
X265092Y455974D01*
X264750Y455148D01*
Y454252D01*
X265092Y453426D01*
X265725Y452793D01*
X266552Y452450D01*
X267448D01*
X268274Y452793D01*
X268907Y453426D01*
X269250Y454252D01*
Y455148D01*
X268907Y455974D01*
X268274Y456607D01*
X267448Y456950D01*
D02*
G37*
G36*
X165558Y454527D02*
X162400D01*
Y452058D01*
X165558D01*
Y454527D01*
D02*
G37*
G36*
X161400D02*
X158242D01*
Y452058D01*
X161400D01*
Y454527D01*
D02*
G37*
G36*
X112809Y492324D02*
X105900D01*
Y487187D01*
Y480298D01*
X106953D01*
Y457482D01*
X105900D01*
Y450376D01*
X107478D01*
Y448371D01*
X107325Y448308D01*
X106693Y447675D01*
X106350Y446847D01*
Y445953D01*
X106693Y445125D01*
X107325Y444492D01*
X108152Y444150D01*
X109048D01*
X109874Y444492D01*
X110508Y445125D01*
X110850Y445953D01*
Y446847D01*
X110508Y447675D01*
X109874Y448308D01*
X109722Y448371D01*
Y450376D01*
X111805D01*
Y449392D01*
X115636D01*
X115761Y449392D01*
X116136D01*
X116261Y449392D01*
X116993D01*
Y442586D01*
X116993Y442586D01*
X117078Y442157D01*
X117321Y441793D01*
X121607Y437507D01*
X121607Y437507D01*
X121971Y437264D01*
X122400Y437178D01*
X122400Y437178D01*
X158656D01*
X158711Y437044D01*
X159114Y436641D01*
X158907Y436141D01*
X122023D01*
X121203Y435978D01*
X120519Y435521D01*
X120264Y435555D01*
X115736D01*
X115038Y435463D01*
X114388Y435193D01*
X113830Y434765D01*
X113401Y434206D01*
X113132Y433556D01*
X113040Y432858D01*
Y429512D01*
X113132Y428814D01*
X113401Y428164D01*
X113830Y427605D01*
X114388Y427177D01*
X115038Y426907D01*
X115736Y426816D01*
X120264D01*
X120962Y426907D01*
X121612Y427177D01*
X122170Y427605D01*
X122599Y428164D01*
X122868Y428814D01*
X122960Y429512D01*
Y431859D01*
X137624D01*
X137845Y431359D01*
X137550Y430648D01*
Y430042D01*
X137050Y429835D01*
X136698Y430187D01*
X135871Y430530D01*
X134976D01*
X134149Y430187D01*
X133516Y429554D01*
X133190Y428767D01*
X132748Y428950D01*
X131852D01*
X131026Y428608D01*
X130393Y427975D01*
X130050Y427147D01*
Y426253D01*
X130393Y425425D01*
X131026Y424792D01*
X131852Y424450D01*
X132748D01*
X133574Y424792D01*
X134207Y425425D01*
X134534Y426213D01*
X134976Y426030D01*
X135871D01*
X136698Y426372D01*
X137331Y427005D01*
X137673Y427832D01*
Y428438D01*
X138173Y428645D01*
X138525Y428293D01*
X139352Y427950D01*
X140248D01*
X141075Y428293D01*
X141708Y428926D01*
X142050Y429752D01*
Y430648D01*
X141755Y431359D01*
X141976Y431859D01*
X149310D01*
X149774Y431773D01*
X149774Y431359D01*
Y427227D01*
X151052D01*
Y426327D01*
X151052Y426327D01*
X151137Y425898D01*
X151288Y425671D01*
X151092Y425171D01*
X150916D01*
Y417869D01*
X151772D01*
Y415858D01*
X151035Y415122D01*
X139465D01*
X134945Y419641D01*
X135000Y419916D01*
Y421884D01*
X134877Y422502D01*
X134526Y423026D01*
X134002Y423377D01*
X133384Y423499D01*
X131416D01*
X130798Y423377D01*
X130274Y423026D01*
X129950Y422543D01*
X122798D01*
X122387Y423534D01*
X121690Y424442D01*
X120782Y425139D01*
X119725Y425577D01*
X118591Y425727D01*
X117409D01*
X116275Y425577D01*
X115217Y425139D01*
X114310Y424442D01*
X113613Y423534D01*
X113175Y422477D01*
X113025Y421343D01*
X113175Y420208D01*
X113613Y419150D01*
X114310Y418243D01*
X115217Y417546D01*
X116275Y417108D01*
X117409Y416959D01*
X118591D01*
X119725Y417108D01*
X120782Y417546D01*
X121690Y418243D01*
X122387Y419150D01*
X122825Y420208D01*
X122837Y420300D01*
X129800D01*
Y419916D01*
X129923Y419298D01*
X130274Y418774D01*
X130798Y418423D01*
X131416Y418300D01*
X133113D01*
X138207Y413207D01*
X138207Y413207D01*
X138335Y413122D01*
X138183Y412622D01*
X134952D01*
X134877Y413002D01*
X134526Y413526D01*
X134002Y413877D01*
X133384Y414000D01*
X131416D01*
X130798Y413877D01*
X130274Y413526D01*
X129923Y413002D01*
X129848Y412622D01*
X122827D01*
X122825Y412635D01*
X122387Y413692D01*
X121690Y414600D01*
X120782Y415297D01*
X119725Y415735D01*
X118591Y415884D01*
X117409D01*
X116275Y415735D01*
X115217Y415297D01*
X114310Y414600D01*
X113613Y413692D01*
X113175Y412635D01*
X113025Y411500D01*
X113175Y410365D01*
X113613Y409308D01*
X114310Y408400D01*
X115217Y407703D01*
X116275Y407265D01*
X117409Y407116D01*
X118591D01*
X119725Y407265D01*
X120782Y407703D01*
X121690Y408400D01*
X122387Y409308D01*
X122825Y410365D01*
X122827Y410378D01*
X129808D01*
X129923Y409798D01*
X130274Y409274D01*
X130798Y408923D01*
X131416Y408801D01*
X133384D01*
X134002Y408923D01*
X134526Y409274D01*
X134877Y409798D01*
X134992Y410378D01*
X156000D01*
X156000Y410378D01*
X156429Y410464D01*
X156793Y410707D01*
X158687Y412601D01*
X158687Y412601D01*
X158930Y412964D01*
X159015Y413394D01*
X159015Y413394D01*
Y417869D01*
X159872D01*
Y425171D01*
X159015D01*
Y427227D01*
X160226D01*
X160226Y431773D01*
X160690Y431859D01*
X180113D01*
X180217Y431755D01*
Y427257D01*
X179790D01*
Y420743D01*
X179790D01*
Y420258D01*
X179790D01*
Y417806D01*
X176347Y414363D01*
X175883Y413669D01*
X175720Y412849D01*
Y411238D01*
X175368D01*
Y408314D01*
X173258D01*
Y413352D01*
X171122D01*
Y414650D01*
X171148D01*
X171975Y414993D01*
X172608Y415625D01*
X172950Y416453D01*
Y417347D01*
X172608Y418175D01*
X171975Y418808D01*
X171148Y419150D01*
X170252D01*
X169425Y418808D01*
X168792Y418175D01*
X168450Y417347D01*
Y416453D01*
X168792Y415625D01*
X168878Y415540D01*
Y413352D01*
X166743D01*
Y408314D01*
X163350D01*
X163350Y408315D01*
X162921Y408229D01*
X162557Y407986D01*
X158285Y403714D01*
X155916D01*
Y396412D01*
X158831D01*
X159198Y395912D01*
X159174Y395791D01*
X159174Y395791D01*
Y389403D01*
X158674Y389196D01*
X151920Y395950D01*
X152111Y396412D01*
X154872D01*
Y403714D01*
X152502D01*
X149923Y406293D01*
X149559Y406536D01*
X149130Y406622D01*
X149130Y406622D01*
X144612D01*
X144508Y406875D01*
X143875Y407508D01*
X143048Y407850D01*
X142152D01*
X141325Y407508D01*
X140692Y406875D01*
X140350Y406048D01*
Y405152D01*
X140692Y404325D01*
X141325Y403692D01*
X142152Y403350D01*
X143048D01*
X143875Y403692D01*
X144508Y404325D01*
X144529Y404379D01*
X148417D01*
X148539Y404214D01*
X148289Y403714D01*
X145916D01*
Y396412D01*
X148285D01*
X157205Y387492D01*
Y363100D01*
X155511D01*
Y367157D01*
X155511Y367158D01*
X155426Y367587D01*
X155183Y367951D01*
X155183Y367951D01*
X154757Y368376D01*
Y371927D01*
X148242D01*
Y366790D01*
X153171D01*
X153268Y366693D01*
Y363500D01*
X152921D01*
Y360138D01*
Y356776D01*
X154012D01*
Y357176D01*
X155146D01*
Y356222D01*
X116453D01*
Y356520D01*
X116183Y357526D01*
X115663Y358427D01*
X114927Y359163D01*
X114026Y359683D01*
X113020Y359953D01*
X111980D01*
X110974Y359683D01*
X110073Y359163D01*
X109337Y358427D01*
X108817Y357526D01*
X108547Y356520D01*
Y355480D01*
X108817Y354474D01*
X109337Y353573D01*
X110073Y352837D01*
X110974Y352317D01*
X111980Y352047D01*
X113020D01*
X114026Y352317D01*
X114927Y352837D01*
X115663Y353573D01*
X115897Y353978D01*
X155682D01*
X155682Y353978D01*
X156111Y354064D01*
X156475Y354307D01*
X157061Y354893D01*
X157061Y354893D01*
X157304Y355257D01*
X157389Y355686D01*
Y357176D01*
X161142D01*
Y350186D01*
X161142Y350186D01*
X161228Y349757D01*
X161471Y349393D01*
X161933Y348930D01*
X161650Y348506D01*
X161048Y348756D01*
X160152D01*
X159326Y348413D01*
X158693Y347780D01*
X158599Y347554D01*
X154256D01*
X154248Y348050D01*
X155075Y348393D01*
X155708Y349026D01*
X156050Y349852D01*
Y350748D01*
X155708Y351574D01*
X155075Y352207D01*
X154248Y352550D01*
X153352D01*
X152525Y352207D01*
X151892Y351574D01*
X151550Y350748D01*
Y349852D01*
X151211Y349448D01*
X147509D01*
Y353454D01*
X141585D01*
Y353385D01*
X118764D01*
X118335Y353300D01*
X117971Y353057D01*
X117971Y353057D01*
X114388Y349474D01*
X114026Y349683D01*
X113020Y349953D01*
X111980D01*
X110974Y349683D01*
X110073Y349163D01*
X109337Y348427D01*
X108817Y347526D01*
X108547Y346520D01*
Y345480D01*
X108817Y344474D01*
X109337Y343573D01*
X110073Y342837D01*
X110974Y342317D01*
X111980Y342047D01*
X113020D01*
X114026Y342317D01*
X114927Y342837D01*
X115663Y343573D01*
X116183Y344474D01*
X116453Y345480D01*
Y346520D01*
X116183Y347526D01*
X115974Y347888D01*
X119228Y351142D01*
X141585D01*
Y347136D01*
Y342354D01*
X141123Y342163D01*
X140587Y342700D01*
X140650Y342852D01*
Y343748D01*
X140307Y344574D01*
X139674Y345208D01*
X138848Y345550D01*
X137952D01*
X137126Y345208D01*
X136493Y344574D01*
X136150Y343748D01*
Y342852D01*
X136344Y342384D01*
X136334Y342346D01*
X135994Y341922D01*
X135324D01*
X134497Y341579D01*
X133864Y340946D01*
X133522Y340119D01*
Y339224D01*
X133559Y339134D01*
X133135Y338851D01*
X132967Y339019D01*
X132603Y339262D01*
X132174Y339348D01*
X132174Y339348D01*
X115539D01*
X115539Y339348D01*
X115109Y339262D01*
X114941Y339149D01*
X114927Y339163D01*
X114026Y339683D01*
X113020Y339953D01*
X111980D01*
X110974Y339683D01*
X110073Y339163D01*
X109337Y338427D01*
X108817Y337526D01*
X108547Y336520D01*
Y335480D01*
X108817Y334474D01*
X109337Y333573D01*
X110073Y332837D01*
X110974Y332317D01*
X111980Y332047D01*
X113020D01*
X114026Y332317D01*
X114927Y332837D01*
X115663Y333573D01*
X116183Y334474D01*
X116453Y335480D01*
Y336520D01*
X116402Y336708D01*
X116707Y337105D01*
X131709D01*
X134969Y333845D01*
X134969Y333845D01*
X135333Y333602D01*
X135396Y333589D01*
X135561Y333047D01*
X134366Y331852D01*
X117231D01*
X116802Y331767D01*
X116438Y331524D01*
X116438Y331524D01*
X114388Y329474D01*
X114026Y329683D01*
X113020Y329953D01*
X111980D01*
X110974Y329683D01*
X110073Y329163D01*
X109337Y328427D01*
X108817Y327526D01*
X108547Y326520D01*
Y325480D01*
X108817Y324474D01*
X109337Y323573D01*
X110073Y322837D01*
X110974Y322317D01*
X111980Y322047D01*
X113020D01*
X114026Y322317D01*
X114927Y322837D01*
X115663Y323573D01*
X116183Y324474D01*
X116453Y325480D01*
Y326520D01*
X116183Y327526D01*
X115974Y327888D01*
X117695Y329609D01*
X128626D01*
X128818Y329147D01*
X128773Y329102D01*
X128430Y328275D01*
Y327380D01*
X128773Y326553D01*
X129406Y325920D01*
X130233Y325578D01*
X131128D01*
X131955Y325920D01*
X132588Y326553D01*
X132930Y327380D01*
Y327878D01*
X135131D01*
X137129Y325880D01*
X137129Y325880D01*
X137493Y325637D01*
X137922Y325552D01*
X141585D01*
Y324327D01*
X141185D01*
Y323236D01*
X144547D01*
Y322736D01*
X145047D01*
Y321146D01*
X146888D01*
Y316574D01*
X143494Y313180D01*
X140157D01*
Y314627D01*
X135229D01*
X133944Y315911D01*
X134135Y316373D01*
X136400D01*
Y318842D01*
X133242D01*
Y317231D01*
X132791Y317104D01*
X132373Y317387D01*
Y318648D01*
X129700D01*
Y319148D01*
X129200D01*
Y321526D01*
X127027D01*
Y319447D01*
X126567Y319247D01*
X126258Y319498D01*
Y323010D01*
X120904D01*
X120696Y323510D01*
X121759Y324573D01*
X122445D01*
X122626Y324393D01*
X123452Y324050D01*
X124348D01*
X125174Y324393D01*
X125807Y325026D01*
X126150Y325852D01*
Y326748D01*
X125807Y327574D01*
X125174Y328207D01*
X124348Y328550D01*
X123452D01*
X122626Y328207D01*
X121993Y327574D01*
X121810Y327134D01*
X121613D01*
X121613Y327135D01*
X121184Y327049D01*
X120820Y326806D01*
X120820Y326806D01*
X118307Y324293D01*
X118064Y323929D01*
X117978Y323500D01*
X117978Y323500D01*
Y318565D01*
X117235Y317822D01*
X116453D01*
Y319953D01*
X108547D01*
Y312047D01*
X116453D01*
Y315579D01*
X116970D01*
X118821Y313727D01*
X118821Y313727D01*
X119185Y313484D01*
X119615Y313399D01*
X119743D01*
Y310590D01*
X123037D01*
Y307947D01*
X120802D01*
Y298480D01*
X123037D01*
Y272120D01*
X120802D01*
Y262653D01*
X127514D01*
Y272120D01*
X125280D01*
Y298480D01*
X127514D01*
Y307947D01*
X125280D01*
Y310590D01*
X126258D01*
Y311530D01*
X127427D01*
Y310674D01*
X131973D01*
Y314003D01*
X132473Y314210D01*
X133642Y313041D01*
Y311076D01*
X133364Y310798D01*
X133121Y310434D01*
X133036Y310005D01*
X133036Y310005D01*
Y307510D01*
X128743D01*
Y302373D01*
X133671D01*
X134956Y301089D01*
X134765Y300627D01*
X132500D01*
Y298158D01*
X135658D01*
Y298334D01*
X136158Y298433D01*
X136258Y298191D01*
X136891Y297558D01*
X137718Y297215D01*
X138613D01*
X138766Y297279D01*
X139787Y296258D01*
X139787Y296258D01*
X142310Y293734D01*
X142310Y293734D01*
X142674Y293491D01*
X143103Y293406D01*
X143103Y293406D01*
X143203D01*
X143676Y293340D01*
Y284660D01*
X152738D01*
X153833Y283565D01*
X153833Y283565D01*
X154197Y283322D01*
X154626Y283237D01*
X154626Y283237D01*
X157743D01*
Y281790D01*
X164258D01*
Y284792D01*
X164620Y285034D01*
X166293Y286707D01*
X166536Y287071D01*
X166622Y287500D01*
X166622Y287500D01*
Y306676D01*
X167084Y306868D01*
X171344Y302607D01*
X171344Y302607D01*
X171708Y302364D01*
X172137Y302278D01*
X172137Y302278D01*
X182293D01*
X182315Y302225D01*
X182948Y301592D01*
X183775Y301250D01*
X184670D01*
X185497Y301592D01*
X186130Y302225D01*
X186472Y303052D01*
Y303532D01*
X186972Y303866D01*
X187252Y303750D01*
X188148D01*
X188974Y304093D01*
X189608Y304726D01*
X189950Y305552D01*
Y306448D01*
X189608Y307275D01*
X188974Y307908D01*
X189085Y308403D01*
X189408Y308726D01*
X189750Y309552D01*
Y310448D01*
X189408Y311275D01*
X188775Y311908D01*
X187948Y312250D01*
X187052D01*
X186225Y311908D01*
X185592Y311275D01*
X185250Y310448D01*
Y309552D01*
X185313Y309400D01*
X184885Y308972D01*
X174581D01*
X172114Y311438D01*
X172305Y311900D01*
X174453D01*
Y311500D01*
X175543D01*
Y314862D01*
Y318224D01*
X175196D01*
Y327239D01*
X179870Y331913D01*
X180023Y331850D01*
X180919D01*
X181071Y331913D01*
X183609Y329376D01*
X183326Y328952D01*
X182848Y329150D01*
X181952D01*
X181125Y328807D01*
X180492Y328174D01*
X180150Y327348D01*
Y326452D01*
X180492Y325625D01*
X181125Y324992D01*
X181711Y324750D01*
X181612Y324250D01*
X181052D01*
X180226Y323907D01*
X179593Y323274D01*
X179250Y322448D01*
Y321552D01*
X179313Y321399D01*
X177219Y319305D01*
X176976Y318941D01*
X176890Y318512D01*
X176543Y318237D01*
Y314862D01*
Y311500D01*
X177634D01*
Y311900D01*
X183139D01*
Y313741D01*
X184279D01*
X184279Y313741D01*
X184708Y313826D01*
X185072Y314069D01*
X185429Y314426D01*
X185582Y314363D01*
X186477D01*
X187304Y314705D01*
X187937Y315338D01*
X188280Y316165D01*
Y317060D01*
X187937Y317887D01*
X187304Y318520D01*
X186477Y318863D01*
X185582D01*
X184755Y318520D01*
X184122Y317887D01*
X183780Y317060D01*
Y316620D01*
X183280Y316355D01*
X183139Y316451D01*
Y317824D01*
X179618D01*
X179411Y318324D01*
X180900Y319813D01*
X181052Y319750D01*
X181948D01*
X182774Y320093D01*
X183407Y320725D01*
X183750Y321552D01*
Y322448D01*
X183407Y323274D01*
X182774Y323907D01*
X182189Y324150D01*
X182288Y324650D01*
X182848D01*
X183001Y324713D01*
X185680Y322034D01*
X185680Y322034D01*
X186044Y321791D01*
X186426Y321715D01*
X186861Y321546D01*
X186861Y321546D01*
X186861Y321546D01*
X192785D01*
Y323559D01*
X192883Y323578D01*
X193246Y323821D01*
X193490Y324185D01*
X193575Y324614D01*
X193490Y325043D01*
X193246Y325407D01*
X193185Y325448D01*
Y326173D01*
X189823D01*
Y327173D01*
X193185D01*
Y327520D01*
X195343D01*
Y325142D01*
X202658D01*
Y327520D01*
X204847D01*
X208727Y323640D01*
Y321270D01*
X213273D01*
Y321999D01*
X213742Y322073D01*
X213742Y322073D01*
X213742Y322073D01*
X220257D01*
Y322073D01*
X220727Y321999D01*
Y321270D01*
X225273D01*
Y321857D01*
X225743Y321932D01*
Y321932D01*
X232258D01*
Y321932D01*
X232727Y321857D01*
Y321270D01*
X237273D01*
Y321999D01*
X237742Y322073D01*
X237742Y322073D01*
X237742Y322073D01*
X244257D01*
Y327210D01*
X237742D01*
Y325300D01*
X237273Y325226D01*
Y325226D01*
X234948D01*
Y325855D01*
X234948Y325855D01*
X234863Y326284D01*
X234620Y326648D01*
X234620Y326648D01*
X227425Y333843D01*
X227061Y334086D01*
X226632Y334172D01*
X226632Y334172D01*
X207011D01*
X206803Y334671D01*
X207157Y335026D01*
X207500Y335852D01*
Y336748D01*
X207157Y337575D01*
X206524Y338208D01*
X205698Y338550D01*
X204802D01*
X203976Y338208D01*
X203343Y337575D01*
X203000Y336748D01*
Y335852D01*
X203343Y335026D01*
X203696Y334671D01*
X203489Y334172D01*
X202229D01*
X201800Y334086D01*
X201436Y333843D01*
X201436Y333843D01*
X201293Y333700D01*
X192785D01*
Y337294D01*
Y341231D01*
Y345168D01*
Y349174D01*
X195343D01*
X195343Y349174D01*
X195772Y349259D01*
X196136Y349502D01*
X196876Y350242D01*
X200427D01*
Y356757D01*
X197053D01*
X196786Y357258D01*
X196843Y357343D01*
X197358D01*
Y360500D01*
X194890D01*
Y358929D01*
X193244Y357283D01*
X193001Y356919D01*
X192916Y356490D01*
X192916Y356490D01*
Y355171D01*
X191599Y353854D01*
X190323D01*
Y352264D01*
X189823D01*
Y351764D01*
X186461D01*
Y350673D01*
X186861D01*
Y349535D01*
X184207D01*
X184107Y349775D01*
X183475Y350408D01*
X182648Y350750D01*
X181752D01*
X180926Y350408D01*
X180292Y349775D01*
X179950Y348948D01*
Y348052D01*
X180292Y347225D01*
X180697Y346821D01*
X180807Y346398D01*
X180678Y346187D01*
X180191Y345700D01*
X179848Y344873D01*
Y343978D01*
X180191Y343151D01*
X180823Y342518D01*
X181650Y342175D01*
X182545D01*
X183372Y342518D01*
X184005Y343151D01*
X184348Y343978D01*
Y344873D01*
X184727Y345237D01*
X186861D01*
Y341231D01*
Y337294D01*
Y333357D01*
Y328617D01*
X186831Y328587D01*
X186721Y328564D01*
X186272Y328979D01*
Y329421D01*
X186272Y329421D01*
X186186Y329850D01*
X185943Y330214D01*
X185943Y330214D01*
X182658Y333500D01*
X182721Y333652D01*
Y334548D01*
X182378Y335374D01*
X181745Y336007D01*
X180919Y336350D01*
X180023D01*
X179196Y336007D01*
X178563Y335374D01*
X178221Y334548D01*
Y333652D01*
X178284Y333500D01*
X173282Y328497D01*
X173039Y328133D01*
X172953Y327704D01*
X172953Y327704D01*
Y317824D01*
X165354D01*
Y321112D01*
X165354Y321112D01*
X165269Y321541D01*
X165025Y321905D01*
X165025Y321905D01*
X163922Y323008D01*
X163558Y323251D01*
X163129Y323336D01*
X163129Y323336D01*
X153021D01*
X152957Y323489D01*
X152324Y324122D01*
X151498Y324465D01*
X150602D01*
X149776Y324122D01*
X149607Y323954D01*
X149064Y324118D01*
X149046Y324212D01*
X148802Y324575D01*
X148673Y324705D01*
X150579Y326610D01*
X150579Y326610D01*
X150822Y326974D01*
X150907Y327403D01*
X150907Y327403D01*
Y329814D01*
X150907Y329814D01*
X150822Y330243D01*
X150579Y330607D01*
X150579Y330607D01*
X149783Y331403D01*
X149419Y331646D01*
X148990Y331732D01*
X148990Y331732D01*
X147509D01*
Y333357D01*
Y337371D01*
X155882D01*
X155942Y337226D01*
X156576Y336593D01*
X157402Y336250D01*
X158298D01*
X159125Y336593D01*
X159757Y337226D01*
X160100Y338052D01*
Y338948D01*
X159757Y339774D01*
X159125Y340407D01*
X158298Y340750D01*
X157402D01*
X156576Y340407D01*
X155942Y339774D01*
X155876Y339614D01*
X147509D01*
Y341231D01*
Y345310D01*
X158660D01*
X158693Y345231D01*
X159326Y344598D01*
X160152Y344256D01*
X161048D01*
X161874Y344598D01*
X162278Y345002D01*
X162778Y344795D01*
Y337560D01*
X162192Y336975D01*
X161850Y336148D01*
Y335252D01*
X162192Y334425D01*
X162826Y333792D01*
X163652Y333450D01*
X164548D01*
X165375Y333792D01*
X166007Y334425D01*
X166350Y335252D01*
Y336148D01*
X166007Y336975D01*
X165375Y337608D01*
X165022Y337754D01*
Y339815D01*
X165483Y340006D01*
X165503Y339987D01*
X166330Y339645D01*
X167225D01*
X168052Y339987D01*
X168685Y340620D01*
X169027Y341447D01*
Y342342D01*
X168764Y342977D01*
X169147Y343360D01*
X169438Y343239D01*
X170333D01*
X171160Y343582D01*
X171792Y344215D01*
X172042Y344817D01*
X172302Y345250D01*
X173198D01*
X174024Y345592D01*
X174657Y346226D01*
X175000Y347052D01*
Y347948D01*
X174942Y348087D01*
X175276Y348587D01*
X175635D01*
X176462Y348930D01*
X177095Y349563D01*
X177438Y350389D01*
Y351012D01*
X177458Y351039D01*
X177928Y351309D01*
X178552Y351050D01*
X179448D01*
X180274Y351393D01*
X180907Y352026D01*
X181250Y352852D01*
Y353748D01*
X180907Y354574D01*
X180274Y355207D01*
X179448Y355550D01*
X178552D01*
X177726Y355207D01*
X177227Y354709D01*
X175260D01*
X173318Y356650D01*
Y357176D01*
X183139D01*
Y363100D01*
X161417D01*
Y395327D01*
X162502Y396412D01*
X164872D01*
Y403714D01*
X162111D01*
X161920Y404176D01*
X163815Y406071D01*
X166342D01*
Y404000D01*
X170000D01*
X173658D01*
Y406071D01*
X175368D01*
Y403148D01*
X180309D01*
Y411238D01*
X180002D01*
Y411962D01*
X181782Y413742D01*
X184927D01*
Y420258D01*
X184927D01*
Y420743D01*
X184927D01*
Y427257D01*
X184499D01*
Y432642D01*
X184336Y433461D01*
X183872Y434156D01*
X182514Y435514D01*
X181819Y435978D01*
X181000Y436141D01*
X162330D01*
X162123Y436641D01*
X162526Y437044D01*
X162869Y437871D01*
Y438766D01*
X162526Y439593D01*
X161893Y440226D01*
X161066Y440569D01*
X160171D01*
X159344Y440226D01*
X158711Y439593D01*
X158640Y439422D01*
X122865D01*
X119236Y443050D01*
Y449392D01*
X119967D01*
X120092Y449392D01*
X120467D01*
X120592Y449392D01*
X124298D01*
X124423Y449392D01*
X124798D01*
X124923Y449392D01*
X125654D01*
Y448260D01*
X125654Y448260D01*
X125739Y447830D01*
X125982Y447467D01*
X127478Y445971D01*
X127415Y445818D01*
Y444923D01*
X127757Y444096D01*
X128390Y443463D01*
X129217Y443121D01*
X130112D01*
X130939Y443463D01*
X131572Y444096D01*
X131915Y444923D01*
Y445818D01*
X131572Y446645D01*
X130939Y447278D01*
X130112Y447621D01*
X129217D01*
X129064Y447557D01*
X127897Y448724D01*
Y449392D01*
X128728D01*
Y448992D01*
X130606D01*
Y453437D01*
Y457882D01*
X128728D01*
Y457482D01*
X124923D01*
X124798Y457482D01*
X124423D01*
X124298Y457482D01*
X123566D01*
Y458855D01*
X123481Y459284D01*
X123238Y459648D01*
X123238Y459648D01*
X121493Y461393D01*
X121129Y461636D01*
X120700Y461722D01*
X120700Y461722D01*
X112200D01*
X112200Y461722D01*
X111771Y461636D01*
X111407Y461393D01*
X109658Y459644D01*
X109196Y459836D01*
Y480298D01*
X110250D01*
Y487187D01*
X112809D01*
Y492324D01*
D02*
G37*
G36*
X165558Y451058D02*
X162400D01*
Y448590D01*
X165558D01*
Y451058D01*
D02*
G37*
G36*
X161400D02*
X158242D01*
Y448590D01*
X161400D01*
Y451058D01*
D02*
G37*
G36*
X217553Y449354D02*
X216658D01*
X215831Y449011D01*
X215198Y448378D01*
X214855Y447551D01*
Y446656D01*
X215198Y445829D01*
X215831Y445196D01*
X216658Y444854D01*
X217553D01*
X218380Y445196D01*
X219013Y445829D01*
X219355Y446656D01*
Y447551D01*
X219013Y448378D01*
X218380Y449011D01*
X217553Y449354D01*
D02*
G37*
G36*
X133484Y457882D02*
X131606D01*
Y453437D01*
Y448992D01*
X133484D01*
Y449392D01*
X134556D01*
Y448086D01*
X134556Y448086D01*
X134641Y447657D01*
X134884Y447293D01*
X135612Y446565D01*
X135549Y446412D01*
Y445517D01*
X135891Y444690D01*
X136524Y444057D01*
X137351Y443715D01*
X138247D01*
X139074Y444057D01*
X139706Y444690D01*
X140049Y445517D01*
Y446412D01*
X139706Y447239D01*
X139074Y447872D01*
X138247Y448214D01*
X137351D01*
X137198Y448151D01*
X136807Y448542D01*
Y449047D01*
X137146Y449385D01*
X137299Y449392D01*
X137415Y449392D01*
X137790D01*
X137915Y449392D01*
X140160D01*
X142285Y447267D01*
Y445668D01*
X141774Y445326D01*
X141423Y444802D01*
X141300Y444184D01*
Y442216D01*
X141423Y441598D01*
X141774Y441074D01*
X142298Y440723D01*
X142916Y440600D01*
X144884D01*
X145502Y440723D01*
X146026Y441074D01*
X146159Y441272D01*
X147573D01*
X147592Y441225D01*
X148225Y440592D01*
X149052Y440250D01*
X149948D01*
X150775Y440592D01*
X151408Y441225D01*
X151750Y442053D01*
Y442947D01*
X151408Y443775D01*
X150775Y444408D01*
X149948Y444750D01*
X149052D01*
X148225Y444408D01*
X147592Y443775D01*
X147485Y443515D01*
X146500D01*
Y444184D01*
X146377Y444802D01*
X146026Y445326D01*
X145502Y445677D01*
X144884Y445799D01*
X144528D01*
Y447732D01*
X144528Y447732D01*
X144442Y448161D01*
X144199Y448525D01*
X143794Y448930D01*
X143985Y449392D01*
X146076D01*
Y457482D01*
X142121D01*
Y457482D01*
X141746D01*
Y457482D01*
X137915D01*
X137790Y457482D01*
X137415D01*
X137290Y457482D01*
X133484D01*
Y457882D01*
D02*
G37*
G36*
X193148Y439850D02*
X192252D01*
X191426Y439507D01*
X190793Y438874D01*
X190450Y438048D01*
Y437152D01*
X190793Y436326D01*
X191426Y435693D01*
X192252Y435350D01*
X193148D01*
X193974Y435693D01*
X194607Y436326D01*
X194950Y437152D01*
Y438048D01*
X194607Y438874D01*
X193974Y439507D01*
X193148Y439850D01*
D02*
G37*
G36*
X258248Y434750D02*
X257352D01*
X256525Y434408D01*
X255892Y433775D01*
X255550Y432947D01*
Y432053D01*
X255892Y431225D01*
X256525Y430592D01*
X257352Y430250D01*
X258248D01*
X258378Y430304D01*
X258878Y429970D01*
Y424015D01*
X258677Y423864D01*
X258177Y424115D01*
Y425651D01*
X256547D01*
X256356Y426113D01*
X256418Y426175D01*
X256761Y427002D01*
Y427898D01*
X256418Y428724D01*
X255785Y429357D01*
X254958Y429700D01*
X254063D01*
X253236Y429357D01*
X252603Y428724D01*
X252261Y427898D01*
Y427002D01*
X252603Y426175D01*
X252666Y426113D01*
X252474Y425651D01*
X251170D01*
Y422680D01*
Y418374D01*
X250770D01*
Y416988D01*
X254673D01*
Y415988D01*
X250770D01*
Y414602D01*
X250561Y414189D01*
X249184Y412812D01*
X248722Y413003D01*
Y417771D01*
X248775Y417793D01*
X249408Y418426D01*
X249750Y419252D01*
Y420148D01*
X249408Y420974D01*
X248775Y421607D01*
X247948Y421950D01*
X247052D01*
X246226Y421607D01*
X245592Y420974D01*
X245488Y420722D01*
X240577D01*
X240577Y420722D01*
X240148Y420636D01*
X239784Y420393D01*
X237001Y417610D01*
X235043D01*
Y419721D01*
X235443D01*
Y421106D01*
X231539D01*
Y422106D01*
X235443D01*
Y423492D01*
X235043D01*
Y425651D01*
X228036D01*
Y425382D01*
X226048D01*
X225945Y425631D01*
X225312Y426264D01*
X224485Y426606D01*
X223590D01*
X222763Y426264D01*
X222130Y425631D01*
X221788Y424804D01*
Y423909D01*
X222070Y423228D01*
X221831Y422728D01*
X219776D01*
X219776Y422728D01*
X219346Y422643D01*
X218983Y422399D01*
X218983Y422399D01*
X217741Y421158D01*
X216858D01*
Y417500D01*
X216358D01*
Y417000D01*
X213390D01*
Y413842D01*
X213790Y413758D01*
Y409518D01*
X210207Y405935D01*
X209964Y405571D01*
X209878Y405142D01*
X209878Y405142D01*
Y403971D01*
X209725Y403907D01*
X209092Y403274D01*
X208750Y402448D01*
Y401552D01*
X209092Y400726D01*
X209725Y400093D01*
X210552Y399750D01*
X211448D01*
X212275Y400093D01*
X212908Y400726D01*
X213250Y401552D01*
Y402448D01*
X212908Y403274D01*
X212275Y403907D01*
X212122Y403971D01*
Y404677D01*
X214687Y407242D01*
X215700D01*
X215774Y406773D01*
X215774D01*
Y402227D01*
X219617D01*
Y398304D01*
X219464Y398240D01*
X218831Y397607D01*
X218489Y396780D01*
Y395885D01*
X218831Y395058D01*
X219464Y394425D01*
X220291Y394083D01*
X221186D01*
X222013Y394425D01*
X222646Y395058D01*
X222989Y395885D01*
Y396780D01*
X222646Y397607D01*
X222013Y398240D01*
X221860Y398304D01*
Y402009D01*
X222270Y402227D01*
X226226D01*
Y404892D01*
X226465Y405130D01*
X228036D01*
Y404766D01*
X234578Y404766D01*
X235059Y404282D01*
X235059Y404098D01*
X233687Y402726D01*
X230727D01*
Y398770D01*
X235227D01*
X235273Y398770D01*
Y398770D01*
X235727D01*
Y398770D01*
X240227D01*
X240273Y398770D01*
Y398770D01*
X240727D01*
Y398770D01*
X245273D01*
Y398770D01*
X245727D01*
Y398770D01*
X250273D01*
X250273Y398770D01*
X250727D01*
Y398770D01*
X250773Y398770D01*
X255273D01*
Y398770D01*
X255727D01*
Y398770D01*
X258052D01*
Y398227D01*
X258052Y398227D01*
X258137Y397798D01*
X258380Y397434D01*
X258722Y397092D01*
X258531Y396630D01*
X258500D01*
Y394252D01*
Y391874D01*
X262500D01*
Y394252D01*
X263000D01*
Y394752D01*
X265673D01*
Y396179D01*
X267282D01*
X267282Y396178D01*
X267711Y396264D01*
X268075Y396507D01*
X271221Y399653D01*
X271221Y399653D01*
X271464Y400017D01*
X271549Y400446D01*
X271549Y400446D01*
Y409457D01*
X271702Y409520D01*
X272335Y410153D01*
X272678Y410980D01*
Y411875D01*
X272335Y412702D01*
X271702Y413335D01*
X270875Y413678D01*
X269980D01*
X269153Y413335D01*
X268520Y412702D01*
X268445Y412520D01*
X260733D01*
X260581Y413020D01*
X260754Y413136D01*
X261202Y413584D01*
X261642Y413402D01*
X262537D01*
X263364Y413744D01*
X263997Y414377D01*
X264340Y415204D01*
Y416099D01*
X263997Y416926D01*
X263498Y417426D01*
X263686Y417926D01*
X269741D01*
X269741Y417926D01*
X270171Y418011D01*
X270534Y418254D01*
X270613Y418332D01*
X271052Y418150D01*
X271948D01*
X272775Y418493D01*
X273408Y419126D01*
X273750Y419952D01*
Y420848D01*
X273408Y421674D01*
X272775Y422307D01*
X271948Y422650D01*
X271052D01*
X270226Y422307D01*
X269592Y421674D01*
X269250Y420848D01*
Y420169D01*
X258177D01*
Y420871D01*
X258692D01*
X258692Y420871D01*
X259121Y420956D01*
X259485Y421199D01*
X260793Y422507D01*
X260793Y422507D01*
X261036Y422871D01*
X261122Y423300D01*
Y430900D01*
X261122Y430900D01*
X261036Y431329D01*
X260793Y431693D01*
X260793Y431693D01*
X260050Y432436D01*
Y432947D01*
X259707Y433775D01*
X259074Y434408D01*
X258248Y434750D01*
D02*
G37*
G36*
X149872Y425171D02*
X145916D01*
Y422122D01*
X143771D01*
X143708Y422274D01*
X143075Y422907D01*
X142248Y423250D01*
X141352D01*
X140525Y422907D01*
X139892Y422274D01*
X139550Y421448D01*
Y420552D01*
X139892Y419726D01*
X140525Y419093D01*
X141352Y418750D01*
X142248D01*
X143075Y419093D01*
X143708Y419726D01*
X143771Y419878D01*
X145916D01*
Y417869D01*
X149872D01*
Y425171D01*
D02*
G37*
G36*
X165272Y425571D02*
X163394D01*
Y422020D01*
X165272D01*
Y425571D01*
D02*
G37*
G36*
X162394D02*
X160516D01*
Y422020D01*
X162394D01*
Y425571D01*
D02*
G37*
G36*
X192210Y427257D02*
X187073D01*
Y420743D01*
X187073D01*
Y420258D01*
X187073D01*
Y413742D01*
X189791D01*
X189829Y413645D01*
X189875Y413242D01*
X189597Y413057D01*
X188178Y411638D01*
X187394D01*
Y407693D01*
X189764D01*
Y410052D01*
X190854Y411142D01*
X192217D01*
X192217Y411142D01*
X192646Y411228D01*
X193010Y411471D01*
X193070Y411445D01*
X193463Y411248D01*
X193479Y411233D01*
X193479Y410740D01*
Y403148D01*
X198419D01*
Y405586D01*
X198493Y406071D01*
X198922Y406157D01*
X199286Y406400D01*
X202999Y410113D01*
X203152Y410050D01*
X204048D01*
X204874Y410393D01*
X205507Y411025D01*
X205850Y411853D01*
Y412747D01*
X205507Y413575D01*
X204874Y414208D01*
X204048Y414550D01*
X203152D01*
X202326Y414208D01*
X201693Y413575D01*
X201350Y412747D01*
Y411853D01*
X201413Y411699D01*
X198881Y409167D01*
X198419Y409358D01*
Y411238D01*
X193979D01*
X193879Y411238D01*
X193432Y411291D01*
X193134Y411595D01*
X194429Y412890D01*
X196000D01*
Y415358D01*
X192842D01*
Y414776D01*
X192710Y414683D01*
X192210Y414942D01*
Y420258D01*
X192210D01*
Y420743D01*
X192210D01*
Y422878D01*
X193243D01*
Y420573D01*
X199758D01*
Y421549D01*
X200257Y421756D01*
X200813Y421201D01*
X200750Y421047D01*
Y420153D01*
X201093Y419325D01*
X201726Y418692D01*
X202552Y418350D01*
X203448D01*
X204275Y418692D01*
X204907Y419325D01*
X205250Y420153D01*
Y421047D01*
X204907Y421875D01*
X204275Y422507D01*
X203448Y422850D01*
X202552D01*
X202399Y422787D01*
X201251Y423935D01*
X200887Y424178D01*
X200458Y424263D01*
X200458Y424263D01*
X199758D01*
Y425710D01*
X193243D01*
Y425122D01*
X192210D01*
Y427257D01*
D02*
G37*
G36*
X215858Y421158D02*
X213390D01*
Y418000D01*
X215858D01*
Y421158D01*
D02*
G37*
G36*
X165272Y421020D02*
X163394D01*
Y417469D01*
X165272D01*
Y421020D01*
D02*
G37*
G36*
X162394D02*
X160516D01*
Y417469D01*
X162394D01*
Y421020D01*
D02*
G37*
G36*
X200157Y418827D02*
X197000D01*
Y416358D01*
X200157D01*
Y418827D01*
D02*
G37*
G36*
X196000D02*
X192842D01*
Y416358D01*
X196000D01*
Y418827D01*
D02*
G37*
G36*
X200157Y415358D02*
X197000D01*
Y412890D01*
X200157D01*
Y415358D01*
D02*
G37*
G36*
X186394Y411638D02*
X184024D01*
Y407693D01*
X186394D01*
Y411638D01*
D02*
G37*
G36*
X169500Y403000D02*
X166342D01*
Y400531D01*
X169500D01*
Y403000D01*
D02*
G37*
G36*
X189764Y406693D02*
X186894D01*
X184024D01*
Y402748D01*
X184402D01*
Y402188D01*
X181635Y399422D01*
X176354D01*
X173658Y402118D01*
Y403000D01*
X170500D01*
Y400531D01*
X172071D01*
X175096Y397507D01*
X175460Y397264D01*
X175889Y397178D01*
X175889Y397179D01*
X182100D01*
X182100Y397178D01*
X182529Y397264D01*
X182893Y397507D01*
X186317Y400931D01*
X186560Y401294D01*
X186645Y401724D01*
X186645Y401724D01*
Y402748D01*
X189764D01*
Y406693D01*
D02*
G37*
G36*
X118591Y406041D02*
X117409D01*
X116275Y405892D01*
X115217Y405454D01*
X114310Y404757D01*
X113613Y403850D01*
X113175Y402792D01*
X113025Y401657D01*
X113175Y400523D01*
X113613Y399465D01*
X114310Y398557D01*
X115217Y397861D01*
X116275Y397423D01*
X117409Y397273D01*
X118591D01*
X119725Y397423D01*
X120782Y397861D01*
X121690Y398557D01*
X122387Y399465D01*
X122825Y400523D01*
X122975Y401657D01*
X122825Y402792D01*
X122387Y403850D01*
X121690Y404757D01*
X120782Y405454D01*
X119725Y405892D01*
X118591Y406041D01*
D02*
G37*
G36*
X232500Y396630D02*
X230327D01*
Y394752D01*
X232500D01*
Y396630D01*
D02*
G37*
G36*
X265673Y393752D02*
X263500D01*
Y391874D01*
X265673D01*
Y393752D01*
D02*
G37*
G36*
X257500Y396630D02*
X253500D01*
Y394252D01*
Y391874D01*
X257500D01*
Y394252D01*
Y396630D01*
D02*
G37*
G36*
X252500D02*
X248500D01*
Y394252D01*
Y391874D01*
X252500D01*
Y394252D01*
Y396630D01*
D02*
G37*
G36*
X247500D02*
X243500D01*
Y394252D01*
Y391874D01*
X247500D01*
Y394252D01*
Y396630D01*
D02*
G37*
G36*
X242500D02*
X238500D01*
Y394252D01*
Y391874D01*
X242500D01*
Y394252D01*
Y396630D01*
D02*
G37*
G36*
X237500D02*
X233500D01*
Y394252D01*
Y391874D01*
X237500D01*
Y394252D01*
Y396630D01*
D02*
G37*
G36*
X232500Y393752D02*
X230327D01*
Y391874D01*
X232500D01*
Y393752D01*
D02*
G37*
G36*
X212378Y393673D02*
X210500D01*
Y391500D01*
X212378D01*
Y393673D01*
D02*
G37*
G36*
X209500D02*
X207622D01*
Y391500D01*
X209500D01*
Y393673D01*
D02*
G37*
G36*
X196748Y394150D02*
X195852D01*
X195026Y393808D01*
X194393Y393175D01*
X194050Y392348D01*
Y391452D01*
X194393Y390626D01*
X195026Y389992D01*
X195852Y389650D01*
X196748D01*
X197574Y389992D01*
X198207Y390626D01*
X198550Y391452D01*
Y392348D01*
X198207Y393175D01*
X197574Y393808D01*
X196748Y394150D01*
D02*
G37*
G36*
X204948Y408250D02*
X204052D01*
X203225Y407907D01*
X202592Y407274D01*
X202250Y406448D01*
Y405552D01*
X202592Y404726D01*
X203225Y404093D01*
X203378Y404029D01*
Y393273D01*
X201526D01*
Y388727D01*
X205482D01*
Y392065D01*
X205504Y392173D01*
Y392281D01*
X205536Y392330D01*
X205622Y392759D01*
X205622Y392759D01*
Y404029D01*
X205774Y404093D01*
X206407Y404726D01*
X206750Y405552D01*
Y406448D01*
X206407Y407274D01*
X205774Y407907D01*
X204948Y408250D01*
D02*
G37*
G36*
X212378Y390500D02*
X210500D01*
Y388327D01*
X212378D01*
Y390500D01*
D02*
G37*
G36*
X209500D02*
X207622D01*
Y388327D01*
X209500D01*
Y390500D01*
D02*
G37*
G36*
X194193Y386835D02*
X187394D01*
Y382890D01*
X194193D01*
Y386835D01*
D02*
G37*
G36*
X186394D02*
X179595D01*
Y382890D01*
X186394D01*
Y386835D01*
D02*
G37*
G36*
X267830Y383522D02*
X266935D01*
X266108Y383179D01*
X265475Y382547D01*
X265133Y381720D01*
Y380824D01*
X265475Y379997D01*
X266108Y379365D01*
X266935Y379022D01*
X267830D01*
X268657Y379365D01*
X269290Y379997D01*
X269633Y380824D01*
Y381720D01*
X269290Y382547D01*
X268657Y383179D01*
X267830Y383522D01*
D02*
G37*
G36*
X206170Y386021D02*
X201230D01*
Y381278D01*
X206170D01*
Y382528D01*
X207386D01*
X208213Y381700D01*
X208150Y381548D01*
Y380652D01*
X208492Y379825D01*
X209125Y379192D01*
X209952Y378850D01*
X210848D01*
X211674Y379192D01*
X212308Y379825D01*
X212650Y380652D01*
Y381548D01*
X212308Y382375D01*
X211674Y383008D01*
X210848Y383350D01*
X209952D01*
X209800Y383287D01*
X208643Y384443D01*
X208280Y384686D01*
X207850Y384771D01*
X207850Y384771D01*
X206170D01*
Y386021D01*
D02*
G37*
G36*
X194193Y381890D02*
X187394D01*
Y377945D01*
X194193D01*
Y381890D01*
D02*
G37*
G36*
X186394D02*
X179595D01*
Y377945D01*
X186394D01*
Y381890D01*
D02*
G37*
G36*
X150348Y386150D02*
X149452D01*
X148626Y385807D01*
X147993Y385174D01*
X147650Y384348D01*
Y383452D01*
X147993Y382626D01*
X148626Y381993D01*
X149452Y381650D01*
X150158D01*
X150378Y381430D01*
Y379210D01*
X148242D01*
Y377763D01*
X147257D01*
Y379210D01*
X140743D01*
Y374073D01*
X147257D01*
Y375520D01*
X148242D01*
Y374073D01*
X154757D01*
Y379210D01*
X152622D01*
Y381894D01*
X152622Y381894D01*
X152536Y382323D01*
X152293Y382687D01*
X152293Y382687D01*
X151968Y383013D01*
X152150Y383452D01*
Y384348D01*
X151807Y385174D01*
X151174Y385807D01*
X150348Y386150D01*
D02*
G37*
G36*
X206170Y379722D02*
X201230D01*
Y374979D01*
X204863D01*
X204972Y374957D01*
X204972Y374957D01*
X207251D01*
X207350Y374858D01*
Y374152D01*
X207693Y373325D01*
X208326Y372692D01*
X209152Y372350D01*
X210048D01*
X210875Y372692D01*
X211508Y373325D01*
X211850Y374152D01*
Y375048D01*
X211508Y375874D01*
X210875Y376507D01*
X210048Y376850D01*
X209152D01*
X208713Y376668D01*
X208508Y376872D01*
X208145Y377115D01*
X207715Y377200D01*
X207715Y377200D01*
X206170D01*
Y379722D01*
D02*
G37*
G36*
X238048Y376750D02*
X237152D01*
X236326Y376408D01*
X235693Y375775D01*
X235350Y374948D01*
Y374052D01*
X235693Y373225D01*
X236326Y372592D01*
X237152Y372250D01*
X238048D01*
X238875Y372592D01*
X239508Y373225D01*
X239850Y374052D01*
Y374948D01*
X239508Y375775D01*
X238875Y376408D01*
X238048Y376750D01*
D02*
G37*
G36*
X113020Y379953D02*
X111980D01*
X110974Y379683D01*
X110073Y379163D01*
X109337Y378427D01*
X108817Y377526D01*
X108547Y376520D01*
Y375480D01*
X108817Y374474D01*
X109337Y373573D01*
X110073Y372837D01*
X110974Y372317D01*
X111980Y372047D01*
X113020D01*
X114026Y372317D01*
X114927Y372837D01*
X115663Y373573D01*
X116183Y374474D01*
X116453Y375480D01*
Y376520D01*
X116183Y377526D01*
X115663Y378427D01*
X114927Y379163D01*
X114026Y379683D01*
X113020Y379953D01*
D02*
G37*
G36*
X147658Y372327D02*
X144500D01*
Y369858D01*
X147658D01*
Y372327D01*
D02*
G37*
G36*
X143500D02*
X140342D01*
Y369858D01*
X143500D01*
Y372327D01*
D02*
G37*
G36*
X113020Y369953D02*
X113000D01*
Y366500D01*
X116453D01*
Y366520D01*
X116183Y367526D01*
X115663Y368427D01*
X114927Y369163D01*
X114026Y369683D01*
X113020Y369953D01*
D02*
G37*
G36*
X112000D02*
X111980D01*
X110974Y369683D01*
X110073Y369163D01*
X109337Y368427D01*
X108817Y367526D01*
X108547Y366520D01*
Y366500D01*
X112000D01*
Y369953D01*
D02*
G37*
G36*
X147658Y368858D02*
X144500D01*
Y366390D01*
X147658D01*
Y368858D01*
D02*
G37*
G36*
X143500D02*
X140342D01*
Y366390D01*
X143500D01*
Y368858D01*
D02*
G37*
G36*
X116453Y365500D02*
X113000D01*
Y362047D01*
X113020D01*
X114026Y362317D01*
X114927Y362837D01*
X115663Y363573D01*
X116183Y364474D01*
X116453Y365480D01*
Y365500D01*
D02*
G37*
G36*
X112000D02*
X108547D01*
Y365480D01*
X108817Y364474D01*
X109337Y363573D01*
X110073Y362837D01*
X110974Y362317D01*
X111980Y362047D01*
X112000D01*
Y365500D01*
D02*
G37*
G36*
X200827Y364657D02*
X198358D01*
Y361500D01*
X200827D01*
Y364657D01*
D02*
G37*
G36*
X197358D02*
X194890D01*
Y361500D01*
X197358D01*
Y364657D01*
D02*
G37*
G36*
X151921Y363500D02*
X150831D01*
Y360638D01*
X151921D01*
Y363500D01*
D02*
G37*
G36*
X200827Y360500D02*
X198358D01*
Y357343D01*
X200827D01*
Y360500D01*
D02*
G37*
G36*
X151921Y359638D02*
X150831D01*
Y356776D01*
X151921D01*
Y359638D01*
D02*
G37*
G36*
X234648Y355050D02*
X233752D01*
X232926Y354708D01*
X232450Y354232D01*
X231975Y354708D01*
X231148Y355050D01*
X230252D01*
X229426Y354708D01*
X228793Y354075D01*
X228450Y353248D01*
Y352352D01*
X228793Y351525D01*
X229426Y350892D01*
X230252Y350550D01*
X231148D01*
X231975Y350892D01*
X232450Y351368D01*
X232926Y350892D01*
X233752Y350550D01*
X234648D01*
X235474Y350892D01*
X236107Y351525D01*
X236450Y352352D01*
Y353248D01*
X236107Y354075D01*
X235474Y354708D01*
X234648Y355050D01*
D02*
G37*
G36*
X189323Y353854D02*
X186461D01*
Y352764D01*
X189323D01*
Y353854D01*
D02*
G37*
G36*
X205809Y369152D02*
X204914D01*
X204087Y368809D01*
X203454Y368176D01*
X203112Y367349D01*
Y366454D01*
X203454Y365627D01*
X204020Y365061D01*
Y364258D01*
X202573D01*
Y357743D01*
X204020D01*
Y356757D01*
X202573D01*
Y350242D01*
X207710D01*
Y356757D01*
X206263D01*
Y357743D01*
X207710D01*
Y364258D01*
X206263D01*
Y364840D01*
X206636Y364994D01*
X207269Y365627D01*
X207612Y366454D01*
Y367349D01*
X207269Y368176D01*
X206636Y368809D01*
X205809Y369152D01*
D02*
G37*
G36*
X201498Y343163D02*
X200603D01*
X199776Y342821D01*
X199143Y342188D01*
X198801Y341361D01*
Y340466D01*
X199143Y339639D01*
X199776Y339006D01*
X200603Y338663D01*
X201498D01*
X202325Y339006D01*
X202958Y339639D01*
X203301Y340466D01*
Y341361D01*
X202958Y342188D01*
X202325Y342821D01*
X201498Y343163D01*
D02*
G37*
G36*
X246148Y332350D02*
X245252D01*
X244426Y332008D01*
X243793Y331375D01*
X243450Y330548D01*
Y329652D01*
X243793Y328825D01*
X244426Y328192D01*
X245252Y327850D01*
X246148D01*
X246974Y328192D01*
X247607Y328825D01*
X247950Y329652D01*
Y330548D01*
X247607Y331375D01*
X246974Y332008D01*
X246148Y332350D01*
D02*
G37*
G36*
X202658Y324142D02*
X199500D01*
Y321673D01*
X202658D01*
Y324142D01*
D02*
G37*
G36*
X144047Y322236D02*
X141185D01*
Y321146D01*
X144047D01*
Y322236D01*
D02*
G37*
G36*
X140558Y322310D02*
X137400D01*
Y319842D01*
X140558D01*
Y322310D01*
D02*
G37*
G36*
X136400D02*
X133242D01*
Y319842D01*
X136400D01*
Y322310D01*
D02*
G37*
G36*
X132373Y321526D02*
X130200D01*
Y319648D01*
X132373D01*
Y321526D01*
D02*
G37*
G36*
X140558Y318842D02*
X137400D01*
Y316373D01*
X140558D01*
Y318842D01*
D02*
G37*
G36*
X258548Y319150D02*
X257652D01*
X256825Y318808D01*
X256192Y318175D01*
X255850Y317348D01*
Y316452D01*
X256192Y315626D01*
X256825Y314992D01*
X257652Y314650D01*
X258548D01*
X259374Y314992D01*
X260008Y315626D01*
X260350Y316452D01*
Y317348D01*
X260008Y318175D01*
X259374Y318808D01*
X258548Y319150D01*
D02*
G37*
G36*
X198500Y324142D02*
X195343D01*
Y321673D01*
X196130D01*
X196282Y321173D01*
X196049Y321018D01*
X195806Y320654D01*
X195721Y320225D01*
Y318827D01*
X195721Y318827D01*
X195742Y318718D01*
Y314790D01*
X202257D01*
Y316237D01*
X206207D01*
X206207Y316237D01*
X206637Y316322D01*
X207000Y316565D01*
X208227Y317792D01*
X208727Y317584D01*
Y314774D01*
X209878D01*
Y314171D01*
X209725Y314107D01*
X209092Y313474D01*
X208750Y312648D01*
Y311752D01*
X209092Y310926D01*
X209725Y310293D01*
X210552Y309950D01*
X211448D01*
X212275Y310293D01*
X212908Y310926D01*
X213250Y311752D01*
Y312648D01*
X212908Y313474D01*
X212275Y314107D01*
X212122Y314171D01*
Y314774D01*
X213249D01*
X213273Y314774D01*
Y314774D01*
X213742Y314790D01*
Y314790D01*
X220233D01*
X220722Y314774D01*
X220727Y314774D01*
Y314774D01*
X221503D01*
X221692Y314274D01*
X221193Y313774D01*
X220850Y312948D01*
Y312052D01*
X221193Y311226D01*
X221826Y310593D01*
X222652Y310250D01*
X223548D01*
X224375Y310593D01*
X225008Y311226D01*
X225350Y312052D01*
Y312948D01*
X225008Y313774D01*
X224508Y314274D01*
X224697Y314774D01*
X225273D01*
Y314774D01*
X225743Y314700D01*
Y314648D01*
X232258D01*
Y314700D01*
X232727Y314774D01*
Y314774D01*
X233545D01*
X233677Y314433D01*
X233692Y314274D01*
X233092Y313674D01*
X232750Y312848D01*
Y311952D01*
X233092Y311125D01*
X233726Y310492D01*
X234552Y310150D01*
X235448D01*
X236275Y310492D01*
X236908Y311125D01*
X237250Y311952D01*
Y312848D01*
X236908Y313674D01*
X236308Y314274D01*
X236323Y314433D01*
X236455Y314774D01*
X237249D01*
X237273Y314774D01*
Y314774D01*
X237742Y314790D01*
Y314790D01*
X239879D01*
Y314200D01*
X239878Y314200D01*
X239964Y313771D01*
X240207Y313407D01*
X241213Y312401D01*
X241150Y312248D01*
Y311352D01*
X241493Y310525D01*
X242126Y309893D01*
X242952Y309550D01*
X243848D01*
X244674Y309893D01*
X245307Y310525D01*
X245650Y311352D01*
Y312248D01*
X245307Y313074D01*
X244674Y313707D01*
X243848Y314050D01*
X242952D01*
X242880Y314020D01*
X242544Y314356D01*
X242723Y314790D01*
X244257D01*
Y319927D01*
X239329D01*
X239232Y320023D01*
X238869Y320266D01*
X238439Y320352D01*
X238439Y320352D01*
X232871D01*
X232871Y320352D01*
X232442Y320266D01*
X232078Y320023D01*
X232078Y320023D01*
X231862Y319807D01*
X230469D01*
X230469Y319807D01*
X230360Y319785D01*
X227329D01*
X227091Y320023D01*
X226727Y320266D01*
X226298Y320352D01*
X226298Y320352D01*
X220871D01*
X220871Y320352D01*
X220442Y320266D01*
X220078Y320023D01*
X220003Y319948D01*
X218469D01*
X218468Y319948D01*
X218360Y319927D01*
X215329D01*
X215232Y320023D01*
X214869Y320266D01*
X214439Y320352D01*
X214439Y320352D01*
X208079D01*
X208079Y320352D01*
X207650Y320266D01*
X207286Y320023D01*
X207286Y320023D01*
X205743Y318480D01*
X202257D01*
Y319927D01*
X197964D01*
Y320225D01*
X197879Y320654D01*
X197636Y321018D01*
X197403Y321173D01*
X197555Y321673D01*
X198500D01*
Y324142D01*
D02*
G37*
G36*
X205457Y308110D02*
X202300D01*
Y305642D01*
X205457D01*
Y308110D01*
D02*
G37*
G36*
X194200D02*
X191042D01*
Y305642D01*
X194200D01*
Y308110D01*
D02*
G37*
G36*
X210098Y309500D02*
X209202D01*
X208376Y309157D01*
X207743Y308524D01*
X207400Y307698D01*
Y306802D01*
X207743Y305976D01*
X208376Y305343D01*
X209202Y305000D01*
X210098D01*
X210925Y305343D01*
X211558Y305976D01*
X211900Y306802D01*
Y307698D01*
X211558Y308524D01*
X210925Y309157D01*
X210098Y309500D01*
D02*
G37*
G36*
X215598Y308472D02*
X214702D01*
X213876Y308129D01*
X213243Y307496D01*
X212900Y306669D01*
Y305774D01*
X213243Y304947D01*
X213876Y304314D01*
X214702Y303972D01*
X215598D01*
X216424Y304314D01*
X217057Y304947D01*
X217400Y305774D01*
Y306669D01*
X217057Y307496D01*
X216424Y308129D01*
X215598Y308472D01*
D02*
G37*
G36*
X205457Y304642D02*
X202300D01*
Y302173D01*
X205457D01*
Y304642D01*
D02*
G37*
G36*
X201300Y308110D02*
X195200D01*
Y305142D01*
Y302173D01*
X201300D01*
Y305142D01*
Y308110D01*
D02*
G37*
G36*
X194200Y304642D02*
X191042D01*
Y302173D01*
X194200D01*
Y304642D01*
D02*
G37*
G36*
X245348Y305150D02*
X244452D01*
X243625Y304807D01*
X242992Y304174D01*
X242650Y303348D01*
Y302452D01*
X242992Y301625D01*
X243625Y300992D01*
X244452Y300650D01*
X245348D01*
X246175Y300992D01*
X246808Y301625D01*
X247150Y302452D01*
Y303348D01*
X246808Y304174D01*
X246175Y304807D01*
X245348Y305150D01*
D02*
G37*
G36*
X131500Y300627D02*
X128342D01*
Y298158D01*
X131500D01*
Y300627D01*
D02*
G37*
G36*
X235448Y302250D02*
X234552D01*
X233726Y301907D01*
X233092Y301274D01*
X232750Y300448D01*
Y299552D01*
X233092Y298726D01*
X233726Y298093D01*
X234552Y297750D01*
X235448D01*
X236275Y298093D01*
X236908Y298726D01*
X237250Y299552D01*
Y300448D01*
X236908Y301274D01*
X236275Y301907D01*
X235448Y302250D01*
D02*
G37*
G36*
X135658Y297158D02*
X132500D01*
Y294690D01*
X135658D01*
Y297158D01*
D02*
G37*
G36*
X131500D02*
X128342D01*
Y294690D01*
X131500D01*
Y297158D01*
D02*
G37*
G36*
X223448Y298750D02*
X222552D01*
X221726Y298408D01*
X221093Y297775D01*
X220750Y296948D01*
Y296052D01*
X221093Y295226D01*
X221726Y294592D01*
X222552Y294250D01*
X223448D01*
X224274Y294592D01*
X224907Y295226D01*
X225250Y296052D01*
Y296948D01*
X224907Y297775D01*
X224274Y298408D01*
X223448Y298750D01*
D02*
G37*
G36*
X199323Y291950D02*
X198428D01*
X197601Y291607D01*
X196968Y290974D01*
X196626Y290148D01*
Y289252D01*
X196968Y288425D01*
X197601Y287792D01*
X198428Y287450D01*
X199323D01*
X200150Y287792D01*
X200783Y288425D01*
X201126Y289252D01*
Y290148D01*
X200783Y290974D01*
X200150Y291607D01*
X199323Y291950D01*
D02*
G37*
G36*
X189395Y302236D02*
X188500D01*
X187673Y301894D01*
X187040Y301261D01*
X186697Y300434D01*
Y299539D01*
X186864Y299136D01*
X186482Y298753D01*
X186248Y298850D01*
X185352D01*
X184526Y298507D01*
X183893Y297874D01*
X183550Y297048D01*
Y296152D01*
X183652Y295906D01*
X183544Y295774D01*
X183249Y295573D01*
X182518Y295875D01*
X181623D01*
X180796Y295533D01*
X180163Y294900D01*
X179821Y294073D01*
Y293178D01*
X180163Y292351D01*
X180796Y291718D01*
X181623Y291375D01*
X182518D01*
X183345Y291718D01*
X183978Y292351D01*
X184321Y293178D01*
Y294073D01*
X184219Y294320D01*
X184327Y294452D01*
X184622Y294653D01*
X185352Y294350D01*
X186248D01*
X187074Y294692D01*
X187707Y295325D01*
X188050Y296152D01*
Y297048D01*
X187883Y297450D01*
X188266Y297833D01*
X188500Y297736D01*
X189395D01*
X190222Y298079D01*
X190855Y298712D01*
X190943Y298923D01*
X191443Y298824D01*
Y295290D01*
X197958D01*
Y296737D01*
X198542D01*
Y295290D01*
X202782D01*
X209385Y288687D01*
Y286019D01*
X209232Y285955D01*
X208599Y285322D01*
X208257Y284495D01*
Y283600D01*
X208599Y282773D01*
X209232Y282140D01*
X210059Y281798D01*
X210954D01*
X211781Y282140D01*
X212414Y282773D01*
X212757Y283600D01*
Y284495D01*
X212414Y285322D01*
X211781Y285955D01*
X211628Y286019D01*
Y289152D01*
X211628Y289152D01*
X211543Y289581D01*
X211300Y289945D01*
X211300Y289945D01*
X210856Y290388D01*
X211071Y290880D01*
X211824Y291193D01*
X212457Y291826D01*
X212800Y292652D01*
Y293548D01*
X212457Y294374D01*
X211824Y295007D01*
X210998Y295350D01*
X210102D01*
X209276Y295007D01*
X208643Y294374D01*
X208330Y293621D01*
X207838Y293406D01*
X205058Y296187D01*
Y300427D01*
X198542D01*
Y298980D01*
X197958D01*
Y300427D01*
X191659D01*
X191439Y300430D01*
X191071Y300738D01*
X190855Y301261D01*
X190222Y301894D01*
X189395Y302236D01*
D02*
G37*
G36*
X241083Y277206D02*
X240188D01*
X239361Y276863D01*
X238885Y276388D01*
X238410Y276863D01*
X237583Y277206D01*
X236688D01*
X235861Y276863D01*
X235228Y276230D01*
X234885Y275403D01*
Y274508D01*
X235228Y273681D01*
X235861Y273048D01*
X236688Y272706D01*
X237583D01*
X238410Y273048D01*
X238885Y273524D01*
X239361Y273048D01*
X240188Y272706D01*
X241083D01*
X241910Y273048D01*
X242543Y273681D01*
X242885Y274508D01*
Y275403D01*
X242543Y276230D01*
X241910Y276863D01*
X241083Y277206D01*
D02*
G37*
G36*
X145757Y276410D02*
X142600D01*
Y273942D01*
X145757D01*
Y276410D01*
D02*
G37*
G36*
X141600D02*
X138443D01*
Y273942D01*
X141600D01*
Y276410D01*
D02*
G37*
G36*
X150476Y274828D02*
X148794D01*
Y273737D01*
X150476D01*
Y274828D01*
D02*
G37*
G36*
X184724Y276108D02*
X182059D01*
Y273246D01*
X184724D01*
Y276108D01*
D02*
G37*
G36*
X173458Y278627D02*
X170300D01*
Y275658D01*
Y272690D01*
X173458D01*
Y274537D01*
X178182D01*
X178394Y274325D01*
Y273246D01*
X181059D01*
Y276108D01*
X179783D01*
X179439Y276451D01*
X179076Y276694D01*
X178647Y276780D01*
X178646Y276780D01*
X173458D01*
Y278627D01*
D02*
G37*
G36*
X145757Y272942D02*
X142600D01*
Y270473D01*
X145757D01*
Y272942D01*
D02*
G37*
G36*
X141600D02*
X138443D01*
Y270473D01*
X141600D01*
Y272942D01*
D02*
G37*
G36*
X184724Y272246D02*
X182059D01*
Y269384D01*
X184724D01*
Y272246D01*
D02*
G37*
G36*
X181059D02*
X178394D01*
Y269384D01*
X181059D01*
Y272246D01*
D02*
G37*
G36*
X168573Y270148D02*
X166400D01*
Y268270D01*
X168573D01*
Y270148D01*
D02*
G37*
G36*
X250198Y267650D02*
X249302D01*
X248476Y267307D01*
X247843Y266674D01*
X247500Y265848D01*
Y264952D01*
X247843Y264125D01*
X248476Y263492D01*
X249302Y263150D01*
X250198D01*
X251025Y263492D01*
X251658Y264125D01*
X252000Y264952D01*
Y265848D01*
X251658Y266674D01*
X251025Y267307D01*
X250198Y267650D01*
D02*
G37*
G36*
X104448Y313650D02*
X103552D01*
X102726Y313307D01*
X102093Y312674D01*
X101750Y311848D01*
Y310952D01*
X102093Y310125D01*
X102726Y309492D01*
X103552Y309150D01*
X104448D01*
X104601Y309213D01*
X105320Y308494D01*
Y307947D01*
X103086D01*
Y298480D01*
X105320D01*
Y272120D01*
X103086D01*
Y262653D01*
X109798D01*
Y272120D01*
X107563D01*
Y298480D01*
X109798D01*
Y307947D01*
X107563D01*
Y308958D01*
X107563Y308958D01*
X107478Y309387D01*
X107235Y309751D01*
X107235Y309751D01*
X106187Y310800D01*
X106250Y310952D01*
Y311848D01*
X105907Y312674D01*
X105274Y313307D01*
X104448Y313650D01*
D02*
G37*
G36*
X192592Y275708D02*
X187061D01*
Y271189D01*
X187040Y271080D01*
X187040Y271080D01*
Y268000D01*
X179355Y260315D01*
X179112Y259951D01*
X179026Y259522D01*
X179026Y259522D01*
Y257273D01*
X178170D01*
X178170Y252815D01*
X177770Y252573D01*
X177770Y252485D01*
X177770Y252485D01*
Y250400D01*
X180148D01*
X182526D01*
Y252485D01*
X182526Y252485D01*
Y252573D01*
X182126Y252815D01*
X182126Y253073D01*
Y257273D01*
X181270D01*
Y259057D01*
X188954Y266742D01*
X189198Y267106D01*
X189283Y267535D01*
X189283Y267535D01*
Y269783D01*
X192592D01*
Y275708D01*
D02*
G37*
G36*
X230810Y250358D02*
X228342D01*
Y247200D01*
X230810D01*
Y250358D01*
D02*
G37*
G36*
X227342D02*
X224873D01*
Y247200D01*
X227342D01*
Y250358D01*
D02*
G37*
G36*
X258848Y244150D02*
X257952D01*
X257125Y243808D01*
X256492Y243175D01*
X256150Y242348D01*
Y241452D01*
X256492Y240626D01*
X256991Y240127D01*
Y237473D01*
X255670D01*
Y235064D01*
X255667Y235063D01*
X255303Y234820D01*
X255303Y234820D01*
X253630Y233147D01*
X253130Y233354D01*
Y237473D01*
X249174D01*
Y234808D01*
X248087Y233721D01*
X247100D01*
Y234300D01*
X238100D01*
Y230900D01*
X244678D01*
Y229300D01*
X238100D01*
Y225900D01*
X247100D01*
Y229300D01*
X246921D01*
Y230900D01*
X247100D01*
Y231479D01*
X248552D01*
X248552Y231478D01*
X248690Y231506D01*
X249190Y231148D01*
Y225743D01*
X254327D01*
Y230671D01*
X256016Y232361D01*
X256473Y232111D01*
X256473Y231818D01*
Y225743D01*
X261610D01*
Y227878D01*
X266689D01*
X267012Y227469D01*
X267004Y227451D01*
Y226556D01*
X267347Y225729D01*
X267980Y225096D01*
X268807Y224753D01*
X269702D01*
X270529Y225096D01*
X271162Y225729D01*
X271504Y226556D01*
Y227451D01*
X271162Y228278D01*
X270529Y228911D01*
X269702Y229253D01*
X268807D01*
X268654Y229190D01*
X268051Y229793D01*
X267687Y230036D01*
X267258Y230122D01*
X267258Y230121D01*
X261610D01*
Y232258D01*
X257012D01*
X256876Y232391D01*
X256714Y232693D01*
X256704Y232757D01*
X256830Y232917D01*
X256878Y232927D01*
X259626D01*
Y237473D01*
X259234D01*
Y239810D01*
X259675Y239992D01*
X260308Y240626D01*
X260650Y241452D01*
Y242348D01*
X260308Y243175D01*
X259675Y243808D01*
X258848Y244150D01*
D02*
G37*
G36*
X253878Y224373D02*
X249922D01*
Y223221D01*
X247100D01*
Y224300D01*
X238100D01*
Y220900D01*
X247100D01*
Y220978D01*
X249922D01*
Y219827D01*
X250779D01*
Y219073D01*
X249922D01*
Y214527D01*
X253878D01*
Y219073D01*
X253022D01*
Y219827D01*
X253878D01*
Y224373D01*
D02*
G37*
G36*
X260374D02*
X256418D01*
Y219827D01*
X260374D01*
Y220479D01*
X268729D01*
X268793Y220325D01*
X269426Y219692D01*
X270252Y219350D01*
X271148D01*
X271974Y219692D01*
X272607Y220325D01*
X272950Y221152D01*
Y222048D01*
X272607Y222874D01*
X271974Y223507D01*
X271148Y223850D01*
X270252D01*
X269426Y223507D01*
X268793Y222874D01*
X268729Y222722D01*
X260374D01*
Y224373D01*
D02*
G37*
G36*
X304110Y221458D02*
X301642D01*
Y218300D01*
X304110D01*
Y221458D01*
D02*
G37*
G36*
X300642D02*
X298173D01*
Y218300D01*
X300642D01*
Y221458D01*
D02*
G37*
G36*
X228100Y219700D02*
X223700D01*
Y218100D01*
X228100D01*
Y219700D01*
D02*
G37*
G36*
X222700D02*
X218300D01*
Y218100D01*
X222700D01*
Y219700D01*
D02*
G37*
G36*
X276897Y236928D02*
X276002D01*
X275175Y236586D01*
X274542Y235953D01*
X274200Y235126D01*
Y234231D01*
X274542Y233404D01*
X275073Y232873D01*
Y221477D01*
X271112Y217516D01*
X270587Y217699D01*
X270307Y218374D01*
X269674Y219007D01*
X268848Y219350D01*
X267952D01*
X267126Y219007D01*
X266493Y218374D01*
X266429Y218221D01*
X260374D01*
Y219073D01*
X256418D01*
Y214527D01*
X257250D01*
Y213973D01*
X256370D01*
Y209427D01*
X260326D01*
Y213973D01*
X259494D01*
Y214527D01*
X260374D01*
Y215979D01*
X266429D01*
X266493Y215826D01*
X267126Y215193D01*
X267801Y214913D01*
X267984Y214388D01*
X261406Y207810D01*
X260326D01*
Y208673D01*
X256370D01*
Y204127D01*
X260326D01*
Y205057D01*
X261976D01*
X262503Y205162D01*
X262949Y205460D01*
X277423Y219934D01*
X277721Y220380D01*
X277826Y220907D01*
Y232873D01*
X278357Y233404D01*
X278699Y234231D01*
Y235126D01*
X278357Y235953D01*
X277724Y236586D01*
X276897Y236928D01*
D02*
G37*
G36*
X228100Y217100D02*
X223700D01*
Y215500D01*
X228100D01*
Y217100D01*
D02*
G37*
G36*
X222700D02*
X218300D01*
Y215500D01*
X222700D01*
Y217100D01*
D02*
G37*
G36*
X304983Y210340D02*
X302121D01*
Y208659D01*
X304983D01*
Y210340D01*
D02*
G37*
G36*
X247100Y209300D02*
X238100D01*
Y205900D01*
X242678D01*
Y204300D01*
X238100D01*
Y200900D01*
X243065D01*
X243256Y200438D01*
X243193Y200375D01*
X242850Y199548D01*
Y198652D01*
X243193Y197826D01*
X243826Y197193D01*
X244652Y196850D01*
X245548D01*
X245701Y196913D01*
X248507Y194107D01*
X248507Y194107D01*
X248871Y193864D01*
X249300Y193778D01*
X249300Y193778D01*
X249932D01*
Y191642D01*
X255068D01*
Y196571D01*
X256758Y198260D01*
X257215Y198011D01*
X257215Y197718D01*
Y191642D01*
X262352D01*
Y193778D01*
X267940D01*
X268126Y193593D01*
X268952Y193250D01*
X269848D01*
X270674Y193593D01*
X271307Y194226D01*
X271650Y195052D01*
Y195948D01*
X271307Y196774D01*
X270674Y197407D01*
X269848Y197750D01*
X268952D01*
X268126Y197407D01*
X267493Y196774D01*
X267181Y196022D01*
X262352D01*
Y198158D01*
X257754D01*
X257628Y198283D01*
X257445Y198658D01*
X257469Y198706D01*
X257572Y198816D01*
X257627Y198827D01*
X260374D01*
Y203373D01*
X256418D01*
Y200965D01*
X256409Y200963D01*
X256045Y200720D01*
X256045Y200720D01*
X254378Y199053D01*
X253878Y199260D01*
Y203373D01*
X249922D01*
Y202222D01*
X248665D01*
X248004Y202882D01*
X247640Y203126D01*
X247211Y203211D01*
X247100Y203693D01*
Y204300D01*
X244921D01*
Y205900D01*
X247100D01*
Y209300D01*
D02*
G37*
G36*
X433180Y494760D02*
X431742D01*
X430332Y494479D01*
X429003Y493929D01*
X427808Y493130D01*
X426791Y492114D01*
X425992Y490918D01*
X425442Y489590D01*
X425161Y488179D01*
Y486742D01*
X425442Y485331D01*
X425992Y484003D01*
X426791Y482808D01*
X427808Y481791D01*
X429003Y480992D01*
X430332Y480442D01*
X431742Y480161D01*
X433180D01*
X434590Y480442D01*
X435918Y480992D01*
X437114Y481791D01*
X438130Y482808D01*
X438929Y484003D01*
X439479Y485331D01*
X439760Y486742D01*
Y488179D01*
X439479Y489590D01*
X438929Y490918D01*
X438130Y492114D01*
X437114Y493130D01*
X435918Y493929D01*
X434590Y494479D01*
X433180Y494760D01*
D02*
G37*
G36*
X415719D02*
X414281D01*
X412871Y494479D01*
X411543Y493929D01*
X410347Y493130D01*
X409330Y492114D01*
X408532Y490918D01*
X407981Y489590D01*
X407701Y488179D01*
Y486742D01*
X407981Y485331D01*
X408532Y484003D01*
X409330Y482808D01*
X410347Y481791D01*
X411543Y480992D01*
X412871Y480442D01*
X414281Y480161D01*
X415719D01*
X417129Y480442D01*
X418458Y480992D01*
X419653Y481791D01*
X420670Y482808D01*
X421468Y484003D01*
X422019Y485331D01*
X422299Y486742D01*
Y488179D01*
X422019Y489590D01*
X421468Y490918D01*
X420670Y492114D01*
X419653Y493130D01*
X418458Y493929D01*
X417129Y494479D01*
X415719Y494760D01*
D02*
G37*
G36*
X398258D02*
X396820D01*
X395410Y494479D01*
X394082Y493929D01*
X392886Y493130D01*
X391870Y492114D01*
X391071Y490918D01*
X390521Y489590D01*
X390240Y488179D01*
Y486742D01*
X390521Y485331D01*
X391071Y484003D01*
X391870Y482808D01*
X392886Y481791D01*
X394082Y480992D01*
X395410Y480442D01*
X396820Y480161D01*
X398258D01*
X399669Y480442D01*
X400997Y480992D01*
X402192Y481791D01*
X403209Y482808D01*
X404008Y484003D01*
X404558Y485331D01*
X404839Y486742D01*
Y488179D01*
X404558Y489590D01*
X404008Y490918D01*
X403209Y492114D01*
X402192Y493130D01*
X400997Y493929D01*
X399669Y494479D01*
X398258Y494760D01*
D02*
G37*
G36*
X433180Y477299D02*
X431742D01*
X430332Y477019D01*
X429003Y476469D01*
X427808Y475670D01*
X426791Y474653D01*
X425992Y473457D01*
X425442Y472129D01*
X425161Y470719D01*
Y469281D01*
X425442Y467871D01*
X425992Y466542D01*
X426791Y465347D01*
X427808Y464330D01*
X429003Y463531D01*
X430332Y462981D01*
X431742Y462701D01*
X433180D01*
X434590Y462981D01*
X435918Y463531D01*
X437114Y464330D01*
X438130Y465347D01*
X438929Y466542D01*
X439479Y467871D01*
X439760Y469281D01*
Y470719D01*
X439479Y472129D01*
X438929Y473457D01*
X438130Y474653D01*
X437114Y475670D01*
X435918Y476469D01*
X434590Y477019D01*
X433180Y477299D01*
D02*
G37*
G36*
X398258D02*
X396820D01*
X395410Y477019D01*
X394082Y476469D01*
X392886Y475670D01*
X391870Y474653D01*
X391071Y473457D01*
X390521Y472129D01*
X390240Y470719D01*
Y469281D01*
X390521Y467871D01*
X391071Y466542D01*
X391870Y465347D01*
X392886Y464330D01*
X394082Y463531D01*
X395410Y462981D01*
X396820Y462701D01*
X398258D01*
X399669Y462981D01*
X400997Y463531D01*
X402192Y464330D01*
X403209Y465347D01*
X404008Y466542D01*
X404558Y467871D01*
X404839Y469281D01*
Y470719D01*
X404558Y472129D01*
X404008Y473457D01*
X403209Y474653D01*
X402192Y475670D01*
X400997Y476469D01*
X399669Y477019D01*
X398258Y477299D01*
D02*
G37*
G36*
X415913Y479268D02*
X414087D01*
X412297Y478911D01*
X410610Y478213D01*
X409092Y477199D01*
X407801Y475908D01*
X406787Y474390D01*
X406088Y472703D01*
X405732Y470913D01*
Y469087D01*
X406088Y467297D01*
X406787Y465610D01*
X407801Y464092D01*
X409092Y462801D01*
X410610Y461787D01*
X412297Y461089D01*
X414087Y460732D01*
X415913D01*
X417703Y461089D01*
X419390Y461787D01*
X420908Y462801D01*
X422199Y464092D01*
X423213Y465610D01*
X423912Y467297D01*
X424268Y469087D01*
Y470913D01*
X423912Y472703D01*
X423213Y474390D01*
X422199Y475908D01*
X420908Y477199D01*
X419390Y478213D01*
X417703Y478911D01*
X415913Y479268D01*
D02*
G37*
G36*
X433180Y459839D02*
X431742D01*
X430332Y459558D01*
X429003Y459008D01*
X427808Y458209D01*
X426791Y457192D01*
X425992Y455997D01*
X425442Y454669D01*
X425161Y453258D01*
Y451821D01*
X425442Y450410D01*
X425992Y449082D01*
X426791Y447886D01*
X427808Y446870D01*
X429003Y446071D01*
X430332Y445521D01*
X431742Y445240D01*
X433180D01*
X434590Y445521D01*
X435918Y446071D01*
X437114Y446870D01*
X438130Y447886D01*
X438929Y449082D01*
X439479Y450410D01*
X439760Y451821D01*
Y453258D01*
X439479Y454669D01*
X438929Y455997D01*
X438130Y457192D01*
X437114Y458209D01*
X435918Y459008D01*
X434590Y459558D01*
X433180Y459839D01*
D02*
G37*
G36*
X415719D02*
X414281D01*
X412871Y459558D01*
X411543Y459008D01*
X410347Y458209D01*
X409330Y457192D01*
X408532Y455997D01*
X407981Y454669D01*
X407701Y453258D01*
Y451821D01*
X407981Y450410D01*
X408532Y449082D01*
X409330Y447886D01*
X410347Y446870D01*
X411543Y446071D01*
X412871Y445521D01*
X414281Y445240D01*
X415719D01*
X417129Y445521D01*
X418458Y446071D01*
X419653Y446870D01*
X420670Y447886D01*
X421468Y449082D01*
X422019Y450410D01*
X422299Y451821D01*
Y453258D01*
X422019Y454669D01*
X421468Y455997D01*
X420670Y457192D01*
X419653Y458209D01*
X418458Y459008D01*
X417129Y459558D01*
X415719Y459839D01*
D02*
G37*
G36*
X398258D02*
X396820D01*
X395410Y459558D01*
X394082Y459008D01*
X392886Y458209D01*
X391870Y457192D01*
X391071Y455997D01*
X390521Y454669D01*
X390240Y453258D01*
Y451821D01*
X390521Y450410D01*
X391071Y449082D01*
X391870Y447886D01*
X392886Y446870D01*
X394082Y446071D01*
X395410Y445521D01*
X396820Y445240D01*
X398258D01*
X399669Y445521D01*
X400997Y446071D01*
X402192Y446870D01*
X403209Y447886D01*
X404008Y449082D01*
X404558Y450410D01*
X404839Y451821D01*
Y453258D01*
X404558Y454669D01*
X404008Y455997D01*
X403209Y457192D01*
X402192Y458209D01*
X400997Y459008D01*
X399669Y459558D01*
X398258Y459839D01*
D02*
G37*
G36*
X373548Y427450D02*
X372652D01*
X371826Y427107D01*
X371193Y426475D01*
X370850Y425647D01*
Y424753D01*
X371193Y423925D01*
X371826Y423292D01*
X372652Y422950D01*
X373548D01*
X373700Y423013D01*
X374179Y422535D01*
Y421421D01*
X372830D01*
Y416678D01*
X377770D01*
Y421421D01*
X376421D01*
Y423000D01*
X376422Y423000D01*
X376336Y423429D01*
X376093Y423793D01*
X375287Y424600D01*
X375350Y424753D01*
Y425647D01*
X375008Y426475D01*
X374375Y427107D01*
X373548Y427450D01*
D02*
G37*
G36*
X432650Y428937D02*
X431350D01*
X430094Y428601D01*
X428969Y427951D01*
X428049Y427031D01*
X427399Y425906D01*
X427063Y424650D01*
Y423350D01*
X427399Y422094D01*
X428049Y420969D01*
X428969Y420049D01*
X430094Y419399D01*
X430619Y419259D01*
Y418741D01*
X430094Y418601D01*
X428969Y417951D01*
X428049Y417031D01*
X427399Y415906D01*
X427063Y414650D01*
Y414500D01*
X432000D01*
X436937D01*
Y414650D01*
X436601Y415906D01*
X435951Y417031D01*
X435031Y417951D01*
X433906Y418601D01*
X433381Y418741D01*
Y419259D01*
X433906Y419399D01*
X435031Y420049D01*
X435951Y420969D01*
X436601Y422094D01*
X436937Y423350D01*
Y424650D01*
X436601Y425906D01*
X435951Y427031D01*
X435031Y427951D01*
X433906Y428601D01*
X432650Y428937D01*
D02*
G37*
G36*
X377770Y415122D02*
X372830D01*
Y410379D01*
X377770D01*
Y411629D01*
X379384D01*
X379592Y411126D01*
X380225Y410493D01*
X381052Y410150D01*
X381948D01*
X382774Y410493D01*
X383407Y411126D01*
X383750Y411952D01*
Y412848D01*
X383407Y413674D01*
X382774Y414307D01*
X381948Y414650D01*
X381052D01*
X380225Y414307D01*
X379790Y413872D01*
X377770D01*
Y415122D01*
D02*
G37*
G36*
X358500Y426811D02*
X356484D01*
X354492Y426496D01*
X352574Y425872D01*
X350778Y424957D01*
X349146Y423772D01*
X347720Y422346D01*
X346535Y420714D01*
X345620Y418918D01*
X344997Y417000D01*
X344681Y415008D01*
Y412992D01*
X344997Y411000D01*
X345620Y409082D01*
X346535Y407286D01*
X347720Y405654D01*
X349146Y404228D01*
X350778Y403043D01*
X352574Y402128D01*
X354492Y401504D01*
X356484Y401189D01*
X358500D01*
X360492Y401504D01*
X362410Y402128D01*
X364207Y403043D01*
X365838Y404228D01*
X367264Y405654D01*
X368449Y407286D01*
X369365Y409082D01*
X369988Y411000D01*
X370303Y412992D01*
Y415008D01*
X369988Y417000D01*
X369365Y418918D01*
X368449Y420714D01*
X367264Y422346D01*
X365838Y423772D01*
X364207Y424957D01*
X362410Y425872D01*
X360492Y426496D01*
X358500Y426811D01*
D02*
G37*
G36*
X433180Y384760D02*
X431742D01*
X430332Y384479D01*
X429003Y383929D01*
X427808Y383130D01*
X426791Y382114D01*
X425992Y380918D01*
X425442Y379590D01*
X425161Y378180D01*
Y376742D01*
X425442Y375331D01*
X425992Y374003D01*
X426791Y372808D01*
X427808Y371791D01*
X429003Y370992D01*
X430332Y370442D01*
X431742Y370161D01*
X433180D01*
X434590Y370442D01*
X435918Y370992D01*
X437114Y371791D01*
X438130Y372808D01*
X438929Y374003D01*
X439479Y375331D01*
X439760Y376742D01*
Y378180D01*
X439479Y379590D01*
X438929Y380918D01*
X438130Y382114D01*
X437114Y383130D01*
X435918Y383929D01*
X434590Y384479D01*
X433180Y384760D01*
D02*
G37*
G36*
X415719D02*
X414281D01*
X412871Y384479D01*
X411543Y383929D01*
X410347Y383130D01*
X409330Y382114D01*
X408532Y380918D01*
X407981Y379590D01*
X407701Y378180D01*
Y376742D01*
X407981Y375331D01*
X408532Y374003D01*
X409330Y372808D01*
X410347Y371791D01*
X411543Y370992D01*
X412871Y370442D01*
X414281Y370161D01*
X415719D01*
X417129Y370442D01*
X418458Y370992D01*
X419653Y371791D01*
X420670Y372808D01*
X421468Y374003D01*
X422019Y375331D01*
X422299Y376742D01*
Y378180D01*
X422019Y379590D01*
X421468Y380918D01*
X420670Y382114D01*
X419653Y383130D01*
X418458Y383929D01*
X417129Y384479D01*
X415719Y384760D01*
D02*
G37*
G36*
X398258D02*
X396820D01*
X395410Y384479D01*
X394082Y383929D01*
X392886Y383130D01*
X391870Y382114D01*
X391071Y380918D01*
X390521Y379590D01*
X390240Y378180D01*
Y376742D01*
X390521Y375331D01*
X391071Y374003D01*
X391870Y372808D01*
X392886Y371791D01*
X394082Y370992D01*
X395410Y370442D01*
X396820Y370161D01*
X398258D01*
X399669Y370442D01*
X400997Y370992D01*
X402192Y371791D01*
X403209Y372808D01*
X404008Y374003D01*
X404558Y375331D01*
X404839Y376742D01*
Y378180D01*
X404558Y379590D01*
X404008Y380918D01*
X403209Y382114D01*
X402192Y383130D01*
X400997Y383929D01*
X399669Y384479D01*
X398258Y384760D01*
D02*
G37*
G36*
X433180Y367299D02*
X431742D01*
X430332Y367019D01*
X429003Y366469D01*
X427808Y365670D01*
X426791Y364653D01*
X425992Y363457D01*
X425442Y362129D01*
X425161Y360719D01*
Y359281D01*
X425442Y357871D01*
X425992Y356542D01*
X426791Y355347D01*
X427808Y354330D01*
X429003Y353532D01*
X430332Y352981D01*
X431742Y352701D01*
X433180D01*
X434590Y352981D01*
X435918Y353532D01*
X437114Y354330D01*
X438130Y355347D01*
X438929Y356542D01*
X439479Y357871D01*
X439760Y359281D01*
Y360719D01*
X439479Y362129D01*
X438929Y363457D01*
X438130Y364653D01*
X437114Y365670D01*
X435918Y366469D01*
X434590Y367019D01*
X433180Y367299D01*
D02*
G37*
G36*
X398258D02*
X396820D01*
X395410Y367019D01*
X394082Y366469D01*
X392886Y365670D01*
X391870Y364653D01*
X391071Y363457D01*
X390521Y362129D01*
X390240Y360719D01*
Y359281D01*
X390521Y357871D01*
X391071Y356542D01*
X391870Y355347D01*
X392886Y354330D01*
X394082Y353532D01*
X395410Y352981D01*
X396820Y352701D01*
X398258D01*
X399669Y352981D01*
X400997Y353532D01*
X402192Y354330D01*
X403209Y355347D01*
X404008Y356542D01*
X404558Y357871D01*
X404839Y359281D01*
Y360719D01*
X404558Y362129D01*
X404008Y363457D01*
X403209Y364653D01*
X402192Y365670D01*
X400997Y366469D01*
X399669Y367019D01*
X398258Y367299D01*
D02*
G37*
G36*
X415913Y369268D02*
X414087D01*
X412297Y368912D01*
X410610Y368213D01*
X409092Y367199D01*
X407801Y365908D01*
X406787Y364390D01*
X406088Y362703D01*
X405732Y360913D01*
Y359087D01*
X406088Y357297D01*
X406787Y355610D01*
X407801Y354092D01*
X409092Y352801D01*
X410610Y351787D01*
X412297Y351089D01*
X414087Y350732D01*
X415913D01*
X417703Y351089D01*
X419390Y351787D01*
X420908Y352801D01*
X422199Y354092D01*
X423213Y355610D01*
X423912Y357297D01*
X424268Y359087D01*
Y360913D01*
X423912Y362703D01*
X423213Y364390D01*
X422199Y365908D01*
X420908Y367199D01*
X419390Y368213D01*
X417703Y368912D01*
X415913Y369268D01*
D02*
G37*
G36*
X323667Y350742D02*
X322772D01*
X321945Y350400D01*
X321312Y349767D01*
X320970Y348940D01*
Y348045D01*
X321312Y347218D01*
X321945Y346585D01*
X322772Y346242D01*
X323410D01*
X323445Y346190D01*
Y345295D01*
X323787Y344468D01*
X324420Y343835D01*
X325247Y343492D01*
X326142D01*
X326969Y343835D01*
X327602Y344468D01*
X327945Y345295D01*
Y346190D01*
X327602Y347017D01*
X326969Y347650D01*
X326142Y347992D01*
X325505D01*
X325470Y348045D01*
Y348940D01*
X325127Y349767D01*
X324494Y350400D01*
X323667Y350742D01*
D02*
G37*
G36*
X433180Y349839D02*
X431742D01*
X430332Y349558D01*
X429003Y349008D01*
X427808Y348209D01*
X426791Y347192D01*
X425992Y345997D01*
X425442Y344669D01*
X425161Y343258D01*
Y341821D01*
X425442Y340410D01*
X425992Y339082D01*
X426791Y337886D01*
X427808Y336870D01*
X429003Y336071D01*
X430332Y335521D01*
X431742Y335240D01*
X433180D01*
X434590Y335521D01*
X435918Y336071D01*
X437114Y336870D01*
X438130Y337886D01*
X438929Y339082D01*
X439479Y340410D01*
X439760Y341821D01*
Y343258D01*
X439479Y344669D01*
X438929Y345997D01*
X438130Y347192D01*
X437114Y348209D01*
X435918Y349008D01*
X434590Y349558D01*
X433180Y349839D01*
D02*
G37*
G36*
X415719D02*
X414281D01*
X412871Y349558D01*
X411543Y349008D01*
X410347Y348209D01*
X409330Y347192D01*
X408532Y345997D01*
X407981Y344669D01*
X407701Y343258D01*
Y341821D01*
X407981Y340410D01*
X408532Y339082D01*
X409330Y337886D01*
X410347Y336870D01*
X411543Y336071D01*
X412871Y335521D01*
X414281Y335240D01*
X415719D01*
X417129Y335521D01*
X418458Y336071D01*
X419653Y336870D01*
X420670Y337886D01*
X421468Y339082D01*
X422019Y340410D01*
X422299Y341821D01*
Y343258D01*
X422019Y344669D01*
X421468Y345997D01*
X420670Y347192D01*
X419653Y348209D01*
X418458Y349008D01*
X417129Y349558D01*
X415719Y349839D01*
D02*
G37*
G36*
X398258D02*
X396820D01*
X395410Y349558D01*
X394082Y349008D01*
X392886Y348209D01*
X391870Y347192D01*
X391071Y345997D01*
X390521Y344669D01*
X390240Y343258D01*
Y341821D01*
X390521Y340410D01*
X391071Y339082D01*
X391870Y337886D01*
X392886Y336870D01*
X394082Y336071D01*
X395410Y335521D01*
X396820Y335240D01*
X398258D01*
X399669Y335521D01*
X400997Y336071D01*
X402192Y336870D01*
X403209Y337886D01*
X404008Y339082D01*
X404558Y340410D01*
X404839Y341821D01*
Y343258D01*
X404558Y344669D01*
X404008Y345997D01*
X403209Y347192D01*
X402192Y348209D01*
X400997Y349008D01*
X399669Y349558D01*
X398258Y349839D01*
D02*
G37*
G36*
X375848Y329850D02*
X374952D01*
X374126Y329507D01*
X373493Y328874D01*
X373150Y328048D01*
Y327152D01*
X373493Y326325D01*
X374126Y325693D01*
X374879Y325381D01*
Y310372D01*
X373530D01*
Y305628D01*
X378470D01*
Y310372D01*
X377121D01*
Y326140D01*
X377308Y326325D01*
X377650Y327152D01*
Y328048D01*
X377308Y328874D01*
X376675Y329507D01*
X375848Y329850D01*
D02*
G37*
G36*
X433158Y318937D02*
X431858D01*
X430602Y318601D01*
X429476Y317951D01*
X428557Y317031D01*
X427907Y315906D01*
X427571Y314650D01*
Y313350D01*
X427907Y312094D01*
X428557Y310969D01*
X429476Y310049D01*
X430602Y309399D01*
X431127Y309259D01*
Y308741D01*
X430602Y308601D01*
X429476Y307951D01*
X428557Y307031D01*
X427907Y305906D01*
X427571Y304650D01*
Y304500D01*
X432508D01*
X437445D01*
Y304650D01*
X437108Y305906D01*
X436458Y307031D01*
X435539Y307951D01*
X434413Y308601D01*
X433889Y308741D01*
Y309259D01*
X434413Y309399D01*
X435539Y310049D01*
X436458Y310969D01*
X437108Y312094D01*
X437445Y313350D01*
Y314650D01*
X437108Y315906D01*
X436458Y317031D01*
X435539Y317951D01*
X434413Y318601D01*
X433158Y318937D01*
D02*
G37*
G36*
X378470Y304072D02*
X373530D01*
Y299329D01*
X378470D01*
Y300579D01*
X381129D01*
X381192Y300426D01*
X381825Y299793D01*
X382652Y299450D01*
X383548D01*
X384374Y299793D01*
X385008Y300426D01*
X385350Y301252D01*
Y302148D01*
X385008Y302975D01*
X384374Y303608D01*
X383548Y303950D01*
X382652D01*
X381825Y303608D01*
X381192Y302975D01*
X381130Y302822D01*
X378470D01*
Y304072D01*
D02*
G37*
G36*
X359008Y316811D02*
X356992D01*
X355000Y316496D01*
X353082Y315872D01*
X351286Y314957D01*
X349654Y313772D01*
X348228Y312346D01*
X347043Y310714D01*
X346128Y308918D01*
X345504Y307000D01*
X345189Y305008D01*
Y302992D01*
X345504Y301000D01*
X346128Y299082D01*
X347043Y297286D01*
X348228Y295654D01*
X349654Y294228D01*
X351286Y293043D01*
X353082Y292128D01*
X355000Y291504D01*
X356992Y291189D01*
X359008D01*
X361000Y291504D01*
X362918Y292128D01*
X364714Y293043D01*
X366346Y294228D01*
X367772Y295654D01*
X368957Y297286D01*
X369872Y299082D01*
X370496Y301000D01*
X370811Y302992D01*
Y305008D01*
X370496Y307000D01*
X369872Y308918D01*
X368957Y310714D01*
X367772Y312346D01*
X366346Y313772D01*
X364714Y314957D01*
X362918Y315872D01*
X361000Y316496D01*
X359008Y316811D01*
D02*
G37*
G36*
X433180Y274760D02*
X431742D01*
X430332Y274479D01*
X429003Y273929D01*
X427808Y273130D01*
X426791Y272114D01*
X425992Y270918D01*
X425442Y269590D01*
X425161Y268179D01*
Y266742D01*
X425442Y265332D01*
X425992Y264003D01*
X426791Y262808D01*
X427808Y261791D01*
X429003Y260992D01*
X430332Y260442D01*
X431742Y260161D01*
X433180D01*
X434590Y260442D01*
X435918Y260992D01*
X437114Y261791D01*
X438130Y262808D01*
X438929Y264003D01*
X439479Y265332D01*
X439760Y266742D01*
Y268179D01*
X439479Y269590D01*
X438929Y270918D01*
X438130Y272114D01*
X437114Y273130D01*
X435918Y273929D01*
X434590Y274479D01*
X433180Y274760D01*
D02*
G37*
G36*
X415719D02*
X414281D01*
X412871Y274479D01*
X411543Y273929D01*
X410347Y273130D01*
X409330Y272114D01*
X408532Y270918D01*
X407981Y269590D01*
X407701Y268179D01*
Y266742D01*
X407981Y265332D01*
X408532Y264003D01*
X409330Y262808D01*
X410347Y261791D01*
X411543Y260992D01*
X412871Y260442D01*
X414281Y260161D01*
X415719D01*
X417129Y260442D01*
X418458Y260992D01*
X419653Y261791D01*
X420670Y262808D01*
X421468Y264003D01*
X422019Y265332D01*
X422299Y266742D01*
Y268179D01*
X422019Y269590D01*
X421468Y270918D01*
X420670Y272114D01*
X419653Y273130D01*
X418458Y273929D01*
X417129Y274479D01*
X415719Y274760D01*
D02*
G37*
G36*
X398258D02*
X396820D01*
X395410Y274479D01*
X394082Y273929D01*
X392886Y273130D01*
X391870Y272114D01*
X391071Y270918D01*
X390521Y269590D01*
X390240Y268179D01*
Y266742D01*
X390521Y265332D01*
X391071Y264003D01*
X391870Y262808D01*
X392886Y261791D01*
X394082Y260992D01*
X395410Y260442D01*
X396820Y260161D01*
X398258D01*
X399669Y260442D01*
X400997Y260992D01*
X402192Y261791D01*
X403209Y262808D01*
X404008Y264003D01*
X404558Y265332D01*
X404839Y266742D01*
Y268179D01*
X404558Y269590D01*
X404008Y270918D01*
X403209Y272114D01*
X402192Y273130D01*
X400997Y273929D01*
X399669Y274479D01*
X398258Y274760D01*
D02*
G37*
G36*
X433180Y257299D02*
X431742D01*
X430332Y257019D01*
X429003Y256469D01*
X427808Y255670D01*
X426791Y254653D01*
X425992Y253457D01*
X425442Y252129D01*
X425161Y250719D01*
Y249281D01*
X425442Y247871D01*
X425992Y246543D01*
X426791Y245347D01*
X427808Y244330D01*
X429003Y243531D01*
X430332Y242981D01*
X431742Y242701D01*
X433180D01*
X434590Y242981D01*
X435918Y243531D01*
X437114Y244330D01*
X438130Y245347D01*
X438929Y246543D01*
X439479Y247871D01*
X439760Y249281D01*
Y250719D01*
X439479Y252129D01*
X438929Y253457D01*
X438130Y254653D01*
X437114Y255670D01*
X435918Y256469D01*
X434590Y257019D01*
X433180Y257299D01*
D02*
G37*
G36*
X398258D02*
X396820D01*
X395410Y257019D01*
X394082Y256469D01*
X392886Y255670D01*
X391870Y254653D01*
X391071Y253457D01*
X390521Y252129D01*
X390240Y250719D01*
Y249281D01*
X390521Y247871D01*
X391071Y246543D01*
X391870Y245347D01*
X392886Y244330D01*
X394082Y243531D01*
X395410Y242981D01*
X396820Y242701D01*
X398258D01*
X399669Y242981D01*
X400997Y243531D01*
X402192Y244330D01*
X403209Y245347D01*
X404008Y246543D01*
X404558Y247871D01*
X404839Y249281D01*
Y250719D01*
X404558Y252129D01*
X404008Y253457D01*
X403209Y254653D01*
X402192Y255670D01*
X400997Y256469D01*
X399669Y257019D01*
X398258Y257299D01*
D02*
G37*
G36*
X415913Y259268D02*
X414087D01*
X412297Y258911D01*
X410610Y258213D01*
X409092Y257199D01*
X407801Y255908D01*
X406787Y254390D01*
X406088Y252703D01*
X405732Y250913D01*
Y249087D01*
X406088Y247297D01*
X406787Y245610D01*
X407801Y244092D01*
X409092Y242801D01*
X410610Y241787D01*
X412297Y241089D01*
X414087Y240732D01*
X415913D01*
X417703Y241089D01*
X419390Y241787D01*
X420908Y242801D01*
X422199Y244092D01*
X423213Y245610D01*
X423912Y247297D01*
X424268Y249087D01*
Y250913D01*
X423912Y252703D01*
X423213Y254390D01*
X422199Y255908D01*
X420908Y257199D01*
X419390Y258213D01*
X417703Y258911D01*
X415913Y259268D01*
D02*
G37*
G36*
X433180Y239839D02*
X431742D01*
X430332Y239558D01*
X429003Y239008D01*
X427808Y238209D01*
X426791Y237192D01*
X425992Y235997D01*
X425442Y234668D01*
X425161Y233258D01*
Y231821D01*
X425442Y230410D01*
X425992Y229082D01*
X426791Y227886D01*
X427808Y226870D01*
X429003Y226071D01*
X430332Y225521D01*
X431742Y225240D01*
X433180D01*
X434590Y225521D01*
X435918Y226071D01*
X437114Y226870D01*
X438130Y227886D01*
X438929Y229082D01*
X439479Y230410D01*
X439760Y231821D01*
Y233258D01*
X439479Y234668D01*
X438929Y235997D01*
X438130Y237192D01*
X437114Y238209D01*
X435918Y239008D01*
X434590Y239558D01*
X433180Y239839D01*
D02*
G37*
G36*
X415719D02*
X414281D01*
X412871Y239558D01*
X411543Y239008D01*
X410347Y238209D01*
X409330Y237192D01*
X408532Y235997D01*
X407981Y234668D01*
X407701Y233258D01*
Y231821D01*
X407981Y230410D01*
X408532Y229082D01*
X409330Y227886D01*
X410347Y226870D01*
X411543Y226071D01*
X412871Y225521D01*
X414281Y225240D01*
X415719D01*
X417129Y225521D01*
X418458Y226071D01*
X419653Y226870D01*
X420670Y227886D01*
X421468Y229082D01*
X422019Y230410D01*
X422299Y231821D01*
Y233258D01*
X422019Y234668D01*
X421468Y235997D01*
X420670Y237192D01*
X419653Y238209D01*
X418458Y239008D01*
X417129Y239558D01*
X415719Y239839D01*
D02*
G37*
G36*
X398258D02*
X396820D01*
X395410Y239558D01*
X394082Y239008D01*
X392886Y238209D01*
X391870Y237192D01*
X391071Y235997D01*
X390521Y234668D01*
X390240Y233258D01*
Y231821D01*
X390521Y230410D01*
X391071Y229082D01*
X391870Y227886D01*
X392886Y226870D01*
X394082Y226071D01*
X395410Y225521D01*
X396820Y225240D01*
X398258D01*
X399669Y225521D01*
X400997Y226071D01*
X402192Y226870D01*
X403209Y227886D01*
X404008Y229082D01*
X404558Y230410D01*
X404839Y231821D01*
Y233258D01*
X404558Y234668D01*
X404008Y235997D01*
X403209Y237192D01*
X402192Y238209D01*
X400997Y239008D01*
X399669Y239558D01*
X398258Y239839D01*
D02*
G37*
G36*
X433158Y210937D02*
X431858D01*
X430602Y210601D01*
X429476Y209951D01*
X428557Y209031D01*
X427907Y207906D01*
X427571Y206650D01*
Y205350D01*
X427907Y204094D01*
X428557Y202969D01*
X429476Y202049D01*
X430602Y201399D01*
X431127Y201259D01*
Y200741D01*
X430602Y200601D01*
X429476Y199951D01*
X428557Y199031D01*
X427907Y197906D01*
X427571Y196650D01*
Y196500D01*
X432508D01*
X437445D01*
Y196650D01*
X437108Y197906D01*
X436458Y199031D01*
X435539Y199951D01*
X434413Y200601D01*
X433889Y200741D01*
Y201259D01*
X434413Y201399D01*
X435539Y202049D01*
X436458Y202969D01*
X437108Y204094D01*
X437445Y205350D01*
Y206650D01*
X437108Y207906D01*
X436458Y209031D01*
X435539Y209951D01*
X434413Y210601D01*
X433158Y210937D01*
D02*
G37*
G36*
X378470Y200671D02*
X373530D01*
Y195928D01*
X378470D01*
Y197178D01*
X380947D01*
X381093Y196826D01*
X381726Y196193D01*
X382552Y195850D01*
X383448D01*
X384275Y196193D01*
X384908Y196826D01*
X385250Y197652D01*
Y198548D01*
X384908Y199374D01*
X384275Y200008D01*
X383448Y200350D01*
X382552D01*
X381726Y200008D01*
X381139Y199421D01*
X378470D01*
Y200671D01*
D02*
G37*
G36*
X359008Y208811D02*
X356992D01*
X355000Y208496D01*
X353082Y207872D01*
X351286Y206957D01*
X349654Y205772D01*
X348228Y204346D01*
X347043Y202714D01*
X346128Y200918D01*
X345504Y199000D01*
X345189Y197008D01*
Y194992D01*
X345504Y193000D01*
X346128Y191082D01*
X347043Y189286D01*
X348228Y187654D01*
X349654Y186228D01*
X351286Y185043D01*
X353082Y184128D01*
X355000Y183504D01*
X356992Y183189D01*
X359008D01*
X361000Y183504D01*
X362918Y184128D01*
X364714Y185043D01*
X366346Y186228D01*
X367772Y187654D01*
X368957Y189286D01*
X369872Y191082D01*
X370496Y193000D01*
X370811Y194992D01*
Y197008D01*
X370496Y199000D01*
X369872Y200918D01*
X368957Y202714D01*
X367772Y204346D01*
X366346Y205772D01*
X364714Y206957D01*
X362918Y207872D01*
X361000Y208496D01*
X359008Y208811D01*
D02*
G37*
G36*
X378470Y194372D02*
X373530D01*
Y189628D01*
X374879D01*
Y186488D01*
X374878Y186488D01*
X374880Y186482D01*
X374563Y185717D01*
Y184822D01*
X374905Y183995D01*
X375538Y183362D01*
X376365Y183019D01*
X377260D01*
X378087Y183362D01*
X378720Y183995D01*
X379063Y184822D01*
Y185717D01*
X378720Y186544D01*
X378087Y187177D01*
X377260Y187520D01*
X377121D01*
Y189628D01*
X378470D01*
Y194372D01*
D02*
G37*
G36*
X336823Y176875D02*
X335928D01*
X335101Y176533D01*
X334468Y175900D01*
X334125Y175073D01*
Y174178D01*
X334468Y173351D01*
X335101Y172718D01*
X335928Y172375D01*
X336823D01*
X337650Y172718D01*
X338283Y173351D01*
X338625Y174178D01*
Y175073D01*
X338283Y175900D01*
X337650Y176533D01*
X336823Y176875D01*
D02*
G37*
G36*
X263448Y175750D02*
X262552D01*
X261725Y175408D01*
X261092Y174775D01*
X260750Y173948D01*
Y173052D01*
X261092Y172225D01*
X261725Y171592D01*
X262552Y171250D01*
X263448D01*
X264275Y171592D01*
X264908Y172225D01*
X265250Y173052D01*
Y173948D01*
X264908Y174775D01*
X264275Y175408D01*
X263448Y175750D01*
D02*
G37*
G36*
X322648Y176950D02*
X321752D01*
X320925Y176608D01*
X320292Y175975D01*
X319950Y175148D01*
Y174252D01*
X320013Y174100D01*
X319457Y173543D01*
X319213Y173179D01*
X319128Y172750D01*
X319128Y172750D01*
Y172070D01*
X317878D01*
Y167130D01*
X322621D01*
Y172070D01*
X322621Y172070D01*
X322779Y172505D01*
X323475Y172792D01*
X324108Y173425D01*
X324450Y174252D01*
Y175148D01*
X324108Y175975D01*
X323475Y176608D01*
X322648Y176950D01*
D02*
G37*
G36*
X308048Y175650D02*
X307152D01*
X306326Y175308D01*
X305693Y174674D01*
X305350Y173848D01*
Y172952D01*
X305693Y172125D01*
X306326Y171493D01*
X307152Y171150D01*
X308048D01*
X308875Y171493D01*
X309461Y172079D01*
X309885D01*
X311579Y170386D01*
Y167130D01*
X316322D01*
Y172070D01*
X313066D01*
X311143Y173994D01*
X310779Y174237D01*
X310350Y174322D01*
X310350Y174322D01*
X309653D01*
X309507Y174674D01*
X308875Y175308D01*
X308048Y175650D01*
D02*
G37*
G36*
X258179Y169760D02*
X257961D01*
Y162961D01*
X264760D01*
Y163180D01*
X264479Y164590D01*
X263929Y165918D01*
X263130Y167114D01*
X262114Y168130D01*
X260918Y168929D01*
X259590Y169479D01*
X258179Y169760D01*
D02*
G37*
G36*
X256961D02*
X256742D01*
X255331Y169479D01*
X254003Y168929D01*
X252808Y168130D01*
X251791Y167114D01*
X250992Y165918D01*
X250442Y164590D01*
X250161Y163180D01*
Y162961D01*
X256961D01*
Y169760D01*
D02*
G37*
G36*
X240719D02*
X240500D01*
Y162961D01*
X247299D01*
Y163180D01*
X247019Y164590D01*
X246468Y165918D01*
X245670Y167114D01*
X244653Y168130D01*
X243458Y168929D01*
X242129Y169479D01*
X240719Y169760D01*
D02*
G37*
G36*
X239500D02*
X239281D01*
X237871Y169479D01*
X236543Y168929D01*
X235347Y168130D01*
X234330Y167114D01*
X233531Y165918D01*
X232981Y164590D01*
X232701Y163180D01*
Y162961D01*
X239500D01*
Y169760D01*
D02*
G37*
G36*
X223258D02*
X223039D01*
Y162961D01*
X229839D01*
Y163180D01*
X229558Y164590D01*
X229008Y165918D01*
X228209Y167114D01*
X227192Y168130D01*
X225997Y168929D01*
X224669Y169479D01*
X223258Y169760D01*
D02*
G37*
G36*
X330048Y166450D02*
X329152D01*
X328326Y166107D01*
X327693Y165474D01*
X327350Y164648D01*
Y163752D01*
X327693Y162926D01*
X328326Y162293D01*
X329152Y161950D01*
X330048D01*
X330874Y162293D01*
X331507Y162926D01*
X331850Y163752D01*
Y164648D01*
X331507Y165474D01*
X330874Y166107D01*
X330048Y166450D01*
D02*
G37*
G36*
X305862Y158362D02*
X303000D01*
Y155500D01*
X305862D01*
Y158362D01*
D02*
G37*
G36*
X302000D02*
X299138D01*
Y155500D01*
X302000D01*
Y158362D01*
D02*
G37*
G36*
X410862Y158047D02*
X408000D01*
Y155185D01*
X410862D01*
Y158047D01*
D02*
G37*
G36*
X358362D02*
X355500D01*
Y155185D01*
X358362D01*
Y158047D01*
D02*
G37*
G36*
X407000D02*
X404138D01*
Y155185D01*
X407000D01*
Y158047D01*
D02*
G37*
G36*
X354500D02*
X351638D01*
Y155185D01*
X354500D01*
Y158047D01*
D02*
G37*
G36*
X264760Y161961D02*
X257961D01*
Y155161D01*
X258179D01*
X259590Y155442D01*
X260918Y155992D01*
X262114Y156791D01*
X263130Y157808D01*
X263929Y159003D01*
X264479Y160331D01*
X264760Y161742D01*
Y161961D01*
D02*
G37*
G36*
X256961D02*
X250161D01*
Y161742D01*
X250442Y160331D01*
X250992Y159003D01*
X251791Y157808D01*
X252808Y156791D01*
X254003Y155992D01*
X255331Y155442D01*
X256742Y155161D01*
X256961D01*
Y161961D01*
D02*
G37*
G36*
X247299D02*
X240500D01*
Y155161D01*
X240719D01*
X242129Y155442D01*
X243458Y155992D01*
X244653Y156791D01*
X245670Y157808D01*
X246468Y159003D01*
X247019Y160331D01*
X247299Y161742D01*
Y161961D01*
D02*
G37*
G36*
X239500D02*
X232701D01*
Y161742D01*
X232981Y160331D01*
X233531Y159003D01*
X234330Y157808D01*
X235347Y156791D01*
X236543Y155992D01*
X237871Y155442D01*
X239281Y155161D01*
X239500D01*
Y161961D01*
D02*
G37*
G36*
X229839D02*
X223039D01*
Y155161D01*
X223258D01*
X224669Y155442D01*
X225997Y155992D01*
X227192Y156791D01*
X228209Y157808D01*
X229008Y159003D01*
X229558Y160331D01*
X229839Y161742D01*
Y161961D01*
D02*
G37*
G36*
X222039D02*
X215240D01*
Y161742D01*
X215521Y160331D01*
X216071Y159003D01*
X216870Y157808D01*
X217886Y156791D01*
X219082Y155992D01*
X220410Y155442D01*
X221820Y155161D01*
X222039D01*
Y161961D01*
D02*
G37*
G36*
X188180Y169760D02*
X186742D01*
X185331Y169479D01*
X184003Y168929D01*
X182808Y168130D01*
X181791Y167114D01*
X180992Y165918D01*
X180442Y164590D01*
X180161Y163180D01*
Y161742D01*
X180442Y160331D01*
X180992Y159003D01*
X181791Y157808D01*
X182808Y156791D01*
X184003Y155992D01*
X185331Y155442D01*
X186742Y155161D01*
X188180D01*
X189590Y155442D01*
X190918Y155992D01*
X192114Y156791D01*
X193130Y157808D01*
X193929Y159003D01*
X194479Y160331D01*
X194760Y161742D01*
Y163180D01*
X194479Y164590D01*
X193929Y165918D01*
X193130Y167114D01*
X192114Y168130D01*
X190918Y168929D01*
X189590Y169479D01*
X188180Y169760D01*
D02*
G37*
G36*
X170719D02*
X169281D01*
X167871Y169479D01*
X166542Y168929D01*
X165347Y168130D01*
X164330Y167114D01*
X163531Y165918D01*
X162981Y164590D01*
X162701Y163180D01*
Y161742D01*
X162981Y160331D01*
X163531Y159003D01*
X164330Y157808D01*
X165347Y156791D01*
X166542Y155992D01*
X167871Y155442D01*
X169281Y155161D01*
X170719D01*
X172129Y155442D01*
X173458Y155992D01*
X174653Y156791D01*
X175670Y157808D01*
X176469Y159003D01*
X177019Y160331D01*
X177299Y161742D01*
Y163180D01*
X177019Y164590D01*
X176469Y165918D01*
X175670Y167114D01*
X174653Y168130D01*
X173458Y168929D01*
X172129Y169479D01*
X170719Y169760D01*
D02*
G37*
G36*
X153258D02*
X151821D01*
X150410Y169479D01*
X149082Y168929D01*
X147886Y168130D01*
X146870Y167114D01*
X146071Y165918D01*
X145521Y164590D01*
X145240Y163180D01*
Y161742D01*
X145521Y160331D01*
X146071Y159003D01*
X146870Y157808D01*
X147886Y156791D01*
X149082Y155992D01*
X150410Y155442D01*
X151821Y155161D01*
X153258D01*
X154668Y155442D01*
X155997Y155992D01*
X157192Y156791D01*
X158209Y157808D01*
X159008Y159003D01*
X159558Y160331D01*
X159839Y161742D01*
Y163180D01*
X159558Y164590D01*
X159008Y165918D01*
X158209Y167114D01*
X157192Y168130D01*
X155997Y168929D01*
X154668Y169479D01*
X153258Y169760D01*
D02*
G37*
G36*
X305862Y154500D02*
X303000D01*
Y151638D01*
X305862D01*
Y154500D01*
D02*
G37*
G36*
X302000D02*
X299138D01*
Y151638D01*
X302000D01*
Y154500D01*
D02*
G37*
G36*
X410862Y154185D02*
X408000D01*
Y151323D01*
X410862D01*
Y154185D01*
D02*
G37*
G36*
X407000D02*
X404138D01*
Y151323D01*
X407000D01*
Y154185D01*
D02*
G37*
G36*
X358362D02*
X355500D01*
Y151323D01*
X358362D01*
Y154185D01*
D02*
G37*
G36*
X354500D02*
X351638D01*
Y151323D01*
X354500D01*
Y154185D01*
D02*
G37*
G36*
X258179Y152299D02*
X257961D01*
Y145500D01*
X264760D01*
Y145719D01*
X264479Y147129D01*
X263929Y148458D01*
X263130Y149653D01*
X262114Y150670D01*
X260918Y151469D01*
X259590Y152019D01*
X258179Y152299D01*
D02*
G37*
G36*
X256961D02*
X256742D01*
X255331Y152019D01*
X254003Y151469D01*
X252808Y150670D01*
X251791Y149653D01*
X250992Y148458D01*
X250442Y147129D01*
X250161Y145719D01*
Y145500D01*
X256961D01*
Y152299D01*
D02*
G37*
G36*
X223258D02*
X223039D01*
Y145500D01*
X229839D01*
Y145719D01*
X229558Y147129D01*
X229008Y148458D01*
X228209Y149653D01*
X227192Y150670D01*
X225997Y151469D01*
X224669Y152019D01*
X223258Y152299D01*
D02*
G37*
G36*
X222039D02*
X221820D01*
X220410Y152019D01*
X219082Y151469D01*
X217886Y150670D01*
X216870Y149653D01*
X216071Y148458D01*
X215521Y147129D01*
X215240Y145719D01*
Y145500D01*
X222039D01*
Y152299D01*
D02*
G37*
G36*
X264760Y144500D02*
X257961D01*
Y137701D01*
X258179D01*
X259590Y137981D01*
X260918Y138531D01*
X262114Y139330D01*
X263130Y140347D01*
X263929Y141542D01*
X264479Y142871D01*
X264760Y144281D01*
Y144500D01*
D02*
G37*
G36*
X256961D02*
X250161D01*
Y144281D01*
X250442Y142871D01*
X250992Y141542D01*
X251791Y140347D01*
X252808Y139330D01*
X254003Y138531D01*
X255331Y137981D01*
X256742Y137701D01*
X256961D01*
Y144500D01*
D02*
G37*
G36*
X229839D02*
X223039D01*
Y137701D01*
X223258D01*
X224669Y137981D01*
X225997Y138531D01*
X227192Y139330D01*
X228209Y140347D01*
X229008Y141542D01*
X229558Y142871D01*
X229839Y144281D01*
Y144500D01*
D02*
G37*
G36*
X222039D02*
X215240D01*
Y144281D01*
X215521Y142871D01*
X216071Y141542D01*
X216870Y140347D01*
X217886Y139330D01*
X219082Y138531D01*
X220410Y137981D01*
X221820Y137701D01*
X222039D01*
Y144500D01*
D02*
G37*
G36*
X188180Y152299D02*
X186742D01*
X185331Y152019D01*
X184003Y151469D01*
X182808Y150670D01*
X181791Y149653D01*
X180992Y148458D01*
X180442Y147129D01*
X180161Y145719D01*
Y144281D01*
X180442Y142871D01*
X180992Y141542D01*
X181791Y140347D01*
X182808Y139330D01*
X184003Y138531D01*
X185331Y137981D01*
X186742Y137701D01*
X188180D01*
X189590Y137981D01*
X190918Y138531D01*
X192114Y139330D01*
X193130Y140347D01*
X193929Y141542D01*
X194479Y142871D01*
X194760Y144281D01*
Y145719D01*
X194479Y147129D01*
X193929Y148458D01*
X193130Y149653D01*
X192114Y150670D01*
X190918Y151469D01*
X189590Y152019D01*
X188180Y152299D01*
D02*
G37*
G36*
X153258D02*
X151821D01*
X150410Y152019D01*
X149082Y151469D01*
X147886Y150670D01*
X146870Y149653D01*
X146071Y148458D01*
X145521Y147129D01*
X145240Y145719D01*
Y144281D01*
X145521Y142871D01*
X146071Y141542D01*
X146870Y140347D01*
X147886Y139330D01*
X149082Y138531D01*
X150410Y137981D01*
X151821Y137701D01*
X153258D01*
X154668Y137981D01*
X155997Y138531D01*
X157192Y139330D01*
X158209Y140347D01*
X159008Y141542D01*
X159558Y142871D01*
X159839Y144281D01*
Y145719D01*
X159558Y147129D01*
X159008Y148458D01*
X158209Y149653D01*
X157192Y150670D01*
X155997Y151469D01*
X154668Y152019D01*
X153258Y152299D01*
D02*
G37*
G36*
X240913Y154268D02*
X239087D01*
X237297Y153912D01*
X235610Y153213D01*
X234092Y152199D01*
X232801Y150908D01*
X231787Y149390D01*
X231088Y147703D01*
X230732Y145913D01*
Y144087D01*
X231088Y142297D01*
X231787Y140610D01*
X232801Y139092D01*
X234092Y137801D01*
X235610Y136787D01*
X237297Y136088D01*
X239087Y135732D01*
X240913D01*
X242703Y136088D01*
X244390Y136787D01*
X245908Y137801D01*
X247199Y139092D01*
X248213Y140610D01*
X248911Y142297D01*
X249268Y144087D01*
Y145913D01*
X248911Y147703D01*
X248213Y149390D01*
X247199Y150908D01*
X245908Y152199D01*
X244390Y153213D01*
X242703Y153912D01*
X240913Y154268D01*
D02*
G37*
G36*
X170913D02*
X169087D01*
X167297Y153912D01*
X165610Y153213D01*
X164092Y152199D01*
X162801Y150908D01*
X161787Y149390D01*
X161088Y147703D01*
X160732Y145913D01*
Y144087D01*
X161088Y142297D01*
X161787Y140610D01*
X162801Y139092D01*
X164092Y137801D01*
X165610Y136787D01*
X167297Y136088D01*
X169087Y135732D01*
X170913D01*
X172703Y136088D01*
X174390Y136787D01*
X175908Y137801D01*
X177199Y139092D01*
X178213Y140610D01*
X178912Y142297D01*
X179268Y144087D01*
Y145913D01*
X178912Y147703D01*
X178213Y149390D01*
X177199Y150908D01*
X175908Y152199D01*
X174390Y153213D01*
X172703Y153912D01*
X170913Y154268D01*
D02*
G37*
G36*
X302943Y138677D02*
X302057D01*
X301202Y138448D01*
X300436Y138005D01*
X299810Y137379D01*
X299367Y136613D01*
X299138Y135758D01*
Y134872D01*
X299367Y134017D01*
X299810Y133250D01*
X300436Y132624D01*
X301202Y132182D01*
X302057Y131953D01*
X302943D01*
X303798Y132182D01*
X304564Y132624D01*
X305190Y133250D01*
X305633Y134017D01*
X305862Y134872D01*
Y135758D01*
X305633Y136613D01*
X305190Y137379D01*
X304564Y138005D01*
X303798Y138448D01*
X302943Y138677D01*
D02*
G37*
G36*
X407943Y138362D02*
X407057D01*
X406202Y138133D01*
X405436Y137690D01*
X404810Y137064D01*
X404367Y136298D01*
X404138Y135443D01*
Y134557D01*
X404367Y133702D01*
X404810Y132936D01*
X405436Y132310D01*
X406202Y131867D01*
X407057Y131638D01*
X407943D01*
X408798Y131867D01*
X409564Y132310D01*
X410190Y132936D01*
X410633Y133702D01*
X410862Y134557D01*
Y135443D01*
X410633Y136298D01*
X410190Y137064D01*
X409564Y137690D01*
X408798Y138133D01*
X407943Y138362D01*
D02*
G37*
G36*
X355443D02*
X354557D01*
X353702Y138133D01*
X352936Y137690D01*
X352310Y137064D01*
X351867Y136298D01*
X351638Y135443D01*
Y134557D01*
X351867Y133702D01*
X352310Y132936D01*
X352936Y132310D01*
X353702Y131867D01*
X354557Y131638D01*
X355443D01*
X356298Y131867D01*
X357064Y132310D01*
X357690Y132936D01*
X358133Y133702D01*
X358362Y134557D01*
Y135443D01*
X358133Y136298D01*
X357690Y137064D01*
X357064Y137690D01*
X356298Y138133D01*
X355443Y138362D01*
D02*
G37*
G36*
X258179Y134839D02*
X257961D01*
Y128039D01*
X264760D01*
Y128258D01*
X264479Y129668D01*
X263929Y130997D01*
X263130Y132192D01*
X262114Y133209D01*
X260918Y134008D01*
X259590Y134558D01*
X258179Y134839D01*
D02*
G37*
G36*
X256961D02*
X256742D01*
X255331Y134558D01*
X254003Y134008D01*
X252808Y133209D01*
X251791Y132192D01*
X250992Y130997D01*
X250442Y129668D01*
X250161Y128258D01*
Y128039D01*
X256961D01*
Y134839D01*
D02*
G37*
G36*
X240719D02*
X240500D01*
Y128039D01*
X247299D01*
Y128258D01*
X247019Y129668D01*
X246468Y130997D01*
X245670Y132192D01*
X244653Y133209D01*
X243458Y134008D01*
X242129Y134558D01*
X240719Y134839D01*
D02*
G37*
G36*
X239500D02*
X239281D01*
X237871Y134558D01*
X236543Y134008D01*
X235347Y133209D01*
X234330Y132192D01*
X233531Y130997D01*
X232981Y129668D01*
X232701Y128258D01*
Y128039D01*
X239500D01*
Y134839D01*
D02*
G37*
G36*
X223258D02*
X223039D01*
Y128039D01*
X229839D01*
Y128258D01*
X229558Y129668D01*
X229008Y130997D01*
X228209Y132192D01*
X227192Y133209D01*
X225997Y134008D01*
X224669Y134558D01*
X223258Y134839D01*
D02*
G37*
G36*
X222039D02*
X221820D01*
X220410Y134558D01*
X219082Y134008D01*
X217886Y133209D01*
X216870Y132192D01*
X216071Y130997D01*
X215521Y129668D01*
X215240Y128258D01*
Y128039D01*
X222039D01*
Y134839D01*
D02*
G37*
G36*
X264760Y127039D02*
X257961D01*
Y120240D01*
X258179D01*
X259590Y120521D01*
X260918Y121071D01*
X262114Y121870D01*
X263130Y122886D01*
X263929Y124082D01*
X264479Y125410D01*
X264760Y126821D01*
Y127039D01*
D02*
G37*
G36*
X256961D02*
X250161D01*
Y126821D01*
X250442Y125410D01*
X250992Y124082D01*
X251791Y122886D01*
X252808Y121870D01*
X254003Y121071D01*
X255331Y120521D01*
X256742Y120240D01*
X256961D01*
Y127039D01*
D02*
G37*
G36*
X247299D02*
X240500D01*
Y120240D01*
X240719D01*
X242129Y120521D01*
X243458Y121071D01*
X244653Y121870D01*
X245670Y122886D01*
X246468Y124082D01*
X247019Y125410D01*
X247299Y126821D01*
Y127039D01*
D02*
G37*
G36*
X239500D02*
X232701D01*
Y126821D01*
X232981Y125410D01*
X233531Y124082D01*
X234330Y122886D01*
X235347Y121870D01*
X236543Y121071D01*
X237871Y120521D01*
X239281Y120240D01*
X239500D01*
Y127039D01*
D02*
G37*
G36*
X229839D02*
X223039D01*
Y120240D01*
X223258D01*
X224669Y120521D01*
X225997Y121071D01*
X227192Y121870D01*
X228209Y122886D01*
X229008Y124082D01*
X229558Y125410D01*
X229839Y126821D01*
Y127039D01*
D02*
G37*
G36*
X222039D02*
X215240D01*
Y126821D01*
X215521Y125410D01*
X216071Y124082D01*
X216870Y122886D01*
X217886Y121870D01*
X219082Y121071D01*
X220410Y120521D01*
X221820Y120240D01*
X222039D01*
Y127039D01*
D02*
G37*
G36*
X188180Y134839D02*
X186742D01*
X185331Y134558D01*
X184003Y134008D01*
X182808Y133209D01*
X181791Y132192D01*
X180992Y130997D01*
X180442Y129668D01*
X180161Y128258D01*
Y126821D01*
X180442Y125410D01*
X180992Y124082D01*
X181791Y122886D01*
X182808Y121870D01*
X184003Y121071D01*
X185331Y120521D01*
X186742Y120240D01*
X188180D01*
X189590Y120521D01*
X190918Y121071D01*
X192114Y121870D01*
X193130Y122886D01*
X193929Y124082D01*
X194479Y125410D01*
X194760Y126821D01*
Y128258D01*
X194479Y129668D01*
X193929Y130997D01*
X193130Y132192D01*
X192114Y133209D01*
X190918Y134008D01*
X189590Y134558D01*
X188180Y134839D01*
D02*
G37*
G36*
X170719D02*
X169281D01*
X167871Y134558D01*
X166542Y134008D01*
X165347Y133209D01*
X164330Y132192D01*
X163531Y130997D01*
X162981Y129668D01*
X162701Y128258D01*
Y126821D01*
X162981Y125410D01*
X163531Y124082D01*
X164330Y122886D01*
X165347Y121870D01*
X166542Y121071D01*
X167871Y120521D01*
X169281Y120240D01*
X170719D01*
X172129Y120521D01*
X173458Y121071D01*
X174653Y121870D01*
X175670Y122886D01*
X176469Y124082D01*
X177019Y125410D01*
X177299Y126821D01*
Y128258D01*
X177019Y129668D01*
X176469Y130997D01*
X175670Y132192D01*
X174653Y133209D01*
X173458Y134008D01*
X172129Y134558D01*
X170719Y134839D01*
D02*
G37*
G36*
X153258D02*
X151821D01*
X150410Y134558D01*
X149082Y134008D01*
X147886Y133209D01*
X146870Y132192D01*
X146071Y130997D01*
X145521Y129668D01*
X145240Y128258D01*
Y126821D01*
X145521Y125410D01*
X146071Y124082D01*
X146870Y122886D01*
X147886Y121870D01*
X149082Y121071D01*
X150410Y120521D01*
X151821Y120240D01*
X153258D01*
X154668Y120521D01*
X155997Y121071D01*
X157192Y121870D01*
X158209Y122886D01*
X159008Y124082D01*
X159558Y125410D01*
X159839Y126821D01*
Y128258D01*
X159558Y129668D01*
X159008Y130997D01*
X158209Y132192D01*
X157192Y133209D01*
X155997Y134008D01*
X154668Y134558D01*
X153258Y134839D01*
D02*
G37*
G36*
X116908Y142511D02*
X114892D01*
X112900Y142196D01*
X110982Y141572D01*
X109186Y140657D01*
X107554Y139472D01*
X106128Y138046D01*
X104943Y136414D01*
X104028Y134618D01*
X103404Y132700D01*
X103089Y130708D01*
Y128692D01*
X103404Y126700D01*
X104028Y124782D01*
X104943Y122986D01*
X106128Y121354D01*
X107554Y119928D01*
X109186Y118743D01*
X110982Y117828D01*
X112900Y117204D01*
X114892Y116889D01*
X116908D01*
X118900Y117204D01*
X120818Y117828D01*
X122614Y118743D01*
X124246Y119928D01*
X125672Y121354D01*
X126857Y122986D01*
X127772Y124782D01*
X128396Y126700D01*
X128711Y128692D01*
Y130708D01*
X128396Y132700D01*
X127772Y134618D01*
X126857Y136414D01*
X125672Y138046D01*
X124246Y139472D01*
X122614Y140657D01*
X120818Y141572D01*
X118900Y142196D01*
X116908Y142511D01*
D02*
G37*
%LPD*%
D15*
X117536Y220706D02*
X152774D01*
X104000Y311400D02*
X106442Y308958D01*
Y267387D02*
Y303213D01*
Y308958D01*
X124158Y267387D02*
Y303213D01*
X258696Y217100D02*
X268400D01*
X258396Y216800D02*
X258696Y217100D01*
X204000Y392000D02*
X204209D01*
X204382Y392173D01*
Y392641D01*
X204500Y392759D01*
Y406000D01*
X151800Y178300D02*
Y184596D01*
X162058Y197116D02*
X162400Y197458D01*
X161546Y196604D02*
X162058Y197116D01*
X151800Y196604D02*
X161546D01*
X165342Y199782D02*
X168847Y203287D01*
Y212036D01*
X143987Y257475D02*
X146000Y255462D01*
X143987Y257475D02*
Y259187D01*
X146000Y255200D02*
X148800D01*
X146000D02*
Y255462D01*
X144200Y259787D02*
X144200D01*
X146600Y262187D02*
Y264477D01*
X144200Y259787D02*
X146600Y262187D01*
X160013Y243987D02*
X164353D01*
X148800Y255200D02*
X160013Y243987D01*
X132500Y411500D02*
X156000D01*
X306532Y390574D02*
X307106Y390000D01*
X136900Y312058D02*
X143958D01*
X136211D02*
X136900D01*
X138800Y306000D02*
Y306406D01*
X139961Y307900D02*
X153714D01*
X154300Y308486D01*
X138800Y306406D02*
X139375Y306981D01*
Y307314D01*
X139961Y307900D01*
X143958Y312058D02*
X148009Y316109D01*
X144547Y324705D02*
X144638Y324614D01*
X147178D01*
X148009Y323782D01*
Y316109D02*
Y323782D01*
X144547Y324705D02*
X144638Y324795D01*
X147178D01*
X149786Y327403D01*
X148990Y330610D02*
X149786Y329814D01*
Y327403D02*
Y329814D01*
X144547Y330610D02*
X148990D01*
X256770Y234027D02*
X258113Y235370D01*
Y241613D01*
X258400Y241900D01*
X184279Y314862D02*
X186030Y316613D01*
X181949Y314862D02*
X184279D01*
X180471Y334100D02*
X185150Y329421D01*
X189732Y324795D02*
X189823Y324705D01*
X187192Y324795D02*
X189732D01*
X185150Y326838D02*
X187192Y324795D01*
X185150Y326838D02*
Y329421D01*
X186473Y322827D02*
X189732D01*
X182400Y326900D02*
X186473Y322827D01*
X226632Y333050D02*
X233827Y325855D01*
X216373Y331450D02*
X221827Y325997D01*
X202892Y331450D02*
X216373D01*
X201758Y332579D02*
X202229Y333050D01*
X202052Y330610D02*
X202892Y331450D01*
X189776Y332579D02*
X201758D01*
X202229Y333050D02*
X226632D01*
X189776Y330610D02*
X202052D01*
X189913Y324614D02*
X192453D01*
X189823Y324705D02*
X189913Y324614D01*
X198306Y316664D02*
X199000Y317358D01*
X196843Y318827D02*
Y320225D01*
Y318827D02*
X198311Y317358D01*
X199000D01*
X189732Y322827D02*
X189823Y322736D01*
X211000Y402000D02*
Y405142D01*
X216358Y410500D01*
X174075Y327704D02*
X180471Y334100D01*
X178012Y314862D02*
Y318512D01*
X181500Y322000D01*
X194037Y354707D02*
Y356490D01*
X197858Y360311D01*
Y361000D01*
X189823Y352264D02*
X191595D01*
X194037Y354707D01*
X145427Y236500D02*
X146122Y237195D01*
X146818Y240258D02*
X151666D01*
X155100Y236823D01*
Y236800D02*
Y236823D01*
X141958Y236500D02*
X145427D01*
X146122Y237195D02*
Y239562D01*
X146818Y240258D01*
X258372Y216776D02*
X258396Y216800D01*
X258896Y221600D02*
X270700D01*
X258396Y222100D02*
X258896Y221600D01*
X201300Y226900D02*
X206058D01*
X199000Y229200D02*
X201300Y226900D01*
X183414Y226816D02*
X187284D01*
X187700Y213023D02*
X197400Y203323D01*
X186990Y224847D02*
X192900Y218937D01*
Y216500D02*
Y218937D01*
X183414Y224847D02*
X186990D01*
X186401Y220910D02*
X189700Y217612D01*
X187700Y213023D02*
Y216783D01*
X189700Y213852D02*
Y217612D01*
X187284Y226816D02*
X196200Y217900D01*
X186696Y222879D02*
X191300Y218274D01*
X185586Y218897D02*
Y218942D01*
Y218897D02*
X187700Y216783D01*
X191300Y215300D02*
Y218274D01*
X191957Y232913D02*
X192245Y233200D01*
X190860Y232721D02*
X191052Y232913D01*
X183414Y220910D02*
X186401D01*
X183414Y218942D02*
X185586D01*
X184587Y222879D02*
X186696D01*
X192462Y225527D02*
X195494Y222495D01*
X191052Y232913D02*
X191957D01*
X192462Y225527D02*
Y225527D01*
X189700Y213852D02*
X199400Y204152D01*
X189205Y228784D02*
X192462Y225527D01*
X198600Y214200D02*
X206652D01*
X195200D02*
X198600D01*
X197400Y198143D02*
Y203323D01*
X199400Y198143D02*
Y204152D01*
X192900Y216500D02*
X195200Y214200D01*
X195300Y211300D02*
X202000D01*
X206652Y214200D02*
X207252Y214800D01*
X191300Y215300D02*
X195300Y211300D01*
X170000Y416200D02*
X170700Y416900D01*
X170000Y410783D02*
Y416200D01*
X241000Y314200D02*
X243400Y311800D01*
X241000Y314200D02*
Y317358D01*
X230469Y318685D02*
X232326D01*
X232871Y319230D01*
X238439D01*
X240311Y317358D01*
X229000Y317216D02*
X230469Y318685D01*
X240311Y317358D02*
X241000D01*
X226298Y319230D02*
X228311Y317216D01*
X217000Y317358D02*
X218468Y318827D01*
X220468D01*
X220871Y319230D01*
X226298D01*
X228311Y317216D02*
X229000D01*
X206207Y317358D02*
X208079Y319230D01*
X214439D01*
X216311Y317358D02*
X217000D01*
X199000D02*
X206207D01*
X214439Y319230D02*
X216311Y317358D01*
X210507Y284048D02*
Y289152D01*
X201800Y297858D02*
X210507Y289152D01*
X194700Y297858D02*
X201800D01*
X149318Y278682D02*
X164852D01*
X149200Y278800D02*
X149318Y278682D01*
X157113Y268487D02*
X158268Y267332D01*
X157113Y269316D02*
X158975Y271178D01*
X158268Y267332D02*
X160424D01*
X157113Y268487D02*
Y269316D01*
X160334Y271178D02*
X160424Y271269D01*
X158975Y271178D02*
X160334D01*
X137600Y260500D02*
Y261658D01*
X142100Y266158D01*
X150200Y258500D02*
Y264587D01*
X150976Y265363D01*
X146600Y264477D02*
X149364Y267241D01*
X150885D01*
X150976Y267332D01*
X151827Y348327D02*
X153800Y350300D01*
X144595Y348327D02*
X151827D01*
X153742Y254858D02*
Y260132D01*
X164852Y278682D02*
X169111Y282942D01*
X161874Y271359D02*
X164852Y274337D01*
X169111Y282942D02*
X169800D01*
X164852Y274337D02*
Y278682D01*
X160515Y271359D02*
X161874D01*
X160424Y271269D02*
X160515Y271359D01*
X320250Y169600D02*
Y172750D01*
X322200Y174700D01*
X132689Y304942D02*
X138165Y299465D01*
X140580Y297051D01*
Y297051D02*
Y297051D01*
X143103Y294527D02*
X153493D01*
X140580Y297051D02*
X143103Y294527D01*
X154300Y308486D02*
Y311400D01*
X155126Y305642D02*
X161000D01*
X149984Y300500D02*
X155126Y305642D01*
X149000Y300500D02*
X149984D01*
X124158Y303213D02*
Y312000D01*
X132019Y316250D02*
X136211Y312058D01*
X127881Y316250D02*
X132019D01*
X123000Y320442D02*
X123689D01*
X127881Y316250D01*
X132689Y304942D02*
X134158Y306410D01*
Y310005D01*
X136211Y312058D01*
X132000Y304942D02*
X132689D01*
X156378Y291642D02*
X161000D01*
X153493Y294527D02*
X156378Y291642D01*
X174075Y314862D02*
Y327704D01*
X174165Y314953D02*
Y317493D01*
X174075Y314862D02*
X174165Y314953D01*
X161000Y291642D02*
Y298358D01*
X220558Y251472D02*
X222384Y253298D01*
X220558Y246700D02*
Y251472D01*
X216743Y246700D02*
X220558D01*
X214995Y248448D02*
X216743Y246700D01*
X214700Y248448D02*
X214995D01*
X205858Y198731D02*
X208213Y196376D01*
X205858Y198731D02*
Y203300D01*
X204774Y204384D02*
X205858Y203300D01*
X207352Y219705D02*
Y220000D01*
X206058Y221589D02*
X207352Y220295D01*
X206058Y221589D02*
Y226900D01*
X207352Y220000D02*
Y220295D01*
X268800Y194900D02*
X269400Y195500D01*
X259784Y194900D02*
X268800D01*
X267258Y229000D02*
X269254Y227003D01*
X259042Y229000D02*
X267258D01*
X258372Y211724D02*
Y216776D01*
X258348Y211700D02*
X258372Y211724D01*
X229200Y197000D02*
Y207000D01*
X239800Y217600D02*
X242600D01*
X229200Y207000D02*
X239800Y217600D01*
X220739Y396333D02*
Y407597D01*
X223642Y410500D01*
Y417500D01*
X254673Y419047D02*
X269741D01*
X271094Y420400D01*
X271500D01*
X210118Y174882D02*
X222539Y162461D01*
X163527Y185084D02*
X173729Y174882D01*
X163527Y185084D02*
Y188943D01*
X161894Y190575D02*
X163527Y188943D01*
X173729Y174882D02*
X210118D01*
X161533Y190575D02*
X161894D01*
X155100Y236800D02*
X157210Y234690D01*
X160186D01*
Y218942D02*
X160194Y218950D01*
X161985D01*
X161994Y218959D01*
X162959D01*
X171800Y227800D01*
X164910Y234690D02*
X171800Y227800D01*
X160186Y234690D02*
X164910D01*
X207715Y376079D02*
X209194Y374600D01*
X203700Y377350D02*
X204972Y376079D01*
X207715D01*
X209194Y374600D02*
X209600D01*
X205142Y366682D02*
X205362Y366902D01*
X205142Y361000D02*
Y366682D01*
Y353500D02*
Y361000D01*
X293858Y217111D02*
X297100Y213869D01*
Y209700D02*
Y213869D01*
X293858Y217800D02*
Y223866D01*
Y217111D02*
Y217800D01*
X170000Y182500D02*
Y190442D01*
X169342Y191100D02*
X170000Y190442D01*
X198493Y407193D02*
X203600Y412300D01*
X195949Y407193D02*
X198493D01*
X200458Y423142D02*
X203000Y420600D01*
X196500Y423142D02*
X200458D01*
X195642Y424000D02*
X196500Y423142D01*
X189642Y424000D02*
X195642D01*
X189642Y417000D02*
Y424000D01*
X141800Y421000D02*
X147374D01*
X147894Y421520D01*
X142600Y405600D02*
X142700Y405500D01*
X149130D01*
X152894Y401736D01*
Y400063D02*
Y401736D01*
X144000Y376642D02*
X151500D01*
Y381894D01*
X149900Y383494D02*
X151500Y381894D01*
X149900Y383494D02*
Y383900D01*
X170000Y403500D02*
X170689D01*
X175889Y398300D01*
X182100D01*
X185524Y401724D01*
Y405823D01*
X186894Y407193D01*
X162000Y458942D02*
Y464700D01*
X161900Y458842D02*
X162000Y458942D01*
X108600Y446400D02*
Y453470D01*
X109059Y453929D01*
X108075Y454913D02*
X109059Y453929D01*
X108075Y454913D02*
Y483850D01*
X109059Y453929D02*
Y457459D01*
X112200Y460600D01*
X120700D01*
X122445Y453437D02*
Y458855D01*
X120700Y460600D02*
X122445Y458855D01*
X155122Y485228D02*
Y486410D01*
X153744Y453929D02*
Y483850D01*
X155122Y485228D01*
X153744Y453929D02*
X157611Y457796D01*
X160854D02*
X161900Y458842D01*
X157611Y457796D02*
X160854D01*
X293858Y223866D02*
X294015Y224022D01*
X184200Y303500D02*
X184222D01*
X184100Y303400D02*
X184200Y303500D01*
X172137Y303400D02*
X184100D01*
X177350Y200656D02*
X178100Y201406D01*
X177350Y200300D02*
Y200656D01*
X166201Y309336D02*
X172137Y303400D01*
X174116Y307850D02*
X185350D01*
X172550Y306250D02*
X187450D01*
X185350Y307850D02*
X187500Y310000D01*
X170228Y311738D02*
X174116Y307850D01*
X168169Y310631D02*
X172550Y306250D01*
X187450D02*
X187700Y306000D01*
X170138Y314910D02*
X170228Y314819D01*
Y311738D02*
Y314819D01*
X183273Y242950D02*
X185905Y245581D01*
Y245622D01*
X158800Y259100D02*
X161850D01*
X155791Y262109D02*
X158800Y259100D01*
X161850D02*
X162050Y259300D01*
X162337Y252263D02*
Y258813D01*
X162050Y259100D02*
X162337Y258813D01*
X176721Y243221D02*
X179200Y245700D01*
X182134D01*
X174753Y244210D02*
X180148Y249605D01*
X174753Y239414D02*
Y244210D01*
X171800Y264900D02*
X171900Y264800D01*
X179000D01*
X179100Y264700D01*
X171426Y264526D02*
X171800Y264900D01*
X189542Y204311D02*
Y205000D01*
X186900Y202257D02*
X187486Y202842D01*
X184314D02*
X184900Y202257D01*
X183727Y202842D02*
X184314D01*
X184900Y196248D02*
X204198Y176950D01*
X188073Y202842D02*
X189542Y204311D01*
X187486Y202842D02*
X188073D01*
X182258Y204311D02*
X183727Y202842D01*
X184900Y196248D02*
Y202257D01*
X186900Y197077D02*
Y202257D01*
Y197077D02*
X205027Y178950D01*
X182258Y204311D02*
Y205000D01*
X189542D02*
Y205689D01*
X180666Y240587D02*
X187018D01*
X183414Y232721D02*
X190860D01*
X188931Y242500D02*
X188995D01*
X187018Y240587D02*
X188931Y242500D01*
X190770Y230753D02*
X191839Y229684D01*
X183414Y230753D02*
X190770D01*
X272777Y204509D02*
X279150D01*
X279200Y204458D01*
X279889Y211742D02*
X281358Y210273D01*
X279200Y211742D02*
X279889D01*
X284241Y207100D02*
X291779D01*
X281358Y209984D02*
X284241Y207100D01*
X281358Y209984D02*
Y210273D01*
X301142Y211320D02*
X301621Y210840D01*
X301142Y211320D02*
Y217800D01*
X295181Y207781D02*
X297100Y209700D01*
X291779Y207100D02*
X292460Y207781D01*
X295181D01*
X322806Y196091D02*
X323212D01*
X295641Y203360D02*
X295700Y203301D01*
Y199348D02*
Y203301D01*
X291779Y203360D02*
X295641D01*
X298207Y196841D02*
X322056D01*
X322806Y196091D01*
X295700Y199348D02*
X298207Y196841D01*
X322806Y199591D02*
X323212D01*
X297759Y203360D02*
X301621D01*
X297700Y203301D02*
X297759Y203360D01*
X297700Y200177D02*
Y203301D01*
X322056Y198841D02*
X322806Y199591D01*
X299036Y198841D02*
X322056D01*
X297700Y200177D02*
X299036Y198841D01*
X220746Y188500D02*
X220796Y188450D01*
X208942Y188500D02*
X220746D01*
X205158Y185000D02*
X219296D01*
X219346Y184950D02*
X229100D01*
X219296Y185000D02*
X219346Y184950D01*
X220796Y188450D02*
X229100D01*
X279706Y203952D02*
X285500D01*
X279200Y204458D02*
X279706Y203952D01*
X291583Y210644D02*
X291779Y210840D01*
X285500Y210448D02*
X285696Y210644D01*
X291583D01*
X188073Y207157D02*
X189542Y205689D01*
X205027Y178950D02*
X227944D01*
X185143Y211452D02*
X186900Y209695D01*
X183739Y211452D02*
X185143D01*
X186900Y207743D02*
X187486Y207157D01*
X186900Y207743D02*
Y209695D01*
X180690Y214501D02*
Y216154D01*
Y214501D02*
X183739Y211452D01*
X187486Y207157D02*
X188073D01*
X184900Y207743D02*
Y208866D01*
X204198Y176950D02*
X227944D01*
X184314Y209452D02*
X184900Y208866D01*
X182911Y209452D02*
X184314D01*
Y207157D02*
X184900Y207743D01*
X183727Y207157D02*
X184314D01*
X178690Y213673D02*
Y216186D01*
Y213673D02*
X182911Y209452D01*
X182258Y205000D02*
Y205689D01*
X183727Y207157D01*
X196227Y197557D02*
X196814D01*
X197400Y198143D01*
X194758Y195400D02*
X205158Y185000D01*
X194758Y196089D02*
X196227Y197557D01*
X194758Y195400D02*
Y196089D01*
X199400Y198143D02*
X199986Y197557D01*
X202042Y195400D02*
X208942Y188500D01*
X200573Y197557D02*
X202042Y196089D01*
X199986Y197557D02*
X200573D01*
X202042Y195400D02*
Y196089D01*
X223214Y263400D02*
X224550Y262064D01*
Y259756D02*
Y262064D01*
X215494Y263400D02*
X223214D01*
X201442Y241911D02*
Y242600D01*
X198800Y246706D02*
X215494Y263400D01*
X198800Y245343D02*
X199386Y244758D01*
X199973D01*
X198800Y245343D02*
Y246706D01*
X201442Y242600D02*
Y243289D01*
X199973Y244758D02*
X201442Y243289D01*
X199973Y240442D02*
X201442Y241911D01*
X198600Y239857D02*
X199186Y240442D01*
X199973D01*
X197018Y236450D02*
X198600Y238032D01*
Y239857D01*
X190279Y236450D02*
X197018D01*
X188519Y234690D02*
X190279Y236450D01*
X183414Y234690D02*
X188519D01*
X224043Y265400D02*
X226550Y262893D01*
Y259756D02*
Y262893D01*
X214666Y265400D02*
X224043D01*
X196800Y245343D02*
Y247534D01*
X214666Y265400D01*
X196214Y244758D02*
X196800Y245343D01*
X195627Y240442D02*
X196414D01*
X195627Y244758D02*
X196214D01*
X194158Y242600D02*
Y243289D01*
X195627Y244758D01*
X194158Y241911D02*
X195627Y240442D01*
X194158Y241911D02*
Y242600D01*
X196414Y240442D02*
X197000Y239857D01*
Y238694D02*
Y239857D01*
X196356Y238050D02*
X197000Y238694D01*
X189051Y238050D02*
X196356D01*
X187690Y236690D02*
X189051Y238050D01*
X183446Y236690D02*
X187690D01*
X183414Y236658D02*
X183446Y236690D01*
X195811Y415858D02*
X196500D01*
X186894Y407193D02*
Y408768D01*
X190390Y412264D01*
X192217D01*
X195811Y415858D01*
X180148Y259522D02*
X188161Y267535D01*
X180148Y255000D02*
Y259522D01*
X188161Y267535D02*
Y271080D01*
X189827Y272746D01*
X169800Y275658D02*
X178647D01*
X181559Y272746D02*
Y272942D01*
X179894Y274608D02*
X181559Y272942D01*
X179697Y274608D02*
X179894D01*
X178647Y275658D02*
X179697Y274608D01*
X169111Y275658D02*
X169800D01*
X167642Y274190D02*
X169111Y275658D01*
X167642Y272095D02*
Y274190D01*
X166195Y270648D02*
X167642Y272095D01*
X165900Y270648D02*
X166195D01*
X169100Y191342D02*
X169342Y191100D01*
X162058D02*
Y197116D01*
X381150Y412750D02*
X381500Y412400D01*
X375300Y412750D02*
X381150D01*
X245100Y199100D02*
X249300Y194900D01*
X191839Y229684D02*
X194708D01*
X209105Y248648D02*
X209400D01*
X206046Y243405D02*
X208227Y245586D01*
Y247770D02*
X209105Y248648D01*
X208227Y245586D02*
Y247770D01*
X206046Y241023D02*
Y243405D01*
X194708Y229684D02*
X206046Y241023D01*
X304600Y392100D02*
X305006D01*
X183414Y228784D02*
X189205D01*
X383099Y301701D02*
X383100Y301700D01*
X376000Y301701D02*
X383099D01*
X312050Y472200D02*
X318900D01*
X312000Y472150D02*
X312050Y472200D01*
X319600Y357350D02*
X319650Y357300D01*
X326700D01*
X318880Y246650D02*
X319051Y246479D01*
X311300Y246650D02*
X318880D01*
X382801Y198299D02*
X383000Y198100D01*
X376000Y198299D02*
X382801D01*
X312580Y170970D02*
X312679D01*
X310350Y173200D02*
X312580Y170970D01*
X313950Y169600D02*
Y169698D01*
X312679Y170970D02*
X313950Y169698D01*
X307800Y173200D02*
X310350D01*
X307600Y173400D02*
X307800Y173200D01*
X207850Y383650D02*
X210400Y381100D01*
X203700Y383650D02*
X207850D01*
X376000Y308000D02*
Y326594D01*
X375400Y327194D02*
X376000Y326594D01*
X375400Y327194D02*
Y327600D01*
X376000Y186488D02*
Y192000D01*
Y186488D02*
X376813Y185675D01*
Y185269D02*
Y185675D01*
X249300Y194900D02*
X252500D01*
X251052Y212500D02*
X251852Y211700D01*
X246000Y212500D02*
X251052D01*
X245200Y222100D02*
X251900D01*
X311376Y253026D02*
Y264196D01*
X311300Y252950D02*
X311376Y253026D01*
X319000Y374394D02*
X319600Y373794D01*
X319000Y374394D02*
Y374800D01*
X319600Y363650D02*
Y373794D01*
X373100Y425200D02*
X375300Y423000D01*
Y419050D02*
Y423000D01*
X267200Y404653D02*
Y407700D01*
X263000Y400748D02*
X263295D01*
X267200Y404653D01*
X266089Y408811D02*
X267200Y407700D01*
X254673Y408811D02*
X266089D01*
X270428Y400446D02*
Y411428D01*
X267282Y397300D02*
X270428Y400446D01*
X260100Y397300D02*
X267282D01*
X259173Y398227D02*
X260100Y397300D01*
X259173Y398227D02*
Y399870D01*
X270399Y411399D02*
X270428Y411428D01*
X254702Y411399D02*
X270399D01*
X254673Y411370D02*
X254702Y411399D01*
X258000Y400748D02*
X258295D01*
X259173Y399870D01*
X311500Y465350D02*
X312000Y465850D01*
X311500Y456800D02*
Y465350D01*
X245800Y227400D02*
Y232000D01*
X245200Y232600D02*
X245800Y232000D01*
X245143Y232600D02*
X248552D01*
X245143D02*
X245200D01*
X243800Y202100D02*
Y207100D01*
X242600Y202600D02*
X243111Y202089D01*
X247211D01*
X248200Y201100D01*
X251900D01*
X223100Y202900D02*
Y207500D01*
X223200Y207600D01*
X213748Y209405D02*
X214626Y208527D01*
X214921D02*
X215448Y208000D01*
X222600D02*
X223000Y207600D01*
X215448Y208000D02*
X222600D01*
X214626Y208527D02*
X214921D01*
X213748Y209405D02*
Y209700D01*
Y214505D02*
X214626Y213627D01*
X214921D02*
X215348Y213200D01*
X221300D01*
X213748Y214505D02*
Y214800D01*
X214626Y213627D02*
X214921D01*
X222200Y228100D02*
Y232900D01*
X222900D01*
X214248D02*
X222200D01*
X213948Y233200D02*
X214248Y232900D01*
X222900D02*
X223200Y232600D01*
X230500Y226300D02*
Y239014D01*
X227400Y223200D02*
X230500Y226300D01*
X223943Y223200D02*
X227400D01*
X214700Y241800D02*
X227714D01*
X230500Y239014D01*
X209996Y241800D02*
X214700D01*
X223143Y222400D02*
X223943Y223200D01*
X251852Y206448D02*
X251900Y206400D01*
X248552Y232600D02*
X249979Y234027D01*
X250274D01*
X251152Y234905D01*
Y235200D01*
X242600Y232600D02*
X243764D01*
X245400D01*
X138928Y336516D02*
X144595D01*
X135772Y339672D02*
X138928Y336516D01*
X144602Y338492D02*
X157842D01*
X144595Y338484D02*
X144602Y338492D01*
X182200Y348500D02*
X182287Y348413D01*
X138400Y343300D02*
X141157Y340543D01*
X164232Y314910D02*
Y321112D01*
X168169Y354431D02*
X172463Y350137D01*
X132016Y329000D02*
X135626D01*
X164300Y351400D02*
X166570Y349130D01*
X140191Y328642D02*
X144595D01*
X151050Y322215D02*
X163129D01*
X138535Y329950D02*
X138883D01*
X137922Y326673D02*
X144595D01*
X160526Y346432D02*
X160600Y346506D01*
X189689Y348413D02*
X189776Y348327D01*
X182287Y348413D02*
X189689D01*
X184031Y346358D02*
X189776D01*
X163129Y322215D02*
X164232Y321112D01*
X170138Y355687D02*
X174988Y350837D01*
X166201Y309336D02*
Y314910D01*
X169885Y345490D02*
Y349515D01*
X138883Y329950D02*
X140191Y328642D01*
X166570Y342102D02*
Y349130D01*
X163900Y335900D02*
X164100Y335700D01*
X182098Y344425D02*
X184031Y346358D01*
X168169Y310631D02*
Y314910D01*
X144668Y346432D02*
X160526D01*
X166570Y342102D02*
X166777Y341895D01*
X174988Y350837D02*
X175188D01*
X141157Y340543D02*
X144504D01*
X144595Y340453D01*
X172106Y360090D02*
X172197Y360000D01*
Y356186D02*
Y360000D01*
Y356186D02*
X174796Y353587D01*
X178713D01*
X179000Y353300D01*
X170138Y355687D02*
Y360090D01*
X172463Y347787D02*
X172750Y347500D01*
X172463Y347787D02*
Y350137D01*
X168169Y354431D02*
Y360090D01*
X166201Y353199D02*
X169885Y349515D01*
X166201Y353199D02*
Y360090D01*
X164232D02*
X164300Y360023D01*
Y351400D02*
Y360023D01*
X163900Y335900D02*
Y348550D01*
X162264Y350186D02*
X163900Y348550D01*
X162264Y350186D02*
Y360090D01*
X130680Y327828D02*
X130844D01*
X144595Y346358D02*
X144668Y346432D01*
X157842Y338492D02*
X157850Y338500D01*
X135644Y328951D02*
X137922Y326673D01*
X130844Y327828D02*
X132016Y329000D01*
X136800Y332700D02*
X141686D01*
X134831Y330731D02*
X136800Y332700D01*
X141686D02*
X141717Y332669D01*
X144504D01*
X144595Y332579D01*
X112500Y326000D02*
X117231Y330731D01*
X132174Y338226D02*
X135762Y334638D01*
X115539Y338226D02*
X132174D01*
X135762Y334638D02*
X144504D01*
X117231Y330731D02*
X134831D01*
X162354Y310920D02*
X165500Y307774D01*
Y287500D02*
Y307774D01*
X162354Y310920D02*
Y314819D01*
X162264Y314910D02*
X162354Y314819D01*
X213300Y198000D02*
Y203142D01*
X213142Y203300D02*
X213300Y203142D01*
X213142Y203300D02*
Y203989D01*
X211000Y312200D02*
Y316752D01*
X178100Y201406D02*
Y212000D01*
X161533Y190575D02*
X162058Y191100D01*
X207452Y233200D02*
Y233495D01*
X209913Y235956D01*
Y237348D01*
X210200Y237635D01*
X174400Y206800D02*
Y209697D01*
X174753Y210050D01*
Y216186D01*
X171597Y210806D02*
X172784Y211993D01*
X168847Y212036D02*
X168855Y212044D01*
X171597Y210400D02*
Y210806D01*
X168847Y216186D02*
X168855Y216178D01*
Y212044D02*
Y216178D01*
X231444Y424261D02*
X231539Y424165D01*
X224133Y424261D02*
X231444D01*
X216358Y418189D02*
X219776Y421606D01*
X224038Y424356D02*
X224133Y424261D01*
X219776Y421606D02*
X231539D01*
X254511Y424328D02*
Y427450D01*
X143513Y442393D02*
X149393D01*
X149500Y442500D01*
X143406Y442286D02*
X143513Y442393D01*
X135677Y448086D02*
X137799Y445964D01*
X135677Y448086D02*
Y453197D01*
X135437Y453437D02*
X135677Y453197D01*
X257800Y432500D02*
X258400D01*
X260000Y430900D01*
Y423300D02*
Y430900D01*
X258692Y421992D02*
X260000Y423300D01*
X255059Y421992D02*
X258692D01*
X254673Y421606D02*
X255059Y421992D01*
X254511Y424328D02*
X254673Y424165D01*
X180473Y242950D02*
X183273D01*
X254673Y413929D02*
X259961D01*
X261684Y415652D01*
X262090D01*
X249200Y411242D02*
X251501Y413543D01*
X249200Y404548D02*
Y411242D01*
X254287Y413543D02*
X254673Y413929D01*
X251501Y413543D02*
X254287D01*
X252705Y400748D02*
X253000D01*
X251827Y401626D02*
X252705Y400748D01*
X251827Y401626D02*
Y401921D01*
X249200Y404548D02*
X251827Y401921D01*
X247600Y401148D02*
X248000Y400748D01*
X247600Y401148D02*
Y419600D01*
X247500Y419700D02*
X247600Y419600D01*
X249750Y265044D02*
Y265400D01*
X247400Y419600D02*
X247500Y419700D01*
X240577Y419600D02*
X247400D01*
X237466Y416488D02*
X240577Y419600D01*
X231539Y416488D02*
X237466D01*
X238354Y413929D02*
X240045Y415620D01*
X244863D01*
X231539Y413929D02*
X238354D01*
X243000Y407489D02*
X244863Y409351D01*
Y415620D01*
X243000Y400748D02*
Y407489D01*
X239173Y401921D02*
X241300Y404048D01*
X238000Y400748D02*
X238295D01*
X239173Y401626D01*
Y401921D01*
X241300Y404048D02*
Y412200D01*
X233295Y400748D02*
X238200Y405653D01*
Y408700D01*
X231539Y408811D02*
X231634Y408906D01*
X231595Y408755D02*
X238144D01*
X231539Y408811D02*
X231595Y408755D01*
X231539Y411370D02*
X236981D01*
X237811Y412200D01*
X241300D01*
X238144Y408755D02*
X238200Y408700D01*
X233000Y400748D02*
X233295D01*
X231539Y416488D02*
X231608Y416557D01*
X166879Y209221D02*
Y216186D01*
X164558Y206899D02*
X166879Y209221D01*
X172784Y211993D02*
Y216186D01*
X235000Y312400D02*
Y316752D01*
X180658Y239414D02*
Y240580D01*
X180666Y240587D01*
X223100Y312500D02*
Y316652D01*
X223000Y316752D02*
X223100Y316652D01*
X178698Y241175D02*
X180473Y242950D01*
X178698Y239422D02*
Y241175D01*
X178690Y239414D02*
X178698Y239422D01*
X176721Y239414D02*
Y243221D01*
X180148Y249605D02*
Y249900D01*
X173652D02*
Y255000D01*
X172784Y249032D02*
X173652Y249900D01*
X172784Y239414D02*
Y249032D01*
X112500Y336000D02*
X113312D01*
X115539Y338226D01*
X144504Y334638D02*
X144595Y334547D01*
X137100Y251400D02*
X137150Y251350D01*
X143750D02*
X143800Y251300D01*
X137150Y251350D02*
X143750D01*
X147225Y247875D02*
X151362D01*
X143800Y251300D02*
X147225Y247875D01*
X151362D02*
X156849Y242387D01*
X133800Y245386D02*
X134386Y244800D01*
X133800Y245386D02*
Y247300D01*
X134386Y244800D02*
X151861D01*
X155874Y240787D01*
X162356D01*
X162556Y240587D01*
X162934D02*
X162942Y240580D01*
Y239414D02*
Y240580D01*
X156849Y242387D02*
X163690D01*
X162556Y240587D02*
X162934D01*
X164902Y239422D02*
Y241175D01*
X168839Y239422D02*
X168847Y239414D01*
X168839Y239422D02*
Y241763D01*
X162337Y252263D02*
X166170Y248430D01*
X164353Y243987D02*
X166871Y241469D01*
X163013Y245587D02*
X165015D01*
X163690Y242387D02*
X164902Y241175D01*
X166871Y239422D02*
X166879Y239414D01*
X165015Y245587D02*
X168839Y241763D01*
X166170Y248430D02*
X167670D01*
X166871Y239422D02*
Y241469D01*
X157300Y251300D02*
X163013Y245587D01*
X149002Y236486D02*
Y237900D01*
Y236486D02*
X150710Y234777D01*
X152125D01*
X154181Y232721D01*
X160186D01*
X139100Y230900D02*
X151240D01*
X121315Y248685D02*
X139100Y230900D01*
X114500Y248685D02*
X121315D01*
X176721Y213379D02*
X178100Y212000D01*
X164558Y206210D02*
Y206899D01*
X162400Y204742D02*
X163089D01*
X164558Y206210D01*
X155342Y204689D02*
X164902Y214250D01*
Y216178D01*
X164910Y216186D01*
X162400Y197458D02*
X163089D01*
X165342Y199712D01*
Y199782D01*
X176721Y213379D02*
Y216186D01*
X251900Y216800D02*
Y222100D01*
X251852Y206448D02*
Y211700D01*
Y206400D02*
X251900D01*
X213798Y214850D02*
Y219950D01*
X213748Y214800D02*
X213798Y214850D01*
Y219950D02*
X213848Y220000D01*
X257518Y199927D02*
X258396Y200805D01*
X252500Y194900D02*
Y195589D01*
X256838Y199927D01*
X257518D01*
X258396Y200805D02*
Y201100D01*
X251758Y229689D02*
X256096Y234027D01*
X251758Y229000D02*
Y229689D01*
X256096Y234027D02*
X256770D01*
X208130Y208527D02*
X208604D01*
X207252Y209405D02*
Y209700D01*
X208604Y208527D02*
X213142Y203989D01*
X207252Y209405D02*
X208130Y208527D01*
X208904Y232027D02*
X213342Y227589D01*
Y226900D02*
Y227589D01*
X208330Y232027D02*
X208904D01*
X207452Y232905D02*
X208330Y232027D01*
X207452Y232905D02*
Y233200D01*
X151240Y230900D02*
X151380Y230761D01*
X138200Y227300D02*
X147700D01*
X114500Y238843D02*
X126657D01*
X138200Y227300D01*
X114500Y199472D02*
X124972D01*
X140100Y214600D02*
X147400D01*
X124972Y199472D02*
X140100Y214600D01*
X147400D02*
X152123D01*
X129098Y209315D02*
X137583Y217800D01*
X151100D01*
X114500Y219158D02*
X115987D01*
X117536Y220706D01*
X130891Y229000D02*
X135791Y224100D01*
X114500Y229000D02*
X130891D01*
X135791Y224100D02*
X151100D01*
X114500Y209315D02*
X129098D01*
X148058Y204689D02*
X158382Y215013D01*
X162934D01*
X162942Y215020D01*
Y216186D01*
X148058Y204000D02*
Y204689D01*
X155342Y204000D02*
Y204689D01*
X160600Y438300D02*
X160619Y438319D01*
X122400Y438300D02*
X160600D01*
X117567Y316567D02*
X119100Y318100D01*
Y323500D02*
X121613Y326013D01*
X119100Y318100D02*
Y323500D01*
X121638Y314520D02*
X123506Y312652D01*
X119615Y314520D02*
X121638D01*
X117435Y316700D02*
X119615Y314520D01*
X121613Y326013D02*
X123613D01*
X113200Y316700D02*
X117435D01*
X112500Y316000D02*
X113200Y316700D01*
X123613Y326013D02*
X123900Y326300D01*
X152123Y214600D02*
X158425Y220902D01*
X151387Y218087D02*
X153347D01*
X160178Y220902D02*
X160186Y220910D01*
X153347Y218087D02*
X158131Y222871D01*
X160178D01*
X158425Y220902D02*
X160178D01*
X151100Y217800D02*
X151387Y218087D01*
X153905Y224100D02*
X156621Y226816D01*
X160186D01*
X156915Y224847D02*
X160186D01*
X152774Y220706D02*
X156915Y224847D01*
X160178Y222871D02*
X160186Y222879D01*
X151100Y224100D02*
X153905D01*
X151380Y230761D02*
X160178D01*
X123506Y312652D02*
X124158Y312000D01*
X152817Y227300D02*
X154301Y228784D01*
X160186D01*
X147700Y227300D02*
X152817D01*
X160178Y230761D02*
X160186Y230753D01*
X155682Y355100D02*
X156268Y355686D01*
X113400Y355100D02*
X155682D01*
X156268Y355686D02*
Y360000D01*
X112500Y356000D02*
X113400Y355100D01*
X156268Y360000D02*
X156358Y360090D01*
X118764Y352264D02*
X144595D01*
X112500Y346000D02*
X118764Y352264D01*
X123506Y312652D02*
X129700D01*
X160295Y360090D02*
Y395791D01*
X162894Y398390D01*
Y400063D01*
X147894Y398390D02*
X158327Y387957D01*
Y360090D02*
Y387957D01*
X147894Y398390D02*
Y400063D01*
X118114Y442586D02*
X122400Y438300D01*
X118114Y442586D02*
Y453437D01*
X155791Y262109D02*
Y264485D01*
X143406Y442286D02*
Y447732D01*
X126776Y448260D02*
X129665Y445371D01*
X126776Y448260D02*
Y453437D01*
X157500Y251500D02*
Y256200D01*
X157700Y256400D01*
X157300Y251300D02*
X157500Y251500D01*
X153742Y254858D02*
X157300Y251300D01*
X153732Y260143D02*
X153742Y260132D01*
X153732Y260143D02*
Y264576D01*
X158653Y263000D02*
X164453D01*
X157668Y263985D02*
X158653Y263000D01*
X155700Y264576D02*
X155791Y264485D01*
X157668Y263985D02*
Y264576D01*
X164453Y263000D02*
X165605Y264152D01*
X165900D01*
X166274Y264526D01*
X171426D01*
X168847Y216186D02*
X170816D01*
X233827Y324126D02*
X234705Y323248D01*
X235000D01*
X233827Y324126D02*
Y325855D01*
X221827Y324126D02*
Y325997D01*
Y324126D02*
X222705Y323248D01*
X223000D01*
X205311Y328642D02*
X210705Y323248D01*
X211000D01*
X189776Y328642D02*
X205311D01*
X235000Y323248D02*
X239606D01*
X241000Y324642D01*
X223000Y323248D02*
X227748D01*
X229000Y324500D01*
X215606Y323248D02*
X217000Y324642D01*
X211000Y323248D02*
X215606D01*
X139768Y451370D02*
X143406Y447732D01*
X139768Y451370D02*
Y453437D01*
X164902Y239422D02*
X164910Y239414D01*
X167670Y248430D02*
X170816Y245284D01*
X154390Y360090D02*
Y367158D01*
X152189Y369358D02*
X154390Y367158D01*
X151500Y369358D02*
X152189D01*
X195343Y350295D02*
X197858Y352811D01*
X189776Y350295D02*
X195343D01*
X197858Y352811D02*
Y353500D01*
X161000Y284358D02*
X162469Y285827D01*
X163827D01*
X165500Y287500D01*
X154626Y284358D02*
X161000D01*
X160295Y306347D02*
Y314910D01*
Y306347D02*
X161000Y305642D01*
X149984Y289000D02*
X154626Y284358D01*
X149000Y289000D02*
X149984D01*
X180890Y414843D02*
X182358Y416311D01*
Y417000D01*
X118000Y431185D02*
X119208D01*
X158106Y428539D02*
X158683D01*
X157894Y428327D02*
X158106Y428539D01*
X157894Y421520D02*
Y428327D01*
Y413394D02*
Y421520D01*
X152173Y426327D02*
X153000Y425500D01*
X152173Y426327D02*
Y429079D01*
X153000Y421626D02*
Y425500D01*
X151752Y429500D02*
X152173Y429079D01*
X152894Y421520D02*
X153000Y421626D01*
X152894Y415394D02*
Y421520D01*
X163350Y407193D02*
X177839D01*
X157894Y401736D02*
X163350Y407193D01*
X157894Y400063D02*
Y401736D01*
X151500Y414000D02*
X152894Y415394D01*
X131500Y421500D02*
X139000Y414000D01*
X151500D01*
X131000Y411500D02*
X132500D01*
X156000D02*
X157894Y413394D01*
X118000Y411500D02*
X131000D01*
X118000Y421343D02*
X118079Y421421D01*
X131421D01*
X131500Y421500D01*
X254673Y406252D02*
X254799Y406126D01*
X262874D01*
X263000Y406000D01*
X216358Y410500D02*
X217752Y409106D01*
Y404500D02*
Y409106D01*
X225126Y405673D02*
X225421D01*
X226000Y406252D01*
X231539D01*
X224248Y404500D02*
Y404795D01*
X225126Y405673D01*
X216358Y417500D02*
Y418189D01*
X170816Y239414D02*
Y245284D01*
D18*
X106442Y303213D02*
D03*
Y267387D02*
D03*
X124158Y303213D02*
D03*
Y267387D02*
D03*
D19*
X263000Y400748D02*
D03*
Y394252D02*
D03*
X129700Y319148D02*
D03*
Y312652D02*
D03*
X235000Y323248D02*
D03*
Y316752D02*
D03*
X223000Y323248D02*
D03*
Y316752D02*
D03*
X211000D02*
D03*
Y323248D02*
D03*
X285500Y203952D02*
D03*
Y210448D02*
D03*
X168800Y247552D02*
D03*
Y254048D02*
D03*
X209400Y248648D02*
D03*
Y242152D02*
D03*
X214700Y248448D02*
D03*
Y241952D02*
D03*
X165900Y264152D02*
D03*
Y270648D02*
D03*
X248000Y394252D02*
D03*
Y400748D02*
D03*
X243000D02*
D03*
Y394252D02*
D03*
X238000Y400748D02*
D03*
Y394252D02*
D03*
X253000Y400748D02*
D03*
Y394252D02*
D03*
X233000Y400748D02*
D03*
Y394252D02*
D03*
X258000Y400748D02*
D03*
Y394252D02*
D03*
D20*
X203504Y391000D02*
D03*
X210000D02*
D03*
X257648Y235200D02*
D03*
X251152D02*
D03*
X251900Y222100D02*
D03*
X258396D02*
D03*
Y216800D02*
D03*
X251900D02*
D03*
X180148Y255000D02*
D03*
X173652D02*
D03*
X180148Y249900D02*
D03*
X173652D02*
D03*
X224248Y404500D02*
D03*
X217752D02*
D03*
X207252Y209700D02*
D03*
X213748D02*
D03*
X151752Y429500D02*
D03*
X158248D02*
D03*
X258348Y206400D02*
D03*
X251852D02*
D03*
X258348Y211700D02*
D03*
X251852D02*
D03*
X207352Y220000D02*
D03*
X213848D02*
D03*
X207252Y214800D02*
D03*
X213748D02*
D03*
X213948Y233200D02*
D03*
X207452D02*
D03*
X251900Y201100D02*
D03*
X258396D02*
D03*
D21*
X203700Y377350D02*
D03*
Y383650D02*
D03*
X376000Y308000D02*
D03*
Y301701D02*
D03*
X319600Y357350D02*
D03*
Y363650D02*
D03*
X375300Y419050D02*
D03*
Y412750D02*
D03*
X312000Y465850D02*
D03*
Y472150D02*
D03*
X376000Y192000D02*
D03*
Y198299D02*
D03*
X311300Y252950D02*
D03*
Y246650D02*
D03*
D22*
X196500Y415858D02*
D03*
Y423142D02*
D03*
X161900Y458842D02*
D03*
Y451558D02*
D03*
X123000Y313158D02*
D03*
Y320442D02*
D03*
X279200Y204458D02*
D03*
Y211742D02*
D03*
X169800Y275658D02*
D03*
Y282942D02*
D03*
X241000Y317358D02*
D03*
Y324642D02*
D03*
X162400Y197458D02*
D03*
Y204742D02*
D03*
X229000Y324500D02*
D03*
Y317216D02*
D03*
X217000Y324642D02*
D03*
Y317358D02*
D03*
X194700Y297858D02*
D03*
Y305142D02*
D03*
X142100Y266158D02*
D03*
Y273442D02*
D03*
X136900Y319342D02*
D03*
Y312058D02*
D03*
X151500Y376642D02*
D03*
Y369358D02*
D03*
X144000D02*
D03*
Y376642D02*
D03*
X199000Y324642D02*
D03*
Y317358D02*
D03*
X161000Y305642D02*
D03*
Y298358D02*
D03*
Y284358D02*
D03*
Y291642D02*
D03*
X132000Y297658D02*
D03*
Y304942D02*
D03*
X170000Y410783D02*
D03*
Y403500D02*
D03*
X201800Y297858D02*
D03*
Y305142D02*
D03*
D23*
X132400Y411400D02*
D03*
Y420900D02*
D03*
X143900Y443200D02*
D03*
X163600Y252000D02*
D03*
X157700Y252100D02*
D03*
X172200Y264600D02*
D03*
X146100Y255100D02*
D03*
X147253Y248467D02*
D03*
X325000Y330000D02*
D03*
Y440000D02*
D03*
Y390000D02*
D03*
Y280000D02*
D03*
Y180000D02*
D03*
Y220000D02*
D03*
D24*
X181559Y272746D02*
D03*
X189827D02*
D03*
D25*
X197858Y361000D02*
D03*
X205142D02*
D03*
X220558Y246700D02*
D03*
X227842D02*
D03*
X251758Y229000D02*
D03*
X259042D02*
D03*
X301142Y217800D02*
D03*
X293858D02*
D03*
X169342Y191100D02*
D03*
X162058D02*
D03*
X201442Y242600D02*
D03*
X194158D02*
D03*
X194758Y195400D02*
D03*
X202042D02*
D03*
X189542Y205000D02*
D03*
X182258D02*
D03*
X149242Y236500D02*
D03*
X141958D02*
D03*
X148058Y204000D02*
D03*
X155342D02*
D03*
X182358Y417000D02*
D03*
X189642D02*
D03*
X213142Y203300D02*
D03*
X205858D02*
D03*
X252500Y194900D02*
D03*
X259784D02*
D03*
X213342Y226900D02*
D03*
X206058D02*
D03*
X223642Y417500D02*
D03*
X216358D02*
D03*
Y410500D02*
D03*
X223642D02*
D03*
X189642Y424000D02*
D03*
X182358D02*
D03*
X205142Y353500D02*
D03*
X197858D02*
D03*
D26*
X242600Y232600D02*
D03*
Y227600D02*
D03*
Y222600D02*
D03*
Y217600D02*
D03*
Y212600D02*
D03*
Y207600D02*
D03*
Y202600D02*
D03*
X223200D02*
D03*
Y207600D02*
D03*
Y212600D02*
D03*
Y217600D02*
D03*
Y222600D02*
D03*
Y227600D02*
D03*
Y232600D02*
D03*
D27*
X171800Y227800D02*
D03*
D28*
X160186Y218942D02*
D03*
Y220910D02*
D03*
Y222879D02*
D03*
Y224847D02*
D03*
Y226816D02*
D03*
Y228784D02*
D03*
Y230753D02*
D03*
Y232721D02*
D03*
Y234690D02*
D03*
Y236658D02*
D03*
X183414D02*
D03*
Y234690D02*
D03*
Y232721D02*
D03*
Y230753D02*
D03*
Y228784D02*
D03*
Y226816D02*
D03*
Y224847D02*
D03*
Y222879D02*
D03*
Y220910D02*
D03*
Y218942D02*
D03*
D29*
X162942Y239414D02*
D03*
X164910D02*
D03*
X166879D02*
D03*
X168847D02*
D03*
X170816D02*
D03*
X172784D02*
D03*
X174753D02*
D03*
X176721D02*
D03*
X178690D02*
D03*
X180658D02*
D03*
Y216186D02*
D03*
X178690D02*
D03*
X176721D02*
D03*
X174753D02*
D03*
X172784D02*
D03*
X170816D02*
D03*
X168847D02*
D03*
X166879D02*
D03*
X164910D02*
D03*
X162942D02*
D03*
D30*
X291779Y210840D02*
D03*
Y207100D02*
D03*
Y203360D02*
D03*
X301621D02*
D03*
Y210840D02*
D03*
D31*
X151800Y196604D02*
D03*
Y184596D02*
D03*
D32*
X144547Y322736D02*
D03*
Y324705D02*
D03*
Y326673D02*
D03*
Y328642D02*
D03*
Y330610D02*
D03*
Y332579D02*
D03*
Y334547D02*
D03*
Y336516D02*
D03*
Y338484D02*
D03*
Y340453D02*
D03*
Y342421D02*
D03*
Y344390D02*
D03*
Y346358D02*
D03*
Y348327D02*
D03*
Y350295D02*
D03*
Y352264D02*
D03*
X189823Y338484D02*
D03*
Y340453D02*
D03*
Y342421D02*
D03*
Y344390D02*
D03*
Y346358D02*
D03*
Y348327D02*
D03*
Y350295D02*
D03*
Y352264D02*
D03*
Y322736D02*
D03*
Y324705D02*
D03*
Y326673D02*
D03*
Y328642D02*
D03*
Y330610D02*
D03*
Y332579D02*
D03*
Y334547D02*
D03*
Y336516D02*
D03*
D33*
X152421Y360138D02*
D03*
X154390D02*
D03*
X156358D02*
D03*
X158327D02*
D03*
X160295D02*
D03*
X162264D02*
D03*
X164232D02*
D03*
X166201D02*
D03*
X168169D02*
D03*
X170138D02*
D03*
X172106D02*
D03*
X174075D02*
D03*
X176043D02*
D03*
X178012D02*
D03*
X179980D02*
D03*
X181949D02*
D03*
X152421Y314862D02*
D03*
X154390D02*
D03*
X156358D02*
D03*
X158327D02*
D03*
X160295D02*
D03*
X162264D02*
D03*
X164232D02*
D03*
X166201D02*
D03*
X168169D02*
D03*
X170138D02*
D03*
X172106D02*
D03*
X174075D02*
D03*
X176043D02*
D03*
X178012D02*
D03*
X179980D02*
D03*
X181949D02*
D03*
D34*
X313950Y169600D02*
D03*
X320250D02*
D03*
D35*
X147894Y421520D02*
D03*
X152894D02*
D03*
X157894D02*
D03*
X162894D02*
D03*
Y400063D02*
D03*
X157894D02*
D03*
X152894D02*
D03*
X147894D02*
D03*
D36*
X150976Y273237D02*
D03*
Y271269D02*
D03*
Y269300D02*
D03*
Y267332D02*
D03*
Y265363D02*
D03*
X160424D02*
D03*
Y267332D02*
D03*
Y269300D02*
D03*
Y271269D02*
D03*
Y273237D02*
D03*
D37*
X153732Y264576D02*
D03*
X155700D02*
D03*
X157668D02*
D03*
Y274024D02*
D03*
X155700D02*
D03*
X153732D02*
D03*
D38*
X254673Y424165D02*
D03*
Y421606D02*
D03*
Y419047D02*
D03*
Y416488D02*
D03*
Y413929D02*
D03*
Y411370D02*
D03*
Y408811D02*
D03*
Y406252D02*
D03*
X231539D02*
D03*
Y408811D02*
D03*
Y411370D02*
D03*
Y413929D02*
D03*
Y416488D02*
D03*
Y419047D02*
D03*
Y421606D02*
D03*
Y424165D02*
D03*
D39*
X186894Y382390D02*
D03*
D40*
X177839Y407193D02*
D03*
X186894D02*
D03*
X195949D02*
D03*
D41*
X153547Y495957D02*
D03*
D42*
X109354Y489756D02*
D03*
D43*
X108075Y483850D02*
D03*
D44*
X109059Y453929D02*
D03*
D45*
X113784Y453437D02*
D03*
X118114D02*
D03*
X122445D02*
D03*
X126776D02*
D03*
X131106D02*
D03*
X135437D02*
D03*
X139768D02*
D03*
X144098D02*
D03*
D46*
X153744Y453929D02*
D03*
D47*
X155122Y486410D02*
D03*
D48*
X149000Y289000D02*
D03*
Y300500D02*
D03*
D87*
X261976Y206433D02*
X276449Y220907D01*
X258381Y206433D02*
X261976D01*
X276449Y220907D02*
Y234678D01*
X258348Y206400D02*
X258381Y206433D01*
D88*
X310000Y440000D02*
X337500D01*
X310000Y185000D02*
Y191065D01*
Y185000D02*
X315000Y180000D01*
X325000D01*
X426508D01*
X418508Y280000D02*
X432508Y294000D01*
X315000Y280000D02*
X418508D01*
X310132Y284868D02*
X315000Y280000D01*
X310132Y284868D02*
Y289540D01*
X309896Y227500D02*
Y231539D01*
X317396Y220000D02*
X349508D01*
X309896Y227500D02*
X317396Y220000D01*
X309800Y231635D02*
X309896Y231539D01*
X349508Y220000D02*
X369508Y240000D01*
X307106Y390000D02*
X418000D01*
X304831Y392004D02*
Y392100D01*
X418000Y390000D02*
X432000Y404000D01*
X305102Y392004D02*
X307106Y390000D01*
X304831Y392004D02*
X305102D01*
X337500Y440000D02*
X349508D01*
X309500Y191565D02*
X310000Y191065D01*
X309500Y191565D02*
Y191700D01*
X217135Y254716D02*
X217231Y254812D01*
X211427Y250489D02*
X215654Y254716D01*
X211427Y250379D02*
Y250489D01*
X209400Y248648D02*
X209695D01*
X211427Y250379D01*
X215654Y254716D02*
X217135D01*
X306241Y336318D02*
X306336Y336222D01*
Y333664D02*
X310000Y330000D01*
X306336Y333664D02*
Y336222D01*
X303094Y439921D02*
X309921D01*
X303015Y439842D02*
X303094Y439921D01*
X309921D02*
X310000Y440000D01*
X349508D02*
X369508Y460000D01*
X426508Y180000D02*
X432508Y186000D01*
X357500Y330000D02*
X377500Y350000D01*
X310000Y330000D02*
X357500D01*
D89*
X122023Y434000D02*
X181000D01*
X182358Y424000D02*
Y432642D01*
X119208Y431185D02*
X122023Y434000D01*
X181000D02*
X182358Y432642D01*
Y417000D02*
Y424000D01*
X182012Y417000D02*
X182358D01*
X177839Y407193D02*
X177861Y407215D01*
Y412849D02*
X182012Y417000D01*
X177861Y407215D02*
Y412849D01*
D90*
X114500Y248685D02*
D03*
D91*
Y238843D02*
D03*
Y229000D02*
D03*
Y219158D02*
D03*
Y209315D02*
D03*
Y199472D02*
D03*
D92*
X112500Y336000D02*
D03*
Y326000D02*
D03*
Y346000D02*
D03*
Y356000D02*
D03*
Y366000D02*
D03*
Y376000D02*
D03*
D93*
Y316000D02*
D03*
D94*
X115900Y129700D02*
D03*
X295000Y470000D02*
D03*
X357492Y414000D02*
D03*
X302992Y360000D02*
D03*
X358000Y304000D02*
D03*
X295000Y250000D02*
D03*
X358000Y196000D02*
D03*
X240700Y488400D02*
D03*
X454400Y489800D02*
D03*
D95*
X369508Y460000D02*
D03*
X432000Y404000D02*
D03*
X377500Y350000D02*
D03*
X432508Y294000D02*
D03*
X369508Y240000D02*
D03*
X432508Y186000D02*
D03*
D96*
X369508Y470000D02*
D03*
Y480000D02*
D03*
X432000Y414000D02*
D03*
Y424000D02*
D03*
X377500Y370000D02*
D03*
Y360000D02*
D03*
X432508Y304000D02*
D03*
Y314000D02*
D03*
X369508Y260000D02*
D03*
Y250000D02*
D03*
X432508Y196000D02*
D03*
Y206000D02*
D03*
D97*
X302500Y135315D02*
D03*
X355000Y135000D02*
D03*
X407500D02*
D03*
D98*
X302500Y155000D02*
D03*
X355000Y154685D02*
D03*
X407500D02*
D03*
D99*
X222539Y162461D02*
D03*
X240000D02*
D03*
X257461D02*
D03*
Y145000D02*
D03*
Y127539D02*
D03*
X240000D02*
D03*
X222539D02*
D03*
Y145000D02*
D03*
X415000Y452539D02*
D03*
X432461D02*
D03*
Y470000D02*
D03*
Y487461D02*
D03*
X415000D02*
D03*
X397539D02*
D03*
Y470000D02*
D03*
Y452539D02*
D03*
Y342539D02*
D03*
Y360000D02*
D03*
Y377461D02*
D03*
X415000D02*
D03*
X432461D02*
D03*
Y360000D02*
D03*
Y342539D02*
D03*
X415000D02*
D03*
X397539Y232539D02*
D03*
Y250000D02*
D03*
Y267461D02*
D03*
X415000D02*
D03*
X432461D02*
D03*
Y250000D02*
D03*
Y232539D02*
D03*
X415000D02*
D03*
X152539Y145000D02*
D03*
Y127539D02*
D03*
X170000D02*
D03*
X187461D02*
D03*
Y145000D02*
D03*
Y162461D02*
D03*
X170000D02*
D03*
X152539D02*
D03*
D100*
X240000Y145000D02*
D03*
X415000Y470000D02*
D03*
Y360000D02*
D03*
Y250000D02*
D03*
X170000Y145000D02*
D03*
D101*
X118000Y431185D02*
D03*
D102*
Y421343D02*
D03*
Y411500D02*
D03*
Y401657D02*
D03*
D103*
X104000Y311400D02*
D03*
X268400Y217100D02*
D03*
X151800Y178300D02*
D03*
X336375Y174625D02*
D03*
X329600Y164200D02*
D03*
X309167Y485132D02*
D03*
X138800Y306000D02*
D03*
X258400Y241900D02*
D03*
X258100Y316900D02*
D03*
X186030Y316613D02*
D03*
X182400Y326900D02*
D03*
X210500Y328700D02*
D03*
X211000Y402000D02*
D03*
X180471Y334100D02*
D03*
X270700Y221600D02*
D03*
X199000Y229200D02*
D03*
X192245Y233200D02*
D03*
X195494Y222495D02*
D03*
X198600Y214200D02*
D03*
X202000Y211300D02*
D03*
X276449Y234678D02*
D03*
X170700Y416900D02*
D03*
X243400Y311800D02*
D03*
X209650Y307250D02*
D03*
X210507Y284048D02*
D03*
X149200Y278800D02*
D03*
X137600Y260500D02*
D03*
X150200Y258500D02*
D03*
X143700Y259400D02*
D03*
X153800Y350300D02*
D03*
X322200Y174700D02*
D03*
X138165Y299465D02*
D03*
X181500Y322000D02*
D03*
X222384Y253298D02*
D03*
X208213Y196376D02*
D03*
X269400Y195500D02*
D03*
X269254Y227003D02*
D03*
X229200Y197000D02*
D03*
X220739Y396333D02*
D03*
X271500Y420400D02*
D03*
X155100Y236800D02*
D03*
X209600Y374600D02*
D03*
X205362Y366902D02*
D03*
X170000Y182500D02*
D03*
X203600Y412300D02*
D03*
X203000Y420600D02*
D03*
X141800Y421000D02*
D03*
X142600Y405600D02*
D03*
X149900Y383900D02*
D03*
X162000Y464700D02*
D03*
X108600Y446400D02*
D03*
X294015Y224022D02*
D03*
X184222Y303500D02*
D03*
X177350Y200300D02*
D03*
X188947Y299986D02*
D03*
X187700Y306000D02*
D03*
X187500Y310000D02*
D03*
X185905Y245622D02*
D03*
X162050Y259300D02*
D03*
X182134Y245700D02*
D03*
X179100Y264700D02*
D03*
X182071Y293625D02*
D03*
X185800Y296600D02*
D03*
X180100Y196500D02*
D03*
X188995Y242500D02*
D03*
X196200Y217900D02*
D03*
X272777Y204509D02*
D03*
X323212Y196091D02*
D03*
Y199591D02*
D03*
X325695Y345742D02*
D03*
X311575Y487882D02*
D03*
X229100Y188450D02*
D03*
X309500Y191700D02*
D03*
X229100Y184950D02*
D03*
Y179700D02*
D03*
Y176200D02*
D03*
X317300Y268700D02*
D03*
Y272200D02*
D03*
X323220Y348492D02*
D03*
X223800Y258600D02*
D03*
X227300D02*
D03*
X381500Y412400D02*
D03*
X240635Y274956D02*
D03*
X237135D02*
D03*
X245100Y199100D02*
D03*
X234200Y352800D02*
D03*
X230700D02*
D03*
X231425Y469275D02*
D03*
X233900Y466800D02*
D03*
X309800Y231635D02*
D03*
X217105Y447104D02*
D03*
X217231Y254812D02*
D03*
X310132Y289540D02*
D03*
X306241Y336318D02*
D03*
X304600Y392100D02*
D03*
X196300Y391900D02*
D03*
X198876Y289700D02*
D03*
X303015Y439842D02*
D03*
X383100Y301700D02*
D03*
X318900Y472200D02*
D03*
X326700Y357300D02*
D03*
X319051Y246479D02*
D03*
X383000Y198100D02*
D03*
X307600Y173400D02*
D03*
X263000Y173500D02*
D03*
X267383Y381272D02*
D03*
X210400Y381100D02*
D03*
X375400Y327600D02*
D03*
X245700Y330100D02*
D03*
X376813Y185269D02*
D03*
X253300Y179500D02*
D03*
X311376Y264196D02*
D03*
X237600Y374500D02*
D03*
X319000Y374800D02*
D03*
X373100Y425200D02*
D03*
X267200Y407700D02*
D03*
X270428Y411428D02*
D03*
X311500Y456800D02*
D03*
X267000Y454700D02*
D03*
X249750Y265400D02*
D03*
X205250Y336300D02*
D03*
X179000Y353300D02*
D03*
X160600Y346506D02*
D03*
X182200Y348500D02*
D03*
X151050Y322215D02*
D03*
X172750Y347500D02*
D03*
X182098Y344425D02*
D03*
X157850Y338500D02*
D03*
X175188Y350837D02*
D03*
X166777Y341895D02*
D03*
X130680Y327828D02*
D03*
X169885Y345490D02*
D03*
X164100Y335700D02*
D03*
X138400Y343300D02*
D03*
X135772Y339672D02*
D03*
X138535Y329950D02*
D03*
X244900Y302900D02*
D03*
X215150Y306222D02*
D03*
X235000Y300000D02*
D03*
X223000Y296500D02*
D03*
X210550Y293100D02*
D03*
X213300Y198000D02*
D03*
X211000Y312200D02*
D03*
X210200Y237635D02*
D03*
X174400Y206800D02*
D03*
X171597Y210400D02*
D03*
X224038Y424356D02*
D03*
X254511Y427450D02*
D03*
X139800Y430200D02*
D03*
X135423Y428280D02*
D03*
X132300Y426700D02*
D03*
X149500Y442500D02*
D03*
X137799Y445964D02*
D03*
X257800Y432500D02*
D03*
X262090Y415652D02*
D03*
X244850Y415620D02*
D03*
X247500Y419700D02*
D03*
X238200Y408700D02*
D03*
X241300Y412200D02*
D03*
X235000Y312400D02*
D03*
X223100Y312500D02*
D03*
X137100Y251400D02*
D03*
X133800Y247300D02*
D03*
X192700Y437600D02*
D03*
X201051Y340913D02*
D03*
X151100Y224100D02*
D03*
X151318Y230822D02*
D03*
X160619Y438319D02*
D03*
X123900Y326300D02*
D03*
X147400Y214600D02*
D03*
X151100Y217800D02*
D03*
X147413Y220706D02*
D03*
X147700Y227300D02*
D03*
X129665Y445371D02*
D03*
X157700Y256400D02*
D03*
X204500Y406000D02*
D03*
X263000D02*
D03*
M02*
