G04*
G04 #@! TF.GenerationSoftware,Altium Limited,Altium Designer,21.0.9 (235)*
G04*
G04 Layer_Color=8421504*
%FSLAX25Y25*%
%MOIN*%
G70*
G04*
G04 #@! TF.SameCoordinates,BF8AA8E3-E573-41D7-9BE7-E27BED457F28*
G04*
G04*
G04 #@! TF.FilePolarity,Positive*
G04*
G01*
G75*
%ADD18R,0.05512X0.08268*%
%ADD19R,0.03347X0.02756*%
%ADD20R,0.02756X0.03347*%
%ADD21R,0.03740X0.03543*%
%ADD22R,0.05315X0.03937*%
G04:AMPARAMS|DCode=23|XSize=39.37mil|YSize=39.37mil|CornerRadius=9.84mil|HoleSize=0mil|Usage=FLASHONLY|Rotation=90.000|XOffset=0mil|YOffset=0mil|HoleType=Round|Shape=RoundedRectangle|*
%AMROUNDEDRECTD23*
21,1,0.03937,0.01968,0,0,90.0*
21,1,0.01968,0.03937,0,0,90.0*
1,1,0.01968,0.00984,0.00984*
1,1,0.01968,0.00984,-0.00984*
1,1,0.01968,-0.00984,-0.00984*
1,1,0.01968,-0.00984,0.00984*
%
%ADD23ROUNDEDRECTD23*%
%ADD24R,0.04331X0.04724*%
%ADD25R,0.03937X0.05315*%
%ADD26R,0.07800X0.02200*%
%ADD27R,0.16732X0.16732*%
%ADD28R,0.03347X0.00984*%
%ADD29R,0.00984X0.03347*%
%ADD30R,0.04724X0.02362*%
%ADD31R,0.10827X0.04331*%
%ADD32R,0.04724X0.01181*%
%ADD33R,0.01181X0.04724*%
%ADD34R,0.03543X0.03740*%
%ADD35R,0.02756X0.06102*%
%ADD36R,0.02362X0.01181*%
%ADD37R,0.01181X0.02362*%
%ADD38R,0.05807X0.01772*%
%ADD39R,0.12598X0.06890*%
%ADD40R,0.03740X0.06890*%
%ADD41R,0.03937X0.06102*%
%ADD42R,0.05709X0.03937*%
%ADD43R,0.03150X0.05906*%
%ADD44R,0.05118X0.05906*%
%ADD45R,0.02756X0.06890*%
%ADD46R,0.05906X0.05906*%
%ADD47R,0.03150X0.05512*%
%ADD48R,0.09449X0.07480*%
G36*
X434241Y493329D02*
X435351Y492869D01*
X436351Y492201D01*
X437201Y491351D01*
X437868Y490351D01*
X438329Y489241D01*
X438563Y488062D01*
Y487461D01*
Y486860D01*
X438329Y485681D01*
X437868Y484570D01*
X437201Y483571D01*
X436351Y482721D01*
X435351Y482053D01*
X434241Y481593D01*
X433062Y481358D01*
X431860D01*
X430681Y481593D01*
X429570Y482053D01*
X428571Y482721D01*
X427721Y483571D01*
X427053Y484570D01*
X426593Y485681D01*
X426358Y486860D01*
Y487461D01*
Y488062D01*
X426593Y489241D01*
X427053Y490351D01*
X427721Y491351D01*
X428571Y492201D01*
X429570Y492869D01*
X430681Y493329D01*
X431860Y493563D01*
X433062D01*
X434241Y493329D01*
D02*
G37*
G36*
X416780D02*
X417891Y492869D01*
X418890Y492201D01*
X419740Y491351D01*
X420408Y490351D01*
X420868Y489241D01*
X421102Y488062D01*
Y487461D01*
Y486860D01*
X420868Y485681D01*
X420408Y484570D01*
X419740Y483571D01*
X418890Y482721D01*
X417891Y482053D01*
X416780Y481593D01*
X415601Y481358D01*
X414399D01*
X413220Y481593D01*
X412109Y482053D01*
X411110Y482721D01*
X410260Y483571D01*
X409592Y484570D01*
X409132Y485681D01*
X408898Y486860D01*
Y487461D01*
Y488062D01*
X409132Y489241D01*
X409592Y490351D01*
X410260Y491351D01*
X411110Y492201D01*
X412109Y492869D01*
X413220Y493329D01*
X414399Y493563D01*
X415601D01*
X416780Y493329D01*
D02*
G37*
G36*
X399319D02*
X400430Y492869D01*
X401429Y492201D01*
X402279Y491351D01*
X402947Y490351D01*
X403407Y489241D01*
X403642Y488062D01*
Y487461D01*
Y486860D01*
X403407Y485681D01*
X402947Y484570D01*
X402279Y483571D01*
X401429Y482721D01*
X400430Y482053D01*
X399319Y481593D01*
X398140Y481358D01*
X396938D01*
X395759Y481593D01*
X394649Y482053D01*
X393649Y482721D01*
X392799Y483571D01*
X392131Y484570D01*
X391671Y485681D01*
X391437Y486860D01*
Y487461D01*
Y488062D01*
X391671Y489241D01*
X392131Y490351D01*
X392799Y491351D01*
X393649Y492201D01*
X394649Y492869D01*
X395759Y493329D01*
X396938Y493563D01*
X398140D01*
X399319Y493329D01*
D02*
G37*
G36*
X434241Y475868D02*
X435351Y475408D01*
X436351Y474740D01*
X437201Y473890D01*
X437868Y472891D01*
X438329Y471780D01*
X438563Y470601D01*
Y470000D01*
Y469399D01*
X438329Y468220D01*
X437868Y467109D01*
X437201Y466110D01*
X436351Y465260D01*
X435351Y464592D01*
X434241Y464132D01*
X433062Y463898D01*
X431860D01*
X430681Y464132D01*
X429570Y464592D01*
X428571Y465260D01*
X427721Y466110D01*
X427053Y467109D01*
X426593Y468220D01*
X426358Y469399D01*
Y470000D01*
Y470601D01*
X426593Y471780D01*
X427053Y472891D01*
X427721Y473890D01*
X428571Y474740D01*
X429570Y475408D01*
X430681Y475868D01*
X431860Y476102D01*
X433062D01*
X434241Y475868D01*
D02*
G37*
G36*
X399319D02*
X400430Y475408D01*
X401429Y474740D01*
X402279Y473890D01*
X402947Y472891D01*
X403407Y471780D01*
X403642Y470601D01*
Y470000D01*
Y469399D01*
X403407Y468220D01*
X402947Y467109D01*
X402279Y466110D01*
X401429Y465260D01*
X400430Y464592D01*
X399319Y464132D01*
X398140Y463898D01*
X396938D01*
X395759Y464132D01*
X394649Y464592D01*
X393649Y465260D01*
X392799Y466110D01*
X392131Y467109D01*
X391671Y468220D01*
X391437Y469399D01*
Y470000D01*
Y470601D01*
X391671Y471780D01*
X392131Y472891D01*
X392799Y473890D01*
X393649Y474740D01*
X394649Y475408D01*
X395759Y475868D01*
X396938Y476102D01*
X398140D01*
X399319Y475868D01*
D02*
G37*
G36*
X434241Y458407D02*
X435351Y457947D01*
X436351Y457279D01*
X437201Y456429D01*
X437868Y455430D01*
X438329Y454319D01*
X438563Y453140D01*
Y452539D01*
Y451938D01*
X438329Y450759D01*
X437868Y449649D01*
X437201Y448649D01*
X436351Y447799D01*
X435351Y447131D01*
X434241Y446671D01*
X433062Y446437D01*
X431860D01*
X430681Y446671D01*
X429570Y447131D01*
X428571Y447799D01*
X427721Y448649D01*
X427053Y449649D01*
X426593Y450759D01*
X426358Y451938D01*
Y452539D01*
Y453140D01*
X426593Y454319D01*
X427053Y455430D01*
X427721Y456429D01*
X428571Y457279D01*
X429570Y457947D01*
X430681Y458407D01*
X431860Y458642D01*
X433062D01*
X434241Y458407D01*
D02*
G37*
G36*
X416780D02*
X417891Y457947D01*
X418890Y457279D01*
X419740Y456429D01*
X420408Y455430D01*
X420868Y454319D01*
X421102Y453140D01*
Y452539D01*
Y451938D01*
X420868Y450759D01*
X420408Y449649D01*
X419740Y448649D01*
X418890Y447799D01*
X417891Y447131D01*
X416780Y446671D01*
X415601Y446437D01*
X414399D01*
X413220Y446671D01*
X412109Y447131D01*
X411110Y447799D01*
X410260Y448649D01*
X409592Y449649D01*
X409132Y450759D01*
X408898Y451938D01*
Y452539D01*
Y453140D01*
X409132Y454319D01*
X409592Y455430D01*
X410260Y456429D01*
X411110Y457279D01*
X412109Y457947D01*
X413220Y458407D01*
X414399Y458642D01*
X415601D01*
X416780Y458407D01*
D02*
G37*
G36*
X399319D02*
X400430Y457947D01*
X401429Y457279D01*
X402279Y456429D01*
X402947Y455430D01*
X403407Y454319D01*
X403642Y453140D01*
Y452539D01*
Y451938D01*
X403407Y450759D01*
X402947Y449649D01*
X402279Y448649D01*
X401429Y447799D01*
X400430Y447131D01*
X399319Y446671D01*
X398140Y446437D01*
X396938D01*
X395759Y446671D01*
X394649Y447131D01*
X393649Y447799D01*
X392799Y448649D01*
X392131Y449649D01*
X391671Y450759D01*
X391437Y451938D01*
Y452539D01*
Y453140D01*
X391671Y454319D01*
X392131Y455430D01*
X392799Y456429D01*
X393649Y457279D01*
X394649Y457947D01*
X395759Y458407D01*
X396938Y458642D01*
X398140D01*
X399319Y458407D01*
D02*
G37*
G36*
X434241Y383329D02*
X435351Y382869D01*
X436351Y382201D01*
X437201Y381351D01*
X437868Y380351D01*
X438329Y379241D01*
X438563Y378062D01*
Y377461D01*
Y376860D01*
X438329Y375681D01*
X437868Y374570D01*
X437201Y373571D01*
X436351Y372721D01*
X435351Y372053D01*
X434241Y371593D01*
X433062Y371358D01*
X431860D01*
X430681Y371593D01*
X429570Y372053D01*
X428571Y372721D01*
X427721Y373571D01*
X427053Y374570D01*
X426593Y375681D01*
X426358Y376860D01*
Y377461D01*
Y378062D01*
X426593Y379241D01*
X427053Y380351D01*
X427721Y381351D01*
X428571Y382201D01*
X429570Y382869D01*
X430681Y383329D01*
X431860Y383563D01*
X433062D01*
X434241Y383329D01*
D02*
G37*
G36*
X416780D02*
X417891Y382869D01*
X418890Y382201D01*
X419740Y381351D01*
X420408Y380351D01*
X420868Y379241D01*
X421102Y378062D01*
Y377461D01*
Y376860D01*
X420868Y375681D01*
X420408Y374570D01*
X419740Y373571D01*
X418890Y372721D01*
X417891Y372053D01*
X416780Y371593D01*
X415601Y371358D01*
X414399D01*
X413220Y371593D01*
X412109Y372053D01*
X411110Y372721D01*
X410260Y373571D01*
X409592Y374570D01*
X409132Y375681D01*
X408898Y376860D01*
Y377461D01*
Y378062D01*
X409132Y379241D01*
X409592Y380351D01*
X410260Y381351D01*
X411110Y382201D01*
X412109Y382869D01*
X413220Y383329D01*
X414399Y383563D01*
X415601D01*
X416780Y383329D01*
D02*
G37*
G36*
X399319D02*
X400430Y382869D01*
X401429Y382201D01*
X402279Y381351D01*
X402947Y380351D01*
X403407Y379241D01*
X403642Y378062D01*
Y377461D01*
Y376860D01*
X403407Y375681D01*
X402947Y374570D01*
X402279Y373571D01*
X401429Y372721D01*
X400430Y372053D01*
X399319Y371593D01*
X398140Y371358D01*
X396938D01*
X395759Y371593D01*
X394649Y372053D01*
X393649Y372721D01*
X392799Y373571D01*
X392131Y374570D01*
X391671Y375681D01*
X391437Y376860D01*
Y377461D01*
Y378062D01*
X391671Y379241D01*
X392131Y380351D01*
X392799Y381351D01*
X393649Y382201D01*
X394649Y382869D01*
X395759Y383329D01*
X396938Y383563D01*
X398140D01*
X399319Y383329D01*
D02*
G37*
G36*
X434241Y365868D02*
X435351Y365408D01*
X436351Y364740D01*
X437201Y363890D01*
X437868Y362891D01*
X438329Y361780D01*
X438563Y360601D01*
Y360000D01*
Y359399D01*
X438329Y358220D01*
X437868Y357109D01*
X437201Y356110D01*
X436351Y355260D01*
X435351Y354592D01*
X434241Y354132D01*
X433062Y353898D01*
X431860D01*
X430681Y354132D01*
X429570Y354592D01*
X428571Y355260D01*
X427721Y356110D01*
X427053Y357109D01*
X426593Y358220D01*
X426358Y359399D01*
Y360000D01*
Y360601D01*
X426593Y361780D01*
X427053Y362891D01*
X427721Y363890D01*
X428571Y364740D01*
X429570Y365408D01*
X430681Y365868D01*
X431860Y366102D01*
X433062D01*
X434241Y365868D01*
D02*
G37*
G36*
X399319D02*
X400430Y365408D01*
X401429Y364740D01*
X402279Y363890D01*
X402947Y362891D01*
X403407Y361780D01*
X403642Y360601D01*
Y360000D01*
Y359399D01*
X403407Y358220D01*
X402947Y357109D01*
X402279Y356110D01*
X401429Y355260D01*
X400430Y354592D01*
X399319Y354132D01*
X398140Y353898D01*
X396938D01*
X395759Y354132D01*
X394649Y354592D01*
X393649Y355260D01*
X392799Y356110D01*
X392131Y357109D01*
X391671Y358220D01*
X391437Y359399D01*
Y360000D01*
Y360601D01*
X391671Y361780D01*
X392131Y362891D01*
X392799Y363890D01*
X393649Y364740D01*
X394649Y365408D01*
X395759Y365868D01*
X396938Y366102D01*
X398140D01*
X399319Y365868D01*
D02*
G37*
G36*
X434241Y348407D02*
X435351Y347947D01*
X436351Y347279D01*
X437201Y346429D01*
X437868Y345430D01*
X438329Y344319D01*
X438563Y343140D01*
Y342539D01*
Y341938D01*
X438329Y340759D01*
X437868Y339649D01*
X437201Y338649D01*
X436351Y337799D01*
X435351Y337132D01*
X434241Y336671D01*
X433062Y336437D01*
X431860D01*
X430681Y336671D01*
X429570Y337132D01*
X428571Y337799D01*
X427721Y338649D01*
X427053Y339649D01*
X426593Y340759D01*
X426358Y341938D01*
Y342539D01*
Y343140D01*
X426593Y344319D01*
X427053Y345430D01*
X427721Y346429D01*
X428571Y347279D01*
X429570Y347947D01*
X430681Y348407D01*
X431860Y348642D01*
X433062D01*
X434241Y348407D01*
D02*
G37*
G36*
X416780D02*
X417891Y347947D01*
X418890Y347279D01*
X419740Y346429D01*
X420408Y345430D01*
X420868Y344319D01*
X421102Y343140D01*
Y342539D01*
Y341938D01*
X420868Y340759D01*
X420408Y339649D01*
X419740Y338649D01*
X418890Y337799D01*
X417891Y337132D01*
X416780Y336671D01*
X415601Y336437D01*
X414399D01*
X413220Y336671D01*
X412109Y337132D01*
X411110Y337799D01*
X410260Y338649D01*
X409592Y339649D01*
X409132Y340759D01*
X408898Y341938D01*
Y342539D01*
Y343140D01*
X409132Y344319D01*
X409592Y345430D01*
X410260Y346429D01*
X411110Y347279D01*
X412109Y347947D01*
X413220Y348407D01*
X414399Y348642D01*
X415601D01*
X416780Y348407D01*
D02*
G37*
G36*
X399319D02*
X400430Y347947D01*
X401429Y347279D01*
X402279Y346429D01*
X402947Y345430D01*
X403407Y344319D01*
X403642Y343140D01*
Y342539D01*
Y341938D01*
X403407Y340759D01*
X402947Y339649D01*
X402279Y338649D01*
X401429Y337799D01*
X400430Y337132D01*
X399319Y336671D01*
X398140Y336437D01*
X396938D01*
X395759Y336671D01*
X394649Y337132D01*
X393649Y337799D01*
X392799Y338649D01*
X392131Y339649D01*
X391671Y340759D01*
X391437Y341938D01*
Y342539D01*
Y343140D01*
X391671Y344319D01*
X392131Y345430D01*
X392799Y346429D01*
X393649Y347279D01*
X394649Y347947D01*
X395759Y348407D01*
X396938Y348642D01*
X398140D01*
X399319Y348407D01*
D02*
G37*
G36*
X434241Y273328D02*
X435351Y272868D01*
X436351Y272201D01*
X437201Y271351D01*
X437868Y270351D01*
X438329Y269241D01*
X438563Y268062D01*
Y267461D01*
Y266860D01*
X438329Y265681D01*
X437868Y264570D01*
X437201Y263571D01*
X436351Y262721D01*
X435351Y262053D01*
X434241Y261593D01*
X433062Y261358D01*
X431860D01*
X430681Y261593D01*
X429570Y262053D01*
X428571Y262721D01*
X427721Y263571D01*
X427053Y264570D01*
X426593Y265681D01*
X426358Y266860D01*
Y267461D01*
Y268062D01*
X426593Y269241D01*
X427053Y270351D01*
X427721Y271351D01*
X428571Y272201D01*
X429570Y272868D01*
X430681Y273328D01*
X431860Y273563D01*
X433062D01*
X434241Y273328D01*
D02*
G37*
G36*
X416780D02*
X417891Y272868D01*
X418890Y272201D01*
X419740Y271351D01*
X420408Y270351D01*
X420868Y269241D01*
X421102Y268062D01*
Y267461D01*
Y266860D01*
X420868Y265681D01*
X420408Y264570D01*
X419740Y263571D01*
X418890Y262721D01*
X417891Y262053D01*
X416780Y261593D01*
X415601Y261358D01*
X414399D01*
X413220Y261593D01*
X412109Y262053D01*
X411110Y262721D01*
X410260Y263571D01*
X409592Y264570D01*
X409132Y265681D01*
X408898Y266860D01*
Y267461D01*
Y268062D01*
X409132Y269241D01*
X409592Y270351D01*
X410260Y271351D01*
X411110Y272201D01*
X412109Y272868D01*
X413220Y273328D01*
X414399Y273563D01*
X415601D01*
X416780Y273328D01*
D02*
G37*
G36*
X399319D02*
X400430Y272868D01*
X401429Y272201D01*
X402279Y271351D01*
X402947Y270351D01*
X403407Y269241D01*
X403642Y268062D01*
Y267461D01*
Y266860D01*
X403407Y265681D01*
X402947Y264570D01*
X402279Y263571D01*
X401429Y262721D01*
X400430Y262053D01*
X399319Y261593D01*
X398140Y261358D01*
X396938D01*
X395759Y261593D01*
X394649Y262053D01*
X393649Y262721D01*
X392799Y263571D01*
X392131Y264570D01*
X391671Y265681D01*
X391437Y266860D01*
Y267461D01*
Y268062D01*
X391671Y269241D01*
X392131Y270351D01*
X392799Y271351D01*
X393649Y272201D01*
X394649Y272868D01*
X395759Y273328D01*
X396938Y273563D01*
X398140D01*
X399319Y273328D01*
D02*
G37*
G36*
X434241Y255868D02*
X435351Y255408D01*
X436351Y254740D01*
X437201Y253890D01*
X437868Y252890D01*
X438329Y251780D01*
X438563Y250601D01*
Y250000D01*
Y249399D01*
X438329Y248220D01*
X437868Y247109D01*
X437201Y246110D01*
X436351Y245260D01*
X435351Y244592D01*
X434241Y244132D01*
X433062Y243898D01*
X431860D01*
X430681Y244132D01*
X429570Y244592D01*
X428571Y245260D01*
X427721Y246110D01*
X427053Y247109D01*
X426593Y248220D01*
X426358Y249399D01*
Y250000D01*
Y250601D01*
X426593Y251780D01*
X427053Y252890D01*
X427721Y253890D01*
X428571Y254740D01*
X429570Y255408D01*
X430681Y255868D01*
X431860Y256102D01*
X433062D01*
X434241Y255868D01*
D02*
G37*
G36*
X399319D02*
X400430Y255408D01*
X401429Y254740D01*
X402279Y253890D01*
X402947Y252890D01*
X403407Y251780D01*
X403642Y250601D01*
Y250000D01*
Y249399D01*
X403407Y248220D01*
X402947Y247109D01*
X402279Y246110D01*
X401429Y245260D01*
X400430Y244592D01*
X399319Y244132D01*
X398140Y243898D01*
X396938D01*
X395759Y244132D01*
X394649Y244592D01*
X393649Y245260D01*
X392799Y246110D01*
X392131Y247109D01*
X391671Y248220D01*
X391437Y249399D01*
Y250000D01*
Y250601D01*
X391671Y251780D01*
X392131Y252890D01*
X392799Y253890D01*
X393649Y254740D01*
X394649Y255408D01*
X395759Y255868D01*
X396938Y256102D01*
X398140D01*
X399319Y255868D01*
D02*
G37*
G36*
X434241Y238407D02*
X435351Y237947D01*
X436351Y237279D01*
X437201Y236429D01*
X437868Y235430D01*
X438329Y234319D01*
X438563Y233140D01*
Y232539D01*
Y231938D01*
X438329Y230759D01*
X437868Y229649D01*
X437201Y228649D01*
X436351Y227799D01*
X435351Y227132D01*
X434241Y226672D01*
X433062Y226437D01*
X431860D01*
X430681Y226672D01*
X429570Y227132D01*
X428571Y227799D01*
X427721Y228649D01*
X427053Y229649D01*
X426593Y230759D01*
X426358Y231938D01*
Y232539D01*
Y233140D01*
X426593Y234319D01*
X427053Y235430D01*
X427721Y236429D01*
X428571Y237279D01*
X429570Y237947D01*
X430681Y238407D01*
X431860Y238642D01*
X433062D01*
X434241Y238407D01*
D02*
G37*
G36*
X416780D02*
X417891Y237947D01*
X418890Y237279D01*
X419740Y236429D01*
X420408Y235430D01*
X420868Y234319D01*
X421102Y233140D01*
Y232539D01*
Y231938D01*
X420868Y230759D01*
X420408Y229649D01*
X419740Y228649D01*
X418890Y227799D01*
X417891Y227132D01*
X416780Y226672D01*
X415601Y226437D01*
X414399D01*
X413220Y226672D01*
X412109Y227132D01*
X411110Y227799D01*
X410260Y228649D01*
X409592Y229649D01*
X409132Y230759D01*
X408898Y231938D01*
Y232539D01*
Y233140D01*
X409132Y234319D01*
X409592Y235430D01*
X410260Y236429D01*
X411110Y237279D01*
X412109Y237947D01*
X413220Y238407D01*
X414399Y238642D01*
X415601D01*
X416780Y238407D01*
D02*
G37*
G36*
X399319D02*
X400430Y237947D01*
X401429Y237279D01*
X402279Y236429D01*
X402947Y235430D01*
X403407Y234319D01*
X403642Y233140D01*
Y232539D01*
Y231938D01*
X403407Y230759D01*
X402947Y229649D01*
X402279Y228649D01*
X401429Y227799D01*
X400430Y227132D01*
X399319Y226672D01*
X398140Y226437D01*
X396938D01*
X395759Y226672D01*
X394649Y227132D01*
X393649Y227799D01*
X392799Y228649D01*
X392131Y229649D01*
X391671Y230759D01*
X391437Y231938D01*
Y232539D01*
Y233140D01*
X391671Y234319D01*
X392131Y235430D01*
X392799Y236429D01*
X393649Y237279D01*
X394649Y237947D01*
X395759Y238407D01*
X396938Y238642D01*
X398140D01*
X399319Y238407D01*
D02*
G37*
G36*
X259241Y168328D02*
X260351Y167868D01*
X261351Y167201D01*
X262201Y166351D01*
X262868Y165351D01*
X263329Y164241D01*
X263563Y163062D01*
Y162461D01*
Y161860D01*
X263329Y160681D01*
X262868Y159570D01*
X262201Y158571D01*
X261351Y157721D01*
X260351Y157053D01*
X259241Y156593D01*
X258062Y156358D01*
X256860D01*
X255681Y156593D01*
X254570Y157053D01*
X253571Y157721D01*
X252721Y158571D01*
X252053Y159570D01*
X251593Y160681D01*
X251358Y161860D01*
Y162461D01*
Y163062D01*
X251593Y164241D01*
X252053Y165351D01*
X252721Y166351D01*
X253571Y167201D01*
X254570Y167868D01*
X255681Y168328D01*
X256860Y168563D01*
X258062D01*
X259241Y168328D01*
D02*
G37*
G36*
X241780D02*
X242891Y167868D01*
X243890Y167201D01*
X244740Y166351D01*
X245408Y165351D01*
X245868Y164241D01*
X246102Y163062D01*
Y162461D01*
Y161860D01*
X245868Y160681D01*
X245408Y159570D01*
X244740Y158571D01*
X243890Y157721D01*
X242891Y157053D01*
X241780Y156593D01*
X240601Y156358D01*
X239399D01*
X238220Y156593D01*
X237109Y157053D01*
X236110Y157721D01*
X235260Y158571D01*
X234592Y159570D01*
X234132Y160681D01*
X233898Y161860D01*
Y162461D01*
Y163062D01*
X234132Y164241D01*
X234592Y165351D01*
X235260Y166351D01*
X236110Y167201D01*
X237109Y167868D01*
X238220Y168328D01*
X239399Y168563D01*
X240601D01*
X241780Y168328D01*
D02*
G37*
G36*
X224319D02*
X225430Y167868D01*
X226429Y167201D01*
X227279Y166351D01*
X227947Y165351D01*
X228407Y164241D01*
X228642Y163062D01*
Y162461D01*
Y161860D01*
X228407Y160681D01*
X227947Y159570D01*
X227279Y158571D01*
X226429Y157721D01*
X225430Y157053D01*
X224319Y156593D01*
X223140Y156358D01*
X221938D01*
X220759Y156593D01*
X219649Y157053D01*
X218649Y157721D01*
X217799Y158571D01*
X217131Y159570D01*
X216671Y160681D01*
X216437Y161860D01*
Y162461D01*
Y163062D01*
X216671Y164241D01*
X217131Y165351D01*
X217799Y166351D01*
X218649Y167201D01*
X219649Y167868D01*
X220759Y168328D01*
X221938Y168563D01*
X223140D01*
X224319Y168328D01*
D02*
G37*
G36*
X189241D02*
X190351Y167868D01*
X191351Y167201D01*
X192201Y166351D01*
X192868Y165351D01*
X193328Y164241D01*
X193563Y163062D01*
Y162461D01*
Y161860D01*
X193328Y160681D01*
X192868Y159570D01*
X192201Y158571D01*
X191351Y157721D01*
X190351Y157053D01*
X189241Y156593D01*
X188062Y156358D01*
X186860D01*
X185681Y156593D01*
X184570Y157053D01*
X183571Y157721D01*
X182721Y158571D01*
X182053Y159570D01*
X181593Y160681D01*
X181358Y161860D01*
Y162461D01*
Y163062D01*
X181593Y164241D01*
X182053Y165351D01*
X182721Y166351D01*
X183571Y167201D01*
X184570Y167868D01*
X185681Y168328D01*
X186860Y168563D01*
X188062D01*
X189241Y168328D01*
D02*
G37*
G36*
X171780D02*
X172891Y167868D01*
X173890Y167201D01*
X174740Y166351D01*
X175408Y165351D01*
X175868Y164241D01*
X176102Y163062D01*
Y162461D01*
Y161860D01*
X175868Y160681D01*
X175408Y159570D01*
X174740Y158571D01*
X173890Y157721D01*
X172891Y157053D01*
X171780Y156593D01*
X170601Y156358D01*
X169399D01*
X168220Y156593D01*
X167109Y157053D01*
X166110Y157721D01*
X165260Y158571D01*
X164592Y159570D01*
X164132Y160681D01*
X163898Y161860D01*
Y162461D01*
Y163062D01*
X164132Y164241D01*
X164592Y165351D01*
X165260Y166351D01*
X166110Y167201D01*
X167109Y167868D01*
X168220Y168328D01*
X169399Y168563D01*
X170601D01*
X171780Y168328D01*
D02*
G37*
G36*
X154319D02*
X155430Y167868D01*
X156429Y167201D01*
X157279Y166351D01*
X157947Y165351D01*
X158407Y164241D01*
X158642Y163062D01*
Y162461D01*
Y161860D01*
X158407Y160681D01*
X157947Y159570D01*
X157279Y158571D01*
X156429Y157721D01*
X155430Y157053D01*
X154319Y156593D01*
X153140Y156358D01*
X151938D01*
X150759Y156593D01*
X149649Y157053D01*
X148649Y157721D01*
X147799Y158571D01*
X147132Y159570D01*
X146671Y160681D01*
X146437Y161860D01*
Y162461D01*
Y163062D01*
X146671Y164241D01*
X147132Y165351D01*
X147799Y166351D01*
X148649Y167201D01*
X149649Y167868D01*
X150759Y168328D01*
X151938Y168563D01*
X153140D01*
X154319Y168328D01*
D02*
G37*
G36*
X259241Y150868D02*
X260351Y150408D01*
X261351Y149740D01*
X262201Y148890D01*
X262868Y147891D01*
X263329Y146780D01*
X263563Y145601D01*
Y145000D01*
Y144399D01*
X263329Y143220D01*
X262868Y142109D01*
X262201Y141110D01*
X261351Y140260D01*
X260351Y139592D01*
X259241Y139132D01*
X258062Y138898D01*
X256860D01*
X255681Y139132D01*
X254570Y139592D01*
X253571Y140260D01*
X252721Y141110D01*
X252053Y142109D01*
X251593Y143220D01*
X251358Y144399D01*
Y145000D01*
Y145601D01*
X251593Y146780D01*
X252053Y147891D01*
X252721Y148890D01*
X253571Y149740D01*
X254570Y150408D01*
X255681Y150868D01*
X256860Y151102D01*
X258062D01*
X259241Y150868D01*
D02*
G37*
G36*
X224319D02*
X225430Y150408D01*
X226429Y149740D01*
X227279Y148890D01*
X227947Y147891D01*
X228407Y146780D01*
X228642Y145601D01*
Y145000D01*
Y144399D01*
X228407Y143220D01*
X227947Y142109D01*
X227279Y141110D01*
X226429Y140260D01*
X225430Y139592D01*
X224319Y139132D01*
X223140Y138898D01*
X221938D01*
X220759Y139132D01*
X219649Y139592D01*
X218649Y140260D01*
X217799Y141110D01*
X217131Y142109D01*
X216671Y143220D01*
X216437Y144399D01*
Y145000D01*
Y145601D01*
X216671Y146780D01*
X217131Y147891D01*
X217799Y148890D01*
X218649Y149740D01*
X219649Y150408D01*
X220759Y150868D01*
X221938Y151102D01*
X223140D01*
X224319Y150868D01*
D02*
G37*
G36*
X189241D02*
X190351Y150408D01*
X191351Y149740D01*
X192201Y148890D01*
X192868Y147891D01*
X193328Y146780D01*
X193563Y145601D01*
Y145000D01*
Y144399D01*
X193328Y143220D01*
X192868Y142109D01*
X192201Y141110D01*
X191351Y140260D01*
X190351Y139592D01*
X189241Y139132D01*
X188062Y138898D01*
X186860D01*
X185681Y139132D01*
X184570Y139592D01*
X183571Y140260D01*
X182721Y141110D01*
X182053Y142109D01*
X181593Y143220D01*
X181358Y144399D01*
Y145000D01*
Y145601D01*
X181593Y146780D01*
X182053Y147891D01*
X182721Y148890D01*
X183571Y149740D01*
X184570Y150408D01*
X185681Y150868D01*
X186860Y151102D01*
X188062D01*
X189241Y150868D01*
D02*
G37*
G36*
X154319D02*
X155430Y150408D01*
X156429Y149740D01*
X157279Y148890D01*
X157947Y147891D01*
X158407Y146780D01*
X158642Y145601D01*
Y145000D01*
Y144399D01*
X158407Y143220D01*
X157947Y142109D01*
X157279Y141110D01*
X156429Y140260D01*
X155430Y139592D01*
X154319Y139132D01*
X153140Y138898D01*
X151938D01*
X150759Y139132D01*
X149649Y139592D01*
X148649Y140260D01*
X147799Y141110D01*
X147132Y142109D01*
X146671Y143220D01*
X146437Y144399D01*
Y145000D01*
Y145601D01*
X146671Y146780D01*
X147132Y147891D01*
X147799Y148890D01*
X148649Y149740D01*
X149649Y150408D01*
X150759Y150868D01*
X151938Y151102D01*
X153140D01*
X154319Y150868D01*
D02*
G37*
G36*
X259241Y133407D02*
X260351Y132947D01*
X261351Y132279D01*
X262201Y131429D01*
X262868Y130430D01*
X263329Y129319D01*
X263563Y128140D01*
Y127539D01*
Y126938D01*
X263329Y125759D01*
X262868Y124649D01*
X262201Y123649D01*
X261351Y122799D01*
X260351Y122132D01*
X259241Y121671D01*
X258062Y121437D01*
X256860D01*
X255681Y121671D01*
X254570Y122132D01*
X253571Y122799D01*
X252721Y123649D01*
X252053Y124649D01*
X251593Y125759D01*
X251358Y126938D01*
Y127539D01*
Y128140D01*
X251593Y129319D01*
X252053Y130430D01*
X252721Y131429D01*
X253571Y132279D01*
X254570Y132947D01*
X255681Y133407D01*
X256860Y133642D01*
X258062D01*
X259241Y133407D01*
D02*
G37*
G36*
X241780D02*
X242891Y132947D01*
X243890Y132279D01*
X244740Y131429D01*
X245408Y130430D01*
X245868Y129319D01*
X246102Y128140D01*
Y127539D01*
Y126938D01*
X245868Y125759D01*
X245408Y124649D01*
X244740Y123649D01*
X243890Y122799D01*
X242891Y122132D01*
X241780Y121671D01*
X240601Y121437D01*
X239399D01*
X238220Y121671D01*
X237109Y122132D01*
X236110Y122799D01*
X235260Y123649D01*
X234592Y124649D01*
X234132Y125759D01*
X233898Y126938D01*
Y127539D01*
Y128140D01*
X234132Y129319D01*
X234592Y130430D01*
X235260Y131429D01*
X236110Y132279D01*
X237109Y132947D01*
X238220Y133407D01*
X239399Y133642D01*
X240601D01*
X241780Y133407D01*
D02*
G37*
G36*
X224319D02*
X225430Y132947D01*
X226429Y132279D01*
X227279Y131429D01*
X227947Y130430D01*
X228407Y129319D01*
X228642Y128140D01*
Y127539D01*
Y126938D01*
X228407Y125759D01*
X227947Y124649D01*
X227279Y123649D01*
X226429Y122799D01*
X225430Y122132D01*
X224319Y121671D01*
X223140Y121437D01*
X221938D01*
X220759Y121671D01*
X219649Y122132D01*
X218649Y122799D01*
X217799Y123649D01*
X217131Y124649D01*
X216671Y125759D01*
X216437Y126938D01*
Y127539D01*
Y128140D01*
X216671Y129319D01*
X217131Y130430D01*
X217799Y131429D01*
X218649Y132279D01*
X219649Y132947D01*
X220759Y133407D01*
X221938Y133642D01*
X223140D01*
X224319Y133407D01*
D02*
G37*
G36*
X189241D02*
X190351Y132947D01*
X191351Y132279D01*
X192201Y131429D01*
X192868Y130430D01*
X193328Y129319D01*
X193563Y128140D01*
Y127539D01*
Y126938D01*
X193328Y125759D01*
X192868Y124649D01*
X192201Y123649D01*
X191351Y122799D01*
X190351Y122132D01*
X189241Y121671D01*
X188062Y121437D01*
X186860D01*
X185681Y121671D01*
X184570Y122132D01*
X183571Y122799D01*
X182721Y123649D01*
X182053Y124649D01*
X181593Y125759D01*
X181358Y126938D01*
Y127539D01*
Y128140D01*
X181593Y129319D01*
X182053Y130430D01*
X182721Y131429D01*
X183571Y132279D01*
X184570Y132947D01*
X185681Y133407D01*
X186860Y133642D01*
X188062D01*
X189241Y133407D01*
D02*
G37*
G36*
X171780D02*
X172891Y132947D01*
X173890Y132279D01*
X174740Y131429D01*
X175408Y130430D01*
X175868Y129319D01*
X176102Y128140D01*
Y127539D01*
Y126938D01*
X175868Y125759D01*
X175408Y124649D01*
X174740Y123649D01*
X173890Y122799D01*
X172891Y122132D01*
X171780Y121671D01*
X170601Y121437D01*
X169399D01*
X168220Y121671D01*
X167109Y122132D01*
X166110Y122799D01*
X165260Y123649D01*
X164592Y124649D01*
X164132Y125759D01*
X163898Y126938D01*
Y127539D01*
Y128140D01*
X164132Y129319D01*
X164592Y130430D01*
X165260Y131429D01*
X166110Y132279D01*
X167109Y132947D01*
X168220Y133407D01*
X169399Y133642D01*
X170601D01*
X171780Y133407D01*
D02*
G37*
G36*
X154319D02*
X155430Y132947D01*
X156429Y132279D01*
X157279Y131429D01*
X157947Y130430D01*
X158407Y129319D01*
X158642Y128140D01*
Y127539D01*
Y126938D01*
X158407Y125759D01*
X157947Y124649D01*
X157279Y123649D01*
X156429Y122799D01*
X155430Y122132D01*
X154319Y121671D01*
X153140Y121437D01*
X151938D01*
X150759Y121671D01*
X149649Y122132D01*
X148649Y122799D01*
X147799Y123649D01*
X147132Y124649D01*
X146671Y125759D01*
X146437Y126938D01*
Y127539D01*
Y128140D01*
X146671Y129319D01*
X147132Y130430D01*
X147799Y131429D01*
X148649Y132279D01*
X149649Y132947D01*
X150759Y133407D01*
X151938Y133642D01*
X153140D01*
X154319Y133407D01*
D02*
G37*
D18*
X106442Y303213D02*
D03*
Y267387D02*
D03*
X124158Y303213D02*
D03*
Y267387D02*
D03*
D19*
X263000Y400748D02*
D03*
Y394252D02*
D03*
X129700Y319148D02*
D03*
Y312652D02*
D03*
X235000Y323248D02*
D03*
Y316752D02*
D03*
X223000Y323248D02*
D03*
Y316752D02*
D03*
X211000D02*
D03*
Y323248D02*
D03*
X285500Y203952D02*
D03*
Y210448D02*
D03*
X168800Y247552D02*
D03*
Y254048D02*
D03*
X209400Y248648D02*
D03*
Y242152D02*
D03*
X214700Y248448D02*
D03*
Y241952D02*
D03*
X165900Y264152D02*
D03*
Y270648D02*
D03*
X248000Y394252D02*
D03*
Y400748D02*
D03*
X243000D02*
D03*
Y394252D02*
D03*
X238000Y400748D02*
D03*
Y394252D02*
D03*
X253000Y400748D02*
D03*
Y394252D02*
D03*
X233000Y400748D02*
D03*
Y394252D02*
D03*
X258000Y400748D02*
D03*
Y394252D02*
D03*
D20*
X203504Y391000D02*
D03*
X210000D02*
D03*
X257648Y235200D02*
D03*
X251152D02*
D03*
X251900Y222100D02*
D03*
X258396D02*
D03*
Y216800D02*
D03*
X251900D02*
D03*
X180148Y255000D02*
D03*
X173652D02*
D03*
X180148Y249900D02*
D03*
X173652D02*
D03*
X224248Y404500D02*
D03*
X217752D02*
D03*
X207252Y209700D02*
D03*
X213748D02*
D03*
X151752Y429500D02*
D03*
X158248D02*
D03*
X258348Y206400D02*
D03*
X251852D02*
D03*
X258348Y211700D02*
D03*
X251852D02*
D03*
X207352Y220000D02*
D03*
X213848D02*
D03*
X207252Y214800D02*
D03*
X213748D02*
D03*
X213948Y233200D02*
D03*
X207452D02*
D03*
X251900Y201100D02*
D03*
X258396D02*
D03*
D21*
X203700Y377350D02*
D03*
Y383650D02*
D03*
X376000Y308000D02*
D03*
Y301701D02*
D03*
X319600Y357350D02*
D03*
Y363650D02*
D03*
X375300Y419050D02*
D03*
Y412750D02*
D03*
X312000Y465850D02*
D03*
Y472150D02*
D03*
X376000Y192000D02*
D03*
Y198299D02*
D03*
X311300Y252950D02*
D03*
Y246650D02*
D03*
D22*
X196500Y415858D02*
D03*
Y423142D02*
D03*
X161900Y458842D02*
D03*
Y451558D02*
D03*
X123000Y313158D02*
D03*
Y320442D02*
D03*
X279200Y204458D02*
D03*
Y211742D02*
D03*
X169800Y275658D02*
D03*
Y282942D02*
D03*
X241000Y317358D02*
D03*
Y324642D02*
D03*
X162400Y197458D02*
D03*
Y204742D02*
D03*
X229000Y324500D02*
D03*
Y317216D02*
D03*
X217000Y324642D02*
D03*
Y317358D02*
D03*
X194700Y297858D02*
D03*
Y305142D02*
D03*
X142100Y266158D02*
D03*
Y273442D02*
D03*
X136900Y319342D02*
D03*
Y312058D02*
D03*
X151500Y376642D02*
D03*
Y369358D02*
D03*
X144000D02*
D03*
Y376642D02*
D03*
X199000Y324642D02*
D03*
Y317358D02*
D03*
X161000Y305642D02*
D03*
Y298358D02*
D03*
Y284358D02*
D03*
Y291642D02*
D03*
X132000Y297658D02*
D03*
Y304942D02*
D03*
X170000Y410783D02*
D03*
Y403500D02*
D03*
X201800Y297858D02*
D03*
Y305142D02*
D03*
D23*
X132400Y411400D02*
D03*
Y420900D02*
D03*
X143900Y443200D02*
D03*
X163600Y252000D02*
D03*
X157700Y252100D02*
D03*
X172200Y264600D02*
D03*
X146100Y255100D02*
D03*
X147253Y248467D02*
D03*
X325000Y330000D02*
D03*
Y440000D02*
D03*
Y390000D02*
D03*
Y280000D02*
D03*
Y180000D02*
D03*
Y220000D02*
D03*
D24*
X181559Y272746D02*
D03*
X189827D02*
D03*
D25*
X197858Y361000D02*
D03*
X205142D02*
D03*
X220558Y246700D02*
D03*
X227842D02*
D03*
X251758Y229000D02*
D03*
X259042D02*
D03*
X301142Y217800D02*
D03*
X293858D02*
D03*
X169342Y191100D02*
D03*
X162058D02*
D03*
X201442Y242600D02*
D03*
X194158D02*
D03*
X194758Y195400D02*
D03*
X202042D02*
D03*
X189542Y205000D02*
D03*
X182258D02*
D03*
X149242Y236500D02*
D03*
X141958D02*
D03*
X148058Y204000D02*
D03*
X155342D02*
D03*
X182358Y417000D02*
D03*
X189642D02*
D03*
X213142Y203300D02*
D03*
X205858D02*
D03*
X252500Y194900D02*
D03*
X259784D02*
D03*
X213342Y226900D02*
D03*
X206058D02*
D03*
X223642Y417500D02*
D03*
X216358D02*
D03*
Y410500D02*
D03*
X223642D02*
D03*
X189642Y424000D02*
D03*
X182358D02*
D03*
X205142Y353500D02*
D03*
X197858D02*
D03*
D26*
X242600Y232600D02*
D03*
Y227600D02*
D03*
Y222600D02*
D03*
Y217600D02*
D03*
Y212600D02*
D03*
Y207600D02*
D03*
Y202600D02*
D03*
X223200D02*
D03*
Y207600D02*
D03*
Y212600D02*
D03*
Y217600D02*
D03*
Y222600D02*
D03*
Y227600D02*
D03*
Y232600D02*
D03*
D27*
X171800Y227800D02*
D03*
D28*
X160186Y218942D02*
D03*
Y220910D02*
D03*
Y222879D02*
D03*
Y224847D02*
D03*
Y226816D02*
D03*
Y228784D02*
D03*
Y230753D02*
D03*
Y232721D02*
D03*
Y234690D02*
D03*
Y236658D02*
D03*
X183414D02*
D03*
Y234690D02*
D03*
Y232721D02*
D03*
Y230753D02*
D03*
Y228784D02*
D03*
Y226816D02*
D03*
Y224847D02*
D03*
Y222879D02*
D03*
Y220910D02*
D03*
Y218942D02*
D03*
D29*
X162942Y239414D02*
D03*
X164910D02*
D03*
X166879D02*
D03*
X168847D02*
D03*
X170816D02*
D03*
X172784D02*
D03*
X174753D02*
D03*
X176721D02*
D03*
X178690D02*
D03*
X180658D02*
D03*
Y216186D02*
D03*
X178690D02*
D03*
X176721D02*
D03*
X174753D02*
D03*
X172784D02*
D03*
X170816D02*
D03*
X168847D02*
D03*
X166879D02*
D03*
X164910D02*
D03*
X162942D02*
D03*
D30*
X291779Y210840D02*
D03*
Y207100D02*
D03*
Y203360D02*
D03*
X301621D02*
D03*
Y210840D02*
D03*
D31*
X151800Y196604D02*
D03*
Y184596D02*
D03*
D32*
X144547Y322736D02*
D03*
Y324705D02*
D03*
Y326673D02*
D03*
Y328642D02*
D03*
Y330610D02*
D03*
Y332579D02*
D03*
Y334547D02*
D03*
Y336516D02*
D03*
Y338484D02*
D03*
Y340453D02*
D03*
Y342421D02*
D03*
Y344390D02*
D03*
Y346358D02*
D03*
Y348327D02*
D03*
Y350295D02*
D03*
Y352264D02*
D03*
X189823Y338484D02*
D03*
Y340453D02*
D03*
Y342421D02*
D03*
Y344390D02*
D03*
Y346358D02*
D03*
Y348327D02*
D03*
Y350295D02*
D03*
Y352264D02*
D03*
Y322736D02*
D03*
Y324705D02*
D03*
Y326673D02*
D03*
Y328642D02*
D03*
Y330610D02*
D03*
Y332579D02*
D03*
Y334547D02*
D03*
Y336516D02*
D03*
D33*
X152421Y360138D02*
D03*
X154390D02*
D03*
X156358D02*
D03*
X158327D02*
D03*
X160295D02*
D03*
X162264D02*
D03*
X164232D02*
D03*
X166201D02*
D03*
X168169D02*
D03*
X170138D02*
D03*
X172106D02*
D03*
X174075D02*
D03*
X176043D02*
D03*
X178012D02*
D03*
X179980D02*
D03*
X181949D02*
D03*
X152421Y314862D02*
D03*
X154390D02*
D03*
X156358D02*
D03*
X158327D02*
D03*
X160295D02*
D03*
X162264D02*
D03*
X164232D02*
D03*
X166201D02*
D03*
X168169D02*
D03*
X170138D02*
D03*
X172106D02*
D03*
X174075D02*
D03*
X176043D02*
D03*
X178012D02*
D03*
X179980D02*
D03*
X181949D02*
D03*
D34*
X313950Y169600D02*
D03*
X320250D02*
D03*
D35*
X147894Y421520D02*
D03*
X152894D02*
D03*
X157894D02*
D03*
X162894D02*
D03*
Y400063D02*
D03*
X157894D02*
D03*
X152894D02*
D03*
X147894D02*
D03*
D36*
X150976Y273237D02*
D03*
Y271269D02*
D03*
Y269300D02*
D03*
Y267332D02*
D03*
Y265363D02*
D03*
X160424D02*
D03*
Y267332D02*
D03*
Y269300D02*
D03*
Y271269D02*
D03*
Y273237D02*
D03*
D37*
X153732Y264576D02*
D03*
X155700D02*
D03*
X157668D02*
D03*
Y274024D02*
D03*
X155700D02*
D03*
X153732D02*
D03*
D38*
X254673Y424165D02*
D03*
Y421606D02*
D03*
Y419047D02*
D03*
Y416488D02*
D03*
Y413929D02*
D03*
Y411370D02*
D03*
Y408811D02*
D03*
Y406252D02*
D03*
X231539D02*
D03*
Y408811D02*
D03*
Y411370D02*
D03*
Y413929D02*
D03*
Y416488D02*
D03*
Y419047D02*
D03*
Y421606D02*
D03*
Y424165D02*
D03*
D39*
X186894Y382390D02*
D03*
D40*
X177839Y407193D02*
D03*
X186894D02*
D03*
X195949D02*
D03*
D41*
X153547Y495957D02*
D03*
D42*
X109354Y489756D02*
D03*
D43*
X108075Y483850D02*
D03*
D44*
X109059Y453929D02*
D03*
D45*
X113784Y453437D02*
D03*
X118114D02*
D03*
X122445D02*
D03*
X126776D02*
D03*
X131106D02*
D03*
X135437D02*
D03*
X139768D02*
D03*
X144098D02*
D03*
D46*
X153744Y453929D02*
D03*
D47*
X155122Y486410D02*
D03*
D48*
X149000Y289000D02*
D03*
Y300500D02*
D03*
M02*
