G04*
G04 #@! TF.GenerationSoftware,Altium Limited,Altium Designer,21.2.2 (38)*
G04*
G04 Layer_Color=8388736*
%FSLAX25Y25*%
%MOIN*%
G70*
G04*
G04 #@! TF.SameCoordinates,C3B877AE-1357-438A-BEA6-5EF708E32FCF*
G04*
G04*
G04 #@! TF.FilePolarity,Negative*
G04*
G01*
G75*
%ADD27R,0.05524X0.01981*%
%ADD28R,0.01981X0.05524*%
%ADD29R,0.04147X0.03556*%
%ADD30R,0.09068X0.06312*%
%ADD31R,0.06115X0.04737*%
%ADD32R,0.03556X0.04147*%
%ADD33R,0.04737X0.06115*%
%ADD34R,0.04540X0.07690*%
%ADD35R,0.13398X0.07690*%
%ADD36R,0.06607X0.02572*%
%ADD37R,0.08280X0.10249*%
%ADD38R,0.08600X0.03000*%
%ADD39C,0.06706*%
%ADD40R,0.06706X0.06706*%
%ADD41C,0.24422*%
%ADD42R,0.06706X0.06706*%
%ADD43C,0.03359*%
D27*
X269362Y197142D02*
D03*
X314638Y220764D02*
D03*
X269362Y199110D02*
D03*
Y191236D02*
D03*
Y193205D02*
D03*
Y195173D02*
D03*
Y201079D02*
D03*
Y203047D02*
D03*
Y205016D02*
D03*
Y206984D02*
D03*
Y208953D02*
D03*
Y210921D02*
D03*
Y212890D02*
D03*
Y214858D02*
D03*
Y216827D02*
D03*
Y218795D02*
D03*
Y220764D02*
D03*
X314638Y191236D02*
D03*
Y193205D02*
D03*
Y195173D02*
D03*
Y197142D02*
D03*
Y199110D02*
D03*
Y201079D02*
D03*
Y203047D02*
D03*
Y205016D02*
D03*
Y206984D02*
D03*
Y208953D02*
D03*
Y210921D02*
D03*
Y212890D02*
D03*
Y214858D02*
D03*
Y216827D02*
D03*
Y218795D02*
D03*
D28*
X281173Y183362D02*
D03*
X306764D02*
D03*
X277236Y228638D02*
D03*
X279205D02*
D03*
X285110D02*
D03*
X279205Y183362D02*
D03*
X291016D02*
D03*
X289047D02*
D03*
X287079D02*
D03*
X285110D02*
D03*
X283142D02*
D03*
X277236D02*
D03*
X304795D02*
D03*
X302827D02*
D03*
X300858D02*
D03*
X298890D02*
D03*
X296921D02*
D03*
X294953D02*
D03*
X292984D02*
D03*
X306764Y228638D02*
D03*
X304795D02*
D03*
X302827D02*
D03*
X300858D02*
D03*
X298890D02*
D03*
X296921D02*
D03*
X294953D02*
D03*
X292984D02*
D03*
X291016D02*
D03*
X289047D02*
D03*
X287079D02*
D03*
X283142D02*
D03*
X281173D02*
D03*
D29*
X263500Y241248D02*
D03*
Y234752D02*
D03*
X216000Y170748D02*
D03*
Y164252D02*
D03*
X229500Y153248D02*
D03*
Y146752D02*
D03*
D30*
X307413Y262858D02*
D03*
X271587D02*
D03*
Y245142D02*
D03*
X307413D02*
D03*
D31*
X303500Y175642D02*
D03*
Y168358D02*
D03*
X207500Y176358D02*
D03*
Y183642D02*
D03*
X224000Y164000D02*
D03*
Y171283D02*
D03*
X221000Y147343D02*
D03*
Y154626D02*
D03*
X251000Y187858D02*
D03*
X219500Y226642D02*
D03*
X177000Y154358D02*
D03*
X317500Y251638D02*
D03*
X219500Y219358D02*
D03*
Y208142D02*
D03*
X177000Y161642D02*
D03*
X251000Y195142D02*
D03*
X219500Y200858D02*
D03*
X317500Y244354D02*
D03*
D32*
X193248Y176000D02*
D03*
X186752D02*
D03*
X171752Y144000D02*
D03*
X178248D02*
D03*
X243252Y170500D02*
D03*
X249748D02*
D03*
D33*
X178642Y136500D02*
D03*
X171358D02*
D03*
X287642Y138000D02*
D03*
X280358D02*
D03*
X317642Y174953D02*
D03*
X310358D02*
D03*
X236858Y178000D02*
D03*
X244142D02*
D03*
Y187000D02*
D03*
X271142Y175000D02*
D03*
X324358Y226000D02*
D03*
X276858Y236500D02*
D03*
X231358Y209000D02*
D03*
X252642Y231000D02*
D03*
X236858Y187000D02*
D03*
X331642Y218061D02*
D03*
X263858Y175000D02*
D03*
X331642Y226000D02*
D03*
X284142Y236500D02*
D03*
X324358Y218061D02*
D03*
X245358Y231000D02*
D03*
X238642Y209000D02*
D03*
D34*
X210112Y200872D02*
D03*
X192002D02*
D03*
X201057D02*
D03*
D35*
Y225676D02*
D03*
D36*
X310067Y149161D02*
D03*
X286933Y144043D02*
D03*
Y146602D02*
D03*
Y149161D02*
D03*
Y151720D02*
D03*
Y154279D02*
D03*
Y156839D02*
D03*
Y159398D02*
D03*
Y161957D02*
D03*
X310067D02*
D03*
Y159398D02*
D03*
Y156839D02*
D03*
Y154279D02*
D03*
Y151720D02*
D03*
Y146602D02*
D03*
Y144043D02*
D03*
D37*
X238929Y219500D02*
D03*
X255071D02*
D03*
D38*
X187300Y154000D02*
D03*
X206700D02*
D03*
Y169000D02*
D03*
Y164000D02*
D03*
Y159000D02*
D03*
Y149000D02*
D03*
Y144000D02*
D03*
Y139000D02*
D03*
X187300D02*
D03*
Y144000D02*
D03*
Y149000D02*
D03*
Y159000D02*
D03*
Y164000D02*
D03*
Y169000D02*
D03*
D39*
X345000Y186500D02*
D03*
Y176500D02*
D03*
Y196500D02*
D03*
Y206500D02*
D03*
Y226500D02*
D03*
Y216500D02*
D03*
X340000Y125500D02*
D03*
Y115500D02*
D03*
X330000Y125500D02*
D03*
Y115500D02*
D03*
X320000Y125500D02*
D03*
Y115500D02*
D03*
X310000Y125500D02*
D03*
Y115500D02*
D03*
X300000Y125500D02*
D03*
Y115500D02*
D03*
X290000Y125500D02*
D03*
Y115500D02*
D03*
X280000Y125500D02*
D03*
Y115500D02*
D03*
X270000Y125500D02*
D03*
Y115500D02*
D03*
X260000Y125500D02*
D03*
Y115500D02*
D03*
X250000Y125500D02*
D03*
Y115500D02*
D03*
X240000Y125500D02*
D03*
Y115500D02*
D03*
X230000Y125500D02*
D03*
Y115500D02*
D03*
X220000Y125500D02*
D03*
Y115500D02*
D03*
X210000Y125500D02*
D03*
Y115500D02*
D03*
X200000Y125500D02*
D03*
Y115500D02*
D03*
X190000Y125500D02*
D03*
Y115500D02*
D03*
X180000Y125500D02*
D03*
Y115500D02*
D03*
X170000Y125500D02*
D03*
D40*
X345000Y236500D02*
D03*
D41*
X350000Y150000D02*
D03*
X170000Y255000D02*
D03*
D42*
Y115500D02*
D03*
D43*
X210000Y193500D02*
D03*
X317000Y146000D02*
D03*
X244500Y193000D02*
D03*
X293500Y137500D02*
D03*
X300215Y149990D02*
D03*
X320000Y232500D02*
D03*
X236500Y193000D02*
D03*
X214500Y179000D02*
D03*
X268500Y238500D02*
D03*
X275000Y209000D02*
D03*
X294500Y240000D02*
D03*
X263000Y219500D02*
D03*
X248500Y204000D02*
D03*
X310500Y167500D02*
D03*
X267500Y168500D02*
D03*
X319000Y167500D02*
D03*
X172500Y149000D02*
D03*
X257836Y234586D02*
D03*
X249748Y163500D02*
D03*
X305500Y139500D02*
D03*
X319000Y150500D02*
D03*
X316721Y154251D02*
D03*
M02*
