M48
;Layer_Color=9474304
;FILE_FORMAT=2:5
INCH,TZ
;TYPE=PLATED
T1F00S00C0.01378
T2F00S00C0.03543
T3F00S00C0.11811
T4F00S00C0.12598
%
T01
X195000Y120000
X225000
X217500Y135000
X255000Y120000
X285000
X293500Y137500
X305500Y139500
X300215Y149990
X172500Y149000
X317000Y146000
X319000Y150500
X316721Y154251
X352500Y135000
X345000Y120000
X352500Y165000
X337500
X319000Y167500
X315000Y180000
X330000Y210000
X320000Y232500
X322500Y255000
X337500
X352500
Y225000
Y195000
X307500
X292500
X277500
X275000Y209000
X285000Y210000
X300000
X294500Y240000
X292500Y255000
X307500
X277500
X262500
X247500
X232500
X217500
X202500
X187500
X195000Y240000
X210000
X225000
X240000
X255000
X257836Y234586
X268500Y238500
X263000Y219000
X248500Y204000
X244500Y193000
X236500
X210000Y193500
Y210000
X225000
X232500Y225000
X187500
X172500
X180000Y240000
X165000
Y210000
X180000
X195000
X187500Y195000
X172500
X165000Y180000
X214500Y179000
X233279Y165000
X249748Y163500
X262500Y165000
X267500Y168500
X310500Y167500
T02
X170000Y115500
X180000
X190000
X200000
X210000
X220000
X230000
X240000
X250000
X260000
X270000
X280000
X290000
X300000
X310000
Y125500
X300000
X290000
X280000
X270000
X260000
X250000
X240000
X230000
X220000
X210000
X200000
X190000
X180000
X170000
X320000
X330000
X340000
Y115500
X330000
X320000
X345000Y176500
Y186500
Y196500
Y206500
Y216500
Y226500
Y236500
T03
X350000Y150000
T04
X170000Y255000
M30
