G04*
G04 #@! TF.GenerationSoftware,Altium Limited,Altium Designer,21.2.2 (38)*
G04*
G04 Layer_Color=65535*
%FSLAX25Y25*%
%MOIN*%
G70*
G04*
G04 #@! TF.SameCoordinates,52F74DFF-F1B3-44F2-A22A-B2578409EFCC*
G04*
G04*
G04 #@! TF.FilePolarity,Positive*
G04*
G01*
G75*
%ADD10C,0.02756*%
%ADD11C,0.00600*%
%ADD12C,0.00787*%
%ADD13C,0.01000*%
%ADD14C,0.00700*%
G36*
X186651Y265611D02*
X186538D01*
Y265499D01*
Y265387D01*
Y265275D01*
X186426D01*
Y265163D01*
Y265051D01*
Y264938D01*
X186314D01*
Y264826D01*
Y264714D01*
X186202D01*
Y264602D01*
Y264490D01*
Y264378D01*
X186090D01*
Y264266D01*
Y264154D01*
X185978D01*
Y264041D01*
Y263929D01*
X185865D01*
Y263817D01*
Y263705D01*
X185753D01*
Y263593D01*
Y263481D01*
X185641D01*
Y263369D01*
Y263256D01*
X185529D01*
Y263144D01*
X185417D01*
Y263032D01*
Y262920D01*
X185305D01*
Y262808D01*
X185193D01*
Y262696D01*
X185081D01*
Y262584D01*
X184856D01*
Y262472D01*
X184520D01*
Y262359D01*
X183735D01*
Y262472D01*
X183399D01*
Y262584D01*
X183174D01*
Y262696D01*
X183062D01*
Y262808D01*
X182950D01*
Y262920D01*
X182838D01*
Y263032D01*
X182726D01*
Y263144D01*
Y263256D01*
X182614D01*
Y263369D01*
Y263481D01*
X182501D01*
Y263593D01*
Y263705D01*
Y263817D01*
Y263929D01*
Y264041D01*
Y264154D01*
Y264266D01*
Y264378D01*
Y264490D01*
Y264602D01*
X182614D01*
Y264714D01*
Y264826D01*
X182726D01*
Y264938D01*
Y265051D01*
X182838D01*
Y265163D01*
X182950D01*
Y265275D01*
X183062D01*
Y265387D01*
X183174D01*
Y265499D01*
X183511D01*
Y265611D01*
X184071D01*
Y265723D01*
X186651D01*
Y265611D01*
D02*
G37*
G36*
X252921Y262808D02*
X253370D01*
Y262696D01*
X253706D01*
Y262584D01*
X253930D01*
Y262472D01*
X254155D01*
Y262359D01*
X254267D01*
Y262247D01*
X254491D01*
Y262135D01*
X254603D01*
Y262023D01*
X254715D01*
Y261911D01*
X254940D01*
Y261799D01*
X255052D01*
Y261687D01*
Y261574D01*
X255164D01*
Y261462D01*
X255276D01*
Y261350D01*
X255388D01*
Y261238D01*
Y261126D01*
X255500D01*
Y261014D01*
Y260902D01*
X255612D01*
Y260789D01*
Y260677D01*
X255725D01*
Y260565D01*
Y260453D01*
X255837D01*
Y260341D01*
Y260229D01*
Y260117D01*
Y260005D01*
X255949D01*
Y259893D01*
Y259780D01*
Y259668D01*
Y259556D01*
Y259444D01*
Y259332D01*
Y259220D01*
Y259107D01*
Y258995D01*
Y258883D01*
Y258771D01*
Y258659D01*
Y258547D01*
Y258435D01*
Y258323D01*
Y258210D01*
Y258098D01*
X255837D01*
Y257986D01*
Y257874D01*
Y257762D01*
Y257650D01*
X255725D01*
Y257538D01*
Y257425D01*
Y257313D01*
X255612D01*
Y257201D01*
Y257089D01*
Y256977D01*
X255500D01*
Y256865D01*
Y256753D01*
X255388D01*
Y256641D01*
Y256528D01*
X255276D01*
Y256416D01*
Y256304D01*
X255164D01*
Y256192D01*
Y256080D01*
X255052D01*
Y255968D01*
X254940D01*
Y255856D01*
X254827D01*
Y255744D01*
Y255631D01*
X254715D01*
Y255519D01*
X254603D01*
Y255407D01*
X254491D01*
Y255295D01*
X254379D01*
Y255183D01*
X254267D01*
Y255071D01*
X254155D01*
Y254959D01*
X253930D01*
Y254847D01*
X253818D01*
Y254734D01*
X253594D01*
Y254622D01*
X253482D01*
Y254510D01*
X253258D01*
Y254398D01*
X253033D01*
Y254286D01*
X252697D01*
Y254174D01*
X252361D01*
Y254062D01*
X251912D01*
Y253949D01*
X250006D01*
Y254062D01*
X249557D01*
Y254174D01*
X249221D01*
Y254286D01*
X248884D01*
Y254398D01*
X248660D01*
Y254510D01*
X248548D01*
Y254622D01*
X248324D01*
Y254734D01*
X248212D01*
Y254847D01*
X248099D01*
Y254959D01*
X247875D01*
Y255071D01*
X247763D01*
Y255183D01*
Y255295D01*
X247651D01*
Y255407D01*
X247763D01*
Y255519D01*
Y255631D01*
X247875D01*
Y255744D01*
Y255856D01*
Y255968D01*
X247987D01*
Y256080D01*
Y256192D01*
Y256304D01*
X248099D01*
Y256416D01*
Y256528D01*
Y256641D01*
Y256753D01*
Y256865D01*
Y256977D01*
X247875D01*
Y256865D01*
X247763D01*
Y256753D01*
Y256641D01*
X247651D01*
Y256528D01*
Y256416D01*
X247539D01*
Y256304D01*
Y256192D01*
X247427D01*
Y256080D01*
X247315D01*
Y255968D01*
Y255856D01*
X247202D01*
Y255744D01*
X247090D01*
Y255631D01*
X246978D01*
Y255519D01*
X246866D01*
Y255407D01*
X246754D01*
Y255295D01*
X246642D01*
Y255183D01*
X246530D01*
Y255071D01*
X246417D01*
Y254959D01*
X246305D01*
Y254847D01*
X246081D01*
Y254734D01*
X245969D01*
Y254622D01*
X245745D01*
Y254510D01*
X245520D01*
Y254398D01*
X245296D01*
Y254286D01*
X245072D01*
Y254174D01*
X244735D01*
Y254062D01*
X244287D01*
Y253949D01*
X242268D01*
Y254062D01*
X241820D01*
Y254174D01*
X241484D01*
Y254286D01*
X241259D01*
Y254398D01*
X241035D01*
Y254510D01*
X240811D01*
Y254622D01*
X240699D01*
Y254734D01*
X240474D01*
Y254847D01*
X240362D01*
Y254959D01*
X240250D01*
Y255071D01*
X240138D01*
Y255183D01*
X240026D01*
Y255295D01*
X239914D01*
Y255407D01*
X239802D01*
Y255519D01*
Y255631D01*
X239689D01*
Y255744D01*
X239577D01*
Y255856D01*
Y255968D01*
X239465D01*
Y256080D01*
Y256192D01*
X239353D01*
Y256304D01*
Y256416D01*
Y256528D01*
X239241D01*
Y256641D01*
Y256753D01*
Y256865D01*
Y256977D01*
X239129D01*
Y257089D01*
Y257201D01*
Y257313D01*
Y257425D01*
Y257538D01*
Y257650D01*
Y257762D01*
Y257874D01*
Y257986D01*
Y258098D01*
Y258210D01*
Y258323D01*
Y258435D01*
Y258547D01*
Y258659D01*
Y258771D01*
X239241D01*
Y258883D01*
Y258995D01*
Y259107D01*
Y259220D01*
X239353D01*
Y259332D01*
Y259444D01*
Y259556D01*
X239465D01*
Y259668D01*
Y259780D01*
Y259893D01*
X239577D01*
Y260005D01*
Y260117D01*
X239689D01*
Y260229D01*
Y260341D01*
X239802D01*
Y260453D01*
Y260565D01*
X239914D01*
Y260677D01*
Y260789D01*
X240026D01*
Y260902D01*
X240138D01*
Y261014D01*
X240250D01*
Y261126D01*
Y261238D01*
X240362D01*
Y261350D01*
X240474D01*
Y261462D01*
X240586D01*
Y261574D01*
X240699D01*
Y261687D01*
X240811D01*
Y261799D01*
X240923D01*
Y261911D01*
X241147D01*
Y262023D01*
X241259D01*
Y262135D01*
X241371D01*
Y262247D01*
X241596D01*
Y262359D01*
X241820D01*
Y262472D01*
X242044D01*
Y262584D01*
X242268D01*
Y262696D01*
X242605D01*
Y262808D01*
X243053D01*
Y262920D01*
X245184D01*
Y262808D01*
X245633D01*
Y262696D01*
X245969D01*
Y262584D01*
X246193D01*
Y262472D01*
X246417D01*
Y262359D01*
X246642D01*
Y262247D01*
X246754D01*
Y262135D01*
X246978D01*
Y262023D01*
X247090D01*
Y261911D01*
X247202D01*
Y261799D01*
X247315D01*
Y261687D01*
X247427D01*
Y261574D01*
X247315D01*
Y261462D01*
Y261350D01*
Y261238D01*
X247202D01*
Y261126D01*
Y261014D01*
X247090D01*
Y260902D01*
Y260789D01*
Y260677D01*
Y260565D01*
Y260453D01*
X246978D01*
Y260341D01*
Y260229D01*
Y260117D01*
Y260005D01*
Y259893D01*
X247202D01*
Y260005D01*
X247315D01*
Y260117D01*
Y260229D01*
Y260341D01*
X247427D01*
Y260453D01*
X247539D01*
Y260565D01*
Y260677D01*
X247651D01*
Y260789D01*
Y260902D01*
X247763D01*
Y261014D01*
X247875D01*
Y261126D01*
X247987D01*
Y261238D01*
Y261350D01*
X248099D01*
Y261462D01*
X248212D01*
Y261574D01*
X248324D01*
Y261687D01*
X248436D01*
Y261799D01*
X248660D01*
Y261911D01*
X248772D01*
Y262023D01*
X248884D01*
Y262135D01*
X249109D01*
Y262247D01*
X249221D01*
Y262359D01*
X249445D01*
Y262472D01*
X249669D01*
Y262584D01*
X250006D01*
Y262696D01*
X250342D01*
Y262808D01*
X250791D01*
Y262920D01*
X252921D01*
Y262808D01*
D02*
G37*
G36*
X224103Y262696D02*
X223991D01*
Y262584D01*
Y262472D01*
X223879D01*
Y262359D01*
Y262247D01*
X223766D01*
Y262135D01*
X223654D01*
Y262023D01*
X223542D01*
Y261911D01*
X223430D01*
Y261799D01*
X223206D01*
Y261687D01*
X222982D01*
Y261574D01*
X219281D01*
Y261462D01*
Y261350D01*
Y261238D01*
X219169D01*
Y261126D01*
Y261014D01*
Y260902D01*
Y260789D01*
Y260677D01*
X219057D01*
Y260565D01*
Y260453D01*
Y260341D01*
Y260229D01*
X218945D01*
Y260117D01*
Y260005D01*
Y259893D01*
Y259780D01*
X218833D01*
Y259668D01*
Y259556D01*
Y259444D01*
Y259332D01*
X218721D01*
Y259220D01*
X218945D01*
Y259107D01*
X223206D01*
Y258995D01*
X223094D01*
Y258883D01*
Y258771D01*
X222982D01*
Y258659D01*
X222869D01*
Y258547D01*
Y258435D01*
X222757D01*
Y258323D01*
X222645D01*
Y258210D01*
X222533D01*
Y258098D01*
X222309D01*
Y257986D01*
X221972D01*
Y258098D01*
X221748D01*
Y257986D01*
X221860D01*
Y257874D01*
X218496D01*
Y257762D01*
Y257650D01*
X218384D01*
Y257538D01*
Y257425D01*
Y257313D01*
Y257201D01*
X218272D01*
Y257089D01*
Y256977D01*
Y256865D01*
Y256753D01*
Y256641D01*
X218160D01*
Y256528D01*
Y256416D01*
Y256304D01*
Y256192D01*
X218048D01*
Y256080D01*
Y255968D01*
Y255856D01*
Y255744D01*
X217936D01*
Y255631D01*
Y255519D01*
Y255407D01*
X218048D01*
Y255295D01*
X222421D01*
Y255183D01*
X222309D01*
Y255071D01*
Y254959D01*
X222197D01*
Y254847D01*
Y254734D01*
X222084D01*
Y254622D01*
X221972D01*
Y254510D01*
X221860D01*
Y254398D01*
X221748D01*
Y254286D01*
X221524D01*
Y254174D01*
X221300D01*
Y254062D01*
X216142D01*
Y254174D01*
X216254D01*
Y254286D01*
Y254398D01*
Y254510D01*
X216366D01*
Y254622D01*
Y254734D01*
Y254847D01*
Y254959D01*
Y255071D01*
X216478D01*
Y255183D01*
Y255295D01*
Y255407D01*
Y255519D01*
Y255631D01*
X216590D01*
Y255744D01*
Y255856D01*
Y255968D01*
Y256080D01*
X216702D01*
Y256192D01*
Y256304D01*
Y256416D01*
Y256528D01*
Y256641D01*
X216814D01*
Y256753D01*
Y256865D01*
Y256977D01*
Y257089D01*
X216926D01*
Y257201D01*
Y257313D01*
Y257425D01*
Y257538D01*
Y257650D01*
X217038D01*
Y257762D01*
Y257874D01*
Y257986D01*
Y258098D01*
Y258210D01*
X217151D01*
Y258323D01*
Y258435D01*
Y258547D01*
Y258659D01*
X217263D01*
Y258771D01*
Y258883D01*
Y258995D01*
Y259107D01*
Y259220D01*
X217375D01*
Y259332D01*
Y259444D01*
Y259556D01*
Y259668D01*
X217487D01*
Y259780D01*
Y259893D01*
Y260005D01*
Y260117D01*
Y260229D01*
X217599D01*
Y260341D01*
Y260453D01*
Y260565D01*
Y260677D01*
X217711D01*
Y260789D01*
Y260902D01*
Y261014D01*
Y261126D01*
Y261238D01*
X217824D01*
Y261350D01*
Y261462D01*
Y261574D01*
X217936D01*
Y261687D01*
Y261799D01*
Y261911D01*
X218048D01*
Y262023D01*
Y262135D01*
X218160D01*
Y262247D01*
X218272D01*
Y262359D01*
X218384D01*
Y262472D01*
X218496D01*
Y262584D01*
X218721D01*
Y262696D01*
X219057D01*
Y262808D01*
X224103D01*
Y262696D01*
D02*
G37*
G36*
X262677D02*
X263125D01*
Y262584D01*
X263350D01*
Y262472D01*
X263574D01*
Y262359D01*
X263686D01*
Y262247D01*
X263798D01*
Y262135D01*
X263910D01*
Y262023D01*
X264022D01*
Y261911D01*
X264135D01*
Y261799D01*
X264247D01*
Y261687D01*
Y261574D01*
X264359D01*
Y261462D01*
Y261350D01*
Y261238D01*
X264471D01*
Y261126D01*
Y261014D01*
Y260902D01*
Y260789D01*
Y260677D01*
Y260565D01*
Y260453D01*
Y260341D01*
Y260229D01*
Y260117D01*
Y260005D01*
Y259893D01*
Y259780D01*
Y259668D01*
X264359D01*
Y259556D01*
Y259444D01*
Y259332D01*
X264247D01*
Y259220D01*
Y259107D01*
X264135D01*
Y258995D01*
Y258883D01*
X264022D01*
Y258771D01*
X263910D01*
Y258659D01*
Y258547D01*
X263798D01*
Y258435D01*
X263686D01*
Y258323D01*
X263574D01*
Y258210D01*
X263462D01*
Y258098D01*
X263350D01*
Y257986D01*
X263125D01*
Y257874D01*
X262901D01*
Y257762D01*
X262677D01*
Y257650D01*
X262453D01*
Y257538D01*
X262004D01*
Y257425D01*
X258752D01*
Y257313D01*
X258640D01*
Y257201D01*
Y257089D01*
Y256977D01*
X258528D01*
Y256865D01*
Y256753D01*
Y256641D01*
Y256528D01*
Y256416D01*
X258416D01*
Y256304D01*
Y256192D01*
Y256080D01*
Y255968D01*
Y255856D01*
X258304D01*
Y255744D01*
Y255631D01*
Y255519D01*
X258191D01*
Y255407D01*
Y255295D01*
Y255183D01*
X258079D01*
Y255071D01*
Y254959D01*
X257967D01*
Y254847D01*
X257855D01*
Y254734D01*
Y254622D01*
X257743D01*
Y254510D01*
X257519D01*
Y254398D01*
X257406D01*
Y254286D01*
X257182D01*
Y254174D01*
X256846D01*
Y254062D01*
X256509D01*
Y254174D01*
Y254286D01*
X256622D01*
Y254398D01*
Y254510D01*
Y254622D01*
Y254734D01*
Y254847D01*
X256734D01*
Y254959D01*
Y255071D01*
Y255183D01*
Y255295D01*
X256846D01*
Y255407D01*
Y255519D01*
Y255631D01*
Y255744D01*
X256958D01*
Y255856D01*
Y255968D01*
Y256080D01*
Y256192D01*
Y256304D01*
X257070D01*
Y256416D01*
Y256528D01*
Y256641D01*
Y256753D01*
X257182D01*
Y256865D01*
Y256977D01*
Y257089D01*
Y257201D01*
Y257313D01*
X257294D01*
Y257425D01*
Y257538D01*
Y257650D01*
Y257762D01*
X257406D01*
Y257874D01*
Y257986D01*
Y258098D01*
Y258210D01*
X257519D01*
Y258323D01*
Y258435D01*
Y258547D01*
Y258659D01*
Y258771D01*
X257631D01*
Y258883D01*
Y258995D01*
Y259107D01*
Y259220D01*
X257743D01*
Y259332D01*
Y259444D01*
Y259556D01*
Y259668D01*
Y259780D01*
X257855D01*
Y259893D01*
Y260005D01*
Y260117D01*
Y260229D01*
X257967D01*
Y260341D01*
Y260453D01*
Y260565D01*
Y260677D01*
X258079D01*
Y260789D01*
Y260902D01*
Y261014D01*
Y261126D01*
Y261238D01*
X258191D01*
Y261350D01*
Y261462D01*
Y261574D01*
Y261687D01*
X258304D01*
Y261799D01*
Y261911D01*
Y262023D01*
X258416D01*
Y262135D01*
X258528D01*
Y262247D01*
X258640D01*
Y262359D01*
X258752D01*
Y262472D01*
X258864D01*
Y262584D01*
X259088D01*
Y262696D01*
X259425D01*
Y262808D01*
X262677D01*
Y262696D01*
D02*
G37*
G36*
X235541D02*
Y262584D01*
Y262472D01*
X235428D01*
Y262359D01*
Y262247D01*
Y262135D01*
Y262023D01*
X235316D01*
Y261911D01*
Y261799D01*
Y261687D01*
Y261574D01*
Y261462D01*
X235204D01*
Y261350D01*
Y261238D01*
Y261126D01*
Y261014D01*
Y260902D01*
X235092D01*
Y260789D01*
Y260677D01*
Y260565D01*
Y260453D01*
X234980D01*
Y260341D01*
Y260229D01*
Y260117D01*
Y260005D01*
Y259893D01*
X234868D01*
Y259780D01*
Y259668D01*
Y259556D01*
Y259444D01*
Y259332D01*
X234756D01*
Y259220D01*
Y259107D01*
Y258995D01*
Y258883D01*
X234644D01*
Y258771D01*
Y258659D01*
Y258547D01*
Y258435D01*
Y258323D01*
X234531D01*
Y258210D01*
Y258098D01*
Y257986D01*
Y257874D01*
X234419D01*
Y257762D01*
Y257650D01*
Y257538D01*
Y257425D01*
Y257313D01*
X234307D01*
Y257201D01*
Y257089D01*
Y256977D01*
Y256865D01*
X234195D01*
Y256753D01*
Y256641D01*
Y256528D01*
Y256416D01*
Y256304D01*
X234083D01*
Y256192D01*
Y256080D01*
Y255968D01*
Y255856D01*
Y255744D01*
X233971D01*
Y255631D01*
Y255519D01*
Y255407D01*
Y255295D01*
X237783D01*
Y255183D01*
Y255071D01*
X237671D01*
Y254959D01*
Y254847D01*
X237559D01*
Y254734D01*
X237447D01*
Y254622D01*
X237335D01*
Y254510D01*
X237223D01*
Y254398D01*
X237110D01*
Y254286D01*
X236886D01*
Y254174D01*
X236662D01*
Y254062D01*
X232176D01*
Y254174D01*
X232289D01*
Y254286D01*
Y254398D01*
Y254510D01*
Y254622D01*
Y254734D01*
X232401D01*
Y254847D01*
Y254959D01*
Y255071D01*
Y255183D01*
Y255295D01*
X232513D01*
Y255407D01*
Y255519D01*
Y255631D01*
Y255744D01*
X232625D01*
Y255856D01*
Y255968D01*
Y256080D01*
Y256192D01*
Y256304D01*
X232737D01*
Y256416D01*
Y256528D01*
Y256641D01*
Y256753D01*
X232849D01*
Y256865D01*
Y256977D01*
Y257089D01*
Y257201D01*
Y257313D01*
X232962D01*
Y257425D01*
Y257538D01*
Y257650D01*
Y257762D01*
X233074D01*
Y257874D01*
Y257986D01*
Y258098D01*
Y258210D01*
Y258323D01*
X233186D01*
Y258435D01*
Y258547D01*
Y258659D01*
Y258771D01*
X233298D01*
Y258883D01*
Y258995D01*
Y259107D01*
Y259220D01*
X233410D01*
Y259332D01*
Y259444D01*
Y259556D01*
Y259668D01*
Y259780D01*
X233522D01*
Y259893D01*
Y260005D01*
Y260117D01*
Y260229D01*
X233634D01*
Y260341D01*
Y260453D01*
Y260565D01*
Y260677D01*
X233746D01*
Y260789D01*
Y260902D01*
Y261014D01*
Y261126D01*
X233858D01*
Y261238D01*
Y261350D01*
Y261462D01*
Y261574D01*
Y261687D01*
X233971D01*
Y261799D01*
Y261911D01*
Y262023D01*
X234083D01*
Y262135D01*
X234195D01*
Y262247D01*
Y262359D01*
X234307D01*
Y262472D01*
X234531D01*
Y262584D01*
X234644D01*
Y262696D01*
X234980D01*
Y262808D01*
X235541D01*
Y262696D01*
D02*
G37*
G36*
X229934D02*
X230270D01*
Y262584D01*
X230607D01*
Y262472D01*
X230831D01*
Y262359D01*
X230943D01*
Y262247D01*
X231055D01*
Y262135D01*
X231167D01*
Y262023D01*
X231279D01*
Y261911D01*
X231392D01*
Y261799D01*
X231504D01*
Y261687D01*
X231616D01*
Y261574D01*
Y261462D01*
X231728D01*
Y261350D01*
Y261238D01*
Y261126D01*
X231840D01*
Y261014D01*
Y260902D01*
Y260789D01*
Y260677D01*
Y260565D01*
Y260453D01*
Y260341D01*
Y260229D01*
Y260117D01*
Y260005D01*
Y259893D01*
Y259780D01*
Y259668D01*
X231728D01*
Y259556D01*
Y259444D01*
Y259332D01*
X231616D01*
Y259220D01*
Y259107D01*
X231504D01*
Y258995D01*
Y258883D01*
X231392D01*
Y258771D01*
Y258659D01*
X231279D01*
Y258547D01*
X231167D01*
Y258435D01*
X231055D01*
Y258323D01*
X230943D01*
Y258210D01*
X230831D01*
Y258098D01*
X230719D01*
Y257986D01*
X230494D01*
Y257874D01*
X230382D01*
Y257762D01*
X230046D01*
Y257650D01*
X229822D01*
Y257538D01*
X229261D01*
Y257425D01*
Y257313D01*
Y257201D01*
Y257089D01*
X229373D01*
Y256977D01*
Y256865D01*
X229485D01*
Y256753D01*
Y256641D01*
X229597D01*
Y256528D01*
Y256416D01*
Y256304D01*
X229710D01*
Y256192D01*
Y256080D01*
X229822D01*
Y255968D01*
Y255856D01*
Y255744D01*
X229934D01*
Y255631D01*
Y255519D01*
Y255407D01*
X230046D01*
Y255295D01*
Y255183D01*
Y255071D01*
Y254959D01*
X229934D01*
Y254847D01*
Y254734D01*
Y254622D01*
X229822D01*
Y254510D01*
X229710D01*
Y254398D01*
X229597D01*
Y254286D01*
X229485D01*
Y254174D01*
X229149D01*
Y254062D01*
X228925D01*
Y254174D01*
Y254286D01*
X228813D01*
Y254398D01*
Y254510D01*
Y254622D01*
X228700D01*
Y254734D01*
Y254847D01*
X228588D01*
Y254959D01*
Y255071D01*
Y255183D01*
X228476D01*
Y255295D01*
Y255407D01*
Y255519D01*
X228364D01*
Y255631D01*
Y255744D01*
X228252D01*
Y255856D01*
Y255968D01*
Y256080D01*
X228140D01*
Y256192D01*
Y256304D01*
Y256416D01*
X228028D01*
Y256528D01*
Y256641D01*
Y256753D01*
X227916D01*
Y256865D01*
Y256977D01*
Y257089D01*
X227803D01*
Y257201D01*
Y257313D01*
X227691D01*
Y257425D01*
X226009D01*
Y257313D01*
Y257201D01*
Y257089D01*
X225897D01*
Y256977D01*
Y256865D01*
Y256753D01*
Y256641D01*
X225785D01*
Y256528D01*
Y256416D01*
Y256304D01*
Y256192D01*
Y256080D01*
X225673D01*
Y255968D01*
Y255856D01*
Y255744D01*
Y255631D01*
Y255519D01*
X225561D01*
Y255407D01*
Y255295D01*
Y255183D01*
Y255071D01*
X225448D01*
Y254959D01*
Y254847D01*
Y254734D01*
Y254622D01*
X225336D01*
Y254510D01*
X225224D01*
Y254398D01*
X225112D01*
Y254286D01*
X225000D01*
Y254174D01*
X224776D01*
Y254062D01*
X223879D01*
Y254174D01*
Y254286D01*
Y254398D01*
X223991D01*
Y254510D01*
Y254622D01*
Y254734D01*
Y254847D01*
Y254959D01*
X224103D01*
Y255071D01*
Y255183D01*
Y255295D01*
Y255407D01*
X224215D01*
Y255519D01*
Y255631D01*
Y255744D01*
Y255856D01*
Y255968D01*
X224327D01*
Y256080D01*
Y256192D01*
Y256304D01*
Y256416D01*
X224439D01*
Y256528D01*
Y256641D01*
Y256753D01*
Y256865D01*
Y256977D01*
X224552D01*
Y257089D01*
Y257201D01*
Y257313D01*
Y257425D01*
Y257538D01*
X224664D01*
Y257650D01*
Y257762D01*
Y257874D01*
Y257986D01*
X224776D01*
Y258098D01*
Y258210D01*
Y258323D01*
Y258435D01*
Y258547D01*
X224888D01*
Y258659D01*
Y258771D01*
Y258883D01*
Y258995D01*
X225000D01*
Y259107D01*
Y259220D01*
Y259332D01*
Y259444D01*
Y259556D01*
X225112D01*
Y259668D01*
Y259780D01*
Y259893D01*
Y260005D01*
X225224D01*
Y260117D01*
Y260229D01*
Y260341D01*
Y260453D01*
X225336D01*
Y260565D01*
Y260677D01*
Y260789D01*
Y260902D01*
Y261014D01*
X225448D01*
Y261126D01*
Y261238D01*
Y261350D01*
Y261462D01*
X225561D01*
Y261574D01*
Y261687D01*
Y261799D01*
Y261911D01*
X225673D01*
Y262023D01*
Y262135D01*
Y262247D01*
X225785D01*
Y262359D01*
Y262472D01*
X225897D01*
Y262584D01*
X226009D01*
Y262696D01*
X226234D01*
Y262808D01*
X229934D01*
Y262696D01*
D02*
G37*
G36*
X216702D02*
X216590D01*
Y262584D01*
Y262472D01*
X216478D01*
Y262359D01*
Y262247D01*
X216366D01*
Y262135D01*
X216254D01*
Y262023D01*
X216142D01*
Y261911D01*
X216029D01*
Y261799D01*
X215805D01*
Y261687D01*
X215581D01*
Y261574D01*
X213675D01*
Y261462D01*
Y261350D01*
Y261238D01*
Y261126D01*
Y261014D01*
X213562D01*
Y260902D01*
Y260789D01*
Y260677D01*
Y260565D01*
Y260453D01*
X213450D01*
Y260341D01*
Y260229D01*
Y260117D01*
Y260005D01*
X213338D01*
Y259893D01*
Y259780D01*
Y259668D01*
Y259556D01*
Y259444D01*
X213226D01*
Y259332D01*
Y259220D01*
Y259107D01*
Y258995D01*
X213114D01*
Y258883D01*
Y258771D01*
Y258659D01*
Y258547D01*
Y258435D01*
X213002D01*
Y258323D01*
Y258210D01*
Y258098D01*
Y257986D01*
X212890D01*
Y257874D01*
Y257762D01*
Y257650D01*
Y257538D01*
Y257425D01*
X212777D01*
Y257313D01*
Y257201D01*
Y257089D01*
Y256977D01*
X212665D01*
Y256865D01*
Y256753D01*
Y256641D01*
Y256528D01*
Y256416D01*
X212553D01*
Y256304D01*
Y256192D01*
Y256080D01*
Y255968D01*
X212441D01*
Y255856D01*
Y255744D01*
Y255631D01*
Y255519D01*
X212329D01*
Y255407D01*
Y255295D01*
Y255183D01*
Y255071D01*
X212217D01*
Y254959D01*
Y254847D01*
X212105D01*
Y254734D01*
X211993D01*
Y254622D01*
X211880D01*
Y254510D01*
X211768D01*
Y254398D01*
X211656D01*
Y254286D01*
X211432D01*
Y254174D01*
X211095D01*
Y254062D01*
X210647D01*
Y254174D01*
Y254286D01*
Y254398D01*
X210759D01*
Y254510D01*
Y254622D01*
Y254734D01*
Y254847D01*
Y254959D01*
X210871D01*
Y255071D01*
Y255183D01*
Y255295D01*
Y255407D01*
X210983D01*
Y255519D01*
Y255631D01*
Y255744D01*
Y255856D01*
Y255968D01*
X211095D01*
Y256080D01*
Y256192D01*
Y256304D01*
Y256416D01*
X211208D01*
Y256528D01*
Y256641D01*
Y256753D01*
Y256865D01*
Y256977D01*
X211320D01*
Y257089D01*
Y257201D01*
Y257313D01*
Y257425D01*
X211432D01*
Y257538D01*
Y257650D01*
Y257762D01*
Y257874D01*
Y257986D01*
X211544D01*
Y258098D01*
Y258210D01*
Y258323D01*
Y258435D01*
X211656D01*
Y258547D01*
Y258659D01*
Y258771D01*
Y258883D01*
Y258995D01*
X211768D01*
Y259107D01*
Y259220D01*
Y259332D01*
Y259444D01*
X211880D01*
Y259556D01*
Y259668D01*
Y259780D01*
Y259893D01*
Y260005D01*
X211993D01*
Y260117D01*
Y260229D01*
Y260341D01*
Y260453D01*
Y260565D01*
X212105D01*
Y260677D01*
Y260789D01*
Y260902D01*
Y261014D01*
X212217D01*
Y261126D01*
Y261238D01*
Y261350D01*
Y261462D01*
X211768D01*
Y261574D01*
X209638D01*
Y261687D01*
Y261799D01*
X209750D01*
Y261911D01*
Y262023D01*
X209862D01*
Y262135D01*
X209974D01*
Y262247D01*
X210086D01*
Y262359D01*
X210198D01*
Y262472D01*
X210311D01*
Y262584D01*
X210423D01*
Y262696D01*
X210759D01*
Y262808D01*
X216702D01*
Y262696D01*
D02*
G37*
G36*
X206834D02*
Y262584D01*
Y262472D01*
Y262359D01*
Y262247D01*
Y262135D01*
X206947D01*
Y262023D01*
Y261911D01*
Y261799D01*
Y261687D01*
Y261574D01*
Y261462D01*
X207059D01*
Y261350D01*
Y261238D01*
Y261126D01*
Y261014D01*
Y260902D01*
X207171D01*
Y260789D01*
Y260677D01*
Y260565D01*
Y260453D01*
Y260341D01*
Y260229D01*
X207283D01*
Y260117D01*
Y260005D01*
Y259893D01*
Y259780D01*
Y259668D01*
X207395D01*
Y259556D01*
Y259444D01*
Y259332D01*
Y259220D01*
Y259107D01*
Y258995D01*
X207507D01*
Y258883D01*
Y258771D01*
Y258659D01*
Y258547D01*
Y258435D01*
Y258323D01*
X207619D01*
Y258210D01*
Y258098D01*
Y257986D01*
Y257874D01*
Y257762D01*
Y257650D01*
X207732D01*
Y257538D01*
Y257425D01*
Y257313D01*
Y257201D01*
Y257089D01*
Y256977D01*
X207844D01*
Y256865D01*
Y256753D01*
Y256641D01*
Y256528D01*
Y256416D01*
Y256304D01*
X207956D01*
Y256192D01*
Y256080D01*
Y255968D01*
Y255856D01*
Y255744D01*
Y255631D01*
Y255519D01*
X208068D01*
Y255407D01*
Y255295D01*
Y255183D01*
Y255071D01*
X207956D01*
Y254959D01*
Y254847D01*
Y254734D01*
X207844D01*
Y254622D01*
X207732D01*
Y254510D01*
X207619D01*
Y254398D01*
X207507D01*
Y254286D01*
X207395D01*
Y254174D01*
X207171D01*
Y254062D01*
X206722D01*
Y254174D01*
Y254286D01*
Y254398D01*
Y254510D01*
Y254622D01*
Y254734D01*
X206610D01*
Y254847D01*
Y254959D01*
Y255071D01*
Y255183D01*
Y255295D01*
Y255407D01*
Y255519D01*
X206498D01*
Y255631D01*
Y255744D01*
X202237D01*
Y255631D01*
X202125D01*
Y255519D01*
X202013D01*
Y255407D01*
Y255295D01*
X201901D01*
Y255183D01*
Y255071D01*
X201788D01*
Y254959D01*
X201676D01*
Y254847D01*
Y254734D01*
X201564D01*
Y254622D01*
X201452D01*
Y254510D01*
Y254398D01*
X201340D01*
Y254286D01*
X201116D01*
Y254174D01*
X200891D01*
Y254062D01*
X199546D01*
Y254174D01*
X199658D01*
Y254286D01*
X199770D01*
Y254398D01*
Y254510D01*
X199882D01*
Y254622D01*
Y254734D01*
X199994D01*
Y254847D01*
X200106D01*
Y254959D01*
Y255071D01*
X200219D01*
Y255183D01*
X200331D01*
Y255295D01*
Y255407D01*
X200443D01*
Y255519D01*
Y255631D01*
X200555D01*
Y255744D01*
X200667D01*
Y255856D01*
Y255968D01*
X200779D01*
Y256080D01*
Y256192D01*
X200891D01*
Y256304D01*
X201004D01*
Y256416D01*
Y256528D01*
X201116D01*
Y256641D01*
X201228D01*
Y256753D01*
Y256865D01*
X201340D01*
Y256977D01*
Y257089D01*
X201452D01*
Y257201D01*
X201564D01*
Y257313D01*
Y257425D01*
X201676D01*
Y257538D01*
Y257650D01*
X201788D01*
Y257762D01*
X201901D01*
Y257874D01*
Y257986D01*
X202013D01*
Y258098D01*
X202125D01*
Y258210D01*
Y258323D01*
X202237D01*
Y258435D01*
Y258547D01*
X202349D01*
Y258659D01*
X202461D01*
Y258771D01*
Y258883D01*
X202573D01*
Y258995D01*
Y259107D01*
X202685D01*
Y259220D01*
X202798D01*
Y259332D01*
Y259444D01*
X202910D01*
Y259556D01*
X203022D01*
Y259668D01*
Y259780D01*
X203134D01*
Y259893D01*
Y260005D01*
X203246D01*
Y260117D01*
X203358D01*
Y260229D01*
Y260341D01*
X203470D01*
Y260453D01*
Y260565D01*
X203583D01*
Y260677D01*
X203695D01*
Y260789D01*
Y260902D01*
X203807D01*
Y261014D01*
X203919D01*
Y261126D01*
Y261238D01*
X204031D01*
Y261350D01*
Y261462D01*
X204143D01*
Y261574D01*
X204255D01*
Y261687D01*
Y261799D01*
X204367D01*
Y261911D01*
Y262023D01*
X204480D01*
Y262135D01*
X204592D01*
Y262247D01*
Y262359D01*
X204704D01*
Y262472D01*
X204816D01*
Y262584D01*
X205040D01*
Y262696D01*
X205265D01*
Y262808D01*
X206834D01*
Y262696D01*
D02*
G37*
G36*
X201340Y265723D02*
X202125D01*
Y265611D01*
X202013D01*
Y265499D01*
X201901D01*
Y265387D01*
Y265275D01*
X201788D01*
Y265163D01*
Y265051D01*
X201676D01*
Y264938D01*
X201564D01*
Y264826D01*
Y264714D01*
X201452D01*
Y264602D01*
Y264490D01*
X201340D01*
Y264378D01*
X201228D01*
Y264266D01*
Y264154D01*
X201116D01*
Y264041D01*
Y263929D01*
X201004D01*
Y263817D01*
X200891D01*
Y263705D01*
Y263593D01*
X200779D01*
Y263481D01*
X200667D01*
Y263369D01*
Y263256D01*
X200555D01*
Y263144D01*
Y263032D01*
X200443D01*
Y262920D01*
X200331D01*
Y262808D01*
Y262696D01*
X200219D01*
Y262584D01*
Y262472D01*
X200106D01*
Y262359D01*
X199994D01*
Y262247D01*
Y262135D01*
X199882D01*
Y262023D01*
Y261911D01*
X199770D01*
Y261799D01*
X199658D01*
Y261687D01*
Y261574D01*
X199546D01*
Y261462D01*
Y261350D01*
X199434D01*
Y261238D01*
X199321D01*
Y261126D01*
Y261014D01*
X199209D01*
Y260902D01*
X199097D01*
Y260789D01*
Y260677D01*
X198985D01*
Y260565D01*
Y260453D01*
X198873D01*
Y260341D01*
X198761D01*
Y260229D01*
Y260117D01*
X198649D01*
Y260005D01*
Y259893D01*
X198537D01*
Y259780D01*
X198424D01*
Y259668D01*
Y259556D01*
X198312D01*
Y259444D01*
Y259332D01*
X198200D01*
Y259220D01*
X198088D01*
Y259107D01*
Y258995D01*
X197976D01*
Y258883D01*
X197864D01*
Y258771D01*
Y258659D01*
X197752D01*
Y258547D01*
Y258435D01*
X197640D01*
Y258323D01*
X197527D01*
Y258210D01*
Y258098D01*
X197415D01*
Y257986D01*
Y257874D01*
X197303D01*
Y257762D01*
X197191D01*
Y257650D01*
Y257538D01*
X197079D01*
Y257425D01*
X196967D01*
Y257313D01*
Y257201D01*
X196855D01*
Y257089D01*
Y256977D01*
X196742D01*
Y256865D01*
X196630D01*
Y256753D01*
Y256641D01*
X196518D01*
Y256528D01*
Y256416D01*
X196406D01*
Y256304D01*
X196294D01*
Y256192D01*
Y256080D01*
X196182D01*
Y255968D01*
X196070D01*
Y255856D01*
Y255744D01*
X195958D01*
Y255631D01*
Y255519D01*
X195845D01*
Y255407D01*
X195733D01*
Y255295D01*
Y255183D01*
X195621D01*
Y255071D01*
X195509D01*
Y254959D01*
X195397D01*
Y254847D01*
X195285D01*
Y254734D01*
X195173D01*
Y254622D01*
X195060D01*
Y254510D01*
X194836D01*
Y254398D01*
X194612D01*
Y254286D01*
X194388D01*
Y254174D01*
X193939D01*
Y254062D01*
X192033D01*
Y254174D01*
Y254286D01*
X192145D01*
Y254398D01*
Y254510D01*
X192257D01*
Y254622D01*
X192369D01*
Y254734D01*
Y254847D01*
X192481D01*
Y254959D01*
Y255071D01*
X192594D01*
Y255183D01*
X192706D01*
Y255295D01*
Y255407D01*
X192818D01*
Y255519D01*
X192930D01*
Y255631D01*
Y255744D01*
X193042D01*
Y255856D01*
Y255968D01*
X193154D01*
Y256080D01*
X193266D01*
Y256192D01*
Y256304D01*
X193378D01*
Y256416D01*
Y256528D01*
X193491D01*
Y256641D01*
X193603D01*
Y256753D01*
Y256865D01*
X193715D01*
Y256977D01*
Y257089D01*
X193827D01*
Y257201D01*
X193939D01*
Y257313D01*
Y257425D01*
X194051D01*
Y257538D01*
Y257650D01*
X194163D01*
Y257762D01*
X194275D01*
Y257874D01*
Y257986D01*
X194388D01*
Y258098D01*
X194500D01*
Y258210D01*
Y258323D01*
X194612D01*
Y258435D01*
Y258547D01*
X194724D01*
Y258659D01*
X194836D01*
Y258771D01*
Y258883D01*
X194948D01*
Y258995D01*
Y259107D01*
X195060D01*
Y259220D01*
X195173D01*
Y259332D01*
Y259444D01*
X195285D01*
Y259556D01*
Y259668D01*
X195397D01*
Y259780D01*
X195509D01*
Y259893D01*
Y260005D01*
X195621D01*
Y260117D01*
X195733D01*
Y260229D01*
Y260341D01*
X195845D01*
Y260453D01*
Y260565D01*
X195958D01*
Y260677D01*
X196070D01*
Y260789D01*
Y260902D01*
X196182D01*
Y261014D01*
X196294D01*
Y261126D01*
Y261238D01*
X196406D01*
Y261350D01*
Y261462D01*
X196518D01*
Y261574D01*
X196630D01*
Y261687D01*
Y261799D01*
X196742D01*
Y261911D01*
X196855D01*
Y262023D01*
Y262135D01*
X196967D01*
Y262247D01*
Y262359D01*
X197079D01*
Y262472D01*
X197191D01*
Y262584D01*
Y262696D01*
X197303D01*
Y262808D01*
Y262920D01*
X197415D01*
Y263032D01*
X197527D01*
Y263144D01*
Y263256D01*
X197640D01*
Y263369D01*
X197752D01*
Y263481D01*
Y263593D01*
X197864D01*
Y263705D01*
Y263817D01*
X197976D01*
Y263929D01*
X198088D01*
Y264041D01*
Y264154D01*
X198200D01*
Y264266D01*
X198312D01*
Y264378D01*
Y264490D01*
X198424D01*
Y264602D01*
Y264714D01*
X198537D01*
Y264826D01*
X198649D01*
Y264938D01*
X198761D01*
Y265051D01*
X198873D01*
Y265163D01*
X198985D01*
Y265275D01*
X199209D01*
Y265387D01*
X199321D01*
Y265499D01*
X199658D01*
Y265611D01*
X199882D01*
Y265723D01*
X201228D01*
Y265835D01*
X201340D01*
Y265723D01*
D02*
G37*
G36*
X194163D02*
X194500D01*
Y265611D01*
Y265499D01*
X194388D01*
Y265387D01*
X194275D01*
Y265275D01*
Y265163D01*
X194163D01*
Y265051D01*
X194051D01*
Y264938D01*
Y264826D01*
X193939D01*
Y264714D01*
Y264602D01*
X193827D01*
Y264490D01*
X193715D01*
Y264378D01*
Y264266D01*
X193603D01*
Y264154D01*
Y264041D01*
X193491D01*
Y263929D01*
X193378D01*
Y263817D01*
Y263705D01*
X193266D01*
Y263593D01*
Y263481D01*
X193154D01*
Y263369D01*
X193042D01*
Y263256D01*
Y263144D01*
X192930D01*
Y263032D01*
Y262920D01*
X192818D01*
Y262808D01*
X192706D01*
Y262696D01*
Y262584D01*
X192594D01*
Y262472D01*
X192481D01*
Y262359D01*
Y262247D01*
X192369D01*
Y262135D01*
Y262023D01*
X192257D01*
Y261911D01*
X192145D01*
Y261799D01*
Y261687D01*
X192033D01*
Y261574D01*
Y261462D01*
X191921D01*
Y261350D01*
X191809D01*
Y261238D01*
Y261126D01*
X191697D01*
Y261014D01*
Y260902D01*
X191584D01*
Y260789D01*
X191472D01*
Y260677D01*
Y260565D01*
X191360D01*
Y260453D01*
X191248D01*
Y260341D01*
Y260229D01*
X191136D01*
Y260117D01*
Y260005D01*
X191024D01*
Y259893D01*
X190911D01*
Y259780D01*
Y259668D01*
X190799D01*
Y259556D01*
Y259444D01*
X190687D01*
Y259332D01*
X190575D01*
Y259220D01*
Y259107D01*
X190463D01*
Y258995D01*
Y258883D01*
X190351D01*
Y258771D01*
X190239D01*
Y258659D01*
Y258547D01*
X190127D01*
Y258435D01*
X190015D01*
Y258323D01*
Y258210D01*
X189902D01*
Y258098D01*
Y257986D01*
X189790D01*
Y257874D01*
X189678D01*
Y257762D01*
Y257650D01*
X189566D01*
Y257538D01*
Y257425D01*
X189454D01*
Y257313D01*
X189342D01*
Y257201D01*
Y257089D01*
X189230D01*
Y256977D01*
X189117D01*
Y256865D01*
Y256753D01*
X189005D01*
Y256641D01*
Y256528D01*
X188893D01*
Y256416D01*
X188781D01*
Y256304D01*
Y256192D01*
X188669D01*
Y256080D01*
Y255968D01*
X188557D01*
Y255856D01*
X188445D01*
Y255744D01*
Y255631D01*
X188332D01*
Y255519D01*
X188220D01*
Y255407D01*
Y255295D01*
X188108D01*
Y255183D01*
X187996D01*
Y255071D01*
X187884D01*
Y254959D01*
Y254847D01*
X187772D01*
Y254734D01*
X187548D01*
Y254622D01*
X187435D01*
Y254510D01*
X187323D01*
Y254398D01*
X187099D01*
Y254286D01*
X186763D01*
Y254174D01*
X186314D01*
Y254062D01*
X184520D01*
Y254174D01*
Y254286D01*
Y254398D01*
X184632D01*
Y254510D01*
X184744D01*
Y254622D01*
Y254734D01*
X184856D01*
Y254847D01*
X184968D01*
Y254959D01*
Y255071D01*
X185081D01*
Y255183D01*
Y255295D01*
X185193D01*
Y255407D01*
X185305D01*
Y255519D01*
Y255631D01*
X185417D01*
Y255744D01*
Y255856D01*
X185529D01*
Y255968D01*
X185641D01*
Y256080D01*
Y256192D01*
X185753D01*
Y256304D01*
Y256416D01*
X185865D01*
Y256528D01*
X185978D01*
Y256641D01*
Y256753D01*
X186090D01*
Y256865D01*
X186202D01*
Y256977D01*
Y257089D01*
X186314D01*
Y257201D01*
Y257313D01*
X186426D01*
Y257425D01*
X186538D01*
Y257538D01*
Y257650D01*
X186651D01*
Y257762D01*
Y257874D01*
X186763D01*
Y257986D01*
X186875D01*
Y258098D01*
Y258210D01*
X186987D01*
Y258323D01*
Y258435D01*
X187099D01*
Y258547D01*
X187211D01*
Y258659D01*
Y258771D01*
X187323D01*
Y258883D01*
X187435D01*
Y258995D01*
Y259107D01*
X187548D01*
Y259220D01*
Y259332D01*
X187660D01*
Y259444D01*
X187772D01*
Y259556D01*
Y259668D01*
X187884D01*
Y259780D01*
Y259893D01*
X187996D01*
Y260005D01*
X188108D01*
Y260117D01*
Y260229D01*
X188220D01*
Y260341D01*
Y260453D01*
X188332D01*
Y260565D01*
X188445D01*
Y260677D01*
Y260789D01*
X188557D01*
Y260902D01*
X188669D01*
Y261014D01*
Y261126D01*
X188781D01*
Y261238D01*
Y261350D01*
X188893D01*
Y261462D01*
X189005D01*
Y261574D01*
Y261687D01*
X189117D01*
Y261799D01*
Y261911D01*
X189230D01*
Y262023D01*
X189342D01*
Y262135D01*
Y262247D01*
X189454D01*
Y262359D01*
Y262472D01*
X189566D01*
Y262584D01*
X189678D01*
Y262696D01*
Y262808D01*
X189790D01*
Y262920D01*
X189902D01*
Y263032D01*
Y263144D01*
X190015D01*
Y263256D01*
Y263369D01*
X190127D01*
Y263481D01*
X190239D01*
Y263593D01*
Y263705D01*
X190351D01*
Y263817D01*
Y263929D01*
X190463D01*
Y264041D01*
X190575D01*
Y264154D01*
Y264266D01*
X190687D01*
Y264378D01*
Y264490D01*
X190799D01*
Y264602D01*
X190911D01*
Y264714D01*
X191024D01*
Y264826D01*
Y264938D01*
X191136D01*
Y265051D01*
X191360D01*
Y265163D01*
X191472D01*
Y265275D01*
X191584D01*
Y265387D01*
X191809D01*
Y265499D01*
X192033D01*
Y265611D01*
X192369D01*
Y265723D01*
X193715D01*
Y265835D01*
X194163D01*
Y265723D01*
D02*
G37*
%LPC*%
G36*
X252361Y261687D02*
X251127D01*
Y261574D01*
X250678D01*
Y261462D01*
X250454D01*
Y261350D01*
X250230D01*
Y261238D01*
X250006D01*
Y261126D01*
X249781D01*
Y261014D01*
X249669D01*
Y260902D01*
X249557D01*
Y260789D01*
X249445D01*
Y260677D01*
X249333D01*
Y260565D01*
X249221D01*
Y260453D01*
X249109D01*
Y260341D01*
X248996D01*
Y260229D01*
Y260117D01*
X248884D01*
Y260005D01*
Y259893D01*
X248772D01*
Y259780D01*
X248660D01*
Y259668D01*
Y259556D01*
Y259444D01*
X248548D01*
Y259332D01*
Y259220D01*
X248436D01*
Y259107D01*
Y258995D01*
Y258883D01*
Y258771D01*
X248324D01*
Y258659D01*
Y258547D01*
Y258435D01*
Y258323D01*
Y258210D01*
Y258098D01*
Y257986D01*
Y257874D01*
Y257762D01*
Y257650D01*
Y257538D01*
Y257425D01*
Y257313D01*
Y257201D01*
X248436D01*
Y257089D01*
Y256977D01*
Y256865D01*
Y256753D01*
X248548D01*
Y256641D01*
Y256528D01*
X248660D01*
Y256416D01*
Y256304D01*
X248772D01*
Y256192D01*
X248884D01*
Y256080D01*
X248996D01*
Y255968D01*
X249109D01*
Y255856D01*
X249221D01*
Y255744D01*
X249333D01*
Y255631D01*
X249557D01*
Y255519D01*
X249781D01*
Y255407D01*
X250006D01*
Y255295D01*
X250454D01*
Y255183D01*
X251576D01*
Y255295D01*
X252024D01*
Y255407D01*
X252248D01*
Y255519D01*
X252473D01*
Y255631D01*
X252697D01*
Y255744D01*
X252921D01*
Y255856D01*
X253033D01*
Y255968D01*
X253145D01*
Y256080D01*
X253258D01*
Y256192D01*
X253370D01*
Y256304D01*
X253482D01*
Y256416D01*
X253594D01*
Y256528D01*
X253706D01*
Y256641D01*
X253818D01*
Y256753D01*
Y256865D01*
X253930D01*
Y256977D01*
Y257089D01*
X254043D01*
Y257201D01*
Y257313D01*
X254155D01*
Y257425D01*
Y257538D01*
X254267D01*
Y257650D01*
Y257762D01*
Y257874D01*
Y257986D01*
X254379D01*
Y258098D01*
Y258210D01*
Y258323D01*
Y258435D01*
Y258547D01*
Y258659D01*
Y258771D01*
Y258883D01*
Y258995D01*
Y259107D01*
Y259220D01*
Y259332D01*
Y259444D01*
Y259556D01*
Y259668D01*
Y259780D01*
Y259893D01*
Y260005D01*
X254267D01*
Y260117D01*
Y260229D01*
X254155D01*
Y260341D01*
Y260453D01*
X254043D01*
Y260565D01*
X253930D01*
Y260677D01*
Y260789D01*
X253818D01*
Y260902D01*
X253706D01*
Y261014D01*
X253594D01*
Y261126D01*
X253370D01*
Y261238D01*
X253258D01*
Y261350D01*
X253033D01*
Y261462D01*
X252809D01*
Y261574D01*
X252361D01*
Y261687D01*
D02*
G37*
G36*
X244735D02*
X243390D01*
Y261574D01*
X243053D01*
Y261462D01*
X242717D01*
Y261350D01*
X242493D01*
Y261238D01*
X242268D01*
Y261126D01*
X242156D01*
Y261014D01*
X242044D01*
Y260902D01*
X241932D01*
Y260789D01*
X241708D01*
Y260677D01*
Y260565D01*
X241596D01*
Y260453D01*
X241484D01*
Y260341D01*
X241371D01*
Y260229D01*
X241259D01*
Y260117D01*
Y260005D01*
X241147D01*
Y259893D01*
Y259780D01*
X241035D01*
Y259668D01*
Y259556D01*
X240923D01*
Y259444D01*
Y259332D01*
X240811D01*
Y259220D01*
Y259107D01*
Y258995D01*
X240699D01*
Y258883D01*
Y258771D01*
Y258659D01*
Y258547D01*
Y258435D01*
Y258323D01*
X240586D01*
Y258210D01*
Y258098D01*
Y257986D01*
Y257874D01*
Y257762D01*
Y257650D01*
Y257538D01*
Y257425D01*
X240699D01*
Y257313D01*
Y257201D01*
Y257089D01*
Y256977D01*
X240811D01*
Y256865D01*
Y256753D01*
Y256641D01*
X240923D01*
Y256528D01*
Y256416D01*
X241035D01*
Y256304D01*
X241147D01*
Y256192D01*
X241259D01*
Y256080D01*
X241371D01*
Y255968D01*
X241484D01*
Y255856D01*
X241596D01*
Y255744D01*
X241708D01*
Y255631D01*
X241820D01*
Y255519D01*
X242044D01*
Y255407D01*
X242381D01*
Y255295D01*
X242717D01*
Y255183D01*
X243951D01*
Y255295D01*
X244399D01*
Y255407D01*
X244623D01*
Y255519D01*
X244848D01*
Y255631D01*
X245072D01*
Y255744D01*
X245184D01*
Y255856D01*
X245408D01*
Y255968D01*
X245520D01*
Y256080D01*
X245633D01*
Y256192D01*
X245745D01*
Y256304D01*
X245857D01*
Y256416D01*
X245969D01*
Y256528D01*
Y256641D01*
X246081D01*
Y256753D01*
X246193D01*
Y256865D01*
Y256977D01*
X246305D01*
Y257089D01*
Y257201D01*
X246417D01*
Y257313D01*
Y257425D01*
X246530D01*
Y257538D01*
Y257650D01*
Y257762D01*
X246642D01*
Y257874D01*
Y257986D01*
Y258098D01*
Y258210D01*
X246754D01*
Y258323D01*
Y258435D01*
Y258547D01*
Y258659D01*
Y258771D01*
Y258883D01*
Y258995D01*
Y259107D01*
Y259220D01*
Y259332D01*
Y259444D01*
Y259556D01*
Y259668D01*
Y259780D01*
X246642D01*
Y259893D01*
Y260005D01*
Y260117D01*
X246530D01*
Y260229D01*
Y260341D01*
X246417D01*
Y260453D01*
Y260565D01*
X246305D01*
Y260677D01*
X246193D01*
Y260789D01*
X246081D01*
Y260902D01*
X245969D01*
Y261014D01*
X245857D01*
Y261126D01*
X245745D01*
Y261238D01*
X245520D01*
Y261350D01*
X245408D01*
Y261462D01*
X245072D01*
Y261574D01*
X244735D01*
Y261687D01*
D02*
G37*
G36*
X262116Y261574D02*
X259537D01*
Y261462D01*
Y261350D01*
Y261238D01*
Y261126D01*
X259425D01*
Y261014D01*
Y260902D01*
Y260789D01*
Y260677D01*
Y260565D01*
X259313D01*
Y260453D01*
Y260341D01*
Y260229D01*
Y260117D01*
Y260005D01*
X259201D01*
Y259893D01*
Y259780D01*
Y259668D01*
Y259556D01*
X259088D01*
Y259444D01*
Y259332D01*
Y259220D01*
Y259107D01*
Y258995D01*
X258976D01*
Y258883D01*
Y258771D01*
Y258659D01*
X261668D01*
Y258771D01*
X262004D01*
Y258883D01*
X262228D01*
Y258995D01*
X262340D01*
Y259107D01*
X262453D01*
Y259220D01*
X262565D01*
Y259332D01*
X262677D01*
Y259444D01*
X262789D01*
Y259556D01*
Y259668D01*
X262901D01*
Y259780D01*
Y259893D01*
Y260005D01*
X263013D01*
Y260117D01*
Y260229D01*
Y260341D01*
Y260453D01*
Y260565D01*
Y260677D01*
X262901D01*
Y260789D01*
Y260902D01*
X262789D01*
Y261014D01*
Y261126D01*
X262677D01*
Y261238D01*
X262565D01*
Y261350D01*
X262340D01*
Y261462D01*
X262116D01*
Y261574D01*
D02*
G37*
G36*
X229373D02*
X226906D01*
Y261462D01*
Y261350D01*
Y261238D01*
Y261126D01*
X226794D01*
Y261014D01*
Y260902D01*
Y260789D01*
Y260677D01*
Y260565D01*
X226682D01*
Y260453D01*
Y260341D01*
Y260229D01*
Y260117D01*
X226570D01*
Y260005D01*
Y259893D01*
Y259780D01*
Y259668D01*
Y259556D01*
X226458D01*
Y259444D01*
Y259332D01*
Y259220D01*
Y259107D01*
X226346D01*
Y258995D01*
Y258883D01*
Y258771D01*
Y258659D01*
X229037D01*
Y258771D01*
X229373D01*
Y258883D01*
X229597D01*
Y258995D01*
X229710D01*
Y259107D01*
X229934D01*
Y259220D01*
Y259332D01*
X230046D01*
Y259444D01*
X230158D01*
Y259556D01*
Y259668D01*
X230270D01*
Y259780D01*
Y259893D01*
Y260005D01*
X230382D01*
Y260117D01*
Y260229D01*
Y260341D01*
Y260453D01*
Y260565D01*
X230270D01*
Y260677D01*
Y260789D01*
Y260902D01*
X230158D01*
Y261014D01*
X230046D01*
Y261126D01*
X229934D01*
Y261238D01*
X229822D01*
Y261350D01*
X229710D01*
Y261462D01*
X229373D01*
Y261574D01*
D02*
G37*
G36*
X205713Y261462D02*
X205489D01*
Y261350D01*
Y261238D01*
X205377D01*
Y261126D01*
Y261014D01*
X205265D01*
Y260902D01*
X205152D01*
Y260789D01*
Y260677D01*
X205040D01*
Y260565D01*
Y260453D01*
X204928D01*
Y260341D01*
X204816D01*
Y260229D01*
Y260117D01*
X204704D01*
Y260005D01*
Y259893D01*
X204592D01*
Y259780D01*
Y259668D01*
X204480D01*
Y259556D01*
X204367D01*
Y259444D01*
Y259332D01*
X204255D01*
Y259220D01*
Y259107D01*
X204143D01*
Y258995D01*
X204031D01*
Y258883D01*
Y258771D01*
X203919D01*
Y258659D01*
Y258547D01*
X203807D01*
Y258435D01*
X203695D01*
Y258323D01*
Y258210D01*
X203583D01*
Y258098D01*
Y257986D01*
X203470D01*
Y257874D01*
X203358D01*
Y257762D01*
Y257650D01*
X203246D01*
Y257538D01*
Y257425D01*
X203134D01*
Y257313D01*
X203022D01*
Y257201D01*
Y257089D01*
Y256977D01*
X206386D01*
Y257089D01*
Y257201D01*
Y257313D01*
X206274D01*
Y257425D01*
Y257538D01*
Y257650D01*
Y257762D01*
Y257874D01*
Y257986D01*
Y258098D01*
X206162D01*
Y258210D01*
Y258323D01*
Y258435D01*
Y258547D01*
Y258659D01*
Y258771D01*
X206049D01*
Y258883D01*
Y258995D01*
Y259107D01*
Y259220D01*
Y259332D01*
Y259444D01*
X205937D01*
Y259556D01*
Y259668D01*
Y259780D01*
Y259893D01*
Y260005D01*
Y260117D01*
Y260229D01*
X205825D01*
Y260341D01*
Y260453D01*
Y260565D01*
Y260677D01*
Y260789D01*
Y260902D01*
X205713D01*
Y261014D01*
Y261126D01*
Y261238D01*
Y261350D01*
Y261462D01*
D02*
G37*
%LPD*%
D10*
X270795Y228500D02*
X270205D01*
X270795D01*
D11*
X195800Y171200D02*
X196151Y170352D01*
X197000Y170000D01*
X197848Y170352D01*
X198200Y171200D01*
X191911D02*
X202089D01*
X191911Y136800D02*
X202089D01*
D12*
X218736Y150803D02*
Y151197D01*
X223264Y150803D02*
Y151197D01*
X228221Y149606D02*
Y150394D01*
X230780Y149606D02*
Y150394D01*
X249303Y232264D02*
X249697D01*
X249303Y227736D02*
X249697D01*
X264779Y237606D02*
Y238394D01*
X262221Y237606D02*
Y238394D01*
X301236Y171803D02*
Y172197D01*
X305764Y171803D02*
Y172197D01*
X350000Y171500D02*
Y241500D01*
X340000D02*
X350000D01*
X340000Y171500D02*
Y241500D01*
Y171500D02*
X350000D01*
X205236Y179803D02*
Y180197D01*
X209764Y179803D02*
Y180197D01*
X189606Y174721D02*
X190394D01*
X189606Y177279D02*
X190394D01*
X218736Y166303D02*
Y166697D01*
X223264Y166303D02*
Y166697D01*
X215779Y167106D02*
Y167894D01*
X213221Y167106D02*
Y167894D01*
X174606Y145280D02*
X175394D01*
X174606Y142720D02*
X175394D01*
X174803Y134236D02*
X175197D01*
X174803Y138764D02*
X175197D01*
X165000Y110500D02*
X345000D01*
X165000Y130500D02*
X345000D01*
X165000Y110500D02*
Y130500D01*
X345000Y110500D02*
Y130500D01*
X188262Y206384D02*
Y220164D01*
X213853D01*
Y206384D02*
Y220164D01*
X188262Y206384D02*
X213853D01*
X188754Y197427D02*
Y204317D01*
X291216Y143157D02*
X305784D01*
X291216D02*
Y162843D01*
X305784D01*
Y143157D02*
Y162843D01*
X307161Y141779D02*
X312968D01*
X283803Y135736D02*
X284197D01*
X283803Y140264D02*
X284197D01*
X313803Y171736D02*
X314197D01*
X313803Y176264D02*
X314197D01*
X240303Y180264D02*
X240697D01*
X240303Y175736D02*
X240697D01*
X246106Y169220D02*
X246894D01*
X246106Y171780D02*
X246894D01*
X280303Y234236D02*
X280697D01*
X280303Y238764D02*
X280697D01*
X327803Y228264D02*
X328197D01*
X327803Y223736D02*
X328197D01*
X253264Y191303D02*
Y191697D01*
X248736Y191303D02*
Y191697D01*
X179264Y157803D02*
Y158197D01*
X174736Y157803D02*
Y158197D01*
X216736Y203803D02*
Y204197D01*
X221264Y203803D02*
Y204197D01*
X267303Y172736D02*
X267697D01*
X267303Y177264D02*
X267697D01*
X327803Y215797D02*
X328197D01*
X327803Y220325D02*
X328197D01*
X240303Y184736D02*
X240697D01*
X240303Y189264D02*
X240697D01*
X217236Y222803D02*
Y223197D01*
X221764Y222803D02*
Y223197D01*
X234803Y211264D02*
X235197D01*
X234803Y206736D02*
X235197D01*
X318764Y248803D02*
Y249197D01*
X314236Y248803D02*
Y249197D01*
D13*
X183500Y172500D02*
X193000D01*
D14*
X188199Y251527D02*
X187449Y252277D01*
X185950D01*
X185200Y251527D01*
Y248528D01*
X185950Y247778D01*
X187449D01*
X188199Y248528D01*
X190448Y247778D02*
X191948D01*
X192698Y248528D01*
Y250027D01*
X191948Y250777D01*
X190448D01*
X189699Y250027D01*
Y248528D01*
X190448Y247778D01*
X194197D02*
Y250777D01*
X196446D01*
X197196Y250027D01*
Y247778D01*
X199445Y251527D02*
Y250777D01*
X198696D01*
X200195D01*
X199445D01*
Y248528D01*
X200195Y247778D01*
X202444Y250777D02*
Y247778D01*
Y249278D01*
X203194Y250027D01*
X203944Y250777D01*
X204694D01*
X207693Y247778D02*
X209192D01*
X209942Y248528D01*
Y250027D01*
X209192Y250777D01*
X207693D01*
X206943Y250027D01*
Y248528D01*
X207693Y247778D01*
X211441D02*
X212941D01*
X212191D01*
Y252277D01*
X211441D01*
X219689D02*
X222688D01*
X221188D01*
Y247778D01*
X226437D02*
X224937D01*
X224187Y248528D01*
Y250027D01*
X224937Y250777D01*
X226437D01*
X227186Y250027D01*
Y249278D01*
X224187D01*
X228686Y247778D02*
X230935D01*
X231685Y248528D01*
X230935Y249278D01*
X229436D01*
X228686Y250027D01*
X229436Y250777D01*
X231685D01*
X233934Y251527D02*
Y250777D01*
X233185D01*
X234684D01*
X233934D01*
Y248528D01*
X234684Y247778D01*
X241432Y252277D02*
Y247778D01*
X243681D01*
X244431Y248528D01*
Y249278D01*
X243681Y250027D01*
X241432D01*
X243681D01*
X244431Y250777D01*
Y251527D01*
X243681Y252277D01*
X241432D01*
X246680Y247778D02*
X248180D01*
X248929Y248528D01*
Y250027D01*
X248180Y250777D01*
X246680D01*
X245930Y250027D01*
Y248528D01*
X246680Y247778D01*
X251179Y250777D02*
X252678D01*
X253428Y250027D01*
Y247778D01*
X251179D01*
X250429Y248528D01*
X251179Y249278D01*
X253428D01*
X254927Y250777D02*
Y247778D01*
Y249278D01*
X255677Y250027D01*
X256427Y250777D01*
X257177D01*
X262425Y252277D02*
Y247778D01*
X260176D01*
X259426Y248528D01*
Y250027D01*
X260176Y250777D01*
X262425D01*
X185200Y245198D02*
Y240700D01*
X187449D01*
X188199Y241450D01*
Y244449D01*
X187449Y245198D01*
X185200D01*
X191948Y240700D02*
X190448D01*
X189699Y241450D01*
Y242949D01*
X190448Y243699D01*
X191948D01*
X192698Y242949D01*
Y242199D01*
X189699D01*
X194197Y243699D02*
X195697Y240700D01*
X197196Y243699D01*
X203194Y240700D02*
Y245198D01*
X205444D01*
X206193Y244449D01*
Y242949D01*
X205444Y242199D01*
X203194D01*
X208442Y243699D02*
X209942D01*
X210692Y242949D01*
Y240700D01*
X208442D01*
X207693Y241450D01*
X208442Y242199D01*
X210692D01*
X212941Y244449D02*
Y243699D01*
X212191D01*
X213691D01*
X212941D01*
Y241450D01*
X213691Y240700D01*
X218189D02*
X216690D01*
X215940Y241450D01*
Y242949D01*
X216690Y243699D01*
X218189D01*
X218939Y242949D01*
Y242199D01*
X215940D01*
X220439Y240700D02*
X221938D01*
X221188D01*
Y245198D01*
X220439D01*
X348000Y126749D02*
X348550Y127299D01*
X349650D01*
X350199Y126749D01*
Y126199D01*
X349650Y125649D01*
X349100D01*
X349650D01*
X350199Y125100D01*
Y124550D01*
X349650Y124000D01*
X348550D01*
X348000Y124550D01*
X353498Y127299D02*
X352399Y126749D01*
X351299Y125649D01*
Y124550D01*
X351849Y124000D01*
X352948D01*
X353498Y124550D01*
Y125100D01*
X352948Y125649D01*
X351299D01*
X348000Y114749D02*
X348550Y115299D01*
X349650D01*
X350199Y114749D01*
Y114199D01*
X349650Y113649D01*
X349100D01*
X349650D01*
X350199Y113100D01*
Y112550D01*
X349650Y112000D01*
X348550D01*
X348000Y112550D01*
X353498Y115299D02*
X351299D01*
Y113649D01*
X352399Y114199D01*
X352948D01*
X353498Y113649D01*
Y112550D01*
X352948Y112000D01*
X351849D01*
X351299Y112550D01*
X160500Y114000D02*
X161600D01*
X161050D01*
Y117299D01*
X160500Y116749D01*
X162699Y124000D02*
X160500D01*
X162699Y126199D01*
Y126749D01*
X162150Y127299D01*
X161050D01*
X160500Y126749D01*
X211751Y174351D02*
Y177649D01*
X213400D01*
X213950Y177100D01*
Y176000D01*
X213400Y175450D01*
X211751D01*
X212850D02*
X213950Y174351D01*
X217249Y177649D02*
X216149Y177100D01*
X215050Y176000D01*
Y174900D01*
X215600Y174351D01*
X216699D01*
X217249Y174900D01*
Y175450D01*
X216699Y176000D01*
X215050D01*
X226751Y139835D02*
Y143134D01*
X228400D01*
X228950Y142584D01*
Y141484D01*
X228400Y140934D01*
X226751D01*
X227851D02*
X228950Y139835D01*
X232249Y143134D02*
X230050D01*
Y141484D01*
X231150Y142034D01*
X231699D01*
X232249Y141484D01*
Y140385D01*
X231699Y139835D01*
X230600D01*
X230050Y140385D01*
X158876Y142350D02*
Y145650D01*
X160526D01*
X161076Y145100D01*
Y144000D01*
X160526Y143450D01*
X158876D01*
X159976D02*
X161076Y142350D01*
X163825D02*
Y145650D01*
X162175Y144000D01*
X164375D01*
X185251Y180350D02*
Y183650D01*
X186900D01*
X187450Y183100D01*
Y182000D01*
X186900Y181450D01*
X185251D01*
X186351D02*
X187450Y180350D01*
X190749D02*
X188550D01*
X190749Y182550D01*
Y183100D01*
X190199Y183650D01*
X189100D01*
X188550Y183100D01*
X227851Y171100D02*
X227301Y171650D01*
X226201D01*
X225651Y171100D01*
Y168900D01*
X226201Y168351D01*
X227301D01*
X227851Y168900D01*
X231150Y168351D02*
X228950D01*
X231150Y170550D01*
Y171100D01*
X230600Y171650D01*
X229500D01*
X228950Y171100D01*
X232249Y168351D02*
X233349D01*
X232799D01*
Y171650D01*
X232249Y171100D01*
X218076Y142584D02*
X217526Y143134D01*
X216426D01*
X215876Y142584D01*
Y140385D01*
X216426Y139835D01*
X217526D01*
X218076Y140385D01*
X219175Y139835D02*
X220275D01*
X219725D01*
Y143134D01*
X219175Y142584D01*
X221924D02*
X222474Y143134D01*
X223574D01*
X224124Y142584D01*
Y142034D01*
X223574Y141484D01*
X224124Y140934D01*
Y140385D01*
X223574Y139835D01*
X222474D01*
X221924Y140385D01*
Y140934D01*
X222474Y141484D01*
X221924Y142034D01*
Y142584D01*
X222474Y141484D02*
X223574D01*
X161076Y137600D02*
X160526Y138149D01*
X159426D01*
X158876Y137600D01*
Y135400D01*
X159426Y134851D01*
X160526D01*
X161076Y135400D01*
X162175Y134851D02*
X163275D01*
X162725D01*
Y138149D01*
X162175Y137600D01*
X167124Y138149D02*
X166024Y137600D01*
X164924Y136500D01*
Y135400D01*
X165474Y134851D01*
X166574D01*
X167124Y135400D01*
Y135950D01*
X166574Y136500D01*
X164924D01*
X205626Y190100D02*
X205076Y190649D01*
X203976D01*
X203426Y190100D01*
Y187900D01*
X203976Y187350D01*
X205076D01*
X205626Y187900D01*
X206725Y187350D02*
X207825D01*
X207275D01*
Y190649D01*
X206725Y190100D01*
X209474Y187350D02*
X210574D01*
X210024D01*
Y190649D01*
X209474Y190100D01*
X322751Y184650D02*
Y181900D01*
X323301Y181351D01*
X324400D01*
X324950Y181900D01*
Y184650D01*
X326050Y184100D02*
X326600Y184650D01*
X327699D01*
X328249Y184100D01*
Y183550D01*
X327699Y183000D01*
X327150D01*
X327699D01*
X328249Y182450D01*
Y181900D01*
X327699Y181351D01*
X326600D01*
X326050Y181900D01*
X273500Y139100D02*
X272950Y139649D01*
X271850D01*
X271301Y139100D01*
Y136900D01*
X271850Y136351D01*
X272950D01*
X273500Y136900D01*
X274600Y136351D02*
X275699D01*
X275149D01*
Y139649D01*
X274600Y139100D01*
X229450Y177100D02*
X228900Y177649D01*
X227801D01*
X227251Y177100D01*
Y174900D01*
X227801Y174351D01*
X228900D01*
X229450Y174900D01*
X232749Y177649D02*
X231649Y177100D01*
X230550Y176000D01*
Y174900D01*
X231100Y174351D01*
X232199D01*
X232749Y174900D01*
Y175450D01*
X232199Y176000D01*
X230550D01*
X242801Y162850D02*
Y166149D01*
X244450D01*
X245000Y165600D01*
Y164500D01*
X244450Y163950D01*
X242801D01*
X243900D02*
X245000Y162850D01*
X246100D02*
X247199D01*
X246650D01*
Y166149D01*
X246100Y165600D01*
X309301Y139649D02*
Y136900D01*
X309851Y136351D01*
X310950D01*
X311500Y136900D01*
Y139649D01*
X312600Y136351D02*
X313699D01*
X313149D01*
Y139649D01*
X312600Y139100D01*
X205251Y135650D02*
Y132900D01*
X205801Y132351D01*
X206900D01*
X207450Y132900D01*
Y135650D01*
X210749Y132351D02*
X208550D01*
X210749Y134550D01*
Y135100D01*
X210199Y135650D01*
X209100D01*
X208550Y135100D01*
X229301Y221650D02*
Y221100D01*
X230400Y220000D01*
X231500Y221100D01*
Y221650D01*
X230400Y220000D02*
Y218351D01*
X232600D02*
X233699D01*
X233150D01*
Y221650D01*
X232600Y221100D01*
X189251Y235649D02*
Y232900D01*
X189801Y232350D01*
X190900D01*
X191450Y232900D01*
Y235649D01*
X194199Y232350D02*
Y235649D01*
X192550Y234000D01*
X194749D01*
X316500Y265100D02*
X315950Y265650D01*
X314850D01*
X314301Y265100D01*
Y264550D01*
X314850Y264000D01*
X315950D01*
X316500Y263450D01*
Y262900D01*
X315950Y262351D01*
X314850D01*
X314301Y262900D01*
X317600Y262351D02*
X318699D01*
X318149D01*
Y265650D01*
X317600Y265100D01*
X260251Y227851D02*
Y231150D01*
X261900D01*
X262450Y230600D01*
Y229500D01*
X261900Y228950D01*
X260251D01*
X261350D02*
X262450Y227851D01*
X263550Y230600D02*
X264100Y231150D01*
X265199D01*
X265749Y230600D01*
Y230050D01*
X265199Y229500D01*
X264650D01*
X265199D01*
X265749Y228950D01*
Y228400D01*
X265199Y227851D01*
X264100D01*
X263550Y228400D01*
X358600Y172181D02*
X355301D01*
Y173830D01*
X355851Y174380D01*
X356950D01*
X357500Y173830D01*
Y172181D01*
X356400Y175479D02*
X358600D01*
X357500D01*
X356950Y176029D01*
X356400Y176579D01*
Y177129D01*
X358600Y179328D02*
Y180428D01*
X358050Y180978D01*
X356950D01*
X356400Y180428D01*
Y179328D01*
X356950Y178779D01*
X358050D01*
X358600Y179328D01*
X359699Y183177D02*
Y183727D01*
X359150Y184277D01*
X356400D01*
Y182627D01*
X356950Y182077D01*
X358050D01*
X358600Y182627D01*
Y184277D01*
X356400Y185376D02*
X358600D01*
X357500D01*
X356950Y185926D01*
X356400Y186476D01*
Y187026D01*
Y189225D02*
Y190325D01*
X356950Y190875D01*
X358600D01*
Y189225D01*
X358050Y188675D01*
X357500Y189225D01*
Y190875D01*
X358600Y191974D02*
X356400D01*
Y192524D01*
X356950Y193074D01*
X358600D01*
X356950D01*
X356400Y193624D01*
X356950Y194174D01*
X358600D01*
Y195273D02*
X356400D01*
Y195823D01*
X356950Y196373D01*
X358600D01*
X356950D01*
X356400Y196923D01*
X356950Y197472D01*
X358600D01*
Y198572D02*
Y199672D01*
Y199122D01*
X356400D01*
Y198572D01*
X358600Y201321D02*
X356400D01*
Y202971D01*
X356950Y203520D01*
X358600D01*
X359699Y205720D02*
Y206270D01*
X359150Y206819D01*
X356400D01*
Y205170D01*
X356950Y204620D01*
X358050D01*
X358600Y205170D01*
Y206819D01*
X173801Y169100D02*
X173251Y169650D01*
X172151D01*
X171601Y169100D01*
Y166900D01*
X172151Y166350D01*
X173251D01*
X173801Y166900D01*
X177100Y166350D02*
X174900D01*
X177100Y168550D01*
Y169100D01*
X176550Y169650D01*
X175450D01*
X174900Y169100D01*
X180399Y166350D02*
X178199D01*
X180399Y168550D01*
Y169100D01*
X179849Y169650D01*
X178749D01*
X178199Y169100D01*
X218076Y233600D02*
X217526Y234150D01*
X216426D01*
X215876Y233600D01*
Y231400D01*
X216426Y230851D01*
X217526D01*
X218076Y231400D01*
X221375Y230851D02*
X219175D01*
X221375Y233050D01*
Y233600D01*
X220825Y234150D01*
X219725D01*
X219175Y233600D01*
X222474D02*
X223024Y234150D01*
X224124D01*
X224674Y233600D01*
Y231400D01*
X224124Y230851D01*
X223024D01*
X222474Y231400D01*
Y233600D01*
X218076Y195600D02*
X217526Y196150D01*
X216426D01*
X215876Y195600D01*
Y193400D01*
X216426Y192850D01*
X217526D01*
X218076Y193400D01*
X219175Y192850D02*
X220275D01*
X219725D01*
Y196150D01*
X219175Y195600D01*
X221924Y193400D02*
X222474Y192850D01*
X223574D01*
X224124Y193400D01*
Y195600D01*
X223574Y196150D01*
X222474D01*
X221924Y195600D01*
Y195050D01*
X222474Y194500D01*
X224124D01*
X324076Y250600D02*
X323526Y251150D01*
X322426D01*
X321876Y250600D01*
Y248400D01*
X322426Y247850D01*
X323526D01*
X324076Y248400D01*
X325175Y247850D02*
X326275D01*
X325725D01*
Y251150D01*
X325175Y250600D01*
X329574Y247850D02*
Y251150D01*
X327924Y249500D01*
X330124D01*
X290076Y237100D02*
X289526Y237649D01*
X288426D01*
X287876Y237100D01*
Y234900D01*
X288426Y234350D01*
X289526D01*
X290076Y234900D01*
X291175Y234350D02*
X292275D01*
X291725D01*
Y237649D01*
X291175Y237100D01*
X293924D02*
X294474Y237649D01*
X295574D01*
X296124Y237100D01*
Y236550D01*
X295574Y236000D01*
X295024D01*
X295574D01*
X296124Y235450D01*
Y234900D01*
X295574Y234350D01*
X294474D01*
X293924Y234900D01*
X324076Y233600D02*
X323526Y234150D01*
X322426D01*
X321876Y233600D01*
Y231400D01*
X322426Y230851D01*
X323526D01*
X324076Y231400D01*
X325175Y230851D02*
X326275D01*
X325725D01*
Y234150D01*
X325175Y233600D01*
X330124Y230851D02*
X327924D01*
X330124Y233050D01*
Y233600D01*
X329574Y234150D01*
X328474D01*
X327924Y233600D01*
X236076Y230600D02*
X235526Y231150D01*
X234426D01*
X233876Y230600D01*
Y228400D01*
X234426Y227851D01*
X235526D01*
X236076Y228400D01*
X237175Y227851D02*
X238275D01*
X237725D01*
Y231150D01*
X237175Y230600D01*
X239924D02*
X240474Y231150D01*
X241574D01*
X242124Y230600D01*
Y228400D01*
X241574Y227851D01*
X240474D01*
X239924Y228400D01*
Y230600D01*
X235576Y203600D02*
X235026Y204150D01*
X233926D01*
X233376Y203600D01*
Y201400D01*
X233926Y200851D01*
X235026D01*
X235576Y201400D01*
X236675D02*
X237225Y200851D01*
X238325D01*
X238875Y201400D01*
Y203600D01*
X238325Y204150D01*
X237225D01*
X236675Y203600D01*
Y203050D01*
X237225Y202500D01*
X238875D01*
X324950Y175147D02*
X324400Y175697D01*
X323301D01*
X322751Y175147D01*
Y172948D01*
X323301Y172398D01*
X324400D01*
X324950Y172948D01*
X326050Y175147D02*
X326600Y175697D01*
X327699D01*
X328249Y175147D01*
Y174597D01*
X327699Y174047D01*
X328249Y173497D01*
Y172948D01*
X327699Y172398D01*
X326600D01*
X326050Y172948D01*
Y173497D01*
X326600Y174047D01*
X326050Y174597D01*
Y175147D01*
X326600Y174047D02*
X327699D01*
X260950Y170100D02*
X260400Y170650D01*
X259301D01*
X258751Y170100D01*
Y167900D01*
X259301Y167350D01*
X260400D01*
X260950Y167900D01*
X262050Y170650D02*
X264249D01*
Y170100D01*
X262050Y167900D01*
Y167350D01*
X229450Y190100D02*
X228900Y190649D01*
X227801D01*
X227251Y190100D01*
Y187900D01*
X227801Y187350D01*
X228900D01*
X229450Y187900D01*
X232749Y190649D02*
X230550D01*
Y189000D01*
X231649Y189550D01*
X232199D01*
X232749Y189000D01*
Y187900D01*
X232199Y187350D01*
X231100D01*
X230550Y187900D01*
X295950Y177100D02*
X295400Y177649D01*
X294301D01*
X293751Y177100D01*
Y174900D01*
X294301Y174351D01*
X295400D01*
X295950Y174900D01*
X298699Y174351D02*
Y177649D01*
X297050Y176000D01*
X299249D01*
X324076Y212600D02*
X323526Y213149D01*
X322426D01*
X321876Y212600D01*
Y210400D01*
X322426Y209851D01*
X323526D01*
X324076Y210400D01*
X325175Y212600D02*
X325725Y213149D01*
X326825D01*
X327375Y212600D01*
Y212050D01*
X326825Y211500D01*
X326275D01*
X326825D01*
X327375Y210950D01*
Y210400D01*
X326825Y209851D01*
X325725D01*
X325175Y210400D01*
X257450Y190100D02*
X256900Y190649D01*
X255801D01*
X255251Y190100D01*
Y187900D01*
X255801Y187350D01*
X256900D01*
X257450Y187900D01*
X260749Y187350D02*
X258550D01*
X260749Y189550D01*
Y190100D01*
X260199Y190649D01*
X259100D01*
X258550Y190100D01*
M02*
