G04*
G04 #@! TF.GenerationSoftware,Altium Limited,Altium Designer,21.2.2 (38)*
G04*
G04 Layer_Color=255*
%FSLAX25Y25*%
%MOIN*%
G70*
G04*
G04 #@! TF.SameCoordinates,C3B877AE-1357-438A-BEA6-5EF708E32FCF*
G04*
G04*
G04 #@! TF.FilePolarity,Positive*
G04*
G01*
G75*
%ADD44C,0.05906*%
%ADD45R,0.05906X0.05906*%
%ADD46C,0.23622*%
%ADD47R,0.05906X0.05906*%
D44*
X345000Y186500D02*
D03*
Y176500D02*
D03*
Y196500D02*
D03*
Y206500D02*
D03*
Y226500D02*
D03*
Y216500D02*
D03*
X340000Y125500D02*
D03*
Y115500D02*
D03*
X330000Y125500D02*
D03*
Y115500D02*
D03*
X320000Y125500D02*
D03*
Y115500D02*
D03*
X310000Y125500D02*
D03*
Y115500D02*
D03*
X300000Y125500D02*
D03*
Y115500D02*
D03*
X290000Y125500D02*
D03*
Y115500D02*
D03*
X280000Y125500D02*
D03*
Y115500D02*
D03*
X270000Y125500D02*
D03*
Y115500D02*
D03*
X260000Y125500D02*
D03*
Y115500D02*
D03*
X250000Y125500D02*
D03*
Y115500D02*
D03*
X240000Y125500D02*
D03*
Y115500D02*
D03*
X230000Y125500D02*
D03*
Y115500D02*
D03*
X220000Y125500D02*
D03*
Y115500D02*
D03*
X210000Y125500D02*
D03*
Y115500D02*
D03*
X200000Y125500D02*
D03*
Y115500D02*
D03*
X190000Y125500D02*
D03*
Y115500D02*
D03*
X180000Y125500D02*
D03*
Y115500D02*
D03*
X170000Y125500D02*
D03*
D45*
X345000Y236500D02*
D03*
D46*
X350000Y150000D02*
D03*
X170000Y255000D02*
D03*
D47*
Y115500D02*
D03*
M02*
