G04*
G04 #@! TF.GenerationSoftware,Altium Limited,Altium Designer,21.2.2 (38)*
G04*
G04 Layer_Color=16711935*
%FSLAX25Y25*%
%MOIN*%
G70*
G04*
G04 #@! TF.SameCoordinates,C3B877AE-1357-438A-BEA6-5EF708E32FCF*
G04*
G04*
G04 #@! TF.FilePolarity,Positive*
G04*
G01*
G75*
%ADD49C,0.00000*%
%ADD50C,0.00394*%
%ADD51C,0.00100*%
D49*
X195800Y171200D02*
X196151Y170352D01*
X197000Y170000D01*
X197848Y170352D01*
X198200Y171200D01*
D50*
X265075Y234850D02*
Y241150D01*
X261925Y234850D02*
Y241150D01*
X265075D01*
X261925Y234850D02*
X265075D01*
X301138Y168063D02*
Y175937D01*
X305862Y168063D02*
Y175937D01*
X301138Y168063D02*
X305862D01*
X301138Y175937D02*
X305862D01*
X205138Y176063D02*
X209862D01*
X205138Y183937D02*
X209862D01*
X205138Y176063D02*
Y183937D01*
X209862Y176063D02*
Y183937D01*
X186850Y174425D02*
X193150D01*
X186850Y177575D02*
X193150D01*
Y174425D02*
Y177575D01*
X186850Y174425D02*
Y177575D01*
X221638Y163705D02*
X226362D01*
X221638Y171579D02*
X226362D01*
X221638Y163705D02*
Y171579D01*
X226362Y163705D02*
Y171579D01*
X217575Y164350D02*
Y170650D01*
X214425Y164350D02*
Y170650D01*
X217575D01*
X214425Y164350D02*
X217575D01*
X218638Y147047D02*
X223362D01*
X218638Y154921D02*
X223362D01*
X218638Y147047D02*
Y154921D01*
X223362Y147047D02*
Y154921D01*
X231075Y146850D02*
Y153150D01*
X227925Y146850D02*
Y153150D01*
X231075D01*
X227925Y146850D02*
X231075D01*
X171850Y145575D02*
X178150D01*
X171850Y142425D02*
X178150D01*
X171850D02*
Y145575D01*
X178150Y142425D02*
Y145575D01*
X178937Y134138D02*
Y138862D01*
X171063Y134138D02*
Y138862D01*
Y134138D02*
X178937D01*
X171063Y138862D02*
X178937D01*
X188262Y206384D02*
Y220164D01*
X213853D01*
Y206384D02*
Y220164D01*
X188262Y206384D02*
X213853D01*
X188262Y215439D02*
X197317Y206384D01*
X289839Y143157D02*
X307161D01*
X289839D02*
Y162843D01*
X307161D01*
Y143157D02*
Y162843D01*
X304602Y143157D02*
X307161Y145717D01*
X287937Y135638D02*
Y140362D01*
X280063Y135638D02*
Y140362D01*
Y135638D02*
X287937D01*
X280063Y140362D02*
X287937D01*
X310063Y172590D02*
X317937D01*
X310063Y177315D02*
X317937D01*
Y172590D02*
Y177315D01*
X310063Y172590D02*
Y177315D01*
X236563Y175638D02*
Y180362D01*
X244437Y175638D02*
Y180362D01*
X236563D02*
X244437D01*
X236563Y175638D02*
X244437D01*
X243350Y168925D02*
X249650D01*
X243350Y172075D02*
X249650D01*
Y168925D02*
Y172075D01*
X243350Y168925D02*
Y172075D01*
X276563Y234138D02*
X284437D01*
X276563Y238862D02*
X284437D01*
Y234138D02*
Y238862D01*
X276563Y234138D02*
Y238862D01*
X324063Y223638D02*
Y228362D01*
X331937Y223638D02*
Y228362D01*
X324063D02*
X331937D01*
X324063Y223638D02*
X331937D01*
X253362Y187563D02*
Y195437D01*
X248638Y187563D02*
Y195437D01*
X253362D01*
X248638Y187563D02*
X253362D01*
X179362Y154063D02*
Y161937D01*
X174638Y154063D02*
Y161937D01*
X179362D01*
X174638Y154063D02*
X179362D01*
X217138Y200563D02*
Y208437D01*
X221862Y200563D02*
Y208437D01*
X217138Y200563D02*
X221862D01*
X217138Y208437D02*
X221862D01*
X271437Y177362D02*
X271437Y172638D01*
X263563Y172638D02*
X263563Y177362D01*
X263563Y172638D02*
X271437Y172638D01*
X263563Y177362D02*
X271437Y177362D01*
X331937Y215699D02*
Y220423D01*
X324063Y215699D02*
Y220423D01*
Y215699D02*
X331937D01*
X324063Y220423D02*
X331937D01*
X244437Y184638D02*
Y189362D01*
X236563Y184638D02*
Y189362D01*
Y184638D02*
X244437D01*
X236563Y189362D02*
X244437D01*
X217138Y219063D02*
X221862D01*
X217138Y226937D02*
X221862D01*
X217138Y219063D02*
Y226937D01*
X221862Y219063D02*
Y226937D01*
X245063Y228638D02*
X252937D01*
X245063Y233362D02*
X252937D01*
Y228638D02*
Y233362D01*
X245063Y228638D02*
Y233362D01*
X231063Y211362D02*
X238937D01*
X231063Y206638D02*
X238937D01*
X231063D02*
Y211362D01*
X238937Y206638D02*
Y211362D01*
X319862Y244059D02*
Y251933D01*
X315138Y244059D02*
Y251933D01*
X319862D01*
X315138Y244059D02*
X319862D01*
D51*
X189100Y136800D02*
Y171200D01*
X204900D01*
Y136800D02*
Y171200D01*
X189100Y136800D02*
X204900D01*
Y170000D02*
X209200D01*
Y168000D02*
Y170000D01*
X204900Y168000D02*
X209200D01*
X204900D02*
Y170000D01*
Y165000D02*
X209200D01*
Y163000D02*
Y165000D01*
X204900Y163000D02*
X209200D01*
X204900D02*
Y165000D01*
Y160000D02*
X209200D01*
Y158000D02*
Y160000D01*
X204900Y158000D02*
X209200D01*
X204900D02*
Y160000D01*
Y155000D02*
X209200D01*
Y153000D02*
Y155000D01*
X204900Y153000D02*
X209200D01*
X204900D02*
Y155000D01*
Y150000D02*
X209200D01*
Y148000D02*
Y150000D01*
X204900Y148000D02*
X209200D01*
X204900D02*
Y150000D01*
Y145000D02*
X209200D01*
Y143000D02*
Y145000D01*
X204900Y143000D02*
X209200D01*
X204900D02*
Y145000D01*
Y140000D02*
X209200D01*
Y138000D02*
Y140000D01*
X204900Y138000D02*
X209200D01*
X204900D02*
Y140000D01*
X184800Y138000D02*
X189100D01*
X184800D02*
Y140000D01*
X189100D01*
Y138000D02*
Y140000D01*
X184800Y143000D02*
X189100D01*
X184800D02*
Y145000D01*
X189100D01*
Y143000D02*
Y145000D01*
X184800Y148000D02*
X189100D01*
X184800D02*
Y150000D01*
X189100D01*
Y148000D02*
Y150000D01*
X184800Y153000D02*
X189100D01*
X184800D02*
Y155000D01*
X189100D01*
Y153000D02*
Y155000D01*
X184800Y158000D02*
X189100D01*
X184800D02*
Y160000D01*
X189100D01*
Y158000D02*
Y160000D01*
X184800Y163000D02*
X189100D01*
X184800D02*
Y165000D01*
X189100D01*
Y163000D02*
Y165000D01*
X184800Y168000D02*
X189100D01*
X184800D02*
Y170000D01*
X189100D01*
Y168000D02*
Y170000D01*
M02*
