G04*
G04 #@! TF.GenerationSoftware,Altium Limited,Altium Designer,21.2.2 (38)*
G04*
G04 Layer_Color=65535*
%FSLAX25Y25*%
%MOIN*%
G70*
G04*
G04 #@! TF.SameCoordinates,C3B877AE-1357-438A-BEA6-5EF708E32FCF*
G04*
G04*
G04 #@! TF.FilePolarity,Positive*
G04*
G01*
G75*
%ADD10C,0.02756*%
%ADD11C,0.00600*%
%ADD12C,0.00787*%
%ADD13C,0.01000*%
%ADD14C,0.00700*%
D10*
X270795Y228500D02*
X270205D01*
X270795D01*
D11*
X195800Y171200D02*
X196151Y170352D01*
X197000Y170000D01*
X197848Y170352D01*
X198200Y171200D01*
X191911D02*
X202089D01*
X191911Y136800D02*
X202089D01*
D12*
X264779Y237606D02*
Y238394D01*
X262221Y237606D02*
Y238394D01*
X301236Y171803D02*
Y172197D01*
X305764Y171803D02*
Y172197D01*
X350000Y171500D02*
Y241500D01*
X340000D02*
X350000D01*
X340000Y171500D02*
Y241500D01*
Y171500D02*
X350000D01*
X205236Y179803D02*
Y180197D01*
X209764Y179803D02*
Y180197D01*
X189606Y174721D02*
X190394D01*
X189606Y177279D02*
X190394D01*
X221736Y167445D02*
Y167839D01*
X226264Y167445D02*
Y167839D01*
X217280Y167106D02*
Y167894D01*
X214721Y167106D02*
Y167894D01*
X218736Y150787D02*
Y151181D01*
X223264Y150787D02*
Y151181D01*
X230780Y149606D02*
Y150394D01*
X228221Y149606D02*
Y150394D01*
X174606Y145280D02*
X175394D01*
X174606Y142720D02*
X175394D01*
X174803Y134236D02*
X175197D01*
X174803Y138764D02*
X175197D01*
X165000Y110500D02*
X345000D01*
X165000Y130500D02*
X345000D01*
X165000Y110500D02*
Y130500D01*
X345000Y110500D02*
Y130500D01*
X188262Y206384D02*
Y220164D01*
X213853D01*
Y206384D02*
Y220164D01*
X188262Y206384D02*
X213853D01*
X188754Y197427D02*
Y204317D01*
X291216Y143157D02*
X305784D01*
X291216D02*
Y162843D01*
X305784D01*
Y143157D02*
Y162843D01*
X307161Y141779D02*
X312968D01*
X283803Y135736D02*
X284197D01*
X283803Y140264D02*
X284197D01*
X313803Y172689D02*
X314197D01*
X313803Y177216D02*
X314197D01*
X240303Y180264D02*
X240697D01*
X240303Y175736D02*
X240697D01*
X246106Y169220D02*
X246894D01*
X246106Y171780D02*
X246894D01*
X280303Y234236D02*
X280697D01*
X280303Y238764D02*
X280697D01*
X327803Y228264D02*
X328197D01*
X327803Y223736D02*
X328197D01*
X253264Y191303D02*
Y191697D01*
X248736Y191303D02*
Y191697D01*
X179264Y157803D02*
Y158197D01*
X174736Y157803D02*
Y158197D01*
X217236Y204303D02*
Y204697D01*
X221764Y204303D02*
Y204697D01*
X267303Y172736D02*
X267697D01*
X267303Y177264D02*
X267697D01*
X327803Y215797D02*
X328197D01*
X327803Y220325D02*
X328197D01*
X240303Y184736D02*
X240697D01*
X240303Y189264D02*
X240697D01*
X217236Y222803D02*
Y223197D01*
X221764Y222803D02*
Y223197D01*
X248803Y228736D02*
X249197D01*
X248803Y233264D02*
X249197D01*
X234803Y211264D02*
X235197D01*
X234803Y206736D02*
X235197D01*
X319764Y247799D02*
Y248193D01*
X315236Y247799D02*
Y248193D01*
D13*
X183500Y172500D02*
X193000D01*
D14*
X186200Y259677D02*
X188866D01*
X187533D01*
Y255679D01*
X192198D02*
X190865D01*
X190199Y256345D01*
Y257678D01*
X190865Y258344D01*
X192198D01*
X192865Y257678D01*
Y257011D01*
X190199D01*
X194197Y255679D02*
X196197D01*
X196863Y256345D01*
X196197Y257011D01*
X194864D01*
X194197Y257678D01*
X194864Y258344D01*
X196863D01*
X198863Y259011D02*
Y258344D01*
X198196D01*
X199529D01*
X198863D01*
Y256345D01*
X199529Y255679D01*
X205527Y259677D02*
Y255679D01*
X207526D01*
X208193Y256345D01*
Y259011D01*
X207526Y259677D01*
X205527D01*
X211525Y255679D02*
X210192D01*
X209526Y256345D01*
Y257678D01*
X210192Y258344D01*
X211525D01*
X212192Y257678D01*
Y257011D01*
X209526D01*
X213525Y258344D02*
X214857Y255679D01*
X216190Y258344D01*
X221522Y259677D02*
Y255679D01*
X223521D01*
X224188Y256345D01*
Y257011D01*
X223521Y257678D01*
X221522D01*
X223521D01*
X224188Y258344D01*
Y259011D01*
X223521Y259677D01*
X221522D01*
X226187Y255679D02*
X227520D01*
X228186Y256345D01*
Y257678D01*
X227520Y258344D01*
X226187D01*
X225521Y257678D01*
Y256345D01*
X226187Y255679D01*
X230186Y258344D02*
X231519D01*
X232185Y257678D01*
Y255679D01*
X230186D01*
X229519Y256345D01*
X230186Y257011D01*
X232185D01*
X233518Y258344D02*
Y255679D01*
Y257011D01*
X234185Y257678D01*
X234851Y258344D01*
X235517D01*
X240183Y259677D02*
Y255679D01*
X238183D01*
X237517Y256345D01*
Y257678D01*
X238183Y258344D01*
X240183D01*
X186200Y253199D02*
Y249200D01*
X188199D01*
X188866Y249866D01*
Y252532D01*
X188199Y253199D01*
X186200D01*
X192198Y249200D02*
X190865D01*
X190199Y249866D01*
Y251199D01*
X190865Y251866D01*
X192198D01*
X192865Y251199D01*
Y250533D01*
X190199D01*
X194197Y251866D02*
X195530Y249200D01*
X196863Y251866D01*
X202195Y249200D02*
Y253199D01*
X204194D01*
X204861Y252532D01*
Y251199D01*
X204194Y250533D01*
X202195D01*
X206860Y251866D02*
X208193D01*
X208859Y251199D01*
Y249200D01*
X206860D01*
X206194Y249866D01*
X206860Y250533D01*
X208859D01*
X210859Y252532D02*
Y251866D01*
X210192D01*
X211525D01*
X210859D01*
Y249866D01*
X211525Y249200D01*
X215524D02*
X214191D01*
X213525Y249866D01*
Y251199D01*
X214191Y251866D01*
X215524D01*
X216190Y251199D01*
Y250533D01*
X213525D01*
X217523Y249200D02*
X218856D01*
X218190D01*
Y253199D01*
X217523D01*
X348000Y126749D02*
X348550Y127299D01*
X349650D01*
X350199Y126749D01*
Y126199D01*
X349650Y125649D01*
X349100D01*
X349650D01*
X350199Y125100D01*
Y124550D01*
X349650Y124000D01*
X348550D01*
X348000Y124550D01*
X353498Y127299D02*
X352399Y126749D01*
X351299Y125649D01*
Y124550D01*
X351849Y124000D01*
X352948D01*
X353498Y124550D01*
Y125100D01*
X352948Y125649D01*
X351299D01*
X348000Y114749D02*
X348550Y115299D01*
X349650D01*
X350199Y114749D01*
Y114199D01*
X349650Y113649D01*
X349100D01*
X349650D01*
X350199Y113100D01*
Y112550D01*
X349650Y112000D01*
X348550D01*
X348000Y112550D01*
X353498Y115299D02*
X351299D01*
Y113649D01*
X352399Y114199D01*
X352948D01*
X353498Y113649D01*
Y112550D01*
X352948Y112000D01*
X351849D01*
X351299Y112550D01*
X160000Y114000D02*
X161100D01*
X160550D01*
Y117299D01*
X160000Y116749D01*
X162199Y124000D02*
X160000D01*
X162199Y126199D01*
Y126749D01*
X161650Y127299D01*
X160550D01*
X160000Y126749D01*
X214251Y174351D02*
Y177649D01*
X215900D01*
X216450Y177100D01*
Y176000D01*
X215900Y175450D01*
X214251D01*
X215351D02*
X216450Y174351D01*
X219749Y177649D02*
X218650Y177100D01*
X217550Y176000D01*
Y174900D01*
X218100Y174351D01*
X219199D01*
X219749Y174900D01*
Y175450D01*
X219199Y176000D01*
X217550D01*
X226751Y139850D02*
Y143149D01*
X228400D01*
X228950Y142600D01*
Y141500D01*
X228400Y140950D01*
X226751D01*
X227851D02*
X228950Y139850D01*
X232249Y143149D02*
X230050D01*
Y141500D01*
X231150Y142050D01*
X231699D01*
X232249Y141500D01*
Y140400D01*
X231699Y139850D01*
X230600D01*
X230050Y140400D01*
X161751Y142350D02*
Y145650D01*
X163400D01*
X163950Y145100D01*
Y144000D01*
X163400Y143450D01*
X161751D01*
X162850D02*
X163950Y142350D01*
X166699D02*
Y145650D01*
X165050Y144000D01*
X167249D01*
X185251Y180350D02*
Y183650D01*
X186900D01*
X187450Y183100D01*
Y182000D01*
X186900Y181450D01*
X185251D01*
X186351D02*
X187450Y180350D01*
X190749D02*
X188550D01*
X190749Y182550D01*
Y183100D01*
X190199Y183650D01*
X189100D01*
X188550Y183100D01*
X230851Y164600D02*
X230301Y165149D01*
X229201D01*
X228651Y164600D01*
Y162400D01*
X229201Y161851D01*
X230301D01*
X230851Y162400D01*
X234150Y161851D02*
X231950D01*
X234150Y164050D01*
Y164600D01*
X233600Y165149D01*
X232500D01*
X231950Y164600D01*
X235249Y161851D02*
X236349D01*
X235799D01*
Y165149D01*
X235249Y164600D01*
X218076Y142584D02*
X217526Y143134D01*
X216426D01*
X215876Y142584D01*
Y140385D01*
X216426Y139835D01*
X217526D01*
X218076Y140385D01*
X219175Y139835D02*
X220275D01*
X219725D01*
Y143134D01*
X219175Y142584D01*
X221924D02*
X222474Y143134D01*
X223574D01*
X224124Y142584D01*
Y142034D01*
X223574Y141484D01*
X224124Y140934D01*
Y140385D01*
X223574Y139835D01*
X222474D01*
X221924Y140385D01*
Y140934D01*
X222474Y141484D01*
X221924Y142034D01*
Y142584D01*
X222474Y141484D02*
X223574D01*
X161076Y137600D02*
X160526Y138149D01*
X159426D01*
X158876Y137600D01*
Y135400D01*
X159426Y134851D01*
X160526D01*
X161076Y135400D01*
X162175Y134851D02*
X163275D01*
X162725D01*
Y138149D01*
X162175Y137600D01*
X167124Y138149D02*
X166024Y137600D01*
X164924Y136500D01*
Y135400D01*
X165474Y134851D01*
X166574D01*
X167124Y135400D01*
Y135950D01*
X166574Y136500D01*
X164924D01*
X205626Y190100D02*
X205076Y190649D01*
X203976D01*
X203426Y190100D01*
Y187900D01*
X203976Y187350D01*
X205076D01*
X205626Y187900D01*
X206725Y187350D02*
X207825D01*
X207275D01*
Y190649D01*
X206725Y190100D01*
X209474Y187350D02*
X210574D01*
X210024D01*
Y190649D01*
X209474Y190100D01*
X322751Y184650D02*
Y181900D01*
X323301Y181351D01*
X324400D01*
X324950Y181900D01*
Y184650D01*
X326050Y184100D02*
X326600Y184650D01*
X327699D01*
X328249Y184100D01*
Y183550D01*
X327699Y183000D01*
X327150D01*
X327699D01*
X328249Y182450D01*
Y181900D01*
X327699Y181351D01*
X326600D01*
X326050Y181900D01*
X273000Y139100D02*
X272450Y139649D01*
X271351D01*
X270801Y139100D01*
Y136900D01*
X271351Y136351D01*
X272450D01*
X273000Y136900D01*
X274100Y136351D02*
X275199D01*
X274650D01*
Y139649D01*
X274100Y139100D01*
X230092Y178100D02*
X229542Y178649D01*
X228442D01*
X227893Y178100D01*
Y175900D01*
X228442Y175350D01*
X229542D01*
X230092Y175900D01*
X233391Y178649D02*
X232291Y178100D01*
X231192Y177000D01*
Y175900D01*
X231741Y175350D01*
X232841D01*
X233391Y175900D01*
Y176450D01*
X232841Y177000D01*
X231192D01*
X242801Y162850D02*
Y166149D01*
X244450D01*
X245000Y165600D01*
Y164500D01*
X244450Y163950D01*
X242801D01*
X243900D02*
X245000Y162850D01*
X246100D02*
X247199D01*
X246650D01*
Y166149D01*
X246100Y165600D01*
X310301Y139649D02*
Y136900D01*
X310851Y136351D01*
X311950D01*
X312500Y136900D01*
Y139649D01*
X313600Y136351D02*
X314699D01*
X314149D01*
Y139649D01*
X313600Y139100D01*
X175251Y177649D02*
Y174900D01*
X175801Y174351D01*
X176900D01*
X177450Y174900D01*
Y177649D01*
X180749Y174351D02*
X178550D01*
X180749Y176550D01*
Y177100D01*
X180199Y177649D01*
X179100D01*
X178550Y177100D01*
X228801Y221650D02*
Y221100D01*
X229900Y220000D01*
X231000Y221100D01*
Y221650D01*
X229900Y220000D02*
Y218351D01*
X232100D02*
X233199D01*
X232649D01*
Y221650D01*
X232100Y221100D01*
X189251Y235649D02*
Y232900D01*
X189801Y232350D01*
X190900D01*
X191450Y232900D01*
Y235649D01*
X194199Y232350D02*
Y235649D01*
X192550Y234000D01*
X194749D01*
X263500Y264600D02*
X262950Y265149D01*
X261851D01*
X261301Y264600D01*
Y264050D01*
X261851Y263500D01*
X262950D01*
X263500Y262950D01*
Y262400D01*
X262950Y261851D01*
X261851D01*
X261301Y262400D01*
X264600Y261851D02*
X265699D01*
X265149D01*
Y265149D01*
X264600Y264600D01*
X254751Y239351D02*
Y242650D01*
X256400D01*
X256950Y242100D01*
Y241000D01*
X256400Y240450D01*
X254751D01*
X255851D02*
X256950Y239351D01*
X258050Y242100D02*
X258600Y242650D01*
X259699D01*
X260249Y242100D01*
Y241550D01*
X259699Y241000D01*
X259150D01*
X259699D01*
X260249Y240450D01*
Y239900D01*
X259699Y239351D01*
X258600D01*
X258050Y239900D01*
X339801Y166350D02*
Y169650D01*
X341450D01*
X342000Y169100D01*
Y168000D01*
X341450Y167450D01*
X339801D01*
X343100Y166350D02*
X344199D01*
X343650D01*
Y169650D01*
X343100Y169100D01*
X173801D02*
X173251Y169650D01*
X172151D01*
X171601Y169100D01*
Y166900D01*
X172151Y166350D01*
X173251D01*
X173801Y166900D01*
X177100Y166350D02*
X174900D01*
X177100Y168550D01*
Y169100D01*
X176550Y169650D01*
X175450D01*
X174900Y169100D01*
X180399Y166350D02*
X178199D01*
X180399Y168550D01*
Y169100D01*
X179849Y169650D01*
X178749D01*
X178199Y169100D01*
X217801Y233100D02*
X217251Y233649D01*
X216151D01*
X215601Y233100D01*
Y230900D01*
X216151Y230350D01*
X217251D01*
X217801Y230900D01*
X221100Y230350D02*
X218900D01*
X221100Y232550D01*
Y233100D01*
X220550Y233649D01*
X219450D01*
X218900Y233100D01*
X222199D02*
X222749Y233649D01*
X223849D01*
X224399Y233100D01*
Y230900D01*
X223849Y230350D01*
X222749D01*
X222199Y230900D01*
Y233100D01*
X218576Y196100D02*
X218026Y196650D01*
X216926D01*
X216376Y196100D01*
Y193900D01*
X216926Y193351D01*
X218026D01*
X218576Y193900D01*
X219675Y193351D02*
X220775D01*
X220225D01*
Y196650D01*
X219675Y196100D01*
X222424Y193900D02*
X222974Y193351D01*
X224074D01*
X224624Y193900D01*
Y196100D01*
X224074Y196650D01*
X222974D01*
X222424Y196100D01*
Y195550D01*
X222974Y195000D01*
X224624D01*
X324076Y253100D02*
X323526Y253649D01*
X322426D01*
X321876Y253100D01*
Y250900D01*
X322426Y250350D01*
X323526D01*
X324076Y250900D01*
X325175Y250350D02*
X326275D01*
X325725D01*
Y253649D01*
X325175Y253100D01*
X329574Y250350D02*
Y253649D01*
X327924Y252000D01*
X330124D01*
X290076Y237100D02*
X289526Y237649D01*
X288426D01*
X287876Y237100D01*
Y234900D01*
X288426Y234350D01*
X289526D01*
X290076Y234900D01*
X291175Y234350D02*
X292275D01*
X291725D01*
Y237649D01*
X291175Y237100D01*
X293924D02*
X294474Y237649D01*
X295574D01*
X296124Y237100D01*
Y236550D01*
X295574Y236000D01*
X295024D01*
X295574D01*
X296124Y235450D01*
Y234900D01*
X295574Y234350D01*
X294474D01*
X293924Y234900D01*
X328076Y233600D02*
X327526Y234150D01*
X326426D01*
X325876Y233600D01*
Y231400D01*
X326426Y230851D01*
X327526D01*
X328076Y231400D01*
X329175Y230851D02*
X330275D01*
X329725D01*
Y234150D01*
X329175Y233600D01*
X334124Y230851D02*
X331924D01*
X334124Y233050D01*
Y233600D01*
X333574Y234150D01*
X332474D01*
X331924Y233600D01*
X235576Y231100D02*
X235026Y231649D01*
X233926D01*
X233376Y231100D01*
Y228900D01*
X233926Y228350D01*
X235026D01*
X235576Y228900D01*
X236675Y228350D02*
X237775D01*
X237225D01*
Y231649D01*
X236675Y231100D01*
X239424D02*
X239974Y231649D01*
X241074D01*
X241624Y231100D01*
Y228900D01*
X241074Y228350D01*
X239974D01*
X239424Y228900D01*
Y231100D01*
X233450Y203100D02*
X232900Y203649D01*
X231801D01*
X231251Y203100D01*
Y200900D01*
X231801Y200350D01*
X232900D01*
X233450Y200900D01*
X234550D02*
X235100Y200350D01*
X236199D01*
X236749Y200900D01*
Y203100D01*
X236199Y203649D01*
X235100D01*
X234550Y203100D01*
Y202550D01*
X235100Y202000D01*
X236749D01*
X324950Y175100D02*
X324400Y175649D01*
X323301D01*
X322751Y175100D01*
Y172900D01*
X323301Y172351D01*
X324400D01*
X324950Y172900D01*
X326050Y175100D02*
X326600Y175649D01*
X327699D01*
X328249Y175100D01*
Y174550D01*
X327699Y174000D01*
X328249Y173450D01*
Y172900D01*
X327699Y172351D01*
X326600D01*
X326050Y172900D01*
Y173450D01*
X326600Y174000D01*
X326050Y174550D01*
Y175100D01*
X326600Y174000D02*
X327699D01*
X260950Y170100D02*
X260400Y170650D01*
X259301D01*
X258751Y170100D01*
Y167900D01*
X259301Y167350D01*
X260400D01*
X260950Y167900D01*
X262050Y170650D02*
X264249D01*
Y170100D01*
X262050Y167900D01*
Y167350D01*
X229450Y188600D02*
X228900Y189149D01*
X227801D01*
X227251Y188600D01*
Y186400D01*
X227801Y185851D01*
X228900D01*
X229450Y186400D01*
X232749Y189149D02*
X230550D01*
Y187500D01*
X231649Y188050D01*
X232199D01*
X232749Y187500D01*
Y186400D01*
X232199Y185851D01*
X231100D01*
X230550Y186400D01*
X296450Y177100D02*
X295900Y177649D01*
X294801D01*
X294251Y177100D01*
Y174900D01*
X294801Y174351D01*
X295900D01*
X296450Y174900D01*
X299199Y174351D02*
Y177649D01*
X297550Y176000D01*
X299749D01*
X328950Y212600D02*
X328400Y213149D01*
X327301D01*
X326751Y212600D01*
Y210400D01*
X327301Y209851D01*
X328400D01*
X328950Y210400D01*
X330050Y212600D02*
X330600Y213149D01*
X331699D01*
X332249Y212600D01*
Y212050D01*
X331699Y211500D01*
X331150D01*
X331699D01*
X332249Y210950D01*
Y210400D01*
X331699Y209851D01*
X330600D01*
X330050Y210400D01*
X257450Y188600D02*
X256900Y189149D01*
X255801D01*
X255251Y188600D01*
Y186400D01*
X255801Y185851D01*
X256900D01*
X257450Y186400D01*
X260749Y185851D02*
X258550D01*
X260749Y188050D01*
Y188600D01*
X260199Y189149D01*
X259100D01*
X258550Y188600D01*
M02*
