M48
;Layer_Color=9474304
;FILE_FORMAT=2:5
INCH,TZ
;TYPE=PLATED
T1F00S00C0.01378
T2F00S00C0.03543
T3F00S00C0.11811
%
T01
X172500Y149000
X300215Y149990
X305500Y139500
X293500Y137500
X317000Y146000
X319000Y150500
X316721Y154251
X319000Y167500
X320000Y232500
X294500Y240000
X268500Y238500
X257836Y234586
X263000Y219500
X275000Y209000
X248500Y204000
X244500Y193000
X236500
X210000Y193500
X214500Y179000
X249748Y163500
X267500Y168500
X310500Y167500
T02
X170000Y115500
X180000
X190000
X200000
X210000
X220000
X230000
X240000
X250000
X260000
X270000
X280000
X290000
X300000
X310000
Y125500
X300000
X290000
X280000
X270000
X260000
X250000
X240000
X230000
X220000
X210000
X200000
X190000
X180000
X170000
X320000
X330000
X340000
Y115500
X330000
X320000
X345000Y176500
Y186500
Y196500
Y206500
Y216500
Y226500
Y236500
T03
X350000Y150000
X170000Y255000
M30
