G04*
G04 #@! TF.GenerationSoftware,Altium Limited,Altium Designer,21.2.2 (38)*
G04*
G04 Layer_Color=8421504*
%FSLAX25Y25*%
%MOIN*%
G70*
G04*
G04 #@! TF.SameCoordinates,52F74DFF-F1B3-44F2-A22A-B2578409EFCC*
G04*
G04*
G04 #@! TF.FilePolarity,Positive*
G04*
G01*
G75*
%ADD15R,0.05315X0.03937*%
%ADD16R,0.03347X0.02756*%
%ADD17R,0.03937X0.05315*%
%ADD18R,0.04724X0.01181*%
%ADD19R,0.01181X0.04724*%
%ADD20R,0.08268X0.05512*%
%ADD21R,0.02756X0.03347*%
%ADD22R,0.03740X0.06890*%
%ADD23R,0.12598X0.06890*%
%ADD24R,0.05807X0.01772*%
%ADD25R,0.07480X0.09449*%
%ADD26R,0.07800X0.02200*%
D15*
X221000Y147358D02*
D03*
Y154642D02*
D03*
X303500Y175642D02*
D03*
Y168358D02*
D03*
X207500Y176358D02*
D03*
Y183642D02*
D03*
X221000Y162858D02*
D03*
Y170142D02*
D03*
X251000Y187858D02*
D03*
X219500Y226642D02*
D03*
X177000Y154358D02*
D03*
X316500Y252642D02*
D03*
X219500Y219358D02*
D03*
X219000Y207642D02*
D03*
X177000Y161642D02*
D03*
X251000Y195142D02*
D03*
X219000Y200358D02*
D03*
X316500Y245358D02*
D03*
D16*
X229500Y146752D02*
D03*
Y153248D02*
D03*
X263500Y241248D02*
D03*
Y234752D02*
D03*
X214500Y170748D02*
D03*
Y164252D02*
D03*
D17*
X245858Y230000D02*
D03*
X253142D02*
D03*
X178642Y136500D02*
D03*
X171358D02*
D03*
X287642Y138000D02*
D03*
X280358D02*
D03*
X317642Y174000D02*
D03*
X310358D02*
D03*
X236858Y178000D02*
D03*
X244142D02*
D03*
Y187000D02*
D03*
X271142Y175000D02*
D03*
X324358Y226000D02*
D03*
X276858Y236500D02*
D03*
X231358Y209000D02*
D03*
X236858Y187000D02*
D03*
X331642Y218061D02*
D03*
X263858Y175000D02*
D03*
X331642Y226000D02*
D03*
X284142Y236500D02*
D03*
X324358Y218061D02*
D03*
X238642Y209000D02*
D03*
D18*
X269362Y197142D02*
D03*
X314638Y220764D02*
D03*
X269362Y199110D02*
D03*
Y191236D02*
D03*
Y193205D02*
D03*
Y195173D02*
D03*
Y201079D02*
D03*
Y203047D02*
D03*
Y205016D02*
D03*
Y206984D02*
D03*
Y208953D02*
D03*
Y210921D02*
D03*
Y212890D02*
D03*
Y214858D02*
D03*
Y216827D02*
D03*
Y218795D02*
D03*
Y220764D02*
D03*
X314638Y191236D02*
D03*
Y193205D02*
D03*
Y195173D02*
D03*
Y197142D02*
D03*
Y199110D02*
D03*
Y201079D02*
D03*
Y203047D02*
D03*
Y205016D02*
D03*
Y206984D02*
D03*
Y208953D02*
D03*
Y210921D02*
D03*
Y212890D02*
D03*
Y214858D02*
D03*
Y216827D02*
D03*
Y218795D02*
D03*
D19*
X281173Y183362D02*
D03*
X306764D02*
D03*
X277236Y228638D02*
D03*
X279205D02*
D03*
X285110D02*
D03*
X279205Y183362D02*
D03*
X291016D02*
D03*
X289047D02*
D03*
X287079D02*
D03*
X285110D02*
D03*
X283142D02*
D03*
X277236D02*
D03*
X304795D02*
D03*
X302827D02*
D03*
X300858D02*
D03*
X298890D02*
D03*
X296921D02*
D03*
X294953D02*
D03*
X292984D02*
D03*
X306764Y228638D02*
D03*
X304795D02*
D03*
X302827D02*
D03*
X300858D02*
D03*
X298890D02*
D03*
X296921D02*
D03*
X294953D02*
D03*
X292984D02*
D03*
X291016D02*
D03*
X289047D02*
D03*
X287079D02*
D03*
X283142D02*
D03*
X281173D02*
D03*
D20*
X307413Y262858D02*
D03*
X271587D02*
D03*
Y245142D02*
D03*
X307413D02*
D03*
D21*
X193248Y176000D02*
D03*
X186752D02*
D03*
X171752Y144000D02*
D03*
X178248D02*
D03*
X243252Y170500D02*
D03*
X249748D02*
D03*
D22*
X210112Y200872D02*
D03*
X192002D02*
D03*
X201057D02*
D03*
D23*
Y225676D02*
D03*
D24*
X310067Y149161D02*
D03*
X286933Y144043D02*
D03*
Y146602D02*
D03*
Y149161D02*
D03*
Y151720D02*
D03*
Y154279D02*
D03*
Y156839D02*
D03*
Y159398D02*
D03*
Y161957D02*
D03*
X310067D02*
D03*
Y159398D02*
D03*
Y156839D02*
D03*
Y154279D02*
D03*
Y151720D02*
D03*
Y146602D02*
D03*
Y144043D02*
D03*
D25*
X239429Y219500D02*
D03*
X255571D02*
D03*
D26*
X187300Y154000D02*
D03*
X206700D02*
D03*
Y169000D02*
D03*
Y164000D02*
D03*
Y159000D02*
D03*
Y149000D02*
D03*
Y144000D02*
D03*
Y139000D02*
D03*
X187300D02*
D03*
Y144000D02*
D03*
Y149000D02*
D03*
Y159000D02*
D03*
Y164000D02*
D03*
Y169000D02*
D03*
M02*
