G04*
G04 #@! TF.GenerationSoftware,Altium Limited,Altium Designer,21.2.2 (38)*
G04*
G04 Layer_Physical_Order=1*
G04 Layer_Color=255*
%FSLAX25Y25*%
%MOIN*%
G70*
G04*
G04 #@! TF.SameCoordinates,C3B877AE-1357-438A-BEA6-5EF708E32FCF*
G04*
G04*
G04 #@! TF.FilePolarity,Positive*
G04*
G01*
G75*
%ADD13C,0.01000*%
%ADD15R,0.04724X0.01181*%
%ADD16R,0.01181X0.04724*%
%ADD17R,0.03347X0.02756*%
%ADD18R,0.08268X0.05512*%
%ADD19R,0.05315X0.03937*%
%ADD20R,0.02756X0.03347*%
%ADD21R,0.03937X0.05315*%
%ADD22R,0.03740X0.06890*%
%ADD23R,0.12598X0.06890*%
%ADD24R,0.05807X0.01772*%
%ADD25R,0.07480X0.09449*%
%ADD26R,0.07800X0.02200*%
%ADD44C,0.05906*%
%ADD45R,0.05906X0.05906*%
%ADD46C,0.23622*%
%ADD47R,0.05906X0.05906*%
%ADD48C,0.02559*%
G36*
X362500Y154604D02*
X362000Y154525D01*
X361872Y154918D01*
X360957Y156714D01*
X359772Y158346D01*
X358346Y159772D01*
X356714Y160957D01*
X354918Y161872D01*
X353000Y162496D01*
X351008Y162811D01*
X350500D01*
Y150000D01*
Y137189D01*
X351008D01*
X353000Y137504D01*
X354918Y138128D01*
X356714Y139043D01*
X358346Y140228D01*
X359772Y141654D01*
X360957Y143286D01*
X361872Y145082D01*
X362000Y145475D01*
X362500Y145396D01*
Y110000D01*
X157500D01*
Y250396D01*
X158000Y250475D01*
X158128Y250082D01*
X159043Y248286D01*
X160228Y246654D01*
X161654Y245228D01*
X163286Y244043D01*
X165082Y243128D01*
X167000Y242504D01*
X168992Y242189D01*
X169500D01*
Y255000D01*
X170000D01*
Y255500D01*
X182811D01*
Y256008D01*
X182496Y258000D01*
X181872Y259918D01*
X180957Y261714D01*
X179772Y263346D01*
X178346Y264772D01*
X176714Y265957D01*
X174918Y266872D01*
X174525Y267000D01*
X174604Y267500D01*
X362500D01*
Y154604D01*
D02*
G37*
%LPC*%
G36*
X312547Y266614D02*
X307913D01*
Y263358D01*
X312547D01*
Y266614D01*
D02*
G37*
G36*
X276720D02*
X272087D01*
Y263358D01*
X276720D01*
Y266614D01*
D02*
G37*
G36*
X271087D02*
X266453D01*
Y263358D01*
X271087D01*
Y266614D01*
D02*
G37*
G36*
X306913D02*
X302279D01*
Y263358D01*
X306913D01*
Y266614D01*
D02*
G37*
G36*
X312547Y262358D02*
X307913D01*
Y259102D01*
X312547D01*
Y262358D01*
D02*
G37*
G36*
X306913D02*
X302279D01*
Y259102D01*
X306913D01*
Y262358D01*
D02*
G37*
G36*
X276720D02*
X272087D01*
Y259102D01*
X276720D01*
Y262358D01*
D02*
G37*
G36*
X271087D02*
X266453D01*
Y259102D01*
X271087D01*
Y262358D01*
D02*
G37*
G36*
X321158Y254606D02*
X318000D01*
Y252138D01*
X321158D01*
Y254606D01*
D02*
G37*
G36*
X317000D02*
X313843D01*
Y252138D01*
X317000D01*
Y254606D01*
D02*
G37*
G36*
X321158Y251138D02*
X317500D01*
X313843D01*
Y248669D01*
X313921D01*
Y247323D01*
X313843D01*
Y246671D01*
X312547D01*
Y248898D01*
X302279D01*
Y246671D01*
X276720D01*
Y248898D01*
X266453D01*
Y246671D01*
X264142D01*
X263557Y246555D01*
X263060Y246223D01*
X262419Y245581D01*
X262087Y245085D01*
X261971Y244500D01*
Y243626D01*
X260827D01*
Y238870D01*
X260906D01*
Y237130D01*
X260827D01*
Y236198D01*
X259447D01*
X259127Y236518D01*
X258289Y236865D01*
X257719D01*
X256503Y238081D01*
X256007Y238413D01*
X255422Y238529D01*
X230547D01*
X229962Y238413D01*
X229466Y238081D01*
X220995Y229610D01*
X215843D01*
Y228087D01*
X208356D01*
Y230120D01*
X193758D01*
Y221231D01*
X199528D01*
Y205317D01*
X198187D01*
Y196428D01*
X198187Y196428D01*
X198187D01*
X197875Y196077D01*
X180419Y178620D01*
X180087Y178124D01*
X179971Y177539D01*
Y164610D01*
X177500D01*
Y161642D01*
X177000D01*
Y161142D01*
X173343D01*
Y158673D01*
X173421D01*
Y157327D01*
X173343D01*
Y151660D01*
X172975Y151301D01*
X172888Y151279D01*
X172047D01*
X171209Y150933D01*
X170568Y150291D01*
X170220Y149453D01*
Y148547D01*
X170385Y148149D01*
X170347Y147954D01*
Y146673D01*
X169374D01*
Y141327D01*
X169723D01*
Y140157D01*
X168390D01*
Y132843D01*
X174327D01*
Y132921D01*
X175673D01*
Y132843D01*
X178142D01*
Y136500D01*
Y140157D01*
X175673D01*
Y140079D01*
X174327D01*
Y140157D01*
X172781D01*
Y141327D01*
X174130D01*
Y141406D01*
X175870D01*
Y141327D01*
X180626D01*
Y142471D01*
X182400D01*
Y141900D01*
X185771D01*
Y141100D01*
X182400D01*
Y136900D01*
X189222D01*
X189414Y136438D01*
X181927Y128952D01*
X181526Y129183D01*
X180520Y129453D01*
X179480D01*
X178474Y129183D01*
X177573Y128663D01*
X176837Y127927D01*
X176317Y127026D01*
X176047Y126020D01*
Y124980D01*
X176317Y123974D01*
X176837Y123073D01*
X177573Y122337D01*
X178474Y121817D01*
X179480Y121547D01*
X180520D01*
X181526Y121817D01*
X182427Y122337D01*
X183163Y123073D01*
X183683Y123974D01*
X183953Y124980D01*
Y126020D01*
X183819Y126518D01*
X192509Y135207D01*
X192971Y135016D01*
Y131562D01*
X190789Y129381D01*
X190520Y129453D01*
X189480D01*
X188474Y129183D01*
X187573Y128663D01*
X186837Y127927D01*
X186317Y127026D01*
X186047Y126020D01*
Y124980D01*
X186317Y123974D01*
X186837Y123073D01*
X187573Y122337D01*
X188474Y121817D01*
X189480Y121547D01*
X189528D01*
X189720Y121085D01*
X189669Y121034D01*
X189337Y120538D01*
X189220Y119953D01*
Y119383D01*
X188474Y119183D01*
X187573Y118663D01*
X186837Y117927D01*
X186317Y117026D01*
X186047Y116020D01*
Y114980D01*
X186317Y113974D01*
X186837Y113073D01*
X187573Y112337D01*
X188474Y111817D01*
X189480Y111547D01*
X190520D01*
X191526Y111817D01*
X192427Y112337D01*
X193163Y113073D01*
X193683Y113974D01*
X193953Y114980D01*
Y116020D01*
X193683Y117026D01*
X193163Y117927D01*
X192427Y118663D01*
X192279Y118748D01*
Y119319D01*
X196252Y123292D01*
X196748Y123227D01*
X196837Y123073D01*
X197573Y122337D01*
X198474Y121817D01*
X199480Y121547D01*
X200520D01*
X201526Y121817D01*
X202427Y122337D01*
X203163Y123073D01*
X203683Y123974D01*
X203953Y124980D01*
Y126020D01*
X203683Y127026D01*
X203163Y127927D01*
X202427Y128663D01*
X201529Y129181D01*
Y136512D01*
X201800Y136900D01*
X211600D01*
Y141100D01*
X208229D01*
Y141900D01*
X211600D01*
Y141971D01*
X226248D01*
X226833Y142087D01*
X227329Y142419D01*
X229285Y144374D01*
X232173D01*
Y149130D01*
X232094D01*
Y150870D01*
X232173D01*
Y155626D01*
X231029D01*
Y191023D01*
X233835Y193829D01*
X234259Y193545D01*
X234240Y193500D01*
X236500D01*
Y192500D01*
X234240D01*
X234567Y191709D01*
X234971Y191306D01*
Y190657D01*
X233890D01*
Y187500D01*
X236858D01*
Y186500D01*
X233890D01*
Y183343D01*
X235329D01*
Y181658D01*
X233890D01*
Y178500D01*
X236858D01*
Y178000D01*
X237358D01*
Y174343D01*
X239827D01*
Y174421D01*
X241173D01*
Y174343D01*
X241723D01*
Y173173D01*
X240874D01*
Y167827D01*
X241723D01*
Y152885D01*
X218919Y130081D01*
X218587Y129585D01*
X218509Y129193D01*
X218474Y129183D01*
X217573Y128663D01*
X216837Y127927D01*
X216317Y127026D01*
X216047Y126020D01*
Y124980D01*
X216317Y123974D01*
X216837Y123073D01*
X217573Y122337D01*
X218474Y121817D01*
X219480Y121547D01*
X220520D01*
X221526Y121817D01*
X222427Y122337D01*
X223163Y123073D01*
X223683Y123974D01*
X223953Y124980D01*
Y126020D01*
X223683Y127026D01*
X223163Y127927D01*
X222427Y128663D01*
X222402Y128678D01*
X222336Y129173D01*
X228045Y134882D01*
X228506Y134636D01*
X228471Y134457D01*
Y129181D01*
X227573Y128663D01*
X226837Y127927D01*
X226317Y127026D01*
X226047Y126020D01*
Y124980D01*
X226317Y123974D01*
X226837Y123073D01*
X227573Y122337D01*
X228474Y121817D01*
X229480Y121547D01*
X229528D01*
X229720Y121085D01*
X229668Y121034D01*
X229337Y120538D01*
X229221Y119953D01*
Y119383D01*
X228474Y119183D01*
X227573Y118663D01*
X226837Y117927D01*
X226317Y117026D01*
X226047Y116020D01*
Y114980D01*
X226317Y113974D01*
X226837Y113073D01*
X227573Y112337D01*
X228474Y111817D01*
X229480Y111547D01*
X230520D01*
X231526Y111817D01*
X232427Y112337D01*
X233163Y113073D01*
X233683Y113974D01*
X233953Y114980D01*
Y116020D01*
X233683Y117026D01*
X233163Y117927D01*
X232427Y118663D01*
X232279Y118748D01*
Y119319D01*
X236252Y123292D01*
X236748Y123227D01*
X236837Y123073D01*
X237573Y122337D01*
X238474Y121817D01*
X239480Y121547D01*
X239528D01*
X239720Y121085D01*
X239668Y121034D01*
X239337Y120538D01*
X239220Y119953D01*
Y119383D01*
X238474Y119183D01*
X237573Y118663D01*
X236837Y117927D01*
X236317Y117026D01*
X236047Y116020D01*
Y114980D01*
X236317Y113974D01*
X236837Y113073D01*
X237573Y112337D01*
X238474Y111817D01*
X239480Y111547D01*
X240520D01*
X241526Y111817D01*
X242427Y112337D01*
X243163Y113073D01*
X243683Y113974D01*
X243953Y114980D01*
Y116020D01*
X243683Y117026D01*
X243163Y117927D01*
X242427Y118663D01*
X242279Y118748D01*
Y119319D01*
X246252Y123292D01*
X246748Y123227D01*
X246837Y123073D01*
X247573Y122337D01*
X248474Y121817D01*
X249480Y121547D01*
X249528D01*
X249720Y121085D01*
X249669Y121034D01*
X249337Y120538D01*
X249220Y119953D01*
Y119383D01*
X248474Y119183D01*
X247573Y118663D01*
X246837Y117927D01*
X246317Y117026D01*
X246047Y116020D01*
Y114980D01*
X246317Y113974D01*
X246837Y113073D01*
X247573Y112337D01*
X248474Y111817D01*
X249480Y111547D01*
X250520D01*
X251526Y111817D01*
X252427Y112337D01*
X253163Y113073D01*
X253683Y113974D01*
X253953Y114980D01*
Y116020D01*
X253683Y117026D01*
X253163Y117927D01*
X252427Y118663D01*
X252279Y118748D01*
Y119319D01*
X256252Y123292D01*
X256748Y123227D01*
X256837Y123073D01*
X257573Y122337D01*
X258474Y121817D01*
X259480Y121547D01*
X260520D01*
X261526Y121817D01*
X262427Y122337D01*
X263163Y123073D01*
X263471Y123606D01*
X263971Y123472D01*
Y121634D01*
X261522Y119185D01*
X260520Y119453D01*
X259480D01*
X258474Y119183D01*
X257573Y118663D01*
X256837Y117927D01*
X256317Y117026D01*
X256047Y116020D01*
Y114980D01*
X256317Y113974D01*
X256837Y113073D01*
X257573Y112337D01*
X258474Y111817D01*
X259480Y111547D01*
X260520D01*
X261526Y111817D01*
X262427Y112337D01*
X263163Y113073D01*
X263683Y113974D01*
X263953Y114980D01*
Y116020D01*
X263685Y117022D01*
X266581Y119919D01*
X266913Y120415D01*
X267029Y121000D01*
Y122227D01*
X267491Y122419D01*
X267573Y122337D01*
X268474Y121817D01*
X269480Y121547D01*
X270520D01*
X271526Y121817D01*
X272427Y122337D01*
X272509Y122419D01*
X272971Y122227D01*
Y120633D01*
X271522Y119185D01*
X270520Y119453D01*
X269480D01*
X268474Y119183D01*
X267573Y118663D01*
X266837Y117927D01*
X266317Y117026D01*
X266047Y116020D01*
Y114980D01*
X266317Y113974D01*
X266837Y113073D01*
X267573Y112337D01*
X268474Y111817D01*
X269480Y111547D01*
X270520D01*
X271526Y111817D01*
X272427Y112337D01*
X273163Y113073D01*
X273683Y113974D01*
X273953Y114980D01*
Y116020D01*
X273685Y117022D01*
X275581Y118919D01*
X275913Y119415D01*
X276029Y120000D01*
Y123472D01*
X276529Y123606D01*
X276837Y123073D01*
X277573Y122337D01*
X278474Y121817D01*
X279480Y121547D01*
X280520D01*
X281526Y121817D01*
X282427Y122337D01*
X283163Y123073D01*
X283683Y123974D01*
X283953Y124980D01*
Y126020D01*
X283683Y127026D01*
X283163Y127927D01*
X282427Y128663D01*
X281526Y129183D01*
X280520Y129453D01*
X279480D01*
X278711Y129247D01*
X278271Y129608D01*
Y134343D01*
X279858D01*
Y138000D01*
Y141657D01*
X278271D01*
Y145540D01*
X282529Y149799D01*
X283030Y149592D01*
Y144717D01*
Y142157D01*
X286612D01*
Y141657D01*
X284673D01*
Y141579D01*
X283327D01*
Y141657D01*
X280858D01*
Y138000D01*
Y134343D01*
X283327D01*
Y134421D01*
X284673D01*
Y134343D01*
X290610D01*
Y135971D01*
X291806D01*
X292209Y135567D01*
X293047Y135221D01*
X293953D01*
X294791Y135567D01*
X294978Y135754D01*
X295478Y135547D01*
Y134468D01*
X290462Y129453D01*
X289480D01*
X288474Y129183D01*
X287573Y128663D01*
X286837Y127927D01*
X286317Y127026D01*
X286047Y126020D01*
Y124980D01*
X286317Y123974D01*
X286837Y123073D01*
X287573Y122337D01*
X288474Y121817D01*
X289480Y121547D01*
X290520D01*
X291526Y121817D01*
X292427Y122337D01*
X293163Y123073D01*
X293471Y123606D01*
X293971Y123472D01*
Y121634D01*
X291522Y119185D01*
X290520Y119453D01*
X289480D01*
X288474Y119183D01*
X287573Y118663D01*
X286837Y117927D01*
X286317Y117026D01*
X286047Y116020D01*
Y114980D01*
X286317Y113974D01*
X286837Y113073D01*
X287573Y112337D01*
X288474Y111817D01*
X289480Y111547D01*
X290520D01*
X291526Y111817D01*
X292427Y112337D01*
X293163Y113073D01*
X293683Y113974D01*
X293953Y114980D01*
Y116020D01*
X293685Y117022D01*
X296581Y119919D01*
X296913Y120415D01*
X297029Y121000D01*
Y122227D01*
X297491Y122419D01*
X297573Y122337D01*
X298474Y121817D01*
X299480Y121547D01*
X300177D01*
X300384Y121047D01*
X299669Y120331D01*
X299337Y119835D01*
X299249Y119391D01*
X298474Y119183D01*
X297573Y118663D01*
X296837Y117927D01*
X296317Y117026D01*
X296047Y116020D01*
Y114980D01*
X296317Y113974D01*
X296837Y113073D01*
X297573Y112337D01*
X298474Y111817D01*
X299480Y111547D01*
X300520D01*
X301526Y111817D01*
X302427Y112337D01*
X303163Y113073D01*
X303683Y113974D01*
X303953Y114980D01*
Y116020D01*
X303683Y117026D01*
X303163Y117927D01*
X302427Y118663D01*
X302415Y118752D01*
X306450Y122787D01*
X306672Y122951D01*
X307116Y122794D01*
X307573Y122337D01*
X308474Y121817D01*
X309480Y121547D01*
X310520D01*
X311526Y121817D01*
X312427Y122337D01*
X313163Y123073D01*
X313683Y123974D01*
X313953Y124980D01*
Y126020D01*
X313685Y127022D01*
X328409Y141746D01*
X328871Y141554D01*
Y136533D01*
X321522Y129184D01*
X320520Y129453D01*
X319480D01*
X318474Y129183D01*
X317573Y128663D01*
X316837Y127927D01*
X316317Y127026D01*
X316047Y126020D01*
Y124980D01*
X316317Y123974D01*
X316837Y123073D01*
X317573Y122337D01*
X318474Y121817D01*
X319480Y121547D01*
X320520D01*
X321526Y121817D01*
X322427Y122337D01*
X323163Y123073D01*
X323683Y123974D01*
X323953Y124980D01*
Y126020D01*
X323685Y127022D01*
X330209Y133546D01*
X330671Y133354D01*
Y130379D01*
X329857Y129566D01*
X329782Y129453D01*
X329480D01*
X328474Y129183D01*
X327573Y128663D01*
X326837Y127927D01*
X326317Y127026D01*
X326047Y126020D01*
Y124980D01*
X326317Y123974D01*
X326837Y123073D01*
X327573Y122337D01*
X328474Y121817D01*
X329480Y121547D01*
X330520D01*
X331526Y121817D01*
X332427Y122337D01*
X333163Y123073D01*
X333683Y123974D01*
X333953Y124980D01*
Y126020D01*
X333683Y127026D01*
X333163Y127927D01*
X332854Y128236D01*
X333281Y128664D01*
X333556Y129075D01*
X334099Y129238D01*
X336315Y127022D01*
X336047Y126020D01*
Y124980D01*
X336317Y123974D01*
X336837Y123073D01*
X337573Y122337D01*
X338474Y121817D01*
X339480Y121547D01*
X340520D01*
X341526Y121817D01*
X342427Y122337D01*
X343163Y123073D01*
X343683Y123974D01*
X343953Y124980D01*
Y126020D01*
X343683Y127026D01*
X343163Y127927D01*
X342427Y128663D01*
X341526Y129183D01*
X340520Y129453D01*
X339480D01*
X338478Y129184D01*
X335529Y132133D01*
Y173252D01*
X335477Y173513D01*
Y179487D01*
X335529Y179748D01*
Y195942D01*
X335991Y196133D01*
X336206Y195919D01*
X336702Y195587D01*
X337287Y195471D01*
X341184D01*
X341317Y194974D01*
X341837Y194073D01*
X342573Y193337D01*
X343474Y192817D01*
X344480Y192547D01*
X345520D01*
X346526Y192817D01*
X347427Y193337D01*
X348163Y194073D01*
X348683Y194974D01*
X348953Y195980D01*
Y197020D01*
X348683Y198026D01*
X348163Y198927D01*
X347427Y199663D01*
X346526Y200183D01*
X345520Y200453D01*
X344480D01*
X343474Y200183D01*
X342573Y199663D01*
X341837Y198927D01*
X341607Y198529D01*
X337921D01*
X322509Y213942D01*
X322700Y214404D01*
X327327D01*
Y214482D01*
X328673D01*
Y214404D01*
X331142D01*
Y218061D01*
X331642D01*
Y218561D01*
X334610D01*
Y221719D01*
X331729D01*
Y222342D01*
X334610D01*
Y225500D01*
X331642D01*
Y226000D01*
X331142D01*
Y229658D01*
X328673D01*
Y229579D01*
X327327D01*
Y229658D01*
X324542D01*
X324468Y230030D01*
X324137Y230526D01*
X322280Y232383D01*
Y232953D01*
X321933Y233791D01*
X321291Y234433D01*
X321199Y234471D01*
X321299Y234971D01*
X329366D01*
X334180Y230157D01*
X333973Y229658D01*
X332142D01*
Y226500D01*
X334610D01*
Y229020D01*
X335110Y229227D01*
X336501Y227836D01*
Y213469D01*
X336618Y212884D01*
X336949Y212388D01*
X341316Y208022D01*
X341047Y207020D01*
Y205980D01*
X341317Y204974D01*
X341837Y204073D01*
X342573Y203337D01*
X343474Y202817D01*
X344480Y202547D01*
X345520D01*
X346526Y202817D01*
X347427Y203337D01*
X348163Y204073D01*
X348683Y204974D01*
X348953Y205980D01*
Y207020D01*
X348683Y208026D01*
X348163Y208927D01*
X347427Y209663D01*
X346526Y210183D01*
X345520Y210453D01*
X344480D01*
X343478Y210185D01*
X339560Y214103D01*
Y228469D01*
X339444Y229055D01*
X339178Y229452D01*
X339567Y229770D01*
X341316Y228022D01*
X341047Y227020D01*
Y225980D01*
X341317Y224974D01*
X341837Y224073D01*
X342573Y223337D01*
X343474Y222817D01*
X344480Y222547D01*
X345520D01*
X346526Y222817D01*
X347427Y223337D01*
X348163Y224073D01*
X348683Y224974D01*
X348953Y225980D01*
Y227020D01*
X348683Y228026D01*
X348163Y228927D01*
X347427Y229663D01*
X346526Y230183D01*
X345520Y230453D01*
X344480D01*
X343478Y230185D01*
X341578Y232085D01*
X341769Y232547D01*
X348953D01*
Y240453D01*
X343210D01*
X338227Y245436D01*
X337731Y245767D01*
X337146Y245884D01*
X321158D01*
Y247323D01*
X321079D01*
Y248669D01*
X321158D01*
Y251138D01*
D02*
G37*
G36*
X182811Y254500D02*
X170500D01*
Y242189D01*
X171008D01*
X173000Y242504D01*
X174918Y243128D01*
X176714Y244043D01*
X178346Y245228D01*
X179772Y246654D01*
X180957Y248286D01*
X181872Y250082D01*
X182496Y252000D01*
X182811Y253992D01*
Y254500D01*
D02*
G37*
G36*
X334610Y217561D02*
X332142D01*
Y214404D01*
X334610D01*
Y217561D01*
D02*
G37*
G36*
X345520Y220453D02*
X344480D01*
X343474Y220183D01*
X342573Y219663D01*
X341837Y218927D01*
X341317Y218026D01*
X341047Y217020D01*
Y215980D01*
X341317Y214974D01*
X341837Y214073D01*
X342573Y213337D01*
X343474Y212817D01*
X344480Y212547D01*
X345520D01*
X346526Y212817D01*
X347427Y213337D01*
X348163Y214073D01*
X348683Y214974D01*
X348953Y215980D01*
Y217020D01*
X348683Y218026D01*
X348163Y218927D01*
X347427Y219663D01*
X346526Y220183D01*
X345520Y220453D01*
D02*
G37*
G36*
X194872Y205317D02*
X192502D01*
Y201372D01*
X194872D01*
Y205317D01*
D02*
G37*
G36*
X191502D02*
X189132D01*
Y201372D01*
X191502D01*
Y205317D01*
D02*
G37*
G36*
X194872Y200372D02*
X192502D01*
Y196427D01*
X194872D01*
Y200372D01*
D02*
G37*
G36*
X191502D02*
X189132D01*
Y196427D01*
X191502D01*
Y200372D01*
D02*
G37*
G36*
X345520Y190453D02*
X344480D01*
X343474Y190183D01*
X342573Y189663D01*
X341837Y188927D01*
X341317Y188026D01*
X341047Y187020D01*
Y185980D01*
X341317Y184974D01*
X341837Y184073D01*
X342573Y183337D01*
X343474Y182817D01*
X344480Y182547D01*
X345520D01*
X346526Y182817D01*
X347427Y183337D01*
X348163Y184073D01*
X348683Y184974D01*
X348953Y185980D01*
Y187020D01*
X348683Y188026D01*
X348163Y188927D01*
X347427Y189663D01*
X346526Y190183D01*
X345520Y190453D01*
D02*
G37*
G36*
Y180453D02*
X345500D01*
Y177000D01*
X348953D01*
Y177020D01*
X348683Y178026D01*
X348163Y178927D01*
X347427Y179663D01*
X346526Y180183D01*
X345520Y180453D01*
D02*
G37*
G36*
X344500D02*
X344480D01*
X343474Y180183D01*
X342573Y179663D01*
X341837Y178927D01*
X341317Y178026D01*
X341047Y177020D01*
Y177000D01*
X344500D01*
Y180453D01*
D02*
G37*
G36*
X236358Y177500D02*
X233890D01*
Y174343D01*
X236358D01*
Y177500D01*
D02*
G37*
G36*
X348953Y176000D02*
X345500D01*
Y172547D01*
X345520D01*
X346526Y172817D01*
X347427Y173337D01*
X348163Y174073D01*
X348683Y174974D01*
X348953Y175980D01*
Y176000D01*
D02*
G37*
G36*
X344500D02*
X341047D01*
Y175980D01*
X341317Y174974D01*
X341837Y174073D01*
X342573Y173337D01*
X343474Y172817D01*
X344480Y172547D01*
X344500D01*
Y176000D01*
D02*
G37*
G36*
X176500Y164610D02*
X173343D01*
Y162142D01*
X176500D01*
Y164610D01*
D02*
G37*
G36*
X349500Y162811D02*
X348992D01*
X347000Y162496D01*
X345082Y161872D01*
X343286Y160957D01*
X341654Y159772D01*
X340228Y158346D01*
X339043Y156714D01*
X338128Y154918D01*
X337504Y153000D01*
X337189Y151008D01*
Y150500D01*
X349500D01*
Y162811D01*
D02*
G37*
G36*
Y149500D02*
X337189D01*
Y148992D01*
X337504Y147000D01*
X338128Y145082D01*
X339043Y143286D01*
X340228Y141654D01*
X341654Y140228D01*
X343286Y139043D01*
X345082Y138128D01*
X347000Y137504D01*
X348992Y137189D01*
X349500D01*
Y149500D01*
D02*
G37*
G36*
X181610Y140157D02*
X179142D01*
Y137000D01*
X181610D01*
Y140157D01*
D02*
G37*
G36*
Y136000D02*
X179142D01*
Y132843D01*
X181610D01*
Y136000D01*
D02*
G37*
G36*
X210520Y129453D02*
X209480D01*
X208474Y129183D01*
X207573Y128663D01*
X206837Y127927D01*
X206317Y127026D01*
X206047Y126020D01*
Y124980D01*
X206317Y123974D01*
X206837Y123073D01*
X207573Y122337D01*
X208474Y121817D01*
X209480Y121547D01*
X210520D01*
X211526Y121817D01*
X212427Y122337D01*
X213163Y123073D01*
X213683Y123974D01*
X213953Y124980D01*
Y126020D01*
X213683Y127026D01*
X213163Y127927D01*
X212427Y128663D01*
X211526Y129183D01*
X210520Y129453D01*
D02*
G37*
G36*
X170520D02*
X169480D01*
X168474Y129183D01*
X167573Y128663D01*
X166837Y127927D01*
X166317Y127026D01*
X166047Y126020D01*
Y124980D01*
X166317Y123974D01*
X166837Y123073D01*
X167573Y122337D01*
X168474Y121817D01*
X169480Y121547D01*
X170520D01*
X171526Y121817D01*
X172427Y122337D01*
X173163Y123073D01*
X173683Y123974D01*
X173953Y124980D01*
Y126020D01*
X173683Y127026D01*
X173163Y127927D01*
X172427Y128663D01*
X171526Y129183D01*
X170520Y129453D01*
D02*
G37*
G36*
X180520Y119453D02*
X180500D01*
Y116000D01*
X183953D01*
Y116020D01*
X183683Y117026D01*
X183163Y117927D01*
X182427Y118663D01*
X181526Y119183D01*
X180520Y119453D01*
D02*
G37*
G36*
X179500D02*
X179480D01*
X178474Y119183D01*
X177573Y118663D01*
X176837Y117927D01*
X176317Y117026D01*
X176047Y116020D01*
Y116000D01*
X179500D01*
Y119453D01*
D02*
G37*
G36*
X340520D02*
X339480D01*
X338474Y119183D01*
X337573Y118663D01*
X336837Y117927D01*
X336317Y117026D01*
X336047Y116020D01*
Y114980D01*
X336317Y113974D01*
X336837Y113073D01*
X337573Y112337D01*
X338474Y111817D01*
X339480Y111547D01*
X340520D01*
X341526Y111817D01*
X342427Y112337D01*
X343163Y113073D01*
X343683Y113974D01*
X343953Y114980D01*
Y116020D01*
X343683Y117026D01*
X343163Y117927D01*
X342427Y118663D01*
X341526Y119183D01*
X340520Y119453D01*
D02*
G37*
G36*
X330520D02*
X329480D01*
X328474Y119183D01*
X327573Y118663D01*
X326837Y117927D01*
X326317Y117026D01*
X326047Y116020D01*
Y114980D01*
X326317Y113974D01*
X326837Y113073D01*
X327573Y112337D01*
X328474Y111817D01*
X329480Y111547D01*
X330520D01*
X331526Y111817D01*
X332427Y112337D01*
X333163Y113073D01*
X333683Y113974D01*
X333953Y114980D01*
Y116020D01*
X333683Y117026D01*
X333163Y117927D01*
X332427Y118663D01*
X331526Y119183D01*
X330520Y119453D01*
D02*
G37*
G36*
X320520D02*
X319480D01*
X318474Y119183D01*
X317573Y118663D01*
X316837Y117927D01*
X316317Y117026D01*
X316047Y116020D01*
Y114980D01*
X316317Y113974D01*
X316837Y113073D01*
X317573Y112337D01*
X318474Y111817D01*
X319480Y111547D01*
X320520D01*
X321526Y111817D01*
X322427Y112337D01*
X323163Y113073D01*
X323683Y113974D01*
X323953Y114980D01*
Y116020D01*
X323683Y117026D01*
X323163Y117927D01*
X322427Y118663D01*
X321526Y119183D01*
X320520Y119453D01*
D02*
G37*
G36*
X310520D02*
X309480D01*
X308474Y119183D01*
X307573Y118663D01*
X306837Y117927D01*
X306317Y117026D01*
X306047Y116020D01*
Y114980D01*
X306317Y113974D01*
X306837Y113073D01*
X307573Y112337D01*
X308474Y111817D01*
X309480Y111547D01*
X310520D01*
X311526Y111817D01*
X312427Y112337D01*
X313163Y113073D01*
X313683Y113974D01*
X313953Y114980D01*
Y116020D01*
X313683Y117026D01*
X313163Y117927D01*
X312427Y118663D01*
X311526Y119183D01*
X310520Y119453D01*
D02*
G37*
G36*
X280520D02*
X279480D01*
X278474Y119183D01*
X277573Y118663D01*
X276837Y117927D01*
X276317Y117026D01*
X276047Y116020D01*
Y114980D01*
X276317Y113974D01*
X276837Y113073D01*
X277573Y112337D01*
X278474Y111817D01*
X279480Y111547D01*
X280520D01*
X281526Y111817D01*
X282427Y112337D01*
X283163Y113073D01*
X283683Y113974D01*
X283953Y114980D01*
Y116020D01*
X283683Y117026D01*
X283163Y117927D01*
X282427Y118663D01*
X281526Y119183D01*
X280520Y119453D01*
D02*
G37*
G36*
X220520D02*
X219480D01*
X218474Y119183D01*
X217573Y118663D01*
X216837Y117927D01*
X216317Y117026D01*
X216047Y116020D01*
Y114980D01*
X216317Y113974D01*
X216837Y113073D01*
X217573Y112337D01*
X218474Y111817D01*
X219480Y111547D01*
X220520D01*
X221526Y111817D01*
X222427Y112337D01*
X223163Y113073D01*
X223683Y113974D01*
X223953Y114980D01*
Y116020D01*
X223683Y117026D01*
X223163Y117927D01*
X222427Y118663D01*
X221526Y119183D01*
X220520Y119453D01*
D02*
G37*
G36*
X210520D02*
X209480D01*
X208474Y119183D01*
X207573Y118663D01*
X206837Y117927D01*
X206317Y117026D01*
X206047Y116020D01*
Y114980D01*
X206317Y113974D01*
X206837Y113073D01*
X207573Y112337D01*
X208474Y111817D01*
X209480Y111547D01*
X210520D01*
X211526Y111817D01*
X212427Y112337D01*
X213163Y113073D01*
X213683Y113974D01*
X213953Y114980D01*
Y116020D01*
X213683Y117026D01*
X213163Y117927D01*
X212427Y118663D01*
X211526Y119183D01*
X210520Y119453D01*
D02*
G37*
G36*
X200520D02*
X199480D01*
X198474Y119183D01*
X197573Y118663D01*
X196837Y117927D01*
X196317Y117026D01*
X196047Y116020D01*
Y114980D01*
X196317Y113974D01*
X196837Y113073D01*
X197573Y112337D01*
X198474Y111817D01*
X199480Y111547D01*
X200520D01*
X201526Y111817D01*
X202427Y112337D01*
X203163Y113073D01*
X203683Y113974D01*
X203953Y114980D01*
Y116020D01*
X203683Y117026D01*
X203163Y117927D01*
X202427Y118663D01*
X201526Y119183D01*
X200520Y119453D01*
D02*
G37*
G36*
X183953Y115000D02*
X180500D01*
Y111547D01*
X180520D01*
X181526Y111817D01*
X182427Y112337D01*
X183163Y113073D01*
X183683Y113974D01*
X183953Y114980D01*
Y115000D01*
D02*
G37*
G36*
X179500D02*
X176047D01*
Y114980D01*
X176317Y113974D01*
X176837Y113073D01*
X177573Y112337D01*
X178474Y111817D01*
X179480Y111547D01*
X179500D01*
Y115000D01*
D02*
G37*
G36*
X173953Y119453D02*
X166047D01*
Y111547D01*
X173953D01*
Y119453D01*
D02*
G37*
%LPD*%
G36*
X313843Y241386D02*
X321158D01*
Y242825D01*
X336512D01*
X341047Y238290D01*
Y233269D01*
X340585Y233078D01*
X334281Y239381D01*
X333785Y239713D01*
X333200Y239829D01*
X296800D01*
X296779Y239846D01*
Y240453D01*
X296432Y241291D01*
X295791Y241933D01*
X294953Y242280D01*
X294047D01*
X293209Y241933D01*
X292806Y241529D01*
X291500D01*
X290915Y241413D01*
X290419Y241081D01*
X288043Y238706D01*
X287712Y238210D01*
X287610Y237701D01*
X287110Y237750D01*
Y240158D01*
X284642D01*
Y236500D01*
X283642D01*
Y240158D01*
X281173D01*
Y240079D01*
X279827D01*
Y240158D01*
X273890D01*
Y236281D01*
X270212D01*
X270005Y236781D01*
X270432Y237209D01*
X270779Y238047D01*
Y238953D01*
X270432Y239791D01*
X270029Y240194D01*
Y241386D01*
X276720D01*
Y243612D01*
X302279D01*
Y241386D01*
X312547D01*
Y243612D01*
X313843D01*
Y241386D01*
D02*
G37*
G36*
X255073Y235088D02*
X254894Y234658D01*
X253142D01*
Y231000D01*
Y227343D01*
X255610D01*
Y228471D01*
X263592D01*
X268168Y223894D01*
X268665Y223563D01*
X269250Y223446D01*
X278365D01*
X278951Y223563D01*
X279447Y223894D01*
X280286Y224734D01*
X280618Y225230D01*
X280627Y225276D01*
X284733D01*
Y228638D01*
X285488D01*
Y225276D01*
X308354D01*
Y232000D01*
X308293D01*
Y233281D01*
X309983Y234971D01*
X318701D01*
X318801Y234471D01*
X318709Y234433D01*
X318068Y233791D01*
X317721Y232953D01*
Y232047D01*
X318068Y231209D01*
X318709Y230568D01*
X319547Y230221D01*
X320117D01*
X321390Y228947D01*
Y224505D01*
X319178Y222293D01*
X318000D01*
Y222354D01*
X311276D01*
Y219173D01*
Y217205D01*
Y213268D01*
Y209331D01*
Y205394D01*
Y201457D01*
Y197520D01*
Y193583D01*
Y189646D01*
X318000D01*
Y189849D01*
X318462Y190041D01*
X323471Y185032D01*
Y183685D01*
X323419Y183424D01*
Y169576D01*
X323471Y169315D01*
Y150703D01*
X319581Y146813D01*
X319090Y146910D01*
X318933Y147291D01*
X318473Y147751D01*
X318710Y148221D01*
X319453D01*
X320291Y148567D01*
X320933Y149209D01*
X321280Y150047D01*
Y150953D01*
X320933Y151791D01*
X320291Y152433D01*
X319453Y152779D01*
X319120D01*
X318785Y153279D01*
X319000Y153797D01*
Y154704D01*
X318653Y155542D01*
X318012Y156183D01*
X317174Y156530D01*
X316267D01*
X315429Y156183D01*
X315040Y155795D01*
X313970D01*
Y156339D01*
X310067D01*
X306163D01*
Y154953D01*
Y151520D01*
X301909D01*
X301506Y151923D01*
X300669Y152270D01*
X299762D01*
X298924Y151923D01*
X298283Y151282D01*
X297954Y150489D01*
X297860Y150391D01*
X297575Y150239D01*
X297435Y150211D01*
X296901Y150318D01*
X290837D01*
Y155566D01*
X291214Y155641D01*
X291710Y155972D01*
X299971Y164233D01*
X300303Y164729D01*
X300419Y165315D01*
Y165390D01*
X303000D01*
Y168358D01*
X303500D01*
Y168858D01*
X307157D01*
Y170891D01*
X307390Y171295D01*
X307644Y171295D01*
X308829D01*
Y169053D01*
X308568Y168791D01*
X308221Y167953D01*
Y167047D01*
X308568Y166209D01*
X309209Y165568D01*
X310047Y165220D01*
X310953D01*
X311791Y165568D01*
X312433Y166209D01*
X312779Y167047D01*
Y167953D01*
X312433Y168791D01*
X311888Y169336D01*
Y171295D01*
X313327D01*
Y171374D01*
X314673D01*
Y171295D01*
X317471D01*
Y169194D01*
X317068Y168791D01*
X316740Y168000D01*
X321260D01*
X320933Y168791D01*
X320529Y169194D01*
Y171295D01*
X320610D01*
Y174453D01*
X317642D01*
Y174953D01*
X317142D01*
Y178610D01*
X314673D01*
Y178531D01*
X313327D01*
Y178610D01*
X310419D01*
Y179110D01*
X310303Y179695D01*
X309971Y180192D01*
X308384Y181779D01*
Y183272D01*
X308354Y183419D01*
Y186724D01*
X279583D01*
Y183369D01*
X279581Y183362D01*
X278827D01*
Y186724D01*
X275646D01*
Y184892D01*
X264116D01*
X263899Y185317D01*
X263892Y185375D01*
X268163Y189646D01*
X272724D01*
Y191614D01*
Y195551D01*
Y198732D01*
X269362D01*
Y199488D01*
X272724D01*
Y199488D01*
Y203425D01*
Y207447D01*
X273329D01*
X273709Y207067D01*
X274547Y206720D01*
X275453D01*
X276291Y207067D01*
X276933Y207709D01*
X277279Y208547D01*
Y209453D01*
X276933Y210291D01*
X276291Y210932D01*
X275453Y211280D01*
X274547D01*
X273709Y210932D01*
X273282Y210506D01*
X272724D01*
Y215236D01*
Y219173D01*
Y222354D01*
X266000D01*
Y220325D01*
X265126D01*
X264932Y220791D01*
X264291Y221432D01*
X263453Y221779D01*
X262547D01*
X261709Y221432D01*
X261068Y220791D01*
X260720Y219953D01*
Y219047D01*
X261068Y218209D01*
X261709Y217567D01*
X262547Y217220D01*
X263453D01*
X263746Y217342D01*
X264127Y217266D01*
X266000D01*
Y214419D01*
X261330D01*
X259811Y215938D01*
Y225224D01*
X252608D01*
X250952Y226881D01*
X251143Y227343D01*
X252142D01*
Y231000D01*
Y234658D01*
X249673D01*
Y234579D01*
X248327D01*
Y234658D01*
X242390D01*
Y227343D01*
X246164D01*
X247800Y225706D01*
X247609Y225244D01*
X242866D01*
X242768Y225224D01*
X234189D01*
Y213776D01*
X237112D01*
Y212657D01*
X235673D01*
Y212579D01*
X234327D01*
Y212657D01*
X231858D01*
Y209000D01*
Y205343D01*
X234327D01*
Y205421D01*
X235673D01*
Y205343D01*
X241610D01*
Y209392D01*
X266000D01*
Y208529D01*
X247000D01*
X246415Y208413D01*
X245919Y208081D01*
X241967Y204129D01*
X235352D01*
X234767Y204013D01*
X234271Y203681D01*
X227819Y197229D01*
X227818Y197229D01*
X215760Y185171D01*
X211157D01*
Y186610D01*
X203842D01*
Y185171D01*
X200890D01*
X200305Y185055D01*
X199808Y184723D01*
X193758Y178673D01*
X190870D01*
Y178594D01*
X189130D01*
Y178673D01*
X185451D01*
X185259Y179135D01*
X201556Y195432D01*
X201887Y195928D01*
X201987Y196427D01*
X203927D01*
Y205317D01*
X202587D01*
Y221231D01*
X208356D01*
Y225028D01*
X215843D01*
Y223673D01*
X215921D01*
Y222327D01*
X215843D01*
Y219858D01*
X219500D01*
X223158D01*
Y222327D01*
X223079D01*
Y223673D01*
X223158D01*
Y227447D01*
X231181Y235471D01*
X254761D01*
X255073Y235088D01*
D02*
G37*
G36*
X221971Y186402D02*
Y174252D01*
X220342D01*
Y172277D01*
X218673D01*
Y173126D01*
X213327D01*
Y168370D01*
X213406D01*
Y166630D01*
X213327D01*
Y165655D01*
X211600D01*
Y166100D01*
X208229D01*
Y166900D01*
X211600D01*
Y171100D01*
X201800D01*
Y166900D01*
X205171D01*
Y166100D01*
X201800D01*
Y161900D01*
X211600D01*
Y162597D01*
X213327D01*
Y161874D01*
X218315D01*
X218522Y161374D01*
X212678Y155529D01*
X211600D01*
Y156100D01*
X207200D01*
Y154000D01*
Y151900D01*
X209437D01*
X209775Y151562D01*
X209584Y151100D01*
X201800D01*
Y148770D01*
X199991Y146961D01*
X199529Y147153D01*
Y157167D01*
X199719Y157356D01*
X201800D01*
Y156900D01*
X211600D01*
Y161100D01*
X201800D01*
Y160415D01*
X199086D01*
X198501Y160299D01*
X198004Y159967D01*
X196919Y158881D01*
X196587Y158385D01*
X196529Y158096D01*
X196029Y158145D01*
Y158414D01*
X195913Y159000D01*
X195581Y159496D01*
X194996Y160081D01*
X194500Y160413D01*
X193914Y160529D01*
X192200D01*
Y161100D01*
X183029D01*
Y161900D01*
X192200D01*
Y166100D01*
X188829D01*
Y166900D01*
X192200D01*
Y171100D01*
X188781D01*
Y173327D01*
X189130D01*
Y173406D01*
X190870D01*
Y173327D01*
X195626D01*
Y176215D01*
X201523Y182112D01*
X203842D01*
Y180673D01*
X203921D01*
Y179327D01*
X203842D01*
Y176858D01*
X207500D01*
Y176358D01*
X208000D01*
Y173390D01*
X211157D01*
Y174829D01*
X211858D01*
X212443Y174945D01*
X212940Y175277D01*
X214000Y176337D01*
Y178500D01*
X211837D01*
X211658Y178320D01*
X211157Y178527D01*
Y179327D01*
X211079D01*
Y180673D01*
X211157D01*
Y182112D01*
X216394D01*
X216979Y182229D01*
X217475Y182560D01*
X221509Y186594D01*
X221971Y186402D01*
D02*
G37*
G36*
X224500Y161031D02*
X227658D01*
X227971Y160661D01*
Y155626D01*
X226827D01*
Y155529D01*
X224658D01*
Y157595D01*
X219722D01*
X219530Y158056D01*
X222505Y161031D01*
X223500D01*
Y164000D01*
X224500D01*
Y161031D01*
D02*
G37*
G36*
X260890Y177482D02*
Y175500D01*
X263858D01*
Y175000D01*
X264358D01*
Y171343D01*
X266827D01*
Y171343D01*
X266906Y171421D01*
X267104D01*
X267371Y170921D01*
X267276Y170780D01*
X267047D01*
X266209Y170432D01*
X265567Y169791D01*
X265220Y168953D01*
Y168047D01*
X265567Y167209D01*
X266209Y166568D01*
X267047Y166220D01*
X267161D01*
X267352Y165759D01*
X258591Y156998D01*
X258129Y157189D01*
Y175375D01*
X260428Y177674D01*
X260890Y177482D01*
D02*
G37*
%LPC*%
G36*
X223158Y218858D02*
X220000D01*
Y216390D01*
X223158D01*
Y218858D01*
D02*
G37*
G36*
X219000D02*
X215843D01*
Y216390D01*
X219000D01*
Y218858D01*
D02*
G37*
G36*
X230858Y212657D02*
X228390D01*
Y209500D01*
X230858D01*
Y212657D01*
D02*
G37*
G36*
X223158Y211110D02*
X220000D01*
Y208642D01*
X223158D01*
Y211110D01*
D02*
G37*
G36*
X219000D02*
X215843D01*
Y208642D01*
X219000D01*
Y211110D01*
D02*
G37*
G36*
X230858Y208500D02*
X228390D01*
Y205343D01*
X230858D01*
Y208500D01*
D02*
G37*
G36*
X223158Y207642D02*
X215843D01*
Y205173D01*
X215921D01*
Y203827D01*
X215843D01*
Y202388D01*
X212982D01*
Y205317D01*
X207242D01*
Y196427D01*
X208471D01*
Y195194D01*
X208067Y194791D01*
X207720Y193953D01*
Y193047D01*
X208067Y192209D01*
X208709Y191568D01*
X209547Y191220D01*
X210453D01*
X211291Y191568D01*
X211932Y192209D01*
X212280Y193047D01*
Y193953D01*
X211932Y194791D01*
X211529Y195194D01*
Y196427D01*
X212982D01*
Y199329D01*
X215843D01*
Y197890D01*
X223158D01*
Y203827D01*
X223079D01*
Y205173D01*
X223158D01*
Y207642D01*
D02*
G37*
G36*
X320610Y178610D02*
X318142D01*
Y175453D01*
X320610D01*
Y178610D01*
D02*
G37*
G36*
X307157Y167858D02*
X304000D01*
Y165390D01*
X307157D01*
Y167858D01*
D02*
G37*
G36*
X321260Y167000D02*
X319500D01*
Y165240D01*
X320291Y165568D01*
X320933Y166209D01*
X321260Y167000D01*
D02*
G37*
G36*
X318500D02*
X316740D01*
X317068Y166209D01*
X317709Y165568D01*
X318500Y165240D01*
Y167000D01*
D02*
G37*
G36*
X313970Y163842D02*
X310567D01*
Y162457D01*
X313970D01*
Y163842D01*
D02*
G37*
G36*
X309567D02*
X306163D01*
Y162457D01*
X309567D01*
Y163842D01*
D02*
G37*
G36*
X313970Y161457D02*
X310067D01*
X306163D01*
Y160071D01*
Y157512D01*
Y157339D01*
X310067D01*
X313970D01*
Y160071D01*
Y161457D01*
D02*
G37*
G36*
X215000Y181260D02*
Y179500D01*
X216760D01*
X216432Y180291D01*
X215791Y180932D01*
X215000Y181260D01*
D02*
G37*
G36*
X214000D02*
X213209Y180932D01*
X212567Y180291D01*
X212240Y179500D01*
X214000D01*
Y181260D01*
D02*
G37*
G36*
X216760Y178500D02*
X215000D01*
Y176740D01*
X215791Y177067D01*
X216432Y177709D01*
X216760Y178500D01*
D02*
G37*
G36*
X207000Y175858D02*
X203842D01*
Y173390D01*
X207000D01*
Y175858D01*
D02*
G37*
G36*
X206200Y156100D02*
X201800D01*
Y154500D01*
X206200D01*
Y156100D01*
D02*
G37*
G36*
Y153500D02*
X201800D01*
Y151900D01*
X206200D01*
Y153500D01*
D02*
G37*
G36*
X263358Y174500D02*
X260890D01*
Y171343D01*
X263358D01*
Y174500D01*
D02*
G37*
%LPD*%
D13*
X198000Y157800D02*
X199086Y158886D01*
X206586D01*
X198000Y131883D02*
Y157800D01*
X195500Y129383D02*
X198000Y131883D01*
X192114Y149000D02*
X192700Y148414D01*
X190000Y126429D02*
X194500Y130929D01*
X180639Y125500D02*
X192700Y137562D01*
X194500Y130929D02*
Y158414D01*
X190000Y125500D02*
Y126429D01*
X190750Y119953D02*
X195500Y124703D01*
Y129383D01*
X187300Y149000D02*
X192114D01*
X187300Y159000D02*
X193914D01*
X192700Y137562D02*
Y148414D01*
X193914Y159000D02*
X194500Y158414D01*
X286933Y146602D02*
X287306Y146229D01*
X295934D02*
X297007Y145156D01*
Y133835D02*
Y145156D01*
X287306Y146229D02*
X295934D01*
X255422Y237000D02*
X257836Y234586D01*
X220189Y226642D02*
X230547Y237000D01*
X255422D01*
X210000Y193500D02*
Y200760D01*
X325000Y150069D02*
Y169524D01*
X310475Y135976D02*
X310906D01*
X316027Y146551D02*
X316578Y146000D01*
X309118Y146551D02*
X316027D01*
X316578Y146000D02*
X317000D01*
X300000Y125500D02*
X310475Y135976D01*
X310906D02*
X325000Y150069D01*
X264000Y241248D02*
Y241453D01*
X263500Y241248D02*
Y244500D01*
X264142Y245142D02*
X271587D01*
X263500Y244500D02*
X264142Y245142D01*
X244500Y187358D02*
Y193000D01*
X243500Y196000D02*
X248516D01*
X238327Y190827D02*
X243500Y196000D01*
X244142Y187000D02*
X244500Y187358D01*
X236858Y187000D02*
X238327Y188469D01*
Y190827D01*
X244500Y187000D02*
X250142D01*
X244142D02*
X244500D01*
X288642Y137500D02*
X293500D01*
X296901Y148788D02*
X298807Y146882D01*
X290000Y126827D02*
X297007Y133835D01*
X298807Y133089D02*
Y146882D01*
X295500Y129782D02*
X298807Y133089D01*
X309694Y149535D02*
X310067Y149161D01*
X306625Y149535D02*
X309694D01*
X306169Y149990D02*
X306625Y149535D01*
X300215Y149990D02*
X306169D01*
X286306Y148788D02*
X296901D01*
X323056Y227303D02*
Y229445D01*
X324358Y225311D02*
Y226000D01*
X323056Y227303D02*
X324358Y226000D01*
X320000Y232500D02*
X323056Y229445D01*
X306764Y233914D02*
X309350Y236500D01*
X330000D02*
X338031Y228469D01*
X291094Y232594D02*
X296800Y238300D01*
X333200D02*
X345000Y226500D01*
X309350Y236500D02*
X330000D01*
X296800Y238300D02*
X333200D01*
X227700Y192402D02*
X236098Y200800D01*
X229500Y153248D02*
Y191657D01*
X234843Y197000D01*
X227700Y192402D02*
Y192402D01*
X223500Y171610D02*
Y188202D01*
X227700Y192402D01*
X236843Y199000D02*
X260363D01*
X236098Y200800D02*
X259618D01*
X228900Y196148D02*
X235352Y202600D01*
X234843Y197000D02*
X234843D01*
X236843Y199000D01*
X235352Y202600D02*
X242600D01*
X207500Y183642D02*
X216394D01*
X228900Y196148D02*
Y196148D01*
X216394Y183642D02*
X228900Y196148D01*
X236500Y187358D02*
X236858Y187000D01*
X236500Y187358D02*
Y193000D01*
X211858Y176358D02*
X214500Y179000D01*
X207500Y176358D02*
X211858D01*
X236858Y178000D02*
Y187000D01*
X252642Y231000D02*
X253642Y230000D01*
X279205Y225815D02*
Y231460D01*
X264226Y230000D02*
X269250Y224976D01*
X253642Y230000D02*
X264226D01*
X279205Y231460D02*
X280044Y232300D01*
X284271D01*
X285032Y228716D02*
X285110Y228638D01*
X278365Y224976D02*
X279205Y225815D01*
X269250Y224976D02*
X278365D01*
X277124Y232343D02*
X277146Y232321D01*
X285032Y228716D02*
Y231539D01*
X277146Y228728D02*
Y232321D01*
X284271Y232300D02*
X285032Y231539D01*
X277124Y232343D02*
Y235797D01*
X268500Y242886D02*
X269117Y243503D01*
X268500Y238500D02*
Y242886D01*
X275610Y234752D02*
X276858Y236000D01*
X264000Y234752D02*
X275610D01*
X319811Y220764D02*
X324358Y225311D01*
X289124Y237625D02*
X291500Y240000D01*
X289124Y228715D02*
Y237625D01*
X269362Y208953D02*
X269386Y208976D01*
X263422Y219500D02*
X264127Y218795D01*
X291500Y240000D02*
X294500D01*
X269386Y208976D02*
X274976D01*
X289047Y228638D02*
X289124Y228715D01*
X264127Y218795D02*
X269362D01*
X259636Y205000D02*
X259648Y205012D01*
X248500Y204000D02*
X248865D01*
X274976Y208976D02*
X275000Y209000D01*
X263000Y219500D02*
X263422D01*
X248865Y204000D02*
X249865Y205000D01*
X259636D01*
X259648Y205012D02*
X269358D01*
X269362Y205016D01*
X251831Y221756D02*
Y223839D01*
X245358Y230311D02*
Y231000D01*
Y230311D02*
X251831Y223839D01*
X285110Y228638D02*
Y235531D01*
X284142Y236500D02*
X285110Y235531D01*
X310358Y167642D02*
X310500Y167500D01*
X310358Y167642D02*
Y174953D01*
X271587Y245142D02*
X307413D01*
X267500Y168500D02*
X270428Y171428D01*
X291094Y228716D02*
Y232594D01*
X319000Y167500D02*
Y173594D01*
X317642Y174953D02*
X319000Y173594D01*
X257919Y234669D02*
X263917D01*
X257836Y234586D02*
X257919Y234669D01*
X263917D02*
X264000Y234752D01*
X171876Y144624D02*
Y147954D01*
X172500Y148578D01*
Y149000D01*
X247000Y207000D02*
X269346D01*
X242600Y202600D02*
X247000Y207000D01*
X269346D02*
X269362Y206984D01*
X259618Y200800D02*
X261865Y203047D01*
X269362D01*
X252468Y189327D02*
X255781D01*
X263596Y197142D01*
X251000Y187858D02*
X252468Y189327D01*
X250142Y187000D02*
X251000Y187858D01*
X262442Y201079D02*
X269362D01*
X263019Y199110D02*
X269362D01*
X259051Y195142D02*
X263019Y199110D01*
X251000Y195142D02*
X259051D01*
X260363Y199000D02*
X262442Y201079D01*
X263596Y197142D02*
X269362D01*
X243883Y177383D02*
X247383D01*
X265173Y195173D01*
X269362D01*
X288142Y138000D02*
Y143658D01*
X337146Y244354D02*
X345000Y236500D01*
X317500Y244354D02*
X337146D01*
X316713Y245142D02*
X317500Y244354D01*
X307413Y245142D02*
X316713D01*
X270428Y171428D02*
Y174287D01*
X271142Y175000D01*
X309681Y143658D02*
X310067Y144043D01*
X305798Y141798D02*
X307658Y143658D01*
X309681D01*
X305798Y139798D02*
Y141798D01*
X200890Y183642D02*
X207500D01*
X193248Y176000D02*
X200890Y183642D01*
X285110Y237469D02*
X285142Y237500D01*
X277146Y228728D02*
X277236Y228638D01*
X228748Y154000D02*
X229500Y153248D01*
X221642Y154000D02*
X228748D01*
X207200Y143500D02*
X226248D01*
X206700Y144000D02*
X207200Y143500D01*
X226248D02*
X229500Y146752D01*
X220858Y147500D02*
X221000Y147358D01*
X210100Y153400D02*
X216000Y147500D01*
X220858D01*
X210100Y153400D02*
Y153400D01*
X206700Y154000D02*
X213311D01*
X209500D02*
X210100Y153400D01*
X221000Y154642D02*
X221642Y154000D01*
X263858Y179114D02*
X264444Y179700D01*
X263858Y175000D02*
Y179114D01*
X264444Y179700D02*
X278365D01*
X255547Y124750D02*
Y146700D01*
X250000Y143698D02*
X285110Y178808D01*
X278365Y179700D02*
X279127Y180462D01*
X269800Y153316D02*
X292984Y176500D01*
X250000Y125500D02*
Y143698D01*
X279127Y180462D02*
Y183284D01*
X265500Y151561D02*
X291016Y177077D01*
X265500Y121000D02*
Y151561D01*
X276211Y175000D02*
X281095Y179884D01*
X260000Y125500D02*
Y148607D01*
X269800Y125700D02*
Y153316D01*
X245547Y141791D02*
X283142Y179385D01*
X245547Y124750D02*
Y141791D01*
X260000Y148607D02*
X289047Y177654D01*
X255547Y146700D02*
X287079Y178231D01*
X272500Y175000D02*
X276211D01*
X291016Y177077D02*
Y183362D01*
X283142Y179385D02*
Y183362D01*
X281095Y179884D02*
Y183284D01*
X287079Y178231D02*
Y183206D01*
X281095Y183284D02*
X281173Y183362D01*
X289047Y177654D02*
Y183362D01*
X292984Y176500D02*
Y183362D01*
X285110Y178808D02*
Y183362D01*
X263953D02*
X277236D01*
X279127Y183284D02*
X279205Y183362D01*
X181500Y177539D02*
X200475Y196513D01*
X181500Y157000D02*
Y177539D01*
X200475Y200290D02*
X201057Y200872D01*
X200475Y196513D02*
Y200290D01*
X201057Y200872D02*
Y225676D01*
X210000Y200760D02*
X210112Y200872D01*
X213311Y154000D02*
X223311Y164000D01*
X224000D01*
X177358Y154000D02*
X187300D01*
X288142Y138000D02*
X288642Y137500D01*
X295500Y121000D02*
Y129782D01*
X290000Y115500D02*
X295500Y121000D01*
X254800Y178446D02*
X267590Y191236D01*
X254800Y156712D02*
Y178446D01*
X306764Y228638D02*
Y233914D01*
X314638Y220764D02*
X319811D01*
X314638Y218795D02*
X323390D01*
X324858Y217327D01*
Y217000D02*
Y217327D01*
X249273Y170975D02*
X249748Y170500D01*
Y163500D02*
Y170500D01*
X290000Y125500D02*
Y126827D01*
X305500Y139500D02*
X305798Y139798D01*
X308890Y176421D02*
Y179110D01*
Y176421D02*
X310358Y174953D01*
X306854Y181146D02*
X308890Y179110D01*
X306854Y181146D02*
Y183272D01*
X306764Y183362D02*
X306854Y183272D01*
X304000Y175642D02*
X304795Y176437D01*
Y183362D01*
X304795Y183362D02*
X304795Y183362D01*
X179133Y155803D02*
X180303D01*
X181500Y157000D01*
X177689Y154358D02*
X179133Y155803D01*
X177000Y154358D02*
X177689D01*
X253000Y179665D02*
X265700Y192365D01*
Y192365D02*
X266461Y193127D01*
X265700Y192365D02*
Y192365D01*
X253000Y157457D02*
Y179665D01*
X266461Y193127D02*
X269284D01*
X260697Y212890D02*
X269362D01*
X171252Y144000D02*
X171876Y144624D01*
X216000Y170748D02*
X222638D01*
X206826Y164126D02*
X215874D01*
X216000Y164252D01*
X206700Y164000D02*
X206826Y164126D01*
X230000Y115500D02*
X230750Y116250D01*
Y119953D01*
X235547Y124750D01*
Y137459D01*
X254800Y156712D01*
X256600Y176009D02*
X263953Y183362D01*
X256600Y155966D02*
Y176009D01*
X267590Y191236D02*
X269362D01*
X240110Y210921D02*
X269362D01*
X258311Y215276D02*
X258311D01*
X260697Y212890D01*
X238642Y209453D02*
X240110Y210921D01*
X251831Y221756D02*
X258311Y215276D01*
X286933Y144043D02*
X287756D01*
X276742Y128758D02*
X280000Y125500D01*
X276742Y128758D02*
Y146174D01*
X282288Y151720D01*
X274500Y146478D02*
X282302Y154279D01*
X282288Y151720D02*
X286433D01*
X274500Y120000D02*
Y146478D01*
X282302Y154279D02*
X286433D01*
X219500Y226642D02*
X220189D01*
X238642Y209453D02*
Y219213D01*
Y209000D02*
Y209453D01*
X239394Y219035D02*
X241358Y221000D01*
X238642Y219213D02*
X238929Y219500D01*
X187174Y164126D02*
X187300Y164000D01*
X187252Y169048D02*
Y176000D01*
Y169048D02*
X187300Y169000D01*
Y164000D02*
Y169000D01*
X243252Y176752D02*
X243883Y177383D01*
X243252Y170500D02*
Y176752D01*
X220000Y129000D02*
X243252Y152252D01*
X220000Y125500D02*
Y129000D01*
X243252Y152252D02*
Y170500D01*
X344500Y197000D02*
X345000Y196500D01*
X317538Y216749D02*
X337287Y197000D01*
X344500D01*
X314716Y216749D02*
X317538D01*
X320079Y210921D02*
X334000Y197000D01*
X314638Y210921D02*
X320079D01*
X334000Y179748D02*
Y197000D01*
X298890Y165315D02*
Y183362D01*
X286933Y156839D02*
X287148Y157054D01*
X290629D01*
X298890Y165315D01*
X296921Y166317D02*
Y183362D01*
X290375Y159771D02*
X296921Y166317D01*
X294953Y167959D02*
Y183362D01*
X286933Y161957D02*
X288951D01*
X294953Y167959D01*
X286933Y159398D02*
X287306Y159771D01*
X290375D01*
X180000Y125500D02*
X180639D01*
X190000Y115500D02*
X190750Y116250D01*
Y119953D01*
X210112Y200872D02*
X210126Y200858D01*
X219500D01*
X326748Y170322D02*
Y182678D01*
X328548Y181933D02*
X328600Y181985D01*
X330400Y181239D02*
Y194554D01*
X332148Y180441D02*
X332200Y180493D01*
X333948Y179696D02*
X334000Y179748D01*
X324948Y169576D02*
Y183424D01*
X328548Y171067D02*
X328600Y171015D01*
X324948Y183424D02*
X325000Y183476D01*
X326800Y149300D02*
Y170270D01*
X324948Y169576D02*
X325000Y169524D01*
X330348Y171813D02*
X330400Y171761D01*
X330348Y171813D02*
Y181187D01*
X328548Y171067D02*
Y181933D01*
X326748Y170322D02*
X326800Y170270D01*
X328600Y181985D02*
Y188400D01*
X325000Y183476D02*
Y185665D01*
X330400Y135900D02*
Y171761D01*
X326748Y182678D02*
X326800Y182730D01*
X334000Y131500D02*
Y173252D01*
X333948Y173304D02*
Y179696D01*
Y173304D02*
X334000Y173252D01*
X328600Y144100D02*
Y171015D01*
X332200Y129746D02*
Y172506D01*
X330348Y181187D02*
X330400Y181239D01*
X332148Y172558D02*
X332200Y172506D01*
X326800Y182730D02*
Y187200D01*
X332200Y180493D02*
Y195300D01*
X332148Y172558D02*
Y180441D01*
X330939Y126439D02*
Y128484D01*
X334000Y131500D02*
X340000Y125500D01*
X319858Y197142D02*
X328600Y188400D01*
X318827Y195173D02*
X326800Y187200D01*
X318048Y206906D02*
X330400Y194554D01*
X330000Y125500D02*
X330939Y126439D01*
X318547Y208953D02*
X332200Y195300D01*
X330939Y128484D02*
X332200Y129746D01*
X321072Y126572D02*
X330400Y135900D01*
X310000Y125500D02*
X328600Y144100D01*
X317539Y193127D02*
X325000Y185665D01*
X305547Y128047D02*
X326800Y149300D01*
X314638Y208953D02*
X318547D01*
X314716Y206906D02*
X318048D01*
X315799Y150500D02*
X319000D01*
X314578Y151720D02*
X315799Y150500D01*
X305547Y124047D02*
Y128047D01*
X230000Y134457D02*
X253000Y157457D01*
X240000Y139366D02*
X256600Y155966D01*
X222638Y170748D02*
X223500Y171610D01*
X171252Y137106D02*
Y144000D01*
Y137106D02*
X171858Y136500D01*
X177591Y144000D02*
X187300D01*
X200000Y125500D02*
Y144807D01*
X203300Y148107D01*
X257500Y220016D02*
Y221984D01*
X338031Y213469D02*
Y228469D01*
Y213469D02*
X345000Y206500D01*
X330200Y224558D02*
X331642Y226000D01*
X330200Y219503D02*
Y224558D01*
Y219503D02*
X331642Y218061D01*
X314638Y206984D02*
X314716Y206906D01*
Y193127D02*
X317539D01*
X287756Y144043D02*
X288142Y143658D01*
X309067Y146602D02*
X309118Y146551D01*
X309067Y154279D02*
X309081Y154265D01*
X316706D02*
X316721Y154251D01*
X309081Y154265D02*
X316706D01*
X309067Y151720D02*
X314578D01*
X270000Y115500D02*
X274500Y120000D01*
X260000Y115500D02*
X265500Y121000D01*
X269800Y125700D02*
X270000Y125500D01*
X250750Y119953D02*
X255547Y124750D01*
X250750Y116250D02*
Y119953D01*
X250000Y115500D02*
X250750Y116250D01*
X230000Y125500D02*
Y134457D01*
X240000Y125500D02*
Y139366D01*
Y115500D02*
X240750Y116250D01*
Y119953D02*
X245547Y124750D01*
X240750Y116250D02*
Y119953D01*
X281358Y138500D02*
Y139189D01*
X300750Y116250D02*
Y119250D01*
X305547Y124047D01*
X314638Y195173D02*
X318827D01*
X300000Y115500D02*
X300750Y116250D01*
X314638Y193205D02*
X314716Y193127D01*
X314638Y197142D02*
X319858D01*
X321072Y125500D02*
Y126572D01*
X291016Y228638D02*
X291094Y228716D01*
X201057Y225676D02*
X201939Y226557D01*
X218500D01*
X331642Y217500D02*
X332142Y217000D01*
X206700Y164000D02*
Y169000D01*
Y139000D02*
Y144000D01*
X187300Y139000D02*
Y144000D01*
X203900Y149000D02*
X206700D01*
X203300Y148400D02*
X203900Y149000D01*
X203300Y148107D02*
Y148400D01*
X206586Y158886D02*
X206700Y159000D01*
X314638Y216827D02*
X314716Y216749D01*
X269284Y193127D02*
X269362Y193205D01*
D15*
Y197142D02*
D03*
X314638Y220764D02*
D03*
X269362Y199110D02*
D03*
Y191236D02*
D03*
Y193205D02*
D03*
Y195173D02*
D03*
Y201079D02*
D03*
Y203047D02*
D03*
Y205016D02*
D03*
Y206984D02*
D03*
Y208953D02*
D03*
Y210921D02*
D03*
Y212890D02*
D03*
Y214858D02*
D03*
Y216827D02*
D03*
Y218795D02*
D03*
Y220764D02*
D03*
X314638Y191236D02*
D03*
Y193205D02*
D03*
Y195173D02*
D03*
Y197142D02*
D03*
Y199110D02*
D03*
Y201079D02*
D03*
Y203047D02*
D03*
Y205016D02*
D03*
Y206984D02*
D03*
Y208953D02*
D03*
Y210921D02*
D03*
Y212890D02*
D03*
Y214858D02*
D03*
Y216827D02*
D03*
Y218795D02*
D03*
D16*
X281173Y183362D02*
D03*
X306764D02*
D03*
X277236Y228638D02*
D03*
X279205D02*
D03*
X285110D02*
D03*
X279205Y183362D02*
D03*
X291016D02*
D03*
X289047D02*
D03*
X287079D02*
D03*
X285110D02*
D03*
X283142D02*
D03*
X277236D02*
D03*
X304795D02*
D03*
X302827D02*
D03*
X300858D02*
D03*
X298890D02*
D03*
X296921D02*
D03*
X294953D02*
D03*
X292984D02*
D03*
X306764Y228638D02*
D03*
X304795D02*
D03*
X302827D02*
D03*
X300858D02*
D03*
X298890D02*
D03*
X296921D02*
D03*
X294953D02*
D03*
X292984D02*
D03*
X291016D02*
D03*
X289047D02*
D03*
X287079D02*
D03*
X283142D02*
D03*
X281173D02*
D03*
D17*
X263500Y241248D02*
D03*
Y234752D02*
D03*
X216000Y170748D02*
D03*
Y164252D02*
D03*
X229500Y153248D02*
D03*
Y146752D02*
D03*
D18*
X307413Y262858D02*
D03*
X271587D02*
D03*
Y245142D02*
D03*
X307413D02*
D03*
D19*
X303500Y175642D02*
D03*
Y168358D02*
D03*
X207500Y176358D02*
D03*
Y183642D02*
D03*
X224000Y164000D02*
D03*
Y171283D02*
D03*
X221000Y147343D02*
D03*
Y154626D02*
D03*
X251000Y187858D02*
D03*
X219500Y226642D02*
D03*
X177000Y154358D02*
D03*
X317500Y251638D02*
D03*
X219500Y219358D02*
D03*
Y208142D02*
D03*
X177000Y161642D02*
D03*
X251000Y195142D02*
D03*
X219500Y200858D02*
D03*
X317500Y244354D02*
D03*
D20*
X193248Y176000D02*
D03*
X186752D02*
D03*
X171752Y144000D02*
D03*
X178248D02*
D03*
X243252Y170500D02*
D03*
X249748D02*
D03*
D21*
X178642Y136500D02*
D03*
X171358D02*
D03*
X287642Y138000D02*
D03*
X280358D02*
D03*
X317642Y174953D02*
D03*
X310358D02*
D03*
X236858Y178000D02*
D03*
X244142D02*
D03*
Y187000D02*
D03*
X271142Y175000D02*
D03*
X324358Y226000D02*
D03*
X276858Y236500D02*
D03*
X231358Y209000D02*
D03*
X252642Y231000D02*
D03*
X236858Y187000D02*
D03*
X331642Y218061D02*
D03*
X263858Y175000D02*
D03*
X331642Y226000D02*
D03*
X284142Y236500D02*
D03*
X324358Y218061D02*
D03*
X245358Y231000D02*
D03*
X238642Y209000D02*
D03*
D22*
X210112Y200872D02*
D03*
X192002D02*
D03*
X201057D02*
D03*
D23*
Y225676D02*
D03*
D24*
X310067Y149161D02*
D03*
X286933Y144043D02*
D03*
Y146602D02*
D03*
Y149161D02*
D03*
Y151720D02*
D03*
Y154279D02*
D03*
Y156839D02*
D03*
Y159398D02*
D03*
Y161957D02*
D03*
X310067D02*
D03*
Y159398D02*
D03*
Y156839D02*
D03*
Y154279D02*
D03*
Y151720D02*
D03*
Y146602D02*
D03*
Y144043D02*
D03*
D25*
X238929Y219500D02*
D03*
X255071D02*
D03*
D26*
X187300Y154000D02*
D03*
X206700D02*
D03*
Y169000D02*
D03*
Y164000D02*
D03*
Y159000D02*
D03*
Y149000D02*
D03*
Y144000D02*
D03*
Y139000D02*
D03*
X187300D02*
D03*
Y144000D02*
D03*
Y149000D02*
D03*
Y159000D02*
D03*
Y164000D02*
D03*
Y169000D02*
D03*
D44*
X345000Y186500D02*
D03*
Y176500D02*
D03*
Y196500D02*
D03*
Y206500D02*
D03*
Y226500D02*
D03*
Y216500D02*
D03*
X340000Y125500D02*
D03*
Y115500D02*
D03*
X330000Y125500D02*
D03*
Y115500D02*
D03*
X320000Y125500D02*
D03*
Y115500D02*
D03*
X310000Y125500D02*
D03*
Y115500D02*
D03*
X300000Y125500D02*
D03*
Y115500D02*
D03*
X290000Y125500D02*
D03*
Y115500D02*
D03*
X280000Y125500D02*
D03*
Y115500D02*
D03*
X270000Y125500D02*
D03*
Y115500D02*
D03*
X260000Y125500D02*
D03*
Y115500D02*
D03*
X250000Y125500D02*
D03*
Y115500D02*
D03*
X240000Y125500D02*
D03*
Y115500D02*
D03*
X230000Y125500D02*
D03*
Y115500D02*
D03*
X220000Y125500D02*
D03*
Y115500D02*
D03*
X210000Y125500D02*
D03*
Y115500D02*
D03*
X200000Y125500D02*
D03*
Y115500D02*
D03*
X190000Y125500D02*
D03*
Y115500D02*
D03*
X180000Y125500D02*
D03*
Y115500D02*
D03*
X170000Y125500D02*
D03*
D45*
X345000Y236500D02*
D03*
D46*
X350000Y150000D02*
D03*
X170000Y255000D02*
D03*
D47*
Y115500D02*
D03*
D48*
X210000Y193500D02*
D03*
X317000Y146000D02*
D03*
X244500Y193000D02*
D03*
X293500Y137500D02*
D03*
X300215Y149990D02*
D03*
X320000Y232500D02*
D03*
X236500Y193000D02*
D03*
X214500Y179000D02*
D03*
X268500Y238500D02*
D03*
X275000Y209000D02*
D03*
X294500Y240000D02*
D03*
X263000Y219500D02*
D03*
X248500Y204000D02*
D03*
X310500Y167500D02*
D03*
X267500Y168500D02*
D03*
X319000Y167500D02*
D03*
X172500Y149000D02*
D03*
X257836Y234586D02*
D03*
X249748Y163500D02*
D03*
X305500Y139500D02*
D03*
X319000Y150500D02*
D03*
X316721Y154251D02*
D03*
M02*
