G04*
G04 #@! TF.GenerationSoftware,Altium Limited,Altium Designer,21.2.2 (38)*
G04*
G04 Layer_Color=16711935*
%FSLAX25Y25*%
%MOIN*%
G70*
G04*
G04 #@! TF.SameCoordinates,C3B877AE-1357-438A-BEA6-5EF708E32FCF*
G04*
G04*
G04 #@! TF.FilePolarity,Negative*
G04*
G01*
G75*
%ADD39C,0.06706*%
%ADD40R,0.06706X0.06706*%
%ADD41C,0.24422*%
%ADD42R,0.06706X0.06706*%
%ADD43C,0.03359*%
D39*
X345000Y186500D02*
D03*
Y176500D02*
D03*
Y196500D02*
D03*
Y206500D02*
D03*
Y226500D02*
D03*
Y216500D02*
D03*
X340000Y125500D02*
D03*
Y115500D02*
D03*
X330000Y125500D02*
D03*
Y115500D02*
D03*
X320000Y125500D02*
D03*
Y115500D02*
D03*
X310000Y125500D02*
D03*
Y115500D02*
D03*
X300000Y125500D02*
D03*
Y115500D02*
D03*
X290000Y125500D02*
D03*
Y115500D02*
D03*
X280000Y125500D02*
D03*
Y115500D02*
D03*
X270000Y125500D02*
D03*
Y115500D02*
D03*
X260000Y125500D02*
D03*
Y115500D02*
D03*
X250000Y125500D02*
D03*
Y115500D02*
D03*
X240000Y125500D02*
D03*
Y115500D02*
D03*
X230000Y125500D02*
D03*
Y115500D02*
D03*
X220000Y125500D02*
D03*
Y115500D02*
D03*
X210000Y125500D02*
D03*
Y115500D02*
D03*
X200000Y125500D02*
D03*
Y115500D02*
D03*
X190000Y125500D02*
D03*
Y115500D02*
D03*
X180000Y125500D02*
D03*
Y115500D02*
D03*
X170000Y125500D02*
D03*
D40*
X345000Y236500D02*
D03*
D41*
X350000Y150000D02*
D03*
X170000Y255000D02*
D03*
D42*
Y115500D02*
D03*
D43*
X210000Y193500D02*
D03*
X317000Y146000D02*
D03*
X244500Y193000D02*
D03*
X293500Y137500D02*
D03*
X300215Y149990D02*
D03*
X320000Y232500D02*
D03*
X236500Y193000D02*
D03*
X214500Y179000D02*
D03*
X268500Y238500D02*
D03*
X275000Y209000D02*
D03*
X294500Y240000D02*
D03*
X263000Y219500D02*
D03*
X248500Y204000D02*
D03*
X310500Y167500D02*
D03*
X267500Y168500D02*
D03*
X319000Y167500D02*
D03*
X172500Y149000D02*
D03*
X257836Y234586D02*
D03*
X249748Y163500D02*
D03*
X305500Y139500D02*
D03*
X319000Y150500D02*
D03*
X316721Y154251D02*
D03*
M02*
