G04*
G04 #@! TF.GenerationSoftware,Altium Limited,Altium Designer,21.2.2 (38)*
G04*
G04 Layer_Physical_Order=2*
G04 Layer_Color=16711680*
%FSLAX25Y25*%
%MOIN*%
G70*
G04*
G04 #@! TF.SameCoordinates,9900035C-DF53-466D-9157-F39D2BD444FF*
G04*
G04*
G04 #@! TF.FilePolarity,Positive*
G04*
G01*
G75*
%ADD13C,0.01000*%
%ADD45C,0.05906*%
%ADD46R,0.05906X0.05906*%
%ADD47C,0.23622*%
%ADD48R,0.05906X0.05906*%
%ADD49C,0.02559*%
G36*
X362500Y154604D02*
X362000Y154525D01*
X361872Y154918D01*
X360957Y156714D01*
X359772Y158346D01*
X358346Y159772D01*
X356714Y160957D01*
X354918Y161872D01*
X353402Y162365D01*
X353381Y162898D01*
X353791Y163067D01*
X354433Y163709D01*
X354760Y164500D01*
X350240D01*
X350568Y163709D01*
X350965Y163311D01*
X350758Y162811D01*
X350500D01*
Y150000D01*
Y137189D01*
X350758D01*
X350965Y136689D01*
X350568Y136291D01*
X350240Y135500D01*
X354760D01*
X354433Y136291D01*
X353791Y136933D01*
X353381Y137102D01*
X353402Y137635D01*
X354918Y138128D01*
X356714Y139043D01*
X358346Y140228D01*
X359772Y141654D01*
X360957Y143286D01*
X361872Y145082D01*
X362000Y145475D01*
X362500Y145396D01*
Y110000D01*
X157500D01*
Y250396D01*
X158000Y250475D01*
X158128Y250082D01*
X159043Y248286D01*
X160228Y246654D01*
X161654Y245228D01*
X163286Y244043D01*
X165082Y243128D01*
X167000Y242504D01*
X168992Y242189D01*
X169500D01*
Y255000D01*
X170000D01*
Y255500D01*
X182811D01*
Y256008D01*
X182496Y258000D01*
X181872Y259918D01*
X180957Y261714D01*
X179772Y263346D01*
X178346Y264772D01*
X176714Y265957D01*
X174918Y266872D01*
X174525Y267000D01*
X174604Y267500D01*
X362500D01*
Y154604D01*
D02*
G37*
%LPC*%
G36*
X353000Y257260D02*
Y255500D01*
X354760D01*
X354433Y256291D01*
X353791Y256932D01*
X353000Y257260D01*
D02*
G37*
G36*
X352000D02*
X351209Y256932D01*
X350568Y256291D01*
X350240Y255500D01*
X352000D01*
Y257260D01*
D02*
G37*
G36*
X338000D02*
Y255500D01*
X339760D01*
X339433Y256291D01*
X338791Y256932D01*
X338000Y257260D01*
D02*
G37*
G36*
X337000D02*
X336209Y256932D01*
X335567Y256291D01*
X335240Y255500D01*
X337000D01*
Y257260D01*
D02*
G37*
G36*
X323000D02*
Y255500D01*
X324760D01*
X324432Y256291D01*
X323791Y256932D01*
X323000Y257260D01*
D02*
G37*
G36*
X322000D02*
X321209Y256932D01*
X320567Y256291D01*
X320240Y255500D01*
X322000D01*
Y257260D01*
D02*
G37*
G36*
X308000D02*
Y255500D01*
X309760D01*
X309433Y256291D01*
X308791Y256932D01*
X308000Y257260D01*
D02*
G37*
G36*
X307000D02*
X306209Y256932D01*
X305568Y256291D01*
X305240Y255500D01*
X307000D01*
Y257260D01*
D02*
G37*
G36*
X293000D02*
Y255500D01*
X294760D01*
X294432Y256291D01*
X293791Y256932D01*
X293000Y257260D01*
D02*
G37*
G36*
X292000D02*
X291209Y256932D01*
X290567Y256291D01*
X290240Y255500D01*
X292000D01*
Y257260D01*
D02*
G37*
G36*
X278000D02*
Y255500D01*
X279760D01*
X279433Y256291D01*
X278791Y256932D01*
X278000Y257260D01*
D02*
G37*
G36*
X277000D02*
X276209Y256932D01*
X275568Y256291D01*
X275240Y255500D01*
X277000D01*
Y257260D01*
D02*
G37*
G36*
X263000D02*
Y255500D01*
X264760D01*
X264433Y256291D01*
X263791Y256932D01*
X263000Y257260D01*
D02*
G37*
G36*
X262000D02*
X261209Y256932D01*
X260567Y256291D01*
X260240Y255500D01*
X262000D01*
Y257260D01*
D02*
G37*
G36*
X248000D02*
Y255500D01*
X249760D01*
X249432Y256291D01*
X248791Y256932D01*
X248000Y257260D01*
D02*
G37*
G36*
X247000D02*
X246209Y256932D01*
X245567Y256291D01*
X245240Y255500D01*
X247000D01*
Y257260D01*
D02*
G37*
G36*
X233000D02*
Y255500D01*
X234760D01*
X234433Y256291D01*
X233791Y256932D01*
X233000Y257260D01*
D02*
G37*
G36*
X232000D02*
X231209Y256932D01*
X230568Y256291D01*
X230240Y255500D01*
X232000D01*
Y257260D01*
D02*
G37*
G36*
X218000D02*
Y255500D01*
X219760D01*
X219432Y256291D01*
X218791Y256932D01*
X218000Y257260D01*
D02*
G37*
G36*
X217000D02*
X216209Y256932D01*
X215567Y256291D01*
X215240Y255500D01*
X217000D01*
Y257260D01*
D02*
G37*
G36*
X203000D02*
Y255500D01*
X204760D01*
X204433Y256291D01*
X203791Y256932D01*
X203000Y257260D01*
D02*
G37*
G36*
X202000D02*
X201209Y256932D01*
X200568Y256291D01*
X200240Y255500D01*
X202000D01*
Y257260D01*
D02*
G37*
G36*
X188000D02*
Y255500D01*
X189760D01*
X189433Y256291D01*
X188791Y256932D01*
X188000Y257260D01*
D02*
G37*
G36*
X187000D02*
X186209Y256932D01*
X185567Y256291D01*
X185240Y255500D01*
X187000D01*
Y257260D01*
D02*
G37*
G36*
X354760Y254500D02*
X353000D01*
Y252740D01*
X353791Y253067D01*
X354433Y253709D01*
X354760Y254500D01*
D02*
G37*
G36*
X352000D02*
X350240D01*
X350568Y253709D01*
X351209Y253067D01*
X352000Y252740D01*
Y254500D01*
D02*
G37*
G36*
X339760D02*
X338000D01*
Y252740D01*
X338791Y253067D01*
X339433Y253709D01*
X339760Y254500D01*
D02*
G37*
G36*
X337000D02*
X335240D01*
X335567Y253709D01*
X336209Y253067D01*
X337000Y252740D01*
Y254500D01*
D02*
G37*
G36*
X324760D02*
X323000D01*
Y252740D01*
X323791Y253067D01*
X324432Y253709D01*
X324760Y254500D01*
D02*
G37*
G36*
X322000D02*
X320240D01*
X320567Y253709D01*
X321209Y253067D01*
X322000Y252740D01*
Y254500D01*
D02*
G37*
G36*
X309760D02*
X308000D01*
Y252740D01*
X308791Y253067D01*
X309433Y253709D01*
X309760Y254500D01*
D02*
G37*
G36*
X307000D02*
X305240D01*
X305568Y253709D01*
X306209Y253067D01*
X307000Y252740D01*
Y254500D01*
D02*
G37*
G36*
X294760D02*
X293000D01*
Y252740D01*
X293791Y253067D01*
X294432Y253709D01*
X294760Y254500D01*
D02*
G37*
G36*
X292000D02*
X290240D01*
X290567Y253709D01*
X291209Y253067D01*
X292000Y252740D01*
Y254500D01*
D02*
G37*
G36*
X279760D02*
X278000D01*
Y252740D01*
X278791Y253067D01*
X279433Y253709D01*
X279760Y254500D01*
D02*
G37*
G36*
X277000D02*
X275240D01*
X275568Y253709D01*
X276209Y253067D01*
X277000Y252740D01*
Y254500D01*
D02*
G37*
G36*
X264760D02*
X263000D01*
Y252740D01*
X263791Y253067D01*
X264433Y253709D01*
X264760Y254500D01*
D02*
G37*
G36*
X262000D02*
X260240D01*
X260567Y253709D01*
X261209Y253067D01*
X262000Y252740D01*
Y254500D01*
D02*
G37*
G36*
X249760D02*
X248000D01*
Y252740D01*
X248791Y253067D01*
X249432Y253709D01*
X249760Y254500D01*
D02*
G37*
G36*
X247000D02*
X245240D01*
X245567Y253709D01*
X246209Y253067D01*
X247000Y252740D01*
Y254500D01*
D02*
G37*
G36*
X234760D02*
X233000D01*
Y252740D01*
X233791Y253067D01*
X234433Y253709D01*
X234760Y254500D01*
D02*
G37*
G36*
X232000D02*
X230240D01*
X230568Y253709D01*
X231209Y253067D01*
X232000Y252740D01*
Y254500D01*
D02*
G37*
G36*
X219760D02*
X218000D01*
Y252740D01*
X218791Y253067D01*
X219432Y253709D01*
X219760Y254500D01*
D02*
G37*
G36*
X217000D02*
X215240D01*
X215567Y253709D01*
X216209Y253067D01*
X217000Y252740D01*
Y254500D01*
D02*
G37*
G36*
X204760D02*
X203000D01*
Y252740D01*
X203791Y253067D01*
X204433Y253709D01*
X204760Y254500D01*
D02*
G37*
G36*
X202000D02*
X200240D01*
X200568Y253709D01*
X201209Y253067D01*
X202000Y252740D01*
Y254500D01*
D02*
G37*
G36*
X189760D02*
X188000D01*
Y252740D01*
X188791Y253067D01*
X189433Y253709D01*
X189760Y254500D01*
D02*
G37*
G36*
X187000D02*
X185240D01*
X185567Y253709D01*
X186209Y253067D01*
X187000Y252740D01*
Y254500D01*
D02*
G37*
G36*
X182811D02*
X170500D01*
Y242189D01*
X171008D01*
X173000Y242504D01*
X174918Y243128D01*
X176714Y244043D01*
X178346Y245228D01*
X179772Y246654D01*
X180957Y248286D01*
X181872Y250082D01*
X182496Y252000D01*
X182811Y253992D01*
Y254500D01*
D02*
G37*
G36*
X255500Y242260D02*
Y240500D01*
X257260D01*
X256932Y241291D01*
X256291Y241933D01*
X255500Y242260D01*
D02*
G37*
G36*
X254500D02*
X253709Y241933D01*
X253067Y241291D01*
X252740Y240500D01*
X254500D01*
Y242260D01*
D02*
G37*
G36*
X240500D02*
Y240500D01*
X242260D01*
X241933Y241291D01*
X241291Y241933D01*
X240500Y242260D01*
D02*
G37*
G36*
X239500D02*
X238709Y241933D01*
X238068Y241291D01*
X237740Y240500D01*
X239500D01*
Y242260D01*
D02*
G37*
G36*
X225500D02*
Y240500D01*
X227260D01*
X226933Y241291D01*
X226291Y241933D01*
X225500Y242260D01*
D02*
G37*
G36*
X224500D02*
X223709Y241933D01*
X223067Y241291D01*
X222740Y240500D01*
X224500D01*
Y242260D01*
D02*
G37*
G36*
X210500D02*
Y240500D01*
X212260D01*
X211932Y241291D01*
X211291Y241933D01*
X210500Y242260D01*
D02*
G37*
G36*
X209500D02*
X208709Y241933D01*
X208067Y241291D01*
X207740Y240500D01*
X209500D01*
Y242260D01*
D02*
G37*
G36*
X195500D02*
Y240500D01*
X197260D01*
X196932Y241291D01*
X196291Y241933D01*
X195500Y242260D01*
D02*
G37*
G36*
X194500D02*
X193709Y241933D01*
X193068Y241291D01*
X192740Y240500D01*
X194500D01*
Y242260D01*
D02*
G37*
G36*
X180500D02*
Y240500D01*
X182260D01*
X181932Y241291D01*
X181291Y241933D01*
X180500Y242260D01*
D02*
G37*
G36*
X179500D02*
X178709Y241933D01*
X178068Y241291D01*
X177740Y240500D01*
X179500D01*
Y242260D01*
D02*
G37*
G36*
X165500D02*
Y240500D01*
X167260D01*
X166932Y241291D01*
X166291Y241933D01*
X165500Y242260D01*
D02*
G37*
G36*
X164500D02*
X163709Y241933D01*
X163067Y241291D01*
X162740Y240500D01*
X164500D01*
Y242260D01*
D02*
G37*
G36*
X257260Y239500D02*
X255500D01*
Y237740D01*
X256291Y238068D01*
X256932Y238709D01*
X257260Y239500D01*
D02*
G37*
G36*
X254500D02*
X252740D01*
X253067Y238709D01*
X253709Y238068D01*
X254500Y237740D01*
Y239500D01*
D02*
G37*
G36*
X242260D02*
X240500D01*
Y237740D01*
X241291Y238068D01*
X241933Y238709D01*
X242260Y239500D01*
D02*
G37*
G36*
X239500D02*
X237740D01*
X238068Y238709D01*
X238709Y238068D01*
X239500Y237740D01*
Y239500D01*
D02*
G37*
G36*
X227260D02*
X225500D01*
Y237740D01*
X226291Y238068D01*
X226933Y238709D01*
X227260Y239500D01*
D02*
G37*
G36*
X224500D02*
X222740D01*
X223067Y238709D01*
X223709Y238068D01*
X224500Y237740D01*
Y239500D01*
D02*
G37*
G36*
X212260D02*
X210500D01*
Y237740D01*
X211291Y238068D01*
X211932Y238709D01*
X212260Y239500D01*
D02*
G37*
G36*
X209500D02*
X207740D01*
X208067Y238709D01*
X208709Y238068D01*
X209500Y237740D01*
Y239500D01*
D02*
G37*
G36*
X197260D02*
X195500D01*
Y237740D01*
X196291Y238068D01*
X196932Y238709D01*
X197260Y239500D01*
D02*
G37*
G36*
X194500D02*
X192740D01*
X193068Y238709D01*
X193709Y238068D01*
X194500Y237740D01*
Y239500D01*
D02*
G37*
G36*
X182260D02*
X180500D01*
Y237740D01*
X181291Y238068D01*
X181932Y238709D01*
X182260Y239500D01*
D02*
G37*
G36*
X179500D02*
X177740D01*
X178068Y238709D01*
X178709Y238068D01*
X179500Y237740D01*
Y239500D01*
D02*
G37*
G36*
X167260D02*
X165500D01*
Y237740D01*
X166291Y238068D01*
X166932Y238709D01*
X167260Y239500D01*
D02*
G37*
G36*
X164500D02*
X162740D01*
X163067Y238709D01*
X163709Y238068D01*
X164500Y237740D01*
Y239500D01*
D02*
G37*
G36*
X348953Y240453D02*
X341047D01*
Y232547D01*
X348953D01*
Y240453D01*
D02*
G37*
G36*
X353000Y227260D02*
Y225500D01*
X354760D01*
X354433Y226291D01*
X353791Y226933D01*
X353000Y227260D01*
D02*
G37*
G36*
X352000D02*
X351209Y226933D01*
X350568Y226291D01*
X350240Y225500D01*
X352000D01*
Y227260D01*
D02*
G37*
G36*
X233000D02*
Y225500D01*
X234760D01*
X234433Y226291D01*
X233791Y226933D01*
X233000Y227260D01*
D02*
G37*
G36*
X232000D02*
X231209Y226933D01*
X230568Y226291D01*
X230240Y225500D01*
X232000D01*
Y227260D01*
D02*
G37*
G36*
X188000D02*
Y225500D01*
X189760D01*
X189433Y226291D01*
X188791Y226933D01*
X188000Y227260D01*
D02*
G37*
G36*
X187000D02*
X186209Y226933D01*
X185567Y226291D01*
X185240Y225500D01*
X187000D01*
Y227260D01*
D02*
G37*
G36*
X173000D02*
Y225500D01*
X174760D01*
X174433Y226291D01*
X173791Y226933D01*
X173000Y227260D01*
D02*
G37*
G36*
X172000D02*
X171209Y226933D01*
X170568Y226291D01*
X170240Y225500D01*
X172000D01*
Y227260D01*
D02*
G37*
G36*
X354760Y224500D02*
X353000D01*
Y222740D01*
X353791Y223067D01*
X354433Y223709D01*
X354760Y224500D01*
D02*
G37*
G36*
X352000D02*
X350240D01*
X350568Y223709D01*
X351209Y223067D01*
X352000Y222740D01*
Y224500D01*
D02*
G37*
G36*
X234760D02*
X233000D01*
Y222740D01*
X233791Y223067D01*
X234433Y223709D01*
X234760Y224500D01*
D02*
G37*
G36*
X232000D02*
X230240D01*
X230568Y223709D01*
X231209Y223067D01*
X232000Y222740D01*
Y224500D01*
D02*
G37*
G36*
X189760D02*
X188000D01*
Y222740D01*
X188791Y223067D01*
X189433Y223709D01*
X189760Y224500D01*
D02*
G37*
G36*
X187000D02*
X185240D01*
X185567Y223709D01*
X186209Y223067D01*
X187000Y222740D01*
Y224500D01*
D02*
G37*
G36*
X174760D02*
X173000D01*
Y222740D01*
X173791Y223067D01*
X174433Y223709D01*
X174760Y224500D01*
D02*
G37*
G36*
X172000D02*
X170240D01*
X170568Y223709D01*
X171209Y223067D01*
X172000Y222740D01*
Y224500D01*
D02*
G37*
G36*
X345520Y230453D02*
X344480D01*
X343474Y230183D01*
X342573Y229663D01*
X341837Y228927D01*
X341317Y228026D01*
X341047Y227020D01*
Y225980D01*
X341317Y224974D01*
X341837Y224073D01*
X342573Y223337D01*
X343474Y222817D01*
X344480Y222547D01*
X345520D01*
X346526Y222817D01*
X347427Y223337D01*
X348163Y224073D01*
X348683Y224974D01*
X348953Y225980D01*
Y227020D01*
X348683Y228026D01*
X348163Y228927D01*
X347427Y229663D01*
X346526Y230183D01*
X345520Y230453D01*
D02*
G37*
G36*
X294953Y242280D02*
X294047D01*
X293209Y241933D01*
X292567Y241291D01*
X292220Y240453D01*
Y239547D01*
X292567Y238709D01*
X293209Y238068D01*
X294047Y237720D01*
X294953D01*
X295791Y238068D01*
X296194Y238471D01*
X320866D01*
X341316Y218022D01*
X341047Y217020D01*
Y215980D01*
X341317Y214974D01*
X341837Y214073D01*
X342573Y213337D01*
X343474Y212817D01*
X344480Y212547D01*
X345520D01*
X346526Y212817D01*
X347427Y213337D01*
X348163Y214073D01*
X348683Y214974D01*
X348953Y215980D01*
Y217020D01*
X348683Y218026D01*
X348163Y218927D01*
X347427Y219663D01*
X346526Y220183D01*
X345520Y220453D01*
X344480D01*
X343478Y220184D01*
X322581Y241081D01*
X322085Y241413D01*
X321500Y241529D01*
X296194D01*
X295791Y241933D01*
X294953Y242280D01*
D02*
G37*
G36*
X330500Y212260D02*
Y210500D01*
X332260D01*
X331932Y211291D01*
X331291Y211932D01*
X330500Y212260D01*
D02*
G37*
G36*
X329500D02*
X328709Y211932D01*
X328067Y211291D01*
X327740Y210500D01*
X329500D01*
Y212260D01*
D02*
G37*
G36*
X300500D02*
Y210500D01*
X302260D01*
X301933Y211291D01*
X301291Y211932D01*
X300500Y212260D01*
D02*
G37*
G36*
X299500D02*
X298709Y211932D01*
X298067Y211291D01*
X297740Y210500D01*
X299500D01*
Y212260D01*
D02*
G37*
G36*
X285500D02*
Y210500D01*
X287260D01*
X286932Y211291D01*
X286291Y211932D01*
X285500Y212260D01*
D02*
G37*
G36*
X284500D02*
X283709Y211932D01*
X283067Y211291D01*
X282740Y210500D01*
X284500D01*
Y212260D01*
D02*
G37*
G36*
X225500D02*
Y210500D01*
X227260D01*
X226933Y211291D01*
X226291Y211932D01*
X225500Y212260D01*
D02*
G37*
G36*
X224500D02*
X223709Y211932D01*
X223067Y211291D01*
X222740Y210500D01*
X224500D01*
Y212260D01*
D02*
G37*
G36*
X210500D02*
Y210500D01*
X212260D01*
X211932Y211291D01*
X211291Y211932D01*
X210500Y212260D01*
D02*
G37*
G36*
X209500D02*
X208709Y211932D01*
X208067Y211291D01*
X207740Y210500D01*
X209500D01*
Y212260D01*
D02*
G37*
G36*
X195500D02*
Y210500D01*
X197260D01*
X196932Y211291D01*
X196291Y211932D01*
X195500Y212260D01*
D02*
G37*
G36*
X194500D02*
X193709Y211932D01*
X193068Y211291D01*
X192740Y210500D01*
X194500D01*
Y212260D01*
D02*
G37*
G36*
X180500D02*
Y210500D01*
X182260D01*
X181932Y211291D01*
X181291Y211932D01*
X180500Y212260D01*
D02*
G37*
G36*
X179500D02*
X178709Y211932D01*
X178068Y211291D01*
X177740Y210500D01*
X179500D01*
Y212260D01*
D02*
G37*
G36*
X165500D02*
Y210500D01*
X167260D01*
X166932Y211291D01*
X166291Y211932D01*
X165500Y212260D01*
D02*
G37*
G36*
X164500D02*
X163709Y211932D01*
X163067Y211291D01*
X162740Y210500D01*
X164500D01*
Y212260D01*
D02*
G37*
G36*
X332260Y209500D02*
X330500D01*
Y207740D01*
X331291Y208067D01*
X331932Y208709D01*
X332260Y209500D01*
D02*
G37*
G36*
X329500D02*
X327740D01*
X328067Y208709D01*
X328709Y208067D01*
X329500Y207740D01*
Y209500D01*
D02*
G37*
G36*
X302260D02*
X300500D01*
Y207740D01*
X301291Y208067D01*
X301933Y208709D01*
X302260Y209500D01*
D02*
G37*
G36*
X299500D02*
X297740D01*
X298067Y208709D01*
X298709Y208067D01*
X299500Y207740D01*
Y209500D01*
D02*
G37*
G36*
X287260D02*
X285500D01*
Y207740D01*
X286291Y208067D01*
X286932Y208709D01*
X287260Y209500D01*
D02*
G37*
G36*
X284500D02*
X282740D01*
X283067Y208709D01*
X283709Y208067D01*
X284500Y207740D01*
Y209500D01*
D02*
G37*
G36*
X227260D02*
X225500D01*
Y207740D01*
X226291Y208067D01*
X226933Y208709D01*
X227260Y209500D01*
D02*
G37*
G36*
X224500D02*
X222740D01*
X223067Y208709D01*
X223709Y208067D01*
X224500Y207740D01*
Y209500D01*
D02*
G37*
G36*
X212260D02*
X210500D01*
Y207740D01*
X211291Y208067D01*
X211932Y208709D01*
X212260Y209500D01*
D02*
G37*
G36*
X209500D02*
X207740D01*
X208067Y208709D01*
X208709Y208067D01*
X209500Y207740D01*
Y209500D01*
D02*
G37*
G36*
X197260D02*
X195500D01*
Y207740D01*
X196291Y208067D01*
X196932Y208709D01*
X197260Y209500D01*
D02*
G37*
G36*
X194500D02*
X192740D01*
X193068Y208709D01*
X193709Y208067D01*
X194500Y207740D01*
Y209500D01*
D02*
G37*
G36*
X182260D02*
X180500D01*
Y207740D01*
X181291Y208067D01*
X181932Y208709D01*
X182260Y209500D01*
D02*
G37*
G36*
X179500D02*
X177740D01*
X178068Y208709D01*
X178709Y208067D01*
X179500Y207740D01*
Y209500D01*
D02*
G37*
G36*
X167260D02*
X165500D01*
Y207740D01*
X166291Y208067D01*
X166932Y208709D01*
X167260Y209500D01*
D02*
G37*
G36*
X164500D02*
X162740D01*
X163067Y208709D01*
X163709Y208067D01*
X164500Y207740D01*
Y209500D01*
D02*
G37*
G36*
X268953Y240779D02*
X268047D01*
X267209Y240433D01*
X266567Y239791D01*
X266220Y238953D01*
Y238047D01*
X266567Y237209D01*
X266971Y236806D01*
Y228500D01*
X267087Y227915D01*
X267419Y227419D01*
X273471Y221367D01*
Y210694D01*
X273067Y210291D01*
X272721Y209453D01*
Y208547D01*
X273067Y207709D01*
X273709Y207067D01*
X274547Y206720D01*
X275453D01*
X276291Y207067D01*
X276933Y207709D01*
X277279Y208547D01*
Y209453D01*
X276933Y210291D01*
X276529Y210694D01*
Y222000D01*
X276413Y222585D01*
X276081Y223081D01*
X270029Y229134D01*
Y236806D01*
X270432Y237209D01*
X270779Y238047D01*
Y238953D01*
X270432Y239791D01*
X269791Y240433D01*
X268953Y240779D01*
D02*
G37*
G36*
X345520Y210453D02*
X344480D01*
X343474Y210183D01*
X342573Y209663D01*
X341837Y208927D01*
X341317Y208026D01*
X341047Y207020D01*
Y205980D01*
X341317Y204974D01*
X341837Y204073D01*
X342573Y203337D01*
X343474Y202817D01*
X344480Y202547D01*
X345520D01*
X346526Y202817D01*
X347427Y203337D01*
X348163Y204073D01*
X348683Y204974D01*
X348953Y205980D01*
Y207020D01*
X348683Y208026D01*
X348163Y208927D01*
X347427Y209663D01*
X346526Y210183D01*
X345520Y210453D01*
D02*
G37*
G36*
X248953Y206279D02*
X248047D01*
X247209Y205932D01*
X246812Y205535D01*
X227506D01*
X226921Y205419D01*
X226425Y205087D01*
X172617Y151279D01*
X172047D01*
X171209Y150933D01*
X170568Y150291D01*
X170220Y149453D01*
Y148547D01*
X170568Y147709D01*
X171209Y147067D01*
X172047Y146721D01*
X172953D01*
X173791Y147067D01*
X174433Y147709D01*
X174779Y148547D01*
Y149117D01*
X228139Y202477D01*
X246800D01*
X247209Y202067D01*
X248047Y201720D01*
X248953D01*
X249791Y202067D01*
X250432Y202709D01*
X250780Y203547D01*
Y204453D01*
X250432Y205291D01*
X249791Y205932D01*
X248953Y206279D01*
D02*
G37*
G36*
X353000Y197260D02*
Y195500D01*
X354760D01*
X354433Y196291D01*
X353791Y196932D01*
X353000Y197260D01*
D02*
G37*
G36*
X352000D02*
X351209Y196932D01*
X350568Y196291D01*
X350240Y195500D01*
X352000D01*
Y197260D01*
D02*
G37*
G36*
X308000D02*
Y195500D01*
X309760D01*
X309433Y196291D01*
X308791Y196932D01*
X308000Y197260D01*
D02*
G37*
G36*
X307000D02*
X306209Y196932D01*
X305568Y196291D01*
X305240Y195500D01*
X307000D01*
Y197260D01*
D02*
G37*
G36*
X293000D02*
Y195500D01*
X294760D01*
X294432Y196291D01*
X293791Y196932D01*
X293000Y197260D01*
D02*
G37*
G36*
X292000D02*
X291209Y196932D01*
X290567Y196291D01*
X290240Y195500D01*
X292000D01*
Y197260D01*
D02*
G37*
G36*
X278000D02*
Y195500D01*
X279760D01*
X279433Y196291D01*
X278791Y196932D01*
X278000Y197260D01*
D02*
G37*
G36*
X277000D02*
X276209Y196932D01*
X275568Y196291D01*
X275240Y195500D01*
X277000D01*
Y197260D01*
D02*
G37*
G36*
X188000D02*
Y195500D01*
X189760D01*
X189433Y196291D01*
X188791Y196932D01*
X188000Y197260D01*
D02*
G37*
G36*
X187000D02*
X186209Y196932D01*
X185567Y196291D01*
X185240Y195500D01*
X187000D01*
Y197260D01*
D02*
G37*
G36*
X173000D02*
Y195500D01*
X174760D01*
X174433Y196291D01*
X173791Y196932D01*
X173000Y197260D01*
D02*
G37*
G36*
X172000D02*
X171209Y196932D01*
X170568Y196291D01*
X170240Y195500D01*
X172000D01*
Y197260D01*
D02*
G37*
G36*
X237000Y195260D02*
Y193500D01*
X238760D01*
X238433Y194291D01*
X237791Y194932D01*
X237000Y195260D01*
D02*
G37*
G36*
X354760Y194500D02*
X353000D01*
Y192740D01*
X353791Y193068D01*
X354433Y193709D01*
X354760Y194500D01*
D02*
G37*
G36*
X352000D02*
X350240D01*
X350568Y193709D01*
X351209Y193068D01*
X352000Y192740D01*
Y194500D01*
D02*
G37*
G36*
X309760D02*
X308000D01*
Y192740D01*
X308791Y193068D01*
X309433Y193709D01*
X309760Y194500D01*
D02*
G37*
G36*
X307000D02*
X305240D01*
X305568Y193709D01*
X306209Y193068D01*
X307000Y192740D01*
Y194500D01*
D02*
G37*
G36*
X294760D02*
X293000D01*
Y192740D01*
X293791Y193068D01*
X294432Y193709D01*
X294760Y194500D01*
D02*
G37*
G36*
X292000D02*
X290240D01*
X290567Y193709D01*
X291209Y193068D01*
X292000Y192740D01*
Y194500D01*
D02*
G37*
G36*
X279760D02*
X278000D01*
Y192740D01*
X278791Y193068D01*
X279433Y193709D01*
X279760Y194500D01*
D02*
G37*
G36*
X277000D02*
X275240D01*
X275568Y193709D01*
X276209Y193068D01*
X277000Y192740D01*
Y194500D01*
D02*
G37*
G36*
X189760D02*
X188000D01*
Y192740D01*
X188791Y193068D01*
X189433Y193709D01*
X189760Y194500D01*
D02*
G37*
G36*
X187000D02*
X185240D01*
X185567Y193709D01*
X186209Y193068D01*
X187000Y192740D01*
Y194500D01*
D02*
G37*
G36*
X174760D02*
X173000D01*
Y192740D01*
X173791Y193068D01*
X174433Y193709D01*
X174760Y194500D01*
D02*
G37*
G36*
X172000D02*
X170240D01*
X170568Y193709D01*
X171209Y193068D01*
X172000Y192740D01*
Y194500D01*
D02*
G37*
G36*
X345520Y200453D02*
X344480D01*
X343474Y200183D01*
X342573Y199663D01*
X341837Y198927D01*
X341317Y198026D01*
X341047Y197020D01*
Y195980D01*
X341317Y194974D01*
X341837Y194073D01*
X342573Y193337D01*
X343474Y192817D01*
X344480Y192547D01*
X345520D01*
X346526Y192817D01*
X347427Y193337D01*
X348163Y194073D01*
X348683Y194974D01*
X348953Y195980D01*
Y197020D01*
X348683Y198026D01*
X348163Y198927D01*
X347427Y199663D01*
X346526Y200183D01*
X345520Y200453D01*
D02*
G37*
G36*
X238760Y192500D02*
X237000D01*
Y190740D01*
X237791Y191068D01*
X238433Y191709D01*
X238760Y192500D01*
D02*
G37*
G36*
X236000Y195260D02*
X235209Y194932D01*
X234806Y194529D01*
X228500D01*
X227915Y194413D01*
X227419Y194081D01*
X215000Y181663D01*
Y179500D01*
X217163D01*
X229134Y191471D01*
X234806D01*
X235209Y191068D01*
X236000Y190740D01*
Y193000D01*
Y195260D01*
D02*
G37*
G36*
X258289Y236865D02*
X257382D01*
X256545Y236518D01*
X255904Y235877D01*
X255556Y235039D01*
Y234133D01*
X255904Y233295D01*
X256307Y232892D01*
Y228595D01*
Y206469D01*
X250901Y201063D01*
X250482Y200980D01*
X249986Y200649D01*
X244617Y195280D01*
X244047D01*
X243209Y194932D01*
X242567Y194291D01*
X242220Y193453D01*
Y192547D01*
X242567Y191709D01*
X243209Y191068D01*
X244047Y190720D01*
X244953D01*
X245791Y191068D01*
X246432Y191709D01*
X246779Y192547D01*
Y193117D01*
X251734Y198071D01*
X252152Y198154D01*
X252649Y198486D01*
X258917Y204754D01*
X259249Y205251D01*
X259365Y205836D01*
Y224249D01*
X259827Y224441D01*
X262526Y221742D01*
X262359Y221202D01*
X261709Y220933D01*
X261068Y220291D01*
X260720Y219453D01*
Y218547D01*
X261068Y217709D01*
X261471Y217306D01*
Y191133D01*
X236010Y165672D01*
X235420Y165790D01*
X235212Y166291D01*
X234571Y166932D01*
X233780Y167260D01*
Y165000D01*
X233279D01*
Y164500D01*
X231019D01*
X231347Y163709D01*
X231988Y163067D01*
X232490Y162860D01*
X232607Y162270D01*
X208919Y138581D01*
X208587Y138085D01*
X208471Y137500D01*
Y129181D01*
X207573Y128663D01*
X206837Y127927D01*
X206317Y127026D01*
X206047Y126020D01*
Y124980D01*
X206317Y123974D01*
X206837Y123073D01*
X207573Y122337D01*
X208474Y121817D01*
X209480Y121547D01*
X210520D01*
X211526Y121817D01*
X212427Y122337D01*
X213163Y123073D01*
X213683Y123974D01*
X213953Y124980D01*
Y126020D01*
X213683Y127026D01*
X213163Y127927D01*
X212427Y128663D01*
X211529Y129181D01*
Y136866D01*
X264081Y189419D01*
X264413Y189915D01*
X264529Y190500D01*
Y217306D01*
X264932Y217709D01*
X265145Y218222D01*
X265664Y218364D01*
X265971Y218116D01*
Y170194D01*
X265567Y169791D01*
X265220Y168953D01*
Y168047D01*
X265567Y167209D01*
X266209Y166568D01*
X267047Y166220D01*
X267953D01*
X268032Y166253D01*
X268280Y166087D01*
X268865Y165971D01*
X308806D01*
X308971Y165806D01*
Y155133D01*
X302797Y148959D01*
X302373Y149243D01*
X302495Y149537D01*
Y150444D01*
X302148Y151282D01*
X301506Y151923D01*
X300669Y152270D01*
X299762D01*
X298924Y151923D01*
X298521Y151520D01*
X263891D01*
X252028Y163383D01*
Y163953D01*
X251680Y164791D01*
X251039Y165433D01*
X250202Y165779D01*
X249295D01*
X248457Y165433D01*
X247815Y164791D01*
X247468Y163953D01*
Y163047D01*
X247815Y162209D01*
X248457Y161567D01*
X249295Y161221D01*
X249865D01*
X262176Y148909D01*
X262672Y148577D01*
X263258Y148461D01*
X298521D01*
X298924Y148058D01*
X299762Y147711D01*
X300669D01*
X300963Y147833D01*
X301246Y147409D01*
X293617Y139779D01*
X293047D01*
X292209Y139433D01*
X291567Y138791D01*
X291220Y137953D01*
Y137047D01*
X291567Y136209D01*
X292209Y135567D01*
X293047Y135221D01*
X293953D01*
X294791Y135567D01*
X295432Y136209D01*
X295779Y137047D01*
Y137617D01*
X311581Y153419D01*
X311913Y153915D01*
X312029Y154500D01*
Y165806D01*
X312433Y166209D01*
X312779Y167047D01*
Y167617D01*
X328735Y183572D01*
X342274D01*
X342327Y183583D01*
X342573Y183337D01*
X343474Y182817D01*
X344480Y182547D01*
X345520D01*
X346526Y182817D01*
X347427Y183337D01*
X348163Y184073D01*
X348683Y184974D01*
X348953Y185980D01*
Y187020D01*
X348683Y188026D01*
X348163Y188927D01*
X347427Y189663D01*
X346526Y190183D01*
X345520Y190453D01*
X344480D01*
X343478Y190184D01*
X321529Y212134D01*
Y230806D01*
X321933Y231209D01*
X322280Y232047D01*
Y232953D01*
X321933Y233791D01*
X321291Y234433D01*
X320453Y234780D01*
X319547D01*
X318709Y234433D01*
X318068Y233791D01*
X317721Y232953D01*
Y232047D01*
X318068Y231209D01*
X318471Y230806D01*
Y211500D01*
X318587Y210915D01*
X318919Y210419D01*
X341316Y188022D01*
X341047Y187020D01*
Y186631D01*
X328101D01*
X327516Y186514D01*
X327020Y186183D01*
X310617Y169780D01*
X310047D01*
X309209Y169432D01*
X308806Y169029D01*
X269748D01*
X269432Y169791D01*
X269029Y170194D01*
Y218931D01*
X268913Y219516D01*
X268581Y220012D01*
X259365Y229228D01*
Y232892D01*
X259768Y233295D01*
X260116Y234133D01*
Y235039D01*
X259768Y235877D01*
X259127Y236518D01*
X258289Y236865D01*
D02*
G37*
G36*
X315500Y182260D02*
Y180500D01*
X317260D01*
X316933Y181291D01*
X316291Y181932D01*
X315500Y182260D01*
D02*
G37*
G36*
X314500D02*
X313709Y181932D01*
X313068Y181291D01*
X312740Y180500D01*
X314500D01*
Y182260D01*
D02*
G37*
G36*
X165500D02*
Y180500D01*
X167260D01*
X166932Y181291D01*
X166291Y181932D01*
X165500Y182260D01*
D02*
G37*
G36*
X164500D02*
X163709Y181932D01*
X163067Y181291D01*
X162740Y180500D01*
X164500D01*
Y182260D01*
D02*
G37*
G36*
X214000Y181260D02*
X213209Y180932D01*
X212567Y180291D01*
X212240Y179500D01*
X214000D01*
Y181260D01*
D02*
G37*
G36*
X317260Y179500D02*
X315500D01*
Y177740D01*
X316291Y178068D01*
X316933Y178709D01*
X317260Y179500D01*
D02*
G37*
G36*
X314500D02*
X312740D01*
X313068Y178709D01*
X313709Y178068D01*
X314500Y177740D01*
Y179500D01*
D02*
G37*
G36*
X167260D02*
X165500D01*
Y177740D01*
X166291Y178068D01*
X166932Y178709D01*
X167260Y179500D01*
D02*
G37*
G36*
X164500D02*
X162740D01*
X163067Y178709D01*
X163709Y178068D01*
X164500Y177740D01*
Y179500D01*
D02*
G37*
G36*
X345520Y180453D02*
X345500D01*
Y177000D01*
X348953D01*
Y177020D01*
X348683Y178026D01*
X348163Y178927D01*
X347427Y179663D01*
X346526Y180183D01*
X345520Y180453D01*
D02*
G37*
G36*
X344500D02*
X344480D01*
X343474Y180183D01*
X342573Y179663D01*
X341837Y178927D01*
X341317Y178026D01*
X341047Y177020D01*
Y177000D01*
X344500D01*
Y180453D01*
D02*
G37*
G36*
X216760Y178500D02*
X215000D01*
Y176740D01*
X215791Y177067D01*
X216432Y177709D01*
X216760Y178500D01*
D02*
G37*
G36*
X214000D02*
X212240D01*
X212567Y177709D01*
X213209Y177067D01*
X214000Y176740D01*
Y178500D01*
D02*
G37*
G36*
X348953Y176000D02*
X345500D01*
Y172547D01*
X345520D01*
X346526Y172817D01*
X347427Y173337D01*
X348163Y174073D01*
X348683Y174974D01*
X348953Y175980D01*
Y176000D01*
D02*
G37*
G36*
X344500D02*
X341047D01*
Y175980D01*
X341316Y174978D01*
X335367Y169029D01*
X320694D01*
X320291Y169432D01*
X319500Y169760D01*
Y167500D01*
Y165240D01*
X320291Y165568D01*
X320694Y165971D01*
X334985D01*
X335262Y165555D01*
X335240Y165500D01*
X339760D01*
X339433Y166291D01*
X338791Y166932D01*
X338446Y167076D01*
X338328Y167665D01*
X343478Y172816D01*
X344480Y172547D01*
X344500D01*
Y176000D01*
D02*
G37*
G36*
X318500Y169760D02*
X317709Y169432D01*
X317068Y168791D01*
X316740Y168000D01*
X318500D01*
Y169760D01*
D02*
G37*
G36*
X353000Y167260D02*
Y165500D01*
X354760D01*
X354433Y166291D01*
X353791Y166932D01*
X353000Y167260D01*
D02*
G37*
G36*
X352000D02*
X351209Y166932D01*
X350568Y166291D01*
X350240Y165500D01*
X352000D01*
Y167260D01*
D02*
G37*
G36*
X263000D02*
Y165500D01*
X264760D01*
X264433Y166291D01*
X263791Y166932D01*
X263000Y167260D01*
D02*
G37*
G36*
X262000D02*
X261209Y166932D01*
X260567Y166291D01*
X260240Y165500D01*
X262000D01*
Y167260D01*
D02*
G37*
G36*
X232780D02*
X231988Y166932D01*
X231347Y166291D01*
X231019Y165500D01*
X232780D01*
Y167260D01*
D02*
G37*
G36*
X318500Y167000D02*
X316740D01*
X317068Y166209D01*
X317709Y165568D01*
X318500Y165240D01*
Y167000D01*
D02*
G37*
G36*
X339760Y164500D02*
X338000D01*
Y162740D01*
X338791Y163067D01*
X339433Y163709D01*
X339760Y164500D01*
D02*
G37*
G36*
X337000D02*
X335240D01*
X335567Y163709D01*
X336209Y163067D01*
X337000Y162740D01*
Y164500D01*
D02*
G37*
G36*
X264760D02*
X263000D01*
Y162740D01*
X263791Y163067D01*
X264433Y163709D01*
X264760Y164500D01*
D02*
G37*
G36*
X262000D02*
X260240D01*
X260567Y163709D01*
X261209Y163067D01*
X262000Y162740D01*
Y164500D01*
D02*
G37*
G36*
X349500Y162811D02*
X348992D01*
X347000Y162496D01*
X345082Y161872D01*
X343286Y160957D01*
X341654Y159772D01*
X340228Y158346D01*
X339043Y156714D01*
X338128Y154918D01*
X337504Y153000D01*
X337189Y151008D01*
Y150500D01*
X349500D01*
Y162811D01*
D02*
G37*
G36*
Y149500D02*
X337189D01*
Y148992D01*
X337504Y147000D01*
X338128Y145082D01*
X339043Y143286D01*
X340228Y141654D01*
X341654Y140228D01*
X343286Y139043D01*
X345082Y138128D01*
X347000Y137504D01*
X348992Y137189D01*
X349500D01*
Y149500D01*
D02*
G37*
G36*
X218000Y137260D02*
Y135500D01*
X219760D01*
X219432Y136291D01*
X218791Y136933D01*
X218000Y137260D01*
D02*
G37*
G36*
X217000D02*
X216209Y136933D01*
X215567Y136291D01*
X215240Y135500D01*
X217000D01*
Y137260D01*
D02*
G37*
G36*
X354760Y134500D02*
X353000D01*
Y132740D01*
X353791Y133068D01*
X354433Y133709D01*
X354760Y134500D01*
D02*
G37*
G36*
X352000D02*
X350240D01*
X350568Y133709D01*
X351209Y133068D01*
X352000Y132740D01*
Y134500D01*
D02*
G37*
G36*
X219760D02*
X218000D01*
Y132740D01*
X218791Y133068D01*
X219432Y133709D01*
X219760Y134500D01*
D02*
G37*
G36*
X217000D02*
X215240D01*
X215567Y133709D01*
X216209Y133068D01*
X217000Y132740D01*
Y134500D01*
D02*
G37*
G36*
X317174Y156530D02*
X316267D01*
X315429Y156183D01*
X314788Y155542D01*
X314441Y154704D01*
Y153797D01*
X314788Y152960D01*
X315429Y152318D01*
X316267Y151971D01*
X316601D01*
X316935Y151471D01*
X316721Y150953D01*
Y150047D01*
X317068Y149209D01*
X317527Y148749D01*
X317290Y148280D01*
X316547D01*
X315709Y147933D01*
X315068Y147291D01*
X314721Y146453D01*
Y145547D01*
X314745Y145486D01*
X314466Y145207D01*
X314134Y144711D01*
X314018Y144125D01*
Y127446D01*
X313518Y127312D01*
X313163Y127927D01*
X312427Y128663D01*
X311526Y129183D01*
X310520Y129453D01*
X309480D01*
X308474Y129183D01*
X307573Y128663D01*
X307491Y128581D01*
X307029Y128773D01*
Y137806D01*
X307433Y138209D01*
X307780Y139047D01*
Y139953D01*
X307433Y140791D01*
X306791Y141432D01*
X305953Y141779D01*
X305047D01*
X304209Y141432D01*
X303568Y140791D01*
X303221Y139953D01*
Y139047D01*
X303568Y138209D01*
X303971Y137806D01*
Y127528D01*
X303471Y127394D01*
X303163Y127927D01*
X302427Y128663D01*
X301526Y129183D01*
X300520Y129453D01*
X299480D01*
X298474Y129183D01*
X297573Y128663D01*
X296837Y127927D01*
X296317Y127026D01*
X296047Y126020D01*
Y124980D01*
X296317Y123974D01*
X296837Y123073D01*
X297573Y122337D01*
X298474Y121817D01*
X299480Y121547D01*
X300520D01*
X301526Y121817D01*
X302427Y122337D01*
X303163Y123073D01*
X303471Y123606D01*
X303971Y123472D01*
Y120000D01*
X304087Y119415D01*
X304419Y118919D01*
X306315Y117022D01*
X306047Y116020D01*
Y114980D01*
X306317Y113974D01*
X306837Y113073D01*
X307573Y112337D01*
X308474Y111817D01*
X309480Y111547D01*
X310520D01*
X311526Y111817D01*
X312427Y112337D01*
X313163Y113073D01*
X313683Y113974D01*
X313953Y114980D01*
Y116020D01*
X313683Y117026D01*
X313163Y117927D01*
X312427Y118663D01*
X311526Y119183D01*
X310520Y119453D01*
X309480D01*
X308478Y119185D01*
X307029Y120633D01*
Y122227D01*
X307491Y122419D01*
X307573Y122337D01*
X308474Y121817D01*
X309480Y121547D01*
X310520D01*
X311526Y121817D01*
X312427Y122337D01*
X313163Y123073D01*
X313518Y123688D01*
X314018Y123554D01*
Y119953D01*
X314134Y119368D01*
X314466Y118871D01*
X316316Y117022D01*
X316047Y116020D01*
Y114980D01*
X316317Y113974D01*
X316837Y113073D01*
X317573Y112337D01*
X318474Y111817D01*
X319480Y111547D01*
X320520D01*
X321526Y111817D01*
X322427Y112337D01*
X323163Y113073D01*
X323683Y113974D01*
X323953Y114980D01*
Y116020D01*
X323683Y117026D01*
X323163Y117927D01*
X322427Y118663D01*
X321526Y119183D01*
X320520Y119453D01*
X319480D01*
X318478Y119185D01*
X317077Y120586D01*
Y122180D01*
X317539Y122371D01*
X317573Y122337D01*
X318474Y121817D01*
X319480Y121547D01*
X320520D01*
X321526Y121817D01*
X322427Y122337D01*
X322461Y122371D01*
X322923Y122180D01*
Y121047D01*
X323040Y120462D01*
X323371Y119966D01*
X326315Y117022D01*
X326047Y116020D01*
Y114980D01*
X326317Y113974D01*
X326837Y113073D01*
X327573Y112337D01*
X328474Y111817D01*
X329480Y111547D01*
X330520D01*
X331526Y111817D01*
X332427Y112337D01*
X333163Y113073D01*
X333683Y113974D01*
X333953Y114980D01*
Y116020D01*
X333683Y117026D01*
X333163Y117927D01*
X332427Y118663D01*
X331526Y119183D01*
X330520Y119453D01*
X329480D01*
X328478Y119185D01*
X325982Y121681D01*
Y123554D01*
X326482Y123688D01*
X326837Y123073D01*
X327573Y122337D01*
X328474Y121817D01*
X329480Y121547D01*
X330520D01*
X331526Y121817D01*
X332427Y122337D01*
X332971Y122881D01*
X333471Y122673D01*
Y120500D01*
X333587Y119915D01*
X333919Y119419D01*
X336315Y117022D01*
X336047Y116020D01*
Y114980D01*
X336317Y113974D01*
X336837Y113073D01*
X337573Y112337D01*
X338474Y111817D01*
X339480Y111547D01*
X340520D01*
X341526Y111817D01*
X342427Y112337D01*
X343163Y113073D01*
X343683Y113974D01*
X343953Y114980D01*
Y116020D01*
X343683Y117026D01*
X343163Y117927D01*
X343531Y118245D01*
X343709Y118068D01*
X344500Y117740D01*
Y119500D01*
X342740D01*
X343068Y118709D01*
X342699Y118391D01*
X342427Y118663D01*
X341526Y119183D01*
X340520Y119453D01*
X339480D01*
X338478Y119185D01*
X336529Y121133D01*
Y122673D01*
X337029Y122881D01*
X337573Y122337D01*
X338474Y121817D01*
X339480Y121547D01*
X340520D01*
X341526Y121817D01*
X342427Y122337D01*
X343163Y123073D01*
X343683Y123974D01*
X343953Y124980D01*
Y126020D01*
X343683Y127026D01*
X343163Y127927D01*
X342427Y128663D01*
X341526Y129183D01*
X340520Y129453D01*
X339480D01*
X338474Y129183D01*
X337573Y128663D01*
X337029Y128119D01*
X336529Y128326D01*
Y139657D01*
X336413Y140242D01*
X336081Y140738D01*
X321516Y155304D01*
X321020Y155635D01*
X320434Y155752D01*
X318443D01*
X318012Y156183D01*
X317174Y156530D01*
D02*
G37*
G36*
X290520Y129453D02*
X289480D01*
X288474Y129183D01*
X287573Y128663D01*
X286837Y127927D01*
X286317Y127026D01*
X286047Y126020D01*
Y124980D01*
X286317Y123974D01*
X286837Y123073D01*
X287573Y122337D01*
X288474Y121817D01*
X289480Y121547D01*
X290520D01*
X291526Y121817D01*
X292427Y122337D01*
X293163Y123073D01*
X293683Y123974D01*
X293953Y124980D01*
Y126020D01*
X293683Y127026D01*
X293163Y127927D01*
X292427Y128663D01*
X291526Y129183D01*
X290520Y129453D01*
D02*
G37*
G36*
X280520D02*
X279480D01*
X278474Y129183D01*
X277573Y128663D01*
X276837Y127927D01*
X276317Y127026D01*
X276047Y126020D01*
Y124980D01*
X276317Y123974D01*
X276837Y123073D01*
X277573Y122337D01*
X278474Y121817D01*
X279480Y121547D01*
X280520D01*
X281526Y121817D01*
X282427Y122337D01*
X283163Y123073D01*
X283683Y123974D01*
X283953Y124980D01*
Y126020D01*
X283683Y127026D01*
X283163Y127927D01*
X282427Y128663D01*
X281526Y129183D01*
X280520Y129453D01*
D02*
G37*
G36*
X270520D02*
X269480D01*
X268474Y129183D01*
X267573Y128663D01*
X266837Y127927D01*
X266317Y127026D01*
X266047Y126020D01*
Y124980D01*
X266317Y123974D01*
X266837Y123073D01*
X267573Y122337D01*
X268474Y121817D01*
X269480Y121547D01*
X270520D01*
X271526Y121817D01*
X272427Y122337D01*
X273163Y123073D01*
X273683Y123974D01*
X273953Y124980D01*
Y126020D01*
X273683Y127026D01*
X273163Y127927D01*
X272427Y128663D01*
X271526Y129183D01*
X270520Y129453D01*
D02*
G37*
G36*
X260520D02*
X259480D01*
X258474Y129183D01*
X257573Y128663D01*
X256837Y127927D01*
X256317Y127026D01*
X256047Y126020D01*
Y124980D01*
X256317Y123974D01*
X256837Y123073D01*
X257573Y122337D01*
X258474Y121817D01*
X259480Y121547D01*
X260520D01*
X261526Y121817D01*
X262427Y122337D01*
X263163Y123073D01*
X263683Y123974D01*
X263953Y124980D01*
Y126020D01*
X263683Y127026D01*
X263163Y127927D01*
X262427Y128663D01*
X261526Y129183D01*
X260520Y129453D01*
D02*
G37*
G36*
X250520D02*
X249480D01*
X248474Y129183D01*
X247573Y128663D01*
X246837Y127927D01*
X246317Y127026D01*
X246047Y126020D01*
Y124980D01*
X246317Y123974D01*
X246837Y123073D01*
X247573Y122337D01*
X248474Y121817D01*
X249480Y121547D01*
X250520D01*
X251526Y121817D01*
X252427Y122337D01*
X253163Y123073D01*
X253683Y123974D01*
X253953Y124980D01*
Y126020D01*
X253683Y127026D01*
X253163Y127927D01*
X252427Y128663D01*
X251526Y129183D01*
X250520Y129453D01*
D02*
G37*
G36*
X240520D02*
X239480D01*
X238474Y129183D01*
X237573Y128663D01*
X236837Y127927D01*
X236317Y127026D01*
X236047Y126020D01*
Y124980D01*
X236317Y123974D01*
X236837Y123073D01*
X237573Y122337D01*
X238474Y121817D01*
X239480Y121547D01*
X240520D01*
X241526Y121817D01*
X242427Y122337D01*
X243163Y123073D01*
X243683Y123974D01*
X243953Y124980D01*
Y126020D01*
X243683Y127026D01*
X243163Y127927D01*
X242427Y128663D01*
X241526Y129183D01*
X240520Y129453D01*
D02*
G37*
G36*
X230520D02*
X229480D01*
X228474Y129183D01*
X227573Y128663D01*
X226837Y127927D01*
X226317Y127026D01*
X226047Y126020D01*
Y124980D01*
X226317Y123974D01*
X226837Y123073D01*
X227573Y122337D01*
X228474Y121817D01*
X229480Y121547D01*
X230520D01*
X231526Y121817D01*
X232427Y122337D01*
X233163Y123073D01*
X233683Y123974D01*
X233953Y124980D01*
Y126020D01*
X233683Y127026D01*
X233163Y127927D01*
X232427Y128663D01*
X231526Y129183D01*
X230520Y129453D01*
D02*
G37*
G36*
X220520D02*
X219480D01*
X218474Y129183D01*
X217573Y128663D01*
X216837Y127927D01*
X216317Y127026D01*
X216047Y126020D01*
Y124980D01*
X216317Y123974D01*
X216837Y123073D01*
X217573Y122337D01*
X218474Y121817D01*
X219480Y121547D01*
X220520D01*
X221526Y121817D01*
X222427Y122337D01*
X223163Y123073D01*
X223683Y123974D01*
X223953Y124980D01*
Y126020D01*
X223683Y127026D01*
X223163Y127927D01*
X222427Y128663D01*
X221526Y129183D01*
X220520Y129453D01*
D02*
G37*
G36*
X200520D02*
X199480D01*
X198474Y129183D01*
X197573Y128663D01*
X196837Y127927D01*
X196317Y127026D01*
X196047Y126020D01*
Y124980D01*
X196317Y123974D01*
X196837Y123073D01*
X197573Y122337D01*
X198474Y121817D01*
X199480Y121547D01*
X200520D01*
X201526Y121817D01*
X202427Y122337D01*
X203163Y123073D01*
X203683Y123974D01*
X203953Y124980D01*
Y126020D01*
X203683Y127026D01*
X203163Y127927D01*
X202427Y128663D01*
X201526Y129183D01*
X200520Y129453D01*
D02*
G37*
G36*
X190520D02*
X189480D01*
X188474Y129183D01*
X187573Y128663D01*
X186837Y127927D01*
X186317Y127026D01*
X186047Y126020D01*
Y124980D01*
X186317Y123974D01*
X186837Y123073D01*
X187573Y122337D01*
X188474Y121817D01*
X189480Y121547D01*
X190520D01*
X191526Y121817D01*
X192427Y122337D01*
X193163Y123073D01*
X193683Y123974D01*
X193953Y124980D01*
Y126020D01*
X193683Y127026D01*
X193163Y127927D01*
X192427Y128663D01*
X191526Y129183D01*
X190520Y129453D01*
D02*
G37*
G36*
X180520D02*
X179480D01*
X178474Y129183D01*
X177573Y128663D01*
X176837Y127927D01*
X176317Y127026D01*
X176047Y126020D01*
Y124980D01*
X176317Y123974D01*
X176837Y123073D01*
X177573Y122337D01*
X178474Y121817D01*
X179480Y121547D01*
X180520D01*
X181526Y121817D01*
X182427Y122337D01*
X183163Y123073D01*
X183683Y123974D01*
X183953Y124980D01*
Y126020D01*
X183683Y127026D01*
X183163Y127927D01*
X182427Y128663D01*
X181526Y129183D01*
X180520Y129453D01*
D02*
G37*
G36*
X345500Y122260D02*
Y120500D01*
X347260D01*
X346933Y121291D01*
X346291Y121932D01*
X345500Y122260D01*
D02*
G37*
G36*
X344500D02*
X343709Y121932D01*
X343068Y121291D01*
X342740Y120500D01*
X344500D01*
Y122260D01*
D02*
G37*
G36*
X285500D02*
Y120500D01*
X287260D01*
X286932Y121291D01*
X286291Y121932D01*
X285500Y122260D01*
D02*
G37*
G36*
X284500D02*
X283709Y121932D01*
X283067Y121291D01*
X282740Y120500D01*
X284500D01*
Y122260D01*
D02*
G37*
G36*
X255500D02*
Y120500D01*
X257260D01*
X256932Y121291D01*
X256291Y121932D01*
X255500Y122260D01*
D02*
G37*
G36*
X254500D02*
X253709Y121932D01*
X253067Y121291D01*
X252740Y120500D01*
X254500D01*
Y122260D01*
D02*
G37*
G36*
X225500D02*
Y120500D01*
X227260D01*
X226933Y121291D01*
X226291Y121932D01*
X225500Y122260D01*
D02*
G37*
G36*
X224500D02*
X223709Y121932D01*
X223067Y121291D01*
X222740Y120500D01*
X224500D01*
Y122260D01*
D02*
G37*
G36*
X195500D02*
Y120500D01*
X197260D01*
X196932Y121291D01*
X196291Y121932D01*
X195500Y122260D01*
D02*
G37*
G36*
X194500D02*
X193709Y121932D01*
X193068Y121291D01*
X192740Y120500D01*
X194500D01*
Y122260D01*
D02*
G37*
G36*
X284500Y119500D02*
X282740D01*
X283067Y118709D01*
X282699Y118391D01*
X282427Y118663D01*
X281526Y119183D01*
X280520Y119453D01*
X279480D01*
X278474Y119183D01*
X277573Y118663D01*
X276837Y117927D01*
X276317Y117026D01*
X276047Y116020D01*
Y114980D01*
X276317Y113974D01*
X276837Y113073D01*
X277573Y112337D01*
X278474Y111817D01*
X279480Y111547D01*
X280520D01*
X281526Y111817D01*
X282427Y112337D01*
X283163Y113073D01*
X283683Y113974D01*
X283953Y114980D01*
Y116020D01*
X283683Y117026D01*
X283163Y117927D01*
X283531Y118245D01*
X283709Y118068D01*
X284500Y117740D01*
Y119500D01*
D02*
G37*
G36*
X254500D02*
X252740D01*
X253067Y118709D01*
X252699Y118391D01*
X252427Y118663D01*
X251526Y119183D01*
X250520Y119453D01*
X249480D01*
X248474Y119183D01*
X247573Y118663D01*
X246837Y117927D01*
X246317Y117026D01*
X246047Y116020D01*
Y114980D01*
X246317Y113974D01*
X246837Y113073D01*
X247573Y112337D01*
X248474Y111817D01*
X249480Y111547D01*
X250520D01*
X251526Y111817D01*
X252427Y112337D01*
X253163Y113073D01*
X253683Y113974D01*
X253953Y114980D01*
Y116020D01*
X253683Y117026D01*
X253163Y117927D01*
X253531Y118245D01*
X253709Y118068D01*
X254500Y117740D01*
Y119500D01*
D02*
G37*
G36*
X224500D02*
X222740D01*
X223067Y118709D01*
X222699Y118391D01*
X222427Y118663D01*
X221526Y119183D01*
X220520Y119453D01*
X219480D01*
X218474Y119183D01*
X217573Y118663D01*
X216837Y117927D01*
X216317Y117026D01*
X216047Y116020D01*
Y114980D01*
X216317Y113974D01*
X216837Y113073D01*
X217573Y112337D01*
X218474Y111817D01*
X219480Y111547D01*
X220520D01*
X221526Y111817D01*
X222427Y112337D01*
X223163Y113073D01*
X223683Y113974D01*
X223953Y114980D01*
Y116020D01*
X223683Y117026D01*
X223163Y117927D01*
X223531Y118245D01*
X223709Y118068D01*
X224500Y117740D01*
Y119500D01*
D02*
G37*
G36*
X194500D02*
X192740D01*
X193068Y118709D01*
X192699Y118391D01*
X192427Y118663D01*
X191526Y119183D01*
X190520Y119453D01*
X189480D01*
X188474Y119183D01*
X187573Y118663D01*
X186837Y117927D01*
X186317Y117026D01*
X186047Y116020D01*
Y114980D01*
X186317Y113974D01*
X186837Y113073D01*
X187573Y112337D01*
X188474Y111817D01*
X189480Y111547D01*
X190520D01*
X191526Y111817D01*
X192427Y112337D01*
X193163Y113073D01*
X193683Y113974D01*
X193953Y114980D01*
Y116020D01*
X193683Y117026D01*
X193163Y117927D01*
X193531Y118245D01*
X193709Y118068D01*
X194500Y117740D01*
Y119500D01*
D02*
G37*
G36*
X347260D02*
X345500D01*
Y117740D01*
X346291Y118068D01*
X346933Y118709D01*
X347260Y119500D01*
D02*
G37*
G36*
X180520Y119453D02*
X180500D01*
Y116000D01*
X183953D01*
Y116020D01*
X183683Y117026D01*
X183163Y117927D01*
X182427Y118663D01*
X181526Y119183D01*
X180520Y119453D01*
D02*
G37*
G36*
X179500D02*
X179480D01*
X178474Y119183D01*
X177573Y118663D01*
X176837Y117927D01*
X176317Y117026D01*
X176047Y116020D01*
Y116000D01*
X179500D01*
Y119453D01*
D02*
G37*
G36*
X300520D02*
X299480D01*
X298474Y119183D01*
X297573Y118663D01*
X296837Y117927D01*
X296317Y117026D01*
X296047Y116020D01*
Y114980D01*
X296317Y113974D01*
X296837Y113073D01*
X297573Y112337D01*
X298474Y111817D01*
X299480Y111547D01*
X300520D01*
X301526Y111817D01*
X302427Y112337D01*
X303163Y113073D01*
X303683Y113974D01*
X303953Y114980D01*
Y116020D01*
X303683Y117026D01*
X303163Y117927D01*
X302427Y118663D01*
X301526Y119183D01*
X300520Y119453D01*
D02*
G37*
G36*
X287260Y119500D02*
X285500D01*
Y117740D01*
X286291Y118068D01*
X286469Y118245D01*
X286837Y117927D01*
X286317Y117026D01*
X286047Y116020D01*
Y114980D01*
X286317Y113974D01*
X286837Y113073D01*
X287573Y112337D01*
X288474Y111817D01*
X289480Y111547D01*
X290520D01*
X291526Y111817D01*
X292427Y112337D01*
X293163Y113073D01*
X293683Y113974D01*
X293953Y114980D01*
Y116020D01*
X293683Y117026D01*
X293163Y117927D01*
X292427Y118663D01*
X291526Y119183D01*
X290520Y119453D01*
X289480D01*
X288474Y119183D01*
X287573Y118663D01*
X287301Y118391D01*
X286932Y118709D01*
X287260Y119500D01*
D02*
G37*
G36*
X270520Y119453D02*
X269480D01*
X268474Y119183D01*
X267573Y118663D01*
X266837Y117927D01*
X266317Y117026D01*
X266047Y116020D01*
Y114980D01*
X266317Y113974D01*
X266837Y113073D01*
X267573Y112337D01*
X268474Y111817D01*
X269480Y111547D01*
X270520D01*
X271526Y111817D01*
X272427Y112337D01*
X273163Y113073D01*
X273683Y113974D01*
X273953Y114980D01*
Y116020D01*
X273683Y117026D01*
X273163Y117927D01*
X272427Y118663D01*
X271526Y119183D01*
X270520Y119453D01*
D02*
G37*
G36*
X257260Y119500D02*
X255500D01*
Y117740D01*
X256291Y118068D01*
X256469Y118245D01*
X256837Y117927D01*
X256317Y117026D01*
X256047Y116020D01*
Y114980D01*
X256317Y113974D01*
X256837Y113073D01*
X257573Y112337D01*
X258474Y111817D01*
X259480Y111547D01*
X260520D01*
X261526Y111817D01*
X262427Y112337D01*
X263163Y113073D01*
X263683Y113974D01*
X263953Y114980D01*
Y116020D01*
X263683Y117026D01*
X263163Y117927D01*
X262427Y118663D01*
X261526Y119183D01*
X260520Y119453D01*
X259480D01*
X258474Y119183D01*
X257573Y118663D01*
X257301Y118391D01*
X256932Y118709D01*
X257260Y119500D01*
D02*
G37*
G36*
X240520Y119453D02*
X239480D01*
X238474Y119183D01*
X237573Y118663D01*
X236837Y117927D01*
X236317Y117026D01*
X236047Y116020D01*
Y114980D01*
X236317Y113974D01*
X236837Y113073D01*
X237573Y112337D01*
X238474Y111817D01*
X239480Y111547D01*
X240520D01*
X241526Y111817D01*
X242427Y112337D01*
X243163Y113073D01*
X243683Y113974D01*
X243953Y114980D01*
Y116020D01*
X243683Y117026D01*
X243163Y117927D01*
X242427Y118663D01*
X241526Y119183D01*
X240520Y119453D01*
D02*
G37*
G36*
X227260Y119500D02*
X225500D01*
Y117740D01*
X226291Y118068D01*
X226469Y118245D01*
X226837Y117927D01*
X226317Y117026D01*
X226047Y116020D01*
Y114980D01*
X226317Y113974D01*
X226837Y113073D01*
X227573Y112337D01*
X228474Y111817D01*
X229480Y111547D01*
X230520D01*
X231526Y111817D01*
X232427Y112337D01*
X233163Y113073D01*
X233683Y113974D01*
X233953Y114980D01*
Y116020D01*
X233683Y117026D01*
X233163Y117927D01*
X232427Y118663D01*
X231526Y119183D01*
X230520Y119453D01*
X229480D01*
X228474Y119183D01*
X227573Y118663D01*
X227301Y118391D01*
X226933Y118709D01*
X227260Y119500D01*
D02*
G37*
G36*
X210520Y119453D02*
X209480D01*
X208474Y119183D01*
X207573Y118663D01*
X206837Y117927D01*
X206317Y117026D01*
X206047Y116020D01*
Y114980D01*
X206317Y113974D01*
X206837Y113073D01*
X207573Y112337D01*
X208474Y111817D01*
X209480Y111547D01*
X210520D01*
X211526Y111817D01*
X212427Y112337D01*
X213163Y113073D01*
X213683Y113974D01*
X213953Y114980D01*
Y116020D01*
X213683Y117026D01*
X213163Y117927D01*
X212427Y118663D01*
X211526Y119183D01*
X210520Y119453D01*
D02*
G37*
G36*
X197260Y119500D02*
X195500D01*
Y117740D01*
X196291Y118068D01*
X196469Y118245D01*
X196837Y117927D01*
X196317Y117026D01*
X196047Y116020D01*
Y114980D01*
X196317Y113974D01*
X196837Y113073D01*
X197573Y112337D01*
X198474Y111817D01*
X199480Y111547D01*
X200520D01*
X201526Y111817D01*
X202427Y112337D01*
X203163Y113073D01*
X203683Y113974D01*
X203953Y114980D01*
Y116020D01*
X203683Y117026D01*
X203163Y117927D01*
X202427Y118663D01*
X201526Y119183D01*
X200520Y119453D01*
X199480D01*
X198474Y119183D01*
X197573Y118663D01*
X197301Y118391D01*
X196932Y118709D01*
X197260Y119500D01*
D02*
G37*
G36*
X183953Y115000D02*
X180500D01*
Y111547D01*
X180520D01*
X181526Y111817D01*
X182427Y112337D01*
X183163Y113073D01*
X183683Y113974D01*
X183953Y114980D01*
Y115000D01*
D02*
G37*
G36*
X179500D02*
X176047D01*
Y114980D01*
X176317Y113974D01*
X176837Y113073D01*
X177573Y112337D01*
X178474Y111817D01*
X179480Y111547D01*
X179500D01*
Y115000D01*
D02*
G37*
G36*
X210453Y195780D02*
X209547D01*
X208709Y195432D01*
X208067Y194791D01*
X207720Y193953D01*
Y193383D01*
X187043Y172706D01*
X187043Y172706D01*
X164466Y150129D01*
X164134Y149633D01*
X164018Y149047D01*
Y123656D01*
X164134Y123070D01*
X164466Y122574D01*
X167125Y119915D01*
X166934Y119453D01*
X166047D01*
Y111547D01*
X173953D01*
Y119453D01*
X171348D01*
X171249Y119952D01*
X170917Y120448D01*
X170280Y121085D01*
X170472Y121547D01*
X170520D01*
X171526Y121817D01*
X172427Y122337D01*
X173163Y123073D01*
X173683Y123974D01*
X173953Y124980D01*
Y126020D01*
X173683Y127026D01*
X173163Y127927D01*
X172427Y128663D01*
X171526Y129183D01*
X170520Y129453D01*
X169480D01*
X168474Y129183D01*
X167573Y128663D01*
X167539Y128629D01*
X167077Y128820D01*
Y148414D01*
X189206Y170543D01*
X189206Y170543D01*
X209883Y191220D01*
X210453D01*
X211291Y191568D01*
X211932Y192209D01*
X212280Y193047D01*
Y193953D01*
X211932Y194791D01*
X211291Y195432D01*
X210453Y195780D01*
D02*
G37*
%LPD*%
D13*
X263000Y190500D02*
Y219000D01*
X210000Y137500D02*
X263000Y190500D01*
X210000Y125500D02*
Y137500D01*
X165547Y123656D02*
Y149047D01*
X188125Y171625D02*
X188125D01*
X165547Y149047D02*
X188125Y171625D01*
X188125D02*
X210000Y193500D01*
X315547Y119953D02*
Y144125D01*
Y119953D02*
X320000Y115500D01*
X315547Y144125D02*
X317000Y145578D01*
Y146000D01*
X251067Y199567D02*
X251567D01*
X244500Y193000D02*
X251067Y199567D01*
X251567D02*
X257836Y205836D01*
X310500Y154500D02*
Y167500D01*
X293500Y137500D02*
X310500Y154500D01*
X263258Y149990D02*
X300215D01*
X249748Y163500D02*
X263258Y149990D01*
X320000Y211500D02*
Y232500D01*
Y211500D02*
X345000Y186500D01*
X228500Y193000D02*
X236500D01*
X214500Y179000D02*
X228500Y193000D01*
X268500Y228500D02*
Y238500D01*
Y228500D02*
X275000Y222000D01*
X294500Y240000D02*
X321500D01*
X345000Y216500D01*
X267865Y168500D02*
X268865Y167500D01*
X267500Y168500D02*
X267865D01*
X268865Y167500D02*
X310500D01*
X328101Y185101D01*
X342274D01*
X257836Y205836D02*
Y228595D01*
X267500Y168500D02*
Y218931D01*
X257836Y228595D02*
X267500Y218931D01*
X257836Y228595D02*
Y234586D01*
X275000Y209000D02*
Y222000D01*
X319000Y167500D02*
X336000D01*
X172500Y149000D02*
X227506Y204006D01*
X248494D01*
X248500Y204000D01*
X336000Y167500D02*
X345000Y176500D01*
X342274Y185101D02*
X343673Y186500D01*
X345000D01*
X305500Y120000D02*
X310000Y115500D01*
X305500Y120000D02*
Y139500D01*
X169836Y115664D02*
X170000Y115500D01*
X169836Y115664D02*
Y119367D01*
X165547Y123656D02*
X169836Y119367D01*
X270000Y115500D02*
X270023Y115703D01*
X335000Y120500D02*
X340000Y115500D01*
X320434Y154222D02*
X335000Y139657D01*
Y120500D02*
Y139657D01*
X324453Y121047D02*
Y145047D01*
X321375Y148125D02*
X321376D01*
X324453Y145047D01*
X319000Y150500D02*
X321375Y148125D01*
X316749Y154222D02*
X320434D01*
X324453Y121047D02*
X330000Y115500D01*
D45*
X345000Y186500D02*
D03*
Y176500D02*
D03*
Y196500D02*
D03*
Y206500D02*
D03*
Y226500D02*
D03*
Y216500D02*
D03*
X340000Y125500D02*
D03*
Y115500D02*
D03*
X330000Y125500D02*
D03*
Y115500D02*
D03*
X320000Y125500D02*
D03*
Y115500D02*
D03*
X310000Y125500D02*
D03*
Y115500D02*
D03*
X300000Y125500D02*
D03*
Y115500D02*
D03*
X290000Y125500D02*
D03*
Y115500D02*
D03*
X280000Y125500D02*
D03*
Y115500D02*
D03*
X270000Y125500D02*
D03*
Y115500D02*
D03*
X260000Y125500D02*
D03*
Y115500D02*
D03*
X250000Y125500D02*
D03*
Y115500D02*
D03*
X240000Y125500D02*
D03*
Y115500D02*
D03*
X230000Y125500D02*
D03*
Y115500D02*
D03*
X220000Y125500D02*
D03*
Y115500D02*
D03*
X210000Y125500D02*
D03*
Y115500D02*
D03*
X200000Y125500D02*
D03*
Y115500D02*
D03*
X190000Y125500D02*
D03*
Y115500D02*
D03*
X180000Y125500D02*
D03*
Y115500D02*
D03*
X170000Y125500D02*
D03*
D46*
X345000Y236500D02*
D03*
D47*
X350000Y150000D02*
D03*
X170000Y255000D02*
D03*
D48*
Y115500D02*
D03*
D49*
X263000Y219000D02*
D03*
X233279Y165000D02*
D03*
X352500Y255000D02*
D03*
Y225000D02*
D03*
Y195000D02*
D03*
Y165000D02*
D03*
Y135000D02*
D03*
X345000Y120000D02*
D03*
X337500Y255000D02*
D03*
X330000Y210000D02*
D03*
X337500Y165000D02*
D03*
X322500Y255000D02*
D03*
X315000Y180000D02*
D03*
X307500Y255000D02*
D03*
X300000Y210000D02*
D03*
X307500Y195000D02*
D03*
X292500Y255000D02*
D03*
X285000Y210000D02*
D03*
X292500Y195000D02*
D03*
X285000Y120000D02*
D03*
X277500Y255000D02*
D03*
Y195000D02*
D03*
X262500Y255000D02*
D03*
X255000Y240000D02*
D03*
X262500Y165000D02*
D03*
X255000Y120000D02*
D03*
X247500Y255000D02*
D03*
X240000Y240000D02*
D03*
X232500Y255000D02*
D03*
X225000Y240000D02*
D03*
X232500Y225000D02*
D03*
X225000Y210000D02*
D03*
Y120000D02*
D03*
X217500Y255000D02*
D03*
X210000Y240000D02*
D03*
Y210000D02*
D03*
X217500Y135000D02*
D03*
X202500Y255000D02*
D03*
X195000Y240000D02*
D03*
Y210000D02*
D03*
Y120000D02*
D03*
X187500Y255000D02*
D03*
X180000Y240000D02*
D03*
X187500Y225000D02*
D03*
X180000Y210000D02*
D03*
X187500Y195000D02*
D03*
X165000Y240000D02*
D03*
X172500Y225000D02*
D03*
X165000Y210000D02*
D03*
X172500Y195000D02*
D03*
X165000Y180000D02*
D03*
X210000Y193500D02*
D03*
X317000Y146000D02*
D03*
X244500Y193000D02*
D03*
X293500Y137500D02*
D03*
X300215Y149990D02*
D03*
X320000Y232500D02*
D03*
X236500Y193000D02*
D03*
X214500Y179000D02*
D03*
X268500Y238500D02*
D03*
X275000Y209000D02*
D03*
X294500Y240000D02*
D03*
X248500Y204000D02*
D03*
X310500Y167500D02*
D03*
X267500Y168500D02*
D03*
X319000Y167500D02*
D03*
X172500Y149000D02*
D03*
X257836Y234586D02*
D03*
X249748Y163500D02*
D03*
X305500Y139500D02*
D03*
X319000Y150500D02*
D03*
X316721Y154251D02*
D03*
M02*
