G04*
G04 #@! TF.GenerationSoftware,Altium Limited,Altium Designer,20.2.3 (150)*
G04*
G04 Layer_Color=8388736*
%FSLAX25Y25*%
%MOIN*%
G70*
G04*
G04 #@! TF.SameCoordinates,9B11B327-6EB5-4971-87C7-186C775F7969*
G04*
G04*
G04 #@! TF.FilePolarity,Negative*
G04*
G01*
G75*
%ADD21R,0.06575X0.01772*%
%ADD22R,0.06312X0.05131*%
%ADD23R,0.05131X0.06312*%
%ADD24R,0.09855X0.09855*%
%ADD25R,0.09855X0.09855*%
%ADD26R,0.07493X0.05131*%
%ADD27R,0.06902X0.09855*%
%ADD28R,0.09855X0.06902*%
%ADD29R,0.05131X0.07493*%
%ADD30C,0.06706*%
%ADD31R,0.06706X0.06706*%
%ADD32C,0.24422*%
%ADD33C,0.03500*%
%ADD34C,0.04800*%
G36*
X340500Y100000D02*
X332000D01*
Y475000D01*
X340500D01*
Y100000D01*
D02*
G37*
D21*
X317846Y402252D02*
D03*
Y399693D02*
D03*
Y397134D02*
D03*
Y394575D02*
D03*
Y392016D02*
D03*
Y389457D02*
D03*
Y386898D02*
D03*
Y384339D02*
D03*
Y381780D02*
D03*
Y379221D02*
D03*
Y376661D02*
D03*
Y374102D02*
D03*
Y371543D02*
D03*
Y368984D02*
D03*
Y366425D02*
D03*
Y363866D02*
D03*
Y361307D02*
D03*
Y358748D02*
D03*
X356153D02*
D03*
Y361307D02*
D03*
Y363866D02*
D03*
Y366425D02*
D03*
Y368984D02*
D03*
Y371543D02*
D03*
Y374102D02*
D03*
Y386898D02*
D03*
Y389457D02*
D03*
Y392016D02*
D03*
Y394575D02*
D03*
Y397134D02*
D03*
Y399693D02*
D03*
Y402252D02*
D03*
Y138748D02*
D03*
Y143866D02*
D03*
Y151543D02*
D03*
Y146425D02*
D03*
Y174575D02*
D03*
Y182252D02*
D03*
Y179693D02*
D03*
Y177134D02*
D03*
Y172016D02*
D03*
Y169457D02*
D03*
Y166898D02*
D03*
Y154102D02*
D03*
Y148984D02*
D03*
Y141307D02*
D03*
X317846Y138748D02*
D03*
Y141307D02*
D03*
Y143866D02*
D03*
Y146425D02*
D03*
Y148984D02*
D03*
Y151543D02*
D03*
Y154102D02*
D03*
Y156661D02*
D03*
Y159221D02*
D03*
Y161779D02*
D03*
Y164339D02*
D03*
Y166898D02*
D03*
Y169457D02*
D03*
Y172016D02*
D03*
Y174575D02*
D03*
Y177134D02*
D03*
Y179693D02*
D03*
Y182252D02*
D03*
X356153Y248748D02*
D03*
Y253866D02*
D03*
Y261543D02*
D03*
Y256425D02*
D03*
Y284575D02*
D03*
Y292252D02*
D03*
Y289693D02*
D03*
Y287134D02*
D03*
Y282016D02*
D03*
Y279457D02*
D03*
Y276898D02*
D03*
Y264102D02*
D03*
Y258984D02*
D03*
Y251307D02*
D03*
X317846Y248748D02*
D03*
Y251307D02*
D03*
Y253866D02*
D03*
Y256425D02*
D03*
Y258984D02*
D03*
Y261543D02*
D03*
Y264102D02*
D03*
Y266661D02*
D03*
Y269220D02*
D03*
Y271779D02*
D03*
Y274339D02*
D03*
Y276898D02*
D03*
Y279457D02*
D03*
Y282016D02*
D03*
Y284575D02*
D03*
Y287134D02*
D03*
Y289693D02*
D03*
Y292252D02*
D03*
D22*
X368000Y362453D02*
D03*
Y356547D02*
D03*
X369000Y252453D02*
D03*
Y246547D02*
D03*
X379500Y287953D02*
D03*
Y282047D02*
D03*
X368000Y142453D02*
D03*
Y136547D02*
D03*
X303500Y126547D02*
D03*
Y132453D02*
D03*
X380000Y177953D02*
D03*
Y172047D02*
D03*
X370500Y177953D02*
D03*
Y172047D02*
D03*
X303500Y158547D02*
D03*
Y164453D02*
D03*
Y239047D02*
D03*
Y244953D02*
D03*
Y349047D02*
D03*
Y354953D02*
D03*
X379500Y397953D02*
D03*
Y392047D02*
D03*
X370000Y287953D02*
D03*
Y282047D02*
D03*
Y397953D02*
D03*
Y392047D02*
D03*
X303500Y268547D02*
D03*
Y274453D02*
D03*
Y378547D02*
D03*
Y384453D02*
D03*
D23*
X374047Y122000D02*
D03*
X379953D02*
D03*
X375047Y234000D02*
D03*
X380953D02*
D03*
X375547Y344500D02*
D03*
X381453D02*
D03*
D24*
X370642Y331500D02*
D03*
X388358D02*
D03*
X386358Y222500D02*
D03*
X368642D02*
D03*
X386858Y109500D02*
D03*
X369142D02*
D03*
D25*
X392000Y414858D02*
D03*
Y397142D02*
D03*
Y304858D02*
D03*
Y287142D02*
D03*
X392500Y177142D02*
D03*
Y194858D02*
D03*
D26*
X360500Y206815D02*
D03*
Y196185D02*
D03*
X387000Y134185D02*
D03*
Y144815D02*
D03*
X377500D02*
D03*
Y134185D02*
D03*
X293500Y124185D02*
D03*
Y134815D02*
D03*
X284500Y156185D02*
D03*
Y166815D02*
D03*
X294000Y156185D02*
D03*
Y166815D02*
D03*
Y189315D02*
D03*
Y178685D02*
D03*
X294500Y299815D02*
D03*
Y289185D02*
D03*
X284500Y266185D02*
D03*
Y276815D02*
D03*
X294000Y266185D02*
D03*
Y276815D02*
D03*
X356500Y426315D02*
D03*
Y415685D02*
D03*
X387000Y354185D02*
D03*
Y364815D02*
D03*
X294000Y357315D02*
D03*
Y346685D02*
D03*
X294500Y398685D02*
D03*
Y409315D02*
D03*
X284500Y386815D02*
D03*
Y376185D02*
D03*
X294000Y386815D02*
D03*
Y376185D02*
D03*
X377500Y354185D02*
D03*
Y364815D02*
D03*
X357000Y304185D02*
D03*
Y314815D02*
D03*
X379000Y244185D02*
D03*
Y254815D02*
D03*
X389000D02*
D03*
Y244185D02*
D03*
X293500Y247315D02*
D03*
Y236685D02*
D03*
D27*
X410500Y125035D02*
D03*
Y141965D02*
D03*
X411500Y235035D02*
D03*
Y251965D02*
D03*
X411000Y345035D02*
D03*
Y361965D02*
D03*
D28*
X395035Y160500D02*
D03*
X411965D02*
D03*
X395535Y270500D02*
D03*
X412465D02*
D03*
X411965Y381000D02*
D03*
X395035D02*
D03*
D29*
X369185Y159000D02*
D03*
X379815D02*
D03*
X369185Y271000D02*
D03*
X379815D02*
D03*
Y381000D02*
D03*
X369185D02*
D03*
D30*
X437500Y364000D02*
D03*
Y374000D02*
D03*
Y384000D02*
D03*
Y394000D02*
D03*
X256500Y364000D02*
D03*
Y374000D02*
D03*
Y384000D02*
D03*
Y394000D02*
D03*
Y284000D02*
D03*
Y274000D02*
D03*
Y264000D02*
D03*
Y254000D02*
D03*
Y174000D02*
D03*
Y164000D02*
D03*
Y154000D02*
D03*
Y144000D02*
D03*
X437500Y174000D02*
D03*
Y164000D02*
D03*
Y154000D02*
D03*
Y144000D02*
D03*
Y254000D02*
D03*
Y264000D02*
D03*
Y274000D02*
D03*
Y284000D02*
D03*
X358500Y456000D02*
D03*
X320000D02*
D03*
D31*
X437500Y404000D02*
D03*
X256500D02*
D03*
Y294000D02*
D03*
Y184000D02*
D03*
X437500D02*
D03*
Y294000D02*
D03*
X358500Y446000D02*
D03*
X320000D02*
D03*
D32*
X265000Y453000D02*
D03*
Y120000D02*
D03*
X430000Y453000D02*
D03*
D33*
X370029Y187130D02*
D03*
X370000Y295500D02*
D03*
X356500Y350000D02*
D03*
X356000Y127500D02*
D03*
Y240500D02*
D03*
X273000Y152000D02*
D03*
X317836Y187645D02*
D03*
X278500Y262000D02*
D03*
X317500Y299000D02*
D03*
X422500Y125000D02*
D03*
X422465Y235035D02*
D03*
X425932Y203175D02*
D03*
X419500Y195000D02*
D03*
X427000Y313500D02*
D03*
X424000Y424000D02*
D03*
X274000Y383000D02*
D03*
X274000Y377000D02*
D03*
X268000Y377500D02*
D03*
X276000Y157000D02*
D03*
X277500Y163000D02*
D03*
X268000Y151000D02*
D03*
X273500Y267000D02*
D03*
X270000Y273000D02*
D03*
X266500Y259500D02*
D03*
X268500Y370000D02*
D03*
X303500Y228000D02*
D03*
X304000Y114500D02*
D03*
X295000Y116000D02*
D03*
Y199500D02*
D03*
X295089Y227594D02*
D03*
X295000Y337500D02*
D03*
X295154Y308668D02*
D03*
X399000Y134000D02*
D03*
X355500Y109500D02*
D03*
X408000Y305000D02*
D03*
X370000Y212500D02*
D03*
X356000Y222000D02*
D03*
X424266Y346313D02*
D03*
X370164Y319942D02*
D03*
X303000Y339500D02*
D03*
X294970Y419160D02*
D03*
X369750Y432500D02*
D03*
X370000Y406000D02*
D03*
D34*
X407362Y414767D02*
D03*
X355803Y331423D02*
D03*
M02*
