G04*
G04 #@! TF.GenerationSoftware,Altium Limited,Altium Designer,20.2.3 (150)*
G04*
G04 Layer_Physical_Order=2*
G04 Layer_Color=16711680*
%FSLAX25Y25*%
%MOIN*%
G70*
G04*
G04 #@! TF.SameCoordinates,9B11B327-6EB5-4971-87C7-186C775F7969*
G04*
G04*
G04 #@! TF.FilePolarity,Positive*
G04*
G01*
G75*
%ADD35C,0.03000*%
%ADD36C,0.01300*%
%ADD39C,0.05906*%
%ADD40R,0.05906X0.05906*%
%ADD41C,0.23622*%
%ADD42C,0.02700*%
%ADD43C,0.04000*%
G36*
X332000Y100000D02*
X244000D01*
Y475000D01*
X332000D01*
Y100000D01*
D02*
G37*
G36*
X452500D02*
X340500D01*
Y475000D01*
X452500D01*
Y100000D01*
D02*
G37*
%LPC*%
G36*
X320000Y459987D02*
X318968Y459851D01*
X318007Y459453D01*
X317181Y458819D01*
X316547Y457993D01*
X316149Y457032D01*
X316013Y456000D01*
X316149Y454968D01*
X316547Y454007D01*
X317181Y453181D01*
X318007Y452547D01*
X318968Y452149D01*
X320000Y452013D01*
X321032Y452149D01*
X321993Y452547D01*
X322819Y453181D01*
X323453Y454007D01*
X323851Y454968D01*
X323987Y456000D01*
X323851Y457032D01*
X323453Y457993D01*
X322819Y458819D01*
X321993Y459453D01*
X321032Y459851D01*
X320000Y459987D01*
D02*
G37*
G36*
X323953Y449953D02*
X320500D01*
Y446500D01*
X323953D01*
Y449953D01*
D02*
G37*
G36*
X319500D02*
X316047D01*
Y446500D01*
X319500D01*
Y449953D01*
D02*
G37*
G36*
X323953Y445500D02*
X320500D01*
Y442047D01*
X323953D01*
Y445500D01*
D02*
G37*
G36*
X319500D02*
X316047D01*
Y442047D01*
X319500D01*
Y445500D01*
D02*
G37*
G36*
X265000Y465851D02*
X262990Y465692D01*
X261029Y465222D01*
X259166Y464450D01*
X257447Y463396D01*
X255913Y462087D01*
X254604Y460553D01*
X253550Y458834D01*
X252778Y456971D01*
X252308Y455010D01*
X252149Y453000D01*
X252308Y450990D01*
X252778Y449029D01*
X253550Y447166D01*
X254604Y445447D01*
X255913Y443913D01*
X257447Y442604D01*
X259166Y441550D01*
X261029Y440778D01*
X262990Y440308D01*
X265000Y440149D01*
X267010Y440308D01*
X268971Y440778D01*
X270834Y441550D01*
X272553Y442604D01*
X274087Y443913D01*
X275396Y445447D01*
X276450Y447166D01*
X277222Y449029D01*
X277692Y450990D01*
X277851Y453000D01*
X277692Y455010D01*
X277222Y456971D01*
X276450Y458834D01*
X275396Y460553D01*
X274087Y462087D01*
X272553Y463396D01*
X270834Y464450D01*
X268971Y465222D01*
X267010Y465692D01*
X265000Y465851D01*
D02*
G37*
G36*
X260453Y407953D02*
X252547D01*
Y400047D01*
X260453D01*
Y407953D01*
D02*
G37*
G36*
X274500Y385296D02*
Y383500D01*
X276297D01*
X276214Y383916D01*
X275695Y384694D01*
X274917Y385213D01*
X274500Y385296D01*
D02*
G37*
G36*
X295000Y421679D02*
X294024Y421485D01*
X293198Y420932D01*
X292645Y420106D01*
X292451Y419130D01*
Y385556D01*
X287698Y380802D01*
X286444Y379549D01*
X276666D01*
X276136Y380508D01*
X275857Y381549D01*
X276214Y382083D01*
X276297Y382500D01*
X274000D01*
Y383000D01*
X273500D01*
Y385296D01*
X273083Y385213D01*
X272306Y384694D01*
X272110Y384400D01*
X270538Y384193D01*
X269722Y384374D01*
X269682Y384420D01*
Y391500D01*
X269554Y392144D01*
X269190Y392690D01*
X269190Y392690D01*
X266690Y395190D01*
X266144Y395554D01*
X265500Y395682D01*
X260082D01*
X259953Y395993D01*
X259319Y396819D01*
X258493Y397453D01*
X257532Y397851D01*
X256500Y397987D01*
X255468Y397851D01*
X254507Y397453D01*
X253681Y396819D01*
X253047Y395993D01*
X252649Y395032D01*
X252513Y394000D01*
X252649Y392968D01*
X253047Y392007D01*
X253681Y391181D01*
X254507Y390547D01*
X255468Y390149D01*
X256500Y390013D01*
X257532Y390149D01*
X258493Y390547D01*
X259319Y391181D01*
X259953Y392007D01*
X260082Y392318D01*
X264803D01*
X266318Y390803D01*
Y379289D01*
X265390Y378439D01*
X263770Y378532D01*
X263391Y378742D01*
X263182Y379081D01*
Y383000D01*
X263054Y383644D01*
X262690Y384190D01*
X262690Y384190D01*
X261831Y385048D01*
X261285Y385413D01*
X260641Y385541D01*
X260140D01*
X259953Y385993D01*
X259319Y386819D01*
X258493Y387453D01*
X257532Y387851D01*
X256500Y387987D01*
X255468Y387851D01*
X254507Y387453D01*
X253681Y386819D01*
X253047Y385993D01*
X252649Y385032D01*
X252513Y384000D01*
X252649Y382968D01*
X253047Y382007D01*
X253681Y381181D01*
X254507Y380547D01*
X255468Y380149D01*
X256500Y380013D01*
X257480Y379000D01*
X256500Y377987D01*
X255468Y377851D01*
X254507Y377453D01*
X253681Y376819D01*
X253047Y375993D01*
X252649Y375032D01*
X252513Y374000D01*
X252649Y372968D01*
X253047Y372007D01*
X253681Y371181D01*
X254507Y370547D01*
X255468Y370149D01*
X256500Y370013D01*
X257532Y370149D01*
X258493Y370547D01*
X259319Y371181D01*
X259953Y372007D01*
X260351Y372968D01*
X262459Y373661D01*
X266107Y370014D01*
X266104Y370000D01*
X266286Y369083D01*
X266806Y368306D01*
X267583Y367786D01*
X268500Y367604D01*
X269417Y367786D01*
X270194Y368306D01*
X270714Y369083D01*
X270896Y370000D01*
X270714Y370917D01*
X270194Y371694D01*
X269417Y372214D01*
X268935Y372309D01*
X268424Y373336D01*
X268917Y375286D01*
X269694Y375806D01*
X270243Y375867D01*
X271908Y375631D01*
X272198Y375198D01*
X273025Y374645D01*
X274000Y374451D01*
X287500D01*
X288475Y374645D01*
X289302Y375198D01*
X289500Y375395D01*
X292451Y372444D01*
Y337500D01*
Y260556D01*
X290944Y259049D01*
X281639D01*
X280691Y261049D01*
X280714Y261083D01*
X280896Y262000D01*
X280714Y262917D01*
X280194Y263694D01*
X280182Y263702D01*
Y281000D01*
X280054Y281644D01*
X279690Y282190D01*
X279690Y282190D01*
X277190Y284690D01*
X276644Y285054D01*
X276000Y285182D01*
X260289D01*
X259953Y285993D01*
X259319Y286819D01*
X258493Y287453D01*
X257532Y287851D01*
X256500Y287987D01*
X255468Y287851D01*
X254507Y287453D01*
X253681Y286819D01*
X253047Y285993D01*
X252649Y285032D01*
X252513Y284000D01*
X252649Y282968D01*
X253047Y282007D01*
X253681Y281181D01*
X254507Y280547D01*
X255468Y280149D01*
X256500Y280013D01*
X257532Y280149D01*
X258493Y280547D01*
X259319Y281181D01*
X259808Y281818D01*
X275303D01*
X276818Y280303D01*
Y270012D01*
X276466Y269731D01*
X274818Y269126D01*
X274476Y269355D01*
X273500Y269549D01*
X272524Y269355D01*
X271698Y268802D01*
X271145Y267975D01*
X270951Y267000D01*
Y259942D01*
X271145Y258967D01*
X271698Y258140D01*
X275140Y254698D01*
X275967Y254145D01*
X276942Y253951D01*
X291444D01*
X292451Y252944D01*
Y199500D01*
Y162556D01*
X289444Y159549D01*
X280165D01*
X279635Y160509D01*
X279357Y161549D01*
X279714Y162083D01*
X279797Y162500D01*
X277500D01*
Y163000D01*
X277000D01*
Y165297D01*
X276583Y165214D01*
X275806Y164694D01*
X275556Y164320D01*
X273556Y164688D01*
Y171365D01*
X273428Y172009D01*
X273063Y172555D01*
X270190Y175428D01*
X270190Y175428D01*
X270190Y175428D01*
X269428Y176190D01*
X268882Y176554D01*
X268238Y176682D01*
X259564D01*
X259443Y176658D01*
X259319Y176819D01*
X258493Y177453D01*
X257532Y177851D01*
X256500Y177987D01*
X255468Y177851D01*
X254507Y177453D01*
X253681Y176819D01*
X253047Y175993D01*
X252649Y175032D01*
X252513Y174000D01*
X252649Y172968D01*
X253047Y172007D01*
X253681Y171181D01*
X254507Y170547D01*
X255468Y170149D01*
X256500Y170013D01*
X257532Y170149D01*
X258493Y170547D01*
X259319Y171181D01*
X259953Y172007D01*
X260351Y172968D01*
X260397Y173318D01*
X267542D01*
X267810Y173049D01*
X267810Y173049D01*
X270191Y170668D01*
Y156574D01*
X268191Y155494D01*
X268042Y155592D01*
Y163140D01*
X267915Y163784D01*
X267550Y164329D01*
X267550Y164329D01*
X266410Y165469D01*
X265864Y165834D01*
X265220Y165962D01*
X259966D01*
X259953Y165993D01*
X259319Y166819D01*
X258493Y167453D01*
X257532Y167851D01*
X256500Y167987D01*
X255468Y167851D01*
X254507Y167453D01*
X253681Y166819D01*
X253047Y165993D01*
X252649Y165032D01*
X252513Y164000D01*
X252649Y162968D01*
X253047Y162007D01*
X253681Y161181D01*
X254507Y160547D01*
X255468Y160149D01*
X256500Y160013D01*
X257532Y160149D01*
X258493Y160547D01*
X259319Y161181D01*
X259953Y162007D01*
X260197Y162597D01*
X264524D01*
X264678Y162443D01*
Y152640D01*
X264806Y151996D01*
X265171Y151450D01*
X265607Y151014D01*
X265604Y151000D01*
X265786Y150083D01*
X266306Y149306D01*
X267083Y148786D01*
X268000Y148604D01*
X268917Y148786D01*
X269607Y149248D01*
X269694Y149306D01*
X270798Y149990D01*
X272083Y149786D01*
X272190Y149765D01*
X273000Y149604D01*
X273917Y149786D01*
X274694Y150306D01*
X275214Y151083D01*
X275396Y152000D01*
X275286Y152554D01*
X275510Y153148D01*
X275802Y153571D01*
X276594Y154451D01*
X287444D01*
X292451Y149444D01*
Y144530D01*
X292444Y144493D01*
Y142007D01*
X292451Y141970D01*
Y116000D01*
X292645Y115024D01*
X293198Y114198D01*
X294024Y113645D01*
X295000Y113451D01*
X295975Y113645D01*
X296802Y114198D01*
X297355Y115024D01*
X297549Y116000D01*
Y142000D01*
X297542Y142037D01*
Y144463D01*
X297549Y144500D01*
Y150500D01*
X297355Y151476D01*
X296802Y152302D01*
X293105Y156000D01*
X296802Y159698D01*
X297355Y160524D01*
X297549Y161500D01*
Y199500D01*
Y254000D01*
X297355Y254976D01*
X296802Y255802D01*
X295855Y256750D01*
X296802Y257698D01*
X297355Y258524D01*
X297549Y259500D01*
X297499Y259750D01*
X297549Y260000D01*
Y308664D01*
X297550Y308668D01*
X297549Y308672D01*
Y337500D01*
Y373500D01*
X297355Y374476D01*
X296802Y375302D01*
X293105Y379000D01*
X296802Y382698D01*
X297355Y383524D01*
X297549Y384500D01*
Y419130D01*
X297355Y420106D01*
X296802Y420932D01*
X295975Y421485D01*
X295000Y421679D01*
D02*
G37*
G36*
X256500Y367987D02*
X255468Y367851D01*
X254507Y367453D01*
X253681Y366819D01*
X253047Y365993D01*
X252649Y365032D01*
X252513Y364000D01*
X252649Y362968D01*
X253047Y362007D01*
X253681Y361181D01*
X254507Y360547D01*
X255468Y360149D01*
X256500Y360013D01*
X257532Y360149D01*
X258493Y360547D01*
X259319Y361181D01*
X259953Y362007D01*
X260351Y362968D01*
X260487Y364000D01*
X260351Y365032D01*
X259953Y365993D01*
X259319Y366819D01*
X258493Y367453D01*
X257532Y367851D01*
X256500Y367987D01*
D02*
G37*
G36*
X303500Y341797D02*
Y340000D01*
X305297D01*
X305214Y340417D01*
X304694Y341194D01*
X303917Y341714D01*
X303500Y341797D01*
D02*
G37*
G36*
X302500D02*
X302083Y341714D01*
X301306Y341194D01*
X300786Y340417D01*
X300703Y340000D01*
X302500D01*
Y341797D01*
D02*
G37*
G36*
X305297Y339000D02*
X303500D01*
Y337203D01*
X303917Y337286D01*
X304694Y337806D01*
X305214Y338583D01*
X305297Y339000D01*
D02*
G37*
G36*
X302500D02*
X300703D01*
X300786Y338583D01*
X301306Y337806D01*
X302083Y337286D01*
X302500Y337203D01*
Y339000D01*
D02*
G37*
G36*
X318000Y301297D02*
Y299500D01*
X319797D01*
X319714Y299917D01*
X319194Y300694D01*
X318417Y301214D01*
X318000Y301297D01*
D02*
G37*
G36*
X317000D02*
X316583Y301214D01*
X315806Y300694D01*
X315286Y299917D01*
X315203Y299500D01*
X317000D01*
Y301297D01*
D02*
G37*
G36*
X319797Y298500D02*
X318000D01*
Y296703D01*
X318417Y296786D01*
X319194Y297306D01*
X319714Y298083D01*
X319797Y298500D01*
D02*
G37*
G36*
X317000D02*
X315203D01*
X315286Y298083D01*
X315806Y297306D01*
X316583Y296786D01*
X317000Y296703D01*
Y298500D01*
D02*
G37*
G36*
X260453Y297953D02*
X252547D01*
Y290047D01*
X260453D01*
Y297953D01*
D02*
G37*
G36*
X270500Y275297D02*
Y273500D01*
X272297D01*
X272214Y273917D01*
X271694Y274694D01*
X270917Y275214D01*
X270500Y275297D01*
D02*
G37*
G36*
X272297Y272500D02*
X270500D01*
Y270703D01*
X270917Y270786D01*
X271694Y271306D01*
X272214Y272083D01*
X272297Y272500D01*
D02*
G37*
G36*
X256500Y267987D02*
X255468Y267851D01*
X254507Y267453D01*
X253681Y266819D01*
X253047Y265993D01*
X252649Y265032D01*
X252513Y264000D01*
X252649Y262968D01*
X253047Y262007D01*
X253681Y261181D01*
X254507Y260547D01*
X255468Y260149D01*
X256500Y260013D01*
X257532Y260149D01*
X258493Y260547D01*
X259319Y261181D01*
X259953Y262007D01*
X260351Y262968D01*
X260487Y264000D01*
X260351Y265032D01*
X259953Y265993D01*
X259319Y266819D01*
X258493Y267453D01*
X257532Y267851D01*
X256500Y267987D01*
D02*
G37*
G36*
Y277987D02*
X255468Y277851D01*
X254507Y277453D01*
X253681Y276819D01*
X253047Y275993D01*
X252649Y275032D01*
X252513Y274000D01*
X252649Y272968D01*
X253047Y272007D01*
X253681Y271181D01*
X254507Y270547D01*
X255468Y270149D01*
X256500Y270013D01*
X257532Y270149D01*
X258493Y270547D01*
X259319Y271181D01*
X259352Y271223D01*
X261544Y271468D01*
X261852Y271364D01*
X264818Y268398D01*
Y261202D01*
X264806Y261194D01*
X264286Y260417D01*
X264104Y259500D01*
X264286Y258583D01*
X264806Y257806D01*
X265583Y257286D01*
X266500Y257104D01*
X267417Y257286D01*
X268194Y257806D01*
X268714Y258583D01*
X268896Y259500D01*
X268714Y260417D01*
X268194Y261194D01*
X268182Y261202D01*
Y269095D01*
X268182Y269095D01*
X268295Y269307D01*
X269489Y270509D01*
X269500Y270515D01*
Y273000D01*
Y275297D01*
X269083Y275214D01*
X268306Y274694D01*
X267786Y273917D01*
X267637Y273166D01*
X267010Y272768D01*
X265711Y272263D01*
X262785Y275190D01*
X262239Y275554D01*
X261595Y275682D01*
X260082D01*
X259953Y275993D01*
X259319Y276819D01*
X258493Y277453D01*
X257532Y277851D01*
X256500Y277987D01*
D02*
G37*
G36*
Y257987D02*
X255468Y257851D01*
X254507Y257453D01*
X253681Y256819D01*
X253047Y255993D01*
X252649Y255032D01*
X252513Y254000D01*
X252649Y252968D01*
X253047Y252007D01*
X253681Y251181D01*
X254507Y250547D01*
X255468Y250149D01*
X256500Y250013D01*
X257532Y250149D01*
X258493Y250547D01*
X259319Y251181D01*
X259953Y252007D01*
X260351Y252968D01*
X260487Y254000D01*
X260351Y255032D01*
X259953Y255993D01*
X259319Y256819D01*
X258493Y257453D01*
X257532Y257851D01*
X256500Y257987D01*
D02*
G37*
G36*
X304000Y230297D02*
Y228500D01*
X305797D01*
X305714Y228917D01*
X305194Y229694D01*
X304417Y230214D01*
X304000Y230297D01*
D02*
G37*
G36*
X303000D02*
X302583Y230214D01*
X301806Y229694D01*
X301286Y228917D01*
X301203Y228500D01*
X303000D01*
Y230297D01*
D02*
G37*
G36*
X305797Y227500D02*
X304000D01*
Y225703D01*
X304417Y225786D01*
X305194Y226306D01*
X305714Y227083D01*
X305797Y227500D01*
D02*
G37*
G36*
X303000D02*
X301203D01*
X301286Y227083D01*
X301806Y226306D01*
X302583Y225786D01*
X303000Y225703D01*
Y227500D01*
D02*
G37*
G36*
X318336Y189942D02*
Y188145D01*
X320133D01*
X320050Y188562D01*
X319530Y189339D01*
X318753Y189859D01*
X318336Y189942D01*
D02*
G37*
G36*
X317336D02*
X316919Y189859D01*
X316142Y189339D01*
X315622Y188562D01*
X315540Y188145D01*
X317336D01*
Y189942D01*
D02*
G37*
G36*
X320133Y187145D02*
X318336D01*
Y185349D01*
X318753Y185432D01*
X319530Y185951D01*
X320050Y186728D01*
X320133Y187145D01*
D02*
G37*
G36*
X317336D02*
X315540D01*
X315622Y186728D01*
X316142Y185951D01*
X316919Y185432D01*
X317336Y185349D01*
Y187145D01*
D02*
G37*
G36*
X260453Y187953D02*
X252547D01*
Y180047D01*
X260453D01*
Y187953D01*
D02*
G37*
G36*
X278000Y165297D02*
Y163500D01*
X279797D01*
X279714Y163917D01*
X279194Y164694D01*
X278417Y165214D01*
X278000Y165297D01*
D02*
G37*
G36*
X256500Y157987D02*
X255468Y157851D01*
X254507Y157453D01*
X253681Y156819D01*
X253047Y155993D01*
X252649Y155032D01*
X252513Y154000D01*
X252649Y152968D01*
X253047Y152007D01*
X253681Y151181D01*
X254507Y150547D01*
X255468Y150149D01*
X256500Y150013D01*
X257532Y150149D01*
X258493Y150547D01*
X259319Y151181D01*
X259953Y152007D01*
X260351Y152968D01*
X260487Y154000D01*
X260351Y155032D01*
X259953Y155993D01*
X259319Y156819D01*
X258493Y157453D01*
X257532Y157851D01*
X256500Y157987D01*
D02*
G37*
G36*
Y147987D02*
X255468Y147851D01*
X254507Y147453D01*
X253681Y146819D01*
X253047Y145993D01*
X252649Y145032D01*
X252513Y144000D01*
X252649Y142968D01*
X253047Y142007D01*
X253681Y141181D01*
X254507Y140547D01*
X255468Y140149D01*
X256500Y140013D01*
X257532Y140149D01*
X258493Y140547D01*
X259319Y141181D01*
X259953Y142007D01*
X260351Y142968D01*
X260487Y144000D01*
X260351Y145032D01*
X259953Y145993D01*
X259319Y146819D01*
X258493Y147453D01*
X257532Y147851D01*
X256500Y147987D01*
D02*
G37*
G36*
X304500Y116797D02*
Y115000D01*
X306297D01*
X306214Y115417D01*
X305694Y116194D01*
X304917Y116714D01*
X304500Y116797D01*
D02*
G37*
G36*
X303500D02*
X303083Y116714D01*
X302306Y116194D01*
X301786Y115417D01*
X301703Y115000D01*
X303500D01*
Y116797D01*
D02*
G37*
G36*
X306297Y114000D02*
X304500D01*
Y112203D01*
X304917Y112286D01*
X305694Y112806D01*
X306214Y113583D01*
X306297Y114000D01*
D02*
G37*
G36*
X303500D02*
X301703D01*
X301786Y113583D01*
X302306Y112806D01*
X303083Y112286D01*
X303500Y112203D01*
Y114000D01*
D02*
G37*
G36*
X265000Y132851D02*
X262990Y132692D01*
X261029Y132222D01*
X259166Y131450D01*
X257447Y130396D01*
X255913Y129087D01*
X254604Y127553D01*
X253550Y125834D01*
X252778Y123971D01*
X252308Y122010D01*
X252149Y120000D01*
X252308Y117990D01*
X252778Y116029D01*
X253550Y114166D01*
X254604Y112447D01*
X255913Y110913D01*
X257447Y109604D01*
X259166Y108550D01*
X261029Y107778D01*
X262990Y107308D01*
X265000Y107149D01*
X267010Y107308D01*
X268971Y107778D01*
X270834Y108550D01*
X272553Y109604D01*
X274087Y110913D01*
X275396Y112447D01*
X276450Y114166D01*
X277222Y116029D01*
X277692Y117990D01*
X277851Y120000D01*
X277692Y122010D01*
X277222Y123971D01*
X276450Y125834D01*
X275396Y127553D01*
X274087Y129087D01*
X272553Y130396D01*
X270834Y131450D01*
X268971Y132222D01*
X267010Y132692D01*
X265000Y132851D01*
D02*
G37*
G36*
X358500Y459987D02*
X357468Y459851D01*
X356507Y459453D01*
X355681Y458819D01*
X355047Y457993D01*
X354649Y457032D01*
X354513Y456000D01*
X354649Y454968D01*
X355047Y454007D01*
X355681Y453181D01*
X356507Y452547D01*
X357468Y452149D01*
X358500Y452013D01*
X359532Y452149D01*
X360493Y452547D01*
X361319Y453181D01*
X361953Y454007D01*
X362351Y454968D01*
X362487Y456000D01*
X362351Y457032D01*
X361953Y457993D01*
X361319Y458819D01*
X360493Y459453D01*
X359532Y459851D01*
X358500Y459987D01*
D02*
G37*
G36*
X362453Y449953D02*
X359000D01*
Y446500D01*
X362453D01*
Y449953D01*
D02*
G37*
G36*
X358000D02*
X354547D01*
Y446500D01*
X358000D01*
Y449953D01*
D02*
G37*
G36*
X362453Y445500D02*
X359000D01*
Y442047D01*
X362453D01*
Y445500D01*
D02*
G37*
G36*
X358000D02*
X354547D01*
Y442047D01*
X358000D01*
Y445500D01*
D02*
G37*
G36*
X430000Y465851D02*
X427990Y465692D01*
X426029Y465222D01*
X424166Y464450D01*
X422447Y463396D01*
X420913Y462087D01*
X419604Y460553D01*
X418550Y458834D01*
X417778Y456971D01*
X417308Y455010D01*
X417149Y453000D01*
X417308Y450990D01*
X417778Y449029D01*
X418550Y447166D01*
X419604Y445447D01*
X420913Y443913D01*
X422447Y442604D01*
X424166Y441550D01*
X426029Y440778D01*
X427990Y440308D01*
X430000Y440149D01*
X432010Y440308D01*
X433971Y440778D01*
X435834Y441550D01*
X437553Y442604D01*
X439087Y443913D01*
X440396Y445447D01*
X441450Y447166D01*
X442222Y449029D01*
X442692Y450990D01*
X442851Y453000D01*
X442692Y455010D01*
X442222Y456971D01*
X441450Y458834D01*
X440396Y460553D01*
X439087Y462087D01*
X437553Y463396D01*
X435834Y464450D01*
X433971Y465222D01*
X432010Y465692D01*
X430000Y465851D01*
D02*
G37*
G36*
X424000Y426549D02*
X423025Y426355D01*
X422198Y425802D01*
X421645Y424975D01*
X421451Y424000D01*
Y415932D01*
X420820Y415503D01*
X419451Y415163D01*
X418045Y416569D01*
X417218Y417122D01*
X416243Y417316D01*
X408968D01*
X408875Y417387D01*
X408146Y417690D01*
X407362Y417793D01*
X406579Y417690D01*
X405849Y417387D01*
X405223Y416906D01*
X404742Y416280D01*
X404440Y415550D01*
X404337Y414767D01*
X404440Y413983D01*
X404742Y413254D01*
X405223Y412627D01*
X405849Y412146D01*
X406579Y411844D01*
X407362Y411741D01*
X408146Y411844D01*
X408875Y412146D01*
X408968Y412218D01*
X415187D01*
X415451Y411953D01*
Y394000D01*
X415645Y393024D01*
X416198Y392198D01*
X423895Y384500D01*
X417698Y378302D01*
X417145Y377476D01*
X416951Y376500D01*
Y351079D01*
X417145Y350103D01*
X417698Y349277D01*
X422463Y344511D01*
X423290Y343958D01*
X424266Y343764D01*
X425241Y343958D01*
X426068Y344511D01*
X426621Y345338D01*
X426815Y346313D01*
X426621Y347289D01*
X426068Y348116D01*
X422049Y352135D01*
Y375444D01*
X428556Y381951D01*
X434090D01*
X434681Y381181D01*
X435507Y380547D01*
X436468Y380149D01*
X437500Y380013D01*
X438532Y380149D01*
X439493Y380547D01*
X440319Y381181D01*
X440953Y382007D01*
X441351Y382968D01*
X441487Y384000D01*
X441351Y385032D01*
X440953Y385993D01*
X440319Y386819D01*
X439493Y387453D01*
X438532Y387851D01*
X437500Y387987D01*
X436468Y387851D01*
X435507Y387453D01*
X434980Y387049D01*
X428556D01*
X426154Y389451D01*
X426982Y391451D01*
X434474D01*
X434681Y391181D01*
X435507Y390547D01*
X436468Y390149D01*
X437500Y390013D01*
X438532Y390149D01*
X439493Y390547D01*
X440319Y391181D01*
X440953Y392007D01*
X441351Y392968D01*
X441487Y394000D01*
X441351Y395032D01*
X440953Y395993D01*
X440319Y396819D01*
X439493Y397453D01*
X438532Y397851D01*
X437500Y397987D01*
X436468Y397851D01*
X435507Y397453D01*
X434681Y396819D01*
X434474Y396549D01*
X426813D01*
X426549Y396813D01*
Y424000D01*
X426355Y424975D01*
X425802Y425802D01*
X424975Y426355D01*
X424000Y426549D01*
D02*
G37*
G36*
X441453Y407953D02*
X433547D01*
Y400047D01*
X441453D01*
Y407953D01*
D02*
G37*
G36*
X437500Y377987D02*
X436468Y377851D01*
X435507Y377453D01*
X434681Y376819D01*
X434047Y375993D01*
X433649Y375032D01*
X433513Y374000D01*
X433649Y372968D01*
X434047Y372007D01*
X434681Y371181D01*
X435507Y370547D01*
X436468Y370149D01*
X437500Y370013D01*
X438532Y370149D01*
X439493Y370547D01*
X440319Y371181D01*
X440953Y372007D01*
X441351Y372968D01*
X441487Y374000D01*
X441351Y375032D01*
X440953Y375993D01*
X440319Y376819D01*
X439493Y377453D01*
X438532Y377851D01*
X437500Y377987D01*
D02*
G37*
G36*
X438000Y367921D02*
Y364500D01*
X441421D01*
X441351Y365032D01*
X440953Y365993D01*
X440319Y366819D01*
X439493Y367453D01*
X438532Y367851D01*
X438000Y367921D01*
D02*
G37*
G36*
X437000D02*
X436468Y367851D01*
X435507Y367453D01*
X434681Y366819D01*
X434047Y365993D01*
X433649Y365032D01*
X433579Y364500D01*
X437000D01*
Y367921D01*
D02*
G37*
G36*
X441421Y363500D02*
X438000D01*
Y360079D01*
X438532Y360149D01*
X439493Y360547D01*
X440319Y361181D01*
X440953Y362007D01*
X441351Y362968D01*
X441421Y363500D01*
D02*
G37*
G36*
X437000D02*
X433579D01*
X433649Y362968D01*
X434047Y362007D01*
X434681Y361181D01*
X435507Y360547D01*
X436468Y360149D01*
X437000Y360079D01*
Y363500D01*
D02*
G37*
G36*
X357000Y352297D02*
Y350500D01*
X358797D01*
X358714Y350917D01*
X358194Y351694D01*
X357417Y352214D01*
X357000Y352297D01*
D02*
G37*
G36*
X356000D02*
X355583Y352214D01*
X354806Y351694D01*
X354286Y350917D01*
X354203Y350500D01*
X356000D01*
Y352297D01*
D02*
G37*
G36*
X358797Y349500D02*
X357000D01*
Y347703D01*
X357417Y347786D01*
X358194Y348306D01*
X358714Y349083D01*
X358797Y349500D01*
D02*
G37*
G36*
X356000D02*
X354203D01*
X354286Y349083D01*
X354806Y348306D01*
X355583Y347786D01*
X356000Y347703D01*
Y349500D01*
D02*
G37*
G36*
X356303Y334383D02*
Y331923D01*
X358763D01*
X358726Y332206D01*
X358424Y332936D01*
X357943Y333562D01*
X357316Y334043D01*
X356587Y334346D01*
X356303Y334383D01*
D02*
G37*
G36*
X355303D02*
X355020Y334346D01*
X354290Y334043D01*
X353664Y333562D01*
X353183Y332936D01*
X352881Y332206D01*
X352843Y331923D01*
X355303D01*
Y334383D01*
D02*
G37*
G36*
X358763Y330923D02*
X356303D01*
Y328463D01*
X356587Y328500D01*
X357316Y328802D01*
X357943Y329283D01*
X358424Y329910D01*
X358726Y330640D01*
X358763Y330923D01*
D02*
G37*
G36*
X355303D02*
X352843D01*
X352881Y330640D01*
X353183Y329910D01*
X353664Y329283D01*
X354290Y328802D01*
X355020Y328500D01*
X355303Y328463D01*
Y330923D01*
D02*
G37*
G36*
X427000Y316049D02*
X426024Y315855D01*
X425198Y315302D01*
X424645Y314475D01*
X424451Y313500D01*
Y307482D01*
X422451Y306654D01*
X421802Y307302D01*
X420975Y307855D01*
X420000Y308049D01*
X409461D01*
X408486Y307855D01*
X407714Y307339D01*
X407083Y307214D01*
X406306Y306694D01*
X405786Y305917D01*
X405604Y305000D01*
X405786Y304083D01*
X406306Y303306D01*
X407083Y302786D01*
X408000Y302604D01*
X408917Y302786D01*
X409232Y302997D01*
X409461Y302951D01*
X418944D01*
X418951Y302944D01*
Y280000D01*
X419145Y279025D01*
X419698Y278198D01*
X423395Y274500D01*
X420662Y271767D01*
X420110Y270940D01*
X419916Y269965D01*
Y235035D01*
X420110Y234060D01*
X420662Y233233D01*
X421489Y232681D01*
X422465Y232487D01*
X423440Y232681D01*
X424267Y233233D01*
X424820Y234060D01*
X425014Y235035D01*
Y268909D01*
X428056Y271951D01*
X434090D01*
X434681Y271181D01*
X435507Y270547D01*
X436468Y270149D01*
X437500Y270013D01*
X438532Y270149D01*
X439493Y270547D01*
X440319Y271181D01*
X440953Y272007D01*
X441351Y272968D01*
X441487Y274000D01*
X441351Y275032D01*
X440953Y275993D01*
X440319Y276819D01*
X439493Y277453D01*
X438532Y277851D01*
X437500Y277987D01*
X436468Y277851D01*
X435507Y277453D01*
X434980Y277049D01*
X428056D01*
X424677Y280427D01*
X424827Y281497D01*
X426946Y282206D01*
X426955Y282198D01*
X427782Y281645D01*
X428757Y281451D01*
X434474D01*
X434681Y281181D01*
X435507Y280547D01*
X436468Y280149D01*
X437500Y280013D01*
X438532Y280149D01*
X439493Y280547D01*
X440319Y281181D01*
X440953Y282007D01*
X441351Y282968D01*
X441487Y284000D01*
X441351Y285032D01*
X440953Y285993D01*
X440319Y286819D01*
X439493Y287453D01*
X438532Y287851D01*
X437500Y287987D01*
X436468Y287851D01*
X435507Y287453D01*
X434681Y286819D01*
X434474Y286549D01*
X429813D01*
X429549Y286813D01*
Y313500D01*
X429355Y314475D01*
X428802Y315302D01*
X427976Y315855D01*
X427000Y316049D01*
D02*
G37*
G36*
X441453Y297953D02*
X433547D01*
Y290047D01*
X441453D01*
Y297953D01*
D02*
G37*
G36*
X437500Y267987D02*
X436468Y267851D01*
X435507Y267453D01*
X434681Y266819D01*
X434047Y265993D01*
X433649Y265032D01*
X433513Y264000D01*
X433649Y262968D01*
X434047Y262007D01*
X434681Y261181D01*
X435507Y260547D01*
X436468Y260149D01*
X437500Y260013D01*
X438532Y260149D01*
X439493Y260547D01*
X440319Y261181D01*
X440953Y262007D01*
X441351Y262968D01*
X441487Y264000D01*
X441351Y265032D01*
X440953Y265993D01*
X440319Y266819D01*
X439493Y267453D01*
X438532Y267851D01*
X437500Y267987D01*
D02*
G37*
G36*
X438000Y257921D02*
Y254500D01*
X441421D01*
X441351Y255032D01*
X440953Y255993D01*
X440319Y256819D01*
X439493Y257453D01*
X438532Y257851D01*
X438000Y257921D01*
D02*
G37*
G36*
X437000D02*
X436468Y257851D01*
X435507Y257453D01*
X434681Y256819D01*
X434047Y255993D01*
X433649Y255032D01*
X433579Y254500D01*
X437000D01*
Y257921D01*
D02*
G37*
G36*
X441421Y253500D02*
X438000D01*
Y250079D01*
X438532Y250149D01*
X439493Y250547D01*
X440319Y251181D01*
X440953Y252007D01*
X441351Y252968D01*
X441421Y253500D01*
D02*
G37*
G36*
X437000D02*
X433579D01*
X433649Y252968D01*
X434047Y252007D01*
X434681Y251181D01*
X435507Y250547D01*
X436468Y250149D01*
X437000Y250079D01*
Y253500D01*
D02*
G37*
G36*
X356500Y242797D02*
Y241000D01*
X358297D01*
X358214Y241417D01*
X357694Y242194D01*
X356917Y242714D01*
X356500Y242797D01*
D02*
G37*
G36*
X355500D02*
X355083Y242714D01*
X354306Y242194D01*
X353786Y241417D01*
X353703Y241000D01*
X355500D01*
Y242797D01*
D02*
G37*
G36*
X358297Y240000D02*
X356500D01*
Y238203D01*
X356917Y238286D01*
X357694Y238806D01*
X358214Y239583D01*
X358297Y240000D01*
D02*
G37*
G36*
X355500D02*
X353703D01*
X353786Y239583D01*
X354306Y238806D01*
X355083Y238286D01*
X355500Y238203D01*
Y240000D01*
D02*
G37*
G36*
X356500Y224297D02*
Y222500D01*
X358297D01*
X358214Y222917D01*
X357694Y223694D01*
X356917Y224214D01*
X356500Y224297D01*
D02*
G37*
G36*
X355500D02*
X355083Y224214D01*
X354306Y223694D01*
X353786Y222917D01*
X353703Y222500D01*
X355500D01*
Y224297D01*
D02*
G37*
G36*
X358297Y221500D02*
X356500D01*
Y219703D01*
X356917Y219786D01*
X357694Y220306D01*
X358214Y221083D01*
X358297Y221500D01*
D02*
G37*
G36*
X355500D02*
X353703D01*
X353786Y221083D01*
X354306Y220306D01*
X355083Y219786D01*
X355500Y219703D01*
Y221500D01*
D02*
G37*
G36*
X426000Y205657D02*
X425025Y205463D01*
X424198Y204910D01*
X423645Y204083D01*
X423451Y203108D01*
Y197267D01*
X421603Y196502D01*
X421302Y196802D01*
X420475Y197355D01*
X419500Y197549D01*
X418525Y197355D01*
X417698Y196802D01*
X417145Y195975D01*
X416951Y195000D01*
X417145Y194025D01*
X417698Y193198D01*
X419451Y191444D01*
Y168750D01*
X419645Y167774D01*
X420198Y166948D01*
X423145Y164000D01*
X420698Y161552D01*
X420145Y160725D01*
X419951Y159750D01*
Y125000D01*
X420145Y124024D01*
X420698Y123198D01*
X421524Y122645D01*
X422500Y122451D01*
X423476Y122645D01*
X424302Y123198D01*
X424855Y124024D01*
X425049Y125000D01*
Y158694D01*
X427806Y161451D01*
X434474D01*
X434681Y161181D01*
X435507Y160547D01*
X436468Y160149D01*
X437500Y160013D01*
X438532Y160149D01*
X439493Y160547D01*
X440319Y161181D01*
X440953Y162007D01*
X441351Y162968D01*
X441487Y164000D01*
X441351Y165032D01*
X440953Y165993D01*
X440319Y166819D01*
X439493Y167453D01*
X438532Y167851D01*
X437500Y167987D01*
X436468Y167851D01*
X435507Y167453D01*
X434681Y166819D01*
X434474Y166549D01*
X427806D01*
X425228Y169127D01*
X425385Y170218D01*
X425647Y170486D01*
X427428Y171517D01*
X427757Y171451D01*
X434474D01*
X434681Y171181D01*
X435507Y170547D01*
X436468Y170149D01*
X437500Y170013D01*
X438532Y170149D01*
X439493Y170547D01*
X440319Y171181D01*
X440953Y172007D01*
X441351Y172968D01*
X441487Y174000D01*
X441351Y175032D01*
X440953Y175993D01*
X440319Y176819D01*
X439493Y177453D01*
X438532Y177851D01*
X437500Y177987D01*
X436468Y177851D01*
X435507Y177453D01*
X434681Y176819D01*
X434474Y176549D01*
X428813D01*
X428549Y176813D01*
Y203108D01*
X428355Y204083D01*
X427802Y204910D01*
X426975Y205463D01*
X426000Y205657D01*
D02*
G37*
G36*
X441453Y187953D02*
X433547D01*
Y180047D01*
X441453D01*
Y187953D01*
D02*
G37*
G36*
X437500Y157987D02*
X436468Y157851D01*
X435507Y157453D01*
X434681Y156819D01*
X434047Y155993D01*
X433649Y155032D01*
X433513Y154000D01*
X433649Y152968D01*
X434047Y152007D01*
X434681Y151181D01*
X435507Y150547D01*
X436468Y150149D01*
X437500Y150013D01*
X438532Y150149D01*
X439493Y150547D01*
X440319Y151181D01*
X440953Y152007D01*
X441351Y152968D01*
X441487Y154000D01*
X441351Y155032D01*
X440953Y155993D01*
X440319Y156819D01*
X439493Y157453D01*
X438532Y157851D01*
X437500Y157987D01*
D02*
G37*
G36*
X438000Y147921D02*
Y144500D01*
X441421D01*
X441351Y145032D01*
X440953Y145993D01*
X440319Y146819D01*
X439493Y147453D01*
X438532Y147851D01*
X438000Y147921D01*
D02*
G37*
G36*
X437000D02*
X436468Y147851D01*
X435507Y147453D01*
X434681Y146819D01*
X434047Y145993D01*
X433649Y145032D01*
X433579Y144500D01*
X437000D01*
Y147921D01*
D02*
G37*
G36*
X441421Y143500D02*
X438000D01*
Y140079D01*
X438532Y140149D01*
X439493Y140547D01*
X440319Y141181D01*
X440953Y142007D01*
X441351Y142968D01*
X441421Y143500D01*
D02*
G37*
G36*
X437000D02*
X433579D01*
X433649Y142968D01*
X434047Y142007D01*
X434681Y141181D01*
X435507Y140547D01*
X436468Y140149D01*
X437000Y140079D01*
Y143500D01*
D02*
G37*
G36*
X369875Y434924D02*
X368899Y434730D01*
X368893Y434726D01*
X368833Y434714D01*
X368056Y434194D01*
X367536Y433417D01*
X367524Y433357D01*
X367520Y433351D01*
X367326Y432375D01*
Y406125D01*
X367520Y405150D01*
X367554Y405099D01*
Y320003D01*
X367748Y319027D01*
X368301Y318200D01*
X368400Y318134D01*
Y297257D01*
X368306Y297194D01*
X367786Y296417D01*
X367604Y295500D01*
X367786Y294583D01*
X368306Y293806D01*
X368318Y293798D01*
Y214202D01*
X368306Y214194D01*
X367786Y213417D01*
X367604Y212500D01*
X367786Y211583D01*
X368306Y210806D01*
X368318Y210798D01*
Y188799D01*
X367815Y188047D01*
X367633Y187130D01*
X367815Y186213D01*
X368335Y185436D01*
X368347Y185428D01*
Y138971D01*
X368475Y138327D01*
X368839Y137781D01*
X373810Y132810D01*
X373810Y132810D01*
X374356Y132446D01*
X375000Y132318D01*
X375000Y132318D01*
X397298D01*
X397306Y132306D01*
X398083Y131786D01*
X399000Y131604D01*
X399917Y131786D01*
X400694Y132306D01*
X401214Y133083D01*
X401396Y134000D01*
X401214Y134917D01*
X400694Y135694D01*
X399917Y136214D01*
X399000Y136396D01*
X398083Y136214D01*
X397306Y135694D01*
X397298Y135682D01*
X375697D01*
X371711Y139668D01*
Y185428D01*
X371723Y185436D01*
X372243Y186213D01*
X372425Y187130D01*
X372243Y188047D01*
X371723Y188825D01*
X371682Y188852D01*
Y210798D01*
X371694Y210806D01*
X372214Y211583D01*
X372396Y212500D01*
X372214Y213417D01*
X371694Y214194D01*
X371682Y214202D01*
Y293798D01*
X371694Y293806D01*
X372214Y294583D01*
X372396Y295500D01*
X372214Y296417D01*
X371764Y297090D01*
Y318106D01*
X371905Y318200D01*
X372458Y319027D01*
X372652Y320003D01*
Y405897D01*
X372458Y406873D01*
X372424Y406923D01*
Y432375D01*
X372230Y433351D01*
X371677Y434177D01*
X370850Y434730D01*
X369875Y434924D01*
D02*
G37*
G36*
X356500Y129797D02*
Y128000D01*
X358297D01*
X358214Y128417D01*
X357694Y129194D01*
X356917Y129714D01*
X356500Y129797D01*
D02*
G37*
G36*
X355500D02*
X355083Y129714D01*
X354306Y129194D01*
X353786Y128417D01*
X353703Y128000D01*
X355500D01*
Y129797D01*
D02*
G37*
G36*
X358297Y127000D02*
X356500D01*
Y125203D01*
X356917Y125286D01*
X357694Y125806D01*
X358214Y126583D01*
X358297Y127000D01*
D02*
G37*
G36*
X355500D02*
X353703D01*
X353786Y126583D01*
X354306Y125806D01*
X355083Y125286D01*
X355500Y125203D01*
Y127000D01*
D02*
G37*
G36*
X356000Y111797D02*
Y110000D01*
X357797D01*
X357714Y110417D01*
X357194Y111194D01*
X356417Y111714D01*
X356000Y111797D01*
D02*
G37*
G36*
X355000D02*
X354583Y111714D01*
X353806Y111194D01*
X353286Y110417D01*
X353203Y110000D01*
X355000D01*
Y111797D01*
D02*
G37*
G36*
X357797Y109000D02*
X356000D01*
Y107203D01*
X356417Y107286D01*
X357194Y107806D01*
X357714Y108583D01*
X357797Y109000D01*
D02*
G37*
G36*
X355000D02*
X353203D01*
X353286Y108583D01*
X353806Y107806D01*
X354583Y107286D01*
X355000Y107203D01*
Y109000D01*
D02*
G37*
%LPD*%
D35*
X437000Y274500D02*
X437500Y274000D01*
X427000Y274500D02*
X437000D01*
X428757Y284000D02*
X437500D01*
X427000Y285757D02*
Y313500D01*
Y285757D02*
X428757Y284000D01*
X426750Y164000D02*
X437500D01*
X426000Y175757D02*
X427757Y174000D01*
X426000Y175757D02*
Y203108D01*
X427757Y174000D02*
X437500D01*
X437000Y384500D02*
X437500Y384000D01*
X427500Y384500D02*
X437000D01*
X425757Y394000D02*
X437500D01*
X424000Y395757D02*
Y424000D01*
Y395757D02*
X425757Y394000D01*
X418000D02*
X427500Y384500D01*
X437500Y364500D02*
X437744D01*
X370103Y320003D02*
Y405897D01*
X295000Y199500D02*
Y254000D01*
X289500Y379000D02*
X295000Y384500D01*
Y419130D01*
Y260000D02*
Y337500D01*
X288500Y157000D02*
X295000Y150500D01*
X369875Y406125D02*
Y432375D01*
X422500Y125000D02*
Y159750D01*
X422465Y235035D02*
Y269965D01*
X427000Y274500D01*
X437500Y254500D02*
X438286D01*
X422500Y159750D02*
X426750Y164000D01*
X422000Y168750D02*
X426750Y164000D01*
X419500Y195000D02*
X422000Y192500D01*
Y168750D02*
Y192500D01*
X421500Y280000D02*
Y304000D01*
X420000Y305500D02*
X421500Y304000D01*
Y280000D02*
X427000Y274500D01*
X409461Y305500D02*
X420000D01*
X419500Y351079D02*
X424266Y346313D01*
X419500Y376500D02*
X427500Y384500D01*
X419500Y351079D02*
Y376500D01*
X418000Y394000D02*
Y413009D01*
X416243Y414767D02*
X418000Y413009D01*
X407362Y414767D02*
X416243D01*
X274000Y377000D02*
X287500D01*
X289500Y379000D01*
X295000Y337500D02*
Y373500D01*
X289500Y379000D02*
X295000Y373500D01*
X290500Y157000D02*
X295000Y161500D01*
Y199500D01*
X288500Y157000D02*
X290500D01*
X276000D02*
X288500D01*
X295000Y144500D02*
Y150500D01*
X294993Y142007D02*
Y144493D01*
X295000Y144500D01*
X294993Y142007D02*
X295000Y142000D01*
Y116000D02*
Y142000D01*
X292500Y256500D02*
X295000Y254000D01*
X276942Y256500D02*
X292000D01*
X295000Y259500D01*
X273500Y259942D02*
Y267000D01*
Y259942D02*
X276942Y256500D01*
X437500Y144500D02*
X438056Y145056D01*
D36*
X370103Y320003D02*
X370164Y319942D01*
X370000Y406000D02*
X370103Y405897D01*
X370029Y138971D02*
X375000Y134000D01*
X370029Y138971D02*
Y187130D01*
X370000Y187159D02*
X370029Y187130D01*
X294970Y419160D02*
X295000Y419130D01*
X256500Y394000D02*
X265500D01*
X268000Y391500D01*
X261500Y377000D02*
X268500Y370000D01*
X256641Y383859D02*
X260641D01*
X256500Y384000D02*
X256641Y383859D01*
X261500Y377000D02*
Y383000D01*
X260641Y383859D02*
X261500Y383000D01*
X268000Y377500D02*
Y391500D01*
X261595Y274000D02*
X266500Y269095D01*
X256500Y274000D02*
X261595D01*
X369750Y432500D02*
X369875Y432375D01*
Y406125D02*
X370000Y406000D01*
X425932Y203175D02*
X426000Y203108D01*
X266360Y152640D02*
X268000Y151000D01*
X266360Y152640D02*
Y163140D01*
X265220Y164280D02*
X266360Y163140D01*
X256780Y164280D02*
X265220D01*
X292000Y256500D02*
X292500D01*
X295000Y259500D02*
Y260000D01*
X278500Y262000D02*
Y281000D01*
X257000Y283500D02*
X276000D01*
X278500Y281000D01*
X256500Y284000D02*
X257000Y283500D01*
X269732Y272732D02*
X270000Y273000D01*
X271873Y153462D02*
Y171365D01*
X269000Y174239D02*
X271873Y171365D01*
X273000Y152000D02*
Y152335D01*
X271873Y153462D02*
X273000Y152335D01*
X266500Y259500D02*
Y269095D01*
X269000Y174239D02*
Y174239D01*
X268238Y175000D02*
X269000Y174239D01*
X259564Y175000D02*
X268238D01*
X256500Y174000D02*
X257381Y174881D01*
X259446D01*
X259564Y175000D01*
X256500Y164000D02*
X256780Y164280D01*
X375000Y134000D02*
X399000D01*
X355500Y221500D02*
X356000Y222000D01*
X370000Y187159D02*
Y212500D01*
Y295500D01*
X355803Y222197D02*
X356000Y222000D01*
X370082Y295582D02*
Y319860D01*
X370000Y295500D02*
X370082Y295582D01*
Y319860D02*
X370164Y319942D01*
X355803Y331423D02*
X355902Y331521D01*
D39*
X437500Y364000D02*
D03*
Y374000D02*
D03*
Y384000D02*
D03*
Y394000D02*
D03*
X256500Y364000D02*
D03*
Y374000D02*
D03*
Y384000D02*
D03*
Y394000D02*
D03*
Y284000D02*
D03*
Y274000D02*
D03*
Y264000D02*
D03*
Y254000D02*
D03*
Y174000D02*
D03*
Y164000D02*
D03*
Y154000D02*
D03*
Y144000D02*
D03*
X437500Y174000D02*
D03*
Y164000D02*
D03*
Y154000D02*
D03*
Y144000D02*
D03*
Y254000D02*
D03*
Y264000D02*
D03*
Y274000D02*
D03*
Y284000D02*
D03*
X358500Y456000D02*
D03*
X320000D02*
D03*
D40*
X437500Y404000D02*
D03*
X256500D02*
D03*
Y294000D02*
D03*
Y184000D02*
D03*
X437500D02*
D03*
Y294000D02*
D03*
X358500Y446000D02*
D03*
X320000D02*
D03*
D41*
X265000Y453000D02*
D03*
Y120000D02*
D03*
X430000Y453000D02*
D03*
D42*
X370029Y187130D02*
D03*
X370000Y295500D02*
D03*
X356500Y350000D02*
D03*
X356000Y127500D02*
D03*
Y240500D02*
D03*
X273000Y152000D02*
D03*
X317836Y187645D02*
D03*
X278500Y262000D02*
D03*
X317500Y299000D02*
D03*
X422500Y125000D02*
D03*
X422465Y235035D02*
D03*
X425932Y203175D02*
D03*
X419500Y195000D02*
D03*
X427000Y313500D02*
D03*
X424000Y424000D02*
D03*
X274000Y383000D02*
D03*
X274000Y377000D02*
D03*
X268000Y377500D02*
D03*
X276000Y157000D02*
D03*
X277500Y163000D02*
D03*
X268000Y151000D02*
D03*
X273500Y267000D02*
D03*
X270000Y273000D02*
D03*
X266500Y259500D02*
D03*
X268500Y370000D02*
D03*
X303500Y228000D02*
D03*
X304000Y114500D02*
D03*
X295000Y116000D02*
D03*
Y199500D02*
D03*
X295089Y227594D02*
D03*
X295000Y337500D02*
D03*
X295154Y308668D02*
D03*
X399000Y134000D02*
D03*
X355500Y109500D02*
D03*
X408000Y305000D02*
D03*
X370000Y212500D02*
D03*
X356000Y222000D02*
D03*
X424266Y346313D02*
D03*
X370164Y319942D02*
D03*
X303000Y339500D02*
D03*
X294970Y419160D02*
D03*
X369750Y432500D02*
D03*
X370000Y406000D02*
D03*
D43*
X407362Y414767D02*
D03*
X355803Y331423D02*
D03*
M02*
