M48
;Layer_Color=9474304
;FILE_FORMAT=2:5
INCH,LZ
;TYPE=PLATED
T1F00S00C0.01500
T2F00S00C0.02500
T3F00S00C0.03543
T4F00S00C0.12598
%
T01
X0295Y0116
X0304Y01145
X0273Y0152
X0268Y0151
X0356Y01275
X03555Y01095
X0399Y0134
X04225Y0125
X04195Y0195
X0425932Y0203175
X0422465Y0235035
X0356Y02405
Y0222
X037Y02125
X0370029Y018713
X0317836Y0187645
X03175Y0299
X037Y02955
X0408Y0305
X0295154Y0308668
X027Y0273
X02735Y0267
X02785Y0262
X02665Y02595
X0295089Y0227594
X03035Y0228
X0295Y01995
X02775Y0163
X0276Y0157
X0295Y03375
X0303Y03395
X02685Y037
X0268Y03775
X0274Y0377
X0274Y0383
X029497Y041916
X036975Y04325
X037Y0406
X03565Y035
X0370164Y0319942
X0427Y03135
X0424266Y0346313
X0424Y0424
T02
X0355803Y0331423
X0407362Y0414767
T03
X02565Y0144
Y0154
X04375
Y0144
Y0164
Y0174
Y0184
Y0254
Y0264
Y0274
Y0284
Y0294
X02565
Y0284
Y0274
Y0264
Y0254
Y0184
Y0174
Y0164
Y0364
Y0374
Y0384
Y0394
Y0404
X032Y0446
Y0456
X03585
Y0446
X04375Y0404
Y0394
Y0384
Y0374
Y0364
T04
X0265Y012
Y0453
X043
M30
