G04*
G04 #@! TF.GenerationSoftware,Altium Limited,Altium Designer,20.2.3 (150)*
G04*
G04 Layer_Color=32768*
%FSLAX25Y25*%
%MOIN*%
G70*
G04*
G04 #@! TF.SameCoordinates,9B11B327-6EB5-4971-87C7-186C775F7969*
G04*
G04*
G04 #@! TF.FilePolarity,Positive*
G04*
G01*
G75*
G36*
X341785Y383105D02*
X341412D01*
Y383529D01*
X341785D01*
Y383105D01*
D02*
G37*
G36*
X347691Y382740D02*
X347741Y382731D01*
X347797Y382713D01*
X347861Y382694D01*
X347930Y382662D01*
X348004Y382621D01*
X347870Y382279D01*
X347866Y382284D01*
X347847Y382293D01*
X347820Y382307D01*
X347787Y382321D01*
X347746Y382335D01*
X347700Y382349D01*
X347649Y382358D01*
X347598Y382362D01*
X347580D01*
X347557Y382358D01*
X347525Y382353D01*
X347492Y382344D01*
X347456Y382330D01*
X347419Y382312D01*
X347382Y382289D01*
X347377Y382284D01*
X347368Y382275D01*
X347349Y382256D01*
X347331Y382233D01*
X347308Y382206D01*
X347285Y382169D01*
X347267Y382127D01*
X347248Y382081D01*
X347243Y382072D01*
X347239Y382049D01*
X347230Y382008D01*
X347220Y381952D01*
X347206Y381888D01*
X347197Y381814D01*
X347193Y381735D01*
X347188Y381648D01*
Y380500D01*
X346815D01*
Y382694D01*
X347151D01*
Y382367D01*
X347156Y382372D01*
X347174Y382399D01*
X347197Y382441D01*
X347225Y382487D01*
X347262Y382538D01*
X347303Y382588D01*
X347340Y382634D01*
X347382Y382667D01*
X347386Y382671D01*
X347400Y382681D01*
X347423Y382690D01*
X347456Y382708D01*
X347488Y382722D01*
X347529Y382731D01*
X347575Y382740D01*
X347621Y382745D01*
X347654D01*
X347691Y382740D01*
D02*
G37*
G36*
X340877D02*
X340928Y382731D01*
X340983Y382713D01*
X341048Y382694D01*
X341117Y382662D01*
X341191Y382621D01*
X341057Y382279D01*
X341052Y382284D01*
X341034Y382293D01*
X341006Y382307D01*
X340974Y382321D01*
X340932Y382335D01*
X340886Y382349D01*
X340835Y382358D01*
X340785Y382362D01*
X340766D01*
X340743Y382358D01*
X340711Y382353D01*
X340679Y382344D01*
X340642Y382330D01*
X340605Y382312D01*
X340568Y382289D01*
X340564Y382284D01*
X340554Y382275D01*
X340536Y382256D01*
X340517Y382233D01*
X340494Y382206D01*
X340471Y382169D01*
X340453Y382127D01*
X340435Y382081D01*
X340430Y382072D01*
X340425Y382049D01*
X340416Y382008D01*
X340407Y381952D01*
X340393Y381888D01*
X340384Y381814D01*
X340379Y381735D01*
X340374Y381648D01*
Y380500D01*
X340001D01*
Y382694D01*
X340338D01*
Y382367D01*
X340342Y382372D01*
X340361Y382399D01*
X340384Y382441D01*
X340411Y382487D01*
X340448Y382538D01*
X340490Y382588D01*
X340527Y382634D01*
X340568Y382667D01*
X340573Y382671D01*
X340587Y382681D01*
X340610Y382690D01*
X340642Y382708D01*
X340674Y382722D01*
X340716Y382731D01*
X340762Y382740D01*
X340808Y382745D01*
X340840D01*
X340877Y382740D01*
D02*
G37*
G36*
X349217Y381408D02*
X348078D01*
Y381782D01*
X349217D01*
Y381408D01*
D02*
G37*
G36*
X343306Y380500D02*
X342956D01*
X342122Y382694D01*
X342514D01*
X342984Y381376D01*
X342988Y381367D01*
X342998Y381339D01*
X343011Y381297D01*
X343030Y381242D01*
X343053Y381178D01*
X343076Y381104D01*
X343104Y381021D01*
X343127Y380938D01*
X343131Y380947D01*
X343136Y380970D01*
X343150Y381007D01*
X343164Y381053D01*
X343182Y381113D01*
X343205Y381187D01*
X343233Y381265D01*
X343265Y381353D01*
X343754Y382694D01*
X344136D01*
X343306Y380500D01*
D02*
G37*
G36*
X350927D02*
X350553D01*
Y382870D01*
X350549Y382865D01*
X350530Y382846D01*
X350498Y382823D01*
X350457Y382791D01*
X350406Y382750D01*
X350346Y382708D01*
X350277Y382658D01*
X350198Y382611D01*
X350194D01*
X350189Y382607D01*
X350162Y382588D01*
X350120Y382565D01*
X350069Y382538D01*
X350009Y382505D01*
X349945Y382478D01*
X349876Y382445D01*
X349811Y382418D01*
Y382782D01*
X349816D01*
X349825Y382787D01*
X349844Y382796D01*
X349862Y382810D01*
X349890Y382823D01*
X349922Y382837D01*
X349996Y382879D01*
X350079Y382929D01*
X350171Y382989D01*
X350263Y383059D01*
X350351Y383132D01*
X350355Y383137D01*
X350360Y383141D01*
X350387Y383169D01*
X350429Y383211D01*
X350480Y383261D01*
X350535Y383326D01*
X350590Y383395D01*
X350641Y383469D01*
X350682Y383543D01*
X350927D01*
Y380500D01*
D02*
G37*
G36*
X341785D02*
X341412D01*
Y382694D01*
X341785D01*
Y380500D01*
D02*
G37*
G36*
X338240Y383524D02*
X338323Y383520D01*
X338415Y383510D01*
X338503Y383496D01*
X338577Y383483D01*
X338581D01*
X338591Y383478D01*
X338600D01*
X338618Y383469D01*
X338669Y383455D01*
X338729Y383432D01*
X338798Y383404D01*
X338872Y383367D01*
X338945Y383321D01*
X339019Y383266D01*
X339024D01*
X339028Y383257D01*
X339061Y383229D01*
X339102Y383183D01*
X339153Y383123D01*
X339213Y383049D01*
X339273Y382962D01*
X339328Y382860D01*
X339379Y382745D01*
Y382740D01*
X339383Y382731D01*
X339388Y382713D01*
X339397Y382690D01*
X339406Y382662D01*
X339416Y382625D01*
X339429Y382584D01*
X339439Y382538D01*
X339448Y382487D01*
X339462Y382432D01*
X339480Y382312D01*
X339494Y382178D01*
X339499Y382031D01*
Y382026D01*
Y382017D01*
Y381998D01*
Y381971D01*
X339494Y381943D01*
Y381906D01*
X339489Y381823D01*
X339480Y381731D01*
X339462Y381625D01*
X339443Y381519D01*
X339416Y381417D01*
Y381413D01*
X339411Y381404D01*
X339406Y381390D01*
X339402Y381371D01*
X339383Y381325D01*
X339360Y381261D01*
X339333Y381191D01*
X339296Y381118D01*
X339254Y381044D01*
X339208Y380975D01*
X339204Y380966D01*
X339185Y380947D01*
X339162Y380915D01*
X339125Y380873D01*
X339088Y380832D01*
X339038Y380786D01*
X338987Y380740D01*
X338932Y380698D01*
X338927Y380694D01*
X338904Y380684D01*
X338872Y380666D01*
X338830Y380643D01*
X338779Y380620D01*
X338720Y380597D01*
X338650Y380574D01*
X338572Y380551D01*
X338563D01*
X338535Y380541D01*
X338494Y380537D01*
X338434Y380528D01*
X338365Y380518D01*
X338282Y380509D01*
X338189Y380505D01*
X338088Y380500D01*
X337000D01*
Y383529D01*
X338162D01*
X338240Y383524D01*
D02*
G37*
G36*
X345436Y382740D02*
X345473Y382736D01*
X345519Y382731D01*
X345565Y382722D01*
X345621Y382708D01*
X345731Y382671D01*
X345791Y382648D01*
X345851Y382616D01*
X345911Y382584D01*
X345971Y382542D01*
X346026Y382496D01*
X346082Y382441D01*
X346086Y382436D01*
X346095Y382427D01*
X346109Y382408D01*
X346128Y382385D01*
X346146Y382353D01*
X346169Y382316D01*
X346197Y382275D01*
X346225Y382224D01*
X346248Y382164D01*
X346275Y382104D01*
X346298Y382035D01*
X346321Y381957D01*
X346335Y381878D01*
X346349Y381791D01*
X346358Y381699D01*
X346363Y381597D01*
Y381593D01*
Y381574D01*
Y381542D01*
X346358Y381500D01*
X344726D01*
Y381496D01*
Y381487D01*
X344731Y381464D01*
Y381440D01*
X344736Y381408D01*
X344740Y381376D01*
X344759Y381293D01*
X344786Y381205D01*
X344819Y381113D01*
X344869Y381021D01*
X344929Y380943D01*
X344938Y380933D01*
X344962Y380915D01*
X345003Y380883D01*
X345054Y380850D01*
X345123Y380814D01*
X345201Y380781D01*
X345289Y380763D01*
X345386Y380753D01*
X345423D01*
X345459Y380758D01*
X345505Y380767D01*
X345561Y380781D01*
X345621Y380800D01*
X345681Y380823D01*
X345736Y380860D01*
X345741Y380864D01*
X345759Y380883D01*
X345787Y380906D01*
X345819Y380947D01*
X345856Y380993D01*
X345893Y381053D01*
X345930Y381127D01*
X345966Y381210D01*
X346349Y381159D01*
Y381155D01*
X346344Y381145D01*
X346340Y381127D01*
X346331Y381104D01*
X346321Y381076D01*
X346308Y381044D01*
X346271Y380966D01*
X346225Y380883D01*
X346169Y380795D01*
X346095Y380708D01*
X346013Y380634D01*
X346008D01*
X346003Y380625D01*
X345989Y380615D01*
X345966Y380606D01*
X345943Y380592D01*
X345916Y380574D01*
X345883Y380560D01*
X345842Y380541D01*
X345754Y380509D01*
X345644Y380477D01*
X345524Y380458D01*
X345386Y380449D01*
X345339D01*
X345307Y380454D01*
X345266Y380458D01*
X345220Y380463D01*
X345169Y380472D01*
X345109Y380486D01*
X344989Y380523D01*
X344925Y380546D01*
X344865Y380574D01*
X344800Y380606D01*
X344740Y380647D01*
X344680Y380694D01*
X344625Y380744D01*
X344620Y380749D01*
X344611Y380758D01*
X344597Y380777D01*
X344583Y380800D01*
X344560Y380827D01*
X344537Y380864D01*
X344510Y380910D01*
X344487Y380961D01*
X344459Y381016D01*
X344431Y381076D01*
X344408Y381145D01*
X344390Y381219D01*
X344371Y381297D01*
X344358Y381385D01*
X344348Y381477D01*
X344344Y381574D01*
Y381579D01*
Y381597D01*
Y381629D01*
X344348Y381666D01*
X344353Y381712D01*
X344358Y381768D01*
X344367Y381828D01*
X344381Y381892D01*
X344413Y382031D01*
X344436Y382100D01*
X344464Y382173D01*
X344496Y382243D01*
X344533Y382312D01*
X344574Y382376D01*
X344625Y382436D01*
X344630Y382441D01*
X344639Y382450D01*
X344653Y382464D01*
X344676Y382487D01*
X344703Y382510D01*
X344740Y382533D01*
X344777Y382561D01*
X344823Y382593D01*
X344874Y382621D01*
X344929Y382648D01*
X344989Y382671D01*
X345058Y382699D01*
X345127Y382717D01*
X345201Y382731D01*
X345280Y382740D01*
X345362Y382745D01*
X345404D01*
X345436Y382740D01*
D02*
G37*
G36*
X341785Y163105D02*
X341412D01*
Y163529D01*
X341785D01*
Y163105D01*
D02*
G37*
G36*
X347691Y162741D02*
X347741Y162731D01*
X347797Y162713D01*
X347861Y162694D01*
X347930Y162662D01*
X348004Y162621D01*
X347870Y162279D01*
X347866Y162284D01*
X347847Y162293D01*
X347820Y162307D01*
X347787Y162321D01*
X347746Y162335D01*
X347700Y162349D01*
X347649Y162358D01*
X347598Y162362D01*
X347580D01*
X347557Y162358D01*
X347525Y162353D01*
X347492Y162344D01*
X347456Y162330D01*
X347419Y162312D01*
X347382Y162289D01*
X347377Y162284D01*
X347368Y162275D01*
X347349Y162256D01*
X347331Y162233D01*
X347308Y162206D01*
X347285Y162169D01*
X347267Y162127D01*
X347248Y162081D01*
X347243Y162072D01*
X347239Y162049D01*
X347230Y162007D01*
X347220Y161952D01*
X347206Y161888D01*
X347197Y161814D01*
X347193Y161735D01*
X347188Y161648D01*
Y160500D01*
X346815D01*
Y162694D01*
X347151D01*
Y162367D01*
X347156Y162372D01*
X347174Y162399D01*
X347197Y162441D01*
X347225Y162487D01*
X347262Y162538D01*
X347303Y162588D01*
X347340Y162634D01*
X347382Y162667D01*
X347386Y162671D01*
X347400Y162680D01*
X347423Y162690D01*
X347456Y162708D01*
X347488Y162722D01*
X347529Y162731D01*
X347575Y162741D01*
X347621Y162745D01*
X347654D01*
X347691Y162741D01*
D02*
G37*
G36*
X340877D02*
X340928Y162731D01*
X340983Y162713D01*
X341048Y162694D01*
X341117Y162662D01*
X341191Y162621D01*
X341057Y162279D01*
X341052Y162284D01*
X341034Y162293D01*
X341006Y162307D01*
X340974Y162321D01*
X340932Y162335D01*
X340886Y162349D01*
X340835Y162358D01*
X340785Y162362D01*
X340766D01*
X340743Y162358D01*
X340711Y162353D01*
X340679Y162344D01*
X340642Y162330D01*
X340605Y162312D01*
X340568Y162289D01*
X340564Y162284D01*
X340554Y162275D01*
X340536Y162256D01*
X340517Y162233D01*
X340494Y162206D01*
X340471Y162169D01*
X340453Y162127D01*
X340435Y162081D01*
X340430Y162072D01*
X340425Y162049D01*
X340416Y162007D01*
X340407Y161952D01*
X340393Y161888D01*
X340384Y161814D01*
X340379Y161735D01*
X340374Y161648D01*
Y160500D01*
X340001D01*
Y162694D01*
X340338D01*
Y162367D01*
X340342Y162372D01*
X340361Y162399D01*
X340384Y162441D01*
X340411Y162487D01*
X340448Y162538D01*
X340490Y162588D01*
X340527Y162634D01*
X340568Y162667D01*
X340573Y162671D01*
X340587Y162680D01*
X340610Y162690D01*
X340642Y162708D01*
X340674Y162722D01*
X340716Y162731D01*
X340762Y162741D01*
X340808Y162745D01*
X340840D01*
X340877Y162741D01*
D02*
G37*
G36*
X350563Y163538D02*
X350623Y163529D01*
X350692Y163515D01*
X350770Y163496D01*
X350848Y163469D01*
X350927Y163432D01*
X350931D01*
X350936Y163427D01*
X350964Y163414D01*
X351001Y163391D01*
X351047Y163358D01*
X351097Y163317D01*
X351153Y163266D01*
X351203Y163206D01*
X351250Y163142D01*
X351254Y163132D01*
X351268Y163109D01*
X351286Y163072D01*
X351305Y163026D01*
X351323Y162966D01*
X351342Y162902D01*
X351356Y162833D01*
X351360Y162754D01*
Y162745D01*
Y162722D01*
X351356Y162685D01*
X351346Y162639D01*
X351332Y162584D01*
X351314Y162524D01*
X351291Y162459D01*
X351254Y162399D01*
X351250Y162390D01*
X351236Y162372D01*
X351208Y162344D01*
X351176Y162307D01*
X351130Y162266D01*
X351079Y162224D01*
X351014Y162178D01*
X350941Y162141D01*
X350945D01*
X350955Y162137D01*
X350968D01*
X350987Y162127D01*
X351033Y162113D01*
X351093Y162086D01*
X351157Y162054D01*
X351226Y162007D01*
X351296Y161952D01*
X351356Y161883D01*
X351360Y161874D01*
X351379Y161846D01*
X351402Y161805D01*
X351434Y161749D01*
X351462Y161680D01*
X351485Y161597D01*
X351503Y161500D01*
X351508Y161394D01*
Y161390D01*
Y161376D01*
Y161357D01*
X351503Y161330D01*
X351499Y161293D01*
X351494Y161256D01*
X351485Y161210D01*
X351471Y161164D01*
X351438Y161058D01*
X351415Y160998D01*
X351383Y160943D01*
X351351Y160887D01*
X351314Y160832D01*
X351268Y160777D01*
X351217Y160721D01*
X351213Y160717D01*
X351203Y160707D01*
X351190Y160698D01*
X351167Y160680D01*
X351139Y160657D01*
X351102Y160634D01*
X351061Y160611D01*
X351019Y160588D01*
X350968Y160560D01*
X350913Y160537D01*
X350853Y160514D01*
X350788Y160491D01*
X350719Y160472D01*
X350646Y160463D01*
X350567Y160454D01*
X350489Y160449D01*
X350452D01*
X350424Y160454D01*
X350387Y160459D01*
X350351Y160463D01*
X350305Y160468D01*
X350258Y160477D01*
X350152Y160505D01*
X350042Y160551D01*
X349986Y160574D01*
X349936Y160606D01*
X349880Y160643D01*
X349830Y160684D01*
X349825Y160689D01*
X349820Y160694D01*
X349807Y160707D01*
X349788Y160726D01*
X349770Y160754D01*
X349747Y160781D01*
X349719Y160813D01*
X349696Y160850D01*
X349641Y160943D01*
X349594Y161049D01*
X349553Y161169D01*
X349539Y161233D01*
X349530Y161302D01*
X349903Y161353D01*
Y161348D01*
X349908Y161339D01*
Y161321D01*
X349917Y161302D01*
X349931Y161247D01*
X349954Y161178D01*
X349982Y161104D01*
X350019Y161026D01*
X350065Y160956D01*
X350115Y160897D01*
X350125Y160892D01*
X350143Y160873D01*
X350175Y160855D01*
X350221Y160827D01*
X350272Y160804D01*
X350337Y160781D01*
X350411Y160763D01*
X350489Y160758D01*
X350517D01*
X350535Y160763D01*
X350581Y160767D01*
X350641Y160781D01*
X350715Y160804D01*
X350788Y160832D01*
X350862Y160878D01*
X350931Y160938D01*
X350941Y160947D01*
X350959Y160970D01*
X350987Y161007D01*
X351024Y161062D01*
X351056Y161127D01*
X351084Y161205D01*
X351102Y161293D01*
X351111Y161390D01*
Y161394D01*
Y161399D01*
Y161413D01*
X351107Y161431D01*
X351102Y161477D01*
X351088Y161537D01*
X351070Y161602D01*
X351037Y161676D01*
X350996Y161745D01*
X350941Y161809D01*
X350931Y161819D01*
X350913Y161837D01*
X350876Y161860D01*
X350825Y161892D01*
X350765Y161925D01*
X350692Y161948D01*
X350613Y161966D01*
X350521Y161975D01*
X350480D01*
X350447Y161971D01*
X350411Y161966D01*
X350364Y161961D01*
X350314Y161952D01*
X350258Y161938D01*
X350300Y162266D01*
X350323D01*
X350341Y162261D01*
X350401D01*
X350443Y162266D01*
X350503Y162275D01*
X350567Y162289D01*
X350636Y162312D01*
X350710Y162339D01*
X350784Y162381D01*
X350793Y162385D01*
X350816Y162404D01*
X350844Y162436D01*
X350881Y162478D01*
X350918Y162528D01*
X350945Y162593D01*
X350968Y162671D01*
X350977Y162764D01*
Y162768D01*
Y162773D01*
Y162796D01*
X350968Y162833D01*
X350959Y162883D01*
X350945Y162934D01*
X350918Y162989D01*
X350885Y163049D01*
X350839Y163100D01*
X350835Y163105D01*
X350816Y163123D01*
X350784Y163146D01*
X350742Y163169D01*
X350692Y163197D01*
X350632Y163215D01*
X350563Y163234D01*
X350484Y163238D01*
X350447D01*
X350406Y163229D01*
X350360Y163220D01*
X350300Y163206D01*
X350240Y163178D01*
X350180Y163146D01*
X350120Y163100D01*
X350115Y163095D01*
X350097Y163077D01*
X350074Y163045D01*
X350046Y162999D01*
X350014Y162943D01*
X349986Y162874D01*
X349959Y162791D01*
X349940Y162694D01*
X349567Y162759D01*
Y162764D01*
X349571Y162777D01*
X349576Y162796D01*
X349581Y162819D01*
X349590Y162851D01*
X349599Y162888D01*
X349631Y162971D01*
X349668Y163063D01*
X349724Y163160D01*
X349788Y163252D01*
X349871Y163335D01*
X349876Y163340D01*
X349880Y163344D01*
X349894Y163354D01*
X349917Y163367D01*
X349940Y163381D01*
X349968Y163400D01*
X350037Y163441D01*
X350125Y163478D01*
X350231Y163510D01*
X350346Y163533D01*
X350411Y163543D01*
X350517D01*
X350563Y163538D01*
D02*
G37*
G36*
X349217Y161408D02*
X348078D01*
Y161782D01*
X349217D01*
Y161408D01*
D02*
G37*
G36*
X343306Y160500D02*
X342956D01*
X342122Y162694D01*
X342514D01*
X342984Y161376D01*
X342988Y161367D01*
X342998Y161339D01*
X343011Y161298D01*
X343030Y161242D01*
X343053Y161178D01*
X343076Y161104D01*
X343104Y161021D01*
X343127Y160938D01*
X343131Y160947D01*
X343136Y160970D01*
X343150Y161007D01*
X343164Y161053D01*
X343182Y161113D01*
X343205Y161187D01*
X343233Y161265D01*
X343265Y161353D01*
X343754Y162694D01*
X344136D01*
X343306Y160500D01*
D02*
G37*
G36*
X341785D02*
X341412D01*
Y162694D01*
X341785D01*
Y160500D01*
D02*
G37*
G36*
X338240Y163524D02*
X338323Y163520D01*
X338415Y163510D01*
X338503Y163496D01*
X338577Y163483D01*
X338581D01*
X338591Y163478D01*
X338600D01*
X338618Y163469D01*
X338669Y163455D01*
X338729Y163432D01*
X338798Y163404D01*
X338872Y163367D01*
X338945Y163321D01*
X339019Y163266D01*
X339024D01*
X339028Y163257D01*
X339061Y163229D01*
X339102Y163183D01*
X339153Y163123D01*
X339213Y163049D01*
X339273Y162962D01*
X339328Y162860D01*
X339379Y162745D01*
Y162741D01*
X339383Y162731D01*
X339388Y162713D01*
X339397Y162690D01*
X339406Y162662D01*
X339416Y162625D01*
X339429Y162584D01*
X339439Y162538D01*
X339448Y162487D01*
X339462Y162432D01*
X339480Y162312D01*
X339494Y162178D01*
X339499Y162030D01*
Y162026D01*
Y162017D01*
Y161998D01*
Y161971D01*
X339494Y161943D01*
Y161906D01*
X339489Y161823D01*
X339480Y161731D01*
X339462Y161625D01*
X339443Y161519D01*
X339416Y161417D01*
Y161413D01*
X339411Y161404D01*
X339406Y161390D01*
X339402Y161371D01*
X339383Y161325D01*
X339360Y161261D01*
X339333Y161191D01*
X339296Y161118D01*
X339254Y161044D01*
X339208Y160975D01*
X339204Y160966D01*
X339185Y160947D01*
X339162Y160915D01*
X339125Y160873D01*
X339088Y160832D01*
X339038Y160786D01*
X338987Y160740D01*
X338932Y160698D01*
X338927Y160694D01*
X338904Y160684D01*
X338872Y160666D01*
X338830Y160643D01*
X338779Y160620D01*
X338720Y160597D01*
X338650Y160574D01*
X338572Y160551D01*
X338563D01*
X338535Y160541D01*
X338494Y160537D01*
X338434Y160528D01*
X338365Y160518D01*
X338282Y160509D01*
X338189Y160505D01*
X338088Y160500D01*
X337000D01*
Y163529D01*
X338162D01*
X338240Y163524D01*
D02*
G37*
G36*
X345436Y162741D02*
X345473Y162736D01*
X345519Y162731D01*
X345565Y162722D01*
X345621Y162708D01*
X345731Y162671D01*
X345791Y162648D01*
X345851Y162616D01*
X345911Y162584D01*
X345971Y162542D01*
X346026Y162496D01*
X346082Y162441D01*
X346086Y162436D01*
X346095Y162427D01*
X346109Y162408D01*
X346128Y162385D01*
X346146Y162353D01*
X346169Y162316D01*
X346197Y162275D01*
X346225Y162224D01*
X346248Y162164D01*
X346275Y162104D01*
X346298Y162035D01*
X346321Y161957D01*
X346335Y161878D01*
X346349Y161791D01*
X346358Y161699D01*
X346363Y161597D01*
Y161593D01*
Y161574D01*
Y161542D01*
X346358Y161500D01*
X344726D01*
Y161496D01*
Y161486D01*
X344731Y161463D01*
Y161440D01*
X344736Y161408D01*
X344740Y161376D01*
X344759Y161293D01*
X344786Y161205D01*
X344819Y161113D01*
X344869Y161021D01*
X344929Y160943D01*
X344938Y160933D01*
X344962Y160915D01*
X345003Y160883D01*
X345054Y160850D01*
X345123Y160813D01*
X345201Y160781D01*
X345289Y160763D01*
X345386Y160754D01*
X345423D01*
X345459Y160758D01*
X345505Y160767D01*
X345561Y160781D01*
X345621Y160800D01*
X345681Y160823D01*
X345736Y160860D01*
X345741Y160864D01*
X345759Y160883D01*
X345787Y160906D01*
X345819Y160947D01*
X345856Y160993D01*
X345893Y161053D01*
X345930Y161127D01*
X345966Y161210D01*
X346349Y161159D01*
Y161155D01*
X346344Y161145D01*
X346340Y161127D01*
X346331Y161104D01*
X346321Y161076D01*
X346308Y161044D01*
X346271Y160966D01*
X346225Y160883D01*
X346169Y160795D01*
X346095Y160707D01*
X346013Y160634D01*
X346008D01*
X346003Y160625D01*
X345989Y160615D01*
X345966Y160606D01*
X345943Y160592D01*
X345916Y160574D01*
X345883Y160560D01*
X345842Y160541D01*
X345754Y160509D01*
X345644Y160477D01*
X345524Y160459D01*
X345386Y160449D01*
X345339D01*
X345307Y160454D01*
X345266Y160459D01*
X345220Y160463D01*
X345169Y160472D01*
X345109Y160486D01*
X344989Y160523D01*
X344925Y160546D01*
X344865Y160574D01*
X344800Y160606D01*
X344740Y160647D01*
X344680Y160694D01*
X344625Y160744D01*
X344620Y160749D01*
X344611Y160758D01*
X344597Y160777D01*
X344583Y160800D01*
X344560Y160827D01*
X344537Y160864D01*
X344510Y160910D01*
X344487Y160961D01*
X344459Y161016D01*
X344431Y161076D01*
X344408Y161145D01*
X344390Y161219D01*
X344371Y161298D01*
X344358Y161385D01*
X344348Y161477D01*
X344344Y161574D01*
Y161579D01*
Y161597D01*
Y161629D01*
X344348Y161666D01*
X344353Y161712D01*
X344358Y161768D01*
X344367Y161828D01*
X344381Y161892D01*
X344413Y162030D01*
X344436Y162100D01*
X344464Y162173D01*
X344496Y162243D01*
X344533Y162312D01*
X344574Y162376D01*
X344625Y162436D01*
X344630Y162441D01*
X344639Y162450D01*
X344653Y162464D01*
X344676Y162487D01*
X344703Y162510D01*
X344740Y162533D01*
X344777Y162561D01*
X344823Y162593D01*
X344874Y162621D01*
X344929Y162648D01*
X344989Y162671D01*
X345058Y162699D01*
X345127Y162717D01*
X345201Y162731D01*
X345280Y162741D01*
X345362Y162745D01*
X345404D01*
X345436Y162741D01*
D02*
G37*
G36*
X341785Y273105D02*
X341412D01*
Y273529D01*
X341785D01*
Y273105D01*
D02*
G37*
G36*
X347691Y272741D02*
X347741Y272731D01*
X347797Y272713D01*
X347861Y272694D01*
X347930Y272662D01*
X348004Y272621D01*
X347870Y272280D01*
X347866Y272284D01*
X347847Y272293D01*
X347820Y272307D01*
X347787Y272321D01*
X347746Y272335D01*
X347700Y272349D01*
X347649Y272358D01*
X347598Y272362D01*
X347580D01*
X347557Y272358D01*
X347525Y272353D01*
X347492Y272344D01*
X347456Y272330D01*
X347419Y272312D01*
X347382Y272289D01*
X347377Y272284D01*
X347368Y272275D01*
X347349Y272256D01*
X347331Y272233D01*
X347308Y272206D01*
X347285Y272169D01*
X347267Y272127D01*
X347248Y272081D01*
X347243Y272072D01*
X347239Y272049D01*
X347230Y272007D01*
X347220Y271952D01*
X347206Y271888D01*
X347197Y271814D01*
X347193Y271736D01*
X347188Y271648D01*
Y270500D01*
X346815D01*
Y272694D01*
X347151D01*
Y272367D01*
X347156Y272372D01*
X347174Y272399D01*
X347197Y272441D01*
X347225Y272487D01*
X347262Y272538D01*
X347303Y272588D01*
X347340Y272634D01*
X347382Y272667D01*
X347386Y272671D01*
X347400Y272680D01*
X347423Y272690D01*
X347456Y272708D01*
X347488Y272722D01*
X347529Y272731D01*
X347575Y272741D01*
X347621Y272745D01*
X347654D01*
X347691Y272741D01*
D02*
G37*
G36*
X340877D02*
X340928Y272731D01*
X340983Y272713D01*
X341048Y272694D01*
X341117Y272662D01*
X341191Y272621D01*
X341057Y272280D01*
X341052Y272284D01*
X341034Y272293D01*
X341006Y272307D01*
X340974Y272321D01*
X340932Y272335D01*
X340886Y272349D01*
X340835Y272358D01*
X340785Y272362D01*
X340766D01*
X340743Y272358D01*
X340711Y272353D01*
X340679Y272344D01*
X340642Y272330D01*
X340605Y272312D01*
X340568Y272289D01*
X340564Y272284D01*
X340554Y272275D01*
X340536Y272256D01*
X340517Y272233D01*
X340494Y272206D01*
X340471Y272169D01*
X340453Y272127D01*
X340435Y272081D01*
X340430Y272072D01*
X340425Y272049D01*
X340416Y272007D01*
X340407Y271952D01*
X340393Y271888D01*
X340384Y271814D01*
X340379Y271736D01*
X340374Y271648D01*
Y270500D01*
X340001D01*
Y272694D01*
X340338D01*
Y272367D01*
X340342Y272372D01*
X340361Y272399D01*
X340384Y272441D01*
X340411Y272487D01*
X340448Y272538D01*
X340490Y272588D01*
X340527Y272634D01*
X340568Y272667D01*
X340573Y272671D01*
X340587Y272680D01*
X340610Y272690D01*
X340642Y272708D01*
X340674Y272722D01*
X340716Y272731D01*
X340762Y272741D01*
X340808Y272745D01*
X340840D01*
X340877Y272741D01*
D02*
G37*
G36*
X349217Y271408D02*
X348078D01*
Y271782D01*
X349217D01*
Y271408D01*
D02*
G37*
G36*
X343306Y270500D02*
X342956D01*
X342122Y272694D01*
X342514D01*
X342984Y271376D01*
X342988Y271367D01*
X342998Y271339D01*
X343011Y271298D01*
X343030Y271242D01*
X343053Y271178D01*
X343076Y271104D01*
X343104Y271021D01*
X343127Y270938D01*
X343131Y270947D01*
X343136Y270970D01*
X343150Y271007D01*
X343164Y271053D01*
X343182Y271113D01*
X343205Y271187D01*
X343233Y271265D01*
X343265Y271353D01*
X343754Y272694D01*
X344136D01*
X343306Y270500D01*
D02*
G37*
G36*
X350600Y273538D02*
X350636Y273533D01*
X350678Y273529D01*
X350724Y273524D01*
X350775Y273510D01*
X350885Y273483D01*
X351001Y273441D01*
X351061Y273413D01*
X351116Y273381D01*
X351167Y273340D01*
X351217Y273298D01*
X351222Y273294D01*
X351226Y273289D01*
X351240Y273275D01*
X351259Y273257D01*
X351277Y273229D01*
X351300Y273201D01*
X351346Y273132D01*
X351392Y273045D01*
X351434Y272943D01*
X351466Y272828D01*
X351471Y272763D01*
X351475Y272699D01*
Y272690D01*
Y272667D01*
X351471Y272630D01*
X351466Y272584D01*
X351457Y272528D01*
X351443Y272468D01*
X351425Y272404D01*
X351397Y272339D01*
X351392Y272330D01*
X351383Y272307D01*
X351365Y272275D01*
X351337Y272229D01*
X351305Y272173D01*
X351263Y272109D01*
X351208Y272044D01*
X351148Y271971D01*
X351139Y271961D01*
X351116Y271934D01*
X351074Y271892D01*
X351047Y271865D01*
X351014Y271832D01*
X350977Y271795D01*
X350931Y271754D01*
X350885Y271712D01*
X350835Y271662D01*
X350779Y271611D01*
X350715Y271556D01*
X350650Y271500D01*
X350576Y271436D01*
X350572Y271431D01*
X350563Y271422D01*
X350544Y271408D01*
X350521Y271390D01*
X350466Y271344D01*
X350397Y271284D01*
X350327Y271219D01*
X350254Y271155D01*
X350194Y271099D01*
X350171Y271076D01*
X350148Y271053D01*
X350143Y271049D01*
X350134Y271035D01*
X350115Y271016D01*
X350092Y270989D01*
X350042Y270929D01*
X349991Y270855D01*
X351480D01*
Y270500D01*
X349475D01*
Y270505D01*
Y270523D01*
Y270551D01*
X349479Y270583D01*
X349484Y270620D01*
X349488Y270661D01*
X349502Y270708D01*
X349516Y270754D01*
Y270758D01*
X349521Y270763D01*
X349530Y270790D01*
X349548Y270827D01*
X349576Y270883D01*
X349608Y270943D01*
X349654Y271012D01*
X349701Y271081D01*
X349761Y271155D01*
Y271159D01*
X349770Y271164D01*
X349793Y271192D01*
X349830Y271233D01*
X349885Y271288D01*
X349954Y271353D01*
X350037Y271431D01*
X350138Y271519D01*
X350249Y271616D01*
X350254Y271620D01*
X350272Y271634D01*
X350295Y271653D01*
X350327Y271685D01*
X350369Y271717D01*
X350415Y271759D01*
X350517Y271846D01*
X350627Y271952D01*
X350738Y272058D01*
X350793Y272109D01*
X350839Y272160D01*
X350881Y272210D01*
X350918Y272256D01*
Y272261D01*
X350927Y272266D01*
X350936Y272280D01*
X350945Y272298D01*
X350973Y272344D01*
X351005Y272404D01*
X351037Y272473D01*
X351065Y272547D01*
X351084Y272630D01*
X351093Y272708D01*
Y272713D01*
Y272717D01*
X351088Y272745D01*
X351084Y272787D01*
X351074Y272837D01*
X351051Y272897D01*
X351024Y272957D01*
X350987Y273022D01*
X350931Y273082D01*
X350922Y273086D01*
X350904Y273105D01*
X350867Y273128D01*
X350821Y273160D01*
X350761Y273188D01*
X350692Y273211D01*
X350609Y273229D01*
X350517Y273234D01*
X350489D01*
X350470Y273229D01*
X350424Y273224D01*
X350364Y273215D01*
X350295Y273192D01*
X350221Y273165D01*
X350152Y273123D01*
X350088Y273068D01*
X350083Y273059D01*
X350065Y273040D01*
X350037Y273003D01*
X350009Y272953D01*
X349977Y272888D01*
X349954Y272814D01*
X349936Y272727D01*
X349926Y272625D01*
X349544Y272667D01*
Y272671D01*
Y272685D01*
X349548Y272708D01*
X349553Y272736D01*
X349562Y272773D01*
X349567Y272814D01*
X349594Y272906D01*
X349631Y273012D01*
X349682Y273118D01*
X349751Y273224D01*
X349788Y273271D01*
X349834Y273317D01*
X349839Y273321D01*
X349848Y273326D01*
X349862Y273340D01*
X349880Y273354D01*
X349908Y273367D01*
X349940Y273391D01*
X349977Y273409D01*
X350019Y273432D01*
X350065Y273450D01*
X350115Y273474D01*
X350175Y273492D01*
X350235Y273506D01*
X350374Y273533D01*
X350447Y273538D01*
X350526Y273543D01*
X350567D01*
X350600Y273538D01*
D02*
G37*
G36*
X341785Y270500D02*
X341412D01*
Y272694D01*
X341785D01*
Y270500D01*
D02*
G37*
G36*
X338240Y273524D02*
X338323Y273519D01*
X338415Y273510D01*
X338503Y273497D01*
X338577Y273483D01*
X338581D01*
X338591Y273478D01*
X338600D01*
X338618Y273469D01*
X338669Y273455D01*
X338729Y273432D01*
X338798Y273404D01*
X338872Y273367D01*
X338945Y273321D01*
X339019Y273266D01*
X339024D01*
X339028Y273257D01*
X339061Y273229D01*
X339102Y273183D01*
X339153Y273123D01*
X339213Y273049D01*
X339273Y272962D01*
X339328Y272860D01*
X339379Y272745D01*
Y272741D01*
X339383Y272731D01*
X339388Y272713D01*
X339397Y272690D01*
X339406Y272662D01*
X339416Y272625D01*
X339429Y272584D01*
X339439Y272538D01*
X339448Y272487D01*
X339462Y272432D01*
X339480Y272312D01*
X339494Y272178D01*
X339499Y272030D01*
Y272026D01*
Y272017D01*
Y271998D01*
Y271971D01*
X339494Y271943D01*
Y271906D01*
X339489Y271823D01*
X339480Y271731D01*
X339462Y271625D01*
X339443Y271519D01*
X339416Y271417D01*
Y271413D01*
X339411Y271404D01*
X339406Y271390D01*
X339402Y271371D01*
X339383Y271325D01*
X339360Y271261D01*
X339333Y271192D01*
X339296Y271118D01*
X339254Y271044D01*
X339208Y270975D01*
X339204Y270966D01*
X339185Y270947D01*
X339162Y270915D01*
X339125Y270873D01*
X339088Y270832D01*
X339038Y270786D01*
X338987Y270740D01*
X338932Y270698D01*
X338927Y270694D01*
X338904Y270684D01*
X338872Y270666D01*
X338830Y270643D01*
X338779Y270620D01*
X338720Y270597D01*
X338650Y270574D01*
X338572Y270551D01*
X338563D01*
X338535Y270542D01*
X338494Y270537D01*
X338434Y270528D01*
X338365Y270518D01*
X338282Y270509D01*
X338189Y270505D01*
X338088Y270500D01*
X337000D01*
Y273529D01*
X338162D01*
X338240Y273524D01*
D02*
G37*
G36*
X345436Y272741D02*
X345473Y272736D01*
X345519Y272731D01*
X345565Y272722D01*
X345621Y272708D01*
X345731Y272671D01*
X345791Y272648D01*
X345851Y272616D01*
X345911Y272584D01*
X345971Y272542D01*
X346026Y272496D01*
X346082Y272441D01*
X346086Y272436D01*
X346095Y272427D01*
X346109Y272409D01*
X346128Y272386D01*
X346146Y272353D01*
X346169Y272316D01*
X346197Y272275D01*
X346225Y272224D01*
X346248Y272164D01*
X346275Y272104D01*
X346298Y272035D01*
X346321Y271957D01*
X346335Y271878D01*
X346349Y271791D01*
X346358Y271699D01*
X346363Y271597D01*
Y271593D01*
Y271574D01*
Y271542D01*
X346358Y271500D01*
X344726D01*
Y271496D01*
Y271486D01*
X344731Y271463D01*
Y271440D01*
X344736Y271408D01*
X344740Y271376D01*
X344759Y271293D01*
X344786Y271205D01*
X344819Y271113D01*
X344869Y271021D01*
X344929Y270943D01*
X344938Y270933D01*
X344962Y270915D01*
X345003Y270883D01*
X345054Y270850D01*
X345123Y270813D01*
X345201Y270781D01*
X345289Y270763D01*
X345386Y270754D01*
X345423D01*
X345459Y270758D01*
X345505Y270767D01*
X345561Y270781D01*
X345621Y270800D01*
X345681Y270823D01*
X345736Y270860D01*
X345741Y270864D01*
X345759Y270883D01*
X345787Y270906D01*
X345819Y270947D01*
X345856Y270993D01*
X345893Y271053D01*
X345930Y271127D01*
X345966Y271210D01*
X346349Y271159D01*
Y271155D01*
X346344Y271145D01*
X346340Y271127D01*
X346331Y271104D01*
X346321Y271076D01*
X346308Y271044D01*
X346271Y270966D01*
X346225Y270883D01*
X346169Y270795D01*
X346095Y270708D01*
X346013Y270634D01*
X346008D01*
X346003Y270624D01*
X345989Y270615D01*
X345966Y270606D01*
X345943Y270592D01*
X345916Y270574D01*
X345883Y270560D01*
X345842Y270542D01*
X345754Y270509D01*
X345644Y270477D01*
X345524Y270459D01*
X345386Y270449D01*
X345339D01*
X345307Y270454D01*
X345266Y270459D01*
X345220Y270463D01*
X345169Y270472D01*
X345109Y270486D01*
X344989Y270523D01*
X344925Y270546D01*
X344865Y270574D01*
X344800Y270606D01*
X344740Y270648D01*
X344680Y270694D01*
X344625Y270744D01*
X344620Y270749D01*
X344611Y270758D01*
X344597Y270777D01*
X344583Y270800D01*
X344560Y270827D01*
X344537Y270864D01*
X344510Y270910D01*
X344487Y270961D01*
X344459Y271016D01*
X344431Y271076D01*
X344408Y271145D01*
X344390Y271219D01*
X344371Y271298D01*
X344358Y271385D01*
X344348Y271477D01*
X344344Y271574D01*
Y271579D01*
Y271597D01*
Y271629D01*
X344348Y271666D01*
X344353Y271712D01*
X344358Y271768D01*
X344367Y271828D01*
X344381Y271892D01*
X344413Y272030D01*
X344436Y272100D01*
X344464Y272173D01*
X344496Y272243D01*
X344533Y272312D01*
X344574Y272376D01*
X344625Y272436D01*
X344630Y272441D01*
X344639Y272450D01*
X344653Y272464D01*
X344676Y272487D01*
X344703Y272510D01*
X344740Y272533D01*
X344777Y272561D01*
X344823Y272593D01*
X344874Y272621D01*
X344929Y272648D01*
X344989Y272671D01*
X345058Y272699D01*
X345127Y272717D01*
X345201Y272731D01*
X345280Y272741D01*
X345362Y272745D01*
X345404D01*
X345436Y272741D01*
D02*
G37*
%LPC*%
G36*
X338033Y383174D02*
X337401D01*
Y380855D01*
X338093D01*
X338143Y380860D01*
X338212Y380864D01*
X338286Y380869D01*
X338365Y380878D01*
X338438Y380892D01*
X338508Y380910D01*
X338517Y380915D01*
X338535Y380920D01*
X338567Y380933D01*
X338604Y380952D01*
X338650Y380975D01*
X338697Y380998D01*
X338738Y381030D01*
X338779Y381067D01*
X338784Y381072D01*
X338803Y381095D01*
X338830Y381127D01*
X338862Y381168D01*
X338895Y381224D01*
X338932Y381288D01*
X338968Y381367D01*
X339001Y381450D01*
Y381454D01*
X339005Y381459D01*
X339010Y381473D01*
X339015Y381491D01*
X339019Y381514D01*
X339028Y381542D01*
X339042Y381611D01*
X339056Y381699D01*
X339070Y381800D01*
X339079Y381911D01*
X339084Y382035D01*
Y382040D01*
Y382058D01*
Y382081D01*
Y382114D01*
X339079Y382155D01*
X339074Y382201D01*
X339070Y382252D01*
X339065Y382302D01*
X339047Y382422D01*
X339019Y382542D01*
X338978Y382658D01*
X338955Y382713D01*
X338927Y382764D01*
Y382768D01*
X338918Y382773D01*
X338913Y382787D01*
X338899Y382805D01*
X338867Y382851D01*
X338821Y382902D01*
X338766Y382962D01*
X338701Y383017D01*
X338627Y383068D01*
X338549Y383109D01*
X338540Y383114D01*
X338517Y383119D01*
X338480Y383128D01*
X338424Y383141D01*
X338351Y383155D01*
X338263Y383165D01*
X338157Y383169D01*
X338033Y383174D01*
D02*
G37*
G36*
X345367Y382441D02*
X345344D01*
X345326Y382436D01*
X345275Y382432D01*
X345215Y382418D01*
X345146Y382399D01*
X345077Y382367D01*
X345003Y382326D01*
X344934Y382266D01*
X344925Y382256D01*
X344906Y382233D01*
X344879Y382196D01*
X344846Y382141D01*
X344814Y382077D01*
X344782Y381998D01*
X344759Y381906D01*
X344745Y381805D01*
X345971D01*
Y381809D01*
Y381819D01*
X345966Y381832D01*
Y381851D01*
X345957Y381901D01*
X345943Y381961D01*
X345925Y382026D01*
X345897Y382095D01*
X345870Y382164D01*
X345828Y382220D01*
Y382224D01*
X345819Y382229D01*
X345796Y382256D01*
X345754Y382289D01*
X345704Y382330D01*
X345635Y382372D01*
X345556Y382408D01*
X345469Y382432D01*
X345418Y382436D01*
X345367Y382441D01*
D02*
G37*
G36*
X338033Y163174D02*
X337401D01*
Y160855D01*
X338093D01*
X338143Y160860D01*
X338212Y160864D01*
X338286Y160869D01*
X338365Y160878D01*
X338438Y160892D01*
X338508Y160910D01*
X338517Y160915D01*
X338535Y160919D01*
X338567Y160933D01*
X338604Y160952D01*
X338650Y160975D01*
X338697Y160998D01*
X338738Y161030D01*
X338779Y161067D01*
X338784Y161072D01*
X338803Y161095D01*
X338830Y161127D01*
X338862Y161169D01*
X338895Y161224D01*
X338932Y161288D01*
X338968Y161367D01*
X339001Y161450D01*
Y161454D01*
X339005Y161459D01*
X339010Y161473D01*
X339015Y161491D01*
X339019Y161514D01*
X339028Y161542D01*
X339042Y161611D01*
X339056Y161699D01*
X339070Y161800D01*
X339079Y161911D01*
X339084Y162035D01*
Y162040D01*
Y162058D01*
Y162081D01*
Y162113D01*
X339079Y162155D01*
X339074Y162201D01*
X339070Y162252D01*
X339065Y162302D01*
X339047Y162422D01*
X339019Y162542D01*
X338978Y162657D01*
X338955Y162713D01*
X338927Y162764D01*
Y162768D01*
X338918Y162773D01*
X338913Y162787D01*
X338899Y162805D01*
X338867Y162851D01*
X338821Y162902D01*
X338766Y162962D01*
X338701Y163017D01*
X338627Y163068D01*
X338549Y163109D01*
X338540Y163114D01*
X338517Y163119D01*
X338480Y163128D01*
X338424Y163142D01*
X338351Y163155D01*
X338263Y163165D01*
X338157Y163169D01*
X338033Y163174D01*
D02*
G37*
G36*
X345367Y162441D02*
X345344D01*
X345326Y162436D01*
X345275Y162432D01*
X345215Y162418D01*
X345146Y162399D01*
X345077Y162367D01*
X345003Y162326D01*
X344934Y162266D01*
X344925Y162256D01*
X344906Y162233D01*
X344879Y162197D01*
X344846Y162141D01*
X344814Y162077D01*
X344782Y161998D01*
X344759Y161906D01*
X344745Y161805D01*
X345971D01*
Y161809D01*
Y161819D01*
X345966Y161832D01*
Y161851D01*
X345957Y161901D01*
X345943Y161961D01*
X345925Y162026D01*
X345897Y162095D01*
X345870Y162164D01*
X345828Y162220D01*
Y162224D01*
X345819Y162229D01*
X345796Y162256D01*
X345754Y162289D01*
X345704Y162330D01*
X345635Y162372D01*
X345556Y162408D01*
X345469Y162432D01*
X345418Y162436D01*
X345367Y162441D01*
D02*
G37*
G36*
X338033Y273174D02*
X337401D01*
Y270855D01*
X338093D01*
X338143Y270860D01*
X338212Y270864D01*
X338286Y270869D01*
X338365Y270878D01*
X338438Y270892D01*
X338508Y270910D01*
X338517Y270915D01*
X338535Y270919D01*
X338567Y270933D01*
X338604Y270952D01*
X338650Y270975D01*
X338697Y270998D01*
X338738Y271030D01*
X338779Y271067D01*
X338784Y271072D01*
X338803Y271095D01*
X338830Y271127D01*
X338862Y271168D01*
X338895Y271224D01*
X338932Y271288D01*
X338968Y271367D01*
X339001Y271450D01*
Y271454D01*
X339005Y271459D01*
X339010Y271473D01*
X339015Y271491D01*
X339019Y271514D01*
X339028Y271542D01*
X339042Y271611D01*
X339056Y271699D01*
X339070Y271800D01*
X339079Y271911D01*
X339084Y272035D01*
Y272040D01*
Y272058D01*
Y272081D01*
Y272113D01*
X339079Y272155D01*
X339074Y272201D01*
X339070Y272252D01*
X339065Y272303D01*
X339047Y272422D01*
X339019Y272542D01*
X338978Y272657D01*
X338955Y272713D01*
X338927Y272763D01*
Y272768D01*
X338918Y272773D01*
X338913Y272787D01*
X338899Y272805D01*
X338867Y272851D01*
X338821Y272902D01*
X338766Y272962D01*
X338701Y273017D01*
X338627Y273068D01*
X338549Y273109D01*
X338540Y273114D01*
X338517Y273118D01*
X338480Y273128D01*
X338424Y273142D01*
X338351Y273155D01*
X338263Y273165D01*
X338157Y273169D01*
X338033Y273174D01*
D02*
G37*
G36*
X345367Y272441D02*
X345344D01*
X345326Y272436D01*
X345275Y272432D01*
X345215Y272418D01*
X345146Y272399D01*
X345077Y272367D01*
X345003Y272326D01*
X344934Y272266D01*
X344925Y272256D01*
X344906Y272233D01*
X344879Y272197D01*
X344846Y272141D01*
X344814Y272077D01*
X344782Y271998D01*
X344759Y271906D01*
X344745Y271805D01*
X345971D01*
Y271809D01*
Y271818D01*
X345966Y271832D01*
Y271851D01*
X345957Y271901D01*
X345943Y271961D01*
X345925Y272026D01*
X345897Y272095D01*
X345870Y272164D01*
X345828Y272219D01*
Y272224D01*
X345819Y272229D01*
X345796Y272256D01*
X345754Y272289D01*
X345704Y272330D01*
X345635Y272372D01*
X345556Y272409D01*
X345469Y272432D01*
X345418Y272436D01*
X345367Y272441D01*
D02*
G37*
%LPD*%
M02*
