G04*
G04 #@! TF.GenerationSoftware,Altium Limited,Altium Designer,20.2.3 (150)*
G04*
G04 Layer_Color=2752767*
%FSLAX25Y25*%
%MOIN*%
G70*
G04*
G04 #@! TF.SameCoordinates,9B11B327-6EB5-4971-87C7-186C775F7969*
G04*
G04*
G04 #@! TF.FilePolarity,Positive*
G04*
G01*
G75*
%ADD46C,0.00200*%
%ADD47C,0.00267*%
D46*
X436700Y363200D02*
Y364800D01*
X438300D01*
Y363200D01*
X436700D01*
Y373200D02*
Y374800D01*
X438300D01*
Y373200D01*
X436700D01*
Y383200D02*
Y384800D01*
X438300D01*
Y383200D01*
X436700D01*
Y393200D02*
Y394800D01*
X438300D01*
Y393200D01*
X436700D01*
Y403200D02*
Y404800D01*
X438300D01*
Y403200D01*
X436700D01*
X255700Y363200D02*
Y364800D01*
X257300D01*
Y363200D01*
X255700D01*
Y373200D02*
Y374800D01*
X257300D01*
Y373200D01*
X255700D01*
Y383200D02*
Y384800D01*
X257300D01*
Y383200D01*
X255700D01*
Y393200D02*
Y394800D01*
X257300D01*
Y393200D01*
X255700D01*
Y403200D02*
Y404800D01*
X257300D01*
Y403200D01*
X255700D01*
Y293200D02*
Y294800D01*
X257300D01*
Y293200D01*
X255700D01*
Y283200D02*
Y284800D01*
X257300D01*
Y283200D01*
X255700D01*
Y273200D02*
Y274800D01*
X257300D01*
Y273200D01*
X255700D01*
Y263200D02*
Y264800D01*
X257300D01*
Y263200D01*
X255700D01*
Y253200D02*
Y254800D01*
X257300D01*
Y253200D01*
X255700D01*
Y183200D02*
Y184800D01*
X257300D01*
Y183200D01*
X255700D01*
Y173200D02*
Y174800D01*
X257300D01*
Y173200D01*
X255700D01*
Y163200D02*
Y164800D01*
X257300D01*
Y163200D01*
X255700D01*
Y153200D02*
Y154800D01*
X257300D01*
Y153200D01*
X255700D01*
Y143200D02*
Y144800D01*
X257300D01*
Y143200D01*
X255700D01*
X436700Y173200D02*
Y174800D01*
X438300D01*
Y173200D01*
X436700D01*
Y163200D02*
Y164800D01*
X438300D01*
Y163200D01*
X436700D01*
Y153200D02*
Y154800D01*
X438300D01*
Y153200D01*
X436700D01*
Y143200D02*
Y144800D01*
X438300D01*
Y143200D01*
X436700D01*
Y183200D02*
Y184800D01*
X438300D01*
Y183200D01*
X436700D01*
Y293200D02*
Y294800D01*
X438300D01*
Y293200D01*
X436700D01*
X357700Y445200D02*
Y446800D01*
X359300D01*
Y445200D01*
X357700D01*
X436700Y253200D02*
Y254800D01*
X438300D01*
Y253200D01*
X436700D01*
Y263200D02*
Y264800D01*
X438300D01*
Y263200D01*
X436700D01*
Y273200D02*
Y274800D01*
X438300D01*
Y273200D01*
X436700D01*
Y283200D02*
Y284800D01*
X438300D01*
Y283200D01*
X436700D01*
X357700Y455200D02*
Y456800D01*
X359300D01*
Y455200D01*
X357700D01*
X319200Y445200D02*
Y446800D01*
X320800D01*
Y445200D01*
X319200D01*
Y455200D02*
Y456800D01*
X320800D01*
Y455200D01*
X319200D01*
X370029Y186330D02*
X369229Y187930D01*
X370829D01*
X370029Y186330D01*
X370000Y294700D02*
X369200Y296300D01*
X370800D01*
X370000Y294700D01*
X356500Y349200D02*
X355700Y350800D01*
X357300D01*
X356500Y349200D01*
X356000Y126700D02*
X355200Y128300D01*
X356800D01*
X356000Y126700D01*
Y239700D02*
X355200Y241300D01*
X356800D01*
X356000Y239700D01*
X273000Y151200D02*
X272200Y152800D01*
X273800D01*
X273000Y151200D01*
X317836Y186845D02*
X317036Y188445D01*
X318636D01*
X317836Y186845D01*
X278500Y261200D02*
X277700Y262800D01*
X279300D01*
X278500Y261200D01*
X317500Y298200D02*
X316700Y299800D01*
X318300D01*
X317500Y298200D01*
X422500Y124200D02*
X421700Y125800D01*
X423300D01*
X422500Y124200D01*
X422465Y234235D02*
X421665Y235835D01*
X423265D01*
X422465Y234235D01*
X425932Y202375D02*
X425132Y203975D01*
X426732D01*
X425932Y202375D01*
X419500Y194200D02*
X418700Y195800D01*
X420300D01*
X419500Y194200D01*
X427000Y312700D02*
X426200Y314300D01*
X427800D01*
X427000Y312700D01*
X424000Y423200D02*
X423200Y424800D01*
X424800D01*
X424000Y423200D01*
X274000Y382200D02*
X273200Y383800D01*
X274800D01*
X274000Y382200D01*
X274000Y376200D02*
X273200Y377800D01*
X274800D01*
X274000Y376200D01*
X268000Y376700D02*
X267200Y378300D01*
X268800D01*
X268000Y376700D01*
X276000Y156200D02*
X275200Y157800D01*
X276800D01*
X276000Y156200D01*
X277500Y162200D02*
X276700Y163800D01*
X278300D01*
X277500Y162200D01*
X268000Y150200D02*
X267200Y151800D01*
X268800D01*
X268000Y150200D01*
X273500Y266200D02*
X272700Y267800D01*
X274300D01*
X273500Y266200D01*
X270000Y272200D02*
X269200Y273800D01*
X270800D01*
X270000Y272200D01*
X266500Y258700D02*
X265700Y260300D01*
X267300D01*
X266500Y258700D01*
X268500Y369200D02*
X267700Y370800D01*
X269300D01*
X268500Y369200D01*
X303500Y227200D02*
X302700Y228800D01*
X304300D01*
X303500Y227200D01*
X304000Y113700D02*
X303200Y115300D01*
X304800D01*
X304000Y113700D01*
X295000Y115200D02*
X294200Y116800D01*
X295800D01*
X295000Y115200D01*
Y198700D02*
X294200Y200300D01*
X295800D01*
X295000Y198700D01*
X295089Y226794D02*
X294289Y228394D01*
X295889D01*
X295089Y226794D01*
X295000Y336700D02*
X294200Y338300D01*
X295800D01*
X295000Y336700D01*
X295154Y307868D02*
X294354Y309468D01*
X295954D01*
X295154Y307868D01*
X399000Y133200D02*
X398200Y134800D01*
X399800D01*
X399000Y133200D01*
X355500Y108700D02*
X354700Y110300D01*
X356300D01*
X355500Y108700D01*
X408000Y304200D02*
X407200Y305800D01*
X408800D01*
X408000Y304200D01*
X370000Y211700D02*
X369200Y213300D01*
X370800D01*
X370000Y211700D01*
X356000Y221200D02*
X355200Y222800D01*
X356800D01*
X356000Y221200D01*
X424266Y345513D02*
X423466Y347113D01*
X425066D01*
X424266Y345513D01*
X370164Y319142D02*
X369364Y320742D01*
X370964D01*
X370164Y319142D01*
X303000Y338700D02*
X302200Y340300D01*
X303800D01*
X303000Y338700D01*
X294970Y418360D02*
X294170Y419960D01*
X295770D01*
X294970Y418360D01*
X407362Y413967D02*
X407762Y414367D01*
X408162D01*
X407762Y414767D01*
X408162Y415167D01*
X407762D01*
X407362Y415567D01*
X406962Y415167D01*
X406562D01*
X406962Y414767D01*
X406562Y414367D01*
X406962D01*
X407362Y413967D01*
X369750Y431700D02*
X368950Y433300D01*
X370550D01*
X369750Y431700D01*
X370000Y405200D02*
X369200Y406800D01*
X370800D01*
X370000Y405200D01*
X355803Y330623D02*
X356203Y331023D01*
X356603D01*
X356203Y331423D01*
X356603Y331823D01*
X356203D01*
X355803Y332223D01*
X355403Y331823D01*
X355003D01*
X355403Y331423D01*
X355003Y331023D01*
X355403D01*
X355803Y330623D01*
D47*
X265800Y453000D02*
G03*
X265800Y453000I-800J0D01*
G01*
Y120000D02*
G03*
X265800Y120000I-800J0D01*
G01*
X430800Y453000D02*
G03*
X430800Y453000I-800J0D01*
G01*
M02*
