G04*
G04 #@! TF.GenerationSoftware,Altium Limited,Altium Designer,20.2.3 (150)*
G04*
G04 Layer_Color=65535*
%FSLAX25Y25*%
%MOIN*%
G70*
G04*
G04 #@! TF.SameCoordinates,9B11B327-6EB5-4971-87C7-186C775F7969*
G04*
G04*
G04 #@! TF.FilePolarity,Positive*
G04*
G01*
G75*
%ADD10C,0.00787*%
%ADD11C,0.00984*%
%ADD12C,0.01000*%
G36*
X386100Y462800D02*
Y462000D01*
X385300D01*
Y461200D01*
Y460400D01*
X384500D01*
Y459600D01*
X381300D01*
Y460400D01*
Y461200D01*
X380500D01*
Y462000D01*
X381300D01*
Y462800D01*
Y463600D01*
X386100D01*
Y462800D01*
D02*
G37*
G36*
X410100Y463600D02*
Y462800D01*
X409300D01*
Y462000D01*
X408500D01*
Y461200D01*
Y460400D01*
X407700D01*
Y459600D01*
Y458800D01*
X406900D01*
Y458000D01*
X406100D01*
Y457200D01*
Y456400D01*
X405300D01*
Y455600D01*
Y454800D01*
X404500D01*
Y454000D01*
X403700D01*
Y453200D01*
Y452400D01*
X402900D01*
Y451600D01*
Y450800D01*
X402100D01*
Y450000D01*
X401300D01*
Y449200D01*
Y448400D01*
X400500D01*
Y447600D01*
X399700D01*
Y446800D01*
X396500D01*
Y447600D01*
Y448400D01*
X397300D01*
Y449200D01*
X398100D01*
Y450000D01*
Y450800D01*
X398900D01*
Y451600D01*
Y452400D01*
X399700D01*
Y453200D01*
X400500D01*
Y454000D01*
Y454800D01*
X401300D01*
Y455600D01*
Y456400D01*
X402100D01*
Y457200D01*
X402900D01*
Y458000D01*
Y458800D01*
X403700D01*
Y459600D01*
Y460400D01*
X404500D01*
Y461200D01*
X405300D01*
Y462000D01*
Y462800D01*
X406100D01*
Y463600D01*
X409300D01*
Y464400D01*
X410100D01*
Y463600D01*
D02*
G37*
G36*
X398900D02*
X398100D01*
Y462800D01*
Y462000D01*
X397300D01*
Y461200D01*
X396500D01*
Y460400D01*
Y459600D01*
X395700D01*
Y458800D01*
X394900D01*
Y458000D01*
Y457200D01*
X394100D01*
Y456400D01*
Y455600D01*
X393300D01*
Y454800D01*
X392500D01*
Y454000D01*
Y453200D01*
X391700D01*
Y452400D01*
Y451600D01*
X390900D01*
Y450800D01*
X390100D01*
Y450000D01*
Y449200D01*
X389300D01*
Y448400D01*
Y447600D01*
X388500D01*
Y446800D01*
X385300D01*
Y446000D01*
X384500D01*
Y446800D01*
Y447600D01*
X385300D01*
Y448400D01*
Y449200D01*
X386100D01*
Y450000D01*
X386900D01*
Y450800D01*
Y451600D01*
X387700D01*
Y452400D01*
Y453200D01*
X388500D01*
Y454000D01*
X389300D01*
Y454800D01*
Y455600D01*
X390100D01*
Y456400D01*
Y457200D01*
X390900D01*
Y458000D01*
X391700D01*
Y458800D01*
Y459600D01*
X392500D01*
Y460400D01*
X393300D01*
Y461200D01*
Y462000D01*
X394100D01*
Y462800D01*
X394900D01*
Y463600D01*
X397300D01*
Y464400D01*
X398900D01*
Y463600D01*
D02*
G37*
G36*
X288600Y228200D02*
Y227400D01*
Y226600D01*
Y225800D01*
Y225000D01*
Y224200D01*
Y223400D01*
Y222600D01*
Y221800D01*
Y221000D01*
Y220200D01*
Y219400D01*
Y218600D01*
Y217800D01*
Y217000D01*
Y216200D01*
Y215400D01*
Y214600D01*
Y213800D01*
Y213000D01*
Y212200D01*
Y211400D01*
Y210600D01*
Y209800D01*
Y209000D01*
Y208200D01*
Y207400D01*
Y206600D01*
Y205800D01*
Y205000D01*
Y204200D01*
Y203400D01*
Y202600D01*
Y201800D01*
Y201000D01*
X251000D01*
Y201800D01*
Y202600D01*
Y203400D01*
Y204200D01*
Y205000D01*
Y205800D01*
Y206600D01*
Y207400D01*
Y208200D01*
Y209000D01*
Y209800D01*
Y210600D01*
Y211400D01*
Y212200D01*
Y213000D01*
Y213800D01*
Y214600D01*
Y215400D01*
Y216200D01*
Y217000D01*
Y217800D01*
Y218600D01*
Y219400D01*
Y220200D01*
Y221000D01*
Y221800D01*
Y222600D01*
Y223400D01*
Y224200D01*
Y225000D01*
Y225800D01*
Y226600D01*
Y227400D01*
Y228200D01*
Y229000D01*
X288600D01*
Y228200D01*
D02*
G37*
%LPC*%
G36*
X279800Y227400D02*
X274200D01*
Y226600D01*
X266200D01*
Y225800D01*
X263800D01*
Y225000D01*
X262200D01*
Y224200D01*
Y223400D01*
Y222600D01*
Y221800D01*
X263000D01*
Y221000D01*
X265400D01*
Y220200D01*
X257400D01*
Y219400D01*
X256600D01*
Y220200D01*
Y221000D01*
Y221800D01*
Y222600D01*
Y223400D01*
X257400D01*
Y224200D01*
Y225000D01*
Y225800D01*
X255800D01*
Y225000D01*
Y224200D01*
X255000D01*
Y223400D01*
Y222600D01*
X254200D01*
Y221800D01*
Y221000D01*
Y220200D01*
Y219400D01*
Y218600D01*
Y217800D01*
Y217000D01*
Y216200D01*
Y215400D01*
X253400D01*
Y214600D01*
Y213800D01*
Y213000D01*
Y212200D01*
Y211400D01*
X254200D01*
Y210600D01*
X255000D01*
Y209800D01*
X255800D01*
Y209000D01*
X256600D01*
Y208200D01*
X255800D01*
Y207400D01*
X256600D01*
Y206600D01*
X259800D01*
Y205800D01*
X260600D01*
Y205000D01*
X263000D01*
Y205800D01*
X263800D01*
Y206600D01*
Y207400D01*
X266200D01*
Y206600D01*
X267800D01*
Y205800D01*
X268600D01*
Y205000D01*
Y204200D01*
X269400D01*
Y203400D01*
Y202600D01*
X273400D01*
Y203400D01*
Y204200D01*
Y205000D01*
Y205800D01*
X272600D01*
Y206600D01*
Y207400D01*
X271800D01*
Y208200D01*
Y209000D01*
X271000D01*
Y209800D01*
X270200D01*
Y210600D01*
X271000D01*
Y211400D01*
X270200D01*
Y212200D01*
Y213000D01*
Y213800D01*
X269400D01*
Y214600D01*
Y215400D01*
X270200D01*
Y216200D01*
Y217000D01*
X271000D01*
Y217800D01*
X271800D01*
Y218600D01*
X274200D01*
Y219400D01*
X277400D01*
Y220200D01*
X279800D01*
Y221000D01*
X281400D01*
Y221800D01*
X283000D01*
Y222600D01*
X283800D01*
Y223400D01*
X284600D01*
Y224200D01*
X286200D01*
Y225000D01*
X287000D01*
Y225800D01*
X282200D01*
Y225000D01*
Y224200D01*
Y223400D01*
X281400D01*
Y224200D01*
Y225000D01*
X279000D01*
Y225800D01*
X279800D01*
Y226600D01*
Y227400D01*
D02*
G37*
%LPD*%
G36*
X275800Y225000D02*
Y224200D01*
X277400D01*
Y225000D01*
X278200D01*
Y224200D01*
X279000D01*
Y223400D01*
X281400D01*
Y222600D01*
X279000D01*
Y221800D01*
X277400D01*
Y221000D01*
X274200D01*
Y221800D01*
Y222600D01*
Y223400D01*
Y224200D01*
Y225000D01*
Y225800D01*
X275800D01*
Y225000D01*
D02*
G37*
G36*
X271800Y223400D02*
X272600D01*
Y222600D01*
Y221800D01*
Y221000D01*
X270200D01*
Y221800D01*
Y222600D01*
Y223400D01*
X268600D01*
Y222600D01*
X263800D01*
Y223400D01*
X264600D01*
Y224200D01*
X271800D01*
Y223400D01*
D02*
G37*
G36*
X269400Y219400D02*
X270200D01*
Y218600D01*
X268600D01*
Y217800D01*
X267800D01*
Y218600D01*
Y219400D01*
X268600D01*
Y220200D01*
X269400D01*
Y219400D01*
D02*
G37*
G36*
X267000Y216200D02*
Y215400D01*
X265400D01*
Y216200D01*
Y217000D01*
X267000D01*
Y216200D01*
D02*
G37*
G36*
X262200Y217800D02*
X263000D01*
Y217000D01*
Y216200D01*
Y215400D01*
Y214600D01*
Y213800D01*
Y213000D01*
X266200D01*
Y213800D01*
X267800D01*
Y213000D01*
X268600D01*
Y212200D01*
Y211400D01*
X269400D01*
Y210600D01*
X268600D01*
Y209800D01*
Y209000D01*
X269400D01*
Y208200D01*
Y207400D01*
X267800D01*
Y208200D01*
X267000D01*
Y209000D01*
X266200D01*
Y209800D01*
Y210600D01*
X267000D01*
Y211400D01*
Y212200D01*
X266200D01*
Y211400D01*
X264600D01*
Y210600D01*
X263800D01*
Y211400D01*
Y212200D01*
X262200D01*
Y213000D01*
Y213800D01*
X259800D01*
Y213000D01*
X259000D01*
Y212200D01*
Y211400D01*
X259800D01*
Y210600D01*
X263000D01*
Y209800D01*
X260600D01*
Y209000D01*
X259000D01*
Y209800D01*
X258200D01*
Y210600D01*
Y211400D01*
Y212200D01*
X256600D01*
Y213000D01*
X257400D01*
Y213800D01*
X256600D01*
Y214600D01*
X255800D01*
Y215400D01*
X255000D01*
Y216200D01*
X255800D01*
Y217000D01*
X256600D01*
Y217800D01*
X257400D01*
Y218600D01*
X262200D01*
Y217800D01*
D02*
G37*
D10*
X410894Y150035D02*
G03*
X410894Y150035I-394J0D01*
G01*
X411614Y150000D02*
G03*
X411614Y150000I-1114J0D01*
G01*
X412170Y150035D02*
G03*
X412170Y150035I-1670J0D01*
G01*
X411057D02*
G03*
X411057Y150035I-557J0D01*
G01*
X387358Y160500D02*
G03*
X387358Y160500I-394J0D01*
G01*
X388113D02*
G03*
X388113Y160500I-1114J0D01*
G01*
X388635D02*
G03*
X388635Y160500I-1670J0D01*
G01*
X387521D02*
G03*
X387521Y160500I-557J0D01*
G01*
X411894Y260035D02*
G03*
X411894Y260035I-394J0D01*
G01*
X412614Y260000D02*
G03*
X412614Y260000I-1114J0D01*
G01*
X413170Y260035D02*
G03*
X413170Y260035I-1670J0D01*
G01*
X412057D02*
G03*
X412057Y260035I-557J0D01*
G01*
X387858Y270500D02*
G03*
X387858Y270500I-394J0D01*
G01*
X388614D02*
G03*
X388614Y270500I-1114J0D01*
G01*
X389135D02*
G03*
X389135Y270500I-1670J0D01*
G01*
X388021D02*
G03*
X388021Y270500I-557J0D01*
G01*
X411394Y370035D02*
G03*
X411394Y370035I-394J0D01*
G01*
X412114Y370000D02*
G03*
X412114Y370000I-1114J0D01*
G01*
X412670Y370035D02*
G03*
X412670Y370035I-1670J0D01*
G01*
X411557D02*
G03*
X411557Y370035I-557J0D01*
G01*
X387358Y381000D02*
G03*
X387358Y381000I-394J0D01*
G01*
X388113D02*
G03*
X388113Y381000I-1114J0D01*
G01*
X388635D02*
G03*
X388635Y381000I-1670J0D01*
G01*
X387521D02*
G03*
X387521Y381000I-557J0D01*
G01*
X432500Y409000D02*
X442500D01*
Y359000D02*
Y409000D01*
X432500Y359000D02*
Y409000D01*
Y359000D02*
X442500D01*
X364539Y325398D02*
Y337602D01*
X393870Y325398D02*
X395642Y327169D01*
X393870Y337602D02*
X395642Y335831D01*
Y327169D02*
Y335831D01*
X364539Y325398D02*
X374776D01*
X364539Y337602D02*
X374776D01*
X384224D02*
X393870D01*
X384224Y325398D02*
X393870D01*
X385898Y420961D02*
X398102D01*
X385898Y391630D02*
X387669Y389858D01*
X396331D02*
X398102Y391630D01*
X387669Y389858D02*
X396331D01*
X385898Y410724D02*
Y420961D01*
X398102Y410724D02*
Y420961D01*
Y391630D02*
Y401276D01*
X385898Y391630D02*
Y401276D01*
Y310961D02*
X398102D01*
X385898Y281630D02*
X387669Y279858D01*
X396331D02*
X398102Y281630D01*
X387669Y279858D02*
X396331D01*
X385898Y300724D02*
Y310961D01*
X398102Y300724D02*
Y310961D01*
Y281630D02*
Y291276D01*
X385898Y281630D02*
Y291276D01*
X362539Y216398D02*
Y228602D01*
X391870Y216398D02*
X393642Y218169D01*
X391870Y228602D02*
X393642Y226831D01*
Y218169D02*
Y226831D01*
X362539Y216398D02*
X372776D01*
X362539Y228602D02*
X372776D01*
X382224D02*
X391870D01*
X382224Y216398D02*
X391870D01*
X363453Y199925D02*
Y203075D01*
X357547Y199925D02*
Y203075D01*
X405382Y123264D02*
Y143736D01*
X415618Y123264D02*
Y143736D01*
X393264Y155382D02*
X413736D01*
X393264Y165618D02*
X413736D01*
X384047Y137925D02*
Y141075D01*
X389953Y137925D02*
Y141075D01*
X363039Y103398D02*
Y115602D01*
X392370Y103398D02*
X394142Y105169D01*
X392370Y115602D02*
X394142Y113831D01*
Y105169D02*
Y113831D01*
X363039Y103398D02*
X373276D01*
X363039Y115602D02*
X373276D01*
X382724D02*
X392370D01*
X382724Y103398D02*
X392370D01*
X372925Y161953D02*
X376075D01*
X372925Y156047D02*
X376075D01*
X380453Y137925D02*
Y141075D01*
X374547Y137925D02*
Y141075D01*
X406382Y233264D02*
Y253736D01*
X416618Y233264D02*
Y253736D01*
X372925Y273953D02*
X376075D01*
X372925Y268047D02*
X376075D01*
X393764Y265382D02*
X414236D01*
X393764Y275618D02*
X414236D01*
X405882Y343264D02*
Y363736D01*
X416118Y343264D02*
Y363736D01*
X372925Y378047D02*
X376075D01*
X372925Y383953D02*
X376075D01*
X290547Y127925D02*
Y131075D01*
X296453Y127925D02*
Y131075D01*
X281547Y159925D02*
Y163075D01*
X287453Y159925D02*
Y163075D01*
X291047Y159925D02*
Y163075D01*
X296953Y159925D02*
Y163075D01*
X296953Y182425D02*
Y185575D01*
X291047Y182425D02*
Y185575D01*
X297453Y292925D02*
Y296075D01*
X291547Y292925D02*
Y296075D01*
X281547Y269925D02*
Y273075D01*
X287453Y269925D02*
Y273075D01*
X291047Y269925D02*
Y273075D01*
X296953Y269925D02*
Y273075D01*
X323024Y355500D02*
X350976D01*
Y405500D01*
X323024D02*
X350976D01*
X323024Y355500D02*
Y405500D01*
Y135500D02*
Y185500D01*
X350976D01*
Y135500D02*
Y185500D01*
X323024Y135500D02*
X350976D01*
X323024Y245500D02*
Y295500D01*
X350976D01*
Y245500D02*
Y295500D01*
X323024Y245500D02*
X350976D01*
X251500Y409000D02*
X261500D01*
Y359000D02*
Y409000D01*
X251500Y359000D02*
Y409000D01*
Y359000D02*
X261500D01*
X251500Y249000D02*
X261500D01*
X251500D02*
Y299000D01*
X261500Y249000D02*
Y299000D01*
X251500D02*
X261500D01*
X251500Y139000D02*
X261500D01*
X251500D02*
Y189000D01*
X261500Y139000D02*
Y189000D01*
X251500D02*
X261500D01*
X432500Y139000D02*
X442500D01*
X432500D02*
Y189000D01*
X442500Y139000D02*
Y189000D01*
X432500D02*
X442500D01*
X359453Y419425D02*
Y422575D01*
X353547Y419425D02*
Y422575D01*
X393264Y375882D02*
X413736D01*
X393264Y386118D02*
X413736D01*
X384047Y357925D02*
Y361075D01*
X389953Y357925D02*
Y361075D01*
X296953Y350425D02*
Y353575D01*
X291047Y350425D02*
Y353575D01*
X291547Y402425D02*
Y405575D01*
X297453Y402425D02*
Y405575D01*
X287453Y379925D02*
Y383075D01*
X281547Y379925D02*
Y383075D01*
X296953Y379925D02*
Y383075D01*
X291047Y379925D02*
Y383075D01*
X374547Y357925D02*
Y361075D01*
X380453Y357925D02*
Y361075D01*
X432500Y299000D02*
X442500D01*
Y249000D02*
Y299000D01*
X432500Y249000D02*
Y299000D01*
Y249000D02*
X442500D01*
X354047Y307925D02*
Y311075D01*
X359953Y307925D02*
Y311075D01*
X376047Y247925D02*
Y251075D01*
X381953Y247925D02*
Y251075D01*
X391953Y247925D02*
Y251075D01*
X386047Y247925D02*
Y251075D01*
X296453Y240425D02*
Y243575D01*
X290547Y240425D02*
Y243575D01*
X353500Y461000D02*
X363500D01*
Y441000D02*
Y461000D01*
X353500Y441000D02*
X363500D01*
X353500D02*
Y461000D01*
X315000D02*
X325000D01*
Y441000D02*
Y461000D01*
X315000Y441000D02*
X325000D01*
X315000D02*
Y461000D01*
X386398Y171630D02*
Y181276D01*
X398602Y171630D02*
Y181276D01*
Y190724D02*
Y200961D01*
X386398Y190724D02*
Y200961D01*
X388169Y169858D02*
X396831D01*
X398602Y171630D01*
X386398D02*
X388169Y169858D01*
X386398Y200961D02*
X398602D01*
D11*
X312827Y402252D02*
G03*
X312827Y402252I-492J0D01*
G01*
Y182252D02*
G03*
X312827Y182252I-492J0D01*
G01*
Y292252D02*
G03*
X312827Y292252I-492J0D01*
G01*
D12*
X252000Y335295D02*
X253666D01*
X252833D01*
Y330296D01*
X252000D01*
X253666D01*
X256165D02*
X258664D01*
X259498Y331129D01*
X258664Y331962D01*
X256998D01*
X256165Y332795D01*
X256998Y333628D01*
X259498D01*
X261997Y330296D02*
X263663D01*
X264496Y331129D01*
Y332795D01*
X263663Y333628D01*
X261997D01*
X261164Y332795D01*
Y331129D01*
X261997Y330296D01*
X266162D02*
X267828D01*
X266995D01*
Y335295D01*
X266162D01*
X271161Y333628D02*
X272827D01*
X273660Y332795D01*
Y330296D01*
X271161D01*
X270327Y331129D01*
X271161Y331962D01*
X273660D01*
X276159Y334461D02*
Y333628D01*
X275326D01*
X276992D01*
X276159D01*
Y331129D01*
X276992Y330296D01*
X281990D02*
X280324D01*
X279491Y331129D01*
Y332795D01*
X280324Y333628D01*
X281990D01*
X282823Y332795D01*
Y331962D01*
X279491D01*
X287822Y335295D02*
Y330296D01*
X285322D01*
X284489Y331129D01*
Y332795D01*
X285322Y333628D01*
X287822D01*
X255332Y326063D02*
X254499Y326896D01*
X252833D01*
X252000Y326063D01*
Y322731D01*
X252833Y321898D01*
X254499D01*
X255332Y322731D01*
Y324397D01*
X253666D01*
X257831Y325230D02*
X259498D01*
X260331Y324397D01*
Y321898D01*
X257831D01*
X256998Y322731D01*
X257831Y323564D01*
X260331D01*
X262830Y326063D02*
Y325230D01*
X261997D01*
X263663D01*
X262830D01*
Y322731D01*
X263663Y321898D01*
X268661D02*
X266995D01*
X266162Y322731D01*
Y324397D01*
X266995Y325230D01*
X268661D01*
X269494Y324397D01*
Y323564D01*
X266162D01*
X276159Y326896D02*
Y321898D01*
X278658D01*
X279491Y322731D01*
Y326063D01*
X278658Y326896D01*
X276159D01*
X281157Y325230D02*
Y321898D01*
Y323564D01*
X281990Y324397D01*
X282823Y325230D01*
X283656D01*
X286156Y321898D02*
X287822D01*
X286989D01*
Y325230D01*
X286156D01*
X290321D02*
X291987Y321898D01*
X293653Y325230D01*
X297818Y321898D02*
X296152D01*
X295319Y322731D01*
Y324397D01*
X296152Y325230D01*
X297818D01*
X298652Y324397D01*
Y323564D01*
X295319D01*
X300318Y325230D02*
Y321898D01*
Y323564D01*
X301151Y324397D01*
X301984Y325230D01*
X302817D01*
X252000Y316832D02*
X253666Y313500D01*
X255332Y316832D01*
X256998Y317665D02*
X257831Y318498D01*
X259498D01*
X260331Y317665D01*
Y314333D01*
X259498Y313500D01*
X257831D01*
X256998Y314333D01*
Y317665D01*
X261997Y313500D02*
Y314333D01*
X262830D01*
Y313500D01*
X261997D01*
X266162D02*
X267828D01*
X266995D01*
Y318498D01*
X266162Y317665D01*
X433100Y412400D02*
Y415399D01*
X434599D01*
X435099Y414899D01*
Y413900D01*
X434599Y413400D01*
X433100D01*
X436099Y412400D02*
X437099D01*
X436599D01*
Y415399D01*
X436099Y414899D01*
X252100Y412400D02*
Y415399D01*
X253600D01*
X254099Y414899D01*
Y413900D01*
X253600Y413400D01*
X252100D01*
X256598Y412400D02*
Y415399D01*
X255099Y413900D01*
X257098D01*
X363000Y395500D02*
X362501Y395000D01*
Y394001D01*
X363000Y393501D01*
X365000D01*
X365499Y394001D01*
Y395000D01*
X365000Y395500D01*
X362501Y396500D02*
Y398499D01*
X363000D01*
X365000Y396500D01*
X365499D01*
X407501Y391499D02*
Y388500D01*
X409000D01*
X409500Y389000D01*
Y391000D01*
X409000Y391499D01*
X407501D01*
X410500Y388500D02*
X411499D01*
X410999D01*
Y391499D01*
X410500Y391000D01*
X373501Y149001D02*
Y151999D01*
X375001D01*
X375501Y151500D01*
Y150500D01*
X375001Y150000D01*
X373501D01*
X374501D02*
X375501Y149001D01*
X376500Y151500D02*
X377000Y151999D01*
X378000D01*
X378500Y151500D01*
Y151000D01*
X378000Y150500D01*
X377500D01*
X378000D01*
X378500Y150000D01*
Y149500D01*
X378000Y149001D01*
X377000D01*
X376500Y149500D01*
X379499Y151500D02*
X379999Y151999D01*
X380999D01*
X381499Y151500D01*
Y151000D01*
X380999Y150500D01*
X380499D01*
X380999D01*
X381499Y150000D01*
Y149500D01*
X380999Y149001D01*
X379999D01*
X379499Y149500D01*
X383501Y149001D02*
Y151999D01*
X385001D01*
X385501Y151500D01*
Y150500D01*
X385001Y150000D01*
X383501D01*
X384501D02*
X385501Y149001D01*
X386500Y151500D02*
X387000Y151999D01*
X388000D01*
X388499Y151500D01*
Y151000D01*
X388000Y150500D01*
X387500D01*
X388000D01*
X388499Y150000D01*
Y149500D01*
X388000Y149001D01*
X387000D01*
X386500Y149500D01*
X389499Y149001D02*
X390499D01*
X389999D01*
Y151999D01*
X389499Y151500D01*
X289501Y139000D02*
Y141999D01*
X291001D01*
X291501Y141500D01*
Y140500D01*
X291001Y140000D01*
X289501D01*
X290501D02*
X291501Y139000D01*
X294500D02*
X292500D01*
X294500Y141000D01*
Y141500D01*
X294000Y141999D01*
X293000D01*
X292500Y141500D01*
X295499Y139500D02*
X295999Y139000D01*
X296999D01*
X297499Y139500D01*
Y141500D01*
X296999Y141999D01*
X295999D01*
X295499Y141500D01*
Y141000D01*
X295999Y140500D01*
X297499D01*
X281001Y171001D02*
Y174000D01*
X282501D01*
X283001Y173500D01*
Y172500D01*
X282501Y172000D01*
X281001D01*
X282001D02*
X283001Y171001D01*
X286000D02*
X284000D01*
X286000Y173000D01*
Y173500D01*
X285500Y174000D01*
X284500D01*
X284000Y173500D01*
X286999Y174000D02*
X288999D01*
Y173500D01*
X286999Y171500D01*
Y171001D01*
X290501Y193500D02*
Y196500D01*
X292001D01*
X292501Y196000D01*
Y195000D01*
X292001Y194500D01*
X290501D01*
X291501D02*
X292501Y193500D01*
X295500D02*
X293500D01*
X295500Y195500D01*
Y196000D01*
X295000Y196500D01*
X294000D01*
X293500Y196000D01*
X298499Y196500D02*
X296499D01*
Y195000D01*
X297499Y195500D01*
X297999D01*
X298499Y195000D01*
Y194000D01*
X297999Y193500D01*
X296999D01*
X296499Y194000D01*
X357001Y211000D02*
Y214000D01*
X358501D01*
X359001Y213500D01*
Y212500D01*
X358501Y212000D01*
X357001D01*
X358001D02*
X359001Y211000D01*
X362000D02*
X360000D01*
X362000Y213000D01*
Y213500D01*
X361500Y214000D01*
X360500D01*
X360000Y213500D01*
X362999D02*
X363499Y214000D01*
X364499D01*
X364999Y213500D01*
Y213000D01*
X364499Y212500D01*
X363999D01*
X364499D01*
X364999Y212000D01*
Y211500D01*
X364499Y211000D01*
X363499D01*
X362999Y211500D01*
X365000Y156001D02*
X362000D01*
Y157501D01*
X362500Y158001D01*
X363500D01*
X364000Y157501D01*
Y156001D01*
Y157001D02*
X365000Y158001D01*
Y161000D02*
Y159000D01*
X363000Y161000D01*
X362500D01*
X362000Y160500D01*
Y159500D01*
X362500Y159000D01*
X365000Y161999D02*
Y162999D01*
Y162499D01*
X362000D01*
X362500Y161999D01*
X290751Y171001D02*
Y174000D01*
X292251D01*
X292751Y173500D01*
Y172500D01*
X292251Y172000D01*
X290751D01*
X291751D02*
X292751Y171001D01*
X293750D02*
X294750D01*
X294250D01*
Y174000D01*
X293750Y173500D01*
X296249Y171500D02*
X296749Y171001D01*
X297749D01*
X298249Y171500D01*
Y173500D01*
X297749Y174000D01*
X296749D01*
X296249Y173500D01*
Y173000D01*
X296749Y172500D01*
X298249D01*
X376100Y260600D02*
Y263599D01*
X377600D01*
X378099Y263099D01*
Y262100D01*
X377600Y261600D01*
X376100D01*
X377100D02*
X378099Y260600D01*
X379099D02*
X380099D01*
X379599D01*
Y263599D01*
X379099Y263099D01*
X381598D02*
X382098Y263599D01*
X383098D01*
X383598Y263099D01*
Y262599D01*
X383098Y262100D01*
X383598Y261600D01*
Y261100D01*
X383098Y260600D01*
X382098D01*
X381598Y261100D01*
Y261600D01*
X382098Y262100D01*
X381598Y262599D01*
Y263099D01*
X382098Y262100D02*
X383098D01*
X374600Y370600D02*
Y373599D01*
X376099D01*
X376599Y373099D01*
Y372099D01*
X376099Y371600D01*
X374600D01*
X375600D02*
X376599Y370600D01*
X377599D02*
X378599D01*
X378099D01*
Y373599D01*
X377599Y373099D01*
X380098Y373599D02*
X382098D01*
Y373099D01*
X380098Y371100D01*
Y370600D01*
X386100Y260600D02*
Y263599D01*
X387599D01*
X388099Y263099D01*
Y262100D01*
X387599Y261600D01*
X386100D01*
X387100D02*
X388099Y260600D01*
X389099D02*
X390099D01*
X389599D01*
Y263599D01*
X389099Y263099D01*
X393598Y263599D02*
X392598Y263099D01*
X391598Y262100D01*
Y261100D01*
X392098Y260600D01*
X393098D01*
X393598Y261100D01*
Y261600D01*
X393098Y262100D01*
X391598D01*
X384100Y370600D02*
Y373599D01*
X385599D01*
X386099Y373099D01*
Y372099D01*
X385599Y371600D01*
X384100D01*
X385100D02*
X386099Y370600D01*
X387099D02*
X388099D01*
X387599D01*
Y373599D01*
X387099Y373099D01*
X391598Y373599D02*
X389598D01*
Y372099D01*
X390598Y372599D01*
X391098D01*
X391598Y372099D01*
Y371100D01*
X391098Y370600D01*
X390098D01*
X389598Y371100D01*
X290600Y253100D02*
Y256099D01*
X292099D01*
X292599Y255599D01*
Y254599D01*
X292099Y254100D01*
X290600D01*
X291600D02*
X292599Y253100D01*
X293599D02*
X294599D01*
X294099D01*
Y256099D01*
X293599Y255599D01*
X297598Y253100D02*
Y256099D01*
X296098Y254599D01*
X298098D01*
X290251Y362000D02*
Y365000D01*
X291751D01*
X292251Y364500D01*
Y363500D01*
X291751Y363000D01*
X290251D01*
X291251D02*
X292251Y362000D01*
X293250D02*
X294250D01*
X293750D01*
Y365000D01*
X293250Y364500D01*
X295749D02*
X296249Y365000D01*
X297249D01*
X297749Y364500D01*
Y364000D01*
X297249Y363500D01*
X296749D01*
X297249D01*
X297749Y363000D01*
Y362500D01*
X297249Y362000D01*
X296249D01*
X295749Y362500D01*
X280751Y282000D02*
Y284999D01*
X282251D01*
X282751Y284500D01*
Y283500D01*
X282251Y283000D01*
X280751D01*
X281751D02*
X282751Y282000D01*
X283750D02*
X284750D01*
X284250D01*
Y284999D01*
X283750Y284500D01*
X288249Y282000D02*
X286249D01*
X288249Y284000D01*
Y284500D01*
X287749Y284999D01*
X286749D01*
X286249Y284500D01*
X281251Y391500D02*
Y394499D01*
X282751D01*
X283250Y394000D01*
Y393000D01*
X282751Y392500D01*
X281251D01*
X282251D02*
X283250Y391500D01*
X284250D02*
X285250D01*
X284750D01*
Y394499D01*
X284250Y394000D01*
X286749Y391500D02*
X287749D01*
X287249D01*
Y394499D01*
X286749Y394000D01*
X291251Y303501D02*
Y306500D01*
X292751D01*
X293251Y306000D01*
Y305000D01*
X292751Y304500D01*
X291251D01*
X292251D02*
X293251Y303501D01*
X294250D02*
X295250D01*
X294750D01*
Y306500D01*
X294250Y306000D01*
X296749D02*
X297249Y306500D01*
X298249D01*
X298749Y306000D01*
Y304000D01*
X298249Y303501D01*
X297249D01*
X296749Y304000D01*
Y306000D01*
X292501Y413000D02*
Y416000D01*
X294000D01*
X294500Y415500D01*
Y414500D01*
X294000Y414000D01*
X292501D01*
X293500D02*
X294500Y413000D01*
X295500Y413500D02*
X296000Y413000D01*
X296999D01*
X297499Y413500D01*
Y415500D01*
X296999Y416000D01*
X296000D01*
X295500Y415500D01*
Y415000D01*
X296000Y414500D01*
X297499D01*
X354100Y320600D02*
Y323599D01*
X355599D01*
X356099Y323099D01*
Y322099D01*
X355599Y321600D01*
X354100D01*
X355100D02*
X356099Y320600D01*
X357099Y323099D02*
X357599Y323599D01*
X358598D01*
X359098Y323099D01*
Y322599D01*
X358598Y322099D01*
X359098Y321600D01*
Y321100D01*
X358598Y320600D01*
X357599D01*
X357099Y321100D01*
Y321600D01*
X357599Y322099D01*
X357099Y322599D01*
Y323099D01*
X357599Y322099D02*
X358598D01*
X353600Y432100D02*
Y435099D01*
X355100D01*
X355599Y434599D01*
Y433600D01*
X355100Y433100D01*
X353600D01*
X354600D02*
X355599Y432100D01*
X356599Y435099D02*
X358598D01*
Y434599D01*
X356599Y432600D01*
Y432100D01*
X364499Y268501D02*
X361501D01*
Y270000D01*
X362000Y270500D01*
X363000D01*
X363500Y270000D01*
Y268501D01*
Y269500D02*
X364499Y270500D01*
X361501Y273499D02*
X362000Y272499D01*
X363000Y271500D01*
X364000D01*
X364499Y272000D01*
Y272999D01*
X364000Y273499D01*
X363500D01*
X363000Y272999D01*
Y271500D01*
X365000Y379001D02*
X362000D01*
Y380500D01*
X362500Y381000D01*
X363500D01*
X364000Y380500D01*
Y379001D01*
Y380000D02*
X365000Y381000D01*
X362000Y383999D02*
Y382000D01*
X363500D01*
X363000Y382999D01*
Y383499D01*
X363500Y383999D01*
X364500D01*
X365000Y383499D01*
Y382500D01*
X364500Y382000D01*
X292001Y282000D02*
Y284999D01*
X293500D01*
X294000Y284500D01*
Y283500D01*
X293500Y283000D01*
X292001D01*
X293001D02*
X294000Y282000D01*
X296499D02*
Y284999D01*
X295000Y283500D01*
X296999D01*
X291501Y391500D02*
Y394499D01*
X293000D01*
X293500Y394000D01*
Y393000D01*
X293000Y392500D01*
X291501D01*
X292500D02*
X293500Y391500D01*
X294500Y394000D02*
X295000Y394499D01*
X295999D01*
X296499Y394000D01*
Y393500D01*
X295999Y393000D01*
X295499D01*
X295999D01*
X296499Y392500D01*
Y392000D01*
X295999Y391500D01*
X295000D01*
X294500Y392000D01*
X252100Y192400D02*
Y195399D01*
X253600D01*
X254099Y194899D01*
Y193900D01*
X253600Y193400D01*
X252100D01*
X257098Y195399D02*
X256099Y194899D01*
X255099Y193900D01*
Y192900D01*
X255599Y192400D01*
X256598D01*
X257098Y192900D01*
Y193400D01*
X256598Y193900D01*
X255099D01*
X252100Y302400D02*
Y305399D01*
X253600D01*
X254099Y304899D01*
Y303900D01*
X253600Y303400D01*
X252100D01*
X257098Y305399D02*
X255099D01*
Y303900D01*
X256099Y304399D01*
X256598D01*
X257098Y303900D01*
Y302900D01*
X256598Y302400D01*
X255599D01*
X255099Y302900D01*
X433100Y192400D02*
Y195399D01*
X434599D01*
X435099Y194899D01*
Y193900D01*
X434599Y193400D01*
X433100D01*
X436099Y194899D02*
X436599Y195399D01*
X437599D01*
X438098Y194899D01*
Y194399D01*
X437599Y193900D01*
X437099D01*
X437599D01*
X438098Y193400D01*
Y192900D01*
X437599Y192400D01*
X436599D01*
X436099Y192900D01*
X433100Y302400D02*
Y305399D01*
X434599D01*
X435099Y304899D01*
Y303900D01*
X434599Y303400D01*
X433100D01*
X438098Y302400D02*
X436099D01*
X438098Y304399D01*
Y304899D01*
X437599Y305399D01*
X436599D01*
X436099Y304899D01*
X356099Y467399D02*
X355100D01*
X355599D01*
Y464900D01*
X355100Y464400D01*
X354600D01*
X354100Y464900D01*
X359098Y464400D02*
X357099D01*
X359098Y466399D01*
Y466899D01*
X358598Y467399D01*
X357599D01*
X357099Y466899D01*
X317599Y467399D02*
X316600D01*
X317099D01*
Y464900D01*
X316600Y464400D01*
X316100D01*
X315600Y464900D01*
X318599Y464400D02*
X319599D01*
X319099D01*
Y467399D01*
X318599Y466899D01*
X307254Y194000D02*
Y191000D01*
X308753D01*
X309253Y191500D01*
Y193500D01*
X308753Y194000D01*
X307254D01*
X310253Y193000D02*
Y191000D01*
Y192000D01*
X310753Y192500D01*
X311252Y193000D01*
X311752D01*
X313252Y191000D02*
X314251D01*
X313752D01*
Y193000D01*
X313252D01*
X315751D02*
X316751Y191000D01*
X317750Y193000D01*
X320249Y191000D02*
X319250D01*
X318750Y191500D01*
Y192500D01*
X319250Y193000D01*
X320249D01*
X320749Y192500D01*
Y192000D01*
X318750D01*
X321749Y193000D02*
Y191000D01*
Y192000D01*
X322249Y192500D01*
X322749Y193000D01*
X323249D01*
X324748Y192500D02*
X326747D01*
X327747Y193500D02*
X328247Y194000D01*
X329246D01*
X329746Y193500D01*
Y193000D01*
X329246Y192500D01*
X328747D01*
X329246D01*
X329746Y192000D01*
Y191500D01*
X329246Y191000D01*
X328247D01*
X327747Y191500D01*
X307754Y305999D02*
Y303000D01*
X309253D01*
X309753Y303500D01*
Y305500D01*
X309253Y305999D01*
X307754D01*
X310753Y305000D02*
Y303000D01*
Y304000D01*
X311252Y304500D01*
X311752Y305000D01*
X312252D01*
X313752Y303000D02*
X314751D01*
X314251D01*
Y305000D01*
X313752D01*
X316251D02*
X317251Y303000D01*
X318250Y305000D01*
X320749Y303000D02*
X319750D01*
X319250Y303500D01*
Y304500D01*
X319750Y305000D01*
X320749D01*
X321249Y304500D01*
Y304000D01*
X319250D01*
X322249Y305000D02*
Y303000D01*
Y304000D01*
X322749Y304500D01*
X323249Y305000D01*
X323748D01*
X325248Y304500D02*
X327247D01*
X330246Y303000D02*
X328247D01*
X330246Y305000D01*
Y305500D01*
X329747Y305999D01*
X328747D01*
X328247Y305500D01*
X308753Y413499D02*
Y410500D01*
X310253D01*
X310753Y411000D01*
Y413000D01*
X310253Y413499D01*
X308753D01*
X311753Y412500D02*
Y410500D01*
Y411500D01*
X312252Y412000D01*
X312752Y412500D01*
X313252D01*
X314752Y410500D02*
X315751D01*
X315251D01*
Y412500D01*
X314752D01*
X317251D02*
X318250Y410500D01*
X319250Y412500D01*
X321749Y410500D02*
X320750D01*
X320250Y411000D01*
Y412000D01*
X320750Y412500D01*
X321749D01*
X322249Y412000D01*
Y411500D01*
X320250D01*
X323249Y412500D02*
Y410500D01*
Y411500D01*
X323749Y412000D01*
X324249Y412500D01*
X324748D01*
X326248Y412000D02*
X328247D01*
X329247Y410500D02*
X330246D01*
X329747D01*
Y413499D01*
X329247Y413000D01*
X396251Y111000D02*
Y108001D01*
X397751D01*
X398251Y108500D01*
Y110500D01*
X397751Y111000D01*
X396251D01*
X399250Y108001D02*
X400250D01*
X399750D01*
Y111000D01*
X399250Y110500D01*
X401749Y111000D02*
X403749D01*
Y110500D01*
X401749Y108500D01*
Y108001D01*
X417751Y136500D02*
Y133501D01*
X419251D01*
X419751Y134000D01*
Y136000D01*
X419251Y136500D01*
X417751D01*
X420750Y133501D02*
X421750D01*
X421250D01*
Y136500D01*
X420750Y136000D01*
X425249Y136500D02*
X423249D01*
Y135000D01*
X424249Y135500D01*
X424749D01*
X425249Y135000D01*
Y134000D01*
X424749Y133501D01*
X423749D01*
X423249Y134000D01*
X387000Y207399D02*
Y204400D01*
X388499D01*
X388999Y204900D01*
Y206899D01*
X388499Y207399D01*
X387000D01*
X389999Y204400D02*
X390999D01*
X390499D01*
Y207399D01*
X389999Y206899D01*
X392498D02*
X392998Y207399D01*
X393998D01*
X394498Y206899D01*
Y206399D01*
X393998Y205900D01*
X393498D01*
X393998D01*
X394498Y205400D01*
Y204900D01*
X393998Y204400D01*
X392998D01*
X392498Y204900D01*
X406251Y170500D02*
Y167500D01*
X407751D01*
X408250Y168000D01*
Y170000D01*
X407751Y170500D01*
X406251D01*
X409250Y167500D02*
X410250D01*
X409750D01*
Y170500D01*
X409250Y170000D01*
X411749Y167500D02*
X412749D01*
X412249D01*
Y170500D01*
X411749Y170000D01*
X395501Y224000D02*
Y221001D01*
X397000D01*
X397500Y221500D01*
Y223500D01*
X397000Y224000D01*
X395501D01*
X398500Y223500D02*
X399000Y224000D01*
X399999D01*
X400499Y223500D01*
Y223000D01*
X399999Y222500D01*
X400499Y222000D01*
Y221500D01*
X399999Y221001D01*
X399000D01*
X398500Y221500D01*
Y222000D01*
X399000Y222500D01*
X398500Y223000D01*
Y223500D01*
X399000Y222500D02*
X399999D01*
X399001Y332999D02*
Y330000D01*
X400500D01*
X401000Y330500D01*
Y332500D01*
X400500Y332999D01*
X399001D01*
X402000D02*
X403999D01*
Y332500D01*
X402000Y330500D01*
Y330000D01*
X419501Y262000D02*
Y259000D01*
X421000D01*
X421500Y259500D01*
Y261500D01*
X421000Y262000D01*
X419501D01*
X424499D02*
X423499Y261500D01*
X422500Y260500D01*
Y259500D01*
X423000Y259000D01*
X423999D01*
X424499Y259500D01*
Y260000D01*
X423999Y260500D01*
X422500D01*
X419001Y355999D02*
Y353000D01*
X420500D01*
X421000Y353500D01*
Y355500D01*
X420500Y355999D01*
X419001D01*
X423999D02*
X422000D01*
Y354500D01*
X422999Y355000D01*
X423499D01*
X423999Y354500D01*
Y353500D01*
X423499Y353000D01*
X422500D01*
X422000Y353500D01*
X388501Y316499D02*
Y313500D01*
X390000D01*
X390500Y314000D01*
Y316000D01*
X390000Y316499D01*
X388501D01*
X392999Y313500D02*
Y316499D01*
X391500Y315000D01*
X393499D01*
X387001Y426500D02*
Y423500D01*
X388500D01*
X389000Y424000D01*
Y426000D01*
X388500Y426500D01*
X387001D01*
X390000Y426000D02*
X390500Y426500D01*
X391499D01*
X391999Y426000D01*
Y425500D01*
X391499Y425000D01*
X391000D01*
X391499D01*
X391999Y424500D01*
Y424000D01*
X391499Y423500D01*
X390500D01*
X390000Y424000D01*
X403501Y280999D02*
Y278000D01*
X405000D01*
X405500Y278500D01*
Y280500D01*
X405000Y280999D01*
X403501D01*
X408499Y278000D02*
X406500D01*
X408499Y280000D01*
Y280500D01*
X407999Y280999D01*
X407000D01*
X406500Y280500D01*
X388501Y123500D02*
X388001Y124000D01*
X387001D01*
X386501Y123500D01*
Y121500D01*
X387001Y121001D01*
X388001D01*
X388501Y121500D01*
X391500Y121001D02*
X389500D01*
X391500Y123000D01*
Y123500D01*
X391000Y124000D01*
X390000D01*
X389500Y123500D01*
X392499Y124000D02*
X394499D01*
Y123500D01*
X392499Y121500D01*
Y121001D01*
X365501Y149500D02*
X365001Y149999D01*
X364001D01*
X363501Y149500D01*
Y147500D01*
X364001Y147001D01*
X365001D01*
X365501Y147500D01*
X368500Y147001D02*
X366500D01*
X368500Y149000D01*
Y149500D01*
X368000Y149999D01*
X367000D01*
X366500Y149500D01*
X371499Y149999D02*
X369499D01*
Y148500D01*
X370499Y149000D01*
X370999D01*
X371499Y148500D01*
Y147500D01*
X370999Y147001D01*
X369999D01*
X369499Y147500D01*
X301501Y141500D02*
X301001Y141999D01*
X300001D01*
X299501Y141500D01*
Y139500D01*
X300001Y139000D01*
X301001D01*
X301501Y139500D01*
X304500Y139000D02*
X302500D01*
X304500Y141000D01*
Y141500D01*
X304000Y141999D01*
X303000D01*
X302500Y141500D01*
X305499D02*
X305999Y141999D01*
X306999D01*
X307499Y141500D01*
Y141000D01*
X306999Y140500D01*
X306499D01*
X306999D01*
X307499Y140000D01*
Y139500D01*
X306999Y139000D01*
X305999D01*
X305499Y139500D01*
X379000Y186500D02*
X378501Y186999D01*
X377501D01*
X377001Y186500D01*
Y184500D01*
X377501Y184001D01*
X378501D01*
X379000Y184500D01*
X381999Y184001D02*
X380000D01*
X381999Y186000D01*
Y186500D01*
X381500Y186999D01*
X380500D01*
X380000Y186500D01*
X382999Y184001D02*
X383999D01*
X383499D01*
Y186999D01*
X382999Y186500D01*
X362500Y174251D02*
X362000Y173751D01*
Y172751D01*
X362500Y172251D01*
X364500D01*
X365000Y172751D01*
Y173751D01*
X364500Y174251D01*
X365000Y175250D02*
Y176250D01*
Y175750D01*
X362000D01*
X362500Y175250D01*
X364500Y177749D02*
X365000Y178249D01*
Y179249D01*
X364500Y179749D01*
X362500D01*
X362000Y179249D01*
Y178249D01*
X362500Y177749D01*
X363000D01*
X363500Y178249D01*
Y179749D01*
X302251Y173500D02*
X301751Y174000D01*
X300751D01*
X300251Y173500D01*
Y171500D01*
X300751Y171001D01*
X301751D01*
X302251Y171500D01*
X303250Y171001D02*
X304250D01*
X303750D01*
Y174000D01*
X303250Y173500D01*
X305749Y174000D02*
X307749D01*
Y173500D01*
X305749Y171500D01*
Y171001D01*
X390251Y235000D02*
X389751Y235500D01*
X388751D01*
X388251Y235000D01*
Y233000D01*
X388751Y232501D01*
X389751D01*
X390251Y233000D01*
X391250Y232501D02*
X392250D01*
X391750D01*
Y235500D01*
X391250Y235000D01*
X395749Y235500D02*
X394749Y235000D01*
X393749Y234000D01*
Y233000D01*
X394249Y232501D01*
X395249D01*
X395749Y233000D01*
Y233500D01*
X395249Y234000D01*
X393749D01*
X388751Y346000D02*
X388251Y346499D01*
X387251D01*
X386751Y346000D01*
Y344000D01*
X387251Y343500D01*
X388251D01*
X388751Y344000D01*
X389750Y343500D02*
X390750D01*
X390250D01*
Y346499D01*
X389750Y346000D01*
X394249Y346499D02*
X392249D01*
Y345000D01*
X393249Y345500D01*
X393749D01*
X394249Y345000D01*
Y344000D01*
X393749Y343500D01*
X392749D01*
X392249Y344000D01*
X367251Y259000D02*
X366751Y259500D01*
X365751D01*
X365251Y259000D01*
Y257000D01*
X365751Y256501D01*
X366751D01*
X367251Y257000D01*
X368250Y256501D02*
X369250D01*
X368750D01*
Y259500D01*
X368250Y259000D01*
X372249Y256501D02*
Y259500D01*
X370749Y258000D01*
X372749D01*
X366251Y369500D02*
X365751Y370000D01*
X364751D01*
X364251Y369500D01*
Y367500D01*
X364751Y367001D01*
X365751D01*
X366251Y367500D01*
X367250Y367001D02*
X368250D01*
X367750D01*
Y370000D01*
X367250Y369500D01*
X369749D02*
X370249Y370000D01*
X371249D01*
X371749Y369500D01*
Y369000D01*
X371249Y368500D01*
X370749D01*
X371249D01*
X371749Y368000D01*
Y367500D01*
X371249Y367001D01*
X370249D01*
X369749Y367500D01*
X302599Y255599D02*
X302099Y256099D01*
X301100D01*
X300600Y255599D01*
Y253600D01*
X301100Y253100D01*
X302099D01*
X302599Y253600D01*
X303599Y253100D02*
X304599D01*
X304099D01*
Y256099D01*
X303599Y255599D01*
X308098Y253100D02*
X306098D01*
X308098Y255099D01*
Y255599D01*
X307598Y256099D01*
X306598D01*
X306098Y255599D01*
X302750Y364500D02*
X302251Y365000D01*
X301251D01*
X300751Y364500D01*
Y362500D01*
X301251Y362000D01*
X302251D01*
X302750Y362500D01*
X303750Y362000D02*
X304750D01*
X304250D01*
Y365000D01*
X303750Y364500D01*
X306249Y362000D02*
X307249D01*
X306749D01*
Y365000D01*
X306249Y364500D01*
X378251Y296000D02*
X377751Y296499D01*
X376751D01*
X376251Y296000D01*
Y294000D01*
X376751Y293500D01*
X377751D01*
X378251Y294000D01*
X379250Y293500D02*
X380250D01*
X379750D01*
Y296499D01*
X379250Y296000D01*
X381749D02*
X382249Y296499D01*
X383249D01*
X383749Y296000D01*
Y294000D01*
X383249Y293500D01*
X382249D01*
X381749Y294000D01*
Y296000D01*
X379000Y408000D02*
X378500Y408499D01*
X377501D01*
X377001Y408000D01*
Y406000D01*
X377501Y405501D01*
X378500D01*
X379000Y406000D01*
X380000D02*
X380500Y405501D01*
X381499D01*
X381999Y406000D01*
Y408000D01*
X381499Y408499D01*
X380500D01*
X380000Y408000D01*
Y407500D01*
X380500Y407000D01*
X381999D01*
X363000Y285000D02*
X362501Y284500D01*
Y283501D01*
X363000Y283001D01*
X365000D01*
X365499Y283501D01*
Y284500D01*
X365000Y285000D01*
X363000Y286000D02*
X362501Y286500D01*
Y287499D01*
X363000Y287999D01*
X363500D01*
X364000Y287499D01*
X364500Y287999D01*
X365000D01*
X365499Y287499D01*
Y286500D01*
X365000Y286000D01*
X364500D01*
X364000Y286500D01*
X363500Y286000D01*
X363000D01*
X364000Y286500D02*
Y287499D01*
X302500Y284500D02*
X302000Y284999D01*
X301001D01*
X300501Y284500D01*
Y282500D01*
X301001Y282000D01*
X302000D01*
X302500Y282500D01*
X305499Y284999D02*
X304500Y284500D01*
X303500Y283500D01*
Y282500D01*
X304000Y282000D01*
X304999D01*
X305499Y282500D01*
Y283000D01*
X304999Y283500D01*
X303500D01*
X302500Y394000D02*
X302000Y394499D01*
X301001D01*
X300501Y394000D01*
Y392000D01*
X301001Y391500D01*
X302000D01*
X302500Y392000D01*
X305499Y394499D02*
X303500D01*
Y393000D01*
X304500Y393500D01*
X304999D01*
X305499Y393000D01*
Y392000D01*
X304999Y391500D01*
X304000D01*
X303500Y392000D01*
M02*
