M48
;Layer_Color=9474304
;FILE_FORMAT=2:5
INCH,TZ
;TYPE=PLATED
T1F00S00C0.01378
T2F00S00C0.03543
%
T01
X330000Y290000
X340000
Y310000
X370000
X375000Y300000
X380000Y290000
X390000
X400000
X410000
X420000
X430000
X435000Y300000
X425000
X415000
X370000Y290000
X290000
X280000
X285000Y300000
X275000
X265000
X270000Y310000
X280000
X260000
X240000
Y330000
Y350000
X250000
X260000Y348000
X265000Y340000
X275000
X290000Y350000
X295000Y360000
X285000
X290000Y370000
X295000Y380000
X245000
X240000Y370000
X245000Y360000
X265000Y320000
X339500Y326500
X349500Y325049
X351000Y343500
X340000Y350000
X330000
X335000Y360000
X345000
X340000Y370000
X330000
X335000Y380000
X345000
X355000
X365000
X375000
X385000
X395000
X405000
X395000Y360000
X385000
X390000Y350000
X400000
X410000
X420000
X430000
X425000Y340000
X415000
X405000
X395000
X435000
X380000Y370000
X360000
T02
X426000Y308000
X250000Y320000
Y330000
X254000Y370000
X264000
X274000
X284000
X426000Y328000
Y318000
M30
