G04*
G04 #@! TF.GenerationSoftware,Altium Limited,Altium Designer,21.6.4 (81)*
G04*
G04 Layer_Color=65535*
%FSLAX25Y25*%
%MOIN*%
G70*
G04*
G04 #@! TF.SameCoordinates,13C5D553-5763-431C-9762-CD72675E1F57*
G04*
G04*
G04 #@! TF.FilePolarity,Positive*
G04*
G01*
G75*
%ADD10C,0.02362*%
%ADD11C,0.00984*%
%ADD12C,0.00787*%
%ADD13C,0.01000*%
%ADD14C,0.00700*%
G36*
X306142Y378731D02*
X306615D01*
Y378702D01*
X306674D01*
Y378643D01*
X306704D01*
Y378524D01*
X306674D01*
Y378376D01*
X306645D01*
Y378288D01*
X306615D01*
Y378169D01*
X306586D01*
Y378080D01*
X306556D01*
Y378021D01*
X306526D01*
Y377932D01*
X306497D01*
Y377873D01*
X306467D01*
Y377784D01*
X306438D01*
Y377696D01*
X306408D01*
Y377636D01*
X306378D01*
Y377548D01*
X306349D01*
Y377488D01*
X306319D01*
Y377400D01*
X306290D01*
Y377340D01*
X306260D01*
Y377252D01*
X306230D01*
Y377192D01*
X306201D01*
Y377104D01*
X306171D01*
Y377044D01*
X306142D01*
Y376985D01*
X306112D01*
Y376896D01*
X306083D01*
Y376837D01*
X306053D01*
Y376778D01*
X306023D01*
Y376689D01*
X305994D01*
Y376630D01*
X305964D01*
Y376571D01*
X305935D01*
Y376512D01*
X305905D01*
Y376452D01*
X305875D01*
Y376393D01*
X305846D01*
Y376334D01*
X305816D01*
Y376245D01*
X305786D01*
Y376186D01*
X305757D01*
Y376127D01*
X305727D01*
Y376068D01*
X305698D01*
Y376038D01*
X305668D01*
Y375979D01*
X305639D01*
Y375920D01*
X305609D01*
Y375861D01*
X305579D01*
Y375801D01*
X305550D01*
Y375742D01*
X305520D01*
Y375683D01*
X305490D01*
Y375653D01*
X305461D01*
Y375594D01*
X305431D01*
Y375535D01*
X305402D01*
Y375505D01*
X305372D01*
Y375446D01*
X305343D01*
Y375387D01*
X305313D01*
Y375357D01*
X305283D01*
Y375298D01*
X305254D01*
Y375269D01*
X305224D01*
Y375209D01*
X305194D01*
Y375180D01*
X305165D01*
Y375120D01*
X305135D01*
Y375091D01*
X305106D01*
Y375061D01*
X305076D01*
Y375002D01*
X305047D01*
Y374973D01*
X305017D01*
Y374943D01*
X304987D01*
Y374913D01*
X304958D01*
Y374884D01*
X304928D01*
Y374854D01*
X304899D01*
Y374825D01*
X304869D01*
Y374795D01*
X304839D01*
Y374765D01*
X304810D01*
Y374736D01*
X304780D01*
Y374706D01*
X304721D01*
Y374676D01*
X304691D01*
Y374647D01*
X304632D01*
Y374617D01*
X304573D01*
Y374588D01*
X304543D01*
Y374558D01*
X304484D01*
Y374529D01*
X304425D01*
Y374499D01*
X304336D01*
Y374469D01*
X304277D01*
Y374440D01*
X304188D01*
Y374410D01*
X304099D01*
Y374380D01*
X303981D01*
Y374351D01*
X303833D01*
Y374321D01*
X303123D01*
Y374351D01*
X302975D01*
Y374380D01*
X302856D01*
Y374410D01*
X302767D01*
Y374440D01*
X302679D01*
Y374469D01*
X302619D01*
Y374499D01*
X302560D01*
Y374529D01*
X302501D01*
Y374558D01*
X302442D01*
Y374588D01*
X302383D01*
Y374617D01*
X302324D01*
Y374647D01*
X302294D01*
Y374676D01*
X302235D01*
Y374706D01*
X302205D01*
Y374736D01*
X302146D01*
Y374765D01*
X302116D01*
Y374795D01*
X302087D01*
Y374825D01*
X302057D01*
Y374854D01*
X301998D01*
Y374884D01*
X301968D01*
Y374913D01*
X301939D01*
Y374943D01*
X301909D01*
Y374973D01*
X301880D01*
Y375002D01*
X301850D01*
Y375032D01*
X301820D01*
Y375061D01*
X301791D01*
Y375120D01*
X301761D01*
Y375150D01*
X301731D01*
Y375180D01*
X301702D01*
Y375239D01*
X301672D01*
Y375269D01*
X301643D01*
Y375328D01*
X301613D01*
Y375357D01*
X301584D01*
Y375416D01*
X301554D01*
Y375476D01*
X301524D01*
Y375505D01*
X301495D01*
Y375594D01*
X301465D01*
Y375653D01*
X301435D01*
Y375712D01*
X301406D01*
Y375801D01*
X301376D01*
Y375890D01*
X301347D01*
Y376008D01*
X301317D01*
Y376186D01*
X301288D01*
Y376600D01*
X301317D01*
Y376837D01*
X301347D01*
Y376985D01*
X301376D01*
Y377104D01*
X301406D01*
Y377192D01*
X301435D01*
Y377281D01*
X301465D01*
Y377370D01*
X301495D01*
Y377429D01*
X301524D01*
Y377518D01*
X301554D01*
Y377577D01*
X301584D01*
Y377636D01*
X301613D01*
Y377666D01*
X301643D01*
Y377725D01*
X301672D01*
Y377784D01*
X301702D01*
Y377814D01*
X301731D01*
Y377844D01*
X301761D01*
Y377873D01*
X301791D01*
Y377932D01*
X301820D01*
Y377962D01*
X301850D01*
Y377992D01*
X301880D01*
Y378021D01*
X301909D01*
Y378051D01*
X301939D01*
Y378080D01*
X301968D01*
Y378110D01*
X301998D01*
Y378139D01*
X302057D01*
Y378169D01*
X302087D01*
Y378199D01*
X302116D01*
Y378228D01*
X302146D01*
Y378258D01*
X302175D01*
Y378288D01*
X302235D01*
Y378317D01*
X302264D01*
Y378347D01*
X302324D01*
Y378376D01*
X302383D01*
Y378406D01*
X302442D01*
Y378435D01*
X302501D01*
Y378465D01*
X302590D01*
Y378495D01*
X302679D01*
Y378524D01*
X302797D01*
Y378554D01*
X302915D01*
Y378584D01*
X303063D01*
Y378613D01*
X303211D01*
Y378643D01*
X303419D01*
Y378672D01*
X303655D01*
Y378702D01*
X303981D01*
Y378731D01*
X304425D01*
Y378761D01*
X306142D01*
Y378731D01*
D02*
G37*
G36*
X325943Y378761D02*
X326120D01*
Y378731D01*
X326180D01*
Y378702D01*
X326209D01*
Y378643D01*
X326239D01*
Y378613D01*
X326209D01*
Y378495D01*
X326180D01*
Y378465D01*
X326150D01*
Y378406D01*
X326120D01*
Y378347D01*
X326091D01*
Y378317D01*
X326061D01*
Y378258D01*
X326032D01*
Y378199D01*
X326002D01*
Y378139D01*
X325973D01*
Y378110D01*
X325943D01*
Y378051D01*
X325913D01*
Y377992D01*
X325884D01*
Y377962D01*
X325854D01*
Y377903D01*
X325824D01*
Y377844D01*
X325795D01*
Y377814D01*
X325765D01*
Y377755D01*
X325736D01*
Y377696D01*
X325706D01*
Y377666D01*
X325676D01*
Y377607D01*
X325647D01*
Y377577D01*
X325617D01*
Y377518D01*
X325588D01*
Y377459D01*
X325558D01*
Y377429D01*
X325529D01*
Y377370D01*
X325499D01*
Y377311D01*
X325469D01*
Y377281D01*
X325440D01*
Y377222D01*
X325410D01*
Y377163D01*
X325380D01*
Y377133D01*
X325351D01*
Y377074D01*
X325321D01*
Y377015D01*
X325292D01*
Y376985D01*
X325262D01*
Y376926D01*
X325233D01*
Y376867D01*
X325203D01*
Y376837D01*
X325173D01*
Y376778D01*
X325144D01*
Y376719D01*
X325114D01*
Y376689D01*
X325085D01*
Y376630D01*
X325055D01*
Y376571D01*
X325025D01*
Y376541D01*
X324996D01*
Y376482D01*
X324966D01*
Y376423D01*
X324937D01*
Y376393D01*
X324907D01*
Y376334D01*
X324877D01*
Y376304D01*
X324848D01*
Y376245D01*
X324818D01*
Y376186D01*
X324789D01*
Y376156D01*
X324759D01*
Y376097D01*
X324729D01*
Y376038D01*
X324700D01*
Y376008D01*
X324670D01*
Y375949D01*
X324641D01*
Y375890D01*
X324611D01*
Y375861D01*
X324581D01*
Y375801D01*
X324552D01*
Y375772D01*
X324522D01*
Y375712D01*
X324493D01*
Y375653D01*
X324463D01*
Y375624D01*
X324433D01*
Y375565D01*
X324404D01*
Y375505D01*
X324374D01*
Y375476D01*
X324345D01*
Y375416D01*
X324315D01*
Y375357D01*
X324285D01*
Y375328D01*
X324256D01*
Y375269D01*
X324226D01*
Y375209D01*
X324197D01*
Y375180D01*
X324167D01*
Y375120D01*
X324137D01*
Y375091D01*
X324108D01*
Y375032D01*
X324078D01*
Y374973D01*
X324049D01*
Y374943D01*
X324019D01*
Y374884D01*
X323989D01*
Y374825D01*
X323960D01*
Y374795D01*
X323930D01*
Y374736D01*
X323901D01*
Y374676D01*
X323871D01*
Y374647D01*
X323841D01*
Y374588D01*
X323812D01*
Y374529D01*
X323782D01*
Y374499D01*
X323753D01*
Y374440D01*
X323723D01*
Y374410D01*
X323693D01*
Y374351D01*
X323664D01*
Y374292D01*
X323634D01*
Y374262D01*
X323605D01*
Y374203D01*
X323575D01*
Y374144D01*
X323546D01*
Y374114D01*
X323516D01*
Y374055D01*
X323486D01*
Y373996D01*
X323457D01*
Y373966D01*
X323427D01*
Y373907D01*
X323397D01*
Y373877D01*
X323368D01*
Y373818D01*
X323338D01*
Y373759D01*
X323309D01*
Y373729D01*
X323279D01*
Y373670D01*
X323250D01*
Y373611D01*
X323220D01*
Y373581D01*
X323190D01*
Y373522D01*
X323161D01*
Y373463D01*
X323131D01*
Y373433D01*
X323101D01*
Y373374D01*
X323072D01*
Y373315D01*
X323042D01*
Y373285D01*
X323013D01*
Y373226D01*
X322983D01*
Y373197D01*
X322954D01*
Y373137D01*
X322924D01*
Y373078D01*
X322894D01*
Y373049D01*
X322865D01*
Y372989D01*
X322835D01*
Y372930D01*
X322806D01*
Y372901D01*
X322776D01*
Y372841D01*
X322746D01*
Y372782D01*
X322717D01*
Y372753D01*
X322687D01*
Y372693D01*
X322657D01*
Y372634D01*
X322628D01*
Y372605D01*
X322598D01*
Y372545D01*
X322569D01*
Y372516D01*
X322539D01*
Y372457D01*
X322510D01*
Y372397D01*
X322480D01*
Y372368D01*
X322450D01*
Y372309D01*
X322421D01*
Y372250D01*
X322391D01*
Y372220D01*
X322361D01*
Y372161D01*
X322332D01*
Y372101D01*
X322302D01*
Y372072D01*
X322273D01*
Y372013D01*
X322243D01*
Y371983D01*
X322214D01*
Y371924D01*
X322184D01*
Y371865D01*
X322154D01*
Y371835D01*
X322125D01*
Y371776D01*
X322095D01*
Y371717D01*
X322065D01*
Y371687D01*
X322036D01*
Y371628D01*
X322006D01*
Y371598D01*
X321977D01*
Y371539D01*
X321947D01*
Y371480D01*
X321918D01*
Y371450D01*
X321888D01*
Y371391D01*
X321858D01*
Y371332D01*
X321829D01*
Y371302D01*
X321799D01*
Y371243D01*
X321770D01*
Y371184D01*
X321740D01*
Y371154D01*
X321710D01*
Y371095D01*
X321681D01*
Y371065D01*
X321651D01*
Y371006D01*
X321622D01*
Y370947D01*
X321592D01*
Y370918D01*
X321562D01*
Y370858D01*
X321533D01*
Y370799D01*
X321503D01*
Y370770D01*
X321474D01*
Y370710D01*
X321444D01*
Y370651D01*
X321414D01*
Y370622D01*
X321385D01*
Y370562D01*
X321355D01*
Y370533D01*
X321326D01*
Y370474D01*
X321296D01*
Y370414D01*
X321266D01*
Y370385D01*
X321237D01*
Y370326D01*
X321207D01*
Y370266D01*
X321178D01*
Y370237D01*
X321148D01*
Y370178D01*
X321118D01*
Y370148D01*
X321089D01*
Y370089D01*
X321059D01*
Y370030D01*
X321030D01*
Y370000D01*
X321000D01*
Y369941D01*
X320970D01*
Y369882D01*
X320941D01*
Y369852D01*
X320911D01*
Y369793D01*
X320882D01*
Y369734D01*
X320852D01*
Y369704D01*
X320822D01*
Y369645D01*
X320793D01*
Y369615D01*
X320763D01*
Y369556D01*
X320734D01*
Y369497D01*
X320704D01*
Y369467D01*
X320674D01*
Y369408D01*
X320645D01*
Y369349D01*
X320615D01*
Y369319D01*
X320586D01*
Y369260D01*
X320556D01*
Y369230D01*
X320526D01*
Y369171D01*
X320497D01*
Y369112D01*
X320467D01*
Y369082D01*
X320438D01*
Y369023D01*
X320408D01*
Y368964D01*
X320378D01*
Y368934D01*
X320349D01*
Y368875D01*
X320319D01*
Y368816D01*
X320290D01*
Y368787D01*
X320260D01*
Y368727D01*
X320230D01*
Y368698D01*
X320201D01*
Y368638D01*
X320171D01*
Y368579D01*
X320142D01*
Y368550D01*
X320112D01*
Y368491D01*
X320082D01*
Y368431D01*
X320053D01*
Y368402D01*
X320023D01*
Y368342D01*
X319994D01*
Y368283D01*
X319964D01*
Y368254D01*
X319935D01*
Y368195D01*
X319905D01*
Y368165D01*
X319875D01*
Y368106D01*
X319846D01*
Y368046D01*
X319816D01*
Y368017D01*
X319787D01*
Y367958D01*
X319757D01*
Y367899D01*
X319727D01*
Y367869D01*
X319698D01*
Y367810D01*
X319668D01*
Y367780D01*
X319638D01*
Y367721D01*
X319609D01*
Y367662D01*
X319579D01*
Y367632D01*
X319550D01*
Y367573D01*
X319520D01*
Y367514D01*
X319491D01*
Y367484D01*
X319461D01*
Y367425D01*
X319431D01*
Y367395D01*
X319402D01*
Y367336D01*
X319372D01*
Y367277D01*
X319342D01*
Y367247D01*
X319313D01*
Y367188D01*
X319283D01*
Y367129D01*
X319254D01*
Y367099D01*
X319224D01*
Y367040D01*
X319195D01*
Y367011D01*
X319165D01*
Y366951D01*
X319135D01*
Y366892D01*
X319106D01*
Y366863D01*
X319076D01*
Y366803D01*
X319046D01*
Y366744D01*
X319017D01*
Y366715D01*
X318987D01*
Y366655D01*
X318958D01*
Y366626D01*
X318928D01*
Y366567D01*
X318899D01*
Y366507D01*
X318869D01*
Y366478D01*
X318839D01*
Y366419D01*
X318810D01*
Y366359D01*
X318780D01*
Y366330D01*
X318751D01*
Y366271D01*
X318721D01*
Y366241D01*
X318691D01*
Y366182D01*
X318662D01*
Y366123D01*
X318632D01*
Y366093D01*
X318602D01*
Y366034D01*
X318573D01*
Y366004D01*
X318543D01*
Y365945D01*
X318514D01*
Y365886D01*
X318484D01*
Y365856D01*
X318455D01*
Y365797D01*
X318425D01*
Y365767D01*
X318395D01*
Y365708D01*
X318366D01*
Y365649D01*
X318336D01*
Y365619D01*
X318307D01*
Y365560D01*
X318277D01*
Y365531D01*
X318247D01*
Y365472D01*
X318218D01*
Y365442D01*
X318188D01*
Y365383D01*
X318159D01*
Y365353D01*
X318129D01*
Y365294D01*
X318099D01*
Y365264D01*
X318070D01*
Y365235D01*
X318040D01*
Y365176D01*
X318011D01*
Y365146D01*
X317981D01*
Y365116D01*
X317951D01*
Y365087D01*
X317922D01*
Y365057D01*
X317892D01*
Y365027D01*
X317863D01*
Y364998D01*
X317833D01*
Y364939D01*
X317803D01*
Y364909D01*
X317774D01*
Y364879D01*
X317744D01*
Y364850D01*
X317685D01*
Y364820D01*
X317655D01*
Y364791D01*
X317626D01*
Y364761D01*
X317596D01*
Y364732D01*
X317567D01*
Y364702D01*
X317537D01*
Y364672D01*
X317507D01*
Y364643D01*
X317448D01*
Y364613D01*
X317419D01*
Y364583D01*
X317389D01*
Y364554D01*
X317330D01*
Y364524D01*
X317300D01*
Y364495D01*
X317271D01*
Y364465D01*
X317211D01*
Y364436D01*
X317182D01*
Y364406D01*
X317123D01*
Y364376D01*
X317063D01*
Y364347D01*
X317034D01*
Y364317D01*
X316975D01*
Y364287D01*
X316915D01*
Y364258D01*
X316856D01*
Y364228D01*
X316797D01*
Y364199D01*
X316738D01*
Y364169D01*
X316679D01*
Y364140D01*
X316590D01*
Y364110D01*
X316531D01*
Y364080D01*
X316442D01*
Y364051D01*
X316353D01*
Y364021D01*
X316264D01*
Y363991D01*
X316146D01*
Y363962D01*
X316027D01*
Y363932D01*
X315880D01*
Y363903D01*
X315702D01*
Y363873D01*
X315140D01*
Y363844D01*
X313512D01*
Y363873D01*
X313393D01*
Y363903D01*
X313364D01*
Y363962D01*
X313334D01*
Y364021D01*
X313364D01*
Y364110D01*
X313393D01*
Y364169D01*
X313423D01*
Y364199D01*
X313452D01*
Y364258D01*
X313482D01*
Y364317D01*
X313512D01*
Y364347D01*
X313541D01*
Y364406D01*
X313571D01*
Y364465D01*
X313600D01*
Y364495D01*
X313630D01*
Y364554D01*
X313660D01*
Y364583D01*
X313689D01*
Y364643D01*
X313719D01*
Y364702D01*
X313748D01*
Y364732D01*
X313778D01*
Y364791D01*
X313808D01*
Y364850D01*
X313837D01*
Y364879D01*
X313867D01*
Y364939D01*
X313896D01*
Y364998D01*
X313926D01*
Y365027D01*
X313956D01*
Y365087D01*
X313985D01*
Y365146D01*
X314015D01*
Y365176D01*
X314044D01*
Y365235D01*
X314074D01*
Y365264D01*
X314104D01*
Y365323D01*
X314133D01*
Y365383D01*
X314163D01*
Y365412D01*
X314192D01*
Y365472D01*
X314222D01*
Y365531D01*
X314252D01*
Y365560D01*
X314281D01*
Y365619D01*
X314311D01*
Y365679D01*
X314340D01*
Y365708D01*
X314370D01*
Y365767D01*
X314400D01*
Y365797D01*
X314429D01*
Y365856D01*
X314459D01*
Y365915D01*
X314488D01*
Y365945D01*
X314518D01*
Y366004D01*
X314548D01*
Y366063D01*
X314577D01*
Y366093D01*
X314607D01*
Y366152D01*
X314636D01*
Y366211D01*
X314666D01*
Y366241D01*
X314696D01*
Y366300D01*
X314725D01*
Y366359D01*
X314755D01*
Y366389D01*
X314784D01*
Y366448D01*
X314814D01*
Y366478D01*
X314844D01*
Y366537D01*
X314873D01*
Y366596D01*
X314903D01*
Y366626D01*
X314932D01*
Y366685D01*
X314962D01*
Y366744D01*
X314991D01*
Y366774D01*
X315021D01*
Y366833D01*
X315051D01*
Y366892D01*
X315080D01*
Y366922D01*
X315110D01*
Y366981D01*
X315140D01*
Y367040D01*
X315169D01*
Y367070D01*
X315199D01*
Y367129D01*
X315228D01*
Y367159D01*
X315258D01*
Y367218D01*
X315287D01*
Y367277D01*
X315317D01*
Y367307D01*
X315347D01*
Y367366D01*
X315376D01*
Y367425D01*
X315406D01*
Y367455D01*
X315436D01*
Y367514D01*
X315465D01*
Y367573D01*
X315495D01*
Y367602D01*
X315524D01*
Y367662D01*
X315554D01*
Y367691D01*
X315583D01*
Y367751D01*
X315613D01*
Y367810D01*
X315643D01*
Y367839D01*
X315672D01*
Y367899D01*
X315702D01*
Y367958D01*
X315732D01*
Y367987D01*
X315761D01*
Y368046D01*
X315791D01*
Y368106D01*
X315820D01*
Y368135D01*
X315850D01*
Y368195D01*
X315880D01*
Y368224D01*
X315909D01*
Y368283D01*
X315939D01*
Y368342D01*
X315968D01*
Y368372D01*
X315998D01*
Y368431D01*
X316027D01*
Y368491D01*
X316057D01*
Y368520D01*
X316087D01*
Y368579D01*
X316116D01*
Y368638D01*
X316146D01*
Y368668D01*
X316176D01*
Y368727D01*
X316205D01*
Y368787D01*
X316235D01*
Y368816D01*
X316264D01*
Y368875D01*
X316294D01*
Y368905D01*
X316323D01*
Y368964D01*
X316353D01*
Y369023D01*
X316383D01*
Y369053D01*
X316412D01*
Y369112D01*
X316442D01*
Y369171D01*
X316472D01*
Y369201D01*
X316501D01*
Y369260D01*
X316531D01*
Y369319D01*
X316560D01*
Y369349D01*
X316590D01*
Y369408D01*
X316619D01*
Y369467D01*
X316649D01*
Y369497D01*
X316679D01*
Y369556D01*
X316708D01*
Y369586D01*
X316738D01*
Y369645D01*
X316767D01*
Y369704D01*
X316797D01*
Y369734D01*
X316827D01*
Y369793D01*
X316856D01*
Y369852D01*
X316886D01*
Y369882D01*
X316915D01*
Y369941D01*
X316945D01*
Y370000D01*
X316975D01*
Y370030D01*
X317004D01*
Y370089D01*
X317034D01*
Y370118D01*
X317063D01*
Y370178D01*
X317093D01*
Y370237D01*
X317123D01*
Y370266D01*
X317152D01*
Y370326D01*
X317182D01*
Y370385D01*
X317211D01*
Y370414D01*
X317241D01*
Y370474D01*
X317271D01*
Y370533D01*
X317300D01*
Y370562D01*
X317330D01*
Y370622D01*
X317359D01*
Y370681D01*
X317389D01*
Y370710D01*
X317419D01*
Y370770D01*
X317448D01*
Y370799D01*
X317478D01*
Y370858D01*
X317507D01*
Y370918D01*
X317537D01*
Y370947D01*
X317567D01*
Y371006D01*
X317596D01*
Y371036D01*
X317626D01*
Y371095D01*
X317655D01*
Y371154D01*
X317685D01*
Y371184D01*
X317715D01*
Y371243D01*
X317744D01*
Y371273D01*
X317774D01*
Y371332D01*
X317803D01*
Y371391D01*
X317833D01*
Y371421D01*
X317863D01*
Y371480D01*
X317892D01*
Y371539D01*
X317922D01*
Y371569D01*
X317951D01*
Y371628D01*
X317981D01*
Y371657D01*
X318011D01*
Y371717D01*
X318040D01*
Y371776D01*
X318070D01*
Y371806D01*
X318099D01*
Y371865D01*
X318129D01*
Y371894D01*
X318159D01*
Y371954D01*
X318188D01*
Y372013D01*
X318218D01*
Y372042D01*
X318247D01*
Y372101D01*
X318277D01*
Y372131D01*
X318307D01*
Y372190D01*
X318336D01*
Y372250D01*
X318366D01*
Y372279D01*
X318395D01*
Y372338D01*
X318425D01*
Y372397D01*
X318455D01*
Y372427D01*
X318484D01*
Y372486D01*
X318514D01*
Y372516D01*
X318543D01*
Y372575D01*
X318573D01*
Y372634D01*
X318602D01*
Y372664D01*
X318632D01*
Y372723D01*
X318662D01*
Y372753D01*
X318691D01*
Y372812D01*
X318721D01*
Y372871D01*
X318751D01*
Y372901D01*
X318780D01*
Y372960D01*
X318810D01*
Y372989D01*
X318839D01*
Y373049D01*
X318869D01*
Y373108D01*
X318899D01*
Y373137D01*
X318928D01*
Y373197D01*
X318958D01*
Y373256D01*
X318987D01*
Y373285D01*
X319017D01*
Y373345D01*
X319046D01*
Y373374D01*
X319076D01*
Y373433D01*
X319106D01*
Y373493D01*
X319135D01*
Y373522D01*
X319165D01*
Y373581D01*
X319195D01*
Y373611D01*
X319224D01*
Y373670D01*
X319254D01*
Y373729D01*
X319283D01*
Y373759D01*
X319313D01*
Y373818D01*
X319342D01*
Y373848D01*
X319372D01*
Y373907D01*
X319402D01*
Y373966D01*
X319431D01*
Y373996D01*
X319461D01*
Y374055D01*
X319491D01*
Y374114D01*
X319520D01*
Y374144D01*
X319550D01*
Y374203D01*
X319579D01*
Y374233D01*
X319609D01*
Y374292D01*
X319638D01*
Y374351D01*
X319668D01*
Y374380D01*
X319698D01*
Y374440D01*
X319727D01*
Y374469D01*
X319757D01*
Y374529D01*
X319787D01*
Y374588D01*
X319816D01*
Y374617D01*
X319846D01*
Y374676D01*
X319875D01*
Y374706D01*
X319905D01*
Y374765D01*
X319935D01*
Y374825D01*
X319964D01*
Y374854D01*
X319994D01*
Y374913D01*
X320023D01*
Y374973D01*
X320053D01*
Y375002D01*
X320082D01*
Y375061D01*
X320112D01*
Y375091D01*
X320142D01*
Y375150D01*
X320171D01*
Y375209D01*
X320201D01*
Y375239D01*
X320230D01*
Y375298D01*
X320260D01*
Y375328D01*
X320290D01*
Y375387D01*
X320319D01*
Y375446D01*
X320349D01*
Y375476D01*
X320378D01*
Y375535D01*
X320408D01*
Y375594D01*
X320438D01*
Y375624D01*
X320467D01*
Y375683D01*
X320497D01*
Y375712D01*
X320526D01*
Y375772D01*
X320556D01*
Y375831D01*
X320586D01*
Y375861D01*
X320615D01*
Y375920D01*
X320645D01*
Y375949D01*
X320674D01*
Y376008D01*
X320704D01*
Y376068D01*
X320734D01*
Y376097D01*
X320763D01*
Y376156D01*
X320793D01*
Y376186D01*
X320822D01*
Y376245D01*
X320852D01*
Y376304D01*
X320882D01*
Y376334D01*
X320911D01*
Y376393D01*
X320941D01*
Y376423D01*
X320970D01*
Y376482D01*
X321000D01*
Y376541D01*
X321030D01*
Y376571D01*
X321059D01*
Y376630D01*
X321089D01*
Y376689D01*
X321118D01*
Y376719D01*
X321148D01*
Y376778D01*
X321178D01*
Y376808D01*
X321207D01*
Y376867D01*
X321237D01*
Y376896D01*
Y376926D01*
X321266D01*
Y376956D01*
X321296D01*
Y377015D01*
X321326D01*
Y377044D01*
X321355D01*
Y377104D01*
X321385D01*
Y377163D01*
X321414D01*
Y377192D01*
X321444D01*
Y377252D01*
X321474D01*
Y377281D01*
X321503D01*
Y377340D01*
X321533D01*
Y377400D01*
X321562D01*
Y377429D01*
X321592D01*
Y377488D01*
X321622D01*
Y377548D01*
X321651D01*
Y377577D01*
X321681D01*
Y377636D01*
X321710D01*
Y377666D01*
X321740D01*
Y377696D01*
X321770D01*
Y377725D01*
X321799D01*
Y377755D01*
X321829D01*
Y377784D01*
X321888D01*
Y377814D01*
X321918D01*
Y377844D01*
X321947D01*
Y377873D01*
X321977D01*
Y377903D01*
X322006D01*
Y377932D01*
X322036D01*
Y377962D01*
X322095D01*
Y377992D01*
X322125D01*
Y378021D01*
X322154D01*
Y378051D01*
X322214D01*
Y378080D01*
X322243D01*
Y378110D01*
X322273D01*
Y378139D01*
X322332D01*
Y378169D01*
X322361D01*
Y378199D01*
X322421D01*
Y378228D01*
X322480D01*
Y378258D01*
X322510D01*
Y378288D01*
X322569D01*
Y378317D01*
X322628D01*
Y378347D01*
X322687D01*
Y378376D01*
X322746D01*
Y378406D01*
X322806D01*
Y378435D01*
X322865D01*
Y378465D01*
X322924D01*
Y378495D01*
X323013D01*
Y378524D01*
X323072D01*
Y378554D01*
X323161D01*
Y378584D01*
X323250D01*
Y378613D01*
X323338D01*
Y378643D01*
X323457D01*
Y378672D01*
X323575D01*
Y378702D01*
X323723D01*
Y378731D01*
X323901D01*
Y378761D01*
X324670D01*
Y378791D01*
X325943D01*
Y378761D01*
D02*
G37*
G36*
X316472D02*
X316590D01*
Y378731D01*
X316619D01*
Y378702D01*
X316649D01*
Y378672D01*
X316679D01*
Y378613D01*
X316708D01*
Y378554D01*
X316679D01*
Y378524D01*
X316649D01*
Y378465D01*
X316619D01*
Y378435D01*
X316590D01*
Y378376D01*
X316560D01*
Y378317D01*
X316531D01*
Y378288D01*
X316501D01*
Y378228D01*
X316472D01*
Y378169D01*
X316442D01*
Y378139D01*
X316412D01*
Y378080D01*
X316383D01*
Y378021D01*
X316353D01*
Y377992D01*
X316323D01*
Y377932D01*
X316294D01*
Y377873D01*
X316264D01*
Y377844D01*
X316235D01*
Y377784D01*
X316205D01*
Y377755D01*
X316176D01*
Y377696D01*
X316146D01*
Y377636D01*
X316116D01*
Y377607D01*
X316087D01*
Y377548D01*
X316057D01*
Y377488D01*
X316027D01*
Y377459D01*
X315998D01*
Y377400D01*
X315968D01*
Y377340D01*
X315939D01*
Y377311D01*
X315909D01*
Y377252D01*
X315880D01*
Y377192D01*
X315850D01*
Y377163D01*
X315820D01*
Y377104D01*
X315791D01*
Y377044D01*
X315761D01*
Y377015D01*
X315732D01*
Y376956D01*
X315702D01*
Y376926D01*
X315672D01*
Y376867D01*
X315643D01*
Y376808D01*
X315613D01*
Y376778D01*
X315583D01*
Y376719D01*
X315554D01*
Y376660D01*
X315524D01*
Y376630D01*
X315495D01*
Y376571D01*
X315465D01*
Y376512D01*
X315436D01*
Y376482D01*
X315406D01*
Y376423D01*
X315376D01*
Y376364D01*
X315347D01*
Y376334D01*
X315317D01*
Y376275D01*
X315287D01*
Y376245D01*
X315258D01*
Y376186D01*
X315228D01*
Y376127D01*
X315199D01*
Y376097D01*
X315169D01*
Y376038D01*
X315140D01*
Y375979D01*
X315110D01*
Y375949D01*
X315080D01*
Y375890D01*
X315051D01*
Y375831D01*
X315021D01*
Y375801D01*
X314991D01*
Y375742D01*
X314962D01*
Y375712D01*
X314932D01*
Y375653D01*
X314903D01*
Y375594D01*
X314873D01*
Y375565D01*
X314844D01*
Y375505D01*
X314814D01*
Y375446D01*
X314784D01*
Y375416D01*
X314755D01*
Y375357D01*
X314725D01*
Y375298D01*
X314696D01*
Y375269D01*
X314666D01*
Y375209D01*
X314636D01*
Y375150D01*
X314607D01*
Y375120D01*
X314577D01*
Y375061D01*
X314548D01*
Y375032D01*
X314518D01*
Y374973D01*
X314488D01*
Y374913D01*
X314459D01*
Y374884D01*
X314429D01*
Y374825D01*
X314400D01*
Y374765D01*
X314370D01*
Y374736D01*
X314340D01*
Y374676D01*
X314311D01*
Y374617D01*
X314281D01*
Y374588D01*
X314252D01*
Y374529D01*
X314222D01*
Y374499D01*
X314192D01*
Y374440D01*
X314163D01*
Y374380D01*
X314133D01*
Y374351D01*
X314104D01*
Y374292D01*
X314074D01*
Y374233D01*
X314044D01*
Y374203D01*
X314015D01*
Y374144D01*
X313985D01*
Y374085D01*
X313956D01*
Y374055D01*
X313926D01*
Y373996D01*
X313896D01*
Y373966D01*
X313867D01*
Y373907D01*
X313837D01*
Y373848D01*
X313808D01*
Y373818D01*
X313778D01*
Y373759D01*
X313748D01*
Y373700D01*
X313719D01*
Y373670D01*
X313689D01*
Y373611D01*
X313660D01*
Y373552D01*
X313630D01*
Y373522D01*
X313600D01*
Y373463D01*
X313571D01*
Y373404D01*
X313541D01*
Y373374D01*
X313512D01*
Y373315D01*
X313482D01*
Y373285D01*
X313452D01*
Y373226D01*
X313423D01*
Y373167D01*
X313393D01*
Y373137D01*
X313364D01*
Y373078D01*
X313334D01*
Y373019D01*
X313304D01*
Y372989D01*
X313275D01*
Y372930D01*
X313245D01*
Y372871D01*
X313216D01*
Y372841D01*
X313186D01*
Y372782D01*
X313156D01*
Y372753D01*
X313127D01*
Y372693D01*
X313097D01*
Y372634D01*
X313068D01*
Y372605D01*
X313038D01*
Y372545D01*
X313008D01*
Y372486D01*
X312979D01*
Y372457D01*
X312949D01*
Y372397D01*
X312920D01*
Y372338D01*
X312890D01*
Y372309D01*
X312860D01*
Y372250D01*
X312831D01*
Y372220D01*
X312801D01*
Y372161D01*
X312772D01*
Y372101D01*
X312742D01*
Y372072D01*
X312713D01*
Y372013D01*
X312683D01*
Y371954D01*
X312653D01*
Y371924D01*
X312624D01*
Y371865D01*
X312594D01*
Y371806D01*
X312564D01*
Y371776D01*
X312535D01*
Y371717D01*
X312505D01*
Y371687D01*
X312476D01*
Y371628D01*
X312446D01*
Y371569D01*
X312417D01*
Y371539D01*
X312387D01*
Y371480D01*
X312357D01*
Y371421D01*
X312328D01*
Y371391D01*
X312298D01*
Y371332D01*
X312268D01*
Y371273D01*
X312239D01*
Y371243D01*
X312209D01*
Y371184D01*
X312180D01*
Y371154D01*
X312150D01*
Y371095D01*
X312121D01*
Y371036D01*
X312091D01*
Y371006D01*
X312061D01*
Y370947D01*
X312032D01*
Y370888D01*
X312002D01*
Y370858D01*
X311972D01*
Y370799D01*
X311943D01*
Y370770D01*
X311913D01*
Y370710D01*
X311884D01*
Y370651D01*
X311854D01*
Y370622D01*
X311824D01*
Y370562D01*
X311795D01*
Y370503D01*
X311765D01*
Y370474D01*
X311736D01*
Y370414D01*
X311706D01*
Y370355D01*
X311677D01*
Y370326D01*
X311647D01*
Y370266D01*
X311617D01*
Y370237D01*
X311588D01*
Y370178D01*
X311558D01*
Y370118D01*
X311528D01*
Y370089D01*
X311499D01*
Y370030D01*
X311469D01*
Y369970D01*
X311440D01*
Y369941D01*
X311410D01*
Y369882D01*
X311381D01*
Y369822D01*
X311351D01*
Y369793D01*
X311321D01*
Y369734D01*
X311292D01*
Y369704D01*
X311262D01*
Y369645D01*
X311232D01*
Y369586D01*
X311203D01*
Y369556D01*
X311173D01*
Y369497D01*
X311144D01*
Y369438D01*
X311114D01*
Y369408D01*
X311085D01*
Y369349D01*
X311055D01*
Y369319D01*
X311025D01*
Y369260D01*
X310996D01*
Y369201D01*
X310966D01*
Y369171D01*
X310937D01*
Y369112D01*
X310907D01*
Y369053D01*
X310877D01*
Y369023D01*
X310848D01*
Y368964D01*
X310818D01*
Y368934D01*
X310789D01*
Y368875D01*
X310759D01*
Y368816D01*
X310729D01*
Y368787D01*
X310700D01*
Y368727D01*
X310670D01*
Y368668D01*
X310641D01*
Y368638D01*
X310611D01*
Y368579D01*
X310581D01*
Y368550D01*
X310552D01*
Y368491D01*
X310522D01*
Y368431D01*
X310493D01*
Y368402D01*
X310463D01*
Y368342D01*
X310433D01*
Y368283D01*
X310404D01*
Y368254D01*
X310374D01*
Y368195D01*
X310345D01*
Y368165D01*
X310315D01*
Y368106D01*
X310285D01*
Y368046D01*
X310256D01*
Y368017D01*
X310226D01*
Y367958D01*
X310197D01*
Y367899D01*
X310167D01*
Y367869D01*
X310137D01*
Y367810D01*
X310108D01*
Y367780D01*
X310078D01*
Y367721D01*
X310049D01*
Y367662D01*
X310019D01*
Y367632D01*
X309989D01*
Y367573D01*
X309960D01*
Y367514D01*
X309930D01*
Y367484D01*
X309901D01*
Y367425D01*
X309871D01*
Y367395D01*
X309841D01*
Y367336D01*
X309812D01*
Y367277D01*
X309782D01*
Y367247D01*
X309753D01*
Y367188D01*
X309723D01*
Y367159D01*
X309693D01*
Y367099D01*
X309664D01*
Y367040D01*
X309634D01*
Y367011D01*
X309605D01*
Y366951D01*
X309575D01*
Y366892D01*
X309545D01*
Y366863D01*
X309516D01*
Y366803D01*
X309486D01*
Y366774D01*
X309457D01*
Y366715D01*
X309427D01*
Y366655D01*
X309398D01*
Y366626D01*
X309368D01*
Y366567D01*
X309338D01*
Y366537D01*
X309309D01*
Y366478D01*
X309279D01*
Y366419D01*
X309249D01*
Y366389D01*
X309220D01*
Y366330D01*
X309190D01*
Y366271D01*
X309161D01*
Y366241D01*
X309131D01*
Y366182D01*
X309102D01*
Y366152D01*
X309072D01*
Y366093D01*
X309042D01*
Y366063D01*
X309013D01*
Y366004D01*
X308983D01*
Y365945D01*
X308953D01*
Y365915D01*
X308924D01*
Y365856D01*
X308894D01*
Y365827D01*
X308865D01*
Y365767D01*
X308835D01*
Y365708D01*
X308805D01*
Y365679D01*
X308776D01*
Y365619D01*
X308746D01*
Y365590D01*
X308717D01*
Y365531D01*
X308687D01*
Y365501D01*
X308658D01*
Y365442D01*
X308628D01*
Y365412D01*
X308598D01*
Y365353D01*
X308569D01*
Y365323D01*
X308539D01*
Y365294D01*
X308509D01*
Y365235D01*
X308480D01*
Y365205D01*
X308450D01*
Y365176D01*
X308421D01*
Y365146D01*
X308391D01*
Y365087D01*
X308362D01*
Y365057D01*
X308332D01*
Y365027D01*
X308302D01*
Y364998D01*
X308273D01*
Y364968D01*
X308243D01*
Y364939D01*
X308213D01*
Y364909D01*
X308184D01*
Y364879D01*
X308154D01*
Y364850D01*
X308125D01*
Y364820D01*
X308095D01*
Y364791D01*
X308066D01*
Y364761D01*
X308036D01*
Y364732D01*
X308006D01*
Y364702D01*
X307977D01*
Y364672D01*
X307947D01*
Y364643D01*
X307888D01*
Y364613D01*
X307858D01*
Y364583D01*
X307829D01*
Y364554D01*
X307769D01*
Y364524D01*
X307740D01*
Y364495D01*
X307710D01*
Y364465D01*
X307651D01*
Y364436D01*
X307622D01*
Y364406D01*
X307562D01*
Y364376D01*
X307533D01*
Y364347D01*
X307474D01*
Y364317D01*
X307414D01*
Y364287D01*
X307385D01*
Y364258D01*
X307326D01*
Y364228D01*
X307266D01*
Y364199D01*
X307207D01*
Y364169D01*
X307148D01*
Y364140D01*
X307059D01*
Y364110D01*
X307000D01*
Y364080D01*
X306911D01*
Y364051D01*
X306852D01*
Y364021D01*
X306763D01*
Y363991D01*
X306645D01*
Y363962D01*
X306526D01*
Y363932D01*
X306408D01*
Y363903D01*
X306171D01*
Y363873D01*
X305698D01*
Y363844D01*
X303981D01*
Y363873D01*
X303922D01*
Y363903D01*
X303863D01*
Y363962D01*
X303833D01*
Y363991D01*
X303803D01*
Y364021D01*
X303833D01*
Y364110D01*
X303863D01*
Y364169D01*
X303892D01*
Y364228D01*
X303922D01*
Y364258D01*
X303951D01*
Y364317D01*
X303981D01*
Y364347D01*
X304011D01*
Y364406D01*
X304040D01*
Y364465D01*
X304070D01*
Y364495D01*
X304099D01*
Y364554D01*
X304129D01*
Y364613D01*
X304159D01*
Y364643D01*
X304188D01*
Y364702D01*
X304218D01*
Y364761D01*
X304247D01*
Y364791D01*
X304277D01*
Y364850D01*
X304307D01*
Y364879D01*
X304336D01*
Y364939D01*
X304366D01*
Y364998D01*
X304395D01*
Y365027D01*
X304425D01*
Y365087D01*
X304454D01*
Y365146D01*
X304484D01*
Y365176D01*
X304514D01*
Y365235D01*
X304543D01*
Y365294D01*
X304573D01*
Y365323D01*
X304603D01*
Y365383D01*
X304632D01*
Y365412D01*
X304662D01*
Y365472D01*
X304691D01*
Y365531D01*
X304721D01*
Y365560D01*
X304750D01*
Y365619D01*
X304780D01*
Y365679D01*
X304810D01*
Y365708D01*
X304839D01*
Y365767D01*
X304869D01*
Y365797D01*
X304899D01*
Y365856D01*
X304928D01*
Y365915D01*
X304958D01*
Y365945D01*
X304987D01*
Y366004D01*
X305017D01*
Y366063D01*
X305047D01*
Y366093D01*
X305076D01*
Y366152D01*
X305106D01*
Y366211D01*
X305135D01*
Y366241D01*
X305165D01*
Y366300D01*
X305194D01*
Y366330D01*
X305224D01*
Y366389D01*
X305254D01*
Y366448D01*
X305283D01*
Y366478D01*
X305313D01*
Y366537D01*
X305343D01*
Y366596D01*
X305372D01*
Y366626D01*
X305402D01*
Y366685D01*
X305431D01*
Y366744D01*
X305461D01*
Y366774D01*
X305490D01*
Y366833D01*
X305520D01*
Y366863D01*
X305550D01*
Y366922D01*
X305579D01*
Y366981D01*
X305609D01*
Y367011D01*
X305639D01*
Y367070D01*
X305668D01*
Y367129D01*
X305698D01*
Y367159D01*
X305727D01*
Y367218D01*
X305757D01*
Y367277D01*
X305786D01*
Y367307D01*
X305816D01*
Y367366D01*
X305846D01*
Y367395D01*
X305875D01*
Y367455D01*
X305905D01*
Y367514D01*
X305935D01*
Y367543D01*
X305964D01*
Y367602D01*
X305994D01*
Y367662D01*
X306023D01*
Y367691D01*
X306053D01*
Y367751D01*
X306083D01*
Y367810D01*
X306112D01*
Y367839D01*
X306142D01*
Y367899D01*
X306171D01*
Y367958D01*
X306201D01*
Y367987D01*
X306230D01*
Y368046D01*
X306260D01*
Y368076D01*
X306290D01*
Y368135D01*
X306319D01*
Y368195D01*
X306349D01*
Y368224D01*
X306378D01*
Y368283D01*
X306408D01*
Y368342D01*
X306438D01*
Y368372D01*
X306467D01*
Y368431D01*
X306497D01*
Y368461D01*
X306526D01*
Y368520D01*
X306556D01*
Y368579D01*
X306586D01*
Y368609D01*
X306615D01*
Y368668D01*
X306645D01*
Y368727D01*
X306674D01*
Y368757D01*
X306704D01*
Y368816D01*
X306734D01*
Y368875D01*
X306763D01*
Y368905D01*
X306793D01*
Y368964D01*
X306822D01*
Y368994D01*
X306852D01*
Y369053D01*
X306882D01*
Y369112D01*
X306911D01*
Y369142D01*
X306941D01*
Y369201D01*
X306970D01*
Y369260D01*
X307000D01*
Y369290D01*
X307030D01*
Y369349D01*
X307059D01*
Y369408D01*
X307089D01*
Y369438D01*
X307118D01*
Y369497D01*
X307148D01*
Y369526D01*
X307178D01*
Y369586D01*
X307207D01*
Y369645D01*
X307237D01*
Y369674D01*
X307266D01*
Y369734D01*
X307296D01*
Y369793D01*
X307326D01*
Y369822D01*
X307355D01*
Y369882D01*
X307385D01*
Y369941D01*
X307414D01*
Y369970D01*
X307444D01*
Y370030D01*
X307474D01*
Y370059D01*
X307503D01*
Y370118D01*
X307533D01*
Y370178D01*
X307562D01*
Y370207D01*
X307592D01*
Y370266D01*
X307622D01*
Y370326D01*
X307651D01*
Y370355D01*
X307681D01*
Y370414D01*
X307710D01*
Y370474D01*
X307740D01*
Y370503D01*
X307769D01*
Y370562D01*
X307799D01*
Y370592D01*
X307829D01*
Y370651D01*
X307858D01*
Y370710D01*
X307888D01*
Y370740D01*
X307917D01*
Y370799D01*
X307947D01*
Y370858D01*
X307977D01*
Y370888D01*
X308006D01*
Y370947D01*
X308036D01*
Y371006D01*
X308066D01*
Y371036D01*
X308095D01*
Y371095D01*
X308125D01*
Y371125D01*
X308154D01*
Y371184D01*
X308184D01*
Y371243D01*
X308213D01*
Y371273D01*
X308243D01*
Y371332D01*
X308273D01*
Y371391D01*
X308302D01*
Y371421D01*
X308332D01*
Y371480D01*
X308362D01*
Y371539D01*
X308391D01*
Y371569D01*
X308421D01*
Y371628D01*
X308450D01*
Y371657D01*
X308480D01*
Y371717D01*
X308509D01*
Y371776D01*
X308539D01*
Y371806D01*
X308569D01*
Y371865D01*
X308598D01*
Y371924D01*
X308628D01*
Y371954D01*
X308658D01*
Y372013D01*
X308687D01*
Y372072D01*
X308717D01*
Y372101D01*
X308746D01*
Y372161D01*
X308776D01*
Y372190D01*
X308805D01*
Y372250D01*
X308835D01*
Y372309D01*
X308865D01*
Y372338D01*
X308894D01*
Y372397D01*
X308924D01*
Y372457D01*
X308953D01*
Y372486D01*
X308983D01*
Y372545D01*
X309013D01*
Y372575D01*
X309042D01*
Y372634D01*
X309072D01*
Y372693D01*
X309102D01*
Y372723D01*
X309131D01*
Y372782D01*
X309161D01*
Y372841D01*
X309190D01*
Y372871D01*
X309220D01*
Y372930D01*
X309249D01*
Y372989D01*
X309279D01*
Y373019D01*
X309309D01*
Y373078D01*
X309338D01*
Y373108D01*
X309368D01*
Y373167D01*
X309398D01*
Y373226D01*
X309427D01*
Y373256D01*
X309457D01*
Y373315D01*
X309486D01*
Y373374D01*
X309516D01*
Y373404D01*
X309545D01*
Y373463D01*
X309575D01*
Y373522D01*
X309605D01*
Y373552D01*
X309634D01*
Y373611D01*
X309664D01*
Y373641D01*
X309693D01*
Y373700D01*
X309723D01*
Y373759D01*
X309753D01*
Y373789D01*
X309782D01*
Y373848D01*
X309812D01*
Y373907D01*
X309841D01*
Y373937D01*
X309871D01*
Y373996D01*
X309901D01*
Y374025D01*
Y374055D01*
X309930D01*
Y374085D01*
X309960D01*
Y374144D01*
X309989D01*
Y374173D01*
X310019D01*
Y374233D01*
X310049D01*
Y374292D01*
X310078D01*
Y374321D01*
X310108D01*
Y374380D01*
X310137D01*
Y374440D01*
X310167D01*
Y374469D01*
X310197D01*
Y374529D01*
X310226D01*
Y374588D01*
X310256D01*
Y374617D01*
X310285D01*
Y374676D01*
X310315D01*
Y374706D01*
X310345D01*
Y374765D01*
X310374D01*
Y374825D01*
X310404D01*
Y374854D01*
X310433D01*
Y374913D01*
X310463D01*
Y374973D01*
X310493D01*
Y375002D01*
X310522D01*
Y375061D01*
X310552D01*
Y375120D01*
X310581D01*
Y375150D01*
X310611D01*
Y375209D01*
X310641D01*
Y375239D01*
X310670D01*
Y375298D01*
X310700D01*
Y375357D01*
X310729D01*
Y375387D01*
X310759D01*
Y375446D01*
X310789D01*
Y375505D01*
X310818D01*
Y375535D01*
X310848D01*
Y375594D01*
X310877D01*
Y375653D01*
X310907D01*
Y375683D01*
X310937D01*
Y375742D01*
X310966D01*
Y375772D01*
X310996D01*
Y375831D01*
X311025D01*
Y375890D01*
X311055D01*
Y375920D01*
X311085D01*
Y375979D01*
X311114D01*
Y376038D01*
X311144D01*
Y376068D01*
X311173D01*
Y376127D01*
X311203D01*
Y376186D01*
X311232D01*
Y376216D01*
X311262D01*
Y376275D01*
X311292D01*
Y376304D01*
X311321D01*
Y376364D01*
X311351D01*
Y376423D01*
X311381D01*
Y376452D01*
X311410D01*
Y376512D01*
X311440D01*
Y376571D01*
X311469D01*
Y376600D01*
X311499D01*
Y376660D01*
X311528D01*
Y376719D01*
X311558D01*
Y376748D01*
X311588D01*
Y376808D01*
X311617D01*
Y376837D01*
X311647D01*
Y376896D01*
X311677D01*
Y376956D01*
X311706D01*
Y376985D01*
X311736D01*
Y377044D01*
X311765D01*
Y377104D01*
X311795D01*
Y377133D01*
X311824D01*
Y377192D01*
X311854D01*
Y377222D01*
X311884D01*
Y377281D01*
X311913D01*
Y377311D01*
X311943D01*
Y377340D01*
X311972D01*
Y377400D01*
X312002D01*
Y377429D01*
X312032D01*
Y377459D01*
X312061D01*
Y377488D01*
X312091D01*
Y377518D01*
X312121D01*
Y377548D01*
X312150D01*
Y377607D01*
X312180D01*
Y377636D01*
X312209D01*
Y377666D01*
X312239D01*
Y377696D01*
X312268D01*
Y377725D01*
X312298D01*
Y377755D01*
X312328D01*
Y377784D01*
X312357D01*
Y377814D01*
X312417D01*
Y377844D01*
X312446D01*
Y377873D01*
X312476D01*
Y377903D01*
X312505D01*
Y377932D01*
X312535D01*
Y377962D01*
X312564D01*
Y377992D01*
X312624D01*
Y378021D01*
X312653D01*
Y378051D01*
X312683D01*
Y378080D01*
X312713D01*
Y378110D01*
X312772D01*
Y378139D01*
X312801D01*
Y378169D01*
X312860D01*
Y378199D01*
X312890D01*
Y378228D01*
X312949D01*
Y378258D01*
X312979D01*
Y378288D01*
X313038D01*
Y378317D01*
X313097D01*
Y378347D01*
X313156D01*
Y378376D01*
X313186D01*
Y378406D01*
X313245D01*
Y378435D01*
X313304D01*
Y378465D01*
X313393D01*
Y378495D01*
X313452D01*
Y378524D01*
X313512D01*
Y378554D01*
X313600D01*
Y378584D01*
X313689D01*
Y378613D01*
X313778D01*
Y378643D01*
X313867D01*
Y378672D01*
X313985D01*
Y378702D01*
X314133D01*
Y378731D01*
X314311D01*
Y378761D01*
X315140D01*
Y378791D01*
X316472D01*
Y378761D01*
D02*
G37*
G36*
X360524Y313548D02*
X360225D01*
Y313474D01*
X360001D01*
Y313399D01*
X359926D01*
Y313324D01*
X359851D01*
Y313249D01*
X359776D01*
Y313100D01*
X359702D01*
Y313025D01*
X359627D01*
Y312950D01*
X359552D01*
Y312876D01*
X359477D01*
Y312801D01*
X359402D01*
Y312726D01*
X359328D01*
Y312651D01*
X359253D01*
Y312577D01*
X359178D01*
Y312502D01*
X359103D01*
Y312427D01*
X359029D01*
Y312352D01*
X358954D01*
Y312277D01*
X358879D01*
Y312203D01*
X358804D01*
Y312128D01*
X358730D01*
Y312053D01*
X358580D01*
Y311978D01*
X358505D01*
Y311904D01*
X358431D01*
Y311829D01*
X358356D01*
Y311754D01*
X358281D01*
Y311679D01*
X358206D01*
Y311605D01*
X358132D01*
Y311530D01*
X358057D01*
Y311455D01*
X357982D01*
Y311380D01*
X357833D01*
Y311305D01*
X357758D01*
Y311231D01*
X357683D01*
Y311156D01*
X357608D01*
Y311081D01*
X357533D01*
Y311006D01*
X357459D01*
Y310932D01*
X357309D01*
Y310857D01*
X357234D01*
Y310782D01*
X357160D01*
Y310707D01*
X357085D01*
Y310633D01*
X357010D01*
Y310558D01*
X356935D01*
Y310483D01*
X356860D01*
Y310408D01*
X356711D01*
Y310334D01*
X356636D01*
Y310259D01*
X356487D01*
Y310184D01*
X356412D01*
Y310109D01*
X356262D01*
Y310034D01*
X356113D01*
Y309960D01*
X356038D01*
Y309885D01*
X355963D01*
Y309810D01*
X355814D01*
Y309735D01*
X355664D01*
Y309661D01*
X355515D01*
Y309586D01*
X355141D01*
Y309511D01*
X354842D01*
Y309436D01*
X354468D01*
Y309362D01*
X354169D01*
Y309287D01*
X353795D01*
Y309212D01*
X353421D01*
Y309137D01*
X352973D01*
Y309063D01*
X352524D01*
Y308988D01*
X352001D01*
Y308913D01*
X351702D01*
Y308838D01*
X351179D01*
Y308764D01*
X350580D01*
Y308689D01*
X350356D01*
Y308838D01*
X350506D01*
Y308913D01*
X350655D01*
Y308988D01*
X350730D01*
Y309063D01*
X350879D01*
Y309137D01*
X351029D01*
Y309212D01*
X351104D01*
Y309287D01*
X351179D01*
Y309362D01*
X351253D01*
Y309436D01*
X351328D01*
Y309511D01*
X351403D01*
Y309586D01*
X351478D01*
Y309661D01*
X351552D01*
Y309735D01*
X351627D01*
Y309810D01*
X351478D01*
Y309735D01*
X351253D01*
Y309661D01*
X351029D01*
Y309586D01*
X350805D01*
Y309511D01*
X350655D01*
Y309436D01*
X350506D01*
Y309362D01*
X350356D01*
Y309287D01*
X350207D01*
Y309212D01*
X350057D01*
Y309137D01*
X349982D01*
Y309063D01*
X349758D01*
Y309137D01*
X349833D01*
Y309212D01*
X349982D01*
Y309362D01*
X350057D01*
Y309436D01*
X350132D01*
Y309511D01*
X350207D01*
Y309586D01*
X350281D01*
Y309661D01*
X350356D01*
Y309735D01*
X350431D01*
Y309810D01*
X350580D01*
Y309885D01*
X350655D01*
Y310034D01*
X350730D01*
Y310109D01*
X350805D01*
Y310184D01*
X350879D01*
Y310259D01*
X350954D01*
Y310334D01*
X351029D01*
Y310408D01*
X351104D01*
Y310483D01*
X351179D01*
Y310558D01*
X351253D01*
Y310633D01*
X351403D01*
Y310707D01*
X351478D01*
Y310782D01*
X351627D01*
Y310857D01*
X351702D01*
Y310932D01*
X351777D01*
Y311006D01*
X351926D01*
Y311081D01*
X352001D01*
Y311156D01*
X352150D01*
Y311231D01*
X352300D01*
Y311305D01*
X352375D01*
Y311380D01*
X352524D01*
Y311455D01*
X352599D01*
Y311530D01*
X352748D01*
Y311605D01*
X352823D01*
Y311679D01*
X352973D01*
Y311754D01*
X353122D01*
Y311829D01*
X353272D01*
Y311904D01*
X353421D01*
Y311978D01*
X353571D01*
Y312053D01*
X353795D01*
Y312128D01*
X354094D01*
Y312203D01*
X354319D01*
Y312277D01*
X354468D01*
Y312352D01*
X354767D01*
Y312427D01*
X354991D01*
Y312502D01*
X355291D01*
Y312577D01*
X355590D01*
Y312651D01*
X355814D01*
Y312726D01*
X356113D01*
Y312801D01*
X356337D01*
Y312876D01*
X356561D01*
Y312950D01*
X356860D01*
Y313025D01*
X357085D01*
Y313100D01*
X357459D01*
Y313175D01*
X357833D01*
Y313249D01*
X358281D01*
Y313324D01*
X358655D01*
Y313399D01*
X359029D01*
Y313474D01*
X359402D01*
Y313548D01*
X359851D01*
Y313623D01*
X360449D01*
Y313698D01*
X360524D01*
Y313548D01*
D02*
G37*
G36*
X356935Y317810D02*
X357010D01*
Y317660D01*
X356935D01*
Y317361D01*
X356860D01*
Y317212D01*
X356786D01*
Y317062D01*
X356711D01*
Y316913D01*
X356636D01*
Y316838D01*
X356561D01*
Y316688D01*
X356487D01*
Y316539D01*
X356412D01*
Y316464D01*
X356337D01*
Y316315D01*
X356262D01*
Y316240D01*
X356188D01*
Y316090D01*
X356113D01*
Y316016D01*
X356038D01*
Y315941D01*
X355963D01*
Y315866D01*
X355889D01*
Y315717D01*
X355814D01*
Y315642D01*
X355739D01*
Y315492D01*
X355664D01*
Y315418D01*
X355590D01*
Y315343D01*
X355515D01*
Y315193D01*
X355440D01*
Y315119D01*
X355365D01*
Y315044D01*
X355291D01*
Y314894D01*
X355216D01*
Y314819D01*
X355141D01*
Y314670D01*
X355066D01*
Y314595D01*
X354991D01*
Y314446D01*
X355066D01*
Y314520D01*
X355216D01*
Y314595D01*
X355440D01*
Y314670D01*
X355664D01*
Y314520D01*
X355590D01*
Y314371D01*
X355515D01*
Y314296D01*
X355440D01*
Y314221D01*
X355365D01*
Y314072D01*
X355291D01*
Y313997D01*
X355216D01*
Y313847D01*
X355141D01*
Y313773D01*
X355066D01*
Y313698D01*
X354991D01*
Y313623D01*
X354917D01*
Y313548D01*
X354842D01*
Y313474D01*
X354767D01*
Y313399D01*
X354692D01*
Y313324D01*
X354618D01*
Y313249D01*
X354543D01*
Y313175D01*
X354468D01*
Y313025D01*
X354543D01*
Y313100D01*
X354842D01*
Y313175D01*
X355141D01*
Y313249D01*
X355440D01*
Y313324D01*
X355739D01*
Y313399D01*
X355889D01*
Y313474D01*
X356188D01*
Y313548D01*
X356487D01*
Y313623D01*
X356860D01*
Y313698D01*
X357234D01*
Y313773D01*
X357533D01*
Y313847D01*
X357833D01*
Y313922D01*
X358132D01*
Y313997D01*
X358730D01*
Y314072D01*
X359178D01*
Y314146D01*
X359702D01*
Y314221D01*
X360449D01*
Y314296D01*
X360973D01*
Y314371D01*
X361571D01*
Y314446D01*
X362169D01*
Y314296D01*
X362094D01*
Y314221D01*
X362019D01*
Y314146D01*
X361945D01*
Y313997D01*
X361870D01*
Y313922D01*
X361795D01*
Y313847D01*
X361645D01*
Y313773D01*
X361571D01*
Y313698D01*
X361496D01*
Y313623D01*
X361421D01*
Y313548D01*
X361346D01*
Y313474D01*
X361272D01*
Y313399D01*
X361197D01*
Y313324D01*
X361122D01*
Y313249D01*
X361047D01*
Y313100D01*
X360973D01*
Y313025D01*
X360898D01*
Y312950D01*
X360823D01*
Y312876D01*
X360748D01*
Y312801D01*
X360673D01*
Y312726D01*
X360599D01*
Y312651D01*
X360449D01*
Y312577D01*
X360374D01*
Y312502D01*
X360300D01*
Y312427D01*
X360225D01*
Y312352D01*
X360150D01*
Y312277D01*
X360075D01*
Y312128D01*
X359926D01*
Y312053D01*
X359851D01*
Y311978D01*
X359776D01*
Y311904D01*
X359702D01*
Y311829D01*
X359627D01*
Y311754D01*
X359552D01*
Y311679D01*
X359477D01*
Y311605D01*
X359402D01*
Y311530D01*
X359328D01*
Y311455D01*
X359253D01*
Y311380D01*
X359178D01*
Y311305D01*
X359103D01*
Y311231D01*
X359029D01*
Y311156D01*
X358954D01*
Y311081D01*
X358879D01*
Y311006D01*
X358804D01*
Y310932D01*
X358730D01*
Y310857D01*
X358655D01*
Y310782D01*
X358580D01*
Y310707D01*
X358505D01*
Y310633D01*
X358431D01*
Y310558D01*
X358505D01*
Y310483D01*
X358655D01*
Y310408D01*
X359103D01*
Y310334D01*
X359552D01*
Y310259D01*
X359627D01*
Y310184D01*
X359477D01*
Y310109D01*
X359402D01*
Y310034D01*
X359253D01*
Y309960D01*
X359029D01*
Y309885D01*
X358879D01*
Y309810D01*
X358655D01*
Y309735D01*
X358505D01*
Y309661D01*
X358281D01*
Y309586D01*
X358057D01*
Y309511D01*
X357907D01*
Y309436D01*
X357608D01*
Y309362D01*
X357384D01*
Y309287D01*
X357085D01*
Y309212D01*
X356786D01*
Y309137D01*
X356487D01*
Y309063D01*
X356262D01*
Y308988D01*
X355963D01*
Y308913D01*
X355739D01*
Y308838D01*
X355440D01*
Y308764D01*
X355141D01*
Y308689D01*
X354767D01*
Y308614D01*
X354393D01*
Y308539D01*
X353945D01*
Y308465D01*
X353496D01*
Y308390D01*
X352898D01*
Y308315D01*
X352973D01*
Y308240D01*
X353197D01*
Y308165D01*
X353421D01*
Y308091D01*
X353496D01*
Y308016D01*
X353571D01*
Y307941D01*
X353197D01*
Y307866D01*
X352225D01*
Y307792D01*
X352300D01*
Y307717D01*
X352375D01*
Y307642D01*
X352449D01*
Y307567D01*
X352524D01*
Y307492D01*
X352674D01*
Y307418D01*
X352748D01*
Y307343D01*
X352898D01*
Y307268D01*
X352973D01*
Y307193D01*
X353048D01*
Y307119D01*
X353197D01*
Y306969D01*
X353048D01*
Y306894D01*
X352823D01*
Y306820D01*
X352674D01*
Y306745D01*
X352748D01*
Y306670D01*
X352823D01*
Y306595D01*
X352898D01*
Y306521D01*
X353048D01*
Y306446D01*
X353197D01*
Y306521D01*
X353347D01*
Y306595D01*
X353421D01*
Y306670D01*
X353571D01*
Y306745D01*
X353720D01*
Y306820D01*
X353945D01*
Y306894D01*
X354094D01*
Y306969D01*
X354244D01*
Y307044D01*
X354393D01*
Y307119D01*
X354692D01*
Y307044D01*
X354618D01*
Y306894D01*
X354543D01*
Y306745D01*
X354468D01*
Y306595D01*
X354393D01*
Y306446D01*
X354468D01*
Y306521D01*
X354692D01*
Y306595D01*
X354917D01*
Y306670D01*
X355291D01*
Y306745D01*
X355664D01*
Y306820D01*
X356038D01*
Y306894D01*
X356412D01*
Y306969D01*
X356786D01*
Y307044D01*
X357160D01*
Y307119D01*
X357533D01*
Y307193D01*
X357907D01*
Y307268D01*
X358356D01*
Y307343D01*
X358730D01*
Y307418D01*
X359103D01*
Y307492D01*
X359702D01*
Y307567D01*
X360225D01*
Y307492D01*
X360150D01*
Y307418D01*
X360075D01*
Y307343D01*
X360001D01*
Y307268D01*
X359926D01*
Y307193D01*
X359851D01*
Y307119D01*
X359776D01*
Y307044D01*
X359627D01*
Y306969D01*
X359552D01*
Y306894D01*
X359402D01*
Y306820D01*
X359328D01*
Y306745D01*
X359178D01*
Y306670D01*
X359103D01*
Y306595D01*
X358954D01*
Y306521D01*
X358879D01*
Y306446D01*
X358730D01*
Y306371D01*
X358580D01*
Y306296D01*
X358505D01*
Y306222D01*
X358356D01*
Y306147D01*
X358281D01*
Y306072D01*
X358132D01*
Y305997D01*
X357982D01*
Y305923D01*
X357907D01*
Y305848D01*
X357758D01*
Y305773D01*
X357683D01*
Y305698D01*
X357533D01*
Y305624D01*
X357459D01*
Y305549D01*
X357309D01*
Y305474D01*
X357234D01*
Y305399D01*
X357085D01*
Y305324D01*
X357010D01*
Y305250D01*
X357533D01*
Y305324D01*
X358132D01*
Y305399D01*
X358431D01*
Y305250D01*
X358281D01*
Y305175D01*
X358206D01*
Y305100D01*
X358057D01*
Y305025D01*
X357982D01*
Y304951D01*
X357833D01*
Y304876D01*
X357758D01*
Y304801D01*
X357608D01*
Y304726D01*
X357459D01*
Y304651D01*
X357384D01*
Y304577D01*
X357533D01*
Y304502D01*
X357907D01*
Y304427D01*
X358281D01*
Y304352D01*
X358655D01*
Y304278D01*
X358954D01*
Y304203D01*
X359029D01*
Y304278D01*
X359103D01*
Y304352D01*
X359178D01*
Y304427D01*
X359253D01*
Y304502D01*
X359328D01*
Y304577D01*
X359402D01*
Y304651D01*
X359477D01*
Y304726D01*
X359552D01*
Y304801D01*
X359627D01*
Y304876D01*
X359702D01*
Y304951D01*
X359776D01*
Y305025D01*
X359851D01*
Y305100D01*
X359926D01*
Y305175D01*
X360001D01*
Y305250D01*
X360075D01*
Y305324D01*
X360150D01*
Y305399D01*
X360225D01*
Y305474D01*
X360300D01*
Y305549D01*
X360374D01*
Y305624D01*
X360449D01*
Y305698D01*
X360524D01*
Y305773D01*
X360599D01*
Y305923D01*
X360673D01*
Y305997D01*
X360748D01*
Y306072D01*
X360898D01*
Y305923D01*
X360823D01*
Y305624D01*
X360748D01*
Y305399D01*
X360673D01*
Y305175D01*
X360748D01*
Y305250D01*
X360823D01*
Y305324D01*
X360898D01*
Y305399D01*
X360973D01*
Y305474D01*
X361122D01*
Y305549D01*
X361197D01*
Y305624D01*
X361272D01*
Y305698D01*
X361346D01*
Y305773D01*
X361421D01*
Y305848D01*
X361571D01*
Y305923D01*
X361645D01*
Y305997D01*
X361720D01*
Y306072D01*
X361795D01*
Y306147D01*
X361870D01*
Y306222D01*
X361945D01*
Y306296D01*
X362094D01*
Y306371D01*
X362169D01*
Y306446D01*
X362244D01*
Y306521D01*
X362318D01*
Y306595D01*
X362468D01*
Y306670D01*
X362543D01*
Y306745D01*
X362617D01*
Y306820D01*
X362767D01*
Y306894D01*
X362842D01*
Y306969D01*
X362916D01*
Y307044D01*
X362991D01*
Y307119D01*
X363066D01*
Y307193D01*
X363141D01*
Y306894D01*
X363066D01*
Y306745D01*
X362991D01*
Y306521D01*
X362916D01*
Y306371D01*
X362842D01*
Y306147D01*
X362767D01*
Y305997D01*
X362692D01*
Y305848D01*
X362617D01*
Y305624D01*
X362543D01*
Y305474D01*
X362468D01*
Y305250D01*
X362393D01*
Y305025D01*
X362318D01*
Y304801D01*
X362244D01*
Y304651D01*
X362169D01*
Y304427D01*
X362094D01*
Y304278D01*
X362019D01*
Y304053D01*
X361945D01*
Y303904D01*
X361870D01*
Y303754D01*
X361795D01*
Y303680D01*
X361945D01*
Y303754D01*
X362094D01*
Y303829D01*
X362244D01*
Y303904D01*
X362393D01*
Y303979D01*
X362468D01*
Y304053D01*
X362692D01*
Y304128D01*
X362842D01*
Y304203D01*
X362991D01*
Y304278D01*
X363141D01*
Y304352D01*
X363290D01*
Y304427D01*
X363365D01*
Y304502D01*
X363514D01*
Y304577D01*
X363664D01*
Y304651D01*
X363814D01*
Y304726D01*
X363888D01*
Y304801D01*
X364038D01*
Y304876D01*
X364187D01*
Y304951D01*
X364337D01*
Y305025D01*
X364487D01*
Y305100D01*
X364636D01*
Y305175D01*
X364786D01*
Y305250D01*
X364860D01*
Y305324D01*
X365010D01*
Y305399D01*
X365159D01*
Y305474D01*
X365309D01*
Y305549D01*
X365458D01*
Y305624D01*
X365608D01*
Y305698D01*
X365757D01*
Y305773D01*
X365907D01*
Y305848D01*
X366056D01*
Y305923D01*
X366206D01*
Y305997D01*
X366355D01*
Y306072D01*
X366505D01*
Y306147D01*
X366655D01*
Y306222D01*
X366804D01*
Y306296D01*
X367028D01*
Y306371D01*
X367178D01*
Y306446D01*
X367327D01*
Y306521D01*
X367477D01*
Y306595D01*
X367627D01*
Y306670D01*
X367776D01*
Y306595D01*
X367701D01*
Y306446D01*
X367627D01*
Y306371D01*
X367552D01*
Y306296D01*
X367477D01*
Y306147D01*
X367402D01*
Y306072D01*
X367327D01*
Y305997D01*
X367253D01*
Y305848D01*
X367402D01*
Y305923D01*
X367627D01*
Y305997D01*
X367776D01*
Y306072D01*
X368000D01*
Y306147D01*
X368225D01*
Y306222D01*
X368449D01*
Y306296D01*
X368599D01*
Y306371D01*
X368673D01*
Y306222D01*
X368599D01*
Y306147D01*
X368524D01*
Y306072D01*
X368449D01*
Y305997D01*
X368374D01*
Y305923D01*
X368299D01*
Y305848D01*
X368225D01*
Y305773D01*
X368150D01*
Y305698D01*
X368075D01*
Y305624D01*
X368000D01*
Y305549D01*
X367926D01*
Y305474D01*
X367851D01*
Y305399D01*
X367776D01*
Y305324D01*
X367701D01*
Y305250D01*
X367627D01*
Y305175D01*
X367552D01*
Y305100D01*
X367477D01*
Y305025D01*
X367402D01*
Y304951D01*
X367327D01*
Y304876D01*
X367253D01*
Y304801D01*
X367103D01*
Y304726D01*
X367028D01*
Y304651D01*
X366954D01*
Y304577D01*
X366879D01*
Y304502D01*
X366804D01*
Y304352D01*
X366729D01*
Y304278D01*
X366655D01*
Y304203D01*
X366580D01*
Y304128D01*
X366505D01*
Y304053D01*
X366430D01*
Y303979D01*
X366355D01*
Y303904D01*
X366206D01*
Y303829D01*
X366131D01*
Y303680D01*
X366056D01*
Y303605D01*
X365982D01*
Y303530D01*
X365907D01*
Y303455D01*
X365832D01*
Y303380D01*
X365757D01*
Y303306D01*
X365683D01*
Y303231D01*
X365608D01*
Y303156D01*
X365533D01*
Y303081D01*
X365458D01*
Y302932D01*
X365384D01*
Y302857D01*
X365309D01*
Y302782D01*
X365234D01*
Y302708D01*
X365159D01*
Y302558D01*
X365832D01*
Y302633D01*
X366505D01*
Y302708D01*
X367402D01*
Y302782D01*
X368075D01*
Y302857D01*
X368898D01*
Y302932D01*
X369869D01*
Y303007D01*
X370617D01*
Y302932D01*
X370542D01*
Y302857D01*
X370393D01*
Y302782D01*
X370318D01*
Y302708D01*
X370094D01*
Y302633D01*
X370019D01*
Y302558D01*
X369869D01*
Y302483D01*
X369795D01*
Y302409D01*
X369645D01*
Y302334D01*
X369496D01*
Y302259D01*
X369421D01*
Y302184D01*
X369271D01*
Y302110D01*
X369197D01*
Y302035D01*
X369047D01*
Y301960D01*
X368898D01*
Y301885D01*
X368748D01*
Y301811D01*
X368599D01*
Y301736D01*
X368449D01*
Y301661D01*
X368374D01*
Y301586D01*
X368225D01*
Y301511D01*
X368000D01*
Y301437D01*
X367851D01*
Y301362D01*
X367701D01*
Y301287D01*
X367477D01*
Y301212D01*
X367327D01*
Y301138D01*
X367178D01*
Y301063D01*
X367028D01*
Y300988D01*
X366879D01*
Y300913D01*
X366729D01*
Y300839D01*
X366580D01*
Y300764D01*
X366430D01*
Y300689D01*
X366281D01*
Y300614D01*
X366131D01*
Y300539D01*
X365982D01*
Y300465D01*
X365832D01*
Y300390D01*
X365608D01*
Y300315D01*
X365533D01*
Y300240D01*
X365683D01*
Y300166D01*
X365832D01*
Y300091D01*
X366056D01*
Y300016D01*
X366206D01*
Y299941D01*
X366430D01*
Y299867D01*
X366580D01*
Y299792D01*
X366804D01*
Y299717D01*
X366954D01*
Y299642D01*
X367103D01*
Y299568D01*
X367253D01*
Y299493D01*
X367402D01*
Y299418D01*
X367627D01*
Y299343D01*
X367776D01*
Y299269D01*
X367926D01*
Y299194D01*
X368150D01*
Y299119D01*
X368299D01*
Y299044D01*
X368449D01*
Y298895D01*
X368075D01*
Y298820D01*
X367402D01*
Y298745D01*
X366430D01*
Y298670D01*
X365683D01*
Y298596D01*
X365533D01*
Y298521D01*
X365458D01*
Y298446D01*
X365533D01*
Y298371D01*
X365608D01*
Y298297D01*
X365683D01*
Y298222D01*
X365757D01*
Y298147D01*
X365832D01*
Y298072D01*
X365907D01*
Y297997D01*
X365982D01*
Y297923D01*
X366056D01*
Y297848D01*
X366206D01*
Y297773D01*
X366281D01*
Y297698D01*
X366355D01*
Y297624D01*
X366430D01*
Y297549D01*
X366505D01*
Y297474D01*
X366580D01*
Y297399D01*
X366655D01*
Y297325D01*
X366729D01*
Y297250D01*
X366804D01*
Y297175D01*
X366954D01*
Y297100D01*
X367028D01*
Y297026D01*
X367103D01*
Y296951D01*
X367178D01*
Y296876D01*
X367253D01*
Y296801D01*
X367327D01*
Y296727D01*
X367103D01*
Y296801D01*
X366729D01*
Y296876D01*
X366281D01*
Y296801D01*
X366430D01*
Y296652D01*
X366505D01*
Y296577D01*
X366580D01*
Y296502D01*
X366655D01*
Y296427D01*
X366729D01*
Y296353D01*
X366804D01*
Y296278D01*
X366879D01*
Y296203D01*
X366954D01*
Y296128D01*
X367028D01*
Y295979D01*
X366954D01*
Y296054D01*
X366879D01*
Y295979D01*
X366655D01*
Y296054D01*
X366580D01*
Y295904D01*
X366655D01*
Y295829D01*
X366729D01*
Y295755D01*
X366804D01*
Y295680D01*
X366879D01*
Y295605D01*
X366954D01*
Y295530D01*
X367028D01*
Y295456D01*
X367103D01*
Y295381D01*
X367178D01*
Y295306D01*
X367253D01*
Y295157D01*
X367103D01*
Y295231D01*
X366879D01*
Y295306D01*
X366580D01*
Y295381D01*
X366430D01*
Y295456D01*
X366206D01*
Y295530D01*
X365982D01*
Y295605D01*
X365757D01*
Y295680D01*
X365608D01*
Y295755D01*
X365384D01*
Y295829D01*
X365234D01*
Y295904D01*
X365010D01*
Y295979D01*
X364636D01*
Y295157D01*
X364711D01*
Y294409D01*
X364786D01*
Y294035D01*
X364860D01*
Y293661D01*
X364935D01*
Y293362D01*
X365010D01*
Y293138D01*
X365085D01*
Y292988D01*
X365159D01*
Y292764D01*
X365234D01*
Y292615D01*
X365309D01*
Y292465D01*
X365384D01*
Y292316D01*
X365458D01*
Y292166D01*
X365533D01*
Y292091D01*
X365608D01*
Y292016D01*
X365683D01*
Y291942D01*
X365757D01*
Y291867D01*
X365832D01*
Y291717D01*
X365907D01*
Y291643D01*
X365982D01*
Y291568D01*
X366056D01*
Y291493D01*
X366131D01*
Y291344D01*
X366206D01*
Y291194D01*
X366281D01*
Y291044D01*
X366355D01*
Y290820D01*
X366430D01*
Y290671D01*
X366355D01*
Y290372D01*
X366281D01*
Y290222D01*
X366206D01*
Y289998D01*
X366131D01*
Y289848D01*
X366056D01*
Y289699D01*
X365982D01*
Y289549D01*
X365907D01*
Y289400D01*
X365832D01*
Y289250D01*
X365757D01*
Y289101D01*
X365683D01*
Y289026D01*
X365608D01*
Y288876D01*
X365533D01*
Y288727D01*
X365458D01*
Y288652D01*
X365384D01*
Y288503D01*
X365309D01*
Y288428D01*
X365234D01*
Y288278D01*
X365159D01*
Y288204D01*
X365085D01*
Y288054D01*
X365010D01*
Y287979D01*
X364935D01*
Y287830D01*
X364860D01*
Y287755D01*
X364786D01*
Y287605D01*
X364711D01*
Y287531D01*
X364636D01*
Y287381D01*
X364561D01*
Y287232D01*
X364487D01*
Y287157D01*
X364412D01*
Y287007D01*
X364337D01*
Y286932D01*
X364262D01*
Y286858D01*
X364113D01*
Y286932D01*
X364187D01*
Y287007D01*
X364262D01*
Y287082D01*
X364337D01*
Y287232D01*
X364412D01*
Y287381D01*
X364487D01*
Y287531D01*
X364561D01*
Y287605D01*
X364636D01*
Y287755D01*
X364711D01*
Y287830D01*
X364786D01*
Y287979D01*
X364860D01*
Y288054D01*
X364935D01*
Y288204D01*
X365010D01*
Y288278D01*
X365085D01*
Y288428D01*
X365159D01*
Y288503D01*
X365234D01*
Y288652D01*
X365309D01*
Y288727D01*
X365384D01*
Y288876D01*
X365458D01*
Y289026D01*
X365533D01*
Y289101D01*
X365608D01*
Y289250D01*
X365683D01*
Y289400D01*
X365757D01*
Y289549D01*
X365832D01*
Y289699D01*
X365907D01*
Y289848D01*
X365982D01*
Y289998D01*
X366056D01*
Y290222D01*
X366131D01*
Y290297D01*
X366206D01*
Y291044D01*
X366131D01*
Y291194D01*
X366056D01*
Y291269D01*
X365982D01*
Y291344D01*
X365907D01*
Y291418D01*
X365832D01*
Y291568D01*
X365757D01*
Y291643D01*
X365683D01*
Y291792D01*
X365608D01*
Y291867D01*
X365533D01*
Y291942D01*
X365458D01*
Y292091D01*
X365384D01*
Y292166D01*
X365309D01*
Y292316D01*
X365234D01*
Y292465D01*
X365159D01*
Y292615D01*
X365085D01*
Y292764D01*
X365010D01*
Y292914D01*
X364935D01*
Y293138D01*
X364860D01*
Y293362D01*
X364786D01*
Y293661D01*
X364711D01*
Y294110D01*
X364636D01*
Y294708D01*
X364561D01*
Y295904D01*
X364487D01*
Y296128D01*
X364412D01*
Y296203D01*
X364187D01*
Y296278D01*
X364038D01*
Y296353D01*
X363814D01*
Y296427D01*
X363589D01*
Y296502D01*
X363440D01*
Y296577D01*
X363141D01*
Y296652D01*
X362991D01*
Y296727D01*
X362767D01*
Y296801D01*
X362617D01*
Y296876D01*
X362393D01*
Y296951D01*
X362169D01*
Y297026D01*
X361945D01*
Y297100D01*
X361720D01*
Y297175D01*
X361496D01*
Y297250D01*
X361272D01*
Y297325D01*
X361047D01*
Y297399D01*
X360898D01*
Y297474D01*
X360673D01*
Y297549D01*
X360449D01*
Y297399D01*
X360524D01*
Y297175D01*
X360374D01*
Y297250D01*
X360300D01*
Y297325D01*
X360075D01*
Y297399D01*
X359926D01*
Y297474D01*
X359851D01*
Y297549D01*
X359776D01*
Y297474D01*
X359851D01*
Y297325D01*
X359926D01*
Y297250D01*
X360001D01*
Y297175D01*
X360075D01*
Y297100D01*
X360001D01*
Y297026D01*
X359851D01*
Y297100D01*
X359702D01*
Y297175D01*
X359627D01*
Y297250D01*
X359477D01*
Y297325D01*
X359328D01*
Y297399D01*
X359253D01*
Y297474D01*
X359103D01*
Y297549D01*
X359029D01*
Y297624D01*
X358879D01*
Y297698D01*
X358804D01*
Y297773D01*
X358655D01*
Y297848D01*
X358580D01*
Y297923D01*
X358431D01*
Y297997D01*
X358356D01*
Y298072D01*
X358206D01*
Y298147D01*
X358057D01*
Y298222D01*
X357982D01*
Y298297D01*
X357833D01*
Y298371D01*
X357758D01*
Y298446D01*
X357683D01*
Y298521D01*
X357833D01*
Y298446D01*
X357907D01*
Y298371D01*
X358057D01*
Y298297D01*
X358206D01*
Y298222D01*
X358281D01*
Y298147D01*
X358431D01*
Y298072D01*
X358505D01*
Y297997D01*
X358655D01*
Y297923D01*
X358730D01*
Y297848D01*
X358879D01*
Y297773D01*
X358954D01*
Y297698D01*
X359103D01*
Y297624D01*
X359253D01*
Y297549D01*
X359328D01*
Y297474D01*
X359477D01*
Y297399D01*
X359627D01*
Y297325D01*
X359702D01*
Y297474D01*
X359627D01*
Y297549D01*
X359552D01*
Y297624D01*
X359477D01*
Y297773D01*
X359402D01*
Y297848D01*
X359328D01*
Y297997D01*
X359253D01*
Y298072D01*
X359328D01*
Y297997D01*
X359402D01*
Y297923D01*
X359477D01*
Y297848D01*
X359552D01*
Y297773D01*
X359702D01*
Y297698D01*
X359851D01*
Y297624D01*
X360001D01*
Y297549D01*
X360150D01*
Y297474D01*
X360300D01*
Y297624D01*
X360225D01*
Y297773D01*
X360374D01*
Y297698D01*
X360673D01*
Y297624D01*
X360898D01*
Y297549D01*
X361047D01*
Y297474D01*
X361272D01*
Y297399D01*
X361496D01*
Y297325D01*
X361720D01*
Y297250D01*
X361945D01*
Y297175D01*
X362244D01*
Y297100D01*
X362393D01*
Y297026D01*
X362692D01*
Y296951D01*
X362842D01*
Y296876D01*
X363066D01*
Y296801D01*
X363290D01*
Y296727D01*
X363440D01*
Y296652D01*
X363664D01*
Y296577D01*
X363888D01*
Y296502D01*
X364038D01*
Y296427D01*
X364262D01*
Y296353D01*
X364487D01*
Y296278D01*
X364636D01*
Y296203D01*
X364860D01*
Y296128D01*
X365010D01*
Y296054D01*
X365159D01*
Y295979D01*
X365384D01*
Y295904D01*
X365533D01*
Y295829D01*
X365683D01*
Y295755D01*
X365907D01*
Y295680D01*
X366056D01*
Y295605D01*
X366355D01*
Y295530D01*
X366580D01*
Y295456D01*
X366729D01*
Y295381D01*
X366954D01*
Y295456D01*
X366879D01*
Y295530D01*
X366804D01*
Y295605D01*
X366729D01*
Y295680D01*
X366655D01*
Y295755D01*
X366580D01*
Y295829D01*
X366505D01*
Y295904D01*
X366355D01*
Y295979D01*
X366281D01*
Y296054D01*
X366206D01*
Y296128D01*
X366131D01*
Y296203D01*
X366056D01*
Y296353D01*
X366131D01*
Y296278D01*
X366355D01*
Y296203D01*
X366655D01*
Y296128D01*
X366804D01*
Y296203D01*
X366729D01*
Y296278D01*
X366655D01*
Y296353D01*
X366580D01*
Y296427D01*
X366505D01*
Y296502D01*
X366430D01*
Y296577D01*
X366355D01*
Y296652D01*
X366281D01*
Y296727D01*
X366206D01*
Y296801D01*
X366131D01*
Y296876D01*
X366056D01*
Y296951D01*
X365982D01*
Y297026D01*
X365907D01*
Y297100D01*
X365832D01*
Y297175D01*
X365982D01*
Y297100D01*
X366206D01*
Y297026D01*
X366505D01*
Y296951D01*
X366804D01*
Y296876D01*
X367028D01*
Y296951D01*
X366954D01*
Y297026D01*
X366879D01*
Y297100D01*
X366729D01*
Y297175D01*
X366655D01*
Y297250D01*
X366580D01*
Y297325D01*
X366505D01*
Y297399D01*
X366430D01*
Y297474D01*
X366355D01*
Y297549D01*
X366281D01*
Y297624D01*
X366131D01*
Y297698D01*
X366056D01*
Y297773D01*
X365982D01*
Y297848D01*
X365907D01*
Y297923D01*
X365832D01*
Y297997D01*
X365757D01*
Y298072D01*
X365683D01*
Y298147D01*
X365608D01*
Y298222D01*
X365533D01*
Y298297D01*
X365458D01*
Y298371D01*
X365384D01*
Y298446D01*
X365309D01*
Y298521D01*
X365234D01*
Y298596D01*
X365085D01*
Y298745D01*
X366056D01*
Y298820D01*
X366879D01*
Y298895D01*
X367028D01*
Y298820D01*
X367103D01*
Y298895D01*
X367627D01*
Y298970D01*
X368150D01*
Y299044D01*
X368000D01*
Y299119D01*
X367851D01*
Y299194D01*
X367627D01*
Y299269D01*
X367477D01*
Y299343D01*
X367327D01*
Y299418D01*
X367103D01*
Y299493D01*
X367028D01*
Y299568D01*
X366804D01*
Y299642D01*
X366655D01*
Y299717D01*
X366430D01*
Y299792D01*
X366281D01*
Y299867D01*
X366056D01*
Y299941D01*
X365907D01*
Y300016D01*
X365683D01*
Y300091D01*
X365608D01*
Y300166D01*
X365384D01*
Y300240D01*
X365234D01*
Y300166D01*
X365085D01*
Y300315D01*
X365309D01*
Y300390D01*
X365384D01*
Y300465D01*
X365608D01*
Y300539D01*
X365757D01*
Y300614D01*
X365982D01*
Y300689D01*
X366131D01*
Y300764D01*
X366281D01*
Y300839D01*
X366430D01*
Y300913D01*
X366580D01*
Y300988D01*
X366729D01*
Y301063D01*
X366954D01*
Y301138D01*
X367028D01*
Y301212D01*
X367253D01*
Y301287D01*
X367402D01*
Y301362D01*
X367552D01*
Y301437D01*
X367701D01*
Y301511D01*
X367926D01*
Y301586D01*
X368075D01*
Y301661D01*
X368225D01*
Y301736D01*
X368374D01*
Y301811D01*
X368524D01*
Y301885D01*
X368673D01*
Y301960D01*
X368748D01*
Y302035D01*
X368898D01*
Y302110D01*
X369047D01*
Y302184D01*
X369122D01*
Y302259D01*
X369271D01*
Y302334D01*
X369346D01*
Y302409D01*
X369496D01*
Y302483D01*
X369645D01*
Y302558D01*
X369795D01*
Y302633D01*
X369869D01*
Y302708D01*
X370019D01*
Y302782D01*
X370168D01*
Y302932D01*
X370094D01*
Y302857D01*
X369570D01*
Y302782D01*
X368599D01*
Y302708D01*
X367926D01*
Y302633D01*
X367178D01*
Y302558D01*
X366355D01*
Y302483D01*
X365384D01*
Y302409D01*
X364786D01*
Y302334D01*
X363963D01*
Y302409D01*
X364113D01*
Y302483D01*
X364786D01*
Y302558D01*
X364860D01*
Y302633D01*
X364935D01*
Y302708D01*
X365010D01*
Y302782D01*
X365085D01*
Y302857D01*
X365159D01*
Y302932D01*
X365234D01*
Y303007D01*
X365309D01*
Y303081D01*
X365384D01*
Y303156D01*
X365458D01*
Y303231D01*
X365533D01*
Y303306D01*
X365608D01*
Y303380D01*
X365683D01*
Y303455D01*
X365757D01*
Y303530D01*
X365832D01*
Y303605D01*
X365907D01*
Y303754D01*
X365982D01*
Y303829D01*
X366056D01*
Y303904D01*
X366131D01*
Y303979D01*
X366206D01*
Y304053D01*
X366281D01*
Y304128D01*
X366355D01*
Y304203D01*
X366430D01*
Y304278D01*
X366505D01*
Y304352D01*
X366580D01*
Y304427D01*
X366655D01*
Y304502D01*
X366729D01*
Y304577D01*
X366804D01*
Y304651D01*
X366879D01*
Y304726D01*
X366954D01*
Y304801D01*
X367028D01*
Y304876D01*
X367103D01*
Y304951D01*
X367253D01*
Y305025D01*
X367327D01*
Y305100D01*
X367402D01*
Y305175D01*
X367477D01*
Y305250D01*
X367552D01*
Y305324D01*
X367627D01*
Y305399D01*
X367701D01*
Y305474D01*
X367776D01*
Y305549D01*
X367851D01*
Y305624D01*
X367926D01*
Y305698D01*
X368000D01*
Y305773D01*
X368075D01*
Y305848D01*
X368150D01*
Y305923D01*
X368225D01*
Y306072D01*
X368150D01*
Y305997D01*
X368000D01*
Y305923D01*
X367701D01*
Y305848D01*
X367552D01*
Y305773D01*
X367327D01*
Y305698D01*
X367103D01*
Y305624D01*
X366879D01*
Y305549D01*
X366580D01*
Y305474D01*
X366355D01*
Y305549D01*
X366430D01*
Y305624D01*
X366655D01*
Y305698D01*
X366879D01*
Y305773D01*
X367028D01*
Y305923D01*
X367103D01*
Y305997D01*
X367178D01*
Y306147D01*
X367253D01*
Y306222D01*
X367327D01*
Y306371D01*
X367253D01*
Y306296D01*
X367103D01*
Y306222D01*
X366954D01*
Y306147D01*
X366729D01*
Y306072D01*
X366580D01*
Y305997D01*
X366505D01*
Y305923D01*
X366355D01*
Y305848D01*
X366206D01*
Y305773D01*
X366056D01*
Y305698D01*
X365907D01*
Y305624D01*
X365757D01*
Y305549D01*
X365608D01*
Y305474D01*
X365458D01*
Y305399D01*
X365309D01*
Y305324D01*
X365159D01*
Y305250D01*
X365010D01*
Y305175D01*
X364860D01*
Y305100D01*
X364711D01*
Y305025D01*
X364636D01*
Y304951D01*
X364487D01*
Y304876D01*
X364337D01*
Y304801D01*
X364187D01*
Y304726D01*
X364038D01*
Y304651D01*
X363963D01*
Y304577D01*
X363814D01*
Y304502D01*
X363664D01*
Y304427D01*
X363514D01*
Y304352D01*
X363440D01*
Y304278D01*
X363215D01*
Y304203D01*
X363141D01*
Y304128D01*
X362991D01*
Y304053D01*
X362842D01*
Y303979D01*
X362692D01*
Y303904D01*
X362543D01*
Y303829D01*
X362393D01*
Y303754D01*
X362244D01*
Y303680D01*
X362094D01*
Y303605D01*
X361945D01*
Y303530D01*
X361795D01*
Y303455D01*
X361645D01*
Y303380D01*
X361496D01*
Y303530D01*
X361571D01*
Y303605D01*
X361645D01*
Y303754D01*
X361720D01*
Y303979D01*
X361795D01*
Y304203D01*
X361870D01*
Y304352D01*
X361945D01*
Y304502D01*
X362019D01*
Y304651D01*
X362094D01*
Y304876D01*
X362169D01*
Y305100D01*
X362244D01*
Y305324D01*
X362318D01*
Y305474D01*
X362393D01*
Y305624D01*
X362468D01*
Y305848D01*
X362543D01*
Y305997D01*
X362617D01*
Y306222D01*
X362692D01*
Y306371D01*
X362767D01*
Y306595D01*
X362842D01*
Y306745D01*
X362692D01*
Y306670D01*
X362617D01*
Y306595D01*
X362543D01*
Y306521D01*
X362468D01*
Y306446D01*
X362318D01*
Y306371D01*
X362244D01*
Y306296D01*
X362169D01*
Y306222D01*
X362094D01*
Y306147D01*
X362019D01*
Y306072D01*
X361870D01*
Y305997D01*
X361795D01*
Y305923D01*
X361720D01*
Y305848D01*
X361645D01*
Y305773D01*
X361571D01*
Y305698D01*
X361496D01*
Y305624D01*
X361421D01*
Y305549D01*
X361272D01*
Y305474D01*
X361197D01*
Y305399D01*
X361122D01*
Y305324D01*
X361047D01*
Y305250D01*
X360898D01*
Y305175D01*
X360823D01*
Y305100D01*
X360748D01*
Y305025D01*
X360599D01*
Y304951D01*
X360524D01*
Y304876D01*
X360449D01*
Y304801D01*
X360300D01*
Y304951D01*
X360374D01*
Y305025D01*
X360449D01*
Y305250D01*
X360524D01*
Y305399D01*
X360599D01*
Y305624D01*
X360524D01*
Y305549D01*
X360449D01*
Y305474D01*
X360374D01*
Y305399D01*
X360300D01*
Y305324D01*
X360225D01*
Y305250D01*
X360150D01*
Y305175D01*
X360075D01*
Y305100D01*
X360001D01*
Y305025D01*
X359926D01*
Y304951D01*
X359851D01*
Y304801D01*
X359776D01*
Y304726D01*
X359702D01*
Y304651D01*
X359627D01*
Y304577D01*
X359552D01*
Y304502D01*
X359477D01*
Y304427D01*
X359402D01*
Y304352D01*
X359328D01*
Y304278D01*
X359253D01*
Y304203D01*
X359402D01*
Y304128D01*
X359627D01*
Y304053D01*
X359926D01*
Y303979D01*
X360225D01*
Y303904D01*
X360449D01*
Y303829D01*
X360673D01*
Y303754D01*
X360973D01*
Y303680D01*
X361122D01*
Y303605D01*
X361346D01*
Y303455D01*
X361272D01*
Y303380D01*
X360673D01*
Y303306D01*
X360150D01*
Y303231D01*
X359552D01*
Y303156D01*
X359029D01*
Y303081D01*
X358206D01*
Y303007D01*
X357533D01*
Y302932D01*
X356786D01*
Y302857D01*
X356188D01*
Y302782D01*
X355963D01*
Y302708D01*
X356113D01*
Y302633D01*
X356262D01*
Y302558D01*
X356412D01*
Y302334D01*
X356188D01*
Y302259D01*
X355963D01*
Y302184D01*
X355590D01*
Y302035D01*
X355664D01*
Y301960D01*
X355739D01*
Y301885D01*
X355814D01*
Y301811D01*
X355889D01*
Y301661D01*
X355963D01*
Y301586D01*
X356038D01*
Y301511D01*
X356113D01*
Y301437D01*
X356188D01*
Y301362D01*
X356262D01*
Y301212D01*
X356337D01*
Y301138D01*
X356412D01*
Y301063D01*
X356487D01*
Y300988D01*
X356561D01*
Y300913D01*
X356636D01*
Y300764D01*
X356711D01*
Y300689D01*
X356786D01*
Y300614D01*
X356711D01*
Y300539D01*
X356636D01*
Y300614D01*
X356188D01*
Y300689D01*
X355889D01*
Y300764D01*
X355590D01*
Y300839D01*
X355291D01*
Y300764D01*
X355365D01*
Y300689D01*
X355440D01*
Y300539D01*
X355515D01*
Y300465D01*
X355590D01*
Y300315D01*
X355664D01*
Y300240D01*
X355739D01*
Y300091D01*
X355814D01*
Y300016D01*
X355889D01*
Y299941D01*
X355963D01*
Y299792D01*
X356038D01*
Y299717D01*
X356113D01*
Y299642D01*
X356188D01*
Y299493D01*
X356262D01*
Y299418D01*
X356337D01*
Y299269D01*
X356412D01*
Y299194D01*
X356487D01*
Y299044D01*
X356561D01*
Y298970D01*
X356636D01*
Y298820D01*
X356711D01*
Y298745D01*
X356786D01*
Y298596D01*
X356860D01*
Y298521D01*
X356935D01*
Y298371D01*
X357010D01*
Y298297D01*
X357085D01*
Y298222D01*
X357160D01*
Y298072D01*
X357234D01*
Y297997D01*
X357309D01*
Y297848D01*
X357384D01*
Y297773D01*
X357459D01*
Y297624D01*
X357533D01*
Y297549D01*
X357608D01*
Y297474D01*
X357533D01*
Y297399D01*
X357459D01*
Y297474D01*
X357309D01*
Y297549D01*
X357160D01*
Y297624D01*
X357010D01*
Y297698D01*
X356860D01*
Y297773D01*
X356711D01*
Y297848D01*
X356636D01*
Y297923D01*
X356487D01*
Y297997D01*
X356337D01*
Y298072D01*
X356188D01*
Y298147D01*
X356038D01*
Y298222D01*
X355889D01*
Y298297D01*
X355739D01*
Y298371D01*
X355664D01*
Y298446D01*
X355515D01*
Y298521D01*
X355365D01*
Y298596D01*
X355291D01*
Y298670D01*
X355141D01*
Y298745D01*
X354991D01*
Y298820D01*
X354917D01*
Y298895D01*
X354767D01*
Y298970D01*
X354618D01*
Y299044D01*
X354468D01*
Y299119D01*
X354393D01*
Y299194D01*
X354244D01*
Y299269D01*
X354169D01*
Y299343D01*
X354019D01*
Y299418D01*
X353945D01*
Y299493D01*
X353795D01*
Y299568D01*
X353646D01*
Y299642D01*
X353496D01*
Y299717D01*
X353421D01*
Y299792D01*
X353272D01*
Y299867D01*
X353197D01*
Y299941D01*
X353048D01*
Y300016D01*
X352973D01*
Y300091D01*
X352898D01*
Y299867D01*
X352973D01*
Y299717D01*
X353048D01*
Y299568D01*
X353122D01*
Y299343D01*
X353197D01*
Y299194D01*
X353272D01*
Y298970D01*
X353347D01*
Y298745D01*
X353421D01*
Y298596D01*
X353496D01*
Y298446D01*
X353571D01*
Y298297D01*
X353646D01*
Y298147D01*
X353720D01*
Y297923D01*
X353571D01*
Y297997D01*
X353496D01*
Y298072D01*
X353347D01*
Y298147D01*
X353272D01*
Y298222D01*
X353197D01*
Y298297D01*
X353122D01*
Y298147D01*
X353197D01*
Y297997D01*
X353272D01*
Y297773D01*
X353347D01*
Y297549D01*
X353421D01*
Y297325D01*
X353496D01*
Y297100D01*
X353571D01*
Y296951D01*
X353646D01*
Y296727D01*
X353720D01*
Y296577D01*
X353795D01*
Y296353D01*
X353870D01*
Y296128D01*
X353945D01*
Y295904D01*
X354019D01*
Y295680D01*
X354094D01*
Y295456D01*
X354169D01*
Y295231D01*
X354019D01*
Y295306D01*
X353945D01*
Y295381D01*
X353795D01*
Y295456D01*
X353720D01*
Y295530D01*
X353646D01*
Y295605D01*
X353571D01*
Y295680D01*
X353496D01*
Y295755D01*
X353421D01*
Y295829D01*
X353347D01*
Y295904D01*
X353197D01*
Y295979D01*
X353122D01*
Y296054D01*
X353048D01*
Y296128D01*
X352973D01*
Y296203D01*
X352898D01*
Y296278D01*
X352823D01*
Y296353D01*
X352748D01*
Y296427D01*
X352674D01*
Y296502D01*
X352599D01*
Y296577D01*
X352524D01*
Y296652D01*
X352449D01*
Y296727D01*
X352375D01*
Y296801D01*
X352300D01*
Y296876D01*
X352225D01*
Y296951D01*
X352150D01*
Y297026D01*
X352076D01*
Y297100D01*
X351926D01*
Y297175D01*
X351851D01*
Y297250D01*
X351777D01*
Y297325D01*
X351702D01*
Y297399D01*
X351627D01*
Y297474D01*
X351478D01*
Y297549D01*
X351403D01*
Y297624D01*
X351328D01*
Y297698D01*
X351253D01*
Y297773D01*
X351179D01*
Y297848D01*
X351104D01*
Y297923D01*
X351029D01*
Y297997D01*
X350954D01*
Y298072D01*
X350879D01*
Y298147D01*
X350805D01*
Y298072D01*
X350879D01*
Y296951D01*
X350954D01*
Y296876D01*
X350879D01*
Y296801D01*
X350730D01*
Y296876D01*
X350655D01*
Y297026D01*
X350580D01*
Y297100D01*
X350506D01*
Y297250D01*
X350431D01*
Y297325D01*
X350356D01*
Y297474D01*
X350281D01*
Y297549D01*
X350207D01*
Y297698D01*
X350132D01*
Y297773D01*
X350057D01*
Y297923D01*
X349982D01*
Y297997D01*
X349907D01*
Y298147D01*
X349833D01*
Y298222D01*
X349683D01*
Y297997D01*
X349608D01*
Y297474D01*
X349534D01*
Y297026D01*
X349459D01*
Y296652D01*
X349384D01*
Y296278D01*
X349309D01*
Y295456D01*
X349384D01*
Y295082D01*
X349459D01*
Y294259D01*
X349534D01*
Y293437D01*
X349608D01*
Y291792D01*
X349683D01*
Y291643D01*
X349608D01*
Y291119D01*
X349534D01*
Y290671D01*
X349459D01*
Y290222D01*
X349384D01*
Y289923D01*
X349309D01*
Y289549D01*
X349235D01*
Y289250D01*
X349160D01*
Y288876D01*
X349085D01*
Y288577D01*
X349010D01*
Y288278D01*
X348936D01*
Y287979D01*
X348861D01*
Y287755D01*
X348786D01*
Y287605D01*
X348711D01*
Y287531D01*
X348637D01*
Y287456D01*
X348562D01*
Y287306D01*
X348487D01*
Y287232D01*
X348338D01*
Y287157D01*
X348263D01*
Y287082D01*
X348188D01*
Y286932D01*
X348113D01*
Y286409D01*
X348188D01*
Y286559D01*
X348263D01*
Y286708D01*
X348338D01*
Y286260D01*
X348412D01*
Y286110D01*
X348487D01*
Y286035D01*
X348562D01*
Y285961D01*
X348637D01*
Y285886D01*
X348936D01*
Y285811D01*
X349010D01*
Y286409D01*
X349085D01*
Y286633D01*
X349160D01*
Y286708D01*
X349235D01*
Y286559D01*
X349160D01*
Y285886D01*
X349608D01*
Y285961D01*
X349758D01*
Y286035D01*
X349907D01*
Y285961D01*
X349833D01*
Y285886D01*
X349683D01*
Y285811D01*
X349534D01*
Y285736D01*
X349235D01*
Y285662D01*
X348936D01*
Y285736D01*
X348711D01*
Y285811D01*
X348487D01*
Y285886D01*
X348412D01*
Y285961D01*
X348338D01*
Y286035D01*
X348188D01*
Y286110D01*
X348113D01*
Y286260D01*
X348038D01*
Y286334D01*
X347964D01*
Y286409D01*
X347665D01*
Y286484D01*
X347365D01*
Y286559D01*
X347216D01*
Y286633D01*
X347066D01*
Y286708D01*
X346992D01*
Y286783D01*
X346917D01*
Y286858D01*
X346842D01*
Y287007D01*
X346767D01*
Y287381D01*
X346842D01*
Y287531D01*
X346917D01*
Y287680D01*
X346992D01*
Y287755D01*
X347066D01*
Y287830D01*
X347141D01*
Y287904D01*
X347216D01*
Y287979D01*
X347291D01*
Y288129D01*
X347365D01*
Y288204D01*
X347440D01*
Y288353D01*
X347515D01*
Y288577D01*
X347590D01*
Y288802D01*
X347665D01*
Y289101D01*
X347739D01*
Y289400D01*
X347814D01*
Y289699D01*
X347889D01*
Y290372D01*
X347964D01*
Y292016D01*
X347889D01*
Y292689D01*
X347814D01*
Y292988D01*
X347739D01*
Y293287D01*
X347665D01*
Y293661D01*
X347590D01*
Y293960D01*
X347515D01*
Y294259D01*
X347440D01*
Y294558D01*
X347365D01*
Y294932D01*
X347291D01*
Y295231D01*
X347216D01*
Y295680D01*
X347141D01*
Y295979D01*
X347066D01*
Y296427D01*
X346992D01*
Y297100D01*
X346917D01*
Y297773D01*
X346842D01*
Y298521D01*
X346767D01*
Y298446D01*
X346693D01*
Y298297D01*
X346618D01*
Y298222D01*
X346543D01*
Y298147D01*
X346468D01*
Y298072D01*
X346394D01*
Y297997D01*
X346319D01*
Y297848D01*
X346244D01*
Y297773D01*
X346169D01*
Y297698D01*
X346094D01*
Y297624D01*
X346020D01*
Y297549D01*
X345945D01*
Y297474D01*
X345870D01*
Y297325D01*
X345795D01*
Y297250D01*
X345721D01*
Y297175D01*
X345646D01*
Y297100D01*
X345571D01*
Y297026D01*
X345496D01*
Y296951D01*
X345422D01*
Y296876D01*
X345347D01*
Y296801D01*
X345272D01*
Y296727D01*
X345197D01*
Y296652D01*
X345123D01*
Y296577D01*
X345048D01*
Y296502D01*
X344973D01*
Y296427D01*
X344898D01*
Y296353D01*
X344824D01*
Y296203D01*
X344674D01*
Y296054D01*
X344599D01*
Y295979D01*
X344525D01*
Y295904D01*
X344450D01*
Y295829D01*
X344375D01*
Y295755D01*
X344300D01*
Y295680D01*
X344226D01*
Y296054D01*
X344300D01*
Y296427D01*
X344375D01*
Y296652D01*
X344450D01*
Y296876D01*
X344525D01*
Y297100D01*
X344599D01*
Y297250D01*
X344674D01*
Y297474D01*
X344749D01*
Y297624D01*
X344824D01*
Y297773D01*
X344898D01*
Y297997D01*
X344973D01*
Y298147D01*
X345048D01*
Y298371D01*
X345123D01*
Y298596D01*
X345197D01*
Y298745D01*
X345272D01*
Y298895D01*
X345347D01*
Y299044D01*
X345422D01*
Y299194D01*
X345496D01*
Y299343D01*
X345571D01*
Y299493D01*
X345646D01*
Y299717D01*
X345721D01*
Y299867D01*
X345795D01*
Y300016D01*
X345870D01*
Y300166D01*
X345945D01*
Y300240D01*
X346020D01*
Y300091D01*
X345945D01*
Y299867D01*
X345870D01*
Y299717D01*
X345795D01*
Y299568D01*
X345721D01*
Y299418D01*
X345646D01*
Y299269D01*
X345571D01*
Y299119D01*
X345496D01*
Y298970D01*
X345422D01*
Y298820D01*
X345347D01*
Y298670D01*
X345272D01*
Y298446D01*
X345197D01*
Y298297D01*
X345123D01*
Y298072D01*
X345048D01*
Y297848D01*
X344973D01*
Y297698D01*
X344898D01*
Y297474D01*
X344824D01*
Y297325D01*
X344749D01*
Y297100D01*
X344674D01*
Y296951D01*
X344599D01*
Y296727D01*
X344525D01*
Y296502D01*
X344450D01*
Y296278D01*
X344375D01*
Y296054D01*
X344525D01*
Y296203D01*
X344599D01*
Y296278D01*
X344674D01*
Y296353D01*
X344749D01*
Y296427D01*
X344824D01*
Y296502D01*
X344898D01*
Y296577D01*
X344973D01*
Y296652D01*
X345048D01*
Y296727D01*
X345123D01*
Y296801D01*
X345197D01*
Y296876D01*
X345272D01*
Y296951D01*
X345347D01*
Y297026D01*
X345422D01*
Y297100D01*
X345496D01*
Y297175D01*
X345571D01*
Y297325D01*
X345646D01*
Y297399D01*
X345721D01*
Y297474D01*
X345795D01*
Y297549D01*
X345870D01*
Y297624D01*
X345945D01*
Y297698D01*
X346020D01*
Y297848D01*
X346094D01*
Y297923D01*
X346169D01*
Y297997D01*
X346244D01*
Y298072D01*
X346319D01*
Y298147D01*
X346394D01*
Y298222D01*
X346468D01*
Y298371D01*
X346543D01*
Y298446D01*
X346618D01*
Y298521D01*
X346693D01*
Y298596D01*
X346767D01*
Y298670D01*
X346842D01*
Y298820D01*
X346917D01*
Y298895D01*
X346992D01*
Y298970D01*
X347066D01*
Y299044D01*
X347141D01*
Y299119D01*
X347216D01*
Y299269D01*
X347291D01*
Y299343D01*
X347365D01*
Y299418D01*
X347291D01*
Y299941D01*
X347365D01*
Y299867D01*
X347440D01*
Y298970D01*
X347515D01*
Y298596D01*
X347590D01*
Y298147D01*
X347665D01*
Y297773D01*
X347739D01*
Y297399D01*
X347814D01*
Y297026D01*
X347889D01*
Y296652D01*
X347964D01*
Y296427D01*
X348038D01*
Y296203D01*
X348113D01*
Y295979D01*
X348188D01*
Y295680D01*
X348263D01*
Y295381D01*
X348338D01*
Y295231D01*
X348412D01*
Y295007D01*
X348487D01*
Y294783D01*
X348562D01*
Y294558D01*
X348637D01*
Y294409D01*
X348711D01*
Y294185D01*
X348786D01*
Y294035D01*
X348861D01*
Y294259D01*
X348936D01*
Y294783D01*
X349010D01*
Y295231D01*
X349085D01*
Y295680D01*
X349160D01*
Y296128D01*
X349235D01*
Y296577D01*
X349309D01*
Y296951D01*
X349384D01*
Y297399D01*
X349459D01*
Y297923D01*
X349534D01*
Y298297D01*
X349608D01*
Y298670D01*
X349534D01*
Y298820D01*
X349608D01*
Y298745D01*
X349683D01*
Y298596D01*
X349758D01*
Y298446D01*
X349833D01*
Y298371D01*
X349907D01*
Y298222D01*
X349982D01*
Y298147D01*
X350057D01*
Y297997D01*
X350132D01*
Y297848D01*
X350207D01*
Y297773D01*
X350281D01*
Y297624D01*
X350356D01*
Y297549D01*
X350431D01*
Y297399D01*
X350506D01*
Y297325D01*
X350580D01*
Y297250D01*
X350655D01*
Y297100D01*
X350805D01*
Y297175D01*
X350730D01*
Y298446D01*
X350805D01*
Y298371D01*
X350879D01*
Y298297D01*
X350954D01*
Y298222D01*
X351029D01*
Y298072D01*
X351104D01*
Y297997D01*
X351253D01*
Y297848D01*
X351328D01*
Y297773D01*
X351478D01*
Y297698D01*
X351552D01*
Y297624D01*
X351627D01*
Y297549D01*
X351702D01*
Y297474D01*
X351777D01*
Y297399D01*
X351926D01*
Y297325D01*
X352001D01*
Y297250D01*
X352076D01*
Y297175D01*
X352150D01*
Y297100D01*
X352225D01*
Y297026D01*
X352300D01*
Y296951D01*
X352375D01*
Y296876D01*
X352449D01*
Y296801D01*
X352524D01*
Y296727D01*
X352599D01*
Y296652D01*
X352748D01*
Y296577D01*
X352823D01*
Y296502D01*
X352898D01*
Y296427D01*
X352973D01*
Y296353D01*
X353048D01*
Y296278D01*
X353122D01*
Y296203D01*
X353197D01*
Y296128D01*
X353272D01*
Y296054D01*
X353347D01*
Y295979D01*
X353421D01*
Y295904D01*
X353496D01*
Y295829D01*
X353571D01*
Y295755D01*
X353720D01*
Y295680D01*
X353795D01*
Y295530D01*
X353870D01*
Y295456D01*
X353945D01*
Y295680D01*
X353870D01*
Y295904D01*
X353795D01*
Y296128D01*
X353720D01*
Y296353D01*
X353646D01*
Y296577D01*
X353571D01*
Y296727D01*
X353496D01*
Y296951D01*
X353421D01*
Y297100D01*
X353347D01*
Y297325D01*
X353272D01*
Y297549D01*
X353197D01*
Y297773D01*
X353122D01*
Y297997D01*
X353048D01*
Y298147D01*
X352973D01*
Y298446D01*
X352898D01*
Y298596D01*
X352823D01*
Y298670D01*
X352973D01*
Y298596D01*
X353048D01*
Y298521D01*
X353122D01*
Y298446D01*
X353197D01*
Y298371D01*
X353272D01*
Y298297D01*
X353347D01*
Y298222D01*
X353421D01*
Y298147D01*
X353496D01*
Y298297D01*
X353421D01*
Y298521D01*
X353347D01*
Y298670D01*
X353272D01*
Y298820D01*
X353197D01*
Y298970D01*
X353122D01*
Y299194D01*
X353048D01*
Y299418D01*
X352973D01*
Y299568D01*
X352898D01*
Y299792D01*
X352823D01*
Y299941D01*
X352748D01*
Y300091D01*
X352674D01*
Y300315D01*
X352599D01*
Y300539D01*
X352674D01*
Y300390D01*
X352748D01*
Y300315D01*
X352823D01*
Y300240D01*
X352973D01*
Y300166D01*
X353048D01*
Y300091D01*
X353197D01*
Y300016D01*
X353272D01*
Y299941D01*
X353421D01*
Y299867D01*
X353496D01*
Y299792D01*
X353646D01*
Y299717D01*
X353795D01*
Y299642D01*
X353945D01*
Y299568D01*
X354019D01*
Y299493D01*
X354169D01*
Y299418D01*
X354244D01*
Y299343D01*
X354393D01*
Y299269D01*
X354543D01*
Y299194D01*
X354692D01*
Y299119D01*
X354767D01*
Y299044D01*
X354917D01*
Y298970D01*
X355066D01*
Y298895D01*
X355141D01*
Y298820D01*
X355216D01*
Y298745D01*
X355365D01*
Y298670D01*
X355515D01*
Y298596D01*
X355664D01*
Y298521D01*
X355739D01*
Y298446D01*
X355889D01*
Y298371D01*
X356038D01*
Y298297D01*
X356188D01*
Y298222D01*
X356337D01*
Y298147D01*
X356487D01*
Y298072D01*
X356636D01*
Y297997D01*
X356786D01*
Y297923D01*
X356860D01*
Y297848D01*
X357010D01*
Y297773D01*
X357160D01*
Y297698D01*
X357309D01*
Y297773D01*
X357234D01*
Y297848D01*
X357160D01*
Y297997D01*
X357085D01*
Y298072D01*
X357010D01*
Y298147D01*
X356935D01*
Y298297D01*
X356860D01*
Y298371D01*
X356786D01*
Y298521D01*
X356711D01*
Y298596D01*
X356636D01*
Y298670D01*
X356561D01*
Y298820D01*
X356487D01*
Y298970D01*
X356412D01*
Y299044D01*
X356337D01*
Y299194D01*
X356262D01*
Y299269D01*
X356188D01*
Y299418D01*
X356113D01*
Y299493D01*
X356038D01*
Y299568D01*
X355963D01*
Y299717D01*
X355889D01*
Y299792D01*
X355814D01*
Y299941D01*
X355739D01*
Y300016D01*
X355664D01*
Y300166D01*
X355590D01*
Y300240D01*
X355515D01*
Y300315D01*
X355440D01*
Y300465D01*
X355365D01*
Y300539D01*
X355291D01*
Y300689D01*
X355216D01*
Y300764D01*
X355141D01*
Y300913D01*
X355066D01*
Y300988D01*
X354991D01*
Y301063D01*
X354917D01*
Y301212D01*
X354842D01*
Y301362D01*
X354917D01*
Y301287D01*
X354991D01*
Y301138D01*
X355066D01*
Y301063D01*
X355216D01*
Y300988D01*
X355515D01*
Y300913D01*
X355814D01*
Y300839D01*
X356188D01*
Y300764D01*
X356412D01*
Y300689D01*
X356561D01*
Y300764D01*
X356487D01*
Y300839D01*
X356412D01*
Y300913D01*
X356337D01*
Y301063D01*
X356262D01*
Y301138D01*
X356188D01*
Y301212D01*
X356113D01*
Y301287D01*
X356038D01*
Y301437D01*
X355963D01*
Y301511D01*
X355889D01*
Y301586D01*
X355814D01*
Y301661D01*
X355739D01*
Y301736D01*
X355664D01*
Y301885D01*
X355590D01*
Y301960D01*
X355515D01*
Y302035D01*
X355440D01*
Y302110D01*
X355365D01*
Y302184D01*
X355291D01*
Y302334D01*
X355365D01*
Y302259D01*
X355515D01*
Y302334D01*
X355963D01*
Y302409D01*
X356188D01*
Y302558D01*
X356038D01*
Y302633D01*
X355889D01*
Y302708D01*
X355739D01*
Y302782D01*
X355590D01*
Y302857D01*
X355515D01*
Y302932D01*
X355365D01*
Y303007D01*
X355216D01*
Y303081D01*
X355141D01*
Y303156D01*
X355066D01*
Y303231D01*
X355216D01*
Y303156D01*
X355291D01*
Y303081D01*
X355440D01*
Y303007D01*
X355590D01*
Y302932D01*
X356337D01*
Y303007D01*
X357010D01*
Y303081D01*
X357683D01*
Y303156D01*
X358206D01*
Y303231D01*
X359253D01*
Y303306D01*
X359776D01*
Y303380D01*
X360225D01*
Y303455D01*
X360898D01*
Y303605D01*
X360673D01*
Y303680D01*
X360449D01*
Y303754D01*
X360225D01*
Y303829D01*
X359926D01*
Y303904D01*
X359627D01*
Y303979D01*
X359328D01*
Y304053D01*
X359029D01*
Y304128D01*
X358730D01*
Y304203D01*
X358431D01*
Y304278D01*
X358057D01*
Y304352D01*
X357683D01*
Y304427D01*
X357384D01*
Y304502D01*
X357010D01*
Y304577D01*
X356935D01*
Y304651D01*
X357234D01*
Y304726D01*
X357309D01*
Y304801D01*
X357459D01*
Y304876D01*
X357533D01*
Y304951D01*
X357683D01*
Y305025D01*
X357833D01*
Y305100D01*
X357982D01*
Y305175D01*
X358057D01*
Y305250D01*
X357833D01*
Y305175D01*
X357234D01*
Y305100D01*
X356786D01*
Y305025D01*
X356262D01*
Y304951D01*
X355664D01*
Y305025D01*
X355963D01*
Y305100D01*
X356412D01*
Y305175D01*
X356711D01*
Y305250D01*
X356786D01*
Y305324D01*
X356860D01*
Y305399D01*
X357010D01*
Y305474D01*
X357085D01*
Y305549D01*
X357234D01*
Y305624D01*
X357309D01*
Y305698D01*
X357459D01*
Y305773D01*
X357533D01*
Y305848D01*
X357683D01*
Y305923D01*
X357758D01*
Y305997D01*
X357907D01*
Y306072D01*
X357982D01*
Y306147D01*
X358132D01*
Y306222D01*
X358206D01*
Y306296D01*
X358356D01*
Y306371D01*
X358505D01*
Y306446D01*
X358580D01*
Y306521D01*
X358730D01*
Y306595D01*
X358804D01*
Y306670D01*
X358954D01*
Y306745D01*
X359103D01*
Y306820D01*
X359178D01*
Y306894D01*
X359328D01*
Y306969D01*
X359402D01*
Y307044D01*
X359552D01*
Y307119D01*
X359627D01*
Y307193D01*
X359776D01*
Y307268D01*
X359851D01*
Y307343D01*
X359926D01*
Y307492D01*
X359851D01*
Y307418D01*
X359402D01*
Y307343D01*
X358954D01*
Y307268D01*
X358580D01*
Y307193D01*
X358206D01*
Y307119D01*
X357833D01*
Y307044D01*
X357384D01*
Y306969D01*
X357085D01*
Y306894D01*
X356711D01*
Y306820D01*
X356262D01*
Y306745D01*
X355889D01*
Y306670D01*
X355515D01*
Y306595D01*
X355216D01*
Y306521D01*
X354917D01*
Y306446D01*
X354543D01*
Y306371D01*
X354319D01*
Y306296D01*
X354094D01*
Y306446D01*
X354244D01*
Y306521D01*
X354319D01*
Y306670D01*
X354393D01*
Y306820D01*
X354468D01*
Y306969D01*
X354393D01*
Y306894D01*
X354244D01*
Y306820D01*
X354094D01*
Y306745D01*
X353945D01*
Y306670D01*
X353795D01*
Y306595D01*
X353646D01*
Y306521D01*
X353496D01*
Y306446D01*
X353347D01*
Y306371D01*
X353272D01*
Y306296D01*
X353347D01*
Y306222D01*
X353496D01*
Y306147D01*
X353571D01*
Y306072D01*
X353646D01*
Y305997D01*
X353720D01*
Y305923D01*
X353870D01*
Y305848D01*
X353945D01*
Y305698D01*
X352225D01*
Y305549D01*
X352375D01*
Y305399D01*
X352449D01*
Y305324D01*
X352524D01*
Y305250D01*
X352599D01*
Y305175D01*
X352674D01*
Y305100D01*
X352748D01*
Y305025D01*
X352823D01*
Y304951D01*
X352898D01*
Y304801D01*
X352973D01*
Y304726D01*
X352898D01*
Y304651D01*
X352748D01*
Y304577D01*
X352898D01*
Y304502D01*
X353048D01*
Y304427D01*
X353197D01*
Y304352D01*
X353272D01*
Y304278D01*
X353421D01*
Y304203D01*
X353347D01*
Y304128D01*
X352748D01*
Y304203D01*
X351851D01*
Y304278D01*
X350730D01*
Y304352D01*
X350655D01*
Y304203D01*
X350730D01*
Y304128D01*
X350805D01*
Y304053D01*
X350879D01*
Y303979D01*
X350954D01*
Y303829D01*
X351029D01*
Y303754D01*
X350730D01*
Y303829D01*
X350356D01*
Y303904D01*
X350207D01*
Y303754D01*
X350281D01*
Y303530D01*
X350356D01*
Y303306D01*
X350431D01*
Y303156D01*
X350506D01*
Y302932D01*
X350580D01*
Y302558D01*
X350506D01*
Y302633D01*
X350207D01*
Y302708D01*
X349982D01*
Y302782D01*
X349758D01*
Y302857D01*
X349534D01*
Y302932D01*
X349309D01*
Y303007D01*
X349160D01*
Y303081D01*
X349085D01*
Y303007D01*
X349160D01*
Y302708D01*
X349235D01*
Y302558D01*
X349160D01*
Y302483D01*
X349010D01*
Y302558D01*
X348936D01*
Y302633D01*
X348786D01*
Y302708D01*
X348637D01*
Y302782D01*
X348562D01*
Y302857D01*
X348412D01*
Y302932D01*
X348338D01*
Y302558D01*
X348412D01*
Y302184D01*
X348487D01*
Y301811D01*
X348562D01*
Y301437D01*
X348412D01*
Y301511D01*
X348263D01*
Y301586D01*
X348188D01*
Y301661D01*
X348113D01*
Y301736D01*
X348038D01*
Y301811D01*
X347964D01*
Y301885D01*
X347889D01*
Y301960D01*
X347814D01*
Y302035D01*
X347739D01*
Y302110D01*
X347665D01*
Y302184D01*
X347590D01*
Y302259D01*
X347515D01*
Y302334D01*
X347440D01*
Y302409D01*
X347365D01*
Y302483D01*
X347216D01*
Y302334D01*
X347141D01*
Y302110D01*
X347066D01*
Y301885D01*
X346992D01*
Y301661D01*
X346842D01*
Y301736D01*
X346767D01*
Y301885D01*
X346693D01*
Y302035D01*
X346618D01*
Y302184D01*
X346543D01*
Y302334D01*
X346468D01*
Y302633D01*
X346394D01*
Y302932D01*
X346319D01*
Y303081D01*
X346020D01*
Y303156D01*
X345721D01*
Y303081D01*
X345571D01*
Y303156D01*
X345646D01*
Y303306D01*
X345422D01*
Y303380D01*
X345272D01*
Y303455D01*
X345048D01*
Y303530D01*
X344898D01*
Y303605D01*
X344824D01*
Y303680D01*
X344599D01*
Y303754D01*
X344450D01*
Y303829D01*
X344375D01*
Y303904D01*
X344226D01*
Y303979D01*
X344151D01*
Y304053D01*
X344076D01*
Y304128D01*
X344001D01*
Y304203D01*
X343852D01*
Y304278D01*
X343777D01*
Y304352D01*
X343702D01*
Y304427D01*
X343627D01*
Y304502D01*
X343553D01*
Y304577D01*
X343478D01*
Y304651D01*
X343403D01*
Y304801D01*
X343328D01*
Y304876D01*
X343253D01*
Y305025D01*
X343179D01*
Y305100D01*
X343104D01*
Y305324D01*
X343029D01*
Y305399D01*
X342954D01*
Y305549D01*
X342805D01*
Y305624D01*
X342730D01*
Y305698D01*
X342655D01*
Y305773D01*
X342581D01*
Y305848D01*
X342506D01*
Y305997D01*
X342431D01*
Y306147D01*
X342356D01*
Y306296D01*
X342282D01*
Y306446D01*
X342207D01*
Y306670D01*
X342132D01*
Y307119D01*
X342207D01*
Y307268D01*
X342282D01*
Y307418D01*
X342356D01*
Y307492D01*
X342431D01*
Y307567D01*
X342506D01*
Y307642D01*
X342655D01*
Y307717D01*
X342805D01*
Y307792D01*
X342954D01*
Y307866D01*
X343179D01*
Y307941D01*
X343403D01*
Y308016D01*
X343627D01*
Y308091D01*
X343702D01*
Y308240D01*
X343777D01*
Y308390D01*
X343852D01*
Y308539D01*
X343926D01*
Y308689D01*
X344001D01*
Y308764D01*
X344076D01*
Y308913D01*
X344151D01*
Y309063D01*
X344226D01*
Y309212D01*
X344300D01*
Y309287D01*
X344375D01*
Y309362D01*
X344450D01*
Y309511D01*
X344525D01*
Y309586D01*
X344599D01*
Y309661D01*
X344674D01*
Y309735D01*
X344749D01*
Y309810D01*
X344824D01*
Y309885D01*
X344898D01*
Y309960D01*
X344973D01*
Y310034D01*
X345048D01*
Y310109D01*
X345272D01*
Y310034D01*
X345197D01*
Y309960D01*
X345123D01*
Y309885D01*
X344973D01*
Y309810D01*
X344898D01*
Y309735D01*
X344824D01*
Y309661D01*
X344749D01*
Y309586D01*
X344674D01*
Y309436D01*
X344599D01*
Y309362D01*
X344525D01*
Y309212D01*
X344450D01*
Y309137D01*
X344375D01*
Y308988D01*
X344300D01*
Y308913D01*
X344226D01*
Y308764D01*
X344151D01*
Y308689D01*
X344076D01*
Y308539D01*
X344001D01*
Y308465D01*
X343926D01*
Y308315D01*
X343852D01*
Y308165D01*
X343777D01*
Y308016D01*
X343702D01*
Y307941D01*
X343478D01*
Y307866D01*
X343253D01*
Y307792D01*
X343104D01*
Y307717D01*
X342954D01*
Y307642D01*
X342805D01*
Y307567D01*
X342655D01*
Y307492D01*
X342506D01*
Y307343D01*
X342431D01*
Y307268D01*
X342356D01*
Y307193D01*
X342282D01*
Y306745D01*
X342356D01*
Y306371D01*
X342431D01*
Y306222D01*
X342506D01*
Y306072D01*
X342581D01*
Y305923D01*
X342655D01*
Y305848D01*
X342730D01*
Y305773D01*
X342880D01*
Y305698D01*
X342954D01*
Y305624D01*
X343029D01*
Y305848D01*
X343253D01*
Y305773D01*
X343328D01*
Y305698D01*
X343403D01*
Y305624D01*
X343478D01*
Y305549D01*
X343627D01*
Y305474D01*
X343702D01*
Y305399D01*
X343852D01*
Y305324D01*
X344001D01*
Y305250D01*
X344151D01*
Y305175D01*
X344300D01*
Y305100D01*
X344450D01*
Y305025D01*
X344674D01*
Y304951D01*
X345646D01*
Y305025D01*
X346020D01*
Y304951D01*
X345945D01*
Y304876D01*
X345646D01*
Y304801D01*
X344599D01*
Y304876D01*
X344375D01*
Y304951D01*
X344226D01*
Y305025D01*
X344076D01*
Y305100D01*
X343926D01*
Y305175D01*
X343852D01*
Y305250D01*
X343702D01*
Y305324D01*
X343553D01*
Y305399D01*
X343478D01*
Y305474D01*
X343403D01*
Y305549D01*
X343253D01*
Y305624D01*
X343179D01*
Y305549D01*
X343104D01*
Y305399D01*
X343179D01*
Y305250D01*
X343253D01*
Y305175D01*
X343328D01*
Y305025D01*
X343403D01*
Y304876D01*
X343478D01*
Y304801D01*
X343553D01*
Y304726D01*
X343627D01*
Y304651D01*
X343702D01*
Y304577D01*
X343777D01*
Y304502D01*
X343852D01*
Y304427D01*
X343926D01*
Y304352D01*
X344076D01*
Y304278D01*
X344151D01*
Y304203D01*
X344226D01*
Y304128D01*
X344300D01*
Y304053D01*
X344375D01*
Y303979D01*
X344525D01*
Y303904D01*
X344674D01*
Y303829D01*
X344824D01*
Y303754D01*
X344973D01*
Y303680D01*
X345123D01*
Y303605D01*
X345197D01*
Y303530D01*
X345422D01*
Y303455D01*
X345721D01*
Y303380D01*
X345945D01*
Y303306D01*
X346169D01*
Y303231D01*
X346394D01*
Y303156D01*
X346543D01*
Y303081D01*
X346693D01*
Y303007D01*
X346767D01*
Y302932D01*
X346618D01*
Y303007D01*
X346543D01*
Y302782D01*
X346618D01*
Y302409D01*
X346693D01*
Y302259D01*
X346767D01*
Y302110D01*
X346842D01*
Y301885D01*
X346917D01*
Y302110D01*
X346992D01*
Y302334D01*
X347066D01*
Y302483D01*
X347141D01*
Y302633D01*
X347216D01*
Y302782D01*
X347365D01*
Y302633D01*
X347440D01*
Y302558D01*
X347515D01*
Y302483D01*
X347590D01*
Y302409D01*
X347665D01*
Y302334D01*
X347739D01*
Y302259D01*
X347814D01*
Y302184D01*
X347889D01*
Y302110D01*
X347964D01*
Y302035D01*
X348038D01*
Y301960D01*
X348113D01*
Y301885D01*
X348188D01*
Y301811D01*
X348263D01*
Y301736D01*
X348338D01*
Y302184D01*
X348263D01*
Y302633D01*
X348188D01*
Y303081D01*
X348113D01*
Y303231D01*
X348188D01*
Y303306D01*
X348263D01*
Y303231D01*
X348338D01*
Y303081D01*
X348562D01*
Y303007D01*
X348637D01*
Y302932D01*
X348786D01*
Y302857D01*
X348936D01*
Y302782D01*
X349010D01*
Y302708D01*
X349085D01*
Y302782D01*
X349010D01*
Y303007D01*
X348936D01*
Y303306D01*
X349085D01*
Y303231D01*
X349235D01*
Y303156D01*
X349384D01*
Y303081D01*
X349608D01*
Y303007D01*
X349758D01*
Y302932D01*
X349982D01*
Y302857D01*
X350207D01*
Y302782D01*
X350431D01*
Y302857D01*
X350356D01*
Y303081D01*
X350281D01*
Y303231D01*
X350207D01*
Y303455D01*
X350132D01*
Y303680D01*
X350057D01*
Y303979D01*
X349982D01*
Y304203D01*
X350057D01*
Y304128D01*
X350207D01*
Y304053D01*
X350431D01*
Y303979D01*
X350655D01*
Y303904D01*
X350730D01*
Y303979D01*
X350655D01*
Y304128D01*
X350580D01*
Y304203D01*
X350506D01*
Y304278D01*
X350431D01*
Y304502D01*
X350954D01*
Y304427D01*
X351926D01*
Y304352D01*
X352524D01*
Y304278D01*
X352674D01*
Y304352D01*
X352898D01*
Y304427D01*
X352748D01*
Y304502D01*
X352599D01*
Y304577D01*
X352449D01*
Y304651D01*
X352300D01*
Y304726D01*
X352225D01*
Y304801D01*
X352150D01*
Y304876D01*
X352300D01*
Y304801D01*
X352375D01*
Y304876D01*
X352449D01*
Y304801D01*
X352748D01*
Y304876D01*
X352674D01*
Y304951D01*
X352599D01*
Y305025D01*
X352524D01*
Y305100D01*
X352449D01*
Y305175D01*
X352375D01*
Y305250D01*
X352300D01*
Y305399D01*
X352225D01*
Y305474D01*
X352150D01*
Y305549D01*
X352076D01*
Y305624D01*
X352001D01*
Y305698D01*
X351851D01*
Y305773D01*
X351627D01*
Y305923D01*
X352001D01*
Y305848D01*
X353646D01*
Y305923D01*
X353496D01*
Y305997D01*
X353421D01*
Y306072D01*
X353347D01*
Y306147D01*
X353197D01*
Y306222D01*
X353122D01*
Y306296D01*
X353048D01*
Y306371D01*
X352973D01*
Y306446D01*
X352823D01*
Y306521D01*
X352748D01*
Y306595D01*
X352599D01*
Y306670D01*
X352524D01*
Y306745D01*
X352449D01*
Y306820D01*
X352375D01*
Y306894D01*
X352599D01*
Y306969D01*
X352898D01*
Y307044D01*
X352973D01*
Y307119D01*
X352823D01*
Y307193D01*
X352748D01*
Y307268D01*
X352674D01*
Y307343D01*
X352524D01*
Y307418D01*
X352449D01*
Y307492D01*
X352375D01*
Y307567D01*
X352225D01*
Y307642D01*
X352150D01*
Y307717D01*
X352076D01*
Y307792D01*
X351926D01*
Y307866D01*
X351552D01*
Y307941D01*
X350730D01*
Y308016D01*
X350506D01*
Y308165D01*
X350730D01*
Y308091D01*
X351552D01*
Y308016D01*
X353272D01*
Y308091D01*
X353122D01*
Y308165D01*
X352973D01*
Y308240D01*
X352748D01*
Y308315D01*
X352225D01*
Y308390D01*
X352599D01*
Y308465D01*
X353122D01*
Y308539D01*
X353646D01*
Y308614D01*
X354094D01*
Y308689D01*
X354543D01*
Y308764D01*
X354842D01*
Y308838D01*
X355216D01*
Y308913D01*
X355440D01*
Y308988D01*
X355739D01*
Y309063D01*
X355963D01*
Y309137D01*
X356262D01*
Y309212D01*
X356561D01*
Y309287D01*
X356786D01*
Y309362D01*
X357160D01*
Y309436D01*
X357384D01*
Y309511D01*
X357608D01*
Y309586D01*
X357833D01*
Y309661D01*
X358057D01*
Y309735D01*
X358281D01*
Y309810D01*
X358505D01*
Y309885D01*
X358655D01*
Y309960D01*
X358879D01*
Y310034D01*
X359029D01*
Y310109D01*
X359253D01*
Y310184D01*
X359328D01*
Y310259D01*
X359029D01*
Y310334D01*
X358505D01*
Y310408D01*
X358132D01*
Y310334D01*
X358057D01*
Y310259D01*
X357982D01*
Y310408D01*
X358057D01*
Y310483D01*
X358132D01*
Y310558D01*
X358206D01*
Y310633D01*
X358281D01*
Y310707D01*
X358356D01*
Y310782D01*
X358431D01*
Y310857D01*
X358505D01*
Y310932D01*
X358580D01*
Y311006D01*
X358655D01*
Y311081D01*
X358804D01*
Y311156D01*
X358879D01*
Y311231D01*
X358954D01*
Y311305D01*
X359029D01*
Y311380D01*
X359103D01*
Y311455D01*
X359178D01*
Y311530D01*
X359253D01*
Y311605D01*
X359328D01*
Y311679D01*
X359402D01*
Y311754D01*
X359477D01*
Y311829D01*
X359552D01*
Y311904D01*
X359627D01*
Y311978D01*
X359702D01*
Y312053D01*
X359776D01*
Y312128D01*
X359851D01*
Y312203D01*
X359926D01*
Y312277D01*
X360001D01*
Y312352D01*
X360075D01*
Y312427D01*
X360150D01*
Y312502D01*
X360225D01*
Y312577D01*
X360300D01*
Y312651D01*
X360374D01*
Y312726D01*
X360449D01*
Y312801D01*
X360524D01*
Y312876D01*
X360599D01*
Y312950D01*
X360673D01*
Y313025D01*
X360748D01*
Y313100D01*
X360823D01*
Y313175D01*
X360898D01*
Y313249D01*
X360973D01*
Y313324D01*
X361047D01*
Y313399D01*
X361122D01*
Y313474D01*
X361197D01*
Y313548D01*
X361272D01*
Y313623D01*
X361346D01*
Y313698D01*
X361421D01*
Y313773D01*
X361496D01*
Y313847D01*
X361571D01*
Y313922D01*
X361645D01*
Y313997D01*
X361720D01*
Y314072D01*
X361795D01*
Y314146D01*
X361870D01*
Y314296D01*
X361421D01*
Y314221D01*
X360973D01*
Y314146D01*
X360225D01*
Y314072D01*
X359627D01*
Y313997D01*
X359103D01*
Y313922D01*
X358580D01*
Y313847D01*
X358132D01*
Y313773D01*
X357833D01*
Y313698D01*
X357533D01*
Y313623D01*
X357234D01*
Y313548D01*
X356860D01*
Y313474D01*
X356561D01*
Y313399D01*
X356188D01*
Y313324D01*
X355963D01*
Y313249D01*
X355664D01*
Y313175D01*
X355365D01*
Y313100D01*
X355066D01*
Y313025D01*
X354842D01*
Y312950D01*
X354543D01*
Y312876D01*
X354319D01*
Y312801D01*
X354019D01*
Y312726D01*
X353720D01*
Y312651D01*
X353421D01*
Y312577D01*
X353122D01*
Y312502D01*
X352973D01*
Y312427D01*
X352823D01*
Y312352D01*
X352674D01*
Y312277D01*
X352524D01*
Y312203D01*
X352449D01*
Y312128D01*
X352300D01*
Y312053D01*
X352225D01*
Y311978D01*
X352076D01*
Y311904D01*
X352001D01*
Y311829D01*
X351926D01*
Y311754D01*
X351777D01*
Y311679D01*
X351702D01*
Y311605D01*
X351627D01*
Y311530D01*
X351552D01*
Y311455D01*
X351403D01*
Y311380D01*
X351328D01*
Y311305D01*
X351253D01*
Y311231D01*
X351179D01*
Y311156D01*
X351104D01*
Y311081D01*
X350954D01*
Y311006D01*
X350879D01*
Y310932D01*
X350805D01*
Y310857D01*
X350730D01*
Y310782D01*
X350655D01*
Y310707D01*
X350580D01*
Y310633D01*
X350506D01*
Y310558D01*
X350356D01*
Y310483D01*
X350281D01*
Y310408D01*
X350207D01*
Y310334D01*
X350132D01*
Y310259D01*
X350057D01*
Y310184D01*
X349982D01*
Y310109D01*
X349907D01*
Y310034D01*
X349833D01*
Y309960D01*
X349758D01*
Y309885D01*
X349683D01*
Y309810D01*
X349608D01*
Y309735D01*
X349534D01*
Y309661D01*
X349459D01*
Y309586D01*
X349384D01*
Y309436D01*
X349235D01*
Y309586D01*
X349309D01*
Y309661D01*
X349384D01*
Y309735D01*
X349459D01*
Y309810D01*
X349534D01*
Y309885D01*
X349608D01*
Y309960D01*
X349683D01*
Y310034D01*
X349758D01*
Y310184D01*
X349833D01*
Y310259D01*
X349907D01*
Y310334D01*
X349982D01*
Y310408D01*
X350057D01*
Y310483D01*
X350132D01*
Y310558D01*
X349982D01*
Y310483D01*
X349683D01*
Y310558D01*
X349459D01*
Y310483D01*
X349309D01*
Y310558D01*
X349235D01*
Y310633D01*
X349459D01*
Y310707D01*
X349534D01*
Y310782D01*
X349608D01*
Y310857D01*
X349683D01*
Y310932D01*
X349758D01*
Y311081D01*
X349833D01*
Y311156D01*
X349907D01*
Y311231D01*
X349683D01*
Y311156D01*
X349384D01*
Y311081D01*
X349235D01*
Y310932D01*
X349085D01*
Y311081D01*
X349160D01*
Y311231D01*
X349235D01*
Y311380D01*
X349309D01*
Y311455D01*
X349384D01*
Y311605D01*
X349459D01*
Y311679D01*
X349534D01*
Y311829D01*
X349608D01*
Y311904D01*
X349683D01*
Y312053D01*
X349758D01*
Y312128D01*
X349833D01*
Y312277D01*
X349907D01*
Y312427D01*
X349982D01*
Y312502D01*
X349833D01*
Y312427D01*
X349683D01*
Y312352D01*
X349608D01*
Y312277D01*
X349459D01*
Y312203D01*
X349384D01*
Y312128D01*
X349235D01*
Y312053D01*
X349160D01*
Y311978D01*
X349010D01*
Y311904D01*
X348936D01*
Y311829D01*
X348861D01*
Y311754D01*
X348711D01*
Y311679D01*
X348637D01*
Y311605D01*
X348562D01*
Y311530D01*
X348412D01*
Y311455D01*
X348338D01*
Y311380D01*
X348263D01*
Y311305D01*
X348113D01*
Y311231D01*
X348038D01*
Y311156D01*
X347964D01*
Y311081D01*
X347814D01*
Y311006D01*
X347739D01*
Y310932D01*
X347665D01*
Y310857D01*
X347515D01*
Y310782D01*
X347440D01*
Y310707D01*
X347365D01*
Y310633D01*
X347216D01*
Y310558D01*
X347141D01*
Y310483D01*
X347066D01*
Y310408D01*
X346992D01*
Y310334D01*
X346917D01*
Y310259D01*
X346693D01*
Y310334D01*
X346244D01*
Y310259D01*
X345870D01*
Y310184D01*
X345571D01*
Y310109D01*
X345272D01*
Y310184D01*
X345422D01*
Y310259D01*
X345795D01*
Y310334D01*
X346169D01*
Y310408D01*
X346767D01*
Y310483D01*
X346842D01*
Y310558D01*
X346917D01*
Y310707D01*
X346992D01*
Y310857D01*
X347066D01*
Y311006D01*
X347141D01*
Y311156D01*
X347216D01*
Y311305D01*
X347291D01*
Y311455D01*
X347365D01*
Y311530D01*
X347440D01*
Y311679D01*
X347515D01*
Y311754D01*
X347590D01*
Y311904D01*
X347665D01*
Y311978D01*
X347739D01*
Y312053D01*
X347814D01*
Y312203D01*
X347889D01*
Y312352D01*
X347964D01*
Y312427D01*
X348038D01*
Y312502D01*
X348113D01*
Y312651D01*
X348188D01*
Y312726D01*
X348263D01*
Y312876D01*
X348338D01*
Y312950D01*
X348412D01*
Y313025D01*
X348487D01*
Y313100D01*
X348562D01*
Y313249D01*
X348637D01*
Y313324D01*
X348711D01*
Y313399D01*
X348786D01*
Y313474D01*
X348861D01*
Y313548D01*
X348936D01*
Y313698D01*
X349010D01*
Y313773D01*
X349085D01*
Y313847D01*
X349160D01*
Y313997D01*
X349235D01*
Y314072D01*
X349309D01*
Y314146D01*
X349384D01*
Y314221D01*
X349534D01*
Y314296D01*
X349608D01*
Y314371D01*
X349758D01*
Y314446D01*
X349833D01*
Y314520D01*
X349982D01*
Y314595D01*
X350057D01*
Y314670D01*
X350207D01*
Y314745D01*
X350281D01*
Y314819D01*
X350431D01*
Y314894D01*
X350580D01*
Y314969D01*
X350655D01*
Y315044D01*
X350805D01*
Y315119D01*
X350879D01*
Y315193D01*
X351029D01*
Y315268D01*
X351179D01*
Y315343D01*
X351328D01*
Y315418D01*
X351478D01*
Y315492D01*
X351627D01*
Y315567D01*
X351702D01*
Y315642D01*
X351851D01*
Y315717D01*
X352001D01*
Y315791D01*
X352150D01*
Y315866D01*
X352300D01*
Y315941D01*
X352375D01*
Y316016D01*
X352524D01*
Y316090D01*
X352674D01*
Y316165D01*
X352823D01*
Y316240D01*
X352973D01*
Y316315D01*
X353122D01*
Y316389D01*
X353347D01*
Y316464D01*
X353496D01*
Y316539D01*
X353646D01*
Y316614D01*
X353795D01*
Y316688D01*
X353945D01*
Y316763D01*
X354094D01*
Y316838D01*
X354244D01*
Y316913D01*
X354393D01*
Y316988D01*
X354618D01*
Y317062D01*
X354767D01*
Y317137D01*
X354991D01*
Y317212D01*
X355216D01*
Y317287D01*
X355365D01*
Y317361D01*
X355590D01*
Y317436D01*
X355739D01*
Y317511D01*
X355963D01*
Y317586D01*
X356113D01*
Y317660D01*
X356337D01*
Y317735D01*
X356636D01*
Y317810D01*
X356860D01*
Y317885D01*
X356935D01*
Y317810D01*
D02*
G37*
G36*
X342880Y306969D02*
X343029D01*
Y306745D01*
X342880D01*
Y306670D01*
X342655D01*
Y306745D01*
X342431D01*
Y306894D01*
X342356D01*
Y307044D01*
X342880D01*
Y306969D01*
D02*
G37*
G36*
X347964Y308091D02*
X348188D01*
Y307792D01*
X348113D01*
Y307567D01*
X348038D01*
Y307418D01*
X347964D01*
Y307268D01*
X347889D01*
Y307119D01*
X347814D01*
Y307044D01*
X347739D01*
Y306820D01*
X347665D01*
Y306745D01*
X347590D01*
Y306670D01*
X347515D01*
Y306595D01*
X347440D01*
Y306521D01*
X347365D01*
Y306446D01*
X347216D01*
Y306371D01*
X346618D01*
Y306446D01*
X346319D01*
Y306521D01*
X346094D01*
Y306595D01*
X345870D01*
Y306670D01*
X345721D01*
Y306745D01*
X345571D01*
Y306820D01*
X345422D01*
Y306894D01*
X345197D01*
Y307119D01*
X345272D01*
Y307193D01*
X345347D01*
Y307343D01*
X345422D01*
Y307418D01*
X345496D01*
Y307492D01*
X345571D01*
Y307567D01*
X345646D01*
Y307642D01*
X345721D01*
Y307717D01*
X345795D01*
Y307792D01*
X345945D01*
Y307866D01*
X346094D01*
Y307941D01*
X346319D01*
Y308016D01*
X346543D01*
Y308091D01*
X346842D01*
Y308165D01*
X347964D01*
Y308091D01*
D02*
G37*
G36*
X345571Y303007D02*
X345496D01*
Y302932D01*
X345347D01*
Y303007D01*
X345422D01*
Y303081D01*
X345571D01*
Y303007D01*
D02*
G37*
G36*
X345347Y302857D02*
X345272D01*
Y302782D01*
X345197D01*
Y302708D01*
X345048D01*
Y302782D01*
X345123D01*
Y302857D01*
X345197D01*
Y302932D01*
X345347D01*
Y302857D01*
D02*
G37*
G36*
X346543Y301885D02*
X346468D01*
Y301811D01*
X346394D01*
Y301736D01*
X346319D01*
Y301661D01*
X346244D01*
Y301586D01*
X346169D01*
Y301736D01*
X346244D01*
Y301811D01*
X346319D01*
Y301885D01*
X346394D01*
Y301960D01*
X346468D01*
Y302035D01*
X346543D01*
Y301885D01*
D02*
G37*
G36*
X346394Y300839D02*
X346319D01*
Y300689D01*
X346244D01*
Y300465D01*
X346169D01*
Y300390D01*
X346094D01*
Y300240D01*
X346020D01*
Y300390D01*
X345870D01*
Y300465D01*
X346020D01*
Y300539D01*
X346094D01*
Y300614D01*
X346169D01*
Y300764D01*
X346244D01*
Y300913D01*
X346319D01*
Y300988D01*
X346394D01*
Y300839D01*
D02*
G37*
G36*
X345048Y302633D02*
X344973D01*
Y302558D01*
X344824D01*
Y302483D01*
X344749D01*
Y302409D01*
X344674D01*
Y302334D01*
X344525D01*
Y302259D01*
X344450D01*
Y302184D01*
X344375D01*
Y302110D01*
X344226D01*
Y302035D01*
X344151D01*
Y301960D01*
X344300D01*
Y302035D01*
X344898D01*
Y302110D01*
X345496D01*
Y302184D01*
X346094D01*
Y302259D01*
X346319D01*
Y302110D01*
X346169D01*
Y302035D01*
X346094D01*
Y301960D01*
X346020D01*
Y301885D01*
X345945D01*
Y301811D01*
X345870D01*
Y301736D01*
X345795D01*
Y301661D01*
X345721D01*
Y301586D01*
X345646D01*
Y301511D01*
X346020D01*
Y301586D01*
X346169D01*
Y301437D01*
X346094D01*
Y301362D01*
X346020D01*
Y301287D01*
X345945D01*
Y301212D01*
X345870D01*
Y301138D01*
X345795D01*
Y301063D01*
X345721D01*
Y300913D01*
X345646D01*
Y300839D01*
X345571D01*
Y300764D01*
X345496D01*
Y300689D01*
X345422D01*
Y300539D01*
X345347D01*
Y300465D01*
X345272D01*
Y300390D01*
X345197D01*
Y300315D01*
X345123D01*
Y300240D01*
X345048D01*
Y300091D01*
X345123D01*
Y300166D01*
X345272D01*
Y300240D01*
X345496D01*
Y300315D01*
X345646D01*
Y300390D01*
X345870D01*
Y300315D01*
X345721D01*
Y300240D01*
X345571D01*
Y300166D01*
X345347D01*
Y300091D01*
X345197D01*
Y300016D01*
X345048D01*
Y299941D01*
X344824D01*
Y300091D01*
X344898D01*
Y300240D01*
X344973D01*
Y300315D01*
X345048D01*
Y300390D01*
X345123D01*
Y300465D01*
X345197D01*
Y300614D01*
X345272D01*
Y300689D01*
X345347D01*
Y300764D01*
X345422D01*
Y300839D01*
X345496D01*
Y300913D01*
X345571D01*
Y301063D01*
X345646D01*
Y301138D01*
X345721D01*
Y301212D01*
X345795D01*
Y301287D01*
X345870D01*
Y301437D01*
X345646D01*
Y301362D01*
X345422D01*
Y301511D01*
X345496D01*
Y301586D01*
X345571D01*
Y301661D01*
X345646D01*
Y301736D01*
X345721D01*
Y301811D01*
X345795D01*
Y301885D01*
X345870D01*
Y301960D01*
X345945D01*
Y302035D01*
X345870D01*
Y302110D01*
X345795D01*
Y302035D01*
X345347D01*
Y301960D01*
X344674D01*
Y301885D01*
X343852D01*
Y301960D01*
X343926D01*
Y302035D01*
X344001D01*
Y302110D01*
X344076D01*
Y302184D01*
X344151D01*
Y302259D01*
X344300D01*
Y302334D01*
X344450D01*
Y302409D01*
X344525D01*
Y302483D01*
X344674D01*
Y302558D01*
X344749D01*
Y302633D01*
X344898D01*
Y302708D01*
X345048D01*
Y302633D01*
D02*
G37*
G36*
X348487Y286783D02*
X348412D01*
Y286858D01*
X348487D01*
Y286783D01*
D02*
G37*
G36*
X364113D02*
X364038D01*
Y286708D01*
X363888D01*
Y286783D01*
X363963D01*
Y286858D01*
X364113D01*
Y286783D01*
D02*
G37*
G36*
X349309Y286708D02*
X349235D01*
Y286783D01*
X349309D01*
Y286708D01*
D02*
G37*
G36*
X348412D02*
X348338D01*
Y286783D01*
X348412D01*
Y286708D01*
D02*
G37*
G36*
X363888Y286633D02*
X363814D01*
Y286708D01*
X363888D01*
Y286633D01*
D02*
G37*
G36*
X363814Y286559D02*
X363739D01*
Y286484D01*
X363589D01*
Y286559D01*
X363664D01*
Y286633D01*
X363814D01*
Y286559D01*
D02*
G37*
G36*
X358655Y296203D02*
X358730D01*
Y296128D01*
X358804D01*
Y296054D01*
X358879D01*
Y295979D01*
X358954D01*
Y295904D01*
X359029D01*
Y295829D01*
X359103D01*
Y295755D01*
X359178D01*
Y295605D01*
X359253D01*
Y295530D01*
X359328D01*
Y295456D01*
X359402D01*
Y295306D01*
X359477D01*
Y295231D01*
X359552D01*
Y295157D01*
X359627D01*
Y295007D01*
X359702D01*
Y294858D01*
X359776D01*
Y294708D01*
X359851D01*
Y294633D01*
X359926D01*
Y294484D01*
X360001D01*
Y294409D01*
X360075D01*
Y294259D01*
X360150D01*
Y294110D01*
X360225D01*
Y293960D01*
X360300D01*
Y293811D01*
X360374D01*
Y293736D01*
X360449D01*
Y293661D01*
X360524D01*
Y293512D01*
X360599D01*
Y293362D01*
X360673D01*
Y293287D01*
X360748D01*
Y293213D01*
X360823D01*
Y293063D01*
X360898D01*
Y292988D01*
X360973D01*
Y292914D01*
X361047D01*
Y292839D01*
X361122D01*
Y292764D01*
X361272D01*
Y292689D01*
X361346D01*
Y292615D01*
X361496D01*
Y292540D01*
X361571D01*
Y292465D01*
X361720D01*
Y292390D01*
X361870D01*
Y292316D01*
X362019D01*
Y292241D01*
X362094D01*
Y292166D01*
X362244D01*
Y292091D01*
X362318D01*
Y292016D01*
X362468D01*
Y291942D01*
X362617D01*
Y291867D01*
X362767D01*
Y291792D01*
X362842D01*
Y291717D01*
X362991D01*
Y291643D01*
X363141D01*
Y291568D01*
X363215D01*
Y291493D01*
X363290D01*
Y291418D01*
X363440D01*
Y291344D01*
X363514D01*
Y291269D01*
X363589D01*
Y291194D01*
X363664D01*
Y291119D01*
X363739D01*
Y291044D01*
X363888D01*
Y290970D01*
X363963D01*
Y290895D01*
X364038D01*
Y290820D01*
X364113D01*
Y290745D01*
X364187D01*
Y290521D01*
X364113D01*
Y290297D01*
X364038D01*
Y290147D01*
X363963D01*
Y289998D01*
X363888D01*
Y289848D01*
X363814D01*
Y289699D01*
X363739D01*
Y289549D01*
X363664D01*
Y289400D01*
X363589D01*
Y289250D01*
X363514D01*
Y289101D01*
X363440D01*
Y288951D01*
X363365D01*
Y288727D01*
X363290D01*
Y288652D01*
X363215D01*
Y288503D01*
X363141D01*
Y288428D01*
X363066D01*
Y288278D01*
X362991D01*
Y288204D01*
X362916D01*
Y288129D01*
X362842D01*
Y288054D01*
X362767D01*
Y287979D01*
X362617D01*
Y287904D01*
X362318D01*
Y287830D01*
X362019D01*
Y287755D01*
X361870D01*
Y287680D01*
X361795D01*
Y287605D01*
X361720D01*
Y287456D01*
X361645D01*
Y286932D01*
X361720D01*
Y287157D01*
X361795D01*
Y287232D01*
X361870D01*
Y287306D01*
X361945D01*
Y287381D01*
X362019D01*
Y287232D01*
X361945D01*
Y287157D01*
X361870D01*
Y286858D01*
X361795D01*
Y286708D01*
X361870D01*
Y286559D01*
X361945D01*
Y286409D01*
X362094D01*
Y286334D01*
X362244D01*
Y286260D01*
X362543D01*
Y286334D01*
X362468D01*
Y286559D01*
X362393D01*
Y286633D01*
X362468D01*
Y287007D01*
X362543D01*
Y287157D01*
X362617D01*
Y287232D01*
X362692D01*
Y287007D01*
X362617D01*
Y286409D01*
X362692D01*
Y286334D01*
X363141D01*
Y286409D01*
X363365D01*
Y286484D01*
X363589D01*
Y286409D01*
X363440D01*
Y286334D01*
X363290D01*
Y286260D01*
X363141D01*
Y286185D01*
X362019D01*
Y286260D01*
X361870D01*
Y286334D01*
X361795D01*
Y286484D01*
X361720D01*
Y286559D01*
X361645D01*
Y286633D01*
X361571D01*
Y286708D01*
X361496D01*
Y286783D01*
X361421D01*
Y287306D01*
X361496D01*
Y287456D01*
X361571D01*
Y287605D01*
X361645D01*
Y287680D01*
X361720D01*
Y287755D01*
X361795D01*
Y287830D01*
X361945D01*
Y287904D01*
X362169D01*
Y287979D01*
X362468D01*
Y288054D01*
X362617D01*
Y288129D01*
X362767D01*
Y288204D01*
X362842D01*
Y288278D01*
X362916D01*
Y288428D01*
X362991D01*
Y288577D01*
X363066D01*
Y288652D01*
X363141D01*
Y288802D01*
X363215D01*
Y288951D01*
X363290D01*
Y289101D01*
X363365D01*
Y289250D01*
X363440D01*
Y289400D01*
X363514D01*
Y289624D01*
X363589D01*
Y289774D01*
X363664D01*
Y289923D01*
X363739D01*
Y290073D01*
X363814D01*
Y290222D01*
X363888D01*
Y290446D01*
X363963D01*
Y290745D01*
X363888D01*
Y290895D01*
X363814D01*
Y290970D01*
X363664D01*
Y291044D01*
X363589D01*
Y291119D01*
X363440D01*
Y291194D01*
X363365D01*
Y291269D01*
X363290D01*
Y291344D01*
X363141D01*
Y291418D01*
X363066D01*
Y291493D01*
X362991D01*
Y291568D01*
X362842D01*
Y291643D01*
X362692D01*
Y291717D01*
X362617D01*
Y291792D01*
X362468D01*
Y291867D01*
X362318D01*
Y291942D01*
X362169D01*
Y292016D01*
X362019D01*
Y292091D01*
X361945D01*
Y292166D01*
X361795D01*
Y292241D01*
X361645D01*
Y292316D01*
X361496D01*
Y292241D01*
X361421D01*
Y292166D01*
X361346D01*
Y292091D01*
X361272D01*
Y292016D01*
X361197D01*
Y291942D01*
X361122D01*
Y291792D01*
X361047D01*
Y291717D01*
X360973D01*
Y291643D01*
X360898D01*
Y291568D01*
X360823D01*
Y291418D01*
X360748D01*
Y291344D01*
X360673D01*
Y291269D01*
X360599D01*
Y291194D01*
X360524D01*
Y291119D01*
X360449D01*
Y291044D01*
X360374D01*
Y290895D01*
X360300D01*
Y290820D01*
X360225D01*
Y290745D01*
X360150D01*
Y290671D01*
X360075D01*
Y290596D01*
X360001D01*
Y290521D01*
X359926D01*
Y290372D01*
X359851D01*
Y290297D01*
X359776D01*
Y290222D01*
X359702D01*
Y290147D01*
X359627D01*
Y290073D01*
X359552D01*
Y289998D01*
X359477D01*
Y289923D01*
X359402D01*
Y289848D01*
X359328D01*
Y289774D01*
X359253D01*
Y289699D01*
X359178D01*
Y289624D01*
X359103D01*
Y289549D01*
X359029D01*
Y289474D01*
X358954D01*
Y289400D01*
X358879D01*
Y289325D01*
X358804D01*
Y289250D01*
X358730D01*
Y289175D01*
X358655D01*
Y289101D01*
X358580D01*
Y289026D01*
X358505D01*
Y288951D01*
X358431D01*
Y288876D01*
X358356D01*
Y288802D01*
X358206D01*
Y288727D01*
X357907D01*
Y288652D01*
X357683D01*
Y288577D01*
X357085D01*
Y288503D01*
X356636D01*
Y288577D01*
X356262D01*
Y288652D01*
X356113D01*
Y288727D01*
X356038D01*
Y288802D01*
X355963D01*
Y288876D01*
X355889D01*
Y289026D01*
X355814D01*
Y289250D01*
X355739D01*
Y289474D01*
X355814D01*
Y289624D01*
X355889D01*
Y289774D01*
X355963D01*
Y289848D01*
X356038D01*
Y289923D01*
X356113D01*
Y289998D01*
X356412D01*
Y290073D01*
X356935D01*
Y290147D01*
X357085D01*
Y290222D01*
X357160D01*
Y290297D01*
X357234D01*
Y290372D01*
X357309D01*
Y290446D01*
X357384D01*
Y290521D01*
X357459D01*
Y290596D01*
X357533D01*
Y290671D01*
X357608D01*
Y290745D01*
X357683D01*
Y290820D01*
X357758D01*
Y290895D01*
X357833D01*
Y291044D01*
X357907D01*
Y291119D01*
X357982D01*
Y291269D01*
X358057D01*
Y291344D01*
X358132D01*
Y291493D01*
X358206D01*
Y291568D01*
X358281D01*
Y291717D01*
X358356D01*
Y291867D01*
X358431D01*
Y291942D01*
X358505D01*
Y292091D01*
X358580D01*
Y292166D01*
X358655D01*
Y292316D01*
X358730D01*
Y292465D01*
X358804D01*
Y292615D01*
X358879D01*
Y293138D01*
X358804D01*
Y293362D01*
X358730D01*
Y293661D01*
X358655D01*
Y293885D01*
X358580D01*
Y294035D01*
X358505D01*
Y294185D01*
X358431D01*
Y294409D01*
X358356D01*
Y294633D01*
X358281D01*
Y294783D01*
X358206D01*
Y295007D01*
X358132D01*
Y295157D01*
X358057D01*
Y295306D01*
X357982D01*
Y295456D01*
X357907D01*
Y295605D01*
X357833D01*
Y295829D01*
X357758D01*
Y295904D01*
X357683D01*
Y296054D01*
X357384D01*
Y295979D01*
X357160D01*
Y295904D01*
X356935D01*
Y295829D01*
X356711D01*
Y295755D01*
X356487D01*
Y295680D01*
X356262D01*
Y295605D01*
X356038D01*
Y295530D01*
X355814D01*
Y295456D01*
X355664D01*
Y295381D01*
X355440D01*
Y295306D01*
X355216D01*
Y295231D01*
X354991D01*
Y295157D01*
X354692D01*
Y295082D01*
X354468D01*
Y295007D01*
X354244D01*
Y294932D01*
X353945D01*
Y294858D01*
X352823D01*
Y294783D01*
X352748D01*
Y294633D01*
X352674D01*
Y294484D01*
X352599D01*
Y294185D01*
X352524D01*
Y294035D01*
X352449D01*
Y293811D01*
X352375D01*
Y293586D01*
X352300D01*
Y293362D01*
X352225D01*
Y293138D01*
X352150D01*
Y292839D01*
X352076D01*
Y292615D01*
X352001D01*
Y292316D01*
X351926D01*
Y292016D01*
X351851D01*
Y291717D01*
X351777D01*
Y291344D01*
X351702D01*
Y290970D01*
X351627D01*
Y290446D01*
X351552D01*
Y289848D01*
X351478D01*
Y289474D01*
X351403D01*
Y289175D01*
X351328D01*
Y288802D01*
X351253D01*
Y288428D01*
X351179D01*
Y288129D01*
X351104D01*
Y287755D01*
X351029D01*
Y287381D01*
X350954D01*
Y287232D01*
X350879D01*
Y287007D01*
X350805D01*
Y286858D01*
X350730D01*
Y286783D01*
X350655D01*
Y286633D01*
X350580D01*
Y286559D01*
X350506D01*
Y286484D01*
X350431D01*
Y286409D01*
X350356D01*
Y286334D01*
X350281D01*
Y286260D01*
X350207D01*
Y286185D01*
X350132D01*
Y286110D01*
X350057D01*
Y286035D01*
X349907D01*
Y286110D01*
X349982D01*
Y286185D01*
X350057D01*
Y286260D01*
X350132D01*
Y286334D01*
X350207D01*
Y286409D01*
X350281D01*
Y286484D01*
X350356D01*
Y286559D01*
X350431D01*
Y286633D01*
X350506D01*
Y286708D01*
X350580D01*
Y286858D01*
X350655D01*
Y287007D01*
X350730D01*
Y287232D01*
X350805D01*
Y287456D01*
X350879D01*
Y287830D01*
X350954D01*
Y288129D01*
X351029D01*
Y288503D01*
X351104D01*
Y288876D01*
X351179D01*
Y289175D01*
X351253D01*
Y289474D01*
X351328D01*
Y289998D01*
X351403D01*
Y290297D01*
X351478D01*
Y290820D01*
X351552D01*
Y291269D01*
X351627D01*
Y291643D01*
X351702D01*
Y292091D01*
X351777D01*
Y292316D01*
X351851D01*
Y292615D01*
X351926D01*
Y292914D01*
X352001D01*
Y293138D01*
X352076D01*
Y293362D01*
X352150D01*
Y293586D01*
X352225D01*
Y293811D01*
X352300D01*
Y294035D01*
X352375D01*
Y294185D01*
X352449D01*
Y294409D01*
X352524D01*
Y294633D01*
X352599D01*
Y294783D01*
X352674D01*
Y295007D01*
X352748D01*
Y295157D01*
X352823D01*
Y295306D01*
X352898D01*
Y295381D01*
X352973D01*
Y295456D01*
X353048D01*
Y295381D01*
X353122D01*
Y295306D01*
X353048D01*
Y295157D01*
X352973D01*
Y295082D01*
X352898D01*
Y295007D01*
X354019D01*
Y295082D01*
X354244D01*
Y295157D01*
X354468D01*
Y295231D01*
X354692D01*
Y295306D01*
X354917D01*
Y295381D01*
X355141D01*
Y295456D01*
X355365D01*
Y295530D01*
X355590D01*
Y295605D01*
X355889D01*
Y295680D01*
X356113D01*
Y295755D01*
X356412D01*
Y295829D01*
X356561D01*
Y295904D01*
X356711D01*
Y295979D01*
X356860D01*
Y296054D01*
X357160D01*
Y296128D01*
X357384D01*
Y296203D01*
X357833D01*
Y296278D01*
X358655D01*
Y296203D01*
D02*
G37*
%LPC*%
G36*
X355440Y314520D02*
X355365D01*
Y314446D01*
X355440D01*
Y314520D01*
D02*
G37*
G36*
X356860Y317660D02*
X356487D01*
Y317586D01*
X356262D01*
Y317511D01*
X356113D01*
Y317436D01*
X355889D01*
Y317361D01*
X355664D01*
Y317287D01*
X355515D01*
Y317212D01*
X355365D01*
Y317137D01*
X355141D01*
Y317062D01*
X354991D01*
Y316988D01*
X354767D01*
Y316913D01*
X354618D01*
Y316838D01*
X354393D01*
Y316763D01*
X354244D01*
Y316688D01*
X354094D01*
Y316614D01*
X353945D01*
Y316539D01*
X353795D01*
Y316464D01*
X353571D01*
Y316389D01*
X353421D01*
Y316315D01*
X353272D01*
Y316240D01*
X353122D01*
Y316165D01*
X352973D01*
Y316090D01*
X352823D01*
Y316016D01*
X352748D01*
Y315941D01*
X352599D01*
Y315866D01*
X352449D01*
Y315791D01*
X352300D01*
Y315717D01*
X352225D01*
Y315642D01*
X352076D01*
Y315567D01*
X351926D01*
Y315492D01*
X351777D01*
Y315418D01*
X351627D01*
Y315343D01*
X351478D01*
Y315268D01*
X351328D01*
Y315193D01*
X351179D01*
Y315119D01*
X351104D01*
Y315044D01*
X350954D01*
Y314969D01*
X350805D01*
Y314894D01*
X350730D01*
Y314819D01*
X350580D01*
Y314745D01*
X350506D01*
Y314670D01*
X350356D01*
Y314595D01*
X350281D01*
Y314520D01*
X350132D01*
Y314446D01*
X350057D01*
Y314371D01*
X349907D01*
Y314296D01*
X349833D01*
Y314221D01*
X349683D01*
Y314146D01*
X349534D01*
Y314072D01*
X349459D01*
Y313997D01*
X349384D01*
Y313922D01*
X349309D01*
Y313847D01*
X349235D01*
Y313773D01*
X349160D01*
Y313698D01*
X349085D01*
Y313548D01*
X349010D01*
Y313474D01*
X348936D01*
Y313399D01*
X348861D01*
Y313324D01*
X348786D01*
Y313175D01*
X348711D01*
Y313100D01*
X348637D01*
Y313025D01*
X348562D01*
Y312876D01*
X348487D01*
Y312726D01*
X348412D01*
Y312651D01*
X348338D01*
Y312577D01*
X348263D01*
Y312427D01*
X348188D01*
Y312352D01*
X348113D01*
Y312203D01*
X348038D01*
Y312128D01*
X347964D01*
Y311978D01*
X347889D01*
Y311904D01*
X347814D01*
Y311754D01*
X347739D01*
Y311679D01*
X347665D01*
Y311530D01*
X347590D01*
Y311455D01*
X347515D01*
Y311305D01*
X347440D01*
Y311231D01*
X347365D01*
Y311081D01*
X347291D01*
Y311006D01*
X347216D01*
Y310857D01*
X347141D01*
Y310707D01*
X347216D01*
Y310782D01*
X347291D01*
Y310857D01*
X347440D01*
Y310932D01*
X347515D01*
Y311006D01*
X347590D01*
Y311081D01*
X347665D01*
Y311156D01*
X347814D01*
Y311231D01*
X347889D01*
Y311305D01*
X347964D01*
Y311380D01*
X348113D01*
Y311455D01*
X348188D01*
Y311530D01*
X348338D01*
Y311605D01*
X348412D01*
Y311679D01*
X348487D01*
Y311754D01*
X348562D01*
Y311829D01*
X348711D01*
Y311904D01*
X348786D01*
Y311978D01*
X348861D01*
Y312053D01*
X349010D01*
Y312128D01*
X349085D01*
Y312203D01*
X349235D01*
Y312277D01*
X349309D01*
Y312352D01*
X349459D01*
Y312427D01*
X349608D01*
Y312502D01*
X349758D01*
Y312577D01*
X349833D01*
Y312651D01*
X349982D01*
Y312726D01*
X350132D01*
Y312801D01*
X350207D01*
Y312502D01*
X350132D01*
Y312277D01*
X350057D01*
Y312203D01*
X349982D01*
Y312053D01*
X349907D01*
Y311978D01*
X349833D01*
Y311829D01*
X349758D01*
Y311754D01*
X349683D01*
Y311605D01*
X349608D01*
Y311530D01*
X349534D01*
Y311380D01*
X349459D01*
Y311305D01*
X349683D01*
Y311380D01*
X349982D01*
Y311455D01*
X350281D01*
Y311380D01*
X350207D01*
Y311305D01*
X350132D01*
Y311156D01*
X350057D01*
Y311081D01*
X349982D01*
Y311006D01*
X349907D01*
Y310932D01*
X349833D01*
Y310782D01*
X349758D01*
Y310707D01*
X350356D01*
Y310782D01*
X350431D01*
Y310857D01*
X350580D01*
Y310932D01*
X350655D01*
Y311006D01*
X350730D01*
Y311081D01*
X350805D01*
Y311156D01*
X350954D01*
Y311231D01*
X351029D01*
Y311305D01*
X351104D01*
Y311380D01*
X351179D01*
Y311455D01*
X351253D01*
Y311530D01*
X351403D01*
Y311605D01*
X351478D01*
Y311679D01*
X351552D01*
Y311754D01*
X351627D01*
Y311829D01*
X351777D01*
Y311904D01*
X351851D01*
Y311978D01*
X351926D01*
Y312053D01*
X352076D01*
Y312128D01*
X352150D01*
Y312203D01*
X352300D01*
Y312277D01*
X352449D01*
Y312352D01*
X352524D01*
Y312427D01*
X352674D01*
Y312502D01*
X352823D01*
Y312577D01*
X352973D01*
Y312651D01*
X353197D01*
Y312726D01*
X353421D01*
Y312801D01*
X353646D01*
Y312876D01*
X353945D01*
Y312950D01*
X354094D01*
Y313025D01*
X354244D01*
Y313100D01*
X354319D01*
Y313175D01*
X354393D01*
Y313249D01*
X354468D01*
Y313324D01*
X354543D01*
Y313399D01*
X354618D01*
Y313474D01*
X354692D01*
Y313623D01*
X354842D01*
Y313773D01*
X354917D01*
Y313847D01*
X354991D01*
Y313922D01*
X355066D01*
Y313997D01*
X355141D01*
Y314146D01*
X355216D01*
Y314221D01*
X355291D01*
Y314296D01*
X355365D01*
Y314446D01*
X355141D01*
Y314371D01*
X354991D01*
Y314296D01*
X354842D01*
Y314221D01*
X354692D01*
Y314146D01*
X354618D01*
Y314072D01*
X354543D01*
Y313922D01*
X354468D01*
Y313847D01*
X354393D01*
Y313773D01*
X354319D01*
Y313997D01*
X354393D01*
Y314072D01*
X354468D01*
Y314146D01*
X354543D01*
Y314221D01*
X354618D01*
Y314371D01*
X354692D01*
Y314446D01*
X354767D01*
Y314520D01*
X354842D01*
Y314595D01*
X354917D01*
Y314670D01*
X354991D01*
Y314819D01*
X355066D01*
Y314894D01*
X355141D01*
Y315044D01*
X355216D01*
Y315119D01*
X355291D01*
Y315268D01*
X355365D01*
Y315343D01*
X355440D01*
Y315418D01*
X355515D01*
Y315567D01*
X355590D01*
Y315642D01*
X355664D01*
Y315717D01*
X355739D01*
Y315866D01*
X355814D01*
Y315941D01*
X355889D01*
Y316090D01*
X355963D01*
Y316165D01*
X356038D01*
Y316240D01*
X356113D01*
Y316389D01*
X356188D01*
Y316539D01*
X356262D01*
Y316688D01*
X356337D01*
Y316763D01*
X356412D01*
Y316913D01*
X356487D01*
Y316988D01*
X356561D01*
Y317137D01*
X356636D01*
Y317287D01*
X356711D01*
Y317436D01*
X356786D01*
Y317586D01*
X356860D01*
Y317660D01*
D02*
G37*
G36*
X349758Y310707D02*
X349683D01*
Y310633D01*
X349758D01*
Y310707D01*
D02*
G37*
G36*
X362916Y306820D02*
X362842D01*
Y306745D01*
X362916D01*
Y306820D01*
D02*
G37*
G36*
X347365Y299044D02*
X347216D01*
Y298895D01*
X347141D01*
Y298820D01*
X347066D01*
Y298745D01*
X346992D01*
Y297848D01*
X347066D01*
Y297250D01*
X347141D01*
Y296577D01*
X347216D01*
Y296128D01*
X347291D01*
Y295829D01*
X347365D01*
Y295381D01*
X347440D01*
Y295007D01*
X347515D01*
Y294633D01*
X347590D01*
Y294259D01*
X347665D01*
Y294035D01*
X347739D01*
Y293661D01*
X347814D01*
Y293362D01*
X347889D01*
Y293138D01*
X347964D01*
Y292540D01*
X348038D01*
Y292091D01*
X348113D01*
Y291792D01*
Y291717D01*
Y290521D01*
X348038D01*
Y289848D01*
X347964D01*
Y289549D01*
X347889D01*
Y289175D01*
X347814D01*
Y288951D01*
X347739D01*
Y288652D01*
X347665D01*
Y288503D01*
X347590D01*
Y288278D01*
X347515D01*
Y288129D01*
X347440D01*
Y288054D01*
X347365D01*
Y287904D01*
X347291D01*
Y287830D01*
X347216D01*
Y287755D01*
X347141D01*
Y287680D01*
X347066D01*
Y287605D01*
X346992D01*
Y287456D01*
X346917D01*
Y287306D01*
X346992D01*
Y287381D01*
X347066D01*
Y287531D01*
X347216D01*
Y287605D01*
X347365D01*
Y287531D01*
X347291D01*
Y287456D01*
X347141D01*
Y287306D01*
X347066D01*
Y287007D01*
X347141D01*
Y286783D01*
X347216D01*
Y286708D01*
X347291D01*
Y286633D01*
X347440D01*
Y286708D01*
X347365D01*
Y287007D01*
X347440D01*
Y287157D01*
X347515D01*
Y286708D01*
X347590D01*
Y286633D01*
X347665D01*
Y286559D01*
X347814D01*
Y286484D01*
X347889D01*
Y286783D01*
X347964D01*
Y286932D01*
X348038D01*
Y287082D01*
X348113D01*
Y287232D01*
X348188D01*
Y287306D01*
X348338D01*
Y287381D01*
X348412D01*
Y287456D01*
X348487D01*
Y287531D01*
X348562D01*
Y287680D01*
X348637D01*
Y287755D01*
X348711D01*
Y287979D01*
X348786D01*
Y288353D01*
X348861D01*
Y288652D01*
X348936D01*
Y288876D01*
X349010D01*
Y289250D01*
X349085D01*
Y289624D01*
X349160D01*
Y289923D01*
X349235D01*
Y290297D01*
X349309D01*
Y290820D01*
X349384D01*
Y291269D01*
X349459D01*
Y291942D01*
X349534D01*
Y292166D01*
X349459D01*
Y293213D01*
X349384D01*
Y294185D01*
X349309D01*
Y294783D01*
X349235D01*
Y295082D01*
X349160D01*
Y294633D01*
X349085D01*
Y294259D01*
X349010D01*
Y293736D01*
X348861D01*
Y293811D01*
X348786D01*
Y293885D01*
X348711D01*
Y294035D01*
X348637D01*
Y294185D01*
X348562D01*
Y294409D01*
X348487D01*
Y294558D01*
X348412D01*
Y294783D01*
X348338D01*
Y295007D01*
X348263D01*
Y295231D01*
X348188D01*
Y295381D01*
X348113D01*
Y295680D01*
X348038D01*
Y295904D01*
X347964D01*
Y296128D01*
X347889D01*
Y296427D01*
X347814D01*
Y296652D01*
X347739D01*
Y297026D01*
X347665D01*
Y297474D01*
X347590D01*
Y297773D01*
X347515D01*
Y298147D01*
X347440D01*
Y298596D01*
X347365D01*
Y299044D01*
D02*
G37*
%LPD*%
G36*
X347739Y287381D02*
X347665D01*
Y287456D01*
X347739D01*
Y287381D01*
D02*
G37*
G36*
X347665Y287306D02*
X347590D01*
Y287381D01*
X347665D01*
Y287306D01*
D02*
G37*
G36*
X347590Y287232D02*
Y287157D01*
X347515D01*
Y287306D01*
X347590D01*
Y287232D01*
D02*
G37*
%LPC*%
G36*
X346693Y307941D02*
X346468D01*
Y307866D01*
X346319D01*
Y307792D01*
X346169D01*
Y307717D01*
X346094D01*
Y307642D01*
X346020D01*
Y307418D01*
X346094D01*
Y307343D01*
X346394D01*
Y307418D01*
X346543D01*
Y307492D01*
X346618D01*
Y307567D01*
X346693D01*
Y307642D01*
X346767D01*
Y307792D01*
Y307866D01*
X346693D01*
Y307941D01*
D02*
G37*
G36*
X358431Y296128D02*
X357982D01*
Y296054D01*
X357833D01*
Y295979D01*
X357907D01*
Y295829D01*
X357982D01*
Y295680D01*
X358057D01*
Y295530D01*
X358132D01*
Y295381D01*
X358206D01*
Y295157D01*
X358281D01*
Y295007D01*
X358356D01*
Y294858D01*
X358431D01*
Y294633D01*
X358505D01*
Y294484D01*
X358580D01*
Y294259D01*
X358655D01*
Y294035D01*
X358730D01*
Y293811D01*
X358804D01*
Y293586D01*
X358879D01*
Y293362D01*
X358954D01*
Y293063D01*
X359029D01*
Y292615D01*
X358954D01*
Y292465D01*
X358879D01*
Y292316D01*
X358804D01*
Y292166D01*
X358730D01*
Y291942D01*
X358655D01*
Y291792D01*
X358580D01*
Y291717D01*
X358505D01*
Y291568D01*
X358431D01*
Y291493D01*
X358356D01*
Y291344D01*
X358281D01*
Y291194D01*
X358206D01*
Y291119D01*
X358132D01*
Y291044D01*
X358057D01*
Y290895D01*
X357982D01*
Y290820D01*
X357907D01*
Y290745D01*
X357833D01*
Y290671D01*
X357758D01*
Y290596D01*
X357683D01*
Y290446D01*
X357608D01*
Y290372D01*
X357533D01*
Y290297D01*
X357459D01*
Y290222D01*
X357309D01*
Y290147D01*
X357234D01*
Y290073D01*
X357160D01*
Y289998D01*
X356711D01*
Y289923D01*
X356337D01*
Y289848D01*
X356262D01*
Y289774D01*
X356113D01*
Y289699D01*
X356038D01*
Y289624D01*
X355963D01*
Y289474D01*
X355889D01*
Y289325D01*
X355963D01*
Y289400D01*
X356038D01*
Y289474D01*
X356113D01*
Y289549D01*
X356188D01*
Y289624D01*
X356262D01*
Y289699D01*
X356337D01*
Y289549D01*
X356262D01*
Y289474D01*
X356188D01*
Y289400D01*
X356113D01*
Y289325D01*
X356038D01*
Y289250D01*
X355963D01*
Y288951D01*
X356038D01*
Y288876D01*
X356113D01*
Y288802D01*
X356262D01*
Y288727D01*
X356487D01*
Y289026D01*
X356561D01*
Y289175D01*
X356636D01*
Y289325D01*
X356711D01*
Y289400D01*
X356860D01*
Y289325D01*
X356786D01*
Y289175D01*
X356711D01*
Y288802D01*
X356636D01*
Y288727D01*
X356711D01*
Y288652D01*
X356860D01*
Y288727D01*
X356935D01*
Y288652D01*
X357085D01*
Y288727D01*
X357683D01*
Y288802D01*
X357982D01*
Y288876D01*
X358206D01*
Y288951D01*
X358281D01*
Y289026D01*
X358356D01*
Y289101D01*
X358431D01*
Y289175D01*
X358505D01*
Y289250D01*
X358580D01*
Y289325D01*
X358655D01*
Y289400D01*
X358804D01*
Y289549D01*
X358879D01*
Y289624D01*
X358954D01*
Y289699D01*
X359029D01*
Y289774D01*
X359103D01*
Y289848D01*
X359178D01*
Y289923D01*
X359253D01*
Y289998D01*
X359328D01*
Y290073D01*
X359402D01*
Y290147D01*
X359477D01*
Y290222D01*
X359552D01*
Y290297D01*
X359627D01*
Y290372D01*
X359702D01*
Y290446D01*
X359776D01*
Y290596D01*
X359851D01*
Y290671D01*
X359926D01*
Y290745D01*
X360001D01*
Y290820D01*
X360075D01*
Y290895D01*
X360150D01*
Y290970D01*
X360225D01*
Y291044D01*
X360300D01*
Y291194D01*
X360374D01*
Y291269D01*
X360449D01*
Y291344D01*
X360524D01*
Y291418D01*
X360599D01*
Y291568D01*
X360673D01*
Y291643D01*
X360748D01*
Y291717D01*
X360823D01*
Y291792D01*
X360898D01*
Y291867D01*
X360973D01*
Y291942D01*
X361047D01*
Y292016D01*
X361122D01*
Y292166D01*
X361197D01*
Y292241D01*
X361272D01*
Y292316D01*
X361346D01*
Y292465D01*
X361197D01*
Y292540D01*
X361122D01*
Y292615D01*
X361047D01*
Y292689D01*
X360973D01*
Y292764D01*
X360898D01*
Y292839D01*
X360823D01*
Y292914D01*
X360748D01*
Y292988D01*
X360673D01*
Y293138D01*
X360599D01*
Y293213D01*
X360524D01*
Y293287D01*
X360449D01*
Y293437D01*
X360374D01*
Y293512D01*
X360300D01*
Y293661D01*
X360225D01*
Y293736D01*
X360150D01*
Y293885D01*
X360075D01*
Y294035D01*
X360001D01*
Y294185D01*
X359926D01*
Y294334D01*
X359851D01*
Y294409D01*
X359776D01*
Y294558D01*
X359702D01*
Y294708D01*
X359627D01*
Y294858D01*
X359552D01*
Y294932D01*
X359477D01*
Y295082D01*
X359402D01*
Y295157D01*
X359328D01*
Y295306D01*
X359253D01*
Y295381D01*
X359178D01*
Y295456D01*
X359103D01*
Y295605D01*
X359029D01*
Y295680D01*
X358954D01*
Y295755D01*
X358879D01*
Y295829D01*
X358804D01*
Y295904D01*
X358730D01*
Y295979D01*
X358580D01*
Y296054D01*
X358431D01*
Y296128D01*
D02*
G37*
%LPD*%
D10*
X305433Y340295D02*
X304988Y341219D01*
X303989Y341447D01*
X303188Y340808D01*
Y339783D01*
X303989Y339144D01*
X304988Y339372D01*
X305433Y340295D01*
D11*
X295492Y343740D02*
X294754Y344166D01*
Y343314D01*
X295492Y343740D01*
D12*
X284264Y322445D02*
Y322839D01*
X279736Y322445D02*
Y322839D01*
X300315Y293445D02*
X327087D01*
X300315Y344232D02*
X327087D01*
Y293445D02*
Y344232D01*
X300315Y293445D02*
Y344232D01*
X374220Y347878D02*
Y348665D01*
X376780Y347878D02*
Y348665D01*
X374220Y359878D02*
Y360665D01*
X376780Y359878D02*
Y360665D01*
X354720Y346854D02*
Y347642D01*
X357279Y346854D02*
Y347642D01*
X256606Y354279D02*
X257394D01*
X256606Y351720D02*
X257394D01*
X256606Y360279D02*
X257394D01*
X256606Y357720D02*
X257394D01*
X271736Y322803D02*
Y323197D01*
X276264Y322803D02*
Y323197D01*
X375736Y311803D02*
Y312197D01*
X380264Y311803D02*
Y312197D01*
X383736Y311803D02*
Y312197D01*
X388264Y311803D02*
Y312197D01*
Y325803D02*
Y326197D01*
X383736Y325803D02*
Y326197D01*
X393736Y311803D02*
Y312197D01*
X398264Y311803D02*
Y312197D01*
X401736Y311803D02*
Y312197D01*
X406264Y311803D02*
Y312197D01*
X348776Y328110D02*
X350744D01*
X348776Y332244D02*
X350744D01*
X364264Y325803D02*
Y326197D01*
X359736Y325803D02*
Y326197D01*
X372264Y325803D02*
Y326197D01*
X367736Y325803D02*
Y326197D01*
X380264Y325803D02*
Y326197D01*
X375736Y325803D02*
Y326197D01*
X354720Y359606D02*
Y360394D01*
X357279Y359606D02*
Y360394D01*
X289000Y365000D02*
Y375000D01*
X249000Y365000D02*
X289000D01*
X249000Y375000D02*
X289000D01*
X249000Y365000D02*
Y375000D01*
X245000Y315000D02*
X255000D01*
X245000D02*
Y335000D01*
X255000D01*
Y315000D02*
Y335000D01*
X421000Y303000D02*
Y333000D01*
Y303000D02*
X431000D01*
Y333000D01*
X421000D02*
X431000D01*
D13*
X239333Y298197D02*
X237000D01*
X239333Y300530D01*
Y301113D01*
X238749Y301696D01*
X237583D01*
X237000Y301113D01*
X242248Y298197D02*
Y301696D01*
X240499Y299947D01*
X242831D01*
X243998Y301696D02*
Y299364D01*
X245164Y298197D01*
X246330Y299364D01*
Y301696D01*
X250995D02*
X252162D01*
X251579D01*
Y298197D01*
X250995D01*
X252162D01*
X253911D02*
Y301696D01*
X256244Y298197D01*
Y301696D01*
X237000Y293348D02*
X239333D01*
X238166Y294514D02*
Y292182D01*
X240499Y291599D02*
X241665D01*
X241082D01*
Y295097D01*
X240499Y294514D01*
X245747Y295097D02*
X243415D01*
Y293348D01*
X244581Y293931D01*
X245164D01*
X245747Y293348D01*
Y292182D01*
X245164Y291599D01*
X243998D01*
X243415Y292182D01*
X246914Y291599D02*
X249246Y293931D01*
X250412Y293348D02*
X252745D01*
X256244Y295097D02*
X253911D01*
Y293348D01*
X255078Y293931D01*
X255661D01*
X256244Y293348D01*
Y292182D01*
X255661Y291599D01*
X254494D01*
X253911Y292182D01*
X257410Y295097D02*
Y292765D01*
X258576Y291599D01*
X259743Y292765D01*
Y295097D01*
X266157D02*
X264991D01*
X264408Y294514D01*
Y292182D01*
X264991Y291599D01*
X266157D01*
X266740Y292182D01*
Y294514D01*
X266157Y295097D01*
X267907D02*
Y292182D01*
X268490Y291599D01*
X269656D01*
X270239Y292182D01*
Y295097D01*
X271406D02*
X273738D01*
X272572D01*
Y291599D01*
X237000Y287916D02*
X237583Y288499D01*
X238749D01*
X239333Y287916D01*
Y287333D01*
X238749Y286749D01*
X238166D01*
X238749D01*
X239333Y286166D01*
Y285583D01*
X238749Y285000D01*
X237583D01*
X237000Y285583D01*
X240499Y288499D02*
Y285000D01*
X241665Y286166D01*
X242831Y285000D01*
Y288499D01*
X247497Y285000D02*
Y288499D01*
X248663Y287333D01*
X249829Y288499D01*
Y285000D01*
X250995D02*
Y287333D01*
X252162Y288499D01*
X253328Y287333D01*
Y285000D01*
Y286749D01*
X250995D01*
X254494Y288499D02*
X256827Y285000D01*
Y288499D02*
X254494Y285000D01*
X437003Y320165D02*
X436170Y320998D01*
X434504D01*
X433671Y320165D01*
Y316833D01*
X434504Y316000D01*
X436170D01*
X437003Y316833D01*
X441168Y320998D02*
X439502D01*
X438669Y320165D01*
Y316833D01*
X439502Y316000D01*
X441168D01*
X442002Y316833D01*
Y320165D01*
X441168Y320998D01*
X443668Y316000D02*
Y320998D01*
X445334Y319332D01*
X447000Y320998D01*
Y316000D01*
X284002Y380916D02*
X283419Y381499D01*
X282253D01*
X281670Y380916D01*
Y378583D01*
X282253Y378000D01*
X283419D01*
X284002Y378583D01*
Y379749D01*
X282836D01*
X285169Y378000D02*
Y381499D01*
X287501Y378000D01*
Y381499D01*
X288667D02*
Y378000D01*
X290417D01*
X291000Y378583D01*
Y380916D01*
X290417Y381499D01*
X288667D01*
X246503Y338500D02*
X243171D01*
X246503Y341832D01*
Y342665D01*
X245670Y343498D01*
X244004D01*
X243171Y342665D01*
X250669Y338500D02*
Y343498D01*
X248169Y340999D01*
X251502D01*
X253168Y343498D02*
Y340166D01*
X254834Y338500D01*
X256500Y340166D01*
Y343498D01*
X263501Y381499D02*
X261169D01*
Y378000D01*
X263501D01*
X261169Y379749D02*
X262335D01*
X264667Y378000D02*
Y381499D01*
X267000Y378000D01*
Y381499D01*
X409261Y381893D02*
Y378145D01*
X410011Y377395D01*
X411510D01*
X412260Y378145D01*
Y381893D01*
X416758Y381144D02*
X416009Y381893D01*
X414509D01*
X413759Y381144D01*
Y378145D01*
X414509Y377395D01*
X416009D01*
X416758Y378145D01*
X421257Y381144D02*
X420507Y381893D01*
X419008D01*
X418258Y381144D01*
Y378145D01*
X419008Y377395D01*
X420507D01*
X421257Y378145D01*
X422756Y377395D02*
X424256D01*
X423506D01*
Y381893D01*
X422756Y381144D01*
X428755Y377395D02*
Y381893D01*
X426505Y379644D01*
X429504D01*
X434003Y377395D02*
X431004D01*
X434003Y380394D01*
Y381144D01*
X433253Y381893D01*
X431754D01*
X431004Y381144D01*
X437752Y377395D02*
Y381893D01*
X435502Y379644D01*
X438502D01*
X440001Y381144D02*
X440751Y381893D01*
X442250D01*
X443000Y381144D01*
Y378145D01*
X442250Y377395D01*
X440751D01*
X440001Y378145D01*
Y381144D01*
X382270Y374095D02*
Y369597D01*
X384519D01*
X385269Y370346D01*
Y371096D01*
X384519Y371846D01*
X382270D01*
X384519D01*
X385269Y372596D01*
Y373345D01*
X384519Y374095D01*
X382270D01*
X386768Y372596D02*
Y369597D01*
Y371096D01*
X387518Y371846D01*
X388268Y372596D01*
X389017D01*
X393516Y369597D02*
X392016D01*
X391267Y370346D01*
Y371846D01*
X392016Y372596D01*
X393516D01*
X394266Y371846D01*
Y371096D01*
X391267D01*
X396515Y372596D02*
X398014D01*
X398764Y371846D01*
Y369597D01*
X396515D01*
X395765Y370346D01*
X396515Y371096D01*
X398764D01*
X400264Y369597D02*
Y374095D01*
Y371096D02*
X402513Y372596D01*
X400264Y371096D02*
X402513Y369597D01*
X405512D02*
X407012D01*
X407761Y370346D01*
Y371846D01*
X407012Y372596D01*
X405512D01*
X404762Y371846D01*
Y370346D01*
X405512Y369597D01*
X409261Y372596D02*
Y370346D01*
X410011Y369597D01*
X412260D01*
Y372596D01*
X414509Y373345D02*
Y372596D01*
X413759D01*
X415259D01*
X414509D01*
Y370346D01*
X415259Y369597D01*
X422007Y374095D02*
Y369597D01*
X424256D01*
X425006Y370346D01*
Y371096D01*
X424256Y371846D01*
X422007D01*
X424256D01*
X425006Y372596D01*
Y373345D01*
X424256Y374095D01*
X422007D01*
X427255Y369597D02*
X428755D01*
X429504Y370346D01*
Y371846D01*
X428755Y372596D01*
X427255D01*
X426505Y371846D01*
Y370346D01*
X427255Y369597D01*
X431754Y372596D02*
X433253D01*
X434003Y371846D01*
Y369597D01*
X431754D01*
X431004Y370346D01*
X431754Y371096D01*
X434003D01*
X435502Y372596D02*
Y369597D01*
Y371096D01*
X436252Y371846D01*
X437002Y372596D01*
X437752D01*
X443000Y374095D02*
Y369597D01*
X440751D01*
X440001Y370346D01*
Y371846D01*
X440751Y372596D01*
X443000D01*
X419758Y361798D02*
Y366297D01*
X422007D01*
X422756Y365547D01*
Y364048D01*
X422007Y363298D01*
X419758D01*
X421257D02*
X422756Y361798D01*
X426505D02*
X425006D01*
X424256Y362548D01*
Y364048D01*
X425006Y364797D01*
X426505D01*
X427255Y364048D01*
Y363298D01*
X424256D01*
X428755Y364797D02*
X430254Y361798D01*
X431754Y364797D01*
X433253Y361798D02*
Y362548D01*
X434003D01*
Y361798D01*
X433253D01*
X441501D02*
X443000D01*
X442250D01*
Y366297D01*
X441501Y365547D01*
X404013Y357749D02*
X403263Y358499D01*
X401763D01*
X401014Y357749D01*
Y354750D01*
X401763Y354000D01*
X403263D01*
X404013Y354750D01*
X405512Y358499D02*
Y354000D01*
Y356249D01*
X406262Y356999D01*
X407761D01*
X408511Y356249D01*
Y354000D01*
X410760Y356999D02*
X412260D01*
X413010Y356249D01*
Y354000D01*
X410760D01*
X410011Y354750D01*
X410760Y355500D01*
X413010D01*
X414509Y356999D02*
Y354750D01*
X415259Y354000D01*
X416009Y354750D01*
X416758Y354000D01*
X417508Y354750D01*
Y356999D01*
X419758Y357749D02*
Y356999D01*
X419008D01*
X420507D01*
X419758D01*
Y354750D01*
X420507Y354000D01*
X422756Y358499D02*
Y354000D01*
Y356249D01*
X423506Y356999D01*
X425006D01*
X425756Y356249D01*
Y354000D01*
X427255Y356999D02*
Y354000D01*
Y355500D01*
X428005Y356249D01*
X428755Y356999D01*
X429504D01*
X431754Y354000D02*
X433253D01*
X432503D01*
Y356999D01*
X431754D01*
X440001Y358499D02*
Y354000D01*
Y355500D01*
X443000Y358499D01*
X440751Y356249D01*
X443000Y354000D01*
X271169Y378000D02*
Y381499D01*
X272918D01*
X273501Y380916D01*
Y379749D01*
X272918Y379166D01*
X271169D01*
X277000Y380916D02*
X276417Y381499D01*
X275251D01*
X274667Y380916D01*
Y378583D01*
X275251Y378000D01*
X276417D01*
X277000Y378583D01*
Y379749D01*
X275834D01*
X246503Y310165D02*
X245670Y310998D01*
X244004D01*
X243171Y310165D01*
Y306833D01*
X244004Y306000D01*
X245670D01*
X246503Y306833D01*
Y308499D01*
X244837D01*
X248169Y306000D02*
Y310998D01*
X251502Y306000D01*
Y310998D01*
X253168D02*
Y306000D01*
X255667D01*
X256500Y306833D01*
Y310165D01*
X255667Y310998D01*
X253168D01*
X247670Y380916D02*
X248253Y381499D01*
X249419D01*
X250002Y380916D01*
Y380333D01*
X249419Y379749D01*
X248836D01*
X249419D01*
X250002Y379166D01*
Y378583D01*
X249419Y378000D01*
X248253D01*
X247670Y378583D01*
X251169Y381499D02*
Y379166D01*
X252335Y378000D01*
X253501Y379166D01*
Y381499D01*
X254667Y380916D02*
X255251Y381499D01*
X256417D01*
X257000Y380916D01*
Y380333D01*
X256417Y379749D01*
X255834D01*
X256417D01*
X257000Y379166D01*
Y378583D01*
X256417Y378000D01*
X255251D01*
X254667Y378583D01*
X433671Y309998D02*
Y306666D01*
X435337Y305000D01*
X437003Y306666D01*
Y309998D01*
X442002D02*
X438669D01*
Y305000D01*
X442002D01*
X438669Y307499D02*
X440336D01*
X447000Y309998D02*
X443668D01*
Y305000D01*
X447000D01*
X443668Y307499D02*
X445334D01*
X433671Y330998D02*
Y327666D01*
X435337Y326000D01*
X437003Y327666D01*
Y330998D01*
X438669D02*
Y326000D01*
X441168D01*
X442002Y326833D01*
Y330165D01*
X441168Y330998D01*
X438669D01*
X443668D02*
Y326000D01*
X446167D01*
X447000Y326833D01*
Y330165D01*
X446167Y330998D01*
X443668D01*
D14*
X281249Y332708D02*
X280666Y332125D01*
Y330959D01*
X281249Y330375D01*
X283582D01*
X284165Y330959D01*
Y332125D01*
X283582Y332708D01*
X284165Y336207D02*
Y333874D01*
X281833Y336207D01*
X281249D01*
X280666Y335624D01*
Y334457D01*
X281249Y333874D01*
X264084Y357251D02*
Y360749D01*
X265834D01*
X266417Y360166D01*
Y359000D01*
X265834Y358417D01*
X264084D01*
X265251D02*
X266417Y357251D01*
X267583Y360749D02*
X269916D01*
Y360166D01*
X267583Y357834D01*
Y357251D01*
X310667Y350749D02*
Y347834D01*
X311251Y347251D01*
X312417D01*
X313000Y347834D01*
Y350749D01*
X314166Y347251D02*
X315333D01*
X314749D01*
Y350749D01*
X314166Y350166D01*
X357749Y367084D02*
X354251D01*
Y368834D01*
X354834Y369417D01*
X356000D01*
X356583Y368834D01*
Y367084D01*
Y368251D02*
X357749Y369417D01*
X354251Y372916D02*
X354834Y371749D01*
X356000Y370583D01*
X357166D01*
X357749Y371166D01*
Y372333D01*
X357166Y372916D01*
X356583D01*
X356000Y372333D01*
Y370583D01*
X377249Y367356D02*
X373751D01*
Y369105D01*
X374334Y369689D01*
X375500D01*
X376083Y369105D01*
Y367356D01*
Y368522D02*
X377249Y369689D01*
X373751Y373187D02*
Y370855D01*
X375500D01*
X374917Y372021D01*
Y372604D01*
X375500Y373187D01*
X376666D01*
X377249Y372604D01*
Y371438D01*
X376666Y370855D01*
X383249Y347604D02*
X379751D01*
Y349353D01*
X380334Y349937D01*
X381500D01*
X382083Y349353D01*
Y347604D01*
Y348770D02*
X383249Y349937D01*
Y352852D02*
X379751D01*
X381500Y351103D01*
Y353435D01*
X363749Y346332D02*
X360251D01*
Y348082D01*
X360834Y348665D01*
X362000D01*
X362583Y348082D01*
Y346332D01*
Y347499D02*
X363749Y348665D01*
X360834Y349831D02*
X360251Y350414D01*
Y351581D01*
X360834Y352164D01*
X361417D01*
X362000Y351581D01*
Y350997D01*
Y351581D01*
X362583Y352164D01*
X363166D01*
X363749Y351581D01*
Y350414D01*
X363166Y349831D01*
X264084Y351251D02*
Y354749D01*
X265834D01*
X266417Y354166D01*
Y353000D01*
X265834Y352417D01*
X264084D01*
X265251D02*
X266417Y351251D01*
X269916D02*
X267583D01*
X269916Y353583D01*
Y354166D01*
X269333Y354749D01*
X268166D01*
X267583Y354166D01*
X345667Y334251D02*
Y337749D01*
X347417D01*
X348000Y337166D01*
Y336000D01*
X347417Y335417D01*
X345667D01*
X346834D02*
X348000Y334251D01*
X349166D02*
X350333D01*
X349749D01*
Y337749D01*
X349166Y337166D01*
X348834Y369959D02*
X348251Y369376D01*
Y368210D01*
X348834Y367626D01*
X351166D01*
X351749Y368210D01*
Y369376D01*
X351166Y369959D01*
X351749Y371125D02*
Y372292D01*
Y371708D01*
X348251D01*
X348834Y371125D01*
X351749Y376374D02*
Y374041D01*
X349417Y376374D01*
X348834D01*
X348251Y375790D01*
Y374624D01*
X348834Y374041D01*
X366334Y369814D02*
X365751Y369231D01*
Y368064D01*
X366334Y367481D01*
X368666D01*
X369249Y368064D01*
Y369231D01*
X368666Y369814D01*
X369249Y370980D02*
Y372146D01*
Y371563D01*
X365751D01*
X366334Y370980D01*
X369249Y373896D02*
Y375062D01*
Y374479D01*
X365751D01*
X366334Y373896D01*
X402834Y297959D02*
X402251Y297376D01*
Y296210D01*
X402834Y295626D01*
X405166D01*
X405749Y296210D01*
Y297376D01*
X405166Y297959D01*
X405749Y299125D02*
Y300292D01*
Y299708D01*
X402251D01*
X402834Y299125D01*
Y302041D02*
X402251Y302624D01*
Y303790D01*
X402834Y304374D01*
X405166D01*
X405749Y303790D01*
Y302624D01*
X405166Y302041D01*
X402834D01*
X394834Y300417D02*
X394251Y299834D01*
Y298667D01*
X394834Y298084D01*
X397166D01*
X397749Y298667D01*
Y299834D01*
X397166Y300417D01*
Y301583D02*
X397749Y302166D01*
Y303333D01*
X397166Y303916D01*
X394834D01*
X394251Y303333D01*
Y302166D01*
X394834Y301583D01*
X395417D01*
X396000Y302166D01*
Y303916D01*
X384834Y300417D02*
X384251Y299834D01*
Y298667D01*
X384834Y298084D01*
X387166D01*
X387749Y298667D01*
Y299834D01*
X387166Y300417D01*
X384834Y301583D02*
X384251Y302166D01*
Y303333D01*
X384834Y303916D01*
X385417D01*
X386000Y303333D01*
X386583Y303916D01*
X387166D01*
X387749Y303333D01*
Y302166D01*
X387166Y301583D01*
X386583D01*
X386000Y302166D01*
X385417Y301583D01*
X384834D01*
X386000Y302166D02*
Y303333D01*
X376834Y300417D02*
X376251Y299834D01*
Y298667D01*
X376834Y298084D01*
X379166D01*
X379749Y298667D01*
Y299834D01*
X379166Y300417D01*
X376251Y301583D02*
Y303916D01*
X376834D01*
X379166Y301583D01*
X379749D01*
X385249Y336066D02*
X384666Y335483D01*
Y334317D01*
X385249Y333734D01*
X387582D01*
X388165Y334317D01*
Y335483D01*
X387582Y336066D01*
X384666Y339565D02*
X385249Y338399D01*
X386416Y337233D01*
X387582D01*
X388165Y337816D01*
Y338982D01*
X387582Y339565D01*
X386999D01*
X386416Y338982D01*
Y337233D01*
X377249Y336066D02*
X376666Y335483D01*
Y334317D01*
X377249Y333734D01*
X379582D01*
X380165Y334317D01*
Y335483D01*
X379582Y336066D01*
X376666Y339565D02*
Y337233D01*
X378416D01*
X377833Y338399D01*
Y338982D01*
X378416Y339565D01*
X379582D01*
X380165Y338982D01*
Y337816D01*
X379582Y337233D01*
X369249Y336066D02*
X368666Y335483D01*
Y334317D01*
X369249Y333734D01*
X371582D01*
X372165Y334317D01*
Y335483D01*
X371582Y336066D01*
X372165Y338982D02*
X368666D01*
X370416Y337233D01*
Y339565D01*
X361249Y336066D02*
X360666Y335483D01*
Y334317D01*
X361249Y333734D01*
X363582D01*
X364165Y334317D01*
Y335483D01*
X363582Y336066D01*
X361249Y337233D02*
X360666Y337816D01*
Y338982D01*
X361249Y339565D01*
X361833D01*
X362416Y338982D01*
Y338399D01*
Y338982D01*
X362999Y339565D01*
X363582D01*
X364165Y338982D01*
Y337816D01*
X363582Y337233D01*
X272666Y333649D02*
X272083Y333066D01*
Y331900D01*
X272666Y331317D01*
X274999D01*
X275582Y331900D01*
Y333066D01*
X274999Y333649D01*
X275582Y334816D02*
Y335982D01*
Y335399D01*
X272083D01*
X272666Y334816D01*
M02*
