G04*
G04 #@! TF.GenerationSoftware,Altium Limited,Altium Designer,21.6.4 (81)*
G04*
G04 Layer_Color=8388736*
%FSLAX25Y25*%
%MOIN*%
G70*
G04*
G04 #@! TF.SameCoordinates,13C5D553-5763-431C-9762-CD72675E1F57*
G04*
G04*
G04 #@! TF.FilePolarity,Negative*
G04*
G01*
G75*
%ADD21R,0.06115X0.04737*%
%ADD22O,0.08280X0.02769*%
%ADD23O,0.07880X0.02368*%
%ADD24R,0.04147X0.03556*%
%ADD25R,0.04540X0.04540*%
%ADD26R,0.03556X0.04147*%
%ADD27R,0.03753X0.05721*%
%ADD28R,0.06706X0.06706*%
%ADD29C,0.06706*%
%ADD30R,0.06706X0.06706*%
%ADD31C,0.03359*%
D21*
X282000Y326284D02*
D03*
Y319000D02*
D03*
X274000Y319358D02*
D03*
Y326642D02*
D03*
X378000Y308358D02*
D03*
Y315642D02*
D03*
X386000Y308358D02*
D03*
Y315642D02*
D03*
Y329642D02*
D03*
Y322358D02*
D03*
X396000Y308358D02*
D03*
Y315642D02*
D03*
X404000Y308358D02*
D03*
Y315642D02*
D03*
X362000Y329642D02*
D03*
Y322358D02*
D03*
X370000Y329642D02*
D03*
Y322358D02*
D03*
X378000Y329642D02*
D03*
Y322358D02*
D03*
D22*
X332402Y297087D02*
D03*
Y299646D02*
D03*
Y302205D02*
D03*
Y304764D02*
D03*
Y307323D02*
D03*
Y309882D02*
D03*
Y312441D02*
D03*
Y315000D02*
D03*
Y322677D02*
D03*
Y325236D02*
D03*
Y332913D02*
D03*
Y340591D02*
D03*
X295000Y297087D02*
D03*
Y299646D02*
D03*
Y302205D02*
D03*
Y304764D02*
D03*
Y307323D02*
D03*
Y309882D02*
D03*
Y312441D02*
D03*
Y315000D02*
D03*
Y317559D02*
D03*
Y320118D02*
D03*
Y340591D02*
D03*
D23*
X332402Y317559D02*
D03*
Y320118D02*
D03*
Y327795D02*
D03*
Y330354D02*
D03*
Y335472D02*
D03*
Y338032D02*
D03*
X295000Y322677D02*
D03*
Y325236D02*
D03*
Y327795D02*
D03*
Y330354D02*
D03*
Y332913D02*
D03*
Y335472D02*
D03*
Y338032D02*
D03*
D24*
X375500Y345024D02*
D03*
Y351520D02*
D03*
Y357024D02*
D03*
Y363520D02*
D03*
X356000Y344000D02*
D03*
Y350496D02*
D03*
Y356752D02*
D03*
Y363248D02*
D03*
D25*
X367500Y363224D02*
D03*
Y357319D02*
D03*
X350000Y362953D02*
D03*
Y357047D02*
D03*
D26*
X253752Y353000D02*
D03*
X260248D02*
D03*
X253752Y359000D02*
D03*
X260248D02*
D03*
D27*
X353697Y330177D02*
D03*
X345823D02*
D03*
D28*
X254000Y370000D02*
D03*
D29*
X264000D02*
D03*
X274000D02*
D03*
X284000D02*
D03*
X250000Y320000D02*
D03*
X426000Y318000D02*
D03*
Y308000D02*
D03*
D30*
X250000Y330000D02*
D03*
X426000Y328000D02*
D03*
D31*
X349500Y325049D02*
D03*
X339500Y326500D02*
D03*
X351000Y343500D02*
D03*
X260000Y348000D02*
D03*
M02*
