G04*
G04 #@! TF.GenerationSoftware,Altium Limited,Altium Designer,21.6.4 (81)*
G04*
G04 Layer_Color=16711935*
%FSLAX25Y25*%
%MOIN*%
G70*
G04*
G04 #@! TF.SameCoordinates,13C5D553-5763-431C-9762-CD72675E1F57*
G04*
G04*
G04 #@! TF.FilePolarity,Positive*
G04*
G01*
G75*
%ADD13C,0.01000*%
D13*
X445000Y280000D02*
X445975Y280096D01*
X446913Y280381D01*
X447778Y280843D01*
X448535Y281465D01*
X449157Y282222D01*
X449619Y283087D01*
X449904Y284025D01*
X450000Y285000D01*
Y385000D02*
X449904Y385976D01*
X449619Y386913D01*
X449157Y387778D01*
X448535Y388535D01*
X447778Y389157D01*
X446913Y389619D01*
X445975Y389904D01*
X445000Y390000D01*
X235000D02*
X234025Y389904D01*
X233087Y389619D01*
X232222Y389157D01*
X231465Y388535D01*
X230843Y387778D01*
X230381Y386913D01*
X230096Y385976D01*
X230000Y385000D01*
Y285000D02*
X230096Y284025D01*
X230381Y283087D01*
X230843Y282222D01*
X231465Y281465D01*
X232222Y280843D01*
X233087Y280381D01*
X234025Y280096D01*
X235000Y280000D01*
X450000Y285000D02*
Y385000D01*
X240000Y390000D02*
X445000D01*
X235000D02*
X240000D01*
X230000Y285000D02*
Y385000D01*
X235000Y280000D02*
X445000D01*
M02*
