G04*
G04 #@! TF.GenerationSoftware,Altium Limited,Altium Designer,21.6.1 (37)*
G04*
G04 Layer_Color=32768*
%FSLAX25Y25*%
%MOIN*%
G70*
G04*
G04 #@! TF.SameCoordinates,18844971-8FF4-41C5-970B-CDA0927229B8*
G04*
G04*
G04 #@! TF.FilePolarity,Positive*
G04*
G01*
G75*
%ADD59C,0.00394*%
%ADD60C,0.00200*%
%ADD61C,0.00197*%
D59*
X340158Y240158D02*
X343307D01*
X341732Y238583D02*
Y241732D01*
X327165Y240158D02*
X330315D01*
X328740Y238583D02*
Y241732D01*
X431496Y287402D02*
Y291339D01*
X429528Y289370D02*
X433465D01*
X433858Y234646D02*
Y238583D01*
X431890Y236614D02*
X435827D01*
X430315Y335827D02*
Y339764D01*
X428346Y337795D02*
X432283D01*
X343996Y255118D02*
Y259055D01*
X342028Y257087D02*
X345965D01*
X343701Y268898D02*
Y272835D01*
X341732Y270866D02*
X345669D01*
X492224Y382677D02*
X496161D01*
X494193Y380709D02*
Y384646D01*
X359449Y350394D02*
Y354331D01*
X357480Y352362D02*
X361417D01*
X384032Y337000D02*
X387968D01*
X386000Y335032D02*
Y338968D01*
X494675Y224710D02*
Y228647D01*
X492707Y226678D02*
X496644D01*
X384032Y297500D02*
X387968D01*
X386000Y295532D02*
Y299468D01*
X368531Y290500D02*
X372468D01*
X370500Y288531D02*
Y292469D01*
X344882Y244882D02*
Y248819D01*
X342913Y246850D02*
X346850D01*
X288425Y225000D02*
X291575D01*
X290000Y223425D02*
Y226575D01*
X288677Y233500D02*
X291827D01*
X290252Y231925D02*
Y235075D01*
X290500Y240425D02*
Y243575D01*
X288925Y242000D02*
X292075D01*
X290500Y248425D02*
Y251575D01*
X288925Y250000D02*
X292075D01*
X290500Y257425D02*
Y260575D01*
X288925Y259000D02*
X292075D01*
X290500Y265925D02*
Y269075D01*
X288925Y267500D02*
X292075D01*
X329429Y318110D02*
Y322047D01*
X327461Y320079D02*
X331398D01*
X356000Y335925D02*
Y339075D01*
X354425Y337500D02*
X357575D01*
X361500Y335425D02*
Y338575D01*
X359925Y337000D02*
X363075D01*
X348532Y284500D02*
X352468D01*
X350500Y282531D02*
Y286469D01*
X337531Y294500D02*
X341469D01*
X339500Y292531D02*
Y296468D01*
D60*
X440819Y283177D02*
Y302862D01*
X441409D01*
X468575D01*
Y283177D02*
Y302862D01*
X440819Y283177D02*
X468575D01*
X472181Y306638D02*
Y326323D01*
X471591Y306638D02*
X472181D01*
X444425D02*
X471591D01*
X444425D02*
Y326323D01*
X472181D01*
X443563Y233504D02*
X471319D01*
Y253189D01*
X444153D02*
X471319D01*
X443563D02*
X444153D01*
X443563Y233504D02*
Y253189D01*
X440319Y333677D02*
Y353362D01*
X440909D01*
X468075D01*
Y333677D02*
Y353362D01*
X440319Y333677D02*
X468075D01*
X472181Y356638D02*
Y376323D01*
X471591Y356638D02*
X472181D01*
X444425D02*
X471591D01*
X444425D02*
Y376323D01*
X472181D01*
X444925Y276323D02*
X472681D01*
X444925Y256638D02*
Y276323D01*
Y256638D02*
X472090D01*
X472681D01*
Y276323D01*
D61*
X344284Y296307D02*
Y324850D01*
X372827D01*
Y296307D02*
Y324850D01*
X344284Y296307D02*
X372827D01*
X424409Y309350D02*
Y311713D01*
X423228Y310531D02*
X425591D01*
X416732Y325492D02*
X432087D01*
X416732Y295571D02*
Y325492D01*
Y295571D02*
X432087D01*
Y325492D01*
X420079Y362205D02*
Y364567D01*
X418898Y363386D02*
X421260D01*
X412402Y348425D02*
X427756D01*
Y378346D01*
X412402D02*
X427756D01*
X412402Y348425D02*
Y378346D01*
X403346Y240945D02*
Y270866D01*
X418701D01*
Y240945D02*
Y270866D01*
X403346Y240945D02*
X418701D01*
X409842Y255906D02*
X412205D01*
X411024Y254724D02*
Y257087D01*
X346850Y237992D02*
Y242323D01*
X336614Y237992D02*
Y242323D01*
Y237992D02*
X346850D01*
X336614Y242323D02*
X346850D01*
X333858Y237992D02*
Y242323D01*
X323622Y237992D02*
Y242323D01*
Y237992D02*
X333858D01*
X323622Y242323D02*
X333858D01*
X422835Y283465D02*
X440158D01*
X422835Y295276D02*
X440158D01*
Y283465D02*
Y295276D01*
X422835Y283465D02*
Y295276D01*
X425197Y242520D02*
X442520D01*
X425197Y230709D02*
X442520D01*
X425197D02*
Y242520D01*
X442520Y230709D02*
Y242520D01*
X421654Y331890D02*
X438976D01*
X421654Y343701D02*
X438976D01*
Y331890D02*
Y343701D01*
X421654Y331890D02*
Y343701D01*
X335335Y251181D02*
X352658D01*
X335335Y262992D02*
X352658D01*
Y251181D02*
Y262992D01*
X335335Y251181D02*
Y262992D01*
X335039Y276772D02*
X352362D01*
X335039Y264961D02*
X352362D01*
X335039D02*
Y276772D01*
X352362Y264961D02*
Y276772D01*
X488000Y256000D02*
X519500D01*
Y320000D01*
X488000D02*
X519500D01*
X488000Y256000D02*
Y320000D01*
X476279Y368701D02*
Y396457D01*
X512106Y368701D02*
Y396457D01*
X476279D02*
X512106D01*
X476279Y368701D02*
X512106D01*
X353346Y355512D02*
X365551D01*
X353346Y349213D02*
X365551D01*
X353346D02*
Y355512D01*
X365551Y349213D02*
Y355512D01*
X379898Y333850D02*
Y340150D01*
X392102Y333850D02*
Y340150D01*
X379898D02*
X392102D01*
X379898Y333850D02*
X392102D01*
X476762Y212702D02*
X512589D01*
X476762Y240458D02*
X512589D01*
Y212702D02*
Y240458D01*
X476762Y212702D02*
Y240458D01*
X487000Y322000D02*
Y366000D01*
X519000D01*
Y322000D02*
Y366000D01*
X487000Y322000D02*
X519000D01*
X389150Y291398D02*
Y303602D01*
X382850Y291398D02*
Y303602D01*
X389150D01*
X382850Y291398D02*
X389150D01*
X376602Y287350D02*
Y293650D01*
X364398Y287350D02*
Y293650D01*
Y287350D02*
X376602D01*
X364398Y293650D02*
X376602D01*
X338779Y250000D02*
X350984D01*
X338779Y243701D02*
X350984D01*
X338779D02*
Y250000D01*
X350984Y243701D02*
Y250000D01*
X295118Y222835D02*
Y227165D01*
X284882Y222835D02*
Y227165D01*
Y222835D02*
X295118D01*
X284882Y227165D02*
X295118D01*
X285134Y231335D02*
Y235665D01*
X295370Y231335D02*
Y235665D01*
X285134D02*
X295370D01*
X285134Y231335D02*
X295370D01*
X285382Y244165D02*
X295618D01*
X285382Y239835D02*
X295618D01*
X285382D02*
Y244165D01*
X295618Y239835D02*
Y244165D01*
X285382Y247835D02*
X295618D01*
X285382Y252165D02*
X295618D01*
Y247835D02*
Y252165D01*
X285382Y247835D02*
Y252165D01*
Y261165D02*
X295618D01*
X285382Y256835D02*
X295618D01*
X285382D02*
Y261165D01*
X295618Y256835D02*
Y261165D01*
X285382Y265335D02*
X295618D01*
X285382Y269665D02*
X295618D01*
Y265335D02*
Y269665D01*
X285382Y265335D02*
Y269665D01*
X323327Y316929D02*
X335531D01*
X323327Y323228D02*
X335531D01*
Y316929D02*
Y323228D01*
X323327Y316929D02*
Y323228D01*
X353835Y332382D02*
X358165D01*
X353835Y342618D02*
X358165D01*
X353835Y332382D02*
Y342618D01*
X358165Y332382D02*
Y342618D01*
X359335Y331882D02*
X363665D01*
X359335Y342118D02*
X363665D01*
X359335Y331882D02*
Y342118D01*
X363665Y331882D02*
Y342118D01*
X347350Y278398D02*
Y290602D01*
X353650Y278398D02*
Y290602D01*
X347350Y278398D02*
X353650D01*
X347350Y290602D02*
X353650D01*
X342650Y288398D02*
Y300602D01*
X336350Y288398D02*
Y300602D01*
X342650D01*
X336350Y288398D02*
X342650D01*
M02*
