G04*
G04 #@! TF.GenerationSoftware,Altium Limited,Altium Designer,20.1.11 (218)*
G04*
G04 Layer_Color=32768*
%FSLAX25Y25*%
%MOIN*%
G70*
G04*
G04 #@! TF.SameCoordinates,065DB7FD-4843-4C92-90AC-568386BA0B10*
G04*
G04*
G04 #@! TF.FilePolarity,Positive*
G04*
G01*
G75*
%ADD27C,0.00394*%
%ADD28C,0.00197*%
D27*
X220000Y150531D02*
Y154469D01*
X218032Y152500D02*
X221969D01*
X205031Y172358D02*
X208968D01*
X207000Y170390D02*
Y174327D01*
X194032Y172500D02*
X197968D01*
X196000Y170531D02*
Y174469D01*
X153032Y175000D02*
X156968D01*
X155000Y173031D02*
Y176969D01*
D28*
X213327Y189331D02*
X241673D01*
X213327Y155669D02*
Y189331D01*
Y155669D02*
X241673D01*
Y189331D01*
X160827D02*
X189173D01*
X160827Y155669D02*
Y189331D01*
Y155669D02*
X189173D01*
Y189331D01*
X213307Y148760D02*
X226693D01*
X213307Y156240D02*
X226693D01*
Y148760D02*
Y156240D01*
X213307Y148760D02*
Y156240D01*
X210740Y165665D02*
Y179051D01*
X203260Y165665D02*
Y179051D01*
X210740D01*
X203260Y165665D02*
X210740D01*
X199740Y165807D02*
Y179193D01*
X192260Y165807D02*
Y179193D01*
X199740D01*
X192260Y165807D02*
X199740D01*
X158740Y168307D02*
Y181693D01*
X151260Y168307D02*
Y181693D01*
X158740D01*
X151260Y168307D02*
X158740D01*
M02*
