M48
;Layer_Color=9474304
;FILE_FORMAT=2:5
INCH,TZ
;TYPE=PLATED
T1F00S00C0.01575
T2F00S00C0.03543
%
T01
X166500Y128500
X199000Y132500
Y138000
T02
X150000Y110000
X160000
X180000
X190000
X200000
X230000
Y120000
Y130000
Y150000
Y160000
Y170000
Y190000
Y200000
Y210000
X180000
X170000
X150000
Y200000
Y190000
Y180000
Y170000
Y160000
M30
