G04*
G04 #@! TF.GenerationSoftware,Altium Limited,Altium Designer,20.1.11 (218)*
G04*
G04 Layer_Color=32768*
%FSLAX25Y25*%
%MOIN*%
G70*
G04*
G04 #@! TF.SameCoordinates,347E647A-96CB-41B1-9455-37820EC3F16A*
G04*
G04*
G04 #@! TF.FilePolarity,Positive*
G04*
G01*
G75*
%ADD11C,0.00394*%
%ADD29C,0.00197*%
D11*
X135000Y170531D02*
Y174469D01*
X133031Y172500D02*
X136969D01*
X107500Y173425D02*
Y176575D01*
X105925Y175000D02*
X109075D01*
X114288Y173525D02*
Y176675D01*
X112713Y175100D02*
X115863D01*
X172500Y148031D02*
Y151969D01*
X170531Y150000D02*
X174469D01*
X172500Y155532D02*
Y159468D01*
X170531Y157500D02*
X174469D01*
X145531Y172500D02*
X149469D01*
X147500Y170531D02*
Y174469D01*
X121848Y169957D02*
X125785D01*
X123816Y167988D02*
Y171925D01*
D29*
X127913Y180768D02*
X142087D01*
X127913Y164232D02*
X142087D01*
Y180768D01*
X127913Y164232D02*
Y180768D01*
X104744Y169291D02*
X110256D01*
X104744Y180709D02*
X110256D01*
X104744Y169291D02*
Y180709D01*
X110256Y169291D02*
Y180709D01*
X111532Y169392D02*
X117044D01*
X111532Y180809D02*
X117044D01*
X111532Y169392D02*
Y180809D01*
X117044Y169392D02*
Y180809D01*
X165807Y153740D02*
X179193D01*
X165807Y146260D02*
X179193D01*
X165807D02*
Y153740D01*
X179193Y146260D02*
Y153740D01*
X165807Y161240D02*
X179193D01*
X165807Y153760D02*
X179193D01*
X165807D02*
Y161240D01*
X179193Y153760D02*
Y161240D01*
X151240Y165807D02*
Y179193D01*
X143760Y165807D02*
Y179193D01*
X151240D01*
X143760Y165807D02*
X151240D01*
X120076Y163264D02*
Y176650D01*
X127556Y163264D02*
Y176650D01*
X120076Y163264D02*
X127556D01*
X120076Y176650D02*
X127556D01*
M02*
