G04*
G04 #@! TF.GenerationSoftware,Altium Limited,Altium Designer,20.2.6 (244)*
G04*
G04 Layer_Physical_Order=2*
G04 Layer_Color=16711680*
%FSLAX25Y25*%
%MOIN*%
G70*
G04*
G04 #@! TF.SameCoordinates,DFA1C72D-2ED7-4C31-8EA1-ECB50900EFAB*
G04*
G04*
G04 #@! TF.FilePolarity,Positive*
G04*
G01*
G75*
%ADD13C,0.01000*%
%ADD42R,0.05906X0.05906*%
%ADD43C,0.05906*%
%ADD44C,0.23622*%
%ADD45O,0.07874X0.09449*%
%ADD46C,0.09449*%
%ADD47R,0.09449X0.09449*%
%ADD48C,0.01968*%
%ADD49C,0.02362*%
G36*
X225000Y31795D02*
X224166Y31450D01*
X222447Y30396D01*
X220913Y29087D01*
X219604Y27553D01*
X218550Y25834D01*
X217778Y23971D01*
X217308Y22010D01*
X217149Y20000D01*
X217308Y17990D01*
X217778Y16029D01*
X218550Y14166D01*
X219604Y12447D01*
X220913Y10913D01*
X221433Y10469D01*
X221260Y10000D01*
X10000Y10000D01*
X10000Y65000D01*
X225000Y65000D01*
X225000Y31795D01*
D02*
G37*
%LPC*%
G36*
X15000Y53987D02*
X13968Y53851D01*
X13007Y53453D01*
X12181Y52819D01*
X11547Y51993D01*
X11149Y51032D01*
X11013Y50000D01*
X11149Y48968D01*
X11547Y48007D01*
X12181Y47181D01*
X13007Y46547D01*
X13968Y46149D01*
X15000Y46013D01*
X16032Y46149D01*
X16993Y46547D01*
X17819Y47181D01*
X18453Y48007D01*
X18851Y48968D01*
X18987Y50000D01*
X18851Y51032D01*
X18453Y51993D01*
X17819Y52819D01*
X16993Y53453D01*
X16032Y53851D01*
X15000Y53987D01*
D02*
G37*
G36*
X110864Y46386D02*
X110590Y46331D01*
X109934Y45893D01*
X109697Y45538D01*
X109095D01*
X108858Y45893D01*
X108202Y46331D01*
X107927Y46386D01*
Y44462D01*
X107427D01*
Y43962D01*
X105504D01*
X105558Y43688D01*
X105997Y43032D01*
X106352Y42794D01*
Y42193D01*
X105997Y41956D01*
X105558Y41300D01*
X105504Y41025D01*
X107427D01*
Y40525D01*
X107927D01*
Y38602D01*
X108202Y38656D01*
X108858Y39095D01*
X109095Y39450D01*
X109697D01*
X109934Y39095D01*
X110590Y38656D01*
X110864Y38602D01*
Y40525D01*
X111364D01*
Y41025D01*
X113288D01*
X113234Y41300D01*
X112795Y41956D01*
X112440Y42193D01*
Y42794D01*
X112795Y43032D01*
X113234Y43688D01*
X113288Y43962D01*
X111364D01*
Y44462D01*
X110864D01*
Y46386D01*
D02*
G37*
G36*
X55903Y46676D02*
Y45052D01*
X57527D01*
X57457Y45403D01*
X56975Y46124D01*
X56254Y46606D01*
X55903Y46676D01*
D02*
G37*
G36*
X54903D02*
X54552Y46606D01*
X53830Y46124D01*
X53348Y45403D01*
X53278Y45052D01*
X54903D01*
Y46676D01*
D02*
G37*
G36*
X111864Y46386D02*
Y44962D01*
X113288D01*
X113234Y45237D01*
X112795Y45893D01*
X112139Y46331D01*
X111864Y46386D01*
D02*
G37*
G36*
X106927D02*
X106653Y46331D01*
X105997Y45893D01*
X105558Y45237D01*
X105504Y44962D01*
X106927D01*
Y46386D01*
D02*
G37*
G36*
X57527Y44052D02*
X55903D01*
Y42427D01*
X56254Y42497D01*
X56975Y42979D01*
X57457Y43701D01*
X57527Y44052D01*
D02*
G37*
G36*
X54903D02*
X53278D01*
X53348Y43701D01*
X53830Y42979D01*
X54552Y42497D01*
X54903Y42427D01*
Y44052D01*
D02*
G37*
G36*
X134569Y45221D02*
X133718Y45052D01*
X132997Y44569D01*
X132515Y43848D01*
X132345Y42997D01*
X132355Y42946D01*
X125537Y36127D01*
X124999Y36486D01*
X124148Y36655D01*
X123297Y36486D01*
X122576Y36004D01*
X122094Y35282D01*
X121924Y34431D01*
X122094Y33580D01*
X122576Y32859D01*
X123297Y32377D01*
X124148Y32208D01*
X124999Y32377D01*
X125721Y32859D01*
X125750Y32902D01*
X126004D01*
X126589Y33018D01*
X127085Y33350D01*
X134518Y40783D01*
X134569Y40773D01*
X135420Y40942D01*
X136142Y41424D01*
X136624Y42146D01*
X136793Y42997D01*
X136624Y43848D01*
X136142Y44569D01*
X135420Y45052D01*
X134569Y45221D01*
D02*
G37*
G36*
X18953Y43953D02*
X15500D01*
Y40500D01*
X18953D01*
Y43953D01*
D02*
G37*
G36*
X14500D02*
X11047D01*
Y40500D01*
X14500D01*
Y43953D01*
D02*
G37*
G36*
X113288Y40025D02*
X111864D01*
Y38602D01*
X112139Y38656D01*
X112795Y39095D01*
X113234Y39751D01*
X113288Y40025D01*
D02*
G37*
G36*
X106927D02*
X105504D01*
X105558Y39751D01*
X105997Y39095D01*
X106653Y38656D01*
X106927Y38602D01*
Y40025D01*
D02*
G37*
G36*
X18953Y39500D02*
X15500D01*
Y36047D01*
X18953D01*
Y39500D01*
D02*
G37*
G36*
X14500D02*
X11047D01*
Y36047D01*
X14500D01*
Y39500D01*
D02*
G37*
%LPD*%
D13*
X126004Y34431D02*
X134569Y42997D01*
X124148Y34431D02*
X126004D01*
X134569Y42997D02*
X134569D01*
D42*
X14396Y97494D02*
D03*
X15000Y40000D02*
D03*
D43*
X14396Y87494D02*
D03*
X15000Y50000D02*
D03*
D44*
X230000Y20000D02*
D03*
X20000Y220000D02*
D03*
D45*
X140157Y200118D02*
D03*
X159843D02*
D03*
X179842D02*
D03*
X189842D02*
D03*
X120158D02*
D03*
X110630D02*
D03*
D46*
X174843Y119882D02*
D03*
X125157D02*
D03*
X110236D02*
D03*
D47*
X189842D02*
D03*
D48*
X107427Y40525D02*
D03*
Y44462D02*
D03*
X111364D02*
D03*
Y40525D02*
D03*
D49*
X124148Y34431D02*
D03*
X134569Y42997D02*
D03*
X55403Y44552D02*
D03*
M02*
