G04*
G04 #@! TF.GenerationSoftware,Altium Limited,Altium Designer,20.2.6 (244)*
G04*
G04 Layer_Color=8388736*
%FSLAX25Y25*%
%MOIN*%
G70*
G04*
G04 #@! TF.SameCoordinates,DFA1C72D-2ED7-4C31-8EA1-ECB50900EFAB*
G04*
G04*
G04 #@! TF.FilePolarity,Negative*
G04*
G01*
G75*
%ADD23R,0.04737X0.06115*%
%ADD24R,0.03556X0.04147*%
%ADD25R,0.06115X0.04737*%
%ADD26R,0.04737X0.03556*%
G04:AMPARAMS|DCode=27|XSize=47.37mil|YSize=47.37mil|CornerRadius=13.84mil|HoleSize=0mil|Usage=FLASHONLY|Rotation=90.000|XOffset=0mil|YOffset=0mil|HoleType=Round|Shape=RoundedRectangle|*
%AMROUNDEDRECTD27*
21,1,0.04737,0.01968,0,0,90.0*
21,1,0.01968,0.04737,0,0,90.0*
1,1,0.02769,0.00984,0.00984*
1,1,0.02769,0.00984,-0.00984*
1,1,0.02769,-0.00984,-0.00984*
1,1,0.02769,-0.00984,0.00984*
%
%ADD27ROUNDEDRECTD27*%
%ADD28R,0.04343X0.01784*%
%ADD29R,0.10603X0.12611*%
%ADD30R,0.04147X0.03556*%
%ADD31R,0.06706X0.06706*%
%ADD32C,0.06706*%
%ADD33C,0.24422*%
%ADD34O,0.08674X0.10249*%
%ADD35C,0.10249*%
%ADD36R,0.10249X0.10249*%
%ADD37C,0.02769*%
D23*
X188038Y57494D02*
D03*
X180754D02*
D03*
X179562Y24202D02*
D03*
X186846D02*
D03*
D24*
X180940Y39068D02*
D03*
X187436D02*
D03*
X163799Y57494D02*
D03*
X170295D02*
D03*
X60526Y44390D02*
D03*
X67022D02*
D03*
D25*
X54337Y88421D02*
D03*
Y95704D02*
D03*
X149396Y38852D02*
D03*
Y46136D02*
D03*
X134396Y57494D02*
D03*
Y50210D02*
D03*
X135000Y26358D02*
D03*
Y33642D02*
D03*
X90000Y21358D02*
D03*
Y28642D02*
D03*
X35000Y42717D02*
D03*
Y50000D02*
D03*
D26*
X101594Y95000D02*
D03*
X88406D02*
D03*
D27*
X135000Y75000D02*
D03*
X218912Y57536D02*
D03*
D28*
X101935Y47415D02*
D03*
Y45447D02*
D03*
Y43478D02*
D03*
Y41510D02*
D03*
Y39541D02*
D03*
Y37573D02*
D03*
X116857Y47415D02*
D03*
Y45447D02*
D03*
Y43478D02*
D03*
Y41510D02*
D03*
Y39541D02*
D03*
Y37573D02*
D03*
D29*
X109396Y42494D02*
D03*
D30*
X50000Y50000D02*
D03*
Y43504D02*
D03*
X149396Y23874D02*
D03*
Y30370D02*
D03*
X77305Y43504D02*
D03*
Y50000D02*
D03*
D31*
X14396Y97494D02*
D03*
X15000Y40000D02*
D03*
D32*
X14396Y87494D02*
D03*
X15000Y50000D02*
D03*
D33*
X230000Y20000D02*
D03*
X20000Y220000D02*
D03*
D34*
X140157Y200118D02*
D03*
X159843D02*
D03*
X179842D02*
D03*
X189842D02*
D03*
X120158D02*
D03*
X110630D02*
D03*
D35*
X174843Y119882D02*
D03*
X125157D02*
D03*
X110236D02*
D03*
D36*
X189842D02*
D03*
D37*
X107427Y40525D02*
D03*
Y44462D02*
D03*
X111364D02*
D03*
Y40525D02*
D03*
M02*
