M48
;Layer_Color=9474304
;FILE_FORMAT=2:5
INCH,TZ
;TYPE=PLATED
T1F00S00C0.00787
T2F00S00C0.01181
T3F00S00C0.03543
T4F00S00C0.06299
T5F00S00C0.11811
%
T01
X107427Y40525
Y44462
X111364
Y40525
T02
X55403Y44552
X124148Y34431
X134569Y42997
T03
X15000Y40000
Y50000
X14396Y87494
Y97494
T04
X110236Y119882
X125157
X174843
X189842
Y200118
X179842
X159843
X140157
X120158
X110630
T05
X230000Y20000
X20000Y220000
M30
