G04*
G04 #@! TF.GenerationSoftware,Altium Limited,Altium Designer,20.2.6 (244)*
G04*
G04 Layer_Color=32768*
%FSLAX25Y25*%
%MOIN*%
G70*
G04*
G04 #@! TF.SameCoordinates,DFA1C72D-2ED7-4C31-8EA1-ECB50900EFAB*
G04*
G04*
G04 #@! TF.FilePolarity,Positive*
G04*
G01*
G75*
%ADD52C,0.00394*%
%ADD53C,0.00197*%
D52*
X182427Y57494D02*
X186364D01*
X184396Y55525D02*
Y59462D01*
X182613Y39068D02*
X185763D01*
X184188Y37494D02*
Y40643D01*
X181235Y24202D02*
X185172D01*
X183204Y22233D02*
Y26171D01*
X54337Y90094D02*
Y94031D01*
X52368Y92063D02*
X56305D01*
X93032Y95000D02*
X96969D01*
X95000Y93032D02*
Y96969D01*
X165472Y57494D02*
X168622D01*
X167047Y55919D02*
Y59069D01*
X149396Y40525D02*
Y44462D01*
X147427Y42494D02*
X151365D01*
X107427D02*
X111364D01*
X109396Y40525D02*
Y44462D01*
X134396Y51884D02*
Y55821D01*
X132427Y53852D02*
X136364D01*
X50000Y45177D02*
Y48327D01*
X48425Y46752D02*
X51575D01*
X149396Y25547D02*
Y28697D01*
X147821Y27122D02*
X150971D01*
X135000Y28032D02*
Y31969D01*
X133031Y30000D02*
X136969D01*
X90000Y23031D02*
Y26969D01*
X88032Y25000D02*
X91969D01*
X62199Y44390D02*
X65349D01*
X63774Y42815D02*
Y45965D01*
X77305Y45177D02*
Y48327D01*
X75730Y46752D02*
X78879D01*
X35000Y44390D02*
Y48327D01*
X33031Y46358D02*
X36968D01*
D53*
X191089Y53754D02*
Y61234D01*
X177703Y53754D02*
Y61234D01*
Y53754D02*
X191089D01*
X177703Y61234D02*
X191089D01*
X178479Y36312D02*
Y41824D01*
X189897Y36312D02*
Y41824D01*
X178479D02*
X189897D01*
X178479Y36312D02*
X189897D01*
X176511Y20462D02*
Y27942D01*
X189897Y20462D02*
Y27942D01*
X176511D02*
X189897D01*
X176511Y20462D02*
X189897D01*
X50597Y85370D02*
X58077D01*
X50597Y98756D02*
X58077D01*
X50597Y85370D02*
Y98756D01*
X58077Y85370D02*
Y98756D01*
X104055Y91063D02*
Y98937D01*
X85945Y91063D02*
Y98937D01*
Y91063D02*
X104055D01*
X85945Y98937D02*
X104055D01*
X161339Y54738D02*
Y60250D01*
X172756Y54738D02*
Y60250D01*
X161339D02*
X172756D01*
X161339Y54738D02*
X172756D01*
X145656Y35801D02*
X153136D01*
X145656Y49187D02*
X153136D01*
X145656Y35801D02*
Y49187D01*
X153136Y35801D02*
Y49187D01*
X99140Y33439D02*
Y51549D01*
X119652Y33439D02*
Y51549D01*
X99140D02*
X119652D01*
X99140Y33439D02*
X119652D01*
X130656Y60545D02*
X138136D01*
X130656Y47159D02*
X138136D01*
Y60545D01*
X130656Y47159D02*
Y60545D01*
X47244Y52461D02*
X52756D01*
X47244Y41043D02*
X52756D01*
Y52461D01*
X47244Y41043D02*
Y52461D01*
X146640Y21413D02*
X152152D01*
X146640Y32831D02*
X152152D01*
X146640Y21413D02*
Y32831D01*
X152152Y21413D02*
Y32831D01*
X131260Y23307D02*
X138740D01*
X131260Y36693D02*
X138740D01*
X131260Y23307D02*
Y36693D01*
X138740Y23307D02*
Y36693D01*
X86260Y18307D02*
X93740D01*
X86260Y31693D02*
X93740D01*
X86260Y18307D02*
Y31693D01*
X93740Y18307D02*
Y31693D01*
X150000Y158031D02*
Y161969D01*
X148031Y160000D02*
X151969D01*
X197835Y104921D02*
Y215079D01*
X102165Y104921D02*
X197835D01*
X102165D02*
Y215079D01*
X197835D01*
X58065Y41634D02*
Y47146D01*
X69482Y41634D02*
Y47146D01*
X58065D02*
X69482D01*
X58065Y41634D02*
X69482D01*
X74549Y41043D02*
X80060D01*
X74549Y52461D02*
X80060D01*
X74549Y41043D02*
Y52461D01*
X80060Y41043D02*
Y52461D01*
X31260Y39665D02*
X38740D01*
X31260Y53051D02*
X38740D01*
X31260Y39665D02*
Y53051D01*
X38740Y39665D02*
Y53051D01*
M02*
