G04*
G04 #@! TF.GenerationSoftware,Altium Limited,Altium Designer,20.2.6 (244)*
G04*
G04 Layer_Color=65535*
%FSLAX25Y25*%
%MOIN*%
G70*
G04*
G04 #@! TF.SameCoordinates,DFA1C72D-2ED7-4C31-8EA1-ECB50900EFAB*
G04*
G04*
G04 #@! TF.FilePolarity,Positive*
G04*
G01*
G75*
%ADD10C,0.00394*%
%ADD11C,0.01968*%
%ADD12C,0.00787*%
%ADD13C,0.01000*%
%ADD14C,0.00600*%
G36*
X56554Y216073D02*
X56685D01*
Y215941D01*
X56816D01*
Y215810D01*
X56947D01*
Y215679D01*
Y215548D01*
Y215417D01*
Y215285D01*
Y215154D01*
Y215023D01*
Y214892D01*
Y214761D01*
X57078D01*
Y214630D01*
Y214498D01*
Y214367D01*
Y214236D01*
Y214105D01*
Y213973D01*
Y213842D01*
Y213711D01*
Y213580D01*
X57210D01*
Y213449D01*
Y213317D01*
Y213186D01*
Y213055D01*
Y212924D01*
X57341D01*
Y212793D01*
Y212662D01*
Y212530D01*
Y212399D01*
Y212268D01*
Y212137D01*
Y212005D01*
Y211874D01*
Y211743D01*
Y211612D01*
X57472D01*
Y211481D01*
Y211350D01*
Y211218D01*
Y211087D01*
Y210956D01*
Y210825D01*
Y210694D01*
X57603D01*
Y210562D01*
Y210431D01*
Y210300D01*
Y210169D01*
Y210037D01*
Y209906D01*
X57734D01*
Y209775D01*
Y209644D01*
Y209513D01*
Y209382D01*
Y209250D01*
Y209119D01*
X57866D01*
Y208988D01*
Y208857D01*
Y208726D01*
X57997D01*
Y208594D01*
Y208463D01*
Y208332D01*
Y208201D01*
X58128D01*
Y208069D01*
Y207938D01*
Y207807D01*
X58259D01*
Y207676D01*
Y207545D01*
Y207414D01*
Y207282D01*
X58390D01*
Y207151D01*
Y207020D01*
Y206889D01*
Y206757D01*
Y206626D01*
X58522D01*
Y206495D01*
Y206364D01*
Y206233D01*
X58653D01*
Y206101D01*
Y205970D01*
Y205839D01*
Y205708D01*
X58784D01*
Y205577D01*
Y205446D01*
X58915D01*
Y205314D01*
Y205183D01*
Y205052D01*
Y204921D01*
X59046D01*
Y204789D01*
Y204658D01*
X59178D01*
Y204527D01*
Y204396D01*
X59309D01*
Y204265D01*
Y204134D01*
Y204002D01*
X59440D01*
Y203871D01*
Y203740D01*
X59571D01*
Y203609D01*
Y203478D01*
X59702D01*
Y203346D01*
X59571D01*
Y203478D01*
X59440D01*
Y203609D01*
Y203740D01*
X59309D01*
Y203871D01*
X59178D01*
Y204002D01*
X59046D01*
Y204134D01*
X58915D01*
Y204265D01*
X58784D01*
Y204396D01*
X58653D01*
Y204527D01*
Y204658D01*
X58522D01*
Y204789D01*
X58390D01*
Y204921D01*
X58259D01*
Y205052D01*
X58128D01*
Y205183D01*
Y205314D01*
X57997D01*
Y205446D01*
X57866D01*
Y205577D01*
Y205708D01*
X57734D01*
Y205839D01*
X57603D01*
Y205970D01*
X57472D01*
Y206101D01*
X57341D01*
Y206233D01*
X57210D01*
Y206364D01*
Y206495D01*
Y206626D01*
X57078D01*
Y206757D01*
X56947D01*
Y206889D01*
Y207020D01*
X56816D01*
Y207151D01*
Y207282D01*
X56685D01*
Y207414D01*
X56554D01*
Y207545D01*
Y207676D01*
X56422D01*
Y207807D01*
Y207938D01*
X56291D01*
Y208069D01*
X56160D01*
Y208201D01*
Y208332D01*
X56029D01*
Y208463D01*
X55898D01*
Y208594D01*
Y208726D01*
X55635D01*
Y208857D01*
Y208988D01*
X55504D01*
Y209119D01*
X55373D01*
Y209250D01*
X55242D01*
Y209382D01*
X55110D01*
Y209513D01*
X54979D01*
Y209644D01*
X54848D01*
Y209775D01*
Y209906D01*
X54717D01*
Y210037D01*
X54586D01*
Y210169D01*
X54454D01*
Y210300D01*
X54323D01*
Y210431D01*
X54192D01*
Y210562D01*
X54061D01*
Y210694D01*
Y210825D01*
X53930D01*
Y210956D01*
Y211087D01*
X53667D01*
Y211218D01*
X53536D01*
Y211350D01*
Y211481D01*
X53405D01*
Y211612D01*
X53274D01*
Y211743D01*
Y211874D01*
X53142D01*
Y212005D01*
X53011D01*
Y212137D01*
X52880D01*
Y212268D01*
Y212399D01*
X52618D01*
Y212530D01*
Y212662D01*
X52486D01*
Y212793D01*
X52355D01*
Y212924D01*
X52224D01*
Y213055D01*
X52093D01*
Y213186D01*
Y213317D01*
X51962D01*
Y213449D01*
X51830D01*
Y213580D01*
X51699D01*
Y213711D01*
Y213842D01*
Y213973D01*
X51962D01*
Y213842D01*
X52224D01*
Y213711D01*
X52355D01*
Y213580D01*
Y213449D01*
X52486D01*
Y213317D01*
X52618D01*
Y213186D01*
Y213055D01*
X52880D01*
Y212924D01*
Y212793D01*
X53011D01*
Y212662D01*
X53142D01*
Y212530D01*
X53274D01*
Y212399D01*
Y212268D01*
X53405D01*
Y212137D01*
X53536D01*
Y212005D01*
Y211874D01*
X53798D01*
Y211743D01*
X53930D01*
Y211612D01*
X54061D01*
Y211481D01*
Y211350D01*
X54192D01*
Y211218D01*
Y211087D01*
X54454D01*
Y210956D01*
X54586D01*
Y210825D01*
X54717D01*
Y210694D01*
X54848D01*
Y210562D01*
X54979D01*
Y210431D01*
X55242D01*
Y210300D01*
X55373D01*
Y210169D01*
X55635D01*
Y210037D01*
X55766D01*
Y209906D01*
X55898D01*
Y209775D01*
Y209644D01*
X56029D01*
Y209513D01*
Y209382D01*
X56160D01*
Y209250D01*
Y209119D01*
X56291D01*
Y208988D01*
X56816D01*
Y209119D01*
Y209250D01*
Y209382D01*
Y209513D01*
Y209644D01*
Y209775D01*
X56685D01*
Y209906D01*
Y210037D01*
Y210169D01*
Y210300D01*
X56554D01*
Y210431D01*
Y210562D01*
Y210694D01*
Y210825D01*
X56422D01*
Y210956D01*
Y211087D01*
Y211218D01*
Y211350D01*
Y211481D01*
Y211612D01*
Y211743D01*
Y211874D01*
Y212005D01*
Y212137D01*
Y212268D01*
X56291D01*
Y212399D01*
Y212530D01*
Y212662D01*
Y212793D01*
Y212924D01*
Y213055D01*
Y213186D01*
Y213317D01*
Y213449D01*
Y213580D01*
Y213711D01*
Y213842D01*
Y213973D01*
Y214105D01*
Y214236D01*
Y214367D01*
Y214498D01*
Y214630D01*
Y214761D01*
X56160D01*
Y214892D01*
Y215023D01*
Y215154D01*
Y215285D01*
Y215417D01*
Y215548D01*
Y215679D01*
Y215810D01*
Y215941D01*
Y216073D01*
Y216204D01*
X56554D01*
Y216073D01*
D02*
G37*
G36*
X69280Y207807D02*
X69411D01*
Y207676D01*
Y207545D01*
Y207414D01*
X69542D01*
Y207282D01*
X69411D01*
Y207151D01*
Y207020D01*
Y206889D01*
X69280D01*
Y206757D01*
Y206626D01*
X69149D01*
Y206495D01*
Y206364D01*
Y206233D01*
X69018D01*
Y206364D01*
X68886D01*
Y206495D01*
Y206626D01*
Y206757D01*
X68755D01*
Y206889D01*
Y207020D01*
X68886D01*
Y207151D01*
Y207282D01*
Y207414D01*
Y207545D01*
X69018D01*
Y207676D01*
Y207807D01*
X69149D01*
Y207938D01*
X69280D01*
Y207807D01*
D02*
G37*
G36*
X56160Y206101D02*
X56291D01*
Y205970D01*
Y205839D01*
X56422D01*
Y205708D01*
X56554D01*
Y205577D01*
Y205446D01*
X56685D01*
Y205314D01*
Y205183D01*
Y205052D01*
X56554D01*
Y205183D01*
Y205314D01*
X56422D01*
Y205446D01*
X56291D01*
Y205577D01*
X56160D01*
Y205708D01*
Y205839D01*
X56029D01*
Y205970D01*
Y206101D01*
Y206233D01*
X56160D01*
Y206101D01*
D02*
G37*
G36*
X79514Y204527D02*
Y204396D01*
X79382D01*
Y204265D01*
X79120D01*
Y204134D01*
X78989D01*
Y204002D01*
X78858D01*
Y204134D01*
Y204265D01*
X78989D01*
Y204396D01*
X79251D01*
Y204527D01*
Y204658D01*
X79514D01*
Y204527D01*
D02*
G37*
G36*
X56291Y204002D02*
X56422D01*
Y203871D01*
Y203740D01*
X56554D01*
Y203609D01*
X56685D01*
Y203478D01*
X56816D01*
Y203346D01*
Y203215D01*
X56947D01*
Y203084D01*
X56291D01*
Y203215D01*
X55635D01*
Y203346D01*
X54717D01*
Y203478D01*
X53667D01*
Y203609D01*
X53405D01*
Y203740D01*
X53274D01*
Y203871D01*
Y204002D01*
X53142D01*
Y204134D01*
X53798D01*
Y204002D01*
X56029D01*
Y204134D01*
X56291D01*
Y204002D01*
D02*
G37*
G36*
X78858Y216204D02*
Y216073D01*
Y215941D01*
X78726D01*
Y215810D01*
Y215679D01*
Y215548D01*
Y215417D01*
X78595D01*
Y215285D01*
Y215154D01*
Y215023D01*
Y214892D01*
Y214761D01*
X78464D01*
Y214630D01*
Y214498D01*
Y214367D01*
X78333D01*
Y214236D01*
Y214105D01*
Y213973D01*
X78202D01*
Y213842D01*
Y213711D01*
Y213580D01*
Y213449D01*
X78070D01*
Y213317D01*
Y213186D01*
Y213055D01*
X77939D01*
Y212924D01*
Y212793D01*
Y212662D01*
Y212530D01*
Y212399D01*
X77808D01*
Y212268D01*
Y212137D01*
Y212005D01*
Y211874D01*
Y211743D01*
Y211612D01*
Y211481D01*
Y211350D01*
Y211218D01*
Y211087D01*
Y210956D01*
Y210825D01*
Y210694D01*
Y210562D01*
Y210431D01*
Y210300D01*
X78333D01*
Y210431D01*
X78464D01*
Y210562D01*
Y210694D01*
Y210825D01*
X78595D01*
Y210956D01*
X78726D01*
Y211087D01*
Y211218D01*
X78989D01*
Y211350D01*
X79120D01*
Y211481D01*
X79251D01*
Y211612D01*
X79382D01*
Y211743D01*
X79514D01*
Y211874D01*
Y212005D01*
X79645D01*
Y212137D01*
X79907D01*
Y212268D01*
Y212399D01*
X80038D01*
Y212530D01*
X80169D01*
Y212662D01*
X80301D01*
Y212793D01*
X80432D01*
Y212924D01*
X80563D01*
Y213055D01*
X80694D01*
Y213186D01*
X80957D01*
Y213317D01*
Y213449D01*
X81219D01*
Y213580D01*
Y213711D01*
X81481D01*
Y213842D01*
X81613D01*
Y213973D01*
X81744D01*
Y214105D01*
X81875D01*
Y214236D01*
X82006D01*
Y214367D01*
X82138D01*
Y214498D01*
X82269D01*
Y214630D01*
X82531D01*
Y214761D01*
X82662D01*
Y214892D01*
X82793D01*
Y214761D01*
Y214630D01*
Y214498D01*
X82925D01*
Y214367D01*
X82793D01*
Y214236D01*
Y214105D01*
X82662D01*
Y213973D01*
X82531D01*
Y213842D01*
X82400D01*
Y213711D01*
Y213580D01*
X82269D01*
Y213449D01*
X82138D01*
Y213317D01*
X82006D01*
Y213186D01*
X81875D01*
Y213055D01*
X81744D01*
Y212924D01*
X81613D01*
Y212793D01*
X81481D01*
Y212662D01*
Y212530D01*
X81350D01*
Y212399D01*
X81219D01*
Y212268D01*
X81088D01*
Y212137D01*
X80957D01*
Y212005D01*
X80826D01*
Y211874D01*
X80694D01*
Y211743D01*
X80563D01*
Y211612D01*
X80432D01*
Y211481D01*
X80301D01*
Y211350D01*
X80169D01*
Y211218D01*
X80038D01*
Y211087D01*
X79907D01*
Y210956D01*
X79776D01*
Y210825D01*
X79645D01*
Y210694D01*
X79514D01*
Y210562D01*
X79382D01*
Y210431D01*
X79251D01*
Y210300D01*
X79120D01*
Y210169D01*
X78989D01*
Y210037D01*
X78858D01*
Y209906D01*
X78726D01*
Y209775D01*
Y209644D01*
X78595D01*
Y209513D01*
X78464D01*
Y209382D01*
X78333D01*
Y209250D01*
X78202D01*
Y209119D01*
X78070D01*
Y208988D01*
Y208857D01*
X77939D01*
Y208726D01*
X77808D01*
Y208594D01*
X77677D01*
Y208463D01*
X77546D01*
Y208332D01*
X77414D01*
Y208201D01*
X77283D01*
Y208069D01*
X77152D01*
Y207938D01*
X77021D01*
Y207807D01*
Y207676D01*
X76889D01*
Y207545D01*
X76758D01*
Y207414D01*
Y207282D01*
X76627D01*
Y207151D01*
Y207020D01*
Y206889D01*
X76496D01*
Y206757D01*
X76365D01*
Y206626D01*
Y206495D01*
Y206364D01*
X76234D01*
Y206233D01*
Y206101D01*
X76102D01*
Y205970D01*
Y205839D01*
X75971D01*
Y205708D01*
X75840D01*
Y205577D01*
X75446D01*
Y205446D01*
X75315D01*
Y205314D01*
Y205183D01*
Y205052D01*
Y204921D01*
X76234D01*
Y205052D01*
X78595D01*
Y204921D01*
X78333D01*
Y204789D01*
Y204658D01*
X78202D01*
Y204527D01*
X78070D01*
Y204396D01*
Y204265D01*
Y204134D01*
Y204002D01*
Y203871D01*
X77283D01*
Y203740D01*
X76365D01*
Y203609D01*
X75840D01*
Y203478D01*
X75053D01*
Y203346D01*
X74528D01*
Y203215D01*
X74003D01*
Y203084D01*
X73741D01*
Y202953D01*
X73478D01*
Y202821D01*
X73216D01*
Y202690D01*
X72954D01*
Y202559D01*
X72691D01*
Y202428D01*
X72560D01*
Y202297D01*
X72429D01*
Y202166D01*
X72166D01*
Y202034D01*
X71904D01*
Y201903D01*
X71773D01*
Y201772D01*
X71642D01*
Y201641D01*
X71510D01*
Y201509D01*
X71248D01*
Y201378D01*
Y201247D01*
X71117D01*
Y201116D01*
Y200985D01*
X70986D01*
Y200853D01*
X70854D01*
Y200722D01*
X70723D01*
Y200591D01*
X70592D01*
Y200460D01*
Y200329D01*
X70461D01*
Y200198D01*
Y200066D01*
X70330D01*
Y199935D01*
X70198D01*
Y199804D01*
Y199673D01*
X70067D01*
Y199541D01*
Y199410D01*
X69936D01*
Y199279D01*
Y199148D01*
X69805D01*
Y199017D01*
Y198886D01*
X69674D01*
Y198754D01*
Y198623D01*
X69542D01*
Y198492D01*
Y198361D01*
X69411D01*
Y198230D01*
Y198098D01*
X69280D01*
Y197967D01*
Y197836D01*
Y197705D01*
X69149D01*
Y197573D01*
Y197442D01*
Y197311D01*
X69018D01*
Y197180D01*
Y197049D01*
X68886D01*
Y196917D01*
Y196786D01*
X68755D01*
Y196655D01*
X68624D01*
Y196524D01*
Y196393D01*
X68493D01*
Y196262D01*
X68362D01*
Y196130D01*
X67706D01*
Y196262D01*
X67181D01*
Y196393D01*
X66787D01*
Y196524D01*
Y196655D01*
X66918D01*
Y196786D01*
Y196917D01*
Y197049D01*
X67050D01*
Y197180D01*
Y197311D01*
X67181D01*
Y197442D01*
Y197573D01*
Y197705D01*
X67312D01*
Y197836D01*
Y197967D01*
Y198098D01*
X67443D01*
Y198230D01*
Y198361D01*
Y198492D01*
Y198623D01*
Y198754D01*
X67574D01*
Y198886D01*
X67706D01*
Y199017D01*
Y199148D01*
X67837D01*
Y199279D01*
Y199410D01*
X67968D01*
Y199541D01*
X68624D01*
Y199673D01*
Y199804D01*
Y199935D01*
Y200066D01*
Y200198D01*
Y200329D01*
Y200460D01*
Y200591D01*
Y200722D01*
Y200853D01*
Y200985D01*
Y201116D01*
X68493D01*
Y201247D01*
Y201378D01*
Y201509D01*
Y201641D01*
Y201772D01*
Y201903D01*
Y202034D01*
Y202166D01*
Y202297D01*
Y202428D01*
Y202559D01*
Y202690D01*
Y202821D01*
Y202953D01*
Y203084D01*
Y203215D01*
Y203346D01*
Y203478D01*
Y203609D01*
Y203740D01*
Y203871D01*
Y204002D01*
Y204134D01*
Y204265D01*
Y204396D01*
Y204527D01*
Y204658D01*
Y204789D01*
Y204921D01*
Y205052D01*
Y205183D01*
Y205314D01*
Y205446D01*
X69542D01*
Y205314D01*
Y205183D01*
Y205052D01*
Y204921D01*
Y204789D01*
Y204658D01*
Y204527D01*
Y204396D01*
Y204265D01*
X69674D01*
Y204134D01*
X69542D01*
Y204002D01*
Y203871D01*
Y203740D01*
Y203609D01*
Y203478D01*
Y203346D01*
X69674D01*
Y203215D01*
Y203084D01*
Y202953D01*
Y202821D01*
Y202690D01*
Y202559D01*
Y202428D01*
Y202297D01*
Y202166D01*
Y202034D01*
Y201903D01*
X69805D01*
Y201772D01*
Y201641D01*
Y201509D01*
Y201378D01*
Y201247D01*
Y201116D01*
X69936D01*
Y200985D01*
Y200853D01*
X70461D01*
Y200985D01*
X70592D01*
Y201116D01*
Y201247D01*
Y201378D01*
Y201509D01*
Y201641D01*
Y201772D01*
Y201903D01*
Y202034D01*
X70461D01*
Y202166D01*
X70592D01*
Y202297D01*
X70854D01*
Y202428D01*
X70986D01*
Y202559D01*
X71117D01*
Y202690D01*
X71248D01*
Y202821D01*
X71510D01*
Y202953D01*
X71642D01*
Y203084D01*
X71773D01*
Y203215D01*
X71904D01*
Y203346D01*
X72035D01*
Y203478D01*
X72166D01*
Y203609D01*
Y203740D01*
X72298D01*
Y203871D01*
Y204002D01*
X72429D01*
Y204134D01*
X72560D01*
Y204265D01*
Y204396D01*
X72691D01*
Y204527D01*
X72822D01*
Y204658D01*
X72954D01*
Y204789D01*
Y204921D01*
Y205052D01*
X73085D01*
Y205183D01*
X73216D01*
Y205314D01*
Y205446D01*
X73347D01*
Y205577D01*
X73478D01*
Y205708D01*
X73610D01*
Y205839D01*
X73741D01*
Y205970D01*
X73872D01*
Y206101D01*
X74134D01*
Y206233D01*
Y206364D01*
X74266D01*
Y206495D01*
X74397D01*
Y206626D01*
X74528D01*
Y206757D01*
X74659D01*
Y206889D01*
X74790D01*
Y207020D01*
X74922D01*
Y207151D01*
X75053D01*
Y207282D01*
X75184D01*
Y207414D01*
Y207545D01*
X75315D01*
Y207676D01*
X75446D01*
Y207807D01*
X75578D01*
Y207938D01*
Y208069D01*
X75709D01*
Y208201D01*
Y208332D01*
X75840D01*
Y208463D01*
X75971D01*
Y208594D01*
X76102D01*
Y208726D01*
Y208857D01*
Y208988D01*
Y209119D01*
X76234D01*
Y209250D01*
Y209382D01*
Y209513D01*
X76365D01*
Y209644D01*
Y209775D01*
Y209906D01*
X76496D01*
Y210037D01*
Y210169D01*
Y210300D01*
Y210431D01*
X76627D01*
Y210562D01*
Y210694D01*
Y210825D01*
X76758D01*
Y210956D01*
Y211087D01*
X76889D01*
Y211218D01*
Y211350D01*
Y211481D01*
Y211612D01*
X77021D01*
Y211743D01*
Y211874D01*
Y212005D01*
Y212137D01*
X77152D01*
Y212268D01*
Y212399D01*
Y212530D01*
Y212662D01*
X77283D01*
Y212793D01*
Y212924D01*
Y213055D01*
X77414D01*
Y213186D01*
Y213317D01*
Y213449D01*
Y213580D01*
Y213711D01*
X77546D01*
Y213842D01*
X77677D01*
Y213973D01*
Y214105D01*
Y214236D01*
X77808D01*
Y214367D01*
Y214498D01*
X77939D01*
Y214630D01*
Y214761D01*
Y214892D01*
X78070D01*
Y215023D01*
X78202D01*
Y215154D01*
Y215285D01*
Y215417D01*
Y215548D01*
X78333D01*
Y215679D01*
Y215810D01*
Y215941D01*
Y216073D01*
X78464D01*
Y216204D01*
X78595D01*
Y216335D01*
X78858D01*
Y216204D01*
D02*
G37*
G36*
X56685Y199148D02*
X57734D01*
Y199017D01*
X58390D01*
Y198886D01*
X58915D01*
Y198754D01*
X59440D01*
Y198623D01*
X59834D01*
Y198492D01*
X60096D01*
Y198361D01*
X60358D01*
Y198230D01*
Y198098D01*
X59965D01*
Y198230D01*
X59834D01*
Y198361D01*
X59440D01*
Y198492D01*
X59046D01*
Y198623D01*
X58390D01*
Y198754D01*
X57734D01*
Y198886D01*
X56554D01*
Y198754D01*
Y198623D01*
Y198492D01*
Y198361D01*
Y198230D01*
Y198098D01*
X56685D01*
Y197967D01*
Y197836D01*
X56816D01*
Y197705D01*
Y197573D01*
X56947D01*
Y197442D01*
Y197311D01*
X57078D01*
Y197180D01*
Y197049D01*
X57210D01*
Y196917D01*
Y196786D01*
Y196655D01*
X57472D01*
Y196524D01*
Y196393D01*
X57603D01*
Y196262D01*
Y196130D01*
X57866D01*
Y195999D01*
Y195868D01*
X57997D01*
Y195737D01*
X58128D01*
Y195606D01*
Y195474D01*
X58390D01*
Y195343D01*
Y195212D01*
X58653D01*
Y195081D01*
X59178D01*
Y194949D01*
X59309D01*
Y194818D01*
X59178D01*
Y194687D01*
X58784D01*
Y194818D01*
X58522D01*
Y194949D01*
X58390D01*
Y195081D01*
X58259D01*
Y195212D01*
X58128D01*
Y195343D01*
Y195474D01*
X57997D01*
Y195606D01*
X57866D01*
Y195737D01*
X57603D01*
Y195868D01*
X57734D01*
Y195999D01*
X57603D01*
Y196130D01*
X57472D01*
Y196262D01*
Y196393D01*
X57341D01*
Y196524D01*
X57210D01*
Y196655D01*
X57078D01*
Y196786D01*
Y196917D01*
X56947D01*
Y197049D01*
Y197180D01*
X56816D01*
Y197311D01*
X56685D01*
Y197442D01*
Y197573D01*
X56554D01*
Y197705D01*
Y197836D01*
X56422D01*
Y197967D01*
Y198098D01*
X56291D01*
Y198230D01*
Y198361D01*
X56160D01*
Y198492D01*
X56029D01*
Y198623D01*
Y198754D01*
Y198886D01*
X55898D01*
Y199017D01*
Y199148D01*
X56554D01*
Y199279D01*
X56685D01*
Y199148D01*
D02*
G37*
G36*
X57472Y204658D02*
Y204527D01*
X57603D01*
Y204396D01*
X57734D01*
Y204265D01*
X57866D01*
Y204134D01*
Y204002D01*
X57997D01*
Y203871D01*
X58128D01*
Y203740D01*
X58259D01*
Y203609D01*
X58390D01*
Y203478D01*
X58522D01*
Y203346D01*
X58653D01*
Y203215D01*
X58784D01*
Y203084D01*
X58915D01*
Y202953D01*
X59046D01*
Y202821D01*
Y202690D01*
X59178D01*
Y202559D01*
X59309D01*
Y202428D01*
X59965D01*
Y202559D01*
Y202690D01*
Y202821D01*
Y202953D01*
X60096D01*
Y202821D01*
Y202690D01*
X60227D01*
Y202559D01*
X60358D01*
Y202428D01*
X60490D01*
Y202297D01*
X60621D01*
Y202166D01*
X60752D01*
Y202034D01*
X60883D01*
Y201903D01*
X61014D01*
Y201772D01*
X61146D01*
Y201641D01*
X61277D01*
Y201509D01*
X61539D01*
Y201378D01*
X61670D01*
Y201247D01*
X61802D01*
Y201116D01*
Y200985D01*
X61933D01*
Y200853D01*
Y200722D01*
Y200591D01*
X62064D01*
Y200460D01*
Y200329D01*
X62195D01*
Y200198D01*
Y200066D01*
Y199935D01*
X62326D01*
Y199804D01*
Y199673D01*
Y199541D01*
X62458D01*
Y199410D01*
Y199279D01*
Y199148D01*
X62589D01*
Y199017D01*
Y198886D01*
Y198754D01*
X62720D01*
Y198623D01*
X62851D01*
Y198492D01*
Y198361D01*
Y198230D01*
X62982D01*
Y198098D01*
Y197967D01*
X63114D01*
Y197836D01*
Y197705D01*
X63245D01*
Y197573D01*
Y197442D01*
Y197311D01*
X63376D01*
Y197180D01*
X62851D01*
Y197049D01*
X62326D01*
Y196917D01*
X61933D01*
Y196786D01*
X61539D01*
Y196917D01*
Y197049D01*
Y197180D01*
Y197311D01*
X61408D01*
Y197442D01*
Y197573D01*
X61277D01*
Y197705D01*
Y197836D01*
Y197967D01*
X61146D01*
Y198098D01*
Y198230D01*
Y198361D01*
Y198492D01*
Y198623D01*
X61014D01*
Y198754D01*
Y198886D01*
Y199017D01*
X60883D01*
Y199148D01*
Y199279D01*
Y199410D01*
X60752D01*
Y199541D01*
Y199673D01*
X60621D01*
Y199804D01*
Y199935D01*
X60490D01*
Y200066D01*
X60358D01*
Y200198D01*
X60227D01*
Y200329D01*
Y200460D01*
X60358D01*
Y200591D01*
Y200722D01*
Y200853D01*
Y200985D01*
X60227D01*
Y201116D01*
X59965D01*
Y201247D01*
X59834D01*
Y201378D01*
X59702D01*
Y201509D01*
X59571D01*
Y201641D01*
X59440D01*
Y201772D01*
X59309D01*
Y201903D01*
X59178D01*
Y202034D01*
X59046D01*
Y202166D01*
X58915D01*
Y202297D01*
X58784D01*
Y202428D01*
X58653D01*
Y202559D01*
X58522D01*
Y202690D01*
X58390D01*
Y202821D01*
X58259D01*
Y202953D01*
Y203084D01*
X58128D01*
Y203215D01*
X57997D01*
Y203346D01*
X57866D01*
Y203478D01*
X57734D01*
Y203609D01*
Y203740D01*
X57603D01*
Y203871D01*
X57472D01*
Y204002D01*
X57341D01*
Y204134D01*
X57210D01*
Y204265D01*
X57078D01*
Y204396D01*
X57341D01*
Y204527D01*
Y204658D01*
Y204789D01*
X57472D01*
Y204658D01*
D02*
G37*
G36*
X57603Y198098D02*
X58259D01*
Y197967D01*
X58390D01*
Y197836D01*
X58915D01*
Y197705D01*
X59440D01*
Y197573D01*
X59834D01*
Y197442D01*
X60227D01*
Y197311D01*
X60490D01*
Y197180D01*
X60752D01*
Y197049D01*
Y196917D01*
Y196786D01*
X60883D01*
Y196655D01*
Y196524D01*
X61014D01*
Y196393D01*
X60883D01*
Y196262D01*
X60752D01*
Y196130D01*
X60490D01*
Y195999D01*
X60358D01*
Y195868D01*
X60227D01*
Y195737D01*
X60096D01*
Y195606D01*
X59834D01*
Y195474D01*
X59702D01*
Y195606D01*
X59440D01*
Y195737D01*
X59178D01*
Y195868D01*
X58915D01*
Y195999D01*
Y196130D01*
X58784D01*
Y196262D01*
X58653D01*
Y196393D01*
Y196524D01*
X58390D01*
Y196655D01*
Y196786D01*
Y196917D01*
X58128D01*
Y197049D01*
X57997D01*
Y197180D01*
Y197311D01*
X57866D01*
Y197442D01*
Y197573D01*
X57734D01*
Y197705D01*
Y197836D01*
Y197967D01*
X57603D01*
Y198098D01*
X57472D01*
Y198230D01*
X57603D01*
Y198098D01*
D02*
G37*
G36*
X74528Y197311D02*
Y197180D01*
X74397D01*
Y197049D01*
X74266D01*
Y196917D01*
Y196786D01*
X74134D01*
Y196655D01*
X74003D01*
Y196524D01*
Y196393D01*
X73872D01*
Y196262D01*
X73741D01*
Y196130D01*
X73610D01*
Y195999D01*
X73478D01*
Y195868D01*
X73347D01*
Y195737D01*
X73216D01*
Y195606D01*
X73085D01*
Y195474D01*
X72954D01*
Y195343D01*
X72822D01*
Y195212D01*
X72691D01*
Y195081D01*
X72560D01*
Y194949D01*
X72298D01*
Y194818D01*
X72035D01*
Y194687D01*
X69674D01*
Y194818D01*
X69805D01*
Y194949D01*
Y195081D01*
X69936D01*
Y195212D01*
Y195343D01*
X70067D01*
Y195474D01*
X70198D01*
Y195606D01*
X70330D01*
Y195737D01*
Y195868D01*
X70461D01*
Y195999D01*
Y196130D01*
X70592D01*
Y196262D01*
X70723D01*
Y196393D01*
X70854D01*
Y196524D01*
X70986D01*
Y196655D01*
X71248D01*
Y196786D01*
X71642D01*
Y196917D01*
X71904D01*
Y197049D01*
X72429D01*
Y197180D01*
X72954D01*
Y197311D01*
X73741D01*
Y197442D01*
X74528D01*
Y197311D01*
D02*
G37*
G36*
X77414Y198623D02*
Y198492D01*
X77283D01*
Y198361D01*
X77152D01*
Y198230D01*
X77021D01*
Y198098D01*
Y197967D01*
X76889D01*
Y197836D01*
X76758D01*
Y197705D01*
X76627D01*
Y197573D01*
X76496D01*
Y197442D01*
X76365D01*
Y197311D01*
Y197180D01*
X76234D01*
Y197049D01*
X76102D01*
Y196917D01*
X75971D01*
Y196786D01*
Y196655D01*
X75840D01*
Y196524D01*
X75709D01*
Y196393D01*
X75578D01*
Y196262D01*
X75446D01*
Y196130D01*
X75315D01*
Y195999D01*
Y195868D01*
X75184D01*
Y195737D01*
X75053D01*
Y195606D01*
X74922D01*
Y195474D01*
X74790D01*
Y195343D01*
X74659D01*
Y195212D01*
X74528D01*
Y195081D01*
X74397D01*
Y194949D01*
X74266D01*
Y194818D01*
X74134D01*
Y194687D01*
X74003D01*
Y194556D01*
X73872D01*
Y194425D01*
X73741D01*
Y194293D01*
X73478D01*
Y194162D01*
X73347D01*
Y194031D01*
X73085D01*
Y193900D01*
X72691D01*
Y193769D01*
X68624D01*
Y193638D01*
Y193506D01*
Y193375D01*
Y193244D01*
Y193113D01*
X70067D01*
Y192982D01*
X70198D01*
Y192850D01*
X70330D01*
Y192719D01*
Y192588D01*
Y192457D01*
X70461D01*
Y192325D01*
Y192194D01*
Y192063D01*
X70592D01*
Y191932D01*
Y191801D01*
Y191670D01*
Y191538D01*
Y191407D01*
Y191276D01*
Y191145D01*
Y191014D01*
Y190882D01*
X70723D01*
Y190751D01*
Y190620D01*
Y190489D01*
Y190357D01*
Y190226D01*
Y190095D01*
Y189964D01*
Y189833D01*
Y189702D01*
Y189570D01*
Y189439D01*
Y189308D01*
Y189177D01*
Y189046D01*
Y188914D01*
Y188783D01*
X70592D01*
Y188652D01*
Y188521D01*
Y188390D01*
Y188258D01*
Y188127D01*
Y187996D01*
Y187865D01*
Y187734D01*
Y187602D01*
Y187471D01*
Y187340D01*
Y187209D01*
Y187078D01*
Y186946D01*
Y186815D01*
Y186684D01*
X70461D01*
Y186553D01*
Y186422D01*
Y186290D01*
Y186159D01*
Y186028D01*
Y185897D01*
Y185766D01*
Y185634D01*
Y185503D01*
Y185372D01*
Y185241D01*
Y185110D01*
X70330D01*
Y184978D01*
Y184847D01*
Y184716D01*
Y184585D01*
Y184454D01*
Y184322D01*
Y184191D01*
Y184060D01*
X70198D01*
Y183929D01*
Y183798D01*
Y183666D01*
X70067D01*
Y183535D01*
Y183404D01*
Y183273D01*
Y183142D01*
Y183010D01*
X69936D01*
Y182879D01*
Y182748D01*
X69805D01*
Y182617D01*
Y182486D01*
X69674D01*
Y182354D01*
X69542D01*
Y182223D01*
X69411D01*
Y182092D01*
X69280D01*
Y181961D01*
X69149D01*
Y181830D01*
X69018D01*
Y181698D01*
X68886D01*
Y181567D01*
X68755D01*
Y181436D01*
X68493D01*
Y181305D01*
Y181174D01*
X68230D01*
Y181042D01*
X68099D01*
Y180911D01*
X67837D01*
Y180780D01*
X67706D01*
Y180649D01*
X67574D01*
Y180518D01*
X67443D01*
Y180386D01*
X67312D01*
Y180255D01*
X67050D01*
Y180124D01*
X66918D01*
Y179993D01*
X66656D01*
Y179862D01*
X66525D01*
Y179730D01*
X66262D01*
Y179599D01*
X65869D01*
Y179730D01*
Y179862D01*
X65738D01*
Y179993D01*
X65606D01*
Y180124D01*
Y180255D01*
X65475D01*
Y180386D01*
X65344D01*
Y180518D01*
X65213D01*
Y180649D01*
Y180780D01*
X65082D01*
Y180911D01*
X64950D01*
Y181042D01*
X64819D01*
Y181174D01*
X64688D01*
Y181305D01*
Y181436D01*
X64557D01*
Y181567D01*
X64426D01*
Y181698D01*
X64294D01*
Y181830D01*
X64163D01*
Y181961D01*
X63901D01*
Y182092D01*
X63770D01*
Y182223D01*
X63638D01*
Y182354D01*
X63507D01*
Y182486D01*
X63376D01*
Y182617D01*
X63114D01*
Y182748D01*
X62982D01*
Y182879D01*
X62720D01*
Y183010D01*
X62589D01*
Y183142D01*
X62326D01*
Y183273D01*
X62195D01*
Y183404D01*
X61933D01*
Y183535D01*
X61670D01*
Y183666D01*
X61408D01*
Y183798D01*
X61146D01*
Y183929D01*
X60752D01*
Y184060D01*
X60227D01*
Y184191D01*
X60096D01*
Y184322D01*
X60227D01*
Y184454D01*
Y184585D01*
X60358D01*
Y184716D01*
X60227D01*
Y184847D01*
X60358D01*
Y184978D01*
Y185110D01*
X60490D01*
Y185241D01*
Y185372D01*
Y185503D01*
X60621D01*
Y185634D01*
Y185766D01*
X60883D01*
Y185897D01*
X61014D01*
Y185766D01*
X62064D01*
Y185634D01*
X64294D01*
Y185766D01*
X65213D01*
Y185897D01*
X65869D01*
Y186028D01*
X66131D01*
Y186159D01*
X66525D01*
Y186290D01*
X66656D01*
Y186422D01*
X66918D01*
Y186553D01*
X67050D01*
Y186684D01*
X67312D01*
Y186815D01*
X67443D01*
Y186946D01*
X67574D01*
Y187078D01*
X67706D01*
Y187209D01*
X67837D01*
Y187340D01*
X67968D01*
Y187471D01*
X68099D01*
Y187602D01*
X68362D01*
Y187734D01*
Y187865D01*
X68493D01*
Y187996D01*
Y188127D01*
X68624D01*
Y188258D01*
X68755D01*
Y188390D01*
Y188521D01*
X68886D01*
Y188652D01*
Y188783D01*
Y188914D01*
X69018D01*
Y189046D01*
Y189177D01*
Y189308D01*
Y189439D01*
Y189570D01*
Y189702D01*
Y189833D01*
Y189964D01*
Y190095D01*
Y190226D01*
Y190357D01*
Y190489D01*
Y190620D01*
Y190751D01*
Y190882D01*
Y191014D01*
Y191145D01*
Y191276D01*
X68886D01*
Y191407D01*
Y191538D01*
X68755D01*
Y191670D01*
Y191801D01*
X68624D01*
Y191932D01*
Y192063D01*
X68493D01*
Y192194D01*
Y192325D01*
X68362D01*
Y192457D01*
X68230D01*
Y192588D01*
X68099D01*
Y192719D01*
X67968D01*
Y192850D01*
X67706D01*
Y192982D01*
X67574D01*
Y193113D01*
X67443D01*
Y193244D01*
X67312D01*
Y193375D01*
X66918D01*
Y193506D01*
X66525D01*
Y193638D01*
X66131D01*
Y193769D01*
X65082D01*
Y193900D01*
X63770D01*
Y193769D01*
X62589D01*
Y193638D01*
X62326D01*
Y193506D01*
X62195D01*
Y193375D01*
X62064D01*
Y193244D01*
Y193113D01*
Y192982D01*
Y192850D01*
X61933D01*
Y192719D01*
Y192588D01*
Y192457D01*
Y192325D01*
Y192194D01*
X61802D01*
Y192063D01*
Y191932D01*
Y191801D01*
Y191670D01*
Y191538D01*
Y191407D01*
Y191276D01*
Y191145D01*
Y191014D01*
X61539D01*
Y190882D01*
X61277D01*
Y190751D01*
X61014D01*
Y190620D01*
X60752D01*
Y190489D01*
X60621D01*
Y190357D01*
X60358D01*
Y190226D01*
X60096D01*
Y190095D01*
X59834D01*
Y189964D01*
X59571D01*
Y189833D01*
X59178D01*
Y189702D01*
X58784D01*
Y189570D01*
X58522D01*
Y189439D01*
X58128D01*
Y189308D01*
X57997D01*
Y189439D01*
X57866D01*
Y189570D01*
X57734D01*
Y189702D01*
X57603D01*
Y189833D01*
X57210D01*
Y189964D01*
X56816D01*
Y190095D01*
X56685D01*
Y190226D01*
X56947D01*
Y190357D01*
X57078D01*
Y190489D01*
X57341D01*
Y190620D01*
X57603D01*
Y190751D01*
X57866D01*
Y190882D01*
X58128D01*
Y191014D01*
X58390D01*
Y191145D01*
X58653D01*
Y191276D01*
X58915D01*
Y191407D01*
X59046D01*
Y191538D01*
X59309D01*
Y191670D01*
X59440D01*
Y191801D01*
X59571D01*
Y191932D01*
X59702D01*
Y192063D01*
Y192194D01*
X59834D01*
Y192325D01*
Y192457D01*
Y192588D01*
Y192719D01*
Y192850D01*
X59702D01*
Y192982D01*
Y193113D01*
Y193244D01*
Y193375D01*
Y193506D01*
X59571D01*
Y193638D01*
Y193769D01*
Y193900D01*
X59702D01*
Y194031D01*
Y194162D01*
Y194293D01*
X59834D01*
Y194425D01*
Y194556D01*
X60096D01*
Y194687D01*
Y194818D01*
X60227D01*
Y194949D01*
X60358D01*
Y195081D01*
X60621D01*
Y195212D01*
X60752D01*
Y195343D01*
X60883D01*
Y195474D01*
X61146D01*
Y195606D01*
X61277D01*
Y195737D01*
X61539D01*
Y195868D01*
X61802D01*
Y195999D01*
X62195D01*
Y196130D01*
X62458D01*
Y196262D01*
X62982D01*
Y196393D01*
X63376D01*
Y196524D01*
X64557D01*
Y196655D01*
X65475D01*
Y196524D01*
X65869D01*
Y196393D01*
Y196262D01*
Y196130D01*
Y195999D01*
X66000D01*
Y195868D01*
X66262D01*
Y195737D01*
X66525D01*
Y195606D01*
X66918D01*
Y195474D01*
X67574D01*
Y195343D01*
X67968D01*
Y195212D01*
X67837D01*
Y195081D01*
Y194949D01*
X67706D01*
Y194818D01*
Y194687D01*
Y194556D01*
Y194425D01*
Y194293D01*
X68362D01*
Y194425D01*
X68493D01*
Y194556D01*
Y194687D01*
X68624D01*
Y194818D01*
Y194949D01*
X68755D01*
Y194818D01*
Y194687D01*
Y194556D01*
Y194425D01*
Y194293D01*
Y194162D01*
X69018D01*
Y194031D01*
X72429D01*
Y194162D01*
X72954D01*
Y194293D01*
X73085D01*
Y194425D01*
X73347D01*
Y194556D01*
X73478D01*
Y194687D01*
X73610D01*
Y194818D01*
X73741D01*
Y194949D01*
X73872D01*
Y195081D01*
X74003D01*
Y195212D01*
X74134D01*
Y195343D01*
X74266D01*
Y195474D01*
X74397D01*
Y195606D01*
X74528D01*
Y195737D01*
Y195868D01*
X74659D01*
Y195999D01*
X74790D01*
Y196130D01*
X74922D01*
Y196262D01*
Y196393D01*
X75053D01*
Y196524D01*
X75184D01*
Y196655D01*
Y196786D01*
X75315D01*
Y196917D01*
X75446D01*
Y197049D01*
X75578D01*
Y197180D01*
Y197311D01*
Y197442D01*
Y197573D01*
Y197705D01*
Y197836D01*
Y197967D01*
X75446D01*
Y198098D01*
X74790D01*
Y198230D01*
X74266D01*
Y198098D01*
X72954D01*
Y197967D01*
X72298D01*
Y197836D01*
X71773D01*
Y197705D01*
X71379D01*
Y197573D01*
X70854D01*
Y197442D01*
X70592D01*
Y197311D01*
X70461D01*
Y197180D01*
X70330D01*
Y197049D01*
X70198D01*
Y197180D01*
Y197311D01*
X70330D01*
Y197442D01*
X70461D01*
Y197573D01*
X70723D01*
Y197705D01*
X70986D01*
Y197836D01*
X71248D01*
Y197967D01*
X71642D01*
Y198098D01*
X72166D01*
Y198230D01*
X72822D01*
Y198361D01*
X73478D01*
Y198492D01*
X74528D01*
Y198623D01*
X75315D01*
Y198754D01*
X77414D01*
Y198623D01*
D02*
G37*
G36*
X65738Y192982D02*
X65606D01*
Y192850D01*
X65344D01*
Y192719D01*
X64950D01*
Y192588D01*
X64688D01*
Y192457D01*
X64426D01*
Y192325D01*
X64163D01*
Y192194D01*
X63901D01*
Y192063D01*
X63638D01*
Y191932D01*
X63376D01*
Y191801D01*
X63114D01*
Y191670D01*
X62851D01*
Y191538D01*
X62720D01*
Y191407D01*
X62589D01*
Y191538D01*
Y191670D01*
Y191801D01*
Y191932D01*
X62720D01*
Y192063D01*
Y192194D01*
Y192325D01*
Y192457D01*
X62851D01*
Y192588D01*
Y192719D01*
X62720D01*
Y192850D01*
X62982D01*
Y192982D01*
X63376D01*
Y193113D01*
X65344D01*
Y192982D01*
X65475D01*
Y193113D01*
X65738D01*
Y192982D01*
D02*
G37*
G36*
X59046Y192719D02*
Y192588D01*
Y192457D01*
Y192325D01*
X58784D01*
Y192457D01*
Y192588D01*
X58915D01*
Y192719D01*
Y192850D01*
X59046D01*
Y192719D01*
D02*
G37*
G36*
X66000Y192063D02*
Y191932D01*
X65869D01*
Y191801D01*
Y191670D01*
X65738D01*
Y191538D01*
X65606D01*
Y191670D01*
Y191801D01*
Y191932D01*
X65475D01*
Y192063D01*
X65738D01*
Y192194D01*
X66000D01*
Y192063D01*
D02*
G37*
G36*
X66262Y190620D02*
X66394D01*
Y190489D01*
X66525D01*
Y190357D01*
Y190226D01*
X66656D01*
Y190095D01*
Y189964D01*
X66787D01*
Y189833D01*
Y189702D01*
X66918D01*
Y189570D01*
X66787D01*
Y189439D01*
Y189308D01*
X66918D01*
Y189177D01*
X66787D01*
Y189046D01*
Y188914D01*
Y188783D01*
Y188652D01*
X66656D01*
Y188521D01*
Y188390D01*
X66525D01*
Y188258D01*
Y188127D01*
X66394D01*
Y187996D01*
Y187865D01*
X66131D01*
Y187734D01*
Y187602D01*
X66000D01*
Y187471D01*
X65869D01*
Y187340D01*
X65738D01*
Y187209D01*
X65475D01*
Y187078D01*
X65344D01*
Y186946D01*
X65213D01*
Y186815D01*
X64950D01*
Y186684D01*
X64688D01*
Y186553D01*
X64294D01*
Y186422D01*
X63770D01*
Y186290D01*
X62720D01*
Y186422D01*
X61670D01*
Y186553D01*
X61146D01*
Y186684D01*
X60883D01*
Y186815D01*
X60621D01*
Y186946D01*
X60096D01*
Y187078D01*
X59965D01*
Y187209D01*
X59571D01*
Y187340D01*
X57997D01*
Y187209D01*
X57341D01*
Y187340D01*
X57472D01*
Y187471D01*
X57603D01*
Y187602D01*
X57734D01*
Y187734D01*
Y187865D01*
X57866D01*
Y187996D01*
Y188127D01*
X57997D01*
Y188258D01*
X58128D01*
Y188390D01*
Y188521D01*
Y188652D01*
X58390D01*
Y188783D01*
X58784D01*
Y188914D01*
X59309D01*
Y189046D01*
X59702D01*
Y189177D01*
X59965D01*
Y189308D01*
X60227D01*
Y189439D01*
X60621D01*
Y189570D01*
X60883D01*
Y189702D01*
X61146D01*
Y189833D01*
X61408D01*
Y189964D01*
X61670D01*
Y190095D01*
X61933D01*
Y190226D01*
X62195D01*
Y190357D01*
X62458D01*
Y190226D01*
X62589D01*
Y190095D01*
X62982D01*
Y189964D01*
X65082D01*
Y190095D01*
X65344D01*
Y190226D01*
X65606D01*
Y190357D01*
X65738D01*
Y190489D01*
X65869D01*
Y190620D01*
X66000D01*
Y190751D01*
X66262D01*
Y190620D01*
D02*
G37*
G36*
X56554Y189308D02*
X56816D01*
Y189177D01*
X57078D01*
Y189046D01*
X57210D01*
Y188914D01*
X57341D01*
Y188783D01*
X57472D01*
Y188652D01*
X57341D01*
Y188521D01*
X57210D01*
Y188390D01*
Y188258D01*
X57078D01*
Y188127D01*
Y187996D01*
X56947D01*
Y187865D01*
X56816D01*
Y187734D01*
X56685D01*
Y187602D01*
X56554D01*
Y187471D01*
Y187340D01*
X56422D01*
Y187209D01*
X56160D01*
Y187340D01*
X55898D01*
Y187471D01*
X55766D01*
Y187602D01*
X55635D01*
Y187734D01*
X55504D01*
Y187865D01*
X55373D01*
Y187996D01*
X55110D01*
Y188127D01*
X54979D01*
Y188258D01*
Y188390D01*
X54848D01*
Y188521D01*
Y188652D01*
Y188783D01*
Y188914D01*
X55110D01*
Y188783D01*
X55373D01*
Y188914D01*
X55635D01*
Y189046D01*
Y189177D01*
X55373D01*
Y189308D01*
X55635D01*
Y189439D01*
X56554D01*
Y189308D01*
D02*
G37*
G36*
X67050Y192457D02*
X67181D01*
Y192325D01*
X67312D01*
Y192194D01*
X67443D01*
Y192063D01*
X67574D01*
Y191932D01*
X67706D01*
Y191801D01*
X67837D01*
Y191670D01*
Y191538D01*
Y191407D01*
X67968D01*
Y191276D01*
Y191145D01*
X68099D01*
Y191014D01*
X68230D01*
Y190882D01*
Y190751D01*
Y190620D01*
X68362D01*
Y190489D01*
Y190357D01*
Y190226D01*
Y190095D01*
Y189964D01*
Y189833D01*
Y189702D01*
Y189570D01*
X68230D01*
Y189439D01*
Y189308D01*
Y189177D01*
Y189046D01*
X68099D01*
Y188914D01*
Y188783D01*
X67968D01*
Y188652D01*
X67837D01*
Y188521D01*
Y188390D01*
X67706D01*
Y188258D01*
X67574D01*
Y188127D01*
X67443D01*
Y188258D01*
Y188390D01*
Y188521D01*
X67574D01*
Y188652D01*
Y188783D01*
Y188914D01*
Y189046D01*
Y189177D01*
Y189308D01*
Y189439D01*
Y189570D01*
Y189702D01*
Y189833D01*
Y189964D01*
Y190095D01*
X67443D01*
Y190226D01*
Y190357D01*
Y190489D01*
Y190620D01*
X67312D01*
Y190751D01*
Y190882D01*
X67181D01*
Y191014D01*
X67050D01*
Y191145D01*
X66918D01*
Y191276D01*
X66787D01*
Y191407D01*
X66525D01*
Y191538D01*
X66656D01*
Y191670D01*
Y191801D01*
X66787D01*
Y191932D01*
Y192063D01*
Y192194D01*
X66918D01*
Y192325D01*
Y192457D01*
Y192588D01*
X67050D01*
Y192457D01*
D02*
G37*
G36*
X67443Y187996D02*
Y187865D01*
X67181D01*
Y187996D01*
X67312D01*
Y188127D01*
X67443D01*
Y187996D01*
D02*
G37*
G36*
X59046Y186553D02*
X59440D01*
Y186422D01*
X59834D01*
Y186290D01*
X59440D01*
Y186159D01*
X59046D01*
Y186028D01*
X57734D01*
Y186159D01*
X57472D01*
Y186290D01*
X57341D01*
Y186422D01*
X57210D01*
Y186553D01*
X58259D01*
Y186684D01*
X59046D01*
Y186553D01*
D02*
G37*
G36*
X47370Y185897D02*
X48026D01*
Y185766D01*
X48551D01*
Y185634D01*
X49075D01*
Y185503D01*
X49469D01*
Y185372D01*
X49994D01*
Y185241D01*
X50256D01*
Y185110D01*
X50650D01*
Y184978D01*
X50912D01*
Y184847D01*
X51306D01*
Y184716D01*
X51568D01*
Y184585D01*
X51962D01*
Y184454D01*
X52224D01*
Y184322D01*
X52486D01*
Y184191D01*
X52749D01*
Y184060D01*
X53011D01*
Y183929D01*
X53274D01*
Y183798D01*
X53405D01*
Y183666D01*
X53798D01*
Y183535D01*
X53930D01*
Y183404D01*
X54192D01*
Y183273D01*
X54454D01*
Y183142D01*
X54586D01*
Y183010D01*
X54848D01*
Y182879D01*
X54979D01*
Y182748D01*
X55110D01*
Y182617D01*
X55373D01*
Y182486D01*
X55504D01*
Y182354D01*
X55766D01*
Y182223D01*
X56422D01*
Y182354D01*
Y182486D01*
Y182617D01*
Y182748D01*
X56291D01*
Y182879D01*
X56160D01*
Y183010D01*
X56029D01*
Y183142D01*
X55766D01*
Y183273D01*
X55635D01*
Y183404D01*
Y183535D01*
X55504D01*
Y183666D01*
X55373D01*
Y183798D01*
X55242D01*
Y183929D01*
Y184060D01*
X55110D01*
Y184191D01*
Y184322D01*
X55898D01*
Y184454D01*
X56291D01*
Y184322D01*
X57078D01*
Y184191D01*
X57866D01*
Y184060D01*
X58259D01*
Y183929D01*
X58784D01*
Y183798D01*
X59309D01*
Y183666D01*
X59571D01*
Y183535D01*
X59834D01*
Y183404D01*
X60227D01*
Y183273D01*
X60490D01*
Y183142D01*
X60752D01*
Y183010D01*
X61146D01*
Y182879D01*
X61277D01*
Y182748D01*
X61539D01*
Y182617D01*
X61802D01*
Y182486D01*
X61933D01*
Y182354D01*
X62195D01*
Y182223D01*
X62458D01*
Y182092D01*
X62589D01*
Y181961D01*
X62851D01*
Y181830D01*
X62982D01*
Y181698D01*
X63114D01*
Y181567D01*
X63245D01*
Y181436D01*
X63376D01*
Y181305D01*
X63507D01*
Y181174D01*
X63770D01*
Y181042D01*
Y180911D01*
X63901D01*
Y180780D01*
X64032D01*
Y180649D01*
X64163D01*
Y180518D01*
X64294D01*
Y180386D01*
X64426D01*
Y180255D01*
Y180124D01*
X64557D01*
Y179993D01*
X64688D01*
Y179862D01*
X64819D01*
Y179730D01*
Y179599D01*
X64950D01*
Y179468D01*
X65082D01*
Y179337D01*
Y179206D01*
X65213D01*
Y179074D01*
X65344D01*
Y178943D01*
Y178812D01*
X65475D01*
Y178681D01*
Y178550D01*
X65606D01*
Y178418D01*
Y178287D01*
X65738D01*
Y178156D01*
X65869D01*
Y178025D01*
Y177894D01*
X66000D01*
Y177762D01*
Y177631D01*
Y177500D01*
X66656D01*
Y177631D01*
Y177762D01*
Y177894D01*
Y178025D01*
Y178156D01*
Y178287D01*
Y178418D01*
X66525D01*
Y178550D01*
Y178681D01*
X66394D01*
Y178812D01*
X66525D01*
Y178943D01*
X66787D01*
Y179074D01*
X66918D01*
Y179206D01*
X67181D01*
Y179337D01*
X67443D01*
Y179468D01*
X67574D01*
Y179599D01*
X67706D01*
Y179730D01*
X67968D01*
Y179862D01*
X68099D01*
Y179993D01*
X68362D01*
Y180124D01*
X68493D01*
Y180255D01*
X68624D01*
Y180386D01*
X68755D01*
Y180518D01*
X69018D01*
Y180649D01*
Y180780D01*
X69280D01*
Y180911D01*
X69411D01*
Y181042D01*
X69542D01*
Y181174D01*
X69674D01*
Y181305D01*
X69936D01*
Y181436D01*
X70067D01*
Y181567D01*
Y181698D01*
X70198D01*
Y181830D01*
X70330D01*
Y181961D01*
X70461D01*
Y182092D01*
X70592D01*
Y182223D01*
Y182354D01*
X70723D01*
Y182486D01*
Y182617D01*
Y182748D01*
Y182879D01*
X70854D01*
Y183010D01*
Y183142D01*
X70986D01*
Y183273D01*
Y183404D01*
Y183535D01*
Y183666D01*
X71117D01*
Y183535D01*
Y183404D01*
X71379D01*
Y183273D01*
Y183142D01*
X71510D01*
Y183010D01*
X71642D01*
Y182879D01*
X71773D01*
Y182748D01*
X71904D01*
Y182617D01*
X72035D01*
Y182486D01*
Y182354D01*
X72166D01*
Y182223D01*
X72298D01*
Y182092D01*
Y181961D01*
Y181830D01*
Y181698D01*
X72954D01*
Y181830D01*
Y181961D01*
Y182092D01*
Y182223D01*
Y182354D01*
Y182486D01*
Y182617D01*
Y182748D01*
Y182879D01*
Y183010D01*
Y183142D01*
X73085D01*
Y183273D01*
Y183404D01*
Y183535D01*
Y183666D01*
Y183798D01*
X73216D01*
Y183929D01*
Y184060D01*
X73347D01*
Y184191D01*
X73216D01*
Y184322D01*
X73347D01*
Y184454D01*
Y184585D01*
X73478D01*
Y184716D01*
Y184847D01*
X73610D01*
Y184716D01*
X73741D01*
Y184585D01*
X73872D01*
Y184454D01*
X74003D01*
Y184322D01*
Y184191D01*
X74134D01*
Y184060D01*
X74266D01*
Y183929D01*
X74397D01*
Y183798D01*
X74528D01*
Y183666D01*
Y183535D01*
X74659D01*
Y183404D01*
X74790D01*
Y183273D01*
Y183142D01*
X74922D01*
Y183010D01*
Y182879D01*
X75053D01*
Y182748D01*
Y182617D01*
X75184D01*
Y182486D01*
Y182354D01*
X75315D01*
Y182223D01*
Y182092D01*
Y181961D01*
X75446D01*
Y181830D01*
X75578D01*
Y181698D01*
Y181567D01*
Y181436D01*
X75709D01*
Y181305D01*
Y181174D01*
X75840D01*
Y181042D01*
Y180911D01*
Y180780D01*
X75971D01*
Y180649D01*
Y180518D01*
Y180386D01*
Y180255D01*
Y180124D01*
Y179993D01*
Y179862D01*
Y179730D01*
X76102D01*
Y179599D01*
Y179468D01*
Y179337D01*
Y179206D01*
Y179074D01*
Y178943D01*
Y178812D01*
X75971D01*
Y178681D01*
Y178550D01*
Y178418D01*
Y178287D01*
Y178156D01*
X75840D01*
Y178025D01*
Y177894D01*
Y177762D01*
Y177631D01*
Y177500D01*
X75709D01*
Y177369D01*
Y177238D01*
Y177106D01*
X75578D01*
Y176975D01*
Y176844D01*
Y176713D01*
X75446D01*
Y176582D01*
Y176450D01*
X75315D01*
Y176319D01*
Y176188D01*
X75184D01*
Y176057D01*
X75053D01*
Y175926D01*
X74922D01*
Y175794D01*
Y175663D01*
X74790D01*
Y175532D01*
X74528D01*
Y175401D01*
X74266D01*
Y175270D01*
Y175138D01*
X74134D01*
Y175270D01*
Y175401D01*
Y175532D01*
Y175663D01*
Y175794D01*
X73610D01*
Y175663D01*
X73478D01*
Y175532D01*
Y175401D01*
Y175270D01*
Y175138D01*
X73347D01*
Y175007D01*
Y174876D01*
Y174745D01*
Y174614D01*
X73216D01*
Y174482D01*
Y174351D01*
Y174220D01*
X73085D01*
Y174089D01*
Y173958D01*
Y173826D01*
X72954D01*
Y173695D01*
Y173564D01*
Y173433D01*
X72822D01*
Y173302D01*
Y173170D01*
X72691D01*
Y173039D01*
Y172908D01*
X72560D01*
Y172777D01*
Y172646D01*
X72429D01*
Y172514D01*
X72298D01*
Y172383D01*
Y172252D01*
X72166D01*
Y172121D01*
X72035D01*
Y171990D01*
Y171858D01*
X71904D01*
Y171727D01*
X71773D01*
Y171596D01*
X71642D01*
Y171465D01*
X71510D01*
Y171334D01*
X71379D01*
Y171202D01*
X71248D01*
Y171071D01*
X71117D01*
Y170940D01*
X70986D01*
Y170809D01*
X70854D01*
Y170678D01*
X70723D01*
Y170546D01*
X70461D01*
Y170415D01*
X70330D01*
Y170284D01*
X70198D01*
Y170153D01*
X69936D01*
Y170022D01*
X69805D01*
Y169890D01*
X69542D01*
Y169759D01*
X69411D01*
Y169628D01*
X69149D01*
Y169497D01*
X68886D01*
Y169366D01*
X68624D01*
Y169234D01*
X68493D01*
Y169103D01*
X68230D01*
Y168972D01*
X67837D01*
Y168841D01*
X67181D01*
Y168710D01*
X66525D01*
Y168578D01*
Y168447D01*
Y168316D01*
Y168185D01*
Y168054D01*
X67050D01*
Y167922D01*
X66918D01*
Y167791D01*
X66787D01*
Y167660D01*
Y167529D01*
X66656D01*
Y167398D01*
Y167266D01*
X66525D01*
Y167135D01*
Y167004D01*
X66394D01*
Y166873D01*
X66262D01*
Y166742D01*
Y166610D01*
X66131D01*
Y166479D01*
Y166348D01*
X66000D01*
Y166217D01*
X65869D01*
Y166086D01*
X65738D01*
Y165954D01*
Y165823D01*
X65606D01*
Y165692D01*
X65475D01*
Y165561D01*
X65344D01*
Y165430D01*
X65213D01*
Y165298D01*
X65082D01*
Y165167D01*
X64950D01*
Y165036D01*
X64819D01*
Y164905D01*
X64688D01*
Y164774D01*
X64557D01*
Y164643D01*
X64426D01*
Y164511D01*
X64294D01*
Y164380D01*
X64163D01*
Y164249D01*
X63901D01*
Y164118D01*
X63770D01*
Y163986D01*
X63638D01*
Y163855D01*
X63376D01*
Y163724D01*
X63245D01*
Y163593D01*
X63114D01*
Y163462D01*
X62851D01*
Y163330D01*
X62720D01*
Y163199D01*
X62589D01*
Y163068D01*
X62326D01*
Y162937D01*
X62195D01*
Y162806D01*
X61933D01*
Y162674D01*
X61802D01*
Y162543D01*
X61539D01*
Y162412D01*
X61277D01*
Y162281D01*
X61146D01*
Y162150D01*
X60883D01*
Y162019D01*
X60752D01*
Y161887D01*
X60490D01*
Y161756D01*
X60227D01*
Y161625D01*
X59965D01*
Y161494D01*
X59702D01*
Y161363D01*
X59440D01*
Y161231D01*
X59178D01*
Y161100D01*
X59046D01*
Y161231D01*
Y161363D01*
X59178D01*
Y161494D01*
Y161625D01*
Y161756D01*
X59309D01*
Y161887D01*
Y162019D01*
Y162150D01*
Y162281D01*
Y162412D01*
Y162543D01*
X59440D01*
Y162674D01*
Y162806D01*
Y162937D01*
X59571D01*
Y163068D01*
Y163199D01*
Y163330D01*
Y163462D01*
Y163593D01*
Y163724D01*
X59702D01*
Y163855D01*
Y163986D01*
Y164118D01*
Y164249D01*
Y164380D01*
Y164511D01*
Y164643D01*
X59834D01*
Y164774D01*
Y164905D01*
Y165036D01*
Y165167D01*
Y165298D01*
Y165430D01*
Y165561D01*
Y165692D01*
Y165823D01*
Y165954D01*
X59965D01*
Y166086D01*
Y166217D01*
Y166348D01*
Y166479D01*
Y166610D01*
X60096D01*
Y166742D01*
X60227D01*
Y166873D01*
X60490D01*
Y167004D01*
X60621D01*
Y167135D01*
X60752D01*
Y167266D01*
X61014D01*
Y167398D01*
X61146D01*
Y167529D01*
Y167660D01*
X61408D01*
Y167791D01*
Y167922D01*
X61539D01*
Y168054D01*
X61670D01*
Y168185D01*
X61802D01*
Y168316D01*
X61933D01*
Y168447D01*
X63114D01*
Y168578D01*
Y168710D01*
Y168841D01*
Y168972D01*
Y169103D01*
X61933D01*
Y169234D01*
X61277D01*
Y169366D01*
X61014D01*
Y169497D01*
X60621D01*
Y169628D01*
X60227D01*
Y169759D01*
X59965D01*
Y169890D01*
X59571D01*
Y170022D01*
X59309D01*
Y170153D01*
X59046D01*
Y170284D01*
X58784D01*
Y170415D01*
X58653D01*
Y170546D01*
X58390D01*
Y170678D01*
X58128D01*
Y170809D01*
X57997D01*
Y170940D01*
X57734D01*
Y171071D01*
X57472D01*
Y171202D01*
X57341D01*
Y171334D01*
X57210D01*
Y171465D01*
X56947D01*
Y171596D01*
X56816D01*
Y171727D01*
X56685D01*
Y171858D01*
X56554D01*
Y171990D01*
X56291D01*
Y172121D01*
X56160D01*
Y172252D01*
X56029D01*
Y172383D01*
X55898D01*
Y172514D01*
X55766D01*
Y172646D01*
X55635D01*
Y172777D01*
X55504D01*
Y172908D01*
X55373D01*
Y173039D01*
X55242D01*
Y173170D01*
X55110D01*
Y173302D01*
X54979D01*
Y173433D01*
X54848D01*
Y173564D01*
Y173695D01*
X54717D01*
Y173826D01*
X54586D01*
Y173958D01*
X54454D01*
Y174089D01*
X54323D01*
Y174220D01*
Y174351D01*
X54192D01*
Y174482D01*
X54061D01*
Y174614D01*
Y174745D01*
X53930D01*
Y174876D01*
Y175007D01*
X53798D01*
Y175138D01*
X53667D01*
Y175270D01*
Y175401D01*
X53536D01*
Y175532D01*
Y175663D01*
Y175794D01*
Y175926D01*
Y176057D01*
Y176188D01*
X51962D01*
Y176319D01*
X50912D01*
Y176450D01*
X50256D01*
Y176582D01*
X49600D01*
Y176713D01*
X49075D01*
Y176844D01*
X48813D01*
Y176975D01*
X48419D01*
Y177106D01*
X48026D01*
Y177238D01*
X47763D01*
Y177369D01*
X47501D01*
Y177500D01*
X47370D01*
Y177631D01*
X47107D01*
Y177762D01*
X46845D01*
Y177894D01*
X46714D01*
Y178025D01*
X46451D01*
Y178156D01*
X46320D01*
Y178287D01*
X46058D01*
Y178418D01*
X45926D01*
Y178550D01*
X45795D01*
Y178681D01*
X45664D01*
Y178812D01*
X45402D01*
Y178943D01*
X45270D01*
Y179074D01*
Y179206D01*
X45795D01*
Y179337D01*
X46058D01*
Y179468D01*
Y179599D01*
Y179730D01*
Y179862D01*
Y179993D01*
X45533D01*
Y179862D01*
X43959D01*
Y179993D01*
X43303D01*
Y180124D01*
X43040D01*
Y180255D01*
X42515D01*
Y180386D01*
X42122D01*
Y180518D01*
X41859D01*
Y180649D01*
X41728D01*
Y180780D01*
X41466D01*
Y180911D01*
X41335D01*
Y181042D01*
X41203D01*
Y181174D01*
X41335D01*
Y181305D01*
X41466D01*
Y181436D01*
X41728D01*
Y181567D01*
X41859D01*
Y181698D01*
X41991D01*
Y181830D01*
X42253D01*
Y181961D01*
X42647D01*
Y182092D01*
X42909D01*
Y182223D01*
X43434D01*
Y182354D01*
X43959D01*
Y182486D01*
X46582D01*
Y182354D01*
X47107D01*
Y182223D01*
X47501D01*
Y182092D01*
X47632D01*
Y181961D01*
X47894D01*
Y181830D01*
X48026D01*
Y181698D01*
X48288D01*
Y181567D01*
X48682D01*
Y181436D01*
X48813D01*
Y181305D01*
X49600D01*
Y181436D01*
Y181567D01*
Y181698D01*
Y181830D01*
X49469D01*
Y181961D01*
X49207D01*
Y182092D01*
X49075D01*
Y182223D01*
X48813D01*
Y182354D01*
X48682D01*
Y182486D01*
X48419D01*
Y182617D01*
X48288D01*
Y182748D01*
X48026D01*
Y182879D01*
X47894D01*
Y183010D01*
X47763D01*
Y183142D01*
X47632D01*
Y183273D01*
X47370D01*
Y183404D01*
X47238D01*
Y183535D01*
X47107D01*
Y183666D01*
X46976D01*
Y183798D01*
Y183929D01*
X46845D01*
Y184060D01*
X46714D01*
Y184191D01*
X46582D01*
Y184322D01*
X46451D01*
Y184454D01*
Y184585D01*
X46320D01*
Y184716D01*
X46189D01*
Y184847D01*
Y184978D01*
X46058D01*
Y185110D01*
Y185241D01*
X45926D01*
Y185372D01*
Y185503D01*
X45795D01*
Y185634D01*
Y185766D01*
X45664D01*
Y185897D01*
X45926D01*
Y186028D01*
X47370D01*
Y185897D01*
D02*
G37*
G36*
X44090Y176319D02*
X43959D01*
Y176188D01*
Y176057D01*
Y175926D01*
Y175794D01*
Y175663D01*
Y175532D01*
X44090D01*
Y175401D01*
X44352D01*
Y175270D01*
X44483D01*
Y175138D01*
X45008D01*
Y175007D01*
X46058D01*
Y174876D01*
X47107D01*
Y175007D01*
X47632D01*
Y175138D01*
X48288D01*
Y175270D01*
X48551D01*
Y175401D01*
X48813D01*
Y175532D01*
X49075D01*
Y175663D01*
X49207D01*
Y175794D01*
Y175926D01*
X49469D01*
Y175794D01*
X49994D01*
Y175663D01*
X50650D01*
Y175532D01*
X51437D01*
Y175401D01*
X52749D01*
Y175270D01*
Y175138D01*
X52880D01*
Y175007D01*
Y174876D01*
X53011D01*
Y174745D01*
Y174614D01*
X53142D01*
Y174482D01*
Y174351D01*
X53274D01*
Y174220D01*
X53405D01*
Y174089D01*
Y173958D01*
X53536D01*
Y173826D01*
Y173695D01*
X53667D01*
Y173564D01*
X53798D01*
Y173433D01*
Y173302D01*
X54061D01*
Y173170D01*
Y173039D01*
X54192D01*
Y172908D01*
Y172777D01*
X54454D01*
Y172646D01*
X54586D01*
Y172514D01*
X54717D01*
Y172383D01*
Y172252D01*
X54848D01*
Y172121D01*
X54979D01*
Y171990D01*
X55242D01*
Y171858D01*
X55373D01*
Y171727D01*
X55504D01*
Y171596D01*
X55635D01*
Y171465D01*
X55766D01*
Y171334D01*
X55898D01*
Y171202D01*
X56160D01*
Y171071D01*
X56291D01*
Y170940D01*
X56422D01*
Y170809D01*
X56685D01*
Y170678D01*
X56816D01*
Y170546D01*
X57078D01*
Y170415D01*
X57210D01*
Y170284D01*
X57472D01*
Y170153D01*
X57603D01*
Y170022D01*
X57866D01*
Y169890D01*
X58128D01*
Y169759D01*
X58259D01*
Y169628D01*
X58522D01*
Y169497D01*
X58784D01*
Y169366D01*
X59046D01*
Y169234D01*
Y169103D01*
Y168972D01*
Y168841D01*
Y168710D01*
Y168578D01*
Y168447D01*
Y168316D01*
Y168185D01*
Y168054D01*
X59178D01*
Y167922D01*
Y167791D01*
Y167660D01*
Y167529D01*
Y167398D01*
Y167266D01*
Y167135D01*
Y167004D01*
Y166873D01*
X59309D01*
Y166742D01*
Y166610D01*
X59178D01*
Y166479D01*
Y166348D01*
Y166217D01*
Y166086D01*
Y165954D01*
Y165823D01*
Y165692D01*
Y165561D01*
X59046D01*
Y165430D01*
Y165298D01*
Y165167D01*
Y165036D01*
Y164905D01*
Y164774D01*
Y164643D01*
Y164511D01*
X58915D01*
Y164380D01*
Y164249D01*
Y164118D01*
Y163986D01*
Y163855D01*
Y163724D01*
Y163593D01*
X58784D01*
Y163462D01*
Y163330D01*
Y163199D01*
Y163068D01*
X58653D01*
Y162937D01*
Y162806D01*
Y162674D01*
Y162543D01*
X58522D01*
Y162412D01*
Y162281D01*
Y162150D01*
Y162019D01*
X58390D01*
Y161887D01*
Y161756D01*
Y161625D01*
X58259D01*
Y161494D01*
Y161363D01*
Y161231D01*
X58128D01*
Y161100D01*
Y160969D01*
X57997D01*
Y160838D01*
Y160706D01*
Y160575D01*
Y160444D01*
X57866D01*
Y160313D01*
Y160182D01*
X57734D01*
Y160050D01*
Y159919D01*
X57603D01*
Y159788D01*
Y159657D01*
Y159526D01*
X57472D01*
Y159395D01*
Y159263D01*
X57341D01*
Y159132D01*
Y159001D01*
Y158870D01*
X57210D01*
Y158739D01*
X57078D01*
Y158607D01*
Y158476D01*
Y158345D01*
X56947D01*
Y158214D01*
Y158082D01*
X56816D01*
Y157951D01*
Y157820D01*
X56685D01*
Y157689D01*
Y157558D01*
X56554D01*
Y157427D01*
Y157295D01*
X56422D01*
Y157164D01*
Y157033D01*
X56291D01*
Y156902D01*
Y156771D01*
X56160D01*
Y156639D01*
Y156508D01*
Y156377D01*
X56029D01*
Y156246D01*
Y156114D01*
X55898D01*
Y155983D01*
Y155852D01*
Y155721D01*
X55766D01*
Y155590D01*
X55635D01*
Y155458D01*
Y155327D01*
Y155196D01*
X55504D01*
Y155065D01*
Y154934D01*
X55373D01*
Y154803D01*
Y154671D01*
Y154540D01*
Y154409D01*
X55242D01*
Y154278D01*
Y154147D01*
Y154015D01*
Y153884D01*
X55110D01*
Y153753D01*
Y153622D01*
Y153490D01*
X54979D01*
Y153359D01*
Y153228D01*
Y153097D01*
Y152966D01*
X54848D01*
Y152834D01*
Y152703D01*
Y152572D01*
Y152441D01*
Y152310D01*
Y152179D01*
Y152047D01*
Y151916D01*
Y151785D01*
Y151654D01*
Y151523D01*
Y151391D01*
Y151260D01*
X54454D01*
Y151391D01*
X53930D01*
Y151523D01*
X53667D01*
Y151654D01*
X53274D01*
Y151785D01*
X53011D01*
Y151916D01*
X52618D01*
Y152047D01*
X52355D01*
Y152179D01*
X52093D01*
Y152310D01*
X51962D01*
Y152441D01*
X51830D01*
Y152572D01*
X51699D01*
Y152703D01*
Y152834D01*
X51568D01*
Y152966D01*
Y153097D01*
X51437D01*
Y153228D01*
Y153359D01*
Y153490D01*
X51306D01*
Y153622D01*
Y153753D01*
Y153884D01*
Y154015D01*
Y154147D01*
Y154278D01*
X51437D01*
Y154409D01*
Y154540D01*
Y154671D01*
X51568D01*
Y154803D01*
Y154934D01*
Y155065D01*
Y155196D01*
X51699D01*
Y155327D01*
Y155458D01*
X51830D01*
Y155590D01*
Y155721D01*
Y155852D01*
Y155983D01*
Y156114D01*
X51962D01*
Y156246D01*
Y156377D01*
X52093D01*
Y156508D01*
Y156639D01*
Y156771D01*
Y156902D01*
X52224D01*
Y157033D01*
Y157164D01*
X52355D01*
Y157295D01*
Y157427D01*
Y157558D01*
Y157689D01*
Y157820D01*
Y157951D01*
Y158082D01*
X52224D01*
Y158214D01*
Y158345D01*
Y158476D01*
Y158607D01*
X52093D01*
Y158739D01*
Y158870D01*
Y159001D01*
X51962D01*
Y159132D01*
Y159263D01*
X51830D01*
Y159395D01*
Y159526D01*
X51699D01*
Y159657D01*
Y159788D01*
X51568D01*
Y159919D01*
Y160050D01*
Y160182D01*
X51437D01*
Y160313D01*
Y160444D01*
X51306D01*
Y160575D01*
X51174D01*
Y160706D01*
Y160838D01*
X51043D01*
Y160969D01*
Y161100D01*
X50912D01*
Y161231D01*
Y161363D01*
Y161494D01*
X50781D01*
Y161625D01*
Y161756D01*
X50650D01*
Y161887D01*
Y162019D01*
Y162150D01*
X50519D01*
Y162281D01*
Y162412D01*
Y162543D01*
X50387D01*
Y162674D01*
Y162806D01*
Y162937D01*
X50256D01*
Y163068D01*
Y163199D01*
Y163330D01*
Y163462D01*
X50125D01*
Y163593D01*
Y163724D01*
Y163855D01*
Y163986D01*
X49994D01*
Y164118D01*
Y164249D01*
Y164380D01*
Y164511D01*
X49863D01*
Y164643D01*
Y164774D01*
Y164905D01*
X49731D01*
Y165036D01*
Y165167D01*
Y165298D01*
Y165430D01*
X49600D01*
Y165561D01*
Y165692D01*
Y165823D01*
X49469D01*
Y165954D01*
Y166086D01*
Y166217D01*
Y166348D01*
Y166479D01*
X49338D01*
Y166610D01*
Y166742D01*
Y166873D01*
Y167004D01*
X49207D01*
Y167135D01*
Y167266D01*
Y167398D01*
Y167529D01*
Y167660D01*
X49075D01*
Y167791D01*
Y167922D01*
Y168054D01*
Y168185D01*
Y168316D01*
Y168447D01*
X48944D01*
Y168578D01*
Y168710D01*
Y168841D01*
Y168972D01*
X48419D01*
Y168841D01*
Y168710D01*
Y168578D01*
Y168447D01*
Y168316D01*
X48026D01*
Y168447D01*
X47763D01*
Y168578D01*
X47632D01*
Y168710D01*
X47370D01*
Y168841D01*
X46976D01*
Y168972D01*
X46714D01*
Y169103D01*
X46582D01*
Y169234D01*
X46320D01*
Y169366D01*
X46058D01*
Y169497D01*
X45926D01*
Y169628D01*
X45664D01*
Y169759D01*
X45270D01*
Y169890D01*
X45139D01*
Y170022D01*
X44352D01*
Y169890D01*
X44221D01*
Y169759D01*
X44090D01*
Y169628D01*
X43959D01*
Y169497D01*
X43827D01*
Y169366D01*
X43565D01*
Y169234D01*
X43434D01*
Y169103D01*
X43171D01*
Y168972D01*
X43040D01*
Y168841D01*
X42778D01*
Y168710D01*
X42515D01*
Y168578D01*
X42253D01*
Y168447D01*
X41991D01*
Y168316D01*
X41728D01*
Y168185D01*
X41597D01*
Y168316D01*
Y168447D01*
Y168578D01*
Y168710D01*
Y168841D01*
X41072D01*
Y168710D01*
Y168578D01*
X40941D01*
Y168447D01*
Y168316D01*
Y168185D01*
Y168054D01*
Y167922D01*
Y167791D01*
Y167660D01*
Y167529D01*
Y167398D01*
X40810D01*
Y167266D01*
Y167135D01*
Y167004D01*
Y166873D01*
Y166742D01*
X40679D01*
Y166610D01*
Y166479D01*
Y166348D01*
Y166217D01*
X40547D01*
Y166086D01*
Y165954D01*
X40416D01*
Y165823D01*
Y165692D01*
Y165561D01*
Y165430D01*
X40285D01*
Y165298D01*
Y165167D01*
X40154D01*
Y165036D01*
Y164905D01*
Y164774D01*
X40023D01*
Y164643D01*
Y164511D01*
X39891D01*
Y164380D01*
Y164249D01*
Y164118D01*
X39760D01*
Y163986D01*
Y163855D01*
X39629D01*
Y163724D01*
Y163593D01*
Y163462D01*
X39498D01*
Y163330D01*
X39366D01*
Y163199D01*
X39235D01*
Y163068D01*
Y162937D01*
X39104D01*
Y162806D01*
X38973D01*
Y162674D01*
Y162543D01*
X38842D01*
Y162412D01*
X38710D01*
Y162281D01*
Y162150D01*
X38579D01*
Y162019D01*
X38448D01*
Y161887D01*
X38317D01*
Y161756D01*
Y161625D01*
X38186D01*
Y161494D01*
X38054D01*
Y161363D01*
X37923D01*
Y161231D01*
X37792D01*
Y161100D01*
Y160969D01*
X37661D01*
Y160838D01*
X37530D01*
Y160706D01*
X37398D01*
Y160575D01*
X37267D01*
Y160444D01*
X37136D01*
Y160313D01*
X37005D01*
Y160182D01*
X36874D01*
Y160050D01*
X36742D01*
Y159919D01*
X36611D01*
Y159788D01*
X36480D01*
Y159657D01*
X36349D01*
Y159526D01*
X36218D01*
Y159395D01*
X35955D01*
Y159263D01*
X35824D01*
Y159132D01*
X35693D01*
Y159001D01*
X35562D01*
Y158870D01*
X35430D01*
Y158739D01*
X35299D01*
Y158607D01*
X35168D01*
Y158476D01*
X35037D01*
Y158345D01*
X34775D01*
Y158214D01*
X34643D01*
Y158082D01*
X34512D01*
Y157951D01*
X34381D01*
Y157820D01*
X34119D01*
Y157689D01*
X33987D01*
Y157558D01*
X33725D01*
Y157427D01*
X33594D01*
Y157295D01*
X33463D01*
Y157164D01*
X33200D01*
Y157033D01*
X33069D01*
Y156902D01*
X32807D01*
Y156771D01*
X32544D01*
Y156639D01*
X32282D01*
Y156508D01*
X32019D01*
Y156377D01*
X31888D01*
Y156246D01*
X31626D01*
Y156114D01*
X31495D01*
Y155983D01*
X31232D01*
Y155852D01*
X30970D01*
Y155721D01*
X30707D01*
Y155590D01*
X30445D01*
Y155458D01*
X30314D01*
Y155327D01*
X30051D01*
Y155196D01*
X29789D01*
Y155065D01*
X29658D01*
Y154934D01*
X29395D01*
Y154803D01*
X29264D01*
Y154671D01*
X29133D01*
Y154540D01*
X29002D01*
Y154409D01*
X28739D01*
Y154278D01*
Y154147D01*
X28608D01*
Y154015D01*
Y153884D01*
X28477D01*
Y153753D01*
Y153622D01*
Y153490D01*
X28346D01*
Y153359D01*
Y153228D01*
X28214D01*
Y153097D01*
Y152966D01*
Y152834D01*
X28083D01*
Y152703D01*
Y152572D01*
X27952D01*
Y152441D01*
Y152310D01*
Y152179D01*
X27821D01*
Y152047D01*
Y151916D01*
Y151785D01*
X27690D01*
Y151654D01*
Y151523D01*
Y151391D01*
Y151260D01*
Y151129D01*
Y150998D01*
X27558D01*
Y150866D01*
Y150735D01*
X27165D01*
Y150866D01*
X27034D01*
Y150998D01*
X26902D01*
Y151129D01*
X26771D01*
Y151260D01*
X26640D01*
Y151391D01*
X26509D01*
Y151523D01*
X26378D01*
Y151654D01*
X26247D01*
Y151785D01*
X26115D01*
Y151916D01*
X25984D01*
Y152047D01*
X25853D01*
Y152179D01*
X25722D01*
Y152310D01*
X25591D01*
Y152441D01*
Y152572D01*
Y152703D01*
X25459D01*
Y152834D01*
X25328D01*
Y152966D01*
Y153097D01*
Y153228D01*
X25197D01*
Y153359D01*
X25328D01*
Y153490D01*
Y153622D01*
Y153753D01*
X25459D01*
Y153884D01*
Y154015D01*
Y154147D01*
X25591D01*
Y154278D01*
Y154409D01*
Y154540D01*
X25722D01*
Y154671D01*
Y154803D01*
X25853D01*
Y154934D01*
Y155065D01*
X25984D01*
Y155196D01*
X26115D01*
Y155327D01*
Y155458D01*
X26247D01*
Y155590D01*
X26378D01*
Y155721D01*
X26509D01*
Y155852D01*
X26640D01*
Y155983D01*
X26902D01*
Y156114D01*
X27034D01*
Y156246D01*
X27165D01*
Y156377D01*
X27296D01*
Y156508D01*
X27427D01*
Y156639D01*
X27558D01*
Y156771D01*
X27821D01*
Y156902D01*
X27952D01*
Y157033D01*
X28083D01*
Y157164D01*
X28214D01*
Y157295D01*
X28346D01*
Y157427D01*
X28477D01*
Y157558D01*
X28739D01*
Y157689D01*
X28870D01*
Y157820D01*
X29002D01*
Y157951D01*
X29133D01*
Y158082D01*
X29264D01*
Y158214D01*
X29395D01*
Y158345D01*
X29526D01*
Y158476D01*
X29658D01*
Y158607D01*
X29789D01*
Y158739D01*
Y158870D01*
X29920D01*
Y159001D01*
Y159132D01*
X30051D01*
Y159263D01*
Y159395D01*
Y159526D01*
Y159657D01*
Y159788D01*
X30182D01*
Y159919D01*
Y160050D01*
Y160182D01*
Y160313D01*
Y160444D01*
Y160575D01*
Y160706D01*
Y160838D01*
Y160969D01*
Y161100D01*
Y161231D01*
Y161363D01*
Y161494D01*
Y161625D01*
Y161756D01*
Y161887D01*
Y162019D01*
Y162150D01*
Y162281D01*
Y162412D01*
Y162543D01*
Y162674D01*
Y162806D01*
X30314D01*
Y162937D01*
Y163068D01*
Y163199D01*
Y163330D01*
Y163462D01*
Y163593D01*
Y163724D01*
Y163855D01*
Y163986D01*
Y164118D01*
Y164249D01*
Y164380D01*
Y164511D01*
Y164643D01*
Y164774D01*
X30445D01*
Y164905D01*
Y165036D01*
Y165167D01*
Y165298D01*
Y165430D01*
Y165561D01*
Y165692D01*
Y165823D01*
Y165954D01*
Y166086D01*
Y166217D01*
X30576D01*
Y166348D01*
Y166479D01*
Y166610D01*
Y166742D01*
Y166873D01*
Y167004D01*
Y167135D01*
Y167266D01*
X30707D01*
Y167398D01*
Y167529D01*
Y167660D01*
Y167791D01*
X30839D01*
Y167922D01*
Y168054D01*
Y168185D01*
Y168316D01*
Y168447D01*
X30970D01*
Y168578D01*
Y168710D01*
Y168841D01*
Y168972D01*
X31101D01*
Y169103D01*
Y169234D01*
Y169366D01*
X31232D01*
Y169497D01*
Y169628D01*
Y169759D01*
Y169890D01*
X31363D01*
Y170022D01*
Y170153D01*
X31495D01*
Y170284D01*
Y170415D01*
Y170546D01*
Y170678D01*
X31626D01*
Y170809D01*
X31757D01*
Y170940D01*
X31888D01*
Y171071D01*
Y171202D01*
Y171334D01*
X32019D01*
Y171465D01*
Y171596D01*
X32151D01*
Y171727D01*
X32282D01*
Y171858D01*
Y171990D01*
X32413D01*
Y172121D01*
X32544D01*
Y172252D01*
X32675D01*
Y172383D01*
Y172514D01*
X32807D01*
Y172646D01*
X32938D01*
Y172777D01*
Y172908D01*
X33069D01*
Y173039D01*
X33200D01*
Y173170D01*
X33331D01*
Y173302D01*
X33463D01*
Y173433D01*
Y173564D01*
X33594D01*
Y173695D01*
X33725D01*
Y173826D01*
X33856D01*
Y173958D01*
X34119D01*
Y174089D01*
X34250D01*
Y174220D01*
X34381D01*
Y174351D01*
X34643D01*
Y174482D01*
X34775D01*
Y174614D01*
X35037D01*
Y174745D01*
X35299D01*
Y174876D01*
X35430D01*
Y175007D01*
X35693D01*
Y175138D01*
X35955D01*
Y175270D01*
X36218D01*
Y175401D01*
X36480D01*
Y175532D01*
X36742D01*
Y175663D01*
X37005D01*
Y175794D01*
X37267D01*
Y175926D01*
X37661D01*
Y176057D01*
X38317D01*
Y176188D01*
X38842D01*
Y176319D01*
X40941D01*
Y176450D01*
X41072D01*
Y176319D01*
X43565D01*
Y176450D01*
X44090D01*
Y176319D01*
D02*
G37*
G36*
X48157Y176188D02*
X48288D01*
Y176057D01*
X48157D01*
Y175926D01*
X47763D01*
Y175794D01*
X47238D01*
Y175663D01*
X45139D01*
Y175794D01*
X44877D01*
Y175926D01*
Y176057D01*
X45139D01*
Y176188D01*
X45533D01*
Y176319D01*
X48157D01*
Y176188D01*
D02*
G37*
G36*
X34906Y175532D02*
X34512D01*
Y175401D01*
X34381D01*
Y175270D01*
X34119D01*
Y175138D01*
X33987D01*
Y175007D01*
X33856D01*
Y174876D01*
X33725D01*
Y174745D01*
X33594D01*
Y174614D01*
X33463D01*
Y174482D01*
X33200D01*
Y174351D01*
X33069D01*
Y174220D01*
X32938D01*
Y174089D01*
X32807D01*
Y173958D01*
X32675D01*
Y173826D01*
X32544D01*
Y173695D01*
Y173564D01*
X32413D01*
Y173433D01*
X32282D01*
Y173302D01*
X32151D01*
Y173170D01*
Y173039D01*
X32019D01*
Y172908D01*
X31888D01*
Y172777D01*
X31757D01*
Y172646D01*
Y172514D01*
X31626D01*
Y172383D01*
X31495D01*
Y172252D01*
Y172121D01*
Y171990D01*
X31363D01*
Y171858D01*
Y171727D01*
X31232D01*
Y171596D01*
X31101D01*
Y171465D01*
Y171334D01*
X30970D01*
Y171202D01*
Y171071D01*
X30839D01*
Y170940D01*
Y170809D01*
X30707D01*
Y170678D01*
Y170546D01*
X30576D01*
Y170415D01*
Y170284D01*
Y170153D01*
X30445D01*
Y170022D01*
Y169890D01*
Y169759D01*
X30314D01*
Y169890D01*
Y170022D01*
Y170153D01*
Y170284D01*
X30051D01*
Y170415D01*
X29658D01*
Y170546D01*
X29002D01*
Y170678D01*
X28477D01*
Y170809D01*
X27558D01*
Y170940D01*
X27034D01*
Y171071D01*
X26378D01*
Y171202D01*
X25984D01*
Y171334D01*
X25853D01*
Y171465D01*
X25984D01*
Y171596D01*
X26115D01*
Y171727D01*
X26247D01*
Y171858D01*
X26378D01*
Y171990D01*
X26640D01*
Y172121D01*
X26771D01*
Y172252D01*
X26902D01*
Y172383D01*
X27165D01*
Y172514D01*
X27296D01*
Y172646D01*
X27427D01*
Y172777D01*
X27690D01*
Y172908D01*
X27952D01*
Y173039D01*
X28083D01*
Y173170D01*
X28214D01*
Y173302D01*
X28477D01*
Y173433D01*
X28739D01*
Y173564D01*
X29002D01*
Y173695D01*
X29264D01*
Y173826D01*
X29526D01*
Y173958D01*
X29789D01*
Y174089D01*
X30051D01*
Y174220D01*
X30314D01*
Y174351D01*
X30576D01*
Y174482D01*
X30970D01*
Y174614D01*
X31232D01*
Y174745D01*
X31626D01*
Y174876D01*
X31888D01*
Y175007D01*
X32282D01*
Y175138D01*
X32807D01*
Y175270D01*
X33200D01*
Y175401D01*
X33725D01*
Y175532D01*
X34381D01*
Y175663D01*
X34906D01*
Y175532D01*
D02*
G37*
G36*
X30314Y169497D02*
Y169366D01*
X30182D01*
Y169234D01*
Y169103D01*
Y168972D01*
Y168841D01*
Y168710D01*
X29526D01*
Y168841D01*
X29133D01*
Y168972D01*
X29264D01*
Y169103D01*
X29526D01*
Y169234D01*
X29658D01*
Y169366D01*
X29920D01*
Y169497D01*
X30051D01*
Y169628D01*
X30314D01*
Y169497D01*
D02*
G37*
G36*
X60490Y168710D02*
X60752D01*
Y168578D01*
X60883D01*
Y168447D01*
X60752D01*
Y168316D01*
X60621D01*
Y168185D01*
X60490D01*
Y168054D01*
Y167922D01*
X60227D01*
Y167791D01*
X60096D01*
Y167660D01*
X59965D01*
Y167791D01*
Y167922D01*
Y168054D01*
X59834D01*
Y168185D01*
Y168316D01*
Y168447D01*
Y168578D01*
Y168710D01*
X59965D01*
Y168841D01*
X60490D01*
Y168710D01*
D02*
G37*
G36*
X45139Y168972D02*
X45402D01*
Y168841D01*
X45533D01*
Y168710D01*
X45795D01*
Y168578D01*
X46058D01*
Y168447D01*
X46189D01*
Y168316D01*
X46451D01*
Y168185D01*
X46714D01*
Y168054D01*
X47107D01*
Y167922D01*
X47370D01*
Y167791D01*
X47632D01*
Y167660D01*
X48026D01*
Y167529D01*
X48419D01*
Y167398D01*
Y167266D01*
Y167135D01*
X48551D01*
Y167004D01*
Y166873D01*
Y166742D01*
Y166610D01*
X48157D01*
Y166742D01*
X47894D01*
Y166873D01*
X47501D01*
Y167004D01*
X47238D01*
Y167135D01*
X46976D01*
Y167266D01*
X46714D01*
Y167398D01*
X46451D01*
Y167529D01*
X46320D01*
Y167660D01*
X46058D01*
Y167791D01*
X45795D01*
Y167922D01*
X45664D01*
Y168054D01*
X45533D01*
Y168185D01*
X45270D01*
Y168316D01*
X45008D01*
Y168447D01*
X44221D01*
Y168316D01*
X43959D01*
Y168185D01*
X43827D01*
Y168054D01*
X43565D01*
Y167922D01*
X43434D01*
Y167791D01*
X43171D01*
Y167660D01*
X43040D01*
Y167529D01*
X42778D01*
Y167398D01*
X42647D01*
Y167266D01*
X42384D01*
Y167135D01*
X42122D01*
Y167004D01*
X41859D01*
Y166873D01*
X41597D01*
Y167004D01*
Y167135D01*
Y167266D01*
Y167398D01*
X41991D01*
Y167529D01*
X42253D01*
Y167660D01*
X42515D01*
Y167791D01*
X42778D01*
Y167922D01*
X43040D01*
Y168054D01*
X43303D01*
Y168185D01*
X43565D01*
Y168316D01*
X43827D01*
Y168447D01*
X43959D01*
Y168578D01*
X44221D01*
Y168710D01*
X44352D01*
Y168841D01*
X44483D01*
Y168972D01*
X44746D01*
Y169103D01*
X45139D01*
Y168972D01*
D02*
G37*
G36*
X44746Y167529D02*
X45008D01*
Y167398D01*
X45139D01*
Y167266D01*
X45270D01*
Y167135D01*
X45533D01*
Y167004D01*
X45795D01*
Y166873D01*
X46058D01*
Y166742D01*
X46320D01*
Y166610D01*
X46582D01*
Y166479D01*
X46845D01*
Y166348D01*
X47238D01*
Y166217D01*
X47501D01*
Y166086D01*
X47763D01*
Y165954D01*
X48157D01*
Y165823D01*
X48551D01*
Y165692D01*
X48813D01*
Y165561D01*
Y165430D01*
Y165298D01*
Y165167D01*
Y165036D01*
X48944D01*
Y164905D01*
Y164774D01*
X49075D01*
Y164643D01*
X48944D01*
Y164511D01*
Y164380D01*
X49075D01*
Y164249D01*
Y164118D01*
Y163986D01*
Y163855D01*
X49207D01*
Y163724D01*
Y163593D01*
Y163462D01*
X49338D01*
Y163330D01*
Y163199D01*
Y163068D01*
Y162937D01*
X49469D01*
Y162806D01*
Y162674D01*
Y162543D01*
X49600D01*
Y162412D01*
Y162281D01*
Y162150D01*
Y162019D01*
X49731D01*
Y161887D01*
Y161756D01*
X49863D01*
Y161625D01*
Y161494D01*
X49994D01*
Y161363D01*
Y161231D01*
Y161100D01*
X50125D01*
Y160969D01*
Y160838D01*
X50256D01*
Y160706D01*
X49075D01*
Y160838D01*
X47107D01*
Y160969D01*
X45795D01*
Y161100D01*
X44090D01*
Y161231D01*
X42778D01*
Y161363D01*
X41597D01*
Y161494D01*
X39235D01*
Y161625D01*
X39366D01*
Y161756D01*
X39498D01*
Y161887D01*
Y162019D01*
X39629D01*
Y162150D01*
X39760D01*
Y162281D01*
X39891D01*
Y162412D01*
Y162543D01*
X40023D01*
Y162674D01*
Y162806D01*
X40154D01*
Y162937D01*
X40285D01*
Y163068D01*
Y163199D01*
X40416D01*
Y163330D01*
Y163462D01*
X40547D01*
Y163593D01*
Y163724D01*
Y163855D01*
X40679D01*
Y163986D01*
Y164118D01*
X40810D01*
Y164249D01*
Y164380D01*
Y164511D01*
X40941D01*
Y164643D01*
Y164774D01*
Y164905D01*
X41072D01*
Y165036D01*
Y165167D01*
X41203D01*
Y165298D01*
Y165430D01*
Y165561D01*
X41335D01*
Y165692D01*
Y165823D01*
Y165954D01*
X41859D01*
Y166086D01*
X42122D01*
Y166217D01*
X42384D01*
Y166348D01*
X42647D01*
Y166479D01*
X42909D01*
Y166610D01*
X43171D01*
Y166742D01*
X43434D01*
Y166873D01*
X43565D01*
Y167004D01*
X43827D01*
Y167135D01*
X43959D01*
Y167266D01*
X44221D01*
Y167398D01*
X44352D01*
Y167529D01*
X44483D01*
Y167660D01*
X44746D01*
Y167529D01*
D02*
G37*
G36*
X69149Y168447D02*
Y168316D01*
Y168185D01*
Y168054D01*
Y167922D01*
Y167791D01*
Y167660D01*
Y167529D01*
Y167398D01*
Y167266D01*
X69280D01*
Y167135D01*
Y167004D01*
Y166873D01*
Y166742D01*
Y166610D01*
Y166479D01*
Y166348D01*
Y166217D01*
Y166086D01*
Y165954D01*
Y165823D01*
Y165692D01*
X69411D01*
Y165561D01*
Y165430D01*
X69542D01*
Y165298D01*
Y165167D01*
X69674D01*
Y165036D01*
X69805D01*
Y164905D01*
X69936D01*
Y164774D01*
X70067D01*
Y164643D01*
X70198D01*
Y164511D01*
X70330D01*
Y164380D01*
X70592D01*
Y164249D01*
X70723D01*
Y164118D01*
X70854D01*
Y163986D01*
X70986D01*
Y163855D01*
X71117D01*
Y163724D01*
X71248D01*
Y163593D01*
X71379D01*
Y163462D01*
X71510D01*
Y163330D01*
X71642D01*
Y163199D01*
X71773D01*
Y163068D01*
X71904D01*
Y162937D01*
X72035D01*
Y162806D01*
X72166D01*
Y162674D01*
X72298D01*
Y162543D01*
X72429D01*
Y162412D01*
X72560D01*
Y162281D01*
X72691D01*
Y162150D01*
X72822D01*
Y162019D01*
X72954D01*
Y161887D01*
X73085D01*
Y161756D01*
X73216D01*
Y161625D01*
Y161494D01*
X73347D01*
Y161363D01*
X73478D01*
Y161231D01*
X73610D01*
Y161100D01*
X73741D01*
Y160969D01*
X73872D01*
Y160838D01*
X74003D01*
Y160706D01*
X74134D01*
Y160575D01*
X74266D01*
Y160444D01*
X74397D01*
Y160313D01*
Y160182D01*
X74528D01*
Y160050D01*
X74659D01*
Y159919D01*
X74790D01*
Y159788D01*
X74922D01*
Y159657D01*
Y159526D01*
X75053D01*
Y159395D01*
Y159263D01*
X75184D01*
Y159132D01*
Y159001D01*
Y158870D01*
Y158739D01*
Y158607D01*
Y158476D01*
X75053D01*
Y158345D01*
Y158214D01*
X74922D01*
Y158082D01*
X74790D01*
Y157951D01*
Y157820D01*
Y157689D01*
Y157558D01*
X74659D01*
Y157427D01*
Y157295D01*
X74528D01*
Y157164D01*
Y157033D01*
X74397D01*
Y156902D01*
Y156771D01*
Y156639D01*
X74266D01*
Y156508D01*
Y156377D01*
X74134D01*
Y156246D01*
Y156114D01*
X74003D01*
Y155983D01*
Y155852D01*
Y155721D01*
X73872D01*
Y155590D01*
Y155458D01*
X73741D01*
Y155327D01*
X73610D01*
Y155196D01*
Y155065D01*
Y154934D01*
X73478D01*
Y154803D01*
X73347D01*
Y154671D01*
Y154540D01*
X73216D01*
Y154409D01*
Y154278D01*
X73085D01*
Y154147D01*
Y154015D01*
Y153884D01*
X72954D01*
Y153753D01*
X72822D01*
Y153622D01*
Y153490D01*
Y153359D01*
X72691D01*
Y153228D01*
Y153097D01*
Y152966D01*
X72560D01*
Y152834D01*
X72429D01*
Y152703D01*
Y152572D01*
Y152441D01*
Y152310D01*
X72298D01*
Y152441D01*
X72166D01*
Y152572D01*
X72035D01*
Y152703D01*
X71904D01*
Y152834D01*
X71773D01*
Y152966D01*
X71642D01*
Y153097D01*
X71510D01*
Y153228D01*
X71379D01*
Y153359D01*
Y153490D01*
X71248D01*
Y153622D01*
X71117D01*
Y153753D01*
X70986D01*
Y153884D01*
Y154015D01*
X70854D01*
Y154147D01*
Y154278D01*
Y154409D01*
X70723D01*
Y154540D01*
Y154671D01*
X70592D01*
Y154803D01*
Y154934D01*
Y155065D01*
X70461D01*
Y155196D01*
Y155327D01*
Y155458D01*
Y155590D01*
Y155721D01*
Y155852D01*
X70592D01*
Y155983D01*
X70854D01*
Y156114D01*
Y156246D01*
X70986D01*
Y156377D01*
Y156508D01*
X71117D01*
Y156639D01*
Y156771D01*
X71248D01*
Y156902D01*
Y157033D01*
X71379D01*
Y157164D01*
Y157295D01*
X71510D01*
Y157427D01*
Y157558D01*
X71642D01*
Y157689D01*
Y157820D01*
X71773D01*
Y157951D01*
Y158082D01*
Y158214D01*
Y158345D01*
Y158476D01*
X71642D01*
Y158607D01*
X69936D01*
Y158739D01*
X69280D01*
Y158870D01*
X68493D01*
Y159001D01*
X67968D01*
Y159132D01*
X67312D01*
Y159263D01*
X66787D01*
Y159395D01*
X66394D01*
Y159526D01*
X65869D01*
Y159657D01*
X65344D01*
Y159788D01*
X64950D01*
Y159919D01*
X64688D01*
Y160050D01*
X64294D01*
Y160182D01*
X63901D01*
Y160313D01*
X63638D01*
Y160444D01*
X63245D01*
Y160575D01*
X62982D01*
Y160706D01*
X62720D01*
Y160838D01*
X62326D01*
Y160969D01*
X62064D01*
Y161100D01*
X61802D01*
Y161231D01*
X61539D01*
Y161363D01*
Y161494D01*
X61670D01*
Y161625D01*
X61802D01*
Y161756D01*
X62064D01*
Y161887D01*
X62326D01*
Y162019D01*
X62458D01*
Y162150D01*
X62720D01*
Y162281D01*
X62851D01*
Y162412D01*
X63114D01*
Y162543D01*
X63245D01*
Y162674D01*
X63507D01*
Y162806D01*
X63638D01*
Y162937D01*
X63901D01*
Y163068D01*
X64032D01*
Y163199D01*
X64163D01*
Y163330D01*
X64294D01*
Y163462D01*
X64426D01*
Y163593D01*
X64557D01*
Y163724D01*
X64688D01*
Y163855D01*
X64950D01*
Y163986D01*
X65082D01*
Y164118D01*
X65213D01*
Y164249D01*
X65344D01*
Y164380D01*
X65475D01*
Y164511D01*
X65606D01*
Y164643D01*
X65738D01*
Y164774D01*
X65869D01*
Y164905D01*
X66000D01*
Y165036D01*
X66131D01*
Y165167D01*
X66262D01*
Y165298D01*
X66394D01*
Y165430D01*
X66525D01*
Y165561D01*
X66656D01*
Y165692D01*
Y165823D01*
X66787D01*
Y165954D01*
X66918D01*
Y166086D01*
Y166217D01*
X67050D01*
Y166348D01*
Y166479D01*
X67181D01*
Y166610D01*
Y166742D01*
X67312D01*
Y166873D01*
Y167004D01*
X67443D01*
Y167135D01*
Y167266D01*
X67574D01*
Y167398D01*
Y167529D01*
X67706D01*
Y167660D01*
X67837D01*
Y167791D01*
Y167922D01*
X67968D01*
Y168054D01*
Y168185D01*
X68230D01*
Y168316D01*
X68755D01*
Y168447D01*
X69018D01*
Y168578D01*
X69149D01*
Y168447D01*
D02*
G37*
G36*
X39760Y160706D02*
X41597D01*
Y160575D01*
X42909D01*
Y160444D01*
X43959D01*
Y160313D01*
X45139D01*
Y160182D01*
X47107D01*
Y160050D01*
X48026D01*
Y159919D01*
X47894D01*
Y159788D01*
Y159657D01*
Y159526D01*
X47763D01*
Y159395D01*
Y159263D01*
Y159132D01*
Y159001D01*
X47632D01*
Y158870D01*
X47501D01*
Y158739D01*
Y158607D01*
Y158476D01*
X47370D01*
Y158345D01*
Y158214D01*
X47238D01*
Y158082D01*
Y157951D01*
Y157820D01*
X47107D01*
Y157689D01*
Y157558D01*
Y157427D01*
X46976D01*
Y157295D01*
Y157164D01*
X46845D01*
Y157033D01*
Y156902D01*
X46714D01*
Y156771D01*
Y156639D01*
X46582D01*
Y156508D01*
Y156377D01*
X46451D01*
Y156246D01*
Y156114D01*
X46320D01*
Y155983D01*
X46189D01*
Y155852D01*
Y155721D01*
X46058D01*
Y155590D01*
X45926D01*
Y155458D01*
Y155327D01*
X45795D01*
Y155196D01*
X45664D01*
Y155065D01*
Y154934D01*
Y154803D01*
X45533D01*
Y154671D01*
Y154540D01*
X45270D01*
Y154409D01*
Y154278D01*
X45139D01*
Y154147D01*
Y154015D01*
X45008D01*
Y153884D01*
Y153753D01*
X44877D01*
Y153622D01*
Y153490D01*
X44746D01*
Y153359D01*
X44614D01*
Y153228D01*
Y153097D01*
Y152966D01*
X44483D01*
Y152834D01*
X44352D01*
Y152703D01*
X44221D01*
Y152572D01*
Y152441D01*
Y152310D01*
Y152179D01*
X44090D01*
Y152047D01*
Y151916D01*
X43959D01*
Y151785D01*
Y151654D01*
X43827D01*
Y151523D01*
Y151391D01*
Y151260D01*
Y151129D01*
Y150998D01*
Y150866D01*
Y150735D01*
Y150604D01*
Y150473D01*
X43959D01*
Y150342D01*
X44090D01*
Y150210D01*
Y150079D01*
X44221D01*
Y149948D01*
X44090D01*
Y149817D01*
X43827D01*
Y149948D01*
X43040D01*
Y150079D01*
X42515D01*
Y150210D01*
X42384D01*
Y150342D01*
X42122D01*
Y150473D01*
X41991D01*
Y150604D01*
X41859D01*
Y150735D01*
X41597D01*
Y150866D01*
Y150998D01*
X41466D01*
Y151129D01*
Y151260D01*
Y151391D01*
X41335D01*
Y151523D01*
Y151654D01*
Y151785D01*
X41203D01*
Y151916D01*
Y152047D01*
Y152179D01*
Y152310D01*
Y152441D01*
Y152572D01*
X41335D01*
Y152703D01*
X41466D01*
Y152834D01*
Y152966D01*
Y153097D01*
X41597D01*
Y153228D01*
Y153359D01*
X41728D01*
Y153490D01*
Y153622D01*
X41859D01*
Y153753D01*
Y153884D01*
X41991D01*
Y154015D01*
X42122D01*
Y154147D01*
Y154278D01*
Y154409D01*
X42253D01*
Y154540D01*
Y154671D01*
X42384D01*
Y154803D01*
Y154934D01*
X42515D01*
Y155065D01*
Y155196D01*
Y155327D01*
Y155458D01*
Y155590D01*
Y155721D01*
Y155852D01*
Y155983D01*
Y156114D01*
X42384D01*
Y156246D01*
X42253D01*
Y156377D01*
Y156508D01*
X42122D01*
Y156639D01*
X41991D01*
Y156771D01*
Y156902D01*
X41859D01*
Y157033D01*
X41728D01*
Y157164D01*
X41597D01*
Y157295D01*
Y157427D01*
X41466D01*
Y157558D01*
X41335D01*
Y157689D01*
X41203D01*
Y157820D01*
X41072D01*
Y157951D01*
Y158082D01*
X40941D01*
Y158214D01*
X40810D01*
Y158345D01*
Y158476D01*
X40679D01*
Y158607D01*
X40547D01*
Y158739D01*
Y158870D01*
X40416D01*
Y159001D01*
Y159132D01*
X40285D01*
Y159263D01*
Y159395D01*
X40154D01*
Y159526D01*
X40023D01*
Y159657D01*
Y159788D01*
X39891D01*
Y159919D01*
Y160050D01*
X39760D01*
Y160182D01*
Y160313D01*
X39629D01*
Y160444D01*
X39498D01*
Y160575D01*
Y160706D01*
Y160838D01*
X39760D01*
Y160706D01*
D02*
G37*
G36*
X68624Y141289D02*
X70461D01*
Y141158D01*
Y141026D01*
Y140895D01*
X70330D01*
Y140764D01*
Y140633D01*
Y140502D01*
Y140371D01*
Y140239D01*
X70198D01*
Y140108D01*
Y139977D01*
Y139846D01*
Y139715D01*
X70067D01*
Y139583D01*
Y139452D01*
X69936D01*
Y139321D01*
Y139190D01*
Y139058D01*
X69805D01*
Y138927D01*
Y138796D01*
X69674D01*
Y138665D01*
X69411D01*
Y138796D01*
X69149D01*
Y138927D01*
X68886D01*
Y139058D01*
X68755D01*
Y139190D01*
X68624D01*
Y139321D01*
X68493D01*
Y139452D01*
X68362D01*
Y139583D01*
X68230D01*
Y139715D01*
X67968D01*
Y139846D01*
X67837D01*
Y139977D01*
X67706D01*
Y140108D01*
Y140239D01*
X67574D01*
Y140371D01*
Y140502D01*
Y140633D01*
Y140764D01*
X67706D01*
Y140895D01*
X67837D01*
Y141026D01*
Y141158D01*
X67968D01*
Y141289D01*
X68099D01*
Y141420D01*
X68624D01*
Y141289D01*
D02*
G37*
G36*
X69674Y155065D02*
Y154934D01*
X69805D01*
Y154803D01*
Y154671D01*
Y154540D01*
Y154409D01*
X69936D01*
Y154278D01*
Y154147D01*
Y154015D01*
X70067D01*
Y153884D01*
Y153753D01*
Y153622D01*
X70198D01*
Y153490D01*
X70330D01*
Y153359D01*
Y153228D01*
X70461D01*
Y153097D01*
Y152966D01*
X70592D01*
Y152834D01*
X70723D01*
Y152703D01*
X70854D01*
Y152572D01*
X70986D01*
Y152441D01*
Y152310D01*
X71117D01*
Y152179D01*
X71248D01*
Y152047D01*
X71379D01*
Y151916D01*
X71510D01*
Y151785D01*
X71773D01*
Y151654D01*
X72166D01*
Y151523D01*
X72298D01*
Y151391D01*
Y151260D01*
Y151129D01*
X72429D01*
Y150998D01*
Y150866D01*
Y150735D01*
Y150604D01*
Y150473D01*
X72560D01*
Y150342D01*
Y150210D01*
Y150079D01*
Y149948D01*
Y149817D01*
Y149686D01*
X72691D01*
Y149555D01*
Y149423D01*
Y149292D01*
X72822D01*
Y149161D01*
Y149030D01*
Y148898D01*
Y148767D01*
Y148636D01*
Y148505D01*
X72954D01*
Y148374D01*
Y148242D01*
Y148111D01*
Y147980D01*
Y147849D01*
Y147718D01*
Y147587D01*
X73085D01*
Y147455D01*
Y147324D01*
Y147193D01*
Y147062D01*
Y146931D01*
Y146799D01*
X73216D01*
Y146668D01*
Y146537D01*
Y146406D01*
Y146274D01*
Y146143D01*
Y146012D01*
Y145881D01*
X73347D01*
Y145750D01*
Y145618D01*
Y145487D01*
Y145356D01*
Y145225D01*
Y145094D01*
Y144963D01*
Y144831D01*
Y144700D01*
Y144569D01*
Y144438D01*
Y144307D01*
Y144175D01*
Y144044D01*
Y143913D01*
Y143782D01*
Y143650D01*
Y143519D01*
Y143388D01*
Y143257D01*
Y143126D01*
Y142994D01*
Y142863D01*
Y142732D01*
X73478D01*
Y142601D01*
Y142470D01*
Y142339D01*
Y142207D01*
Y142076D01*
Y141945D01*
X73610D01*
Y141814D01*
Y141683D01*
Y141551D01*
Y141420D01*
Y141289D01*
Y141158D01*
Y141026D01*
Y140895D01*
Y140764D01*
X73741D01*
Y140633D01*
Y140502D01*
Y140371D01*
Y140239D01*
Y140108D01*
Y139977D01*
Y139846D01*
X73872D01*
Y139715D01*
Y139583D01*
Y139452D01*
Y139321D01*
Y139190D01*
Y139058D01*
Y138927D01*
Y138796D01*
Y138665D01*
Y138534D01*
X73741D01*
Y138665D01*
X73478D01*
Y138796D01*
X73347D01*
Y138927D01*
X73216D01*
Y139058D01*
X73085D01*
Y139190D01*
X72954D01*
Y139321D01*
X72822D01*
Y139452D01*
X72691D01*
Y139583D01*
X72560D01*
Y139715D01*
X72429D01*
Y139846D01*
X72166D01*
Y139977D01*
Y140108D01*
X72035D01*
Y140239D01*
Y140371D01*
X71904D01*
Y140502D01*
X71379D01*
Y140371D01*
Y140239D01*
Y140108D01*
X71248D01*
Y139977D01*
Y139846D01*
Y139715D01*
Y139583D01*
Y139452D01*
Y139321D01*
Y139190D01*
X71117D01*
Y139321D01*
X70986D01*
Y139452D01*
X70854D01*
Y139583D01*
Y139715D01*
X70986D01*
Y139846D01*
Y139977D01*
Y140108D01*
Y140239D01*
X71117D01*
Y140371D01*
Y140502D01*
Y140633D01*
Y140764D01*
Y140895D01*
Y141026D01*
Y141158D01*
Y141289D01*
Y141420D01*
X71379D01*
Y141551D01*
Y141683D01*
Y141814D01*
Y141945D01*
Y142076D01*
X70330D01*
Y141945D01*
X68886D01*
Y142076D01*
X68362D01*
Y142207D01*
X67574D01*
Y142076D01*
X67443D01*
Y141945D01*
X67312D01*
Y141814D01*
X67181D01*
Y141683D01*
Y141551D01*
X67050D01*
Y141420D01*
Y141289D01*
X66918D01*
Y141158D01*
X66787D01*
Y141026D01*
X66656D01*
Y140895D01*
Y140764D01*
X66525D01*
Y140633D01*
X66394D01*
Y140502D01*
X66131D01*
Y140371D01*
X66000D01*
Y140239D01*
X65869D01*
Y140108D01*
X65606D01*
Y139977D01*
X65475D01*
Y139846D01*
X65213D01*
Y139977D01*
Y140108D01*
Y140239D01*
Y140371D01*
Y140502D01*
Y140633D01*
X65344D01*
Y140764D01*
Y140895D01*
Y141026D01*
Y141158D01*
Y141289D01*
Y141420D01*
X65475D01*
Y141551D01*
Y141683D01*
Y141814D01*
Y141945D01*
Y142076D01*
X64688D01*
Y141945D01*
X64294D01*
Y141814D01*
X64032D01*
Y141683D01*
X63770D01*
Y141551D01*
X63245D01*
Y141420D01*
X62851D01*
Y141289D01*
X61802D01*
Y141420D01*
Y141551D01*
X61670D01*
Y141683D01*
Y141814D01*
Y141945D01*
X61539D01*
Y142076D01*
Y142207D01*
Y142339D01*
X61670D01*
Y142470D01*
Y142601D01*
X61802D01*
Y142732D01*
X61933D01*
Y142863D01*
Y142994D01*
X62195D01*
Y143126D01*
Y143257D01*
X62326D01*
Y143388D01*
X62458D01*
Y143519D01*
X62589D01*
Y143650D01*
X62720D01*
Y143782D01*
X62851D01*
Y143913D01*
X63114D01*
Y144044D01*
X63245D01*
Y144175D01*
X63376D01*
Y144307D01*
X63638D01*
Y144438D01*
X63770D01*
Y144569D01*
X64032D01*
Y144700D01*
X64294D01*
Y144831D01*
Y144963D01*
Y145094D01*
Y145225D01*
Y145356D01*
X64426D01*
Y145487D01*
Y145618D01*
Y145750D01*
Y145881D01*
Y146012D01*
X64557D01*
Y146143D01*
Y146274D01*
Y146406D01*
Y146537D01*
X64688D01*
Y146668D01*
Y146799D01*
Y146931D01*
Y147062D01*
X64819D01*
Y147193D01*
Y147324D01*
Y147455D01*
X64950D01*
Y147587D01*
Y147718D01*
Y147849D01*
X65082D01*
Y147980D01*
Y148111D01*
Y148242D01*
Y148374D01*
Y148505D01*
X65213D01*
Y148636D01*
Y148767D01*
X65344D01*
Y148898D01*
Y149030D01*
Y149161D01*
Y149292D01*
X65475D01*
Y149423D01*
Y149555D01*
Y149686D01*
X65606D01*
Y149817D01*
X65738D01*
Y149948D01*
Y150079D01*
Y150210D01*
X65869D01*
Y150342D01*
Y150473D01*
X66000D01*
Y150604D01*
Y150735D01*
X66131D01*
Y150866D01*
Y150998D01*
X66262D01*
Y151129D01*
Y151260D01*
X66394D01*
Y151391D01*
Y151523D01*
X66525D01*
Y151654D01*
X66656D01*
Y151785D01*
Y151916D01*
X66787D01*
Y152047D01*
X66918D01*
Y152179D01*
Y152310D01*
X67050D01*
Y152441D01*
X67181D01*
Y152572D01*
Y152703D01*
X67312D01*
Y152834D01*
Y152966D01*
X67443D01*
Y153097D01*
X67574D01*
Y153228D01*
X67706D01*
Y153359D01*
X67837D01*
Y153490D01*
X67968D01*
Y153622D01*
Y153753D01*
X68099D01*
Y153884D01*
X68230D01*
Y154015D01*
X68362D01*
Y154147D01*
X68493D01*
Y154278D01*
X68624D01*
Y154409D01*
X68755D01*
Y154540D01*
X68886D01*
Y154671D01*
X69018D01*
Y154803D01*
X69149D01*
Y154934D01*
X69280D01*
Y155065D01*
X69411D01*
Y155196D01*
X69674D01*
Y155065D01*
D02*
G37*
G36*
X24803Y152179D02*
Y152047D01*
X24935D01*
Y151916D01*
Y151785D01*
X25066D01*
Y151654D01*
X25197D01*
Y151523D01*
X25328D01*
Y151391D01*
Y151260D01*
X25459D01*
Y151129D01*
X25591D01*
Y150998D01*
X25722D01*
Y150866D01*
X25853D01*
Y150735D01*
X25984D01*
Y150604D01*
X26115D01*
Y150473D01*
X26247D01*
Y150342D01*
X26509D01*
Y150210D01*
X26771D01*
Y150079D01*
X26902D01*
Y149948D01*
X27165D01*
Y149817D01*
X27427D01*
Y149686D01*
Y149555D01*
Y149423D01*
Y149292D01*
Y149161D01*
Y149030D01*
Y148898D01*
Y148767D01*
Y148636D01*
Y148505D01*
Y148374D01*
Y148242D01*
Y148111D01*
X27558D01*
Y147980D01*
Y147849D01*
Y147718D01*
Y147587D01*
Y147455D01*
Y147324D01*
Y147193D01*
Y147062D01*
Y146931D01*
X27690D01*
Y146799D01*
Y146668D01*
Y146537D01*
Y146406D01*
Y146274D01*
Y146143D01*
Y146012D01*
X27821D01*
Y145881D01*
Y145750D01*
Y145618D01*
Y145487D01*
Y145356D01*
Y145225D01*
Y145094D01*
X27952D01*
Y144963D01*
Y144831D01*
Y144700D01*
Y144569D01*
Y144438D01*
Y144307D01*
Y144175D01*
Y144044D01*
X28083D01*
Y143913D01*
Y143782D01*
Y143650D01*
Y143519D01*
Y143388D01*
Y143257D01*
X28214D01*
Y143126D01*
Y142994D01*
Y142863D01*
Y142732D01*
Y142601D01*
Y142470D01*
Y142339D01*
Y142207D01*
Y142076D01*
Y141945D01*
Y141814D01*
Y141683D01*
Y141551D01*
Y141420D01*
Y141289D01*
Y141158D01*
Y141026D01*
Y140895D01*
Y140764D01*
Y140633D01*
Y140502D01*
X28477D01*
Y140371D01*
X28608D01*
Y140239D01*
X28739D01*
Y140108D01*
X28870D01*
Y139977D01*
X29002D01*
Y139846D01*
X29133D01*
Y139715D01*
X29264D01*
Y139583D01*
X29395D01*
Y139452D01*
X29526D01*
Y139321D01*
Y139190D01*
X29658D01*
Y139058D01*
X29789D01*
Y138927D01*
X29920D01*
Y138796D01*
Y138665D01*
X30051D01*
Y138534D01*
Y138402D01*
X30182D01*
Y138271D01*
X30314D01*
Y138140D01*
X29526D01*
Y138271D01*
X29133D01*
Y138402D01*
X28608D01*
Y138534D01*
X27821D01*
Y138402D01*
Y138271D01*
Y138140D01*
X27690D01*
Y138271D01*
X26902D01*
Y138402D01*
X26771D01*
Y138534D01*
Y138665D01*
Y138796D01*
Y138927D01*
X26640D01*
Y139058D01*
Y139190D01*
Y139321D01*
X26509D01*
Y139452D01*
Y139583D01*
X26378D01*
Y139715D01*
Y139846D01*
Y139977D01*
Y140108D01*
X26247D01*
Y140239D01*
X25984D01*
Y140371D01*
X25459D01*
Y140239D01*
X25066D01*
Y140108D01*
X24803D01*
Y139977D01*
X24672D01*
Y139846D01*
X24410D01*
Y139715D01*
X24279D01*
Y139583D01*
X24016D01*
Y139452D01*
X23885D01*
Y139321D01*
X23754D01*
Y139190D01*
X23491D01*
Y139058D01*
X23360D01*
Y138927D01*
X23098D01*
Y138796D01*
X22967D01*
Y138665D01*
X22835D01*
Y138534D01*
X22704D01*
Y138402D01*
X22573D01*
Y138271D01*
X22311D01*
Y138140D01*
X21917D01*
Y138009D01*
X21523D01*
Y137878D01*
X21261D01*
Y137747D01*
X20867D01*
Y137615D01*
X20474D01*
Y137484D01*
X19949D01*
Y137615D01*
Y137747D01*
X20080D01*
Y137878D01*
X20211D01*
Y138009D01*
Y138140D01*
Y138271D01*
Y138402D01*
Y138534D01*
X19555D01*
Y138402D01*
X19293D01*
Y138271D01*
X18899D01*
Y138140D01*
X16407D01*
Y138271D01*
Y138402D01*
X16538D01*
Y138534D01*
Y138665D01*
X16669D01*
Y138796D01*
Y138927D01*
X16800D01*
Y139058D01*
X16931D01*
Y139190D01*
X17063D01*
Y139321D01*
X17194D01*
Y139452D01*
X17325D01*
Y139583D01*
X17587D01*
Y139715D01*
X17719D01*
Y139846D01*
X17850D01*
Y139977D01*
X18112D01*
Y140108D01*
X18243D01*
Y140239D01*
X18506D01*
Y140371D01*
X18768D01*
Y140502D01*
X19031D01*
Y140633D01*
X19162D01*
Y140764D01*
X19424D01*
Y140895D01*
X19687D01*
Y141026D01*
X19818D01*
Y141158D01*
X19949D01*
Y141289D01*
Y141420D01*
Y141551D01*
Y141683D01*
X20080D01*
Y141814D01*
Y141945D01*
Y142076D01*
Y142207D01*
Y142339D01*
X20211D01*
Y142470D01*
Y142601D01*
Y142732D01*
Y142863D01*
X20343D01*
Y142994D01*
Y143126D01*
Y143257D01*
Y143388D01*
X20474D01*
Y143519D01*
Y143650D01*
Y143782D01*
X20605D01*
Y143913D01*
Y144044D01*
X20736D01*
Y144175D01*
Y144307D01*
Y144438D01*
X20867D01*
Y144569D01*
Y144700D01*
Y144831D01*
Y144963D01*
X20999D01*
Y145094D01*
Y145225D01*
Y145356D01*
X21130D01*
Y145487D01*
Y145618D01*
X21261D01*
Y145750D01*
Y145881D01*
Y146012D01*
X21392D01*
Y146143D01*
Y146274D01*
Y146406D01*
X21523D01*
Y146537D01*
Y146668D01*
X21655D01*
Y146799D01*
Y146931D01*
Y147062D01*
X21786D01*
Y147193D01*
Y147324D01*
X21917D01*
Y147455D01*
Y147587D01*
X22048D01*
Y147718D01*
Y147849D01*
Y147980D01*
X22179D01*
Y148111D01*
Y148242D01*
X22311D01*
Y148374D01*
X22442D01*
Y148505D01*
Y148636D01*
Y148767D01*
X22573D01*
Y148898D01*
Y149030D01*
X22704D01*
Y149161D01*
X22835D01*
Y149292D01*
Y149423D01*
X22967D01*
Y149555D01*
Y149686D01*
X23098D01*
Y149817D01*
Y149948D01*
X23229D01*
Y150079D01*
X23360D01*
Y150210D01*
X23491D01*
Y150342D01*
Y150473D01*
X23623D01*
Y150604D01*
Y150735D01*
X23754D01*
Y150866D01*
Y150998D01*
X23885D01*
Y151129D01*
Y151260D01*
X24016D01*
Y151391D01*
Y151523D01*
X24147D01*
Y151654D01*
X24279D01*
Y151785D01*
X24410D01*
Y151916D01*
Y152047D01*
X24541D01*
Y152179D01*
X24672D01*
Y152310D01*
X24803D01*
Y152179D01*
D02*
G37*
G36*
X41859Y149555D02*
X42122D01*
Y149423D01*
X42384D01*
Y149292D01*
X43040D01*
Y149161D01*
X44614D01*
Y149292D01*
X44877D01*
Y149161D01*
X45008D01*
Y149030D01*
X45139D01*
Y148898D01*
Y148767D01*
X45402D01*
Y148636D01*
X45533D01*
Y148505D01*
Y148374D01*
X45664D01*
Y148242D01*
X45795D01*
Y148111D01*
X45926D01*
Y147980D01*
Y147849D01*
X46058D01*
Y147718D01*
X46189D01*
Y147587D01*
Y147455D01*
X46320D01*
Y147324D01*
Y147193D01*
X46451D01*
Y147062D01*
Y146931D01*
X46582D01*
Y146799D01*
X46714D01*
Y146668D01*
Y146537D01*
X46845D01*
Y146406D01*
Y146274D01*
X46976D01*
Y146143D01*
Y146012D01*
Y145881D01*
X47107D01*
Y145750D01*
Y145618D01*
Y145487D01*
X47238D01*
Y145356D01*
Y145225D01*
X47370D01*
Y145094D01*
Y144963D01*
X47501D01*
Y144831D01*
Y144700D01*
X47632D01*
Y144569D01*
Y144438D01*
Y144307D01*
X47763D01*
Y144175D01*
Y144044D01*
X47894D01*
Y143913D01*
Y143782D01*
Y143650D01*
X48026D01*
Y143519D01*
Y143388D01*
Y143257D01*
X48157D01*
Y143126D01*
Y142994D01*
X48288D01*
Y142863D01*
Y142732D01*
Y142601D01*
X48419D01*
Y142470D01*
Y142339D01*
X48551D01*
Y142207D01*
Y142076D01*
Y141945D01*
Y141814D01*
X48682D01*
Y141683D01*
Y141551D01*
Y141420D01*
X48813D01*
Y141289D01*
Y141158D01*
Y141026D01*
X48944D01*
Y140895D01*
Y140764D01*
Y140633D01*
X49075D01*
Y140502D01*
X49207D01*
Y140371D01*
X49338D01*
Y140239D01*
X49469D01*
Y140108D01*
X49731D01*
Y139977D01*
X49863D01*
Y139846D01*
X50125D01*
Y139715D01*
X50256D01*
Y139583D01*
Y139452D01*
Y139321D01*
Y139190D01*
X50125D01*
Y139058D01*
Y138927D01*
X49994D01*
Y138796D01*
Y138665D01*
Y138534D01*
X49863D01*
Y138402D01*
Y138271D01*
Y138140D01*
Y138009D01*
X49600D01*
Y138140D01*
X48813D01*
Y138009D01*
Y137878D01*
Y137747D01*
X48682D01*
Y137878D01*
X48419D01*
Y138009D01*
X48288D01*
Y138140D01*
X48026D01*
Y138271D01*
X47894D01*
Y138402D01*
X47632D01*
Y138534D01*
X47501D01*
Y138665D01*
X47370D01*
Y138796D01*
X47238D01*
Y138927D01*
Y139058D01*
X47107D01*
Y139190D01*
Y139321D01*
Y139452D01*
Y139583D01*
X46976D01*
Y139715D01*
Y139846D01*
X46845D01*
Y139977D01*
Y140108D01*
Y140239D01*
Y140371D01*
X46976D01*
Y140502D01*
X47107D01*
Y140633D01*
X47238D01*
Y140764D01*
X47370D01*
Y140895D01*
Y141026D01*
Y141158D01*
Y141289D01*
Y141420D01*
X46714D01*
Y141289D01*
X46582D01*
Y141158D01*
X46451D01*
Y141026D01*
X46320D01*
Y140895D01*
X46189D01*
Y140764D01*
X46058D01*
Y140633D01*
X45926D01*
Y140502D01*
X45795D01*
Y140371D01*
X45664D01*
Y140239D01*
X45533D01*
Y140108D01*
X45402D01*
Y139977D01*
X45270D01*
Y139846D01*
X45139D01*
Y139715D01*
X44877D01*
Y139583D01*
X44746D01*
Y139452D01*
X44614D01*
Y139321D01*
X44352D01*
Y139190D01*
X44221D01*
Y139058D01*
X43959D01*
Y138927D01*
X43827D01*
Y138796D01*
X43565D01*
Y138665D01*
X43434D01*
Y138534D01*
X43171D01*
Y138402D01*
X42909D01*
Y138271D01*
X42778D01*
Y138140D01*
X42515D01*
Y138009D01*
X42122D01*
Y137878D01*
X41728D01*
Y138009D01*
Y138140D01*
Y138271D01*
Y138402D01*
Y138534D01*
X40941D01*
Y138402D01*
X40679D01*
Y138271D01*
X40285D01*
Y138140D01*
X39498D01*
Y138009D01*
X38710D01*
Y138140D01*
X38448D01*
Y138271D01*
X38579D01*
Y138402D01*
Y138534D01*
X38710D01*
Y138665D01*
Y138796D01*
X38842D01*
Y138927D01*
X38973D01*
Y139058D01*
X39104D01*
Y139190D01*
X39235D01*
Y139321D01*
X39366D01*
Y139452D01*
X39498D01*
Y139583D01*
X39760D01*
Y139715D01*
X39891D01*
Y139846D01*
X40154D01*
Y139977D01*
X40416D01*
Y140108D01*
X40547D01*
Y140239D01*
X40941D01*
Y140371D01*
X41203D01*
Y140502D01*
Y140633D01*
Y140764D01*
Y140895D01*
Y141026D01*
Y141158D01*
Y141289D01*
Y141420D01*
Y141551D01*
Y141683D01*
Y141814D01*
Y141945D01*
Y142076D01*
Y142207D01*
Y142339D01*
Y142470D01*
X41072D01*
Y142601D01*
Y142732D01*
Y142863D01*
Y142994D01*
Y143126D01*
Y143257D01*
Y143388D01*
Y143519D01*
Y143650D01*
Y143782D01*
Y143913D01*
Y144044D01*
Y144175D01*
X41203D01*
Y144307D01*
Y144438D01*
Y144569D01*
Y144700D01*
Y144831D01*
Y144963D01*
Y145094D01*
Y145225D01*
Y145356D01*
Y145487D01*
Y145618D01*
Y145750D01*
Y145881D01*
Y146012D01*
Y146143D01*
Y146274D01*
Y146406D01*
Y146537D01*
Y146668D01*
Y146799D01*
X41335D01*
Y146931D01*
Y147062D01*
Y147193D01*
Y147324D01*
Y147455D01*
Y147587D01*
X41466D01*
Y147718D01*
Y147849D01*
Y147980D01*
Y148111D01*
Y148242D01*
Y148374D01*
Y148505D01*
Y148636D01*
Y148767D01*
Y148898D01*
Y149030D01*
X41597D01*
Y149161D01*
Y149292D01*
Y149423D01*
Y149555D01*
Y149686D01*
X41859D01*
Y149555D01*
D02*
G37*
G36*
X51830Y151391D02*
X51962D01*
Y151260D01*
X52224D01*
Y151129D01*
X52486D01*
Y150998D01*
X52880D01*
Y150866D01*
X53274D01*
Y150735D01*
X53667D01*
Y150604D01*
X55110D01*
Y150473D01*
X55242D01*
Y150342D01*
X55373D01*
Y150210D01*
X55504D01*
Y150079D01*
X55635D01*
Y149948D01*
Y149817D01*
X55766D01*
Y149686D01*
X55898D01*
Y149555D01*
X56029D01*
Y149423D01*
X56291D01*
Y149292D01*
X56422D01*
Y149161D01*
Y149030D01*
X56554D01*
Y148898D01*
X56685D01*
Y148767D01*
X56816D01*
Y148636D01*
X56947D01*
Y148505D01*
X57078D01*
Y148374D01*
Y148242D01*
X57210D01*
Y148111D01*
X57341D01*
Y147980D01*
X57472D01*
Y147849D01*
Y147718D01*
X57603D01*
Y147587D01*
X57734D01*
Y147455D01*
Y147324D01*
X57866D01*
Y147193D01*
Y147062D01*
X57997D01*
Y146931D01*
X58128D01*
Y146799D01*
Y146668D01*
X58259D01*
Y146537D01*
X58390D01*
Y146406D01*
Y146274D01*
X58522D01*
Y146143D01*
Y146012D01*
X58653D01*
Y145881D01*
X58784D01*
Y145750D01*
Y145618D01*
X58915D01*
Y145487D01*
Y145356D01*
X59046D01*
Y145225D01*
Y145094D01*
X59178D01*
Y144963D01*
Y144831D01*
X59309D01*
Y144700D01*
Y144569D01*
X59440D01*
Y144438D01*
Y144307D01*
X59571D01*
Y144175D01*
Y144044D01*
X59702D01*
Y143913D01*
X59834D01*
Y143782D01*
Y143650D01*
Y143519D01*
X59965D01*
Y143388D01*
Y143257D01*
X60096D01*
Y143126D01*
Y142994D01*
X60227D01*
Y142863D01*
X60358D01*
Y142732D01*
Y142601D01*
Y142470D01*
X60490D01*
Y142339D01*
Y142207D01*
X60621D01*
Y142076D01*
Y141945D01*
X60752D01*
Y141814D01*
Y141683D01*
X60883D01*
Y141551D01*
Y141420D01*
Y141289D01*
X61014D01*
Y141158D01*
Y141026D01*
X61146D01*
Y140895D01*
Y140764D01*
Y140633D01*
X61408D01*
Y140502D01*
X61539D01*
Y140371D01*
X61670D01*
Y140239D01*
X61802D01*
Y140108D01*
X61933D01*
Y139977D01*
X62064D01*
Y139846D01*
X62195D01*
Y139715D01*
Y139583D01*
X62326D01*
Y139452D01*
X62458D01*
Y139321D01*
X62589D01*
Y139190D01*
X62720D01*
Y139058D01*
X62851D01*
Y138927D01*
Y138796D01*
X62982D01*
Y138665D01*
Y138534D01*
X63114D01*
Y138402D01*
Y138271D01*
X63245D01*
Y138140D01*
X63376D01*
Y138009D01*
Y137878D01*
X63507D01*
Y137747D01*
Y137615D01*
Y137484D01*
X63638D01*
Y137353D01*
Y137222D01*
Y137091D01*
X63376D01*
Y137222D01*
X63114D01*
Y137353D01*
X62720D01*
Y137484D01*
X62458D01*
Y137615D01*
X62195D01*
Y137747D01*
X61933D01*
Y137878D01*
X61670D01*
Y138009D01*
X61014D01*
Y137878D01*
Y137747D01*
Y137615D01*
Y137484D01*
Y137353D01*
X61146D01*
Y137222D01*
Y137091D01*
Y136959D01*
Y136828D01*
X61408D01*
Y136697D01*
X60883D01*
Y136828D01*
X60621D01*
Y136959D01*
X60358D01*
Y137091D01*
X60227D01*
Y137222D01*
X60096D01*
Y137353D01*
Y137484D01*
Y137615D01*
X59965D01*
Y137747D01*
X59834D01*
Y137878D01*
Y138009D01*
X59702D01*
Y138140D01*
Y138271D01*
Y138402D01*
X59571D01*
Y138534D01*
Y138665D01*
X59440D01*
Y138796D01*
Y138927D01*
X59309D01*
Y139058D01*
Y139190D01*
X59178D01*
Y139321D01*
X58522D01*
Y139190D01*
X58390D01*
Y139058D01*
X58259D01*
Y138927D01*
X58128D01*
Y138796D01*
X57997D01*
Y138665D01*
X57866D01*
Y138534D01*
X57734D01*
Y138402D01*
X57603D01*
Y138271D01*
X57472D01*
Y138140D01*
X57210D01*
Y138009D01*
X57078D01*
Y137878D01*
X56947D01*
Y137747D01*
X56685D01*
Y137615D01*
X56554D01*
Y137484D01*
X56291D01*
Y137353D01*
X56160D01*
Y137222D01*
X55898D01*
Y137091D01*
X55635D01*
Y136959D01*
X55373D01*
Y136828D01*
X55110D01*
Y136697D01*
X54979D01*
Y136566D01*
X54586D01*
Y136435D01*
X54323D01*
Y136303D01*
X53930D01*
Y136435D01*
Y136566D01*
X54061D01*
Y136697D01*
X54192D01*
Y136828D01*
X54323D01*
Y136959D01*
Y137091D01*
Y137222D01*
Y137353D01*
Y137484D01*
X53667D01*
Y137353D01*
X53536D01*
Y137222D01*
X53405D01*
Y137091D01*
X53142D01*
Y136959D01*
X52880D01*
Y136828D01*
X52486D01*
Y136697D01*
X52224D01*
Y136566D01*
X51962D01*
Y136435D01*
X51568D01*
Y136303D01*
X51174D01*
Y136172D01*
X50781D01*
Y136041D01*
X50256D01*
Y136172D01*
Y136303D01*
Y136435D01*
Y136566D01*
Y136697D01*
Y136828D01*
X50387D01*
Y136959D01*
Y137091D01*
Y137222D01*
Y137353D01*
Y137484D01*
X50519D01*
Y137615D01*
Y137747D01*
Y137878D01*
X50650D01*
Y138009D01*
Y138140D01*
Y138271D01*
X50781D01*
Y138402D01*
Y138534D01*
X50912D01*
Y138665D01*
Y138796D01*
Y138927D01*
X51043D01*
Y139058D01*
Y139190D01*
Y139321D01*
X51174D01*
Y139452D01*
X51306D01*
Y139583D01*
Y139715D01*
Y139846D01*
X51437D01*
Y139977D01*
X51568D01*
Y140108D01*
Y140239D01*
X51699D01*
Y140371D01*
X51830D01*
Y140502D01*
X51962D01*
Y140633D01*
Y140764D01*
Y140895D01*
Y141026D01*
Y141158D01*
Y141289D01*
X51830D01*
Y141420D01*
Y141551D01*
Y141683D01*
Y141814D01*
Y141945D01*
Y142076D01*
Y142207D01*
X51699D01*
Y142339D01*
Y142470D01*
Y142601D01*
Y142732D01*
Y142863D01*
Y142994D01*
Y143126D01*
Y143257D01*
Y143388D01*
Y143519D01*
Y143650D01*
X51568D01*
Y143782D01*
Y143913D01*
Y144044D01*
Y144175D01*
Y144307D01*
Y144438D01*
Y144569D01*
Y144700D01*
Y144831D01*
Y144963D01*
Y145094D01*
Y145225D01*
Y145356D01*
Y145487D01*
Y145618D01*
Y145750D01*
Y145881D01*
Y146012D01*
Y146143D01*
Y146274D01*
Y146406D01*
Y146537D01*
X51437D01*
Y146668D01*
Y146799D01*
Y146931D01*
X51568D01*
Y147062D01*
Y147193D01*
Y147324D01*
Y147455D01*
Y147587D01*
Y147718D01*
Y147849D01*
Y147980D01*
Y148111D01*
Y148242D01*
Y148374D01*
Y148505D01*
Y148636D01*
Y148767D01*
X51437D01*
Y148898D01*
Y149030D01*
X51568D01*
Y149161D01*
Y149292D01*
Y149423D01*
Y149555D01*
Y149686D01*
Y149817D01*
Y149948D01*
Y150079D01*
Y150210D01*
Y150342D01*
Y150473D01*
Y150604D01*
Y150735D01*
Y150866D01*
Y150998D01*
Y151129D01*
Y151260D01*
X51699D01*
Y151391D01*
Y151523D01*
X51830D01*
Y151391D01*
D02*
G37*
G36*
X46189Y139321D02*
Y139190D01*
X46320D01*
Y139058D01*
Y138927D01*
X46451D01*
Y138796D01*
Y138665D01*
Y138534D01*
X46582D01*
Y138402D01*
Y138271D01*
X46714D01*
Y138140D01*
Y138009D01*
Y137878D01*
Y137747D01*
X46845D01*
Y137615D01*
Y137484D01*
Y137353D01*
X46976D01*
Y137222D01*
Y137091D01*
X47107D01*
Y136959D01*
Y136828D01*
X45402D01*
Y136959D01*
X44090D01*
Y137091D01*
X43827D01*
Y137222D01*
Y137353D01*
Y137484D01*
Y137615D01*
X43696D01*
Y137747D01*
Y137878D01*
X43959D01*
Y138009D01*
X44221D01*
Y138140D01*
X44352D01*
Y138271D01*
X44614D01*
Y138402D01*
X44746D01*
Y138534D01*
X45008D01*
Y138665D01*
X45139D01*
Y138796D01*
X45270D01*
Y138927D01*
X45533D01*
Y139058D01*
X45664D01*
Y139190D01*
X45795D01*
Y139321D01*
X45926D01*
Y139452D01*
X46189D01*
Y139321D01*
D02*
G37*
G36*
X25591D02*
X25722D01*
Y139190D01*
Y139058D01*
Y138927D01*
X25853D01*
Y138796D01*
Y138665D01*
Y138534D01*
Y138402D01*
X25984D01*
Y138271D01*
Y138140D01*
Y138009D01*
X26115D01*
Y137878D01*
Y137747D01*
X26247D01*
Y137615D01*
X26115D01*
Y137484D01*
X26247D01*
Y137353D01*
Y137222D01*
Y137091D01*
X26378D01*
Y136959D01*
X26509D01*
Y136828D01*
Y136697D01*
Y136566D01*
X26640D01*
Y136435D01*
X24147D01*
Y136566D01*
X23360D01*
Y136697D01*
X22967D01*
Y136828D01*
Y136959D01*
Y137091D01*
Y137222D01*
Y137353D01*
Y137484D01*
Y137615D01*
X23098D01*
Y137747D01*
X23360D01*
Y137878D01*
X23491D01*
Y138009D01*
X23623D01*
Y138140D01*
X23754D01*
Y138271D01*
X23885D01*
Y138402D01*
X24016D01*
Y138534D01*
X24279D01*
Y138665D01*
X24410D01*
Y138796D01*
X24541D01*
Y138927D01*
X24672D01*
Y139058D01*
X24935D01*
Y139190D01*
X25197D01*
Y139321D01*
X25459D01*
Y139452D01*
X25591D01*
Y139321D01*
D02*
G37*
G36*
X243748Y136049D02*
X226958D01*
Y224094D01*
X243748D01*
Y136049D01*
D02*
G37*
G36*
X58784Y138140D02*
Y138009D01*
X58915D01*
Y137878D01*
Y137747D01*
Y137615D01*
X59046D01*
Y137484D01*
Y137353D01*
X59178D01*
Y137222D01*
Y137091D01*
Y136959D01*
X59309D01*
Y136828D01*
Y136697D01*
X59440D01*
Y136566D01*
X59571D01*
Y136435D01*
Y136303D01*
Y136172D01*
Y136041D01*
X59702D01*
Y135910D01*
X59834D01*
Y135779D01*
Y135647D01*
Y135516D01*
X59965D01*
Y135385D01*
X58784D01*
Y135516D01*
X56816D01*
Y135647D01*
X56685D01*
Y135779D01*
X56554D01*
Y135910D01*
X56422D01*
Y136041D01*
Y136172D01*
Y136303D01*
X56291D01*
Y136435D01*
X56422D01*
Y136566D01*
X56685D01*
Y136697D01*
X56816D01*
Y136828D01*
X57078D01*
Y136959D01*
X57341D01*
Y137091D01*
X57472D01*
Y137222D01*
X57603D01*
Y137353D01*
X57734D01*
Y137484D01*
X57866D01*
Y137615D01*
X58128D01*
Y137747D01*
X58259D01*
Y137878D01*
X58390D01*
Y138009D01*
X58653D01*
Y138140D01*
Y138271D01*
X58784D01*
Y138140D01*
D02*
G37*
G36*
X96181Y100118D02*
X93819Y102480D01*
X96181Y104842D01*
X96181Y100118D01*
D02*
G37*
%LPC*%
G36*
X44614Y173433D02*
X43171D01*
Y173302D01*
X42778D01*
Y173170D01*
X42384D01*
Y173039D01*
X42122D01*
Y172908D01*
X41859D01*
Y172777D01*
X41728D01*
Y172646D01*
Y172514D01*
Y172383D01*
Y172252D01*
Y172121D01*
Y171990D01*
Y171858D01*
X41859D01*
Y171727D01*
X43696D01*
Y171858D01*
X44221D01*
Y171990D01*
X44483D01*
Y172121D01*
X44746D01*
Y172252D01*
Y172383D01*
X44877D01*
Y172514D01*
Y172646D01*
Y172777D01*
Y172908D01*
Y173039D01*
Y173170D01*
Y173302D01*
X44614D01*
Y173433D01*
D02*
G37*
%LPD*%
G36*
X43696Y172514D02*
X43434D01*
Y172383D01*
X42909D01*
Y172514D01*
X43303D01*
Y172646D01*
X43696D01*
Y172514D01*
D02*
G37*
%LPC*%
G36*
X240785Y218732D02*
X239797D01*
Y218591D01*
X239374D01*
Y218450D01*
X239092D01*
Y218309D01*
X238951D01*
Y218168D01*
X238810D01*
Y217885D01*
X238668D01*
Y217462D01*
X238527D01*
Y216475D01*
X238668D01*
Y216333D01*
X238810D01*
Y216051D01*
X238951D01*
Y215910D01*
X239092D01*
Y215769D01*
X239233D01*
Y215487D01*
X239515D01*
Y215346D01*
X239938D01*
Y215205D01*
X240221D01*
Y215064D01*
X240362D01*
Y214922D01*
X240926D01*
Y214781D01*
X241208D01*
Y214640D01*
X241491D01*
Y214499D01*
X241914D01*
Y217744D01*
X241773D01*
Y217885D01*
X241632D01*
Y218027D01*
X241491D01*
Y218168D01*
X241349D01*
Y218309D01*
X241208D01*
Y218450D01*
X241067D01*
Y218591D01*
X240785D01*
Y218732D01*
D02*
G37*
G36*
X231190Y216898D02*
X230767D01*
Y214640D01*
X230908D01*
Y214358D01*
X231049D01*
Y214076D01*
X231190D01*
Y213794D01*
X231331D01*
Y213653D01*
X231473D01*
Y213511D01*
X231614D01*
Y213370D01*
X231755D01*
Y213088D01*
X232178D01*
Y212947D01*
X232319D01*
Y212806D01*
X232601D01*
Y212524D01*
X232743D01*
Y212665D01*
X232884D01*
Y212524D01*
X233166D01*
Y212242D01*
X233448D01*
Y212101D01*
X233730D01*
Y211959D01*
X234012D01*
Y211677D01*
X234436D01*
Y211536D01*
X234577D01*
Y211395D01*
X234859D01*
Y211254D01*
X235141D01*
Y211113D01*
X235423D01*
Y210831D01*
X235705D01*
Y210689D01*
X235988D01*
Y210548D01*
X236270D01*
Y210407D01*
X236552D01*
Y210125D01*
X236693D01*
Y210266D01*
X236834D01*
Y209984D01*
X237116D01*
Y209843D01*
X237399D01*
Y209702D01*
X237681D01*
Y209561D01*
X237963D01*
Y209279D01*
X238245D01*
Y209138D01*
X238527D01*
Y208996D01*
X238810D01*
Y208714D01*
X238951D01*
Y208855D01*
X239092D01*
Y208714D01*
X239374D01*
Y208432D01*
X239656D01*
Y208291D01*
X239938D01*
Y208150D01*
X240221D01*
Y207868D01*
X240644D01*
Y207727D01*
X240785D01*
Y207585D01*
X241067D01*
Y207444D01*
X241208D01*
Y207303D01*
X241632D01*
Y207162D01*
X241914D01*
Y209702D01*
X241773D01*
Y209843D01*
X241632D01*
Y210125D01*
X241491D01*
Y210266D01*
X241349D01*
Y210548D01*
X241067D01*
Y210689D01*
X240926D01*
Y210831D01*
X240644D01*
Y210972D01*
X240503D01*
Y211113D01*
X240362D01*
Y211254D01*
X240221D01*
Y211395D01*
X239797D01*
Y211536D01*
X239656D01*
Y211677D01*
X239515D01*
Y211818D01*
X239092D01*
Y211959D01*
X238951D01*
Y212101D01*
X238810D01*
Y212242D01*
X238386D01*
Y212383D01*
X238245D01*
Y212524D01*
X237963D01*
Y212806D01*
X237540D01*
Y212947D01*
X237399D01*
Y213088D01*
X237116D01*
Y213229D01*
X236834D01*
Y213370D01*
X236693D01*
Y213511D01*
X236411D01*
Y213653D01*
X236129D01*
Y213794D01*
X235988D01*
Y213935D01*
X235705D01*
Y214076D01*
X235423D01*
Y214217D01*
X235282D01*
Y214358D01*
X235141D01*
Y214499D01*
X234859D01*
Y214640D01*
X234577D01*
Y214781D01*
X234295D01*
Y214922D01*
X234012D01*
Y215205D01*
X233730D01*
Y215346D01*
X233448D01*
Y215487D01*
X233166D01*
Y215628D01*
X232884D01*
Y215769D01*
X232743D01*
Y215910D01*
X232601D01*
Y216051D01*
X232178D01*
Y216192D01*
X232037D01*
Y216333D01*
X231755D01*
Y216616D01*
X231331D01*
Y216757D01*
X231190D01*
Y216898D01*
D02*
G37*
G36*
X231331Y209702D02*
X230767D01*
Y207585D01*
X230908D01*
Y207303D01*
X231049D01*
Y207021D01*
X231190D01*
Y206598D01*
X231331D01*
Y206457D01*
X231614D01*
Y206174D01*
X231755D01*
Y206033D01*
X232037D01*
Y205892D01*
X232319D01*
Y205751D01*
X232601D01*
Y205469D01*
X233025D01*
Y205328D01*
X233166D01*
Y205187D01*
X233448D01*
Y205046D01*
X233730D01*
Y204905D01*
X234012D01*
Y204622D01*
X234295D01*
Y204481D01*
X234577D01*
Y204340D01*
X234859D01*
Y204199D01*
X235000D01*
Y204058D01*
X235141D01*
Y203917D01*
X235282D01*
Y204058D01*
X235423D01*
Y203776D01*
X235705D01*
Y203635D01*
X235847D01*
Y203494D01*
X236270D01*
Y203352D01*
X236411D01*
Y203211D01*
X236552D01*
Y203070D01*
X236834D01*
Y202929D01*
X237116D01*
Y202788D01*
X237258D01*
Y202647D01*
X237399D01*
Y202506D01*
X237540D01*
Y202647D01*
X237681D01*
Y202506D01*
X237822D01*
Y202365D01*
X237963D01*
Y202224D01*
X238245D01*
Y202083D01*
X238527D01*
Y201941D01*
X238668D01*
Y201800D01*
X238810D01*
Y201659D01*
X239233D01*
Y201518D01*
X239374D01*
Y201377D01*
X239656D01*
Y201236D01*
X239938D01*
Y201095D01*
X240079D01*
Y200954D01*
X240221D01*
Y200813D01*
X240644D01*
Y200672D01*
X240785D01*
Y200531D01*
X241067D01*
Y200390D01*
X241208D01*
Y200248D01*
X241491D01*
Y200107D01*
X241914D01*
Y202506D01*
X241773D01*
Y202788D01*
X241632D01*
Y203070D01*
X241491D01*
Y203211D01*
X241349D01*
Y203352D01*
X241208D01*
Y203494D01*
X241067D01*
Y203635D01*
X240926D01*
Y203776D01*
X240644D01*
Y203917D01*
X240503D01*
Y204058D01*
X240362D01*
Y204199D01*
X240079D01*
Y204340D01*
X239797D01*
Y204481D01*
X239656D01*
Y204622D01*
X239515D01*
Y204764D01*
X239374D01*
Y204622D01*
X239233D01*
Y204764D01*
X239092D01*
Y204905D01*
X238951D01*
Y205046D01*
X238668D01*
Y205187D01*
X238386D01*
Y205328D01*
X238245D01*
Y205469D01*
X238104D01*
Y205610D01*
X237681D01*
Y205751D01*
X237540D01*
Y205892D01*
X237258D01*
Y206033D01*
X236975D01*
Y206174D01*
X236834D01*
Y206315D01*
X236693D01*
Y206457D01*
X236270D01*
Y206598D01*
X236129D01*
Y206739D01*
X235847D01*
Y206880D01*
X235705D01*
Y207021D01*
X235423D01*
Y207162D01*
X235282D01*
Y207303D01*
X235000D01*
Y207444D01*
X234859D01*
Y207585D01*
X234436D01*
Y207727D01*
X234295D01*
Y207868D01*
X234012D01*
Y208009D01*
X233871D01*
Y208150D01*
X233589D01*
Y208291D01*
X233448D01*
Y208432D01*
X233307D01*
Y208573D01*
X233166D01*
Y208432D01*
X233025D01*
Y208573D01*
X232884D01*
Y208714D01*
X232601D01*
Y208996D01*
X232178D01*
Y209138D01*
X232037D01*
Y209279D01*
X231896D01*
Y209420D01*
X231473D01*
Y209561D01*
X231331D01*
Y209702D01*
D02*
G37*
G36*
X231190Y202647D02*
X230767D01*
Y201095D01*
X230908D01*
Y200954D01*
X231049D01*
Y200672D01*
X231331D01*
Y200531D01*
X231473D01*
Y200390D01*
X231755D01*
Y200107D01*
X231896D01*
Y200248D01*
X232037D01*
Y200107D01*
X232178D01*
Y199966D01*
X232319D01*
Y196157D01*
X231614D01*
Y196016D01*
X231049D01*
Y195874D01*
X230767D01*
Y195169D01*
X230908D01*
Y195028D01*
X231049D01*
Y194887D01*
X231190D01*
Y194746D01*
X231331D01*
Y194605D01*
X231473D01*
Y194463D01*
X233166D01*
Y194605D01*
X233730D01*
Y194746D01*
X234295D01*
Y194887D01*
X235000D01*
Y195028D01*
X235141D01*
Y194887D01*
X235705D01*
Y195028D01*
X236270D01*
Y195169D01*
X236834D01*
Y195310D01*
X237540D01*
Y195451D01*
X238668D01*
Y195592D01*
X239233D01*
Y197285D01*
X239092D01*
Y197709D01*
X238951D01*
Y197850D01*
X238810D01*
Y197991D01*
X238527D01*
Y198132D01*
X238245D01*
Y198273D01*
X237963D01*
Y198555D01*
X237681D01*
Y198696D01*
X237399D01*
Y198837D01*
X237116D01*
Y198978D01*
X236834D01*
Y199120D01*
X236552D01*
Y199402D01*
X236270D01*
Y199543D01*
X235988D01*
Y199684D01*
X235705D01*
Y199966D01*
X235141D01*
Y200248D01*
X234859D01*
Y200390D01*
X234577D01*
Y200531D01*
X234295D01*
Y200813D01*
X233871D01*
Y200954D01*
X233730D01*
Y201095D01*
X233448D01*
Y201236D01*
X233166D01*
Y201377D01*
X232884D01*
Y201659D01*
X232601D01*
Y201800D01*
X232319D01*
Y201941D01*
X232037D01*
Y202083D01*
X231755D01*
Y202365D01*
X231614D01*
Y202224D01*
X231473D01*
Y202506D01*
X231190D01*
Y202647D01*
D02*
G37*
G36*
X238104Y193335D02*
X237822D01*
Y190795D01*
X237681D01*
Y190936D01*
X236693D01*
Y191077D01*
X236270D01*
Y191218D01*
X235705D01*
Y191359D01*
X234718D01*
Y191500D01*
X234295D01*
Y191641D01*
X233730D01*
Y191783D01*
X233166D01*
Y191924D01*
X232884D01*
Y191783D01*
X232743D01*
Y191924D01*
X232319D01*
Y192065D01*
X231755D01*
Y192206D01*
X231190D01*
Y192347D01*
X230767D01*
Y191500D01*
X230908D01*
Y191218D01*
X231049D01*
Y191077D01*
X231190D01*
Y190936D01*
X231331D01*
Y190795D01*
X231473D01*
Y190654D01*
X231614D01*
Y190513D01*
X231755D01*
Y190372D01*
X232319D01*
Y190231D01*
X233166D01*
Y190089D01*
X233730D01*
Y189948D01*
X234295D01*
Y189807D01*
X234718D01*
Y189666D01*
X235141D01*
Y189807D01*
X235282D01*
Y189666D01*
X235705D01*
Y189525D01*
X236270D01*
Y189384D01*
X236693D01*
Y189243D01*
X237822D01*
Y187267D01*
X237963D01*
Y187126D01*
X238104D01*
Y186985D01*
X238245D01*
Y186844D01*
X238386D01*
Y186703D01*
X238527D01*
Y186421D01*
X239233D01*
Y192065D01*
X239092D01*
Y192488D01*
X238951D01*
Y192629D01*
X238810D01*
Y192770D01*
X238668D01*
Y193052D01*
X238386D01*
Y193193D01*
X238104D01*
Y193335D01*
D02*
G37*
G36*
X231331Y187126D02*
X230767D01*
Y182047D01*
X230908D01*
Y181765D01*
X231049D01*
Y181624D01*
X231190D01*
Y181483D01*
X231331D01*
Y181341D01*
X231473D01*
Y181200D01*
X231614D01*
Y181059D01*
X231896D01*
Y180918D01*
X232178D01*
Y181059D01*
X232319D01*
Y185010D01*
X232178D01*
Y185151D01*
X232460D01*
Y185010D01*
X232884D01*
Y184869D01*
X233307D01*
Y185010D01*
X233448D01*
Y184869D01*
X233871D01*
Y184728D01*
X234295D01*
Y184587D01*
X234436D01*
Y181200D01*
X234577D01*
Y180918D01*
X234718D01*
Y180777D01*
X234859D01*
Y180636D01*
X235000D01*
Y180495D01*
X235141D01*
Y180354D01*
X235423D01*
Y180213D01*
X235705D01*
Y180354D01*
X235847D01*
Y184304D01*
X236411D01*
Y184163D01*
X236834D01*
Y184022D01*
X237822D01*
Y180354D01*
X237963D01*
Y180071D01*
X238104D01*
Y179930D01*
X238245D01*
Y179789D01*
X238386D01*
Y179648D01*
X238668D01*
Y179507D01*
X238810D01*
Y179366D01*
X239233D01*
Y184304D01*
X239092D01*
Y184869D01*
X238951D01*
Y185010D01*
X238810D01*
Y185151D01*
X238668D01*
Y185292D01*
X238386D01*
Y185433D01*
X238104D01*
Y185574D01*
X237681D01*
Y185715D01*
X236693D01*
Y185856D01*
X236270D01*
Y185998D01*
X235705D01*
Y186139D01*
X234718D01*
Y186280D01*
X234295D01*
Y186421D01*
X233871D01*
Y186562D01*
X233166D01*
Y186703D01*
X232884D01*
Y186562D01*
X232743D01*
Y186703D01*
X232319D01*
Y186844D01*
X231755D01*
Y186985D01*
X231331D01*
Y187126D01*
D02*
G37*
G36*
X231190Y179930D02*
X230767D01*
Y178802D01*
X230908D01*
Y178519D01*
X231049D01*
Y178378D01*
X231190D01*
Y178237D01*
X231473D01*
Y178096D01*
X231896D01*
Y177955D01*
X232319D01*
Y177814D01*
X233448D01*
Y177673D01*
X233871D01*
Y176121D01*
X233307D01*
Y175980D01*
X233025D01*
Y175839D01*
X232743D01*
Y175698D01*
X232178D01*
Y175556D01*
X231896D01*
Y175415D01*
X231614D01*
Y175274D01*
X231190D01*
Y175133D01*
X230767D01*
Y174569D01*
X230908D01*
Y174287D01*
X231049D01*
Y174145D01*
X231190D01*
Y174004D01*
X231473D01*
Y173863D01*
X232460D01*
Y174004D01*
X232884D01*
Y174145D01*
X233307D01*
Y174287D01*
X233448D01*
Y174428D01*
X233871D01*
Y174569D01*
X234012D01*
Y174004D01*
X234153D01*
Y173722D01*
X234295D01*
Y173440D01*
X234436D01*
Y173158D01*
X234577D01*
Y173017D01*
X234718D01*
Y172876D01*
X234859D01*
Y172734D01*
X235000D01*
Y172593D01*
X235282D01*
Y172452D01*
X235423D01*
Y172311D01*
X235705D01*
Y172170D01*
X235988D01*
Y172029D01*
X237540D01*
Y172170D01*
X237963D01*
Y172311D01*
X238104D01*
Y172452D01*
X238245D01*
Y172593D01*
X238386D01*
Y172734D01*
X238527D01*
Y172876D01*
X238668D01*
Y173017D01*
X238810D01*
Y173299D01*
X238951D01*
Y173440D01*
X239092D01*
Y174004D01*
X239233D01*
Y177532D01*
X239092D01*
Y177814D01*
X238951D01*
Y177955D01*
X238810D01*
Y178096D01*
X238668D01*
Y178237D01*
X238104D01*
Y178378D01*
X237681D01*
Y178519D01*
X236693D01*
Y178661D01*
X236270D01*
Y178802D01*
X235705D01*
Y178943D01*
X235141D01*
Y179084D01*
X234859D01*
Y178943D01*
X234718D01*
Y179084D01*
X234295D01*
Y179225D01*
X233730D01*
Y179366D01*
X233307D01*
Y179507D01*
X232178D01*
Y179648D01*
X231755D01*
Y179789D01*
X231190D01*
Y179930D01*
D02*
G37*
G36*
X231331Y172029D02*
X230767D01*
Y167514D01*
X230908D01*
Y167373D01*
X231049D01*
Y167091D01*
X231190D01*
Y166949D01*
X231331D01*
Y166808D01*
X231614D01*
Y166667D01*
X231755D01*
Y166526D01*
X232319D01*
Y170054D01*
X232884D01*
Y169913D01*
X233307D01*
Y169772D01*
X233871D01*
Y169630D01*
X234153D01*
Y169772D01*
X234295D01*
Y169630D01*
X234859D01*
Y169489D01*
X235423D01*
Y169348D01*
X235847D01*
Y169207D01*
X236834D01*
Y169066D01*
X237399D01*
Y168925D01*
X237822D01*
Y168784D01*
X238810D01*
Y168643D01*
X239233D01*
Y169348D01*
X239092D01*
Y169772D01*
X238951D01*
Y169913D01*
X238810D01*
Y170054D01*
X238668D01*
Y170336D01*
X238386D01*
Y170477D01*
X237681D01*
Y170618D01*
X237116D01*
Y170759D01*
X236693D01*
Y170900D01*
X235705D01*
Y171041D01*
X235282D01*
Y171182D01*
X234718D01*
Y171324D01*
X234153D01*
Y171465D01*
X233871D01*
Y171324D01*
X233730D01*
Y171465D01*
X233307D01*
Y171606D01*
X232884D01*
Y171747D01*
X232319D01*
Y171888D01*
X231331D01*
Y172029D01*
D02*
G37*
G36*
X235564Y165539D02*
X233307D01*
Y165398D01*
X233025D01*
Y165256D01*
X232743D01*
Y165115D01*
X232319D01*
Y164974D01*
X232178D01*
Y164833D01*
X232037D01*
Y164692D01*
X231896D01*
Y164551D01*
X231755D01*
Y164410D01*
X231614D01*
Y164269D01*
X231473D01*
Y164128D01*
X231331D01*
Y163987D01*
X231190D01*
Y163704D01*
X231049D01*
Y163281D01*
X230908D01*
Y163140D01*
X230767D01*
Y162575D01*
X230626D01*
Y160459D01*
X230767D01*
Y159895D01*
X230908D01*
Y159754D01*
X231049D01*
Y159330D01*
X231190D01*
Y159048D01*
X231331D01*
Y158907D01*
X231473D01*
Y158766D01*
X231614D01*
Y158484D01*
X231755D01*
Y158343D01*
X231896D01*
Y158202D01*
X232037D01*
Y158060D01*
X232178D01*
Y157919D01*
X232319D01*
Y157778D01*
X232460D01*
Y157637D01*
X232743D01*
Y157355D01*
X232319D01*
Y157496D01*
X231755D01*
Y157214D01*
X231614D01*
Y157073D01*
X231473D01*
Y156932D01*
X231331D01*
Y156790D01*
X231190D01*
Y156367D01*
X231049D01*
Y156085D01*
X230908D01*
Y155944D01*
X230767D01*
Y155380D01*
X230626D01*
Y153263D01*
X230767D01*
Y152840D01*
X230908D01*
Y152417D01*
X231049D01*
Y152134D01*
X231190D01*
Y151852D01*
X231331D01*
Y151711D01*
X231473D01*
Y151429D01*
X231614D01*
Y151288D01*
X231755D01*
Y151147D01*
X231896D01*
Y151006D01*
X232037D01*
Y150865D01*
X232178D01*
Y150723D01*
X232319D01*
Y150582D01*
X232460D01*
Y150441D01*
X232601D01*
Y150300D01*
X232884D01*
Y150159D01*
X233025D01*
Y150018D01*
X233307D01*
Y149877D01*
X233589D01*
Y149736D01*
X234153D01*
Y149595D01*
X234718D01*
Y149453D01*
X236411D01*
Y149595D01*
X236975D01*
Y149736D01*
X237399D01*
Y149877D01*
X237681D01*
Y150018D01*
X237822D01*
Y150159D01*
X237963D01*
Y150300D01*
X238104D01*
Y150441D01*
X238245D01*
Y150582D01*
X238386D01*
Y150723D01*
X238527D01*
Y150865D01*
X238668D01*
Y151147D01*
X238810D01*
Y151288D01*
X238951D01*
Y151570D01*
X239092D01*
Y152134D01*
X239233D01*
Y152417D01*
X239374D01*
Y154533D01*
X239233D01*
Y154956D01*
X239092D01*
Y155521D01*
X238951D01*
Y155803D01*
X238810D01*
Y155944D01*
X238668D01*
Y156226D01*
X238527D01*
Y156367D01*
X238386D01*
Y156508D01*
X238245D01*
Y156649D01*
X238104D01*
Y156790D01*
X237963D01*
Y156932D01*
X237822D01*
Y157073D01*
X237681D01*
Y157214D01*
X237540D01*
Y157496D01*
X237258D01*
Y157637D01*
X236975D01*
Y157919D01*
X237116D01*
Y157778D01*
X237399D01*
Y157637D01*
X237681D01*
Y157496D01*
X238104D01*
Y157637D01*
X238245D01*
Y157778D01*
X238386D01*
Y157919D01*
X238527D01*
Y158060D01*
X238668D01*
Y158343D01*
X238810D01*
Y158484D01*
X238951D01*
Y158766D01*
X239092D01*
Y159330D01*
X239233D01*
Y159754D01*
X239374D01*
Y161729D01*
X239233D01*
Y162152D01*
X239092D01*
Y162717D01*
X238951D01*
Y162999D01*
X238810D01*
Y163140D01*
X238668D01*
Y163422D01*
X238527D01*
Y163563D01*
X238386D01*
Y163704D01*
X238245D01*
Y163987D01*
X238104D01*
Y164128D01*
X237963D01*
Y164269D01*
X237681D01*
Y164410D01*
X237540D01*
Y164551D01*
X237399D01*
Y164692D01*
X237116D01*
Y164833D01*
X236975D01*
Y164974D01*
X236693D01*
Y165115D01*
X236552D01*
Y165256D01*
X236411D01*
Y165115D01*
X236270D01*
Y165256D01*
X235988D01*
Y165398D01*
X235564D01*
Y165539D01*
D02*
G37*
G36*
X231473Y149171D02*
X230767D01*
Y148607D01*
X230908D01*
Y148325D01*
X231049D01*
Y148043D01*
X231190D01*
Y147901D01*
X231331D01*
Y147760D01*
X231473D01*
Y147619D01*
X231614D01*
Y147478D01*
X231755D01*
Y147337D01*
X232601D01*
Y147196D01*
X233025D01*
Y147055D01*
X233589D01*
Y146914D01*
X233871D01*
Y144374D01*
X234012D01*
Y143386D01*
X234153D01*
Y143104D01*
X234295D01*
Y142822D01*
X234436D01*
Y142681D01*
X234577D01*
Y142399D01*
X234718D01*
Y142258D01*
X234859D01*
Y142116D01*
X235000D01*
Y141975D01*
X235282D01*
Y141834D01*
X235423D01*
Y141693D01*
X235988D01*
Y141552D01*
X236411D01*
Y141411D01*
X237399D01*
Y141552D01*
X237822D01*
Y141693D01*
X238245D01*
Y141834D01*
X238386D01*
Y141975D01*
X238668D01*
Y142258D01*
X238810D01*
Y142399D01*
X238951D01*
Y142681D01*
X239092D01*
Y143245D01*
X239233D01*
Y146491D01*
X239092D01*
Y146773D01*
X238951D01*
Y147055D01*
X238810D01*
Y147196D01*
X238668D01*
Y147478D01*
X238386D01*
Y147619D01*
X237963D01*
Y147760D01*
X237399D01*
Y147901D01*
X236834D01*
Y148043D01*
X235847D01*
Y148184D01*
X235423D01*
Y148325D01*
X234859D01*
Y148466D01*
X234436D01*
Y148607D01*
X234012D01*
Y148466D01*
X233871D01*
Y148607D01*
X233448D01*
Y148748D01*
X232884D01*
Y148889D01*
X232460D01*
Y149030D01*
X231473D01*
Y149171D01*
D02*
G37*
%LPD*%
G36*
X234012Y198978D02*
X234295D01*
Y198696D01*
X234718D01*
Y198555D01*
X234859D01*
Y198414D01*
X235000D01*
Y198273D01*
X235423D01*
Y198132D01*
X235564D01*
Y197991D01*
X235847D01*
Y197850D01*
X236129D01*
Y197709D01*
X236411D01*
Y197426D01*
X236693D01*
Y197285D01*
X236975D01*
Y197144D01*
X237258D01*
Y197003D01*
X237399D01*
Y196862D01*
X236975D01*
Y196721D01*
X236270D01*
Y196580D01*
X234859D01*
Y196439D01*
X234153D01*
Y196298D01*
X233871D01*
Y199120D01*
X234012D01*
Y198978D01*
D02*
G37*
G36*
X235847Y177109D02*
X236270D01*
Y176967D01*
X236834D01*
Y176826D01*
X237681D01*
Y176685D01*
X237822D01*
Y174569D01*
X237681D01*
Y174287D01*
X237540D01*
Y174145D01*
X237399D01*
Y174004D01*
X237258D01*
Y173863D01*
X236975D01*
Y173722D01*
X236411D01*
Y173863D01*
X236129D01*
Y174004D01*
X235988D01*
Y174145D01*
X235847D01*
Y174287D01*
X235705D01*
Y174428D01*
X235564D01*
Y174569D01*
X235423D01*
Y174992D01*
X235282D01*
Y177250D01*
X235847D01*
Y177109D01*
D02*
G37*
G36*
X235423Y163704D02*
X235705D01*
Y163563D01*
X236270D01*
Y163422D01*
X236411D01*
Y163281D01*
X236693D01*
Y163140D01*
X236834D01*
Y162999D01*
X236975D01*
Y162858D01*
X237116D01*
Y162717D01*
X237258D01*
Y162575D01*
X237399D01*
Y162293D01*
X237540D01*
Y162152D01*
X237681D01*
Y161729D01*
X237822D01*
Y159895D01*
X237681D01*
Y159471D01*
X237540D01*
Y159330D01*
X237399D01*
Y159048D01*
X237258D01*
Y158907D01*
X237116D01*
Y158766D01*
X236834D01*
Y158625D01*
X236552D01*
Y158484D01*
X235988D01*
Y158343D01*
X235141D01*
Y158484D01*
X234577D01*
Y158625D01*
X234436D01*
Y158484D01*
X234295D01*
Y158625D01*
X234012D01*
Y158766D01*
X233871D01*
Y158907D01*
X233589D01*
Y159048D01*
X233307D01*
Y159189D01*
X233166D01*
Y159330D01*
X233025D01*
Y159471D01*
X232884D01*
Y159613D01*
X232743D01*
Y159754D01*
X232601D01*
Y159895D01*
X232460D01*
Y160177D01*
X232319D01*
Y160600D01*
X232178D01*
Y161164D01*
X232037D01*
Y161588D01*
X232178D01*
Y162293D01*
X232319D01*
Y162717D01*
X232460D01*
Y162858D01*
X232601D01*
Y163140D01*
X232743D01*
Y163281D01*
X232884D01*
Y163422D01*
X233166D01*
Y163563D01*
X233448D01*
Y163704D01*
X233871D01*
Y163845D01*
X235423D01*
Y163704D01*
D02*
G37*
G36*
X235141Y156508D02*
X235564D01*
Y156367D01*
X236129D01*
Y156226D01*
X236411D01*
Y156085D01*
X236693D01*
Y155944D01*
X236834D01*
Y155803D01*
X236975D01*
Y155662D01*
X237116D01*
Y155521D01*
X237258D01*
Y155380D01*
X237399D01*
Y155097D01*
X237540D01*
Y154815D01*
X237681D01*
Y154533D01*
X237822D01*
Y152558D01*
X237681D01*
Y152275D01*
X237540D01*
Y151993D01*
X237399D01*
Y151852D01*
X237258D01*
Y151711D01*
X237116D01*
Y151570D01*
X236975D01*
Y151429D01*
X236693D01*
Y151288D01*
X236552D01*
Y151429D01*
X236411D01*
Y151288D01*
X235988D01*
Y151147D01*
X234859D01*
Y151288D01*
X234436D01*
Y151429D01*
X233871D01*
Y151570D01*
X233589D01*
Y151852D01*
X233307D01*
Y151993D01*
X233166D01*
Y152134D01*
X233025D01*
Y152275D01*
X232884D01*
Y152417D01*
X232743D01*
Y152558D01*
X232601D01*
Y152699D01*
X232460D01*
Y152840D01*
X232319D01*
Y153404D01*
X232178D01*
Y154110D01*
X232037D01*
Y154392D01*
X232178D01*
Y155097D01*
X232319D01*
Y155380D01*
X232460D01*
Y155662D01*
X232601D01*
Y155803D01*
X232743D01*
Y156085D01*
X233025D01*
Y156226D01*
X233166D01*
Y156367D01*
X233589D01*
Y156508D01*
X233871D01*
Y156649D01*
X235141D01*
Y156508D01*
D02*
G37*
G36*
X235423Y146491D02*
X235988D01*
Y146349D01*
X236975D01*
Y146208D01*
X237399D01*
Y146067D01*
X237822D01*
Y143810D01*
X237681D01*
Y143527D01*
X237399D01*
Y143245D01*
X236834D01*
Y143104D01*
X236693D01*
Y143245D01*
X236129D01*
Y143386D01*
X235847D01*
Y143527D01*
X235705D01*
Y143810D01*
X235564D01*
Y144092D01*
X235423D01*
Y144374D01*
X235282D01*
Y146632D01*
X235423D01*
Y146491D01*
D02*
G37*
D10*
X99357Y51155D02*
D03*
D11*
X191929Y111614D02*
X191385Y112363D01*
X190505Y112077D01*
Y111151D01*
X191385Y110865D01*
X191929Y111614D01*
D12*
X184199Y55230D02*
X184593D01*
X184199Y59758D02*
X184593D01*
X183794Y40348D02*
X184582D01*
X183794Y37789D02*
X184582D01*
X183007Y26466D02*
X183401D01*
X183007Y21938D02*
X183401D01*
X9396Y82494D02*
X19396D01*
X9396D02*
Y102494D01*
X19396D01*
Y82494D02*
Y102494D01*
X10000Y55000D02*
X20000D01*
Y35000D02*
Y55000D01*
X10000Y35000D02*
X20000D01*
X10000D02*
Y55000D01*
X52073Y91866D02*
Y92260D01*
X56600Y91866D02*
Y92260D01*
X89291Y91654D02*
X100709D01*
X89291Y98347D02*
X100709D01*
Y91654D02*
Y92441D01*
X89291Y91654D02*
Y92441D01*
X100709Y97559D02*
Y98347D01*
X89291Y97559D02*
Y98347D01*
X166654Y58773D02*
X167441D01*
X166654Y56214D02*
X167441D01*
X147132Y42297D02*
Y42691D01*
X151660Y42297D02*
Y42691D01*
X100734Y49482D02*
Y51155D01*
Y33832D02*
Y35506D01*
X118057Y49482D02*
Y51155D01*
Y33832D02*
Y35506D01*
X100734Y51155D02*
X103313D01*
X115479D02*
X118057D01*
X100734Y33832D02*
X103313D01*
X115479D02*
X118057D01*
X136660Y53655D02*
Y54049D01*
X132132Y53655D02*
Y54049D01*
X51279Y46358D02*
Y47146D01*
X48720Y46358D02*
Y47146D01*
X148116Y26728D02*
Y27516D01*
X150675Y26728D02*
Y27516D01*
X132736Y29803D02*
Y30197D01*
X137264Y29803D02*
Y30197D01*
X87736Y24803D02*
Y25197D01*
X92264Y24803D02*
Y25197D01*
X197047Y105709D02*
Y214291D01*
X102953Y105709D02*
X197047D01*
X102953D02*
Y214291D01*
X197047D01*
X63380Y45669D02*
X64167D01*
X63380Y43110D02*
X64167D01*
X76025Y46358D02*
Y47146D01*
X78584Y46358D02*
Y47146D01*
X32736Y46161D02*
Y46555D01*
X37264Y46161D02*
Y46555D01*
D13*
X93819Y100512D02*
Y104449D01*
X96181Y102480D02*
X98543D01*
X91457D02*
X93819D01*
D14*
X3124Y113404D02*
X4190D01*
X3657D01*
Y116603D01*
X3124Y116070D01*
X7923Y116603D02*
X5790D01*
Y115004D01*
X6856Y115537D01*
X7389D01*
X7923Y115004D01*
Y113937D01*
X7389Y113404D01*
X6323D01*
X5790Y113937D01*
X8989Y116603D02*
Y114471D01*
X10055Y113404D01*
X11122Y114471D01*
Y116603D01*
X15920Y115537D02*
X16986D01*
X17519Y115004D01*
Y113404D01*
X15920D01*
X15387Y113937D01*
X15920Y114471D01*
X17519D01*
X19119Y116070D02*
Y115537D01*
X18586D01*
X19652D01*
X19119D01*
Y113937D01*
X19652Y113404D01*
X24451Y116070D02*
X24984Y116603D01*
X26050D01*
X26583Y116070D01*
Y113937D01*
X26050Y113404D01*
X24984D01*
X24451Y113937D01*
Y116070D01*
X27650Y113404D02*
Y113937D01*
X28183D01*
Y113404D01*
X27650D01*
X32448Y116603D02*
X30315D01*
Y115004D01*
X31382Y115537D01*
X31915D01*
X32448Y115004D01*
Y113937D01*
X31915Y113404D01*
X30849D01*
X30315Y113937D01*
X33514Y113404D02*
Y115537D01*
X34581Y116603D01*
X35647Y115537D01*
Y113404D01*
Y115004D01*
X33514D01*
X21093Y127375D02*
Y130574D01*
X22693D01*
X23226Y130041D01*
Y128975D01*
X22693Y128442D01*
X21093D01*
X24292Y129508D02*
Y127375D01*
Y128442D01*
X24825Y128975D01*
X25359Y129508D01*
X25892D01*
X28024Y127375D02*
X29091D01*
X29624Y127909D01*
Y128975D01*
X29091Y129508D01*
X28024D01*
X27491Y128975D01*
Y127909D01*
X28024Y127375D01*
X30690Y126309D02*
X31223D01*
X31756Y126842D01*
Y129508D01*
X35489Y127375D02*
X34422D01*
X33889Y127909D01*
Y128975D01*
X34422Y129508D01*
X35489D01*
X36022Y128975D01*
Y128442D01*
X33889D01*
X39221Y129508D02*
X37621D01*
X37088Y128975D01*
Y127909D01*
X37621Y127375D01*
X39221D01*
X40820Y130041D02*
Y129508D01*
X40287D01*
X41353D01*
X40820D01*
Y127909D01*
X41353Y127375D01*
X48284Y130041D02*
X47751Y130574D01*
X46685D01*
X46152Y130041D01*
Y129508D01*
X46685Y128975D01*
X47751D01*
X48284Y128442D01*
Y127909D01*
X47751Y127375D01*
X46685D01*
X46152Y127909D01*
X49884Y129508D02*
X50950D01*
X51483Y128975D01*
Y127375D01*
X49884D01*
X49351Y127909D01*
X49884Y128442D01*
X51483D01*
X52550Y129508D02*
Y127909D01*
X53083Y127375D01*
X53616Y127909D01*
X54149Y127375D01*
X54682Y127909D01*
Y129508D01*
X55749Y127375D02*
X57348D01*
X57881Y127909D01*
X57348Y128442D01*
X56282D01*
X55749Y128975D01*
X56282Y129508D01*
X57881D01*
X58948Y130574D02*
Y127375D01*
X60547D01*
X61080Y127909D01*
Y128442D01*
Y128975D01*
X60547Y129508D01*
X58948D01*
X62147D02*
Y127909D01*
X62680Y127375D01*
X64279D01*
Y129508D01*
X67478D02*
X65879D01*
X65346Y128975D01*
Y127909D01*
X65879Y127375D01*
X67478D01*
X68545D02*
Y130574D01*
Y128442D02*
X70144Y129508D01*
X68545Y128442D02*
X70144Y127375D01*
X223672Y219562D02*
Y221695D01*
X222073D01*
Y220628D01*
Y221695D01*
X220473D01*
Y218496D02*
Y217429D01*
Y217963D01*
X223672D01*
Y218496D01*
X222606Y215830D02*
X221006D01*
X220473Y215297D01*
Y213697D01*
X219940D01*
X219407Y214230D01*
Y214764D01*
X220473Y213697D02*
X222606D01*
X222073Y212631D02*
Y210498D01*
X223672Y209432D02*
X220473D01*
Y207833D01*
X221006Y207299D01*
X221540D01*
X222073D01*
X222606Y207833D01*
Y209432D01*
Y206233D02*
X221006D01*
X220473Y205700D01*
Y204100D01*
X222606D01*
Y200901D02*
Y202501D01*
X222073Y203034D01*
X221006D01*
X220473Y202501D01*
Y200901D01*
Y199835D02*
X223672D01*
X221540D02*
X222606Y198236D01*
X221540Y199835D02*
X220473Y198236D01*
X223139Y192904D02*
X222606D01*
Y193437D01*
Y192371D01*
Y192904D01*
X221006D01*
X220473Y192371D01*
Y189172D02*
Y190238D01*
X221006Y190771D01*
X222073D01*
X222606Y190238D01*
Y189172D01*
X222073Y188639D01*
X221540D01*
Y190771D01*
X220473Y187572D02*
Y185973D01*
X221006Y185440D01*
X221540Y185973D01*
Y187039D01*
X222073Y187572D01*
X222606Y187039D01*
Y185440D01*
X223139Y183840D02*
X222606D01*
Y184373D01*
Y183307D01*
Y183840D01*
X221006D01*
X220473Y183307D01*
X223672Y178509D02*
X220473D01*
Y176909D01*
X221006Y176376D01*
X221540D01*
X222073D01*
X222606Y176909D01*
Y178509D01*
X220473Y174776D02*
Y173710D01*
X221006Y173177D01*
X222073D01*
X222606Y173710D01*
Y174776D01*
X222073Y175310D01*
X221006D01*
X220473Y174776D01*
X222606Y171578D02*
Y170511D01*
X222073Y169978D01*
X220473D01*
Y171578D01*
X221006Y172111D01*
X221540Y171578D01*
Y169978D01*
X222606Y168912D02*
X220473D01*
X221540D01*
X222073Y168379D01*
X222606Y167845D01*
Y167312D01*
X223672Y163580D02*
X220473D01*
Y165180D01*
X221006Y165713D01*
X222073D01*
X222606Y165180D01*
Y163580D01*
X180267Y64808D02*
X179734Y65341D01*
X178668D01*
X178135Y64808D01*
Y62675D01*
X178668Y62142D01*
X179734D01*
X180267Y62675D01*
X181333Y64808D02*
X181867Y65341D01*
X182933D01*
X183466Y64808D01*
Y64275D01*
X182933Y63742D01*
X182400D01*
X182933D01*
X183466Y63209D01*
Y62675D01*
X182933Y62142D01*
X181867D01*
X181333Y62675D01*
X178563Y42307D02*
Y45506D01*
X180162D01*
X180695Y44973D01*
Y43907D01*
X180162Y43374D01*
X178563D01*
X179629D02*
X180695Y42307D01*
X183894Y45506D02*
X181762D01*
Y43907D01*
X182828Y44440D01*
X183361D01*
X183894Y43907D01*
Y42840D01*
X183361Y42307D01*
X182295D01*
X181762Y42840D01*
X171848Y26851D02*
X171315Y27384D01*
X170249D01*
X169715Y26851D01*
Y24718D01*
X170249Y24185D01*
X171315D01*
X171848Y24718D01*
X172914Y26851D02*
X173448Y27384D01*
X174514D01*
X175047Y26851D01*
Y26317D01*
X174514Y25784D01*
X175047Y25251D01*
Y24718D01*
X174514Y24185D01*
X173448D01*
X172914Y24718D01*
Y25251D01*
X173448Y25784D01*
X172914Y26317D01*
Y26851D01*
X173448Y25784D02*
X174514D01*
X3271Y47387D02*
Y49520D01*
X5404Y47387D01*
X5937D01*
X6470Y47921D01*
Y48987D01*
X5937Y49520D01*
X3271Y44722D02*
X6470D01*
X4871Y46321D01*
Y44188D01*
X6470Y43122D02*
X4338D01*
X3271Y42056D01*
X4338Y40990D01*
X6470D01*
X3069Y103017D02*
Y101951D01*
Y102484D01*
X6268D01*
X5735Y103017D01*
X6268Y98219D02*
Y100351D01*
X4669D01*
X5202Y99285D01*
Y98752D01*
X4669Y98219D01*
X3602D01*
X3069Y98752D01*
Y99818D01*
X3602Y100351D01*
X6268Y97152D02*
X4136D01*
X3069Y96086D01*
X4136Y95020D01*
X6268D01*
Y90754D02*
Y89688D01*
Y90221D01*
X3069D01*
Y90754D01*
Y89688D01*
Y88088D02*
Y86489D01*
X3602Y85956D01*
X4136Y86489D01*
Y87555D01*
X4669Y88088D01*
X5202Y87555D01*
Y85956D01*
X3069Y84356D02*
Y83290D01*
X3602Y82757D01*
X4669D01*
X5202Y83290D01*
Y84356D01*
X4669Y84889D01*
X3602D01*
X3069Y84356D01*
X9828Y104655D02*
Y107853D01*
X11428D01*
X11961Y107320D01*
Y106254D01*
X11428Y105721D01*
X9828D01*
X13027Y104655D02*
X14093D01*
X13560D01*
Y107853D01*
X13027Y107320D01*
X20816Y83173D02*
X22949D01*
X21050Y101888D02*
X23183D01*
X22117Y102954D02*
Y100822D01*
X216089Y219875D02*
X216622Y220409D01*
Y221475D01*
X216089Y222008D01*
X213956D01*
X213423Y221475D01*
Y220409D01*
X213956Y219875D01*
X215022D01*
Y220942D01*
X215556Y218809D02*
X213956D01*
X213423Y218276D01*
Y216676D01*
X215556D01*
Y215610D02*
X213423D01*
X214489D01*
X215022Y215077D01*
X215556Y214544D01*
Y214011D01*
Y212411D02*
X213423Y211345D01*
X215556Y210279D01*
X213423Y209212D02*
Y208146D01*
Y208679D01*
X215556D01*
Y209212D01*
X212356Y206546D02*
Y206013D01*
X212890Y205480D01*
X215556D01*
Y202814D02*
Y201748D01*
X215022Y201215D01*
X213423D01*
Y202814D01*
X213956Y203347D01*
X214489Y202814D01*
Y201215D01*
X215556Y200149D02*
X213956D01*
X213423Y199615D01*
Y198016D01*
X212890D01*
X212356Y198549D01*
Y199082D01*
X213423Y198016D02*
X215556D01*
X212356Y196950D02*
X215556D01*
Y195350D01*
X215022Y194817D01*
X213956D01*
X213423Y195350D01*
Y196950D01*
X215556Y193217D02*
Y192151D01*
X215022Y191618D01*
X213423D01*
Y193217D01*
X213956Y193751D01*
X214489Y193217D01*
Y191618D01*
X213423Y190551D02*
Y189485D01*
Y190018D01*
X216622D01*
Y190551D01*
X216089Y182554D02*
X216622Y183087D01*
Y184154D01*
X216089Y184687D01*
X215556D01*
X215022Y184154D01*
Y183087D01*
X214489Y182554D01*
X213956D01*
X213423Y183087D01*
Y184154D01*
X213956Y184687D01*
X213423Y181488D02*
Y180421D01*
Y180955D01*
X215556D01*
Y181488D01*
X213423Y178822D02*
X215556D01*
Y177223D01*
X215022Y176689D01*
X213423D01*
X212356Y174557D02*
Y174024D01*
X212890Y173490D01*
X215556D01*
Y175090D01*
X215022Y175623D01*
X213956D01*
X213423Y175090D01*
Y173490D01*
X216622Y172424D02*
X213423D01*
X215022D01*
X215556Y171891D01*
Y170825D01*
X215022Y170291D01*
X213423D01*
Y166026D02*
X215556D01*
X216622Y164960D01*
X215556Y163893D01*
X213423D01*
X215022D01*
Y166026D01*
X215556Y162827D02*
X213956D01*
X213423Y162294D01*
Y160695D01*
X215556D01*
X212356Y159628D02*
Y159095D01*
X212890Y158562D01*
X215556D01*
X213423Y156429D02*
Y155363D01*
Y155896D01*
X216622D01*
Y156429D01*
X215556Y153230D02*
Y152164D01*
X215022Y151631D01*
X213423D01*
Y153230D01*
X213956Y153763D01*
X214489Y153230D01*
Y151631D01*
X10142Y56481D02*
Y59680D01*
X11742D01*
X12275Y59147D01*
Y58081D01*
X11742Y57547D01*
X10142D01*
X15474Y56481D02*
X13341D01*
X15474Y58614D01*
Y59147D01*
X14941Y59680D01*
X13874D01*
X13341Y59147D01*
X54417Y102953D02*
X53884Y103486D01*
X52818D01*
X52284Y102953D01*
Y100820D01*
X52818Y100287D01*
X53884D01*
X54417Y100820D01*
X55484Y100287D02*
X56550D01*
X56017D01*
Y103486D01*
X55484Y102953D01*
X82988Y104203D02*
Y101004D01*
X84587D01*
X85120Y101537D01*
Y103670D01*
X84587Y104203D01*
X82988D01*
X86187Y101004D02*
X87253D01*
X86720D01*
Y104203D01*
X86187Y103670D01*
X138480Y76900D02*
X140612D01*
X139546D01*
Y73701D01*
X141679D02*
Y76900D01*
X143278D01*
X143812Y76367D01*
Y75300D01*
X143278Y74767D01*
X141679D01*
X144878Y73701D02*
X145944D01*
X145411D01*
Y76900D01*
X144878Y76367D01*
X167943Y61143D02*
Y64342D01*
X169542D01*
X170076Y63809D01*
Y62743D01*
X169542Y62210D01*
X167943D01*
X169009D02*
X170076Y61143D01*
X171142Y63809D02*
X171675Y64342D01*
X172741D01*
X173275Y63809D01*
Y63276D01*
X172741Y62743D01*
X172208D01*
X172741D01*
X173275Y62210D01*
Y61676D01*
X172741Y61143D01*
X171675D01*
X171142Y61676D01*
X213433Y65198D02*
X215566D01*
X214500D01*
Y61999D01*
X216632D02*
Y65198D01*
X218232D01*
X218765Y64665D01*
Y63599D01*
X218232Y63066D01*
X216632D01*
X221964Y61999D02*
X219831D01*
X221964Y64132D01*
Y64665D01*
X221431Y65198D01*
X220365D01*
X219831Y64665D01*
X148956Y52893D02*
X148423Y53426D01*
X147357D01*
X146824Y52893D01*
Y50760D01*
X147357Y50227D01*
X148423D01*
X148956Y50760D01*
X152155Y53426D02*
X151089Y52893D01*
X150023Y51826D01*
Y50760D01*
X150556Y50227D01*
X151622D01*
X152155Y50760D01*
Y51293D01*
X151622Y51826D01*
X150023D01*
X100124Y56993D02*
Y54328D01*
X100657Y53794D01*
X101724D01*
X102257Y54328D01*
Y56993D01*
X103323Y53794D02*
X104389D01*
X103856D01*
Y56993D01*
X103323Y56460D01*
X48182Y55221D02*
Y58420D01*
X49782D01*
X50315Y57887D01*
Y56821D01*
X49782Y56288D01*
X48182D01*
X49249D02*
X50315Y55221D01*
X51381D02*
X52447D01*
X51914D01*
Y58420D01*
X51381Y57887D01*
X23882Y55022D02*
X26015D01*
X24948Y56089D02*
Y53956D01*
X23648Y36307D02*
X25780D01*
X102647Y220987D02*
X104779D01*
X103713D01*
Y217788D01*
X105845D02*
X106912D01*
X106379D01*
Y220987D01*
X105845Y220454D01*
X34603Y57990D02*
X34070Y58524D01*
X33004D01*
X32470Y57990D01*
Y55858D01*
X33004Y55325D01*
X34070D01*
X34603Y55858D01*
X37269Y55325D02*
Y58524D01*
X35669Y56924D01*
X37802D01*
X74761Y54936D02*
Y58135D01*
X76361D01*
X76894Y57602D01*
Y56536D01*
X76361Y56002D01*
X74761D01*
X75828D02*
X76894Y54936D01*
X80093D02*
X77960D01*
X80093Y57069D01*
Y57602D01*
X79560Y58135D01*
X78494D01*
X77960Y57602D01*
X62334Y33400D02*
Y36599D01*
X63934D01*
X64467Y36066D01*
Y35000D01*
X63934Y34467D01*
X62334D01*
X63401D02*
X64467Y33400D01*
X67133D02*
Y36599D01*
X65533Y35000D01*
X67666D01*
X78375Y28462D02*
X77842Y28996D01*
X76775D01*
X76242Y28462D01*
Y26330D01*
X76775Y25797D01*
X77842D01*
X78375Y26330D01*
X79441Y28996D02*
X81574D01*
Y28462D01*
X79441Y26330D01*
Y25797D01*
X134615Y21571D02*
X134082Y22104D01*
X133016D01*
X132483Y21571D01*
Y19438D01*
X133016Y18905D01*
X134082D01*
X134615Y19438D01*
X137814Y22104D02*
X135681D01*
Y20504D01*
X136748Y21038D01*
X137281D01*
X137814Y20504D01*
Y19438D01*
X137281Y18905D01*
X136215D01*
X135681Y19438D01*
X126053Y62025D02*
X125520Y62559D01*
X124454D01*
X123921Y62025D01*
Y59893D01*
X124454Y59360D01*
X125520D01*
X126053Y59893D01*
X129252Y59360D02*
X127120D01*
X129252Y61492D01*
Y62025D01*
X128719Y62559D01*
X127653D01*
X127120Y62025D01*
X153031Y28394D02*
Y31593D01*
X154630D01*
X155164Y31060D01*
Y29994D01*
X154630Y29461D01*
X153031D01*
X154097D02*
X155164Y28394D01*
X158362Y31593D02*
X157296Y31060D01*
X156230Y29994D01*
Y28927D01*
X156763Y28394D01*
X157829D01*
X158362Y28927D01*
Y29461D01*
X157829Y29994D01*
X156230D01*
M02*
