G04*
G04 #@! TF.GenerationSoftware,Altium Limited,Altium Designer,20.2.6 (244)*
G04*
G04 Layer_Color=16711935*
%FSLAX25Y25*%
%MOIN*%
G70*
G04*
G04 #@! TF.SameCoordinates,DFA1C72D-2ED7-4C31-8EA1-ECB50900EFAB*
G04*
G04*
G04 #@! TF.FilePolarity,Positive*
G04*
G01*
G75*
%ADD11C,0.01968*%
%ADD52C,0.00394*%
D11*
X191929Y111614D02*
X191385Y112363D01*
X190505Y112077D01*
Y111151D01*
X191385Y110865D01*
X191929Y111614D01*
D52*
X106837Y47021D02*
X106573Y48006D01*
X105853Y48726D01*
X104868Y48990D01*
X103884Y48726D01*
X103164Y48006D01*
X102900Y47021D01*
X103164Y46037D01*
X103884Y45317D01*
X104868Y45053D01*
X105853Y45317D01*
X106573Y46037D01*
X106837Y47021D01*
X188333Y55132D02*
Y59856D01*
X180459Y55132D02*
Y59856D01*
Y55132D02*
X188333D01*
X180459Y59856D02*
X188333D01*
X181038Y37494D02*
Y40643D01*
X187338Y37494D02*
Y40643D01*
X181038D02*
X187338D01*
X181038Y37494D02*
X187338D01*
X179267Y21840D02*
Y26564D01*
X187141Y21840D02*
Y26564D01*
X179267D02*
X187141D01*
X179267Y21840D02*
X187141D01*
X51975Y88126D02*
X56699D01*
X51975Y96000D02*
X56699D01*
X51975Y88126D02*
Y96000D01*
X56699Y88126D02*
Y96000D01*
X100610Y91654D02*
Y98347D01*
X89390Y91654D02*
Y98347D01*
Y91654D02*
X100610D01*
X89390Y98347D02*
X100610D01*
X163898Y55919D02*
Y59069D01*
X170197Y55919D02*
Y59069D01*
X163898D02*
X170197D01*
X163898Y55919D02*
X170197D01*
X147034Y38557D02*
X151758D01*
X147034Y46431D02*
X151758D01*
X147034Y38557D02*
Y46431D01*
X151758Y38557D02*
Y46431D01*
X101325Y34423D02*
Y50565D01*
X117467Y34423D02*
Y50565D01*
X101325D02*
X117467D01*
X101325Y34423D02*
X117467D01*
X132034Y57789D02*
X136758D01*
X132034Y49915D02*
X136758D01*
Y57789D01*
X132034Y49915D02*
Y57789D01*
X48425Y49902D02*
X51575D01*
X48425Y43602D02*
X51575D01*
Y49902D01*
X48425Y43602D02*
Y49902D01*
X147821Y23972D02*
X150971D01*
X147821Y30272D02*
X150971D01*
X147821Y23972D02*
Y30272D01*
X150971Y23972D02*
Y30272D01*
X132638Y26063D02*
X137362D01*
X132638Y33937D02*
X137362D01*
X132638Y26063D02*
Y33937D01*
X137362Y26063D02*
Y33937D01*
X87638Y21063D02*
X92362D01*
X87638Y28937D02*
X92362D01*
X87638Y21063D02*
Y28937D01*
X92362Y21063D02*
Y28937D01*
X102953Y214291D02*
X197047D01*
X102953Y105709D02*
Y214291D01*
Y105709D02*
X197047D01*
Y214291D01*
X60624Y42815D02*
Y45965D01*
X66923Y42815D02*
Y45965D01*
X60624D02*
X66923D01*
X60624Y42815D02*
X66923D01*
X75730Y43602D02*
X78879D01*
X75730Y49902D02*
X78879D01*
X75730Y43602D02*
Y49902D01*
X78879Y43602D02*
Y49902D01*
X32638Y42421D02*
X37362D01*
X32638Y50295D02*
X37362D01*
X32638Y42421D02*
Y50295D01*
X37362Y42421D02*
Y50295D01*
M02*
