G04*
G04 #@! TF.GenerationSoftware,Altium Limited,Altium Designer,20.1.11 (218)*
G04*
G04 Layer_Color=65535*
%FSLAX25Y25*%
%MOIN*%
G70*
G04*
G04 #@! TF.SameCoordinates,0A123B17-7C5E-4AB7-81A3-E10484C352A0*
G04*
G04*
G04 #@! TF.FilePolarity,Positive*
G04*
G01*
G75*
%ADD10C,0.00984*%
%ADD11C,0.00787*%
%ADD12C,0.00700*%
D10*
X230571Y54252D02*
X229833Y54678D01*
Y53826D01*
X230571Y54252D01*
X70571D02*
X69833Y54678D01*
Y53826D01*
X70571Y54252D01*
X149571Y130591D02*
X148833Y131017D01*
Y130164D01*
X149571Y130591D01*
X230571D02*
X229833Y131017D01*
Y130164D01*
X230571Y130591D01*
X70571D02*
X69833Y131017D01*
Y130164D01*
X70571Y130591D01*
X150571Y54252D02*
X149833Y54678D01*
Y53826D01*
X150571Y54252D01*
D11*
X12707Y101017D02*
Y121017D01*
Y101017D02*
X22706D01*
Y121017D01*
X12707D02*
X22706D01*
X224134Y64488D02*
Y77284D01*
Y64488D02*
X266260D01*
Y77284D01*
X64134Y64488D02*
Y77284D01*
Y64488D02*
X106260D01*
Y77284D01*
X143134Y140827D02*
Y153622D01*
Y140827D02*
X185260D01*
Y153622D01*
X224134Y140827D02*
Y153622D01*
Y140827D02*
X266260D01*
Y153622D01*
X64134Y140827D02*
Y153622D01*
Y140827D02*
X106260D01*
Y153622D01*
X144134Y64488D02*
Y77284D01*
Y64488D02*
X186260D01*
Y77284D01*
X185197Y10197D02*
Y20197D01*
X155197Y10197D02*
X185197D01*
X155197D02*
Y20197D01*
X185197D01*
X42197Y81197D02*
X52197D01*
X42197D02*
Y111197D01*
X52197D01*
Y81197D02*
Y111197D01*
X118197Y78197D02*
X128197D01*
X118197D02*
Y108197D01*
X128197D01*
Y78197D02*
Y108197D01*
X201197Y76197D02*
X211197D01*
X201197D02*
Y106197D01*
X211197D01*
Y76197D02*
Y106197D01*
D12*
X34118Y104706D02*
Y107038D01*
X35285Y108205D01*
X36451Y107038D01*
Y104706D01*
Y106455D01*
X34118D01*
X37617Y108205D02*
Y104706D01*
Y106455D01*
X39950D01*
Y108205D01*
Y104706D01*
X34696Y85440D02*
Y87772D01*
X35863Y88939D01*
X37029Y87772D01*
Y85440D01*
Y87189D01*
X34696D01*
X38195Y88939D02*
Y85440D01*
X40528D01*
X180523Y6913D02*
X179940Y7496D01*
X178773D01*
X178190Y6913D01*
Y4580D01*
X178773Y3997D01*
X179940D01*
X180523Y4580D01*
X34215Y95747D02*
Y98080D01*
X35381Y99246D01*
X36547Y98080D01*
Y95747D01*
Y97497D01*
X34215D01*
X40046Y99246D02*
X37714D01*
Y95747D01*
X40046D01*
X37714Y97497D02*
X38880D01*
X158599Y4341D02*
Y6673D01*
X159766Y7840D01*
X160932Y6673D01*
Y4341D01*
Y6090D01*
X158599D01*
X13229Y88813D02*
X12646Y89396D01*
X11480D01*
X10897Y88813D01*
Y86480D01*
X11480Y85897D01*
X12646D01*
X13229Y86480D01*
Y87646D01*
X12063D01*
X14396Y85897D02*
Y89396D01*
X16728Y85897D01*
Y89396D01*
X17895D02*
Y85897D01*
X19644D01*
X20227Y86480D01*
Y88813D01*
X19644Y89396D01*
X17895D01*
X169082Y7840D02*
Y4341D01*
X170832D01*
X171415Y4924D01*
Y5507D01*
X170832Y6090D01*
X169082D01*
X170832D01*
X171415Y6673D01*
Y7257D01*
X170832Y7840D01*
X169082D01*
X110897Y84396D02*
Y80897D01*
X112646D01*
X113229Y81480D01*
Y82063D01*
X112646Y82646D01*
X110897D01*
X112646D01*
X113229Y83229D01*
Y83813D01*
X112646Y84396D01*
X110897D01*
X114396D02*
Y80897D01*
X116728D01*
X195990Y81840D02*
X195406Y82424D01*
X194240D01*
X193657Y81840D01*
Y79508D01*
X194240Y78925D01*
X195406D01*
X195990Y79508D01*
X197156Y82424D02*
Y78925D01*
X199488D01*
X195818Y93011D02*
X195235Y93594D01*
X194068D01*
X193485Y93011D01*
Y90678D01*
X194068Y90095D01*
X195235D01*
X195818Y90678D01*
X199317Y93594D02*
X196984D01*
Y90095D01*
X199317D01*
X196984Y91844D02*
X198150D01*
X110897Y94396D02*
Y90897D01*
X112646D01*
X113229Y91480D01*
Y92063D01*
X112646Y92646D01*
X110897D01*
X112646D01*
X113229Y93229D01*
Y93813D01*
X112646Y94396D01*
X110897D01*
X116728D02*
X114396D01*
Y90897D01*
X116728D01*
X114396Y92646D02*
X115562D01*
X195474Y102291D02*
X194891Y102874D01*
X193725D01*
X193141Y102291D01*
Y99958D01*
X193725Y99375D01*
X194891D01*
X195474Y99958D01*
X196640Y102874D02*
Y99375D01*
Y101125D01*
X198973D01*
Y102874D01*
Y99375D01*
X110897Y104396D02*
Y100897D01*
X112646D01*
X113229Y101480D01*
Y102063D01*
X112646Y102646D01*
X110897D01*
X112646D01*
X113229Y103229D01*
Y103813D01*
X112646Y104396D01*
X110897D01*
X114396D02*
Y100897D01*
Y102646D01*
X116728D01*
Y104396D01*
Y100897D01*
X10897Y134396D02*
Y132063D01*
X12063Y130897D01*
X13229Y132063D01*
Y134396D01*
X14396D02*
X15562D01*
X14979D01*
Y130897D01*
X14396D01*
X15562D01*
X17311D02*
Y134396D01*
X19644Y130897D01*
Y134396D01*
X231176Y116088D02*
Y118421D01*
X230593Y119004D01*
X229427D01*
X228844Y118421D01*
Y116088D01*
X229427Y115505D01*
X230593D01*
X230010Y116671D02*
X231176Y115505D01*
X230593D02*
X231176Y116088D01*
X234675Y119004D02*
X233509Y118421D01*
X232343Y117254D01*
Y116088D01*
X232926Y115505D01*
X234092D01*
X234675Y116088D01*
Y116671D01*
X234092Y117254D01*
X232343D01*
X151176Y116088D02*
Y118421D01*
X150593Y119004D01*
X149427D01*
X148844Y118421D01*
Y116088D01*
X149427Y115505D01*
X150593D01*
X150010Y116671D02*
X151176Y115505D01*
X150593D02*
X151176Y116088D01*
X154675Y119004D02*
X152343D01*
Y117254D01*
X153509Y117838D01*
X154092D01*
X154675Y117254D01*
Y116088D01*
X154092Y115505D01*
X152926D01*
X152343Y116088D01*
X71226Y116077D02*
Y118409D01*
X70643Y118993D01*
X69477D01*
X68894Y118409D01*
Y116077D01*
X69477Y115494D01*
X70643D01*
X70060Y116660D02*
X71226Y115494D01*
X70643D02*
X71226Y116077D01*
X74142Y115494D02*
Y118993D01*
X72393Y117243D01*
X74725D01*
X231176Y192427D02*
Y194759D01*
X230593Y195343D01*
X229427D01*
X228844Y194759D01*
Y192427D01*
X229427Y191844D01*
X230593D01*
X230010Y193010D02*
X231176Y191844D01*
X230593D02*
X231176Y192427D01*
X232343Y194759D02*
X232926Y195343D01*
X234092D01*
X234675Y194759D01*
Y194176D01*
X234092Y193593D01*
X233509D01*
X234092D01*
X234675Y193010D01*
Y192427D01*
X234092Y191844D01*
X232926D01*
X232343Y192427D01*
X150176D02*
Y194759D01*
X149593Y195343D01*
X148427D01*
X147844Y194759D01*
Y192427D01*
X148427Y191844D01*
X149593D01*
X149010Y193010D02*
X150176Y191844D01*
X149593D02*
X150176Y192427D01*
X153675Y191844D02*
X151343D01*
X153675Y194176D01*
Y194759D01*
X153092Y195343D01*
X151926D01*
X151343Y194759D01*
X71176Y192427D02*
Y194759D01*
X70593Y195343D01*
X69427D01*
X68844Y194759D01*
Y192427D01*
X69427Y191844D01*
X70593D01*
X70010Y193010D02*
X71176Y191844D01*
X70593D02*
X71176Y192427D01*
X72343Y191844D02*
X73509D01*
X72926D01*
Y195343D01*
X72343Y194759D01*
M02*
