M48
;Layer_Color=9474304
;FILE_FORMAT=2:5
INCH,TZ
;TYPE=PLATED
T1F00S00C0.01575
T2F00S00C0.03543
%
T01
X15197Y95197
X20197
X25197Y105197
Y120197
X20197Y125197
X15197
X10197Y120197
Y105197
X85197Y60197
X95197
Y50197
Y40197
X85197
Y50197
X105197
Y40197
Y60197
X165197
Y50197
Y40197
X175197
X185197
Y50197
X175197
Y60197
X185197
X245197
Y50197
Y40197
X255197
X265197
Y50197
X255197
Y60197
X265197
X259197Y162197
X249197
Y172197
X239197
X229197
Y162197
X239197
Y182197
X249197
X259197
Y172197
X229197Y182197
X180197Y180197
Y170197
Y160197
X170197
X160197
Y170197
X170197
Y180197
X160197
X150197
Y170197
Y160197
X100197
X90197
Y170197
X80197
X70197
Y160197
X80197
Y180197
X90197
X100197
Y170197
X70197Y180197
T02
X17706Y106017
Y116017
X47197Y106197
Y96197
Y86197
X123197Y83197
Y93197
Y103197
X206197Y101197
Y91197
Y81197
X180197Y15197
X170197
X160197
M30
