G04*
G04 #@! TF.GenerationSoftware,Altium Limited,Altium Designer,20.1.11 (218)*
G04*
G04 Layer_Color=255*
%FSLAX25Y25*%
%MOIN*%
G70*
G04*
G04 #@! TF.SameCoordinates,0A123B17-7C5E-4AB7-81A3-E10484C352A0*
G04*
G04*
G04 #@! TF.FilePolarity,Positive*
G04*
G01*
G75*
%ADD13R,0.05906X0.16339*%
%ADD14R,0.42323X0.32677*%
%ADD24C,0.05906*%
%ADD25R,0.05906X0.05906*%
%ADD26R,0.05906X0.05906*%
D13*
X235197Y54252D02*
D03*
X255197D02*
D03*
X75197D02*
D03*
X95197D02*
D03*
X154197Y130591D02*
D03*
X174197D02*
D03*
X235197D02*
D03*
X255197D02*
D03*
X75197D02*
D03*
X95197D02*
D03*
X155197Y54252D02*
D03*
X175197D02*
D03*
D14*
X245197Y95197D02*
D03*
X85197D02*
D03*
X164197Y171535D02*
D03*
X245197D02*
D03*
X85197D02*
D03*
X165197Y95197D02*
D03*
D24*
X17706Y116017D02*
D03*
X160197Y15197D02*
D03*
X170197D02*
D03*
X47197Y106197D02*
D03*
Y96197D02*
D03*
X123197Y103197D02*
D03*
Y93197D02*
D03*
X206197Y101197D02*
D03*
Y91197D02*
D03*
D25*
X17706Y106017D02*
D03*
X47197Y86197D02*
D03*
X123197Y83197D02*
D03*
X206197Y81197D02*
D03*
D26*
X180197Y15197D02*
D03*
M02*
