G04*
G04 #@! TF.GenerationSoftware,Altium Limited,Altium Designer,20.1.11 (218)*
G04*
G04 Layer_Color=32768*
%FSLAX25Y25*%
%MOIN*%
G70*
G04*
G04 #@! TF.SameCoordinates,0A123B17-7C5E-4AB7-81A3-E10484C352A0*
G04*
G04*
G04 #@! TF.FilePolarity,Positive*
G04*
G01*
G75*
%ADD28C,0.00394*%
%ADD29C,0.00197*%
D28*
X245197Y76890D02*
Y80827D01*
X243228Y78858D02*
X247165D01*
X85197Y76890D02*
Y80827D01*
X83228Y78858D02*
X87165D01*
X164197Y153228D02*
Y157165D01*
X162228Y155197D02*
X166165D01*
X245197Y153228D02*
Y157165D01*
X243228Y155197D02*
X247165D01*
X85197Y153228D02*
Y157165D01*
X83228Y155197D02*
X87165D01*
X165197Y76890D02*
Y80827D01*
X163228Y78858D02*
X167165D01*
D29*
X223051Y45197D02*
X267342D01*
X223051Y112520D02*
X267342D01*
X223051Y45197D02*
Y112520D01*
X267342Y45197D02*
Y112520D01*
X63051Y45197D02*
X107343D01*
X63051Y112520D02*
X107343D01*
X63051Y45197D02*
Y112520D01*
X107343Y45197D02*
Y112520D01*
X142051Y121535D02*
X186343D01*
X142051Y188858D02*
X186343D01*
X142051Y121535D02*
Y188858D01*
X186343Y121535D02*
Y188858D01*
X223051Y121535D02*
X267342D01*
X223051Y188858D02*
X267342D01*
X223051Y121535D02*
Y188858D01*
X267342Y121535D02*
Y188858D01*
X63051Y121535D02*
X107343D01*
X63051Y188858D02*
X107343D01*
X63051Y121535D02*
Y188858D01*
X107343Y121535D02*
Y188858D01*
X143051Y45197D02*
X187343D01*
X143051Y112520D02*
X187343D01*
X143051Y45197D02*
Y112520D01*
X187343Y45197D02*
Y112520D01*
M02*
