G04*
G04 #@! TF.GenerationSoftware,Altium Limited,Altium Designer,20.1.11 (218)*
G04*
G04 Layer_Physical_Order=2*
G04 Layer_Color=16711680*
%FSLAX25Y25*%
%MOIN*%
G70*
G04*
G04 #@! TF.SameCoordinates,0A123B17-7C5E-4AB7-81A3-E10484C352A0*
G04*
G04*
G04 #@! TF.FilePolarity,Positive*
G04*
G01*
G75*
%ADD24C,0.05906*%
%ADD25R,0.05906X0.05906*%
%ADD26R,0.05906X0.05906*%
%ADD27C,0.02756*%
G36*
X30197Y65197D02*
X275197D01*
Y35197D01*
X5197D01*
Y109373D01*
X13754D01*
Y108517D01*
X17706D01*
X21659D01*
Y109373D01*
X30197D01*
Y65197D01*
D02*
G37*
G36*
X275197Y150197D02*
X30197D01*
Y111776D01*
X19105D01*
X19005Y112276D01*
X19700Y112564D01*
X20526Y113198D01*
X20771Y113517D01*
X17706D01*
X14642D01*
X14887Y113198D01*
X15713Y112564D01*
X16408Y112276D01*
X16308Y111776D01*
X5197D01*
Y200197D01*
X275197D01*
Y150197D01*
D02*
G37*
%LPC*%
G36*
X21659Y103517D02*
X20207D01*
Y102064D01*
X21659D01*
Y103517D01*
D02*
G37*
G36*
X15206D02*
X13754D01*
Y102064D01*
X15206D01*
Y103517D01*
D02*
G37*
G36*
X20207Y119081D02*
Y118517D01*
X20771D01*
X20526Y118836D01*
X20207Y119081D01*
D02*
G37*
G36*
X15206D02*
X14887Y118836D01*
X14642Y118517D01*
X15206D01*
Y119081D01*
D02*
G37*
%LPD*%
D24*
X17706Y116017D02*
D03*
X160197Y15197D02*
D03*
X170197D02*
D03*
X47197Y106197D02*
D03*
Y96197D02*
D03*
X123197Y103197D02*
D03*
Y93197D02*
D03*
X206197Y101197D02*
D03*
Y91197D02*
D03*
D25*
X17706Y106017D02*
D03*
X47197Y86197D02*
D03*
X123197Y83197D02*
D03*
X206197Y81197D02*
D03*
D26*
X180197Y15197D02*
D03*
D27*
X15197Y95197D02*
D03*
X20197D02*
D03*
X10197Y120197D02*
D03*
X15197Y125197D02*
D03*
X20197D02*
D03*
X25197Y120197D02*
D03*
X10197Y105197D02*
D03*
X25197D02*
D03*
X265197Y40197D02*
D03*
X255197D02*
D03*
X245197D02*
D03*
Y50197D02*
D03*
X255197D02*
D03*
X265197D02*
D03*
Y60197D02*
D03*
X255197D02*
D03*
X245197D02*
D03*
X185197Y40197D02*
D03*
X175197D02*
D03*
X165197D02*
D03*
Y50197D02*
D03*
X175197D02*
D03*
X185197D02*
D03*
Y60197D02*
D03*
X175197D02*
D03*
X95197D02*
D03*
X165197D02*
D03*
X95197Y50197D02*
D03*
Y40197D02*
D03*
X85197D02*
D03*
Y50197D02*
D03*
Y60197D02*
D03*
X105197Y40197D02*
D03*
Y50197D02*
D03*
Y60197D02*
D03*
X249197Y172197D02*
D03*
X239197D02*
D03*
X229197D02*
D03*
Y162197D02*
D03*
X239197D02*
D03*
X249197D02*
D03*
X259197D02*
D03*
Y172197D02*
D03*
Y182197D02*
D03*
X249197D02*
D03*
X239197D02*
D03*
X229197D02*
D03*
X180197Y160197D02*
D03*
X170197D02*
D03*
X160197D02*
D03*
X150197D02*
D03*
Y170197D02*
D03*
X160197D02*
D03*
X170197D02*
D03*
X180197D02*
D03*
Y180197D02*
D03*
X170197D02*
D03*
X160197D02*
D03*
X150197D02*
D03*
X90197Y170197D02*
D03*
X80197D02*
D03*
X70197D02*
D03*
Y160197D02*
D03*
X80197D02*
D03*
X90197D02*
D03*
X100197D02*
D03*
Y170197D02*
D03*
Y180197D02*
D03*
X90197D02*
D03*
X80197D02*
D03*
X70197D02*
D03*
M02*
