G04*
G04 #@! TF.GenerationSoftware,Altium Limited,Altium Designer,20.1.11 (218)*
G04*
G04 Layer_Color=255*
%FSLAX25Y25*%
%MOIN*%
G70*
G04*
G04 #@! TF.SameCoordinates,A2F51ED7-86EA-4CBA-A123-1C3C6C473107*
G04*
G04*
G04 #@! TF.FilePolarity,Positive*
G04*
G01*
G75*
%ADD21C,0.08150*%
%ADD22R,0.08150X0.08150*%
%ADD23C,0.05906*%
%ADD24R,0.05906X0.05906*%
%ADD25R,0.05906X0.05906*%
D21*
X180000Y90000D02*
D03*
X190000D02*
D03*
X120000D02*
D03*
X130000D02*
D03*
X60000D02*
D03*
X70000D02*
D03*
X190000Y45000D02*
D03*
X180000D02*
D03*
X130000D02*
D03*
X120000D02*
D03*
X70000D02*
D03*
X60000D02*
D03*
D22*
X200000Y90000D02*
D03*
X140000D02*
D03*
X80000D02*
D03*
X170000Y45000D02*
D03*
X110000D02*
D03*
X50000D02*
D03*
D23*
X110000Y10000D02*
D03*
X120000D02*
D03*
X70000Y130000D02*
D03*
X60000D02*
D03*
X15000Y70000D02*
D03*
X130000Y130000D02*
D03*
X120000D02*
D03*
X190000D02*
D03*
X180000D02*
D03*
D24*
X130000Y10000D02*
D03*
X50000Y130000D02*
D03*
X110000D02*
D03*
X170000D02*
D03*
D25*
X15000Y60000D02*
D03*
M02*
