M48
;Layer_Color=9474304
;FILE_FORMAT=2:5
INCH,TZ
;TYPE=PLATED
T1F00S00C0.01575
T2F00S00C0.03543
T3F00S00C0.05433
%
T01
X55000Y30000
X60000
Y35000
X55000
X65000Y30000
X80000Y35000
X85000
X90000
Y30000
X85000
X110000
Y35000
X115000
Y30000
X125000
X130000
Y35000
X125000
X155000
Y30000
X130000Y70000
Y75000
Y80000
X125000
Y75000
Y70000
X105000
Y75000
Y80000
X100000
Y75000
Y70000
X75000
Y75000
Y80000
X70000
Y75000
Y70000
X45000
X40000
Y75000
Y80000
X45000
Y75000
X160000
Y80000
X165000
Y75000
Y70000
X160000
X185000
X190000
Y75000
Y80000
X185000
Y75000
Y35000
X190000
Y30000
X185000
X180000
X160000
Y35000
X165000
T02
X15000Y60000
Y70000
X50000Y130000
X60000
X70000
X110000
X120000
X130000
Y10000
X120000
X110000
X170000Y130000
X180000
X190000
T03
X50000Y45000
X60000
X70000
X110000
X120000
X130000
Y90000
X120000
X140000
X80000
X70000
X60000
X180000
X190000
X200000
X190000Y45000
X180000
X170000
M30
