G04*
G04 #@! TF.GenerationSoftware,Altium Limited,Altium Designer,20.1.11 (218)*
G04*
G04 Layer_Color=16711935*
%FSLAX25Y25*%
%MOIN*%
G70*
G04*
G04 #@! TF.SameCoordinates,A2F51ED7-86EA-4CBA-A123-1C3C6C473107*
G04*
G04*
G04 #@! TF.FilePolarity,Positive*
G04*
G01*
G75*
%ADD27C,0.00394*%
D27*
X206004Y77303D02*
X211004Y82303D01*
Y77303D02*
Y96319D01*
X168996D02*
X211004D01*
X168996Y77303D02*
Y96319D01*
Y77303D02*
X211004D01*
X146004D02*
X151004Y82303D01*
Y77303D02*
Y96319D01*
X108996D02*
X151004D01*
X108996Y77303D02*
Y96319D01*
Y77303D02*
X151004D01*
X86004D02*
X91004Y82303D01*
Y77303D02*
Y96319D01*
X48996D02*
X91004D01*
X48996Y77303D02*
Y96319D01*
Y77303D02*
X91004D01*
X158996Y52697D02*
X163996Y57697D01*
X158996Y38681D02*
Y57697D01*
Y38681D02*
X201004D01*
Y57697D01*
X158996D02*
X201004D01*
X98996Y52697D02*
X103996Y57697D01*
X98996Y38681D02*
Y57697D01*
Y38681D02*
X141004D01*
Y57697D01*
X98996D02*
X141004D01*
X38996Y52697D02*
X43996Y57697D01*
X38996Y38681D02*
Y57697D01*
Y38681D02*
X81004D01*
Y57697D01*
X38996D02*
X81004D01*
M02*
