G04*
G04 #@! TF.GenerationSoftware,Altium Limited,Altium Designer,20.1.11 (218)*
G04*
G04 Layer_Physical_Order=1*
G04 Layer_Color=255*
%FSLAX25Y25*%
%MOIN*%
G70*
G04*
G04 #@! TF.SameCoordinates,0A123B17-7C5E-4AB7-81A3-E10484C352A0*
G04*
G04*
G04 #@! TF.FilePolarity,Positive*
G04*
G01*
G75*
%ADD13R,0.05906X0.16339*%
%ADD14R,0.42323X0.32677*%
%ADD21C,0.03000*%
%ADD22C,0.05000*%
%ADD23C,0.02000*%
%ADD24C,0.05906*%
%ADD25R,0.05906X0.05906*%
%ADD26R,0.05906X0.05906*%
%ADD27C,0.02756*%
G36*
X275197Y150197D02*
X30197D01*
Y111776D01*
X19105D01*
X19005Y112276D01*
X19700Y112564D01*
X20526Y113198D01*
X20771Y113517D01*
X17706D01*
X14642D01*
X14887Y113198D01*
X15713Y112564D01*
X16408Y112276D01*
X16308Y111776D01*
X5197D01*
Y200197D01*
X275197D01*
Y150197D01*
D02*
G37*
G36*
X30197Y65197D02*
X72313D01*
X73158Y64352D01*
Y63421D01*
X71244D01*
Y45083D01*
X79150D01*
Y63421D01*
X77236D01*
Y65197D01*
X116592D01*
X127648Y54141D01*
Y35197D01*
X5197D01*
Y109391D01*
X13754D01*
Y108517D01*
X17706D01*
X21659D01*
Y109391D01*
X30197D01*
Y65197D01*
D02*
G37*
G36*
X232313Y65197D02*
X233158Y64352D01*
Y63421D01*
X231244D01*
Y45083D01*
X239150D01*
Y63421D01*
X237236D01*
Y65197D01*
X275197D01*
X275197Y35197D01*
X203246D01*
X202746Y35197D01*
Y60197D01*
X202552Y61172D01*
X201999Y61999D01*
X199264Y64735D01*
X199455Y65197D01*
X232313D01*
D02*
G37*
G36*
X152313Y65197D02*
X153158Y64352D01*
Y63421D01*
X151244D01*
Y45083D01*
X159150D01*
Y63421D01*
X157236D01*
Y65197D01*
X191592D01*
X197648Y59141D01*
Y36253D01*
X196592Y35197D01*
X132746Y35197D01*
Y55197D01*
X132552Y56172D01*
X131999Y56999D01*
X124264Y64735D01*
X124455Y65197D01*
X152313D01*
D02*
G37*
%LPC*%
G36*
X186358Y188874D02*
X166697D01*
Y174035D01*
X186358D01*
Y188874D01*
D02*
G37*
G36*
X107358D02*
X87697D01*
Y174035D01*
X107358D01*
Y188874D01*
D02*
G37*
G36*
X267358D02*
X247697D01*
Y174035D01*
X267358D01*
Y188874D01*
D02*
G37*
G36*
X242697D02*
X223035D01*
Y174035D01*
X242697D01*
Y188874D01*
D02*
G37*
G36*
X161697D02*
X142035D01*
Y174035D01*
X161697D01*
Y188874D01*
D02*
G37*
G36*
X82697D02*
X63035D01*
Y174035D01*
X82697D01*
Y188874D01*
D02*
G37*
G36*
X267358Y169035D02*
X247697D01*
Y154197D01*
X267358D01*
Y169035D01*
D02*
G37*
G36*
X242697D02*
X223035D01*
Y154197D01*
X242697D01*
Y169035D01*
D02*
G37*
G36*
X186358D02*
X166697D01*
Y154197D01*
X186358D01*
Y169035D01*
D02*
G37*
G36*
X161697D02*
X142035D01*
Y154197D01*
X161697D01*
Y169035D01*
D02*
G37*
G36*
X107358D02*
X87697D01*
Y154197D01*
X107358D01*
Y169035D01*
D02*
G37*
G36*
X82697D02*
X63035D01*
Y154197D01*
X82697D01*
Y169035D01*
D02*
G37*
G36*
X20207Y119081D02*
Y118517D01*
X20771D01*
X20526Y118836D01*
X20207Y119081D01*
D02*
G37*
G36*
X15206D02*
X14887Y118836D01*
X14642Y118517D01*
X15206D01*
Y119081D01*
D02*
G37*
G36*
X21659Y103517D02*
X20207D01*
Y102064D01*
X21659D01*
Y103517D01*
D02*
G37*
G36*
X15206D02*
X13754D01*
Y102064D01*
X15206D01*
Y103517D01*
D02*
G37*
G36*
X99150Y63421D02*
X97697D01*
Y56752D01*
X99150D01*
Y63421D01*
D02*
G37*
G36*
X92697D02*
X91244D01*
Y56752D01*
X92697D01*
Y63421D01*
D02*
G37*
G36*
X99150Y51752D02*
X97697D01*
Y45083D01*
X99150D01*
Y51752D01*
D02*
G37*
G36*
X92697D02*
X91244D01*
Y45083D01*
X92697D01*
Y51752D01*
D02*
G37*
G36*
X259150Y63421D02*
X257697D01*
Y56752D01*
X259150D01*
Y63421D01*
D02*
G37*
G36*
X252697D02*
X251244D01*
Y56752D01*
X252697D01*
Y63421D01*
D02*
G37*
G36*
X259150Y51752D02*
X257697D01*
Y45083D01*
X259150D01*
Y51752D01*
D02*
G37*
G36*
X252697D02*
X251244D01*
Y45083D01*
X252697D01*
Y51752D01*
D02*
G37*
G36*
X179150Y63421D02*
X177697D01*
Y56752D01*
X179150D01*
Y63421D01*
D02*
G37*
G36*
X172697D02*
X171244D01*
Y56752D01*
X172697D01*
Y63421D01*
D02*
G37*
G36*
X179150Y51752D02*
X177697D01*
Y45083D01*
X179150D01*
Y51752D01*
D02*
G37*
G36*
X172697D02*
X171244D01*
Y45083D01*
X172697D01*
Y51752D01*
D02*
G37*
%LPD*%
D13*
X235197Y54252D02*
D03*
X255197D02*
D03*
X75197D02*
D03*
X95197D02*
D03*
X154197Y130591D02*
D03*
X174197D02*
D03*
X235197D02*
D03*
X255197D02*
D03*
X75197D02*
D03*
X95197D02*
D03*
X155197Y54252D02*
D03*
X175197D02*
D03*
D14*
X245197Y95197D02*
D03*
X85197D02*
D03*
X164197Y171535D02*
D03*
X245197D02*
D03*
X85197D02*
D03*
X165197Y95197D02*
D03*
D21*
X200197Y35197D02*
Y60197D01*
X175197Y25197D02*
X190197D01*
X200197Y35197D01*
X165197Y95197D02*
X200197Y60197D01*
X170197Y20197D02*
X175197Y25197D01*
X170197Y15197D02*
Y20197D01*
X180197Y15197D02*
X275197D01*
X290197Y30197D01*
Y65197D01*
X260197Y95197D02*
X290197Y65197D01*
X245197Y95197D02*
X260197D01*
X140197Y15197D02*
X160197D01*
X130197Y25197D02*
X140197Y15197D01*
X130197Y25197D02*
Y55197D01*
X90197Y95197D02*
X130197Y55197D01*
X85197Y95197D02*
X90197D01*
D22*
X85197D02*
X95197Y105197D01*
Y130591D01*
X165197Y95197D02*
X174197Y104197D01*
Y130591D01*
X245197Y95197D02*
X255197Y105197D01*
Y130591D01*
X78858Y165197D02*
X85197Y171535D01*
X243858Y167197D02*
X246197Y169535D01*
D23*
X235197Y54252D02*
Y65197D01*
X230197Y70197D02*
X235197Y65197D01*
X217197Y70197D02*
X230197D01*
X206197Y81197D02*
X217197Y70197D01*
X241197Y91197D02*
X245197Y95197D01*
X206197Y91197D02*
X241197D01*
X206197Y101591D02*
X235197Y130591D01*
X206197Y101197D02*
Y101591D01*
X155197Y54252D02*
Y65197D01*
X150197Y70197D02*
X155197Y65197D01*
X136197Y70197D02*
X150197D01*
X123197Y83197D02*
X136197Y70197D01*
X163197Y93197D02*
X165197Y95197D01*
X123197Y93197D02*
X163197D01*
X150591Y130591D02*
X154197D01*
X123197Y103197D02*
X150591Y130591D01*
X84197Y96197D02*
X85197Y95197D01*
X47197Y96197D02*
X84197D01*
X75197Y54252D02*
Y65197D01*
X70197Y70197D02*
X75197Y65197D01*
X63197Y70197D02*
X70197D01*
X47197Y86197D02*
X63197Y70197D01*
X71591Y130591D02*
X75197D01*
X47197Y106197D02*
X71591Y130591D01*
D24*
X17706Y116017D02*
D03*
X160197Y15197D02*
D03*
X170197D02*
D03*
X47197Y106197D02*
D03*
Y96197D02*
D03*
X123197Y103197D02*
D03*
Y93197D02*
D03*
X206197Y101197D02*
D03*
Y91197D02*
D03*
D25*
X17706Y106017D02*
D03*
X47197Y86197D02*
D03*
X123197Y83197D02*
D03*
X206197Y81197D02*
D03*
D26*
X180197Y15197D02*
D03*
D27*
X15197Y95197D02*
D03*
X20197D02*
D03*
X10197Y120197D02*
D03*
X15197Y125197D02*
D03*
X20197D02*
D03*
X25197Y120197D02*
D03*
X10197Y105197D02*
D03*
X25197D02*
D03*
X265197Y40197D02*
D03*
X255197D02*
D03*
X245197D02*
D03*
Y50197D02*
D03*
X255197D02*
D03*
X265197D02*
D03*
Y60197D02*
D03*
X255197D02*
D03*
X245197D02*
D03*
X185197Y40197D02*
D03*
X175197D02*
D03*
X165197D02*
D03*
Y50197D02*
D03*
X175197D02*
D03*
X185197D02*
D03*
Y60197D02*
D03*
X175197D02*
D03*
X95197D02*
D03*
X165197D02*
D03*
X95197Y50197D02*
D03*
Y40197D02*
D03*
X85197D02*
D03*
Y50197D02*
D03*
Y60197D02*
D03*
X105197Y40197D02*
D03*
Y50197D02*
D03*
Y60197D02*
D03*
X249197Y172197D02*
D03*
X239197D02*
D03*
X229197D02*
D03*
Y162197D02*
D03*
X239197D02*
D03*
X249197D02*
D03*
X259197D02*
D03*
Y172197D02*
D03*
Y182197D02*
D03*
X249197D02*
D03*
X239197D02*
D03*
X229197D02*
D03*
X180197Y160197D02*
D03*
X170197D02*
D03*
X160197D02*
D03*
X150197D02*
D03*
Y170197D02*
D03*
X160197D02*
D03*
X170197D02*
D03*
X180197D02*
D03*
Y180197D02*
D03*
X170197D02*
D03*
X160197D02*
D03*
X150197D02*
D03*
X90197Y170197D02*
D03*
X80197D02*
D03*
X70197D02*
D03*
Y160197D02*
D03*
X80197D02*
D03*
X90197D02*
D03*
X100197D02*
D03*
Y170197D02*
D03*
Y180197D02*
D03*
X90197D02*
D03*
X80197D02*
D03*
X70197D02*
D03*
M02*
