G04*
G04 #@! TF.GenerationSoftware,Altium Limited,Altium Designer,20.1.11 (218)*
G04*
G04 Layer_Color=65535*
%FSLAX25Y25*%
%MOIN*%
G70*
G04*
G04 #@! TF.SameCoordinates,A2F51ED7-86EA-4CBA-A123-1C3C6C473107*
G04*
G04*
G04 #@! TF.FilePolarity,Positive*
G04*
G01*
G75*
%ADD10C,0.00787*%
%ADD11C,0.00700*%
D10*
X211004Y77303D02*
Y90000D01*
X168996Y77303D02*
X211004D01*
X168996D02*
Y96319D01*
X151004Y77303D02*
Y90000D01*
X108996Y77303D02*
X151004D01*
X108996D02*
Y96319D01*
X91004Y77303D02*
Y90000D01*
X48996Y77303D02*
X91004D01*
X48996D02*
Y96319D01*
X158996Y45000D02*
Y57697D01*
X201004D01*
Y38681D02*
Y57697D01*
X98996Y45000D02*
Y57697D01*
X141004D01*
Y38681D02*
Y57697D01*
X38996Y45000D02*
Y57697D01*
X81004D01*
Y38681D02*
Y57697D01*
X135000Y5000D02*
Y15000D01*
X105000Y5000D02*
X135000D01*
X105000D02*
Y15000D01*
X135000D01*
X45000Y125000D02*
Y135000D01*
X75000D01*
Y125000D02*
Y135000D01*
X45000Y125000D02*
X75000D01*
X10000Y75000D02*
X20000D01*
Y55000D02*
Y75000D01*
X10000Y55000D02*
X20000D01*
X10000D02*
Y75000D01*
X105000Y125000D02*
Y135000D01*
X135000D01*
Y125000D02*
Y135000D01*
X105000Y125000D02*
X135000D01*
X165000D02*
Y135000D01*
X195000D01*
Y125000D02*
Y135000D01*
X165000Y125000D02*
X195000D01*
D11*
X24033Y60616D02*
X23449Y61199D01*
X22283D01*
X21700Y60616D01*
Y58283D01*
X22283Y57700D01*
X23449D01*
X24033Y58283D01*
Y59449D01*
X22866D01*
X25199Y57700D02*
Y61199D01*
X27531Y57700D01*
Y61199D01*
X28698D02*
Y57700D01*
X30447D01*
X31030Y58283D01*
Y60616D01*
X30447Y61199D01*
X28698D01*
X56700Y136700D02*
Y139033D01*
X57866Y140199D01*
X59033Y139033D01*
Y136700D01*
Y138449D01*
X56700D01*
X62531Y140199D02*
X60199D01*
Y136700D01*
X62531D01*
X60199Y138449D02*
X61365D01*
X21700Y72199D02*
Y69866D01*
X22866Y68700D01*
X24033Y69866D01*
Y72199D01*
X27531Y71616D02*
X26948Y72199D01*
X25782D01*
X25199Y71616D01*
Y69283D01*
X25782Y68700D01*
X26948D01*
X27531Y69283D01*
X31030Y71616D02*
X30447Y72199D01*
X29281D01*
X28698Y71616D01*
Y69283D01*
X29281Y68700D01*
X30447D01*
X31030Y69283D01*
X131033Y19616D02*
X130449Y20199D01*
X129283D01*
X128700Y19616D01*
Y17283D01*
X129283Y16700D01*
X130449D01*
X131033Y17283D01*
X169033Y139616D02*
X168449Y140199D01*
X167283D01*
X166700Y139616D01*
Y137283D01*
X167283Y136700D01*
X168449D01*
X169033Y137283D01*
X170199Y140199D02*
Y136700D01*
X172531D01*
X118700Y20199D02*
Y16700D01*
X120449D01*
X121033Y17283D01*
Y17866D01*
X120449Y18449D01*
X118700D01*
X120449D01*
X121033Y19033D01*
Y19616D01*
X120449Y20199D01*
X118700D01*
X47700Y136700D02*
Y139033D01*
X48866Y140199D01*
X50033Y139033D01*
Y136700D01*
Y138449D01*
X47700D01*
X51199Y140199D02*
Y136700D01*
X53531D01*
X189033Y139616D02*
X188449Y140199D01*
X187283D01*
X186700Y139616D01*
Y137283D01*
X187283Y136700D01*
X188449D01*
X189033Y137283D01*
X190199Y140199D02*
Y136700D01*
Y138449D01*
X192531D01*
Y140199D01*
Y136700D01*
X66700D02*
Y139033D01*
X67866Y140199D01*
X69033Y139033D01*
Y136700D01*
Y138449D01*
X66700D01*
X70199Y140199D02*
Y136700D01*
Y138449D01*
X72531D01*
Y140199D01*
Y136700D01*
X179033Y139616D02*
X178449Y140199D01*
X177283D01*
X176700Y139616D01*
Y137283D01*
X177283Y136700D01*
X178449D01*
X179033Y137283D01*
X182531Y140199D02*
X180199D01*
Y136700D01*
X182531D01*
X180199Y138449D02*
X181365D01*
X116700Y140199D02*
Y136700D01*
X118449D01*
X119033Y137283D01*
Y137866D01*
X118449Y138449D01*
X116700D01*
X118449D01*
X119033Y139033D01*
Y139616D01*
X118449Y140199D01*
X116700D01*
X122531D02*
X120199D01*
Y136700D01*
X122531D01*
X120199Y138449D02*
X121365D01*
X126700Y140199D02*
Y136700D01*
X128449D01*
X129033Y137283D01*
Y137866D01*
X128449Y138449D01*
X126700D01*
X128449D01*
X129033Y139033D01*
Y139616D01*
X128449Y140199D01*
X126700D01*
X130199D02*
Y136700D01*
Y138449D01*
X132531D01*
Y140199D01*
Y136700D01*
X108700Y16700D02*
Y19033D01*
X109866Y20199D01*
X111033Y19033D01*
Y16700D01*
Y18449D01*
X108700D01*
X106700Y140199D02*
Y136700D01*
X108449D01*
X109033Y137283D01*
Y137866D01*
X108449Y138449D01*
X106700D01*
X108449D01*
X109033Y139033D01*
Y139616D01*
X108449Y140199D01*
X106700D01*
X110199D02*
Y136700D01*
X112531D01*
X170933Y100683D02*
Y103016D01*
X170349Y103599D01*
X169183D01*
X168600Y103016D01*
Y100683D01*
X169183Y100100D01*
X170349D01*
X169766Y101266D02*
X170933Y100100D01*
X170349D02*
X170933Y100683D01*
X172099Y103016D02*
X172682Y103599D01*
X173848D01*
X174431Y103016D01*
Y102433D01*
X173848Y101849D01*
X173265D01*
X173848D01*
X174431Y101266D01*
Y100683D01*
X173848Y100100D01*
X172682D01*
X172099Y100683D01*
X110933D02*
Y103016D01*
X110349Y103599D01*
X109183D01*
X108600Y103016D01*
Y100683D01*
X109183Y100100D01*
X110349D01*
X109766Y101266D02*
X110933Y100100D01*
X110349D02*
X110933Y100683D01*
X114431Y100100D02*
X112099D01*
X114431Y102433D01*
Y103016D01*
X113848Y103599D01*
X112682D01*
X112099Y103016D01*
X50933Y100683D02*
Y103016D01*
X50349Y103599D01*
X49183D01*
X48600Y103016D01*
Y100683D01*
X49183Y100100D01*
X50349D01*
X49766Y101266D02*
X50933Y100100D01*
X50349D02*
X50933Y100683D01*
X52099Y100100D02*
X53265D01*
X52682D01*
Y103599D01*
X52099Y103016D01*
X160933Y62083D02*
Y64416D01*
X160349Y64999D01*
X159183D01*
X158600Y64416D01*
Y62083D01*
X159183Y61500D01*
X160349D01*
X159766Y62666D02*
X160933Y61500D01*
X160349D02*
X160933Y62083D01*
X164431Y64999D02*
X163265Y64416D01*
X162099Y63249D01*
Y62083D01*
X162682Y61500D01*
X163848D01*
X164431Y62083D01*
Y62666D01*
X163848Y63249D01*
X162099D01*
X100933Y62083D02*
Y64416D01*
X100349Y64999D01*
X99183D01*
X98600Y64416D01*
Y62083D01*
X99183Y61500D01*
X100349D01*
X99766Y62666D02*
X100933Y61500D01*
X100349D02*
X100933Y62083D01*
X104431Y64999D02*
X102099D01*
Y63249D01*
X103265Y63833D01*
X103848D01*
X104431Y63249D01*
Y62083D01*
X103848Y61500D01*
X102682D01*
X102099Y62083D01*
X40933D02*
Y64416D01*
X40349Y64999D01*
X39183D01*
X38600Y64416D01*
Y62083D01*
X39183Y61500D01*
X40349D01*
X39766Y62666D02*
X40933Y61500D01*
X40349D02*
X40933Y62083D01*
X43848Y61500D02*
Y64999D01*
X42099Y63249D01*
X44431D01*
M02*
