G04*
G04 #@! TF.GenerationSoftware,Altium Limited,Altium Designer,20.1.11 (218)*
G04*
G04 Layer_Physical_Order=1*
G04 Layer_Color=255*
%FSLAX25Y25*%
%MOIN*%
G70*
G04*
G04 #@! TF.SameCoordinates,771CE6F3-DBCC-4900-95A1-F469B71700FF*
G04*
G04*
G04 #@! TF.FilePolarity,Positive*
G04*
G01*
G75*
%ADD18R,0.04921X0.02953*%
%ADD19R,0.02362X0.03937*%
%ADD20R,0.05315X0.03937*%
%ADD21C,0.02500*%
%ADD22C,0.01000*%
%ADD23C,0.02300*%
%ADD24R,0.05906X0.05906*%
%ADD25C,0.05906*%
G36*
X187500Y110000D02*
X117500D01*
Y140000D01*
X187500D01*
Y110000D01*
D02*
G37*
%LPC*%
G36*
X178000Y138921D02*
Y135500D01*
X181421D01*
X181351Y136032D01*
X180953Y136993D01*
X180319Y137819D01*
X179493Y138453D01*
X178532Y138851D01*
X178000Y138921D01*
D02*
G37*
G36*
X177000D02*
X176468Y138851D01*
X175507Y138453D01*
X174681Y137819D01*
X174047Y136993D01*
X173649Y136032D01*
X173579Y135500D01*
X177000D01*
Y138921D01*
D02*
G37*
G36*
X181421Y134500D02*
X178000D01*
Y131079D01*
X178532Y131149D01*
X179493Y131547D01*
X180319Y132181D01*
X180953Y133007D01*
X181351Y133968D01*
X181421Y134500D01*
D02*
G37*
G36*
X177000D02*
X173579D01*
X173649Y133968D01*
X174047Y133007D01*
X174681Y132181D01*
X175507Y131547D01*
X176468Y131149D01*
X177000Y131079D01*
Y134500D01*
D02*
G37*
G36*
X131453Y138953D02*
X123547D01*
Y131047D01*
X131453D01*
Y132808D01*
X135529D01*
X136539Y131798D01*
Y128961D01*
X143461D01*
Y129865D01*
X146079D01*
Y129445D01*
X151500D01*
Y132413D01*
Y135382D01*
X146079D01*
Y132923D01*
X143461D01*
Y133913D01*
X140624D01*
X137987Y136550D01*
X137276Y137025D01*
X136437Y137192D01*
X131453D01*
Y138953D01*
D02*
G37*
G36*
X168658Y131610D02*
X165500D01*
Y129142D01*
X168658D01*
Y131610D01*
D02*
G37*
G36*
X164500D02*
X161343D01*
Y129142D01*
X164500D01*
Y131610D01*
D02*
G37*
G36*
X157921Y135382D02*
X152500D01*
Y132413D01*
Y129445D01*
X156546D01*
X156893Y129097D01*
Y128154D01*
X157010Y127569D01*
X157341Y127073D01*
X160495Y123919D01*
X160622Y123834D01*
X160470Y123334D01*
X157921D01*
Y124555D01*
X153559D01*
Y121642D01*
X153548Y121587D01*
X153559Y121531D01*
Y118618D01*
X157921D01*
Y118950D01*
X161343D01*
Y118390D01*
X168658D01*
Y118950D01*
X170447D01*
X173547Y115849D01*
Y111047D01*
X181453D01*
Y118953D01*
X176644D01*
X172905Y122692D01*
X172488Y122971D01*
X172640Y123471D01*
X173855D01*
X174047Y123007D01*
X174681Y122181D01*
X175507Y121547D01*
X176468Y121149D01*
X177500Y121013D01*
X178532Y121149D01*
X179493Y121547D01*
X180319Y122181D01*
X180953Y123007D01*
X181351Y123968D01*
X181487Y125000D01*
X181351Y126032D01*
X180953Y126993D01*
X180319Y127819D01*
X179493Y128453D01*
X178532Y128851D01*
X177500Y128987D01*
X176468Y128851D01*
X175507Y128453D01*
X174681Y127819D01*
X174047Y126993D01*
X173855Y126529D01*
X168658D01*
Y128142D01*
X161343D01*
Y128050D01*
X160881Y127859D01*
X159952Y128788D01*
Y129731D01*
X159836Y130316D01*
X159504Y130812D01*
X157921Y132395D01*
Y135382D01*
D02*
G37*
G36*
X127500Y128987D02*
X126468Y128851D01*
X125507Y128453D01*
X124681Y127819D01*
X124047Y126993D01*
X123649Y126032D01*
X123513Y125000D01*
X123649Y123968D01*
X124047Y123007D01*
X124681Y122181D01*
X125507Y121547D01*
X126468Y121149D01*
X127500Y121013D01*
X128532Y121149D01*
X128730Y121231D01*
X129035Y121170D01*
X136539D01*
Y121087D01*
X143461D01*
Y122723D01*
X144961D01*
X146079Y121605D01*
Y118618D01*
X150441D01*
Y124555D01*
X147454D01*
X146676Y125333D01*
X146180Y125665D01*
X145595Y125781D01*
X143461D01*
Y126039D01*
X136539D01*
Y125759D01*
X131387D01*
X131351Y126032D01*
X130953Y126993D01*
X130319Y127819D01*
X129493Y128453D01*
X128532Y128851D01*
X127500Y128987D01*
D02*
G37*
%LPD*%
D18*
X140000Y131437D02*
D03*
Y123563D02*
D03*
D19*
X155740Y132413D02*
D03*
X152000D02*
D03*
X148260D02*
D03*
Y121587D02*
D03*
X155740D02*
D03*
D20*
X165000Y128642D02*
D03*
Y121358D02*
D03*
D21*
X127500Y125000D02*
X129035Y123465D01*
X139901D02*
X140000Y123563D01*
X129035Y123465D02*
X139901D01*
D22*
X140000Y131437D02*
X140043Y131394D01*
X147240D02*
X148260Y132413D01*
X140043Y131394D02*
X147240D01*
X145595Y124252D02*
X148260Y121587D01*
X140000Y124252D02*
X145595D01*
X158423Y128154D02*
Y129731D01*
X155740Y132413D02*
X158423Y129731D01*
Y128154D02*
X161577Y125000D01*
X163154D01*
X177500D01*
D23*
X127500Y135000D02*
X136437D01*
X140000Y131437D01*
X155740Y121587D02*
X156185Y121142D01*
X165000D01*
X171355D01*
X177497Y115000D01*
X177500D01*
D24*
X127500Y135000D02*
D03*
X177500Y115000D02*
D03*
D25*
X127500Y125000D02*
D03*
X177500Y135000D02*
D03*
Y125000D02*
D03*
M02*
