M48
;Layer_Color=9474304
;FILE_FORMAT=2:5
INCH,TZ
;TYPE=PLATED
T3F00S00C0.02800
T4F00S00C0.03937
%
T03
X151575Y30709
X161811Y22835
X138189Y46457
X78740Y24803
X62205Y57480
Y66929
X56693Y76772
Y88583
X57480Y113779
Y124409
X69685Y172835
X89764Y166929
X138583Y155905
X151575Y139764
X162205Y132677
T04
X26772Y52362
Y62205
Y72047
Y81890
X26378Y118110
Y127953
M30
