G04*
G04 #@! TF.GenerationSoftware,Altium Limited,Altium Designer,21.6.4 (81)*
G04*
G04 Layer_Color=16711935*
%FSLAX25Y25*%
%MOIN*%
G70*
G04*
G04 #@! TF.SameCoordinates,D96B5EB0-5715-4667-86B1-06F83BB8B169*
G04*
G04*
G04 #@! TF.FilePolarity,Positive*
G04*
G01*
G75*
%ADD13C,0.00500*%
%ADD42C,0.00394*%
D13*
X180118Y23425D02*
X562008D01*
X180118Y157283D02*
X562008D01*
Y23425D02*
Y157283D01*
X180118Y23425D02*
Y157283D01*
D42*
X67323Y89173D02*
X73622D01*
X67323Y76181D02*
X73622D01*
Y89173D01*
X67323Y76181D02*
Y89173D01*
Y124606D02*
X73622D01*
X67323Y111614D02*
X73622D01*
Y124606D01*
X67323Y111614D02*
Y124606D01*
X81102Y161811D02*
Y169685D01*
X76378Y161811D02*
Y169685D01*
X81102D01*
X76378Y161811D02*
X81102D01*
X74803Y55905D02*
Y63779D01*
X70079Y55905D02*
Y63779D01*
X74803D01*
X70079Y55905D02*
X74803D01*
X61024Y157874D02*
Y165748D01*
X65748Y157874D02*
Y165748D01*
X61024Y157874D02*
X65748D01*
X61024Y165748D02*
X65748D01*
X65748Y21654D02*
Y29528D01*
X61024Y21654D02*
Y29528D01*
X65748D01*
X61024Y21654D02*
X65748D01*
X57087Y46850D02*
X64961D01*
X57087Y51575D02*
X64961D01*
Y46850D02*
Y51575D01*
X57087Y46850D02*
Y51575D01*
X58661Y40551D02*
Y43701D01*
X64961Y40551D02*
Y43701D01*
X58661D02*
X64961D01*
X58661Y40551D02*
X64961D01*
X58661Y34252D02*
Y37402D01*
X64961Y34252D02*
Y37402D01*
X58661D02*
X64961D01*
X58661Y34252D02*
X64961D01*
X65748Y131102D02*
Y138976D01*
X61024Y131102D02*
Y138976D01*
X65748D01*
X61024Y131102D02*
X65748D01*
X58661Y150000D02*
Y153150D01*
X64961Y150000D02*
Y153150D01*
X58661D02*
X64961D01*
X58661Y150000D02*
X64961D01*
X58661Y143701D02*
Y146850D01*
X64961Y143701D02*
Y146850D01*
X58661D02*
X64961D01*
X58661Y143701D02*
X64961D01*
X160236Y31102D02*
X172835D01*
X160236Y37402D02*
X172835D01*
Y31102D02*
Y37402D01*
X160236Y31102D02*
Y37402D01*
Y141732D02*
Y148031D01*
X172835Y141732D02*
Y148031D01*
X160236D02*
X172835D01*
X160236Y141732D02*
X172835D01*
X139764Y132283D02*
X144488D01*
X139764Y140157D02*
X144488D01*
X139764Y132283D02*
Y140157D01*
X144488Y132283D02*
Y140157D01*
X139764Y22835D02*
X144488D01*
X139764Y30709D02*
X144488D01*
X139764Y22835D02*
Y30709D01*
X144488Y22835D02*
Y30709D01*
X131496Y22835D02*
X136221D01*
X131496Y30709D02*
X136221D01*
X131496Y22835D02*
Y30709D01*
X136221Y22835D02*
Y30709D01*
X131496Y132283D02*
X136221D01*
X131496Y140157D02*
X136221D01*
X131496Y132283D02*
Y140157D01*
X136221Y132283D02*
Y140157D01*
M02*
