M48
;Layer_Color=9474304
;FILE_FORMAT=2:5
INCH,TZ
;TYPE=PLATED
T1F00S00C0.00984
T2F00S00C0.02756
%
G90
G05
T01
G00X88976Y78740
M15
G01X89961
M16
G00X98976Y78740
M15
G01X99961
M16
G00X118978Y78740
M15
G01X119963
M16
G00X138976Y78740
M15
G01X139961
M16
G00X138976Y120472
M15
G01X139961
M16
G00X118978Y120472
M15
G01X119963
M16
G00X98976Y120472
M15
G01X99961
M16
G00X88976Y120472
M15
G01X89961
M16
T02
G00X208071Y38189
M15
G01X217126
M16
G00X208071Y56693
M15
G01X217126
M16
G00X208071Y122047
M15
G01X217126
M16
G00X208071Y140551
M15
G01X217126
M16
M30
