G04*
G04 #@! TF.GenerationSoftware,Altium Limited,Altium Designer,21.6.4 (81)*
G04*
G04 Layer_Color=16711935*
%FSLAX25Y25*%
%MOIN*%
G70*
G04*
G04 #@! TF.SameCoordinates,D96B5EB0-5715-4667-86B1-06F83BB8B169*
G04*
G04*
G04 #@! TF.FilePolarity,Negative*
G04*
G01*
G75*
%ADD30R,0.03556X0.02572*%
%ADD31R,0.12611X0.03556*%
G04:AMPARAMS|DCode=32|XSize=74.93mil|YSize=86.74mil|CornerRadius=20.73mil|HoleSize=0mil|Usage=FLASHONLY|Rotation=90.000|XOffset=0mil|YOffset=0mil|HoleType=Round|Shape=RoundedRectangle|*
%AMROUNDEDRECTD32*
21,1,0.07493,0.04528,0,0,90.0*
21,1,0.03347,0.08674,0,0,90.0*
1,1,0.04146,0.02264,0.01673*
1,1,0.04146,0.02264,-0.01673*
1,1,0.04146,-0.02264,-0.01673*
1,1,0.04146,-0.02264,0.01673*
%
%ADD32ROUNDEDRECTD32*%
%ADD33O,0.08674X0.07493*%
%ADD34C,0.05800*%
D30*
X89468Y120472D02*
D03*
X99468D02*
D03*
X119471D02*
D03*
X139469D02*
D03*
X89468Y78740D02*
D03*
X99468D02*
D03*
X119471D02*
D03*
X139469D02*
D03*
D31*
X212598Y38189D02*
D03*
Y56693D02*
D03*
Y122047D02*
D03*
Y140551D02*
D03*
D32*
X26772Y52362D02*
D03*
X26378Y127953D02*
D03*
D33*
X26772Y62205D02*
D03*
Y72047D02*
D03*
Y81890D02*
D03*
X26378Y118110D02*
D03*
D34*
X57480Y113779D02*
D03*
X56693Y76772D02*
D03*
Y88583D02*
D03*
X151575Y139764D02*
D03*
X62205Y57480D02*
D03*
X69685Y172835D02*
D03*
X89764Y166929D02*
D03*
X78740Y24803D02*
D03*
X62205Y66929D02*
D03*
X57480Y124409D02*
D03*
X138189Y46457D02*
D03*
X161811Y22835D02*
D03*
X151575Y30709D02*
D03*
X138583Y155905D02*
D03*
X162205Y132677D02*
D03*
M02*
