G04*
G04 #@! TF.GenerationSoftware,Altium Limited,Altium Designer,21.6.4 (81)*
G04*
G04 Layer_Color=8388736*
%FSLAX25Y25*%
%MOIN*%
G70*
G04*
G04 #@! TF.SameCoordinates,D96B5EB0-5715-4667-86B1-06F83BB8B169*
G04*
G04*
G04 #@! TF.FilePolarity,Negative*
G04*
G01*
G75*
%ADD23R,0.07690X0.05131*%
G04:AMPARAMS|DCode=24|XSize=47.37mil|YSize=47.37mil|CornerRadius=13.84mil|HoleSize=0mil|Usage=FLASHONLY|Rotation=90.000|XOffset=0mil|YOffset=0mil|HoleType=Round|Shape=RoundedRectangle|*
%AMROUNDEDRECTD24*
21,1,0.04737,0.01968,0,0,90.0*
21,1,0.01968,0.04737,0,0,90.0*
1,1,0.02769,0.00984,0.00984*
1,1,0.02769,0.00984,-0.00984*
1,1,0.02769,-0.00984,-0.00984*
1,1,0.02769,-0.00984,0.00984*
%
%ADD24ROUNDEDRECTD24*%
%ADD25R,0.07887X0.03162*%
%ADD26R,0.06115X0.04737*%
%ADD27R,0.04737X0.06115*%
%ADD28R,0.03556X0.04147*%
%ADD29R,0.04343X0.07296*%
%ADD30R,0.03556X0.02572*%
%ADD31R,0.12611X0.03556*%
G04:AMPARAMS|DCode=32|XSize=74.93mil|YSize=86.74mil|CornerRadius=20.73mil|HoleSize=0mil|Usage=FLASHONLY|Rotation=90.000|XOffset=0mil|YOffset=0mil|HoleType=Round|Shape=RoundedRectangle|*
%AMROUNDEDRECTD32*
21,1,0.07493,0.04528,0,0,90.0*
21,1,0.03347,0.08674,0,0,90.0*
1,1,0.04146,0.02264,0.01673*
1,1,0.04146,0.02264,-0.01673*
1,1,0.04146,-0.02264,-0.01673*
1,1,0.04146,-0.02264,0.01673*
%
%ADD32ROUNDEDRECTD32*%
%ADD33O,0.08674X0.07493*%
%ADD34C,0.05800*%
D23*
X70472Y112106D02*
D03*
Y88681D02*
D03*
Y76673D02*
D03*
Y124114D02*
D03*
D24*
X72047Y30709D02*
D03*
X45669Y29134D02*
D03*
X56693Y98425D02*
D03*
X55905Y105905D02*
D03*
X72047Y140551D02*
D03*
X153937Y15354D02*
D03*
X124803Y23228D02*
D03*
X168504Y155512D02*
D03*
X167717Y48425D02*
D03*
X72047Y47638D02*
D03*
Y156299D02*
D03*
X72441Y103937D02*
D03*
X124803Y133071D02*
D03*
X132677Y162992D02*
D03*
D25*
X124695Y46339D02*
D03*
Y41339D02*
D03*
Y36339D02*
D03*
Y31339D02*
D03*
X87094Y46339D02*
D03*
Y41339D02*
D03*
Y36339D02*
D03*
Y31339D02*
D03*
Y140905D02*
D03*
Y145905D02*
D03*
Y150906D02*
D03*
Y155905D02*
D03*
X124695Y140905D02*
D03*
Y145905D02*
D03*
Y150906D02*
D03*
Y155905D02*
D03*
D26*
X78740Y169390D02*
D03*
Y162106D02*
D03*
X72441Y63484D02*
D03*
Y56201D02*
D03*
X63386Y158169D02*
D03*
Y165453D02*
D03*
Y29232D02*
D03*
Y21949D02*
D03*
Y138681D02*
D03*
Y131398D02*
D03*
X142126Y132579D02*
D03*
Y139862D02*
D03*
Y23130D02*
D03*
Y30413D02*
D03*
X133858Y23130D02*
D03*
Y30413D02*
D03*
Y132579D02*
D03*
Y139862D02*
D03*
D27*
X64665Y49213D02*
D03*
X57382D02*
D03*
D28*
X58563Y42126D02*
D03*
X65059D02*
D03*
X58563Y35827D02*
D03*
X65059D02*
D03*
X58563Y151575D02*
D03*
X65059D02*
D03*
X58563Y145276D02*
D03*
X65059D02*
D03*
D29*
X172539Y34252D02*
D03*
X160531D02*
D03*
Y144882D02*
D03*
X172539D02*
D03*
D30*
X89468Y120472D02*
D03*
X99468D02*
D03*
X119471D02*
D03*
X139469D02*
D03*
X89468Y78740D02*
D03*
X99468D02*
D03*
X119471D02*
D03*
X139469D02*
D03*
D31*
X212598Y38189D02*
D03*
Y56693D02*
D03*
Y122047D02*
D03*
Y140551D02*
D03*
D32*
X26772Y52362D02*
D03*
X26378Y127953D02*
D03*
D33*
X26772Y62205D02*
D03*
Y72047D02*
D03*
Y81890D02*
D03*
X26378Y118110D02*
D03*
D34*
X57480Y113779D02*
D03*
X56693Y76772D02*
D03*
Y88583D02*
D03*
X151575Y139764D02*
D03*
X62205Y57480D02*
D03*
X69685Y172835D02*
D03*
X89764Y166929D02*
D03*
X78740Y24803D02*
D03*
X62205Y66929D02*
D03*
X57480Y124409D02*
D03*
X138189Y46457D02*
D03*
X161811Y22835D02*
D03*
X151575Y30709D02*
D03*
X138583Y155905D02*
D03*
X162205Y132677D02*
D03*
M02*
